<?xml version="1.0" encoding="utf-8"?>
<!-- Generator: Adobe Illustrator 25.2.1, SVG Export Plug-In . SVG Version: 6.00 Build 0)  -->
<svg version="1.1" id="Layer_1" xmlns="http://www.w3.org/2000/svg" xmlns:xlink="http://www.w3.org/1999/xlink" x="0px" y="0px"
	 viewBox="0 0 381 318" style="enable-background:new 0 0 381 318;" xml:space="preserve">
<style type="text/css">
	.st0{fill:#9BB6EA;stroke:#FFFFFF;stroke-width:0.5;stroke-miterlimit:10;}
	.st1{fill:#303030;}
	.st2{font-family:'TimesNewRomanPSMT';}
	.st3{font-size:16px;}
	.st4{fill:#FFFFFF;}
	.st5{font-size:24.672px;}
	.st6{fill:#ABBEED;stroke:#FFFFFF;stroke-width:0.5;stroke-miterlimit:10;}
	.st7{fill:#7CA7E5;stroke:#FFFFFF;stroke-width:0.5;stroke-miterlimit:10;}
	.st8{fill:#C5CFED;stroke:#FFFFFF;stroke-width:1.033;}
	.st9{fill:#8BAFE8;stroke:#FFFFFF;stroke-width:0.5;stroke-miterlimit:10;}
</style>
<g id="pabna-1">
	<path class="st0" d="M211.8,206.1l0.6,1.4l-0.2,1.8l-0.6,0.8l0.6,1.4l1.8-1.8l1,2.1l1.9,0.6l1.4-1.4l1.4-2.2l0.3-2.6l1.4-0.8
		l2.1,0.6l0.8,1.8l1-0.2l0.8-1.1l1.1,1.9c0,0,1.4,0.8,1.6,1s1.4,4,1.4,4l1.9,0.3l3.3,2.2l2.7,0.8l0.5,1.4l-1.9,0.5l-2.1,0.5
		l-0.6,1.6l-0.2,2.1l1.8,0.6l5.4,0.5l1.3-0.3l0.6-1.9h1.1l0.3,1.4l0.3,1.8v0.8l1.6-0.3l0.3-1.9l1-1.1l2.1-1.4l0.8-0.8l0.6-1.6
		l1.6-0.2l3.7,2.1l0.8,2.2l1.4,1.1l3.8-0.2l4.5-1.9l2.9-1.4l1.3,1l-0.3,3.5l0.3,2.4l1.8,0.8l2.4-1.1l5.6-4.9l3.8-1.4l7.8-0.2
		l2.7,1.4l6.1,1.8l6.1,0.6c0,0,2.6-0.2,2.7-0.2c0.2,0,2.7,0.8,2.7,0.8l2.4,0.5l1.9-1.8l1.6-5.3l2.2-1.8l1.3-0.2l2.9-0.2l0.5-1.1
		l-3.2-0.6l-1.6-1.3v-1l0.8-0.2l1,0.5l0.8-0.3l-0.2-1.4l-1.6-1.4v-2.4l0.8-1.8l-1.6-1.6l-0.3-1.3l0.2-2.4l-0.8-0.6l-1.1-0.6l0.2-2.4
		l-0.3-0.8l-1.8-0.5l0.3-1.9l0.6-1.3l-1-3.8l-0.8-0.3l-1,0.3l-0.2-1.1l0.3-2.1l-1.8-2.2l-0.6-1.4l-2.4-1.8l-0.2-1.4l1.3-2.6l3-1.1
		l1.8-2.2l1.1-4l-0.8-2.4l-1.4-1.8l0.5-2.4c0,0,1.8-1.1,1.9-1.1c0.2,0-0.2-2.6-0.2-2.6l-1-1.8l0.5-1.9l1.8-0.6l0.5-1.6l-0.8-0.6
		l-1.8-0.5l-0.2-2.2l-1-0.8l-2.1,1l-1.6-1.8l-2.7-0.5c0,0-1.3-1.6-1.4-1.6c-0.2,0-2.1-2.1-2.1-2.1l-3.7,0.3l-1.4-1l-1.3-2.1
		l-2.7,0.5l-1.9-1l-1.1,0.6l-1,1.8l-3.2-1.4l-1.6-2.6v-1.6l0.8-0.6l2.1,1.4l1.3-0.6l-0.2-2.7l-2.7-2.6l-2.9-1.6l-1.3,0.2l-0.6,0.8
		l-0.2,3l-1,0.3l-0.6-0.8l0.5-2.6l-0.2-1.4l-1.4-0.3l-0.5,1.1l-0.2,1.3l-1.1,0.3l-1-0.8l-1.1-1.8h-0.8l-0.5,1.1l-0.6-0.2l0.2-1.4
		l-0.8-0.3l-1,2.1h-1.9l-0.8-0.6l0.2-3l-2.7-3l-1.8,2.7l-1.4,1.8l-3.3,2.1l-0.6,3.5l-1.1,0.8l0.6,2.2l-1,2.1H258l0.2-2.4l-1.8-0.8
		l-1.4,1.3l-1.9,0.5l-3-0.3l-1.4,1l0.3,3.7l-1.4,0.5l-1.8-2.6l-2.6,0.6l-2.6-0.3l-1.4,3l-1.1,1.4l-3.2-0.8l-3-4.3l1.8-0.8v-1.6
		l-1.8,0.5l-2.4,1.1l1.6,2.2l2.4,2.7l0.2,2.6l-2.9,5.3l-1.4,1.6l-2.6,1.3l-3-1l-1.8,1.1l-1.8-0.3l-1,1.1l-1.8-0.5l-0.6-1.3l-0.3-2.2
		l0.3-2.6l-1.3-0.2l-3.3,2.1v0.5l0.8,1.9l1.9,1.8l1.9,1.4l0.2,1.9l2.2,0.8l0.2,0.2l-0.5,2.4l0.3,1.3l-1.3,2.7l-0.2,3.3l0.8,2.1
		l-2.2,2.2l-0.6,4.6l-1.4,1.6l-4.1,0.5l-1.1-0.6l-0.2,1.1l1.3,0.8l1.4,3.3l0.6,5.6l1.9,0.2l0.8,2.1l1.1-0.6l1.3,2.7l-0.3,1.1l-1.3,1
		l-0.5,3l-1,1.8l-2.2-0.2l-2.2,0.2l-0.2,1.1l2.1,2.7L211.8,206.1L211.8,206.1z"/>
	<polygon class="st0" points="316.4,148.7 319.1,148.8 326.6,156.2 329.3,154.6 330.6,154.9 335.5,158.6 343,162.7 345.4,165.7 
		348.9,168.1 350.2,168.3 354,171 353.9,171.6 352,172.4 352.8,178 352.8,184.4 353.4,184.2 356.9,182.3 360.3,182 362.7,184.1 
		359.8,183.9 361.7,186.6 362.5,190.1 363.6,191.1 365.2,190.8 367.6,193.5 369.3,194.1 372.5,196.4 365.2,201.5 359.1,208.6 
		358.3,210.9 358,224.8 358.3,227.5 358.7,233.4 358.3,234.6 356.1,234.5 354.7,236.1 355,240.4 354,242.6 355.6,244.4 358.8,244.2 
		359.9,244 360.7,250.3 362.3,254.7 362,256.8 360.7,258.1 361.9,259.8 363.3,260.2 363.6,261.8 361.1,263.8 360.7,265.9 362,267.8 
		359.9,270.8 359.6,273.4 360.1,276.3 361.2,275.9 362.7,270.4 363.3,269.2 364.2,269.7 365.8,275.5 367.3,276.6 367.8,279 
		372.7,284.7 375.1,286.8 376.5,290.1 377,290.9 378.3,290.9 378.4,292.2 378.3,298.4 377.8,299.2 374.1,299.7 371.7,301.5 
		370.9,301 369.5,299.7 367.9,300.8 367.4,303.7 367,304.8 363.6,305.8 363.1,306.7 363.1,309 360.7,309.3 359.1,308.5 356.7,306.7 
		354.7,307.4 351.6,310.1 350.2,310.1 345.3,309.9 343.7,308 340,309 335.2,308.8 331.7,308.8 332.2,306.6 333.6,305.8 333.1,303.7 
		330.6,304 329.2,303.2 328.8,301.6 326.5,301.3 324.4,297.5 323.6,294.4 321,291.1 322.9,282.5 323.7,280.1 322.3,276.1 
		320.2,276.1 318.8,270.7 320.1,269.7 321.8,269.7 324.5,267 324.1,265.4 320.5,262.5 321.2,260.2 319.8,258.9 317.4,260 
		313.4,262.7 311.1,262.5 310.7,260.8 312.6,257.8 311.6,256.8 309.1,256.3 305.4,253.9 303.6,251.5 304.1,250.3 307.8,250.3 
		313.4,251.1 315.6,250.1 321.3,249.9 321.8,248.4 320.1,246.1 319.4,242.6 315.6,238.1 309.4,233.4 305.7,233.4 303.5,231.9 
		303.8,230.7 307.6,229.4 312.7,224.8 315,225.2 317,223.5 318.6,218.2 321,216.5 324.9,216.1 325.5,215 322.3,214.4 320.7,213.1 
		320.7,212.3 321.7,212 322.3,212.3 323.3,212.2 323.1,210.7 321.5,209.3 321.5,206.9 322.3,205.1 320.7,203.5 320.4,202.3 
		320.4,199.9 319.4,199.1 318.6,198.6 318.6,196.2 318.3,195.4 316.9,194.9 317.2,192.9 317.5,191.7 316.7,187.8 315.9,187.6 
		315.1,187.9 314.6,186.8 315.1,184.6 313.4,182.3 312.7,180.9 310.3,179.3 310.2,177.9 311.5,175.3 314.5,174.2 316.2,171.6 
		317.2,168 316.6,165.6 315.1,163.8 315.8,161.4 317.5,160.3 317.5,157.9 316.4,155.9 317,154.1 318.5,153.5 319.1,152 318.2,151.2 
		316.6,150.8 	"/>
	<g>
		<text transform="matrix(1 0 0 1 245.502 199.25)" class="st1 st2 st3">Santhia</text>
	</g>
	<g>
		<text transform="matrix(1 0 0 1 327.6504 201.8506)" class="st1 st2 st3">Bera</text>
	</g>
	<g>
		<circle class="st4" cx="258.4" cy="166.8" r="13.4"/>
		<text transform="matrix(1 0 0 1 252.4581 174.0736)" class="st2 st5">1</text>
	</g>
</g>
<g id="pabna-3">
	<path class="st6" d="M104.3,90l2.1-2.2l1.8-0.8l1.4-1.1l1.8,0.6l2.2-1.9l1.6-1.8L116,81c0,0,0.8-1,0.8-1.1c0-0.2,0.3-2.4,0.3-2.4
		s1.4-0.8,1.4-1s-0.3-2.9-0.3-2.9l-1.6-3l0.2-0.8l1-0.6l2.1,1.3l1.3-0.3l1-2.7l0.5-2.6l0.6-0.3l2.2,1.1l1.1-0.8l1-4.3v-1.9l-1.4-1
		l-2.2,0.2l-0.2-1.9l-0.5-1.4l1.3-2.2l2.1-0.5l1.4-3.3l0.8-1.1l1.6,0.3l3.7,1.4l1.1-0.2l0.8-2.1l0.6-2.2l1.9-1.3l2.2-3.5l0.2-2.1
		l1.3-1.4l1.6-0.2l1.1-1.9l1-3l1.8-0.6l2.4,1.1l1.1-0.6v-2.6l-0.6-2.1v-3.7l0.8-1.8v-3.2l0.8-0.8l3.3,0.5l1-0.8l1.4-3.2l1.8-0.6
		l1.6,1.1l1.4,0.6l2.4-1.1l2.2-3.8L167,7.6l0.8-1.4l3-0.3l3.3,0.5l1,1l1.6-0.6l1.1-1l2.2,1l3.3,0.6l3.2-0.2l2.6-2.1h4l0.8,1.4l1,0.8
		l2.1,0.3l0.8,2.6l-2.1,3.7l-0.6,4l0.6,3l2.1-0.3l0.8,3.2l1.1,1.6l-1.6,2.1v1.9l3.2,1.6v1.9l0.3,1.8l1.4,1.9l-1.6,1.8l0.3,1.9
		l2.6,1.1l0.3,1.6l-2.9,5.3l-1.1,3l-1.8,1.3l-1.6-0.6l-1.2-3l-1,0.3l-2.4,2.7l-2.2,0.3l-0.5,2.9l-2.2,2.2l-1.8-0.3l-4-1l-0.8,1.4
		l-3.3,1.9l-1.9,1.4l0.3,3.3l-2.1,3.7l-2.9,0.5l-1.9,1.1l-0.6,3.5l2.1,1l3.2,0.3l2.4,1.8l0.6,2.2l-2.2,3.3l2.9,1.8l3.7,1.9l0.8,1.8
		l2.9,0.6l1.8,3.3l0.3,1.8l1.3,1v1.6l-2.6,0.8l-1.4-0.2l-1,1.3l2.9,3.7l4,1.8L188,106l1.1,1.8l4,0.8l1.3,0.8l-0.5,1.6l-2.7,0.6
		l-1.1,1.9l-1.3,3.2l-0.8,2.9l1.6,4.1l3.8,0.3l1,0.8l-1.4,1.8l-1.1,1.9l0.2,3.3l-2.9,2.7l-1.8-0.6l-1.1,1.3l0.6,4.5l-1.9,3.8
		l-1.8-0.8l-2.2,0.2l-0.6,1.6l-1.1-0.2l-1.4-3l-1.9,0.5l1,2.7l-0.6,0.5l-1.9-1.6l-2.6-1.1l-1.9,0.6l0.2-3.8l-1.3-1.6l-0.8-2.6
		l-0.8-0.2l-1.4,0.8l-2.7,0.3v1.9l-3.7,2.9l-8,1.3l-3.8-3l0.5-3.3l-5.4-4.8V127l-2.1-4.6v-2.7l-3.7-2.1l-3.2,1l-6.1,5.7l-0.8-0.5
		l1.6-2.2l-1.4-0.3l-0.6-1.6l2.1-1.6l-0.5-5.7l0.2-3.2l-3.2-1.8l-1.9,0.3l-4.1-0.3L118,108l0.3,1.3l3.5,1.3l-0.5,1.1l-3.2,3.3
		l-1.1,4l-1-1.1l0.3-1.8l-0.8-3.8l-1.1-1.4l0.3-2.4l-1-1.1l0.8-1.8l-1.4-0.3l-1.1,1.4l-2.1-1l-2.4,0.6l-0.2-7.5l1.6-3.7l-0.6-0.6
		l-4-1L104.3,90z"/>
	<polygon class="st6" points="197.8,9.9 200.5,11.4 202.4,11.5 205.6,14.6 206.2,14.6 206.4,12.5 207.6,12.3 209.1,14.6 208.8,16.2 
		207.6,18.9 208.3,20.6 211.5,22.1 213.1,20.8 215.9,20.5 218.6,21.1 217.7,22.7 217.4,23.7 218,24.3 219.6,23 220.6,23.5 
		218.5,25.6 219,27.2 221,27.3 221.4,29.1 220.2,31.3 217.7,31.2 217.5,32.3 219.4,33.2 218.8,35.3 217.4,36.9 217.7,38 220.2,38 
		218.3,41.8 219.4,44.1 221.4,44.1 221.4,45.2 220.2,47.1 220.6,48.7 222.6,49.3 223.4,51.6 223.1,52.8 221.5,54.9 221,60.5 
		221.8,62.3 223.1,62.3 224.5,59.9 226.6,60.3 228.7,59.5 229.3,55.2 230,54.3 231.9,54.3 233.2,53.2 233.6,50.9 234.9,50.9 
		236.3,53.8 238.4,54.3 239.7,54.8 239.2,57 240.7,59.2 241,61 240,63.2 238.7,66.2 237.9,67.7 236.8,67.8 237.3,70.5 233.5,70.5 
		232,70.9 232.7,72.6 234.9,74.1 237,72.9 240.5,72.6 243.4,72.8 244.3,70.9 245.6,71.2 247.5,74.5 247.7,76.9 246.6,79 243.5,79.5 
		243.4,77.9 241.6,77.9 240.7,77.6 239.4,76.1 238.7,77.1 240.7,79.6 240.5,80.9 238.6,80 236.7,80.1 236.2,81.7 235.1,81.7 
		234,80.7 232.4,81.2 231.1,81.2 229.5,82.5 228.9,83.9 230.3,85.7 229.3,87.8 228.5,90 228.1,92.4 225.8,92.9 222.2,88.2 
		220.9,85.9 220.2,84.4 221,82.3 220.7,81.2 218.8,79.3 217.7,79.2 217.2,80.3 217.7,83 217.7,85.1 216.3,85.9 214.7,87.8 
		213.1,88.9 212.7,92.7 214,95.7 213.7,96.4 211.8,95.4 210,96.1 209.2,99.4 208.6,102.1 207.5,104.5 207.6,106.1 209.2,105.9 
		209.9,107.7 209.7,110.3 208.4,110.3 207,109.1 206.4,110.6 208.3,112.6 210,113 212.4,114.1 214.2,115.2 214.2,117.6 212.9,118.9 
		210,119.3 208.9,120.1 209.1,120.9 210.8,122.5 211.5,124 210.7,125.4 207.8,126.7 206,126.4 205.3,123 205.4,117.9 204.6,115.7 
		201.9,115.5 200,115.7 198.2,112.5 195,110.4 194.1,109.6 192.8,108.7 189.1,108 188,105.9 190.1,102.8 186.3,101 183.6,97.5 
		184.4,95.9 185.8,96.2 188.5,95.4 188.3,93.7 187.1,92.9 186.6,91.1 184.8,87.8 182,87.1 181.3,85.4 175.1,81.9 177,78.2 
		176.4,76.1 173.8,74.4 170.8,74.1 168.7,72.9 169.4,69.4 171.3,68.5 174.3,68 176.2,64.2 175.9,60.8 178,59.4 181.2,57.6 182,56.2 
		187.7,57.5 189.9,55.2 190.4,52.4 192.7,52 195.2,49.3 196,49 197.4,51.9 198.9,52.4 200.6,51.1 201.7,47.9 204.6,42.6 204.3,41 
		201.7,40.1 201.4,38.2 203,36.4 201.6,34.5 201.3,32.7 201.3,30.8 198.1,29.2 198.1,27.2 199.5,25.3 198.6,23.7 197.8,20.5 
		195.8,20.8 195,17.8 195.7,13.8 	"/>
	<polygon class="st6" points="212.3,150.6 215.6,148.4 216.9,148.5 216.6,151.1 216.9,153.3 217.5,154.6 219.3,155.1 220.2,153.9 
		222,154.3 223.7,153.1 226.8,154.1 229.3,152.8 230.8,151.2 233.6,146 233.5,143.4 231.1,140.7 229.5,138.5 231.9,137.4 
		233.6,136.9 233.6,138.5 231.9,139.3 234.9,143.6 238.1,144.4 239.2,142.9 240.7,139.9 243.2,140.2 245.8,139.6 247.5,142.1 
		248.9,141.7 248.6,138 249.9,137 253.1,137.4 255,136.9 256.4,135.6 258.2,136.4 258,138.8 260.1,138.8 261.1,136.7 260.4,134.5 
		261.5,133.9 262.2,130.2 265.5,128 267,126.4 268.4,124 269.2,123.5 270.3,123.8 272.7,125.1 273,124.3 271.3,122.7 271.4,121.7 
		273.8,121.4 275.1,120.6 274.5,119.7 272.1,119.2 271.8,117.3 273.5,115.4 276.1,114.1 276.4,112.5 274.5,111.8 272.5,111.2 
		272.1,109 273.3,107.7 276.4,109.1 278.1,109.1 278.6,107.5 278.1,105.5 275.6,104.4 270.6,104.5 268.6,102.8 268.6,100 
		267.9,98.1 269.8,96.4 272.4,96.5 272.9,94.9 271.8,91.9 268.7,91.8 266.5,91.8 265.2,90 265.9,88.9 264.4,87.8 262.8,83.8 
		261.5,81.1 260.1,80.7 258.8,82.5 255.8,82.7 256.9,80.9 256.3,80.4 253.4,81.5 252.6,83.1 253.1,86.8 252.9,89 252,88.9 
		250.2,87.9 248.5,88.2 247.2,88.7 244.2,89.2 243.5,88.4 243.7,87 242.4,86.6 243.2,83.1 242.2,81.2 240.2,80.6 238.6,80 
		236.7,80.1 236.2,81.7 235.1,81.7 234,80.7 232.4,81.2 231.1,81.2 229.5,82.5 228.9,83.9 230.3,85.7 229.3,87.8 228.5,90 
		228.1,92.4 225.8,92.9 222.2,88.2 220.2,84.4 221,82.3 220.7,81.2 218.8,79.3 217.7,79.2 217.2,80.3 217.7,83 217.7,85.1 
		216.3,85.9 214.7,87.8 213.1,88.9 212.7,92.7 214,95.7 213.7,96.4 211.8,95.4 210,96.1 208.6,102 207.5,104.5 207.6,106.1 
		209.2,105.9 209.9,107.7 209.7,110.3 208.4,110.3 207,109.1 206.4,110.6 208.3,112.6 210,113 212.4,114.1 214.2,115.2 214.2,117.6 
		213.1,118.9 210,119.3 208.9,120.1 209.1,121.1 210.8,122.4 211.5,123.8 210.7,125.4 207.8,126.7 206,126.4 205.3,123 205.4,117.9 
		204.6,115.7 201.9,115.5 200,115.7 198.2,112.5 194.2,109.9 193.8,111 191.1,111.7 189.9,113.6 188.7,116.8 187.9,119.7 
		189.5,123.8 193.3,124.1 194.2,124.9 192.8,126.7 191.7,128.6 191.9,131.9 189,134.5 189.1,134.8 192.8,135.4 197.9,140.6 
		198.9,140.1 198.9,138.3 200,139.4 202.9,138.5 204.8,140.1 205.1,142.5 208.3,143.3 211,144.2 211.9,143.1 210.8,138.8 211,137.8 
		213.2,138.2 214.3,141.8 216.4,143.1 216.7,146.5 215.6,147.2 212.6,148.2 	"/>
	<g>
		<text transform="matrix(1 0 0 1 129.1694 108.106)" class="st1 st2 st3">Chatmohar</text>
	</g>
	<g>
		<text transform="matrix(1 0 0 1 182.5396 72.1265)" class="st1 st2 st3">Bhangura</text>
	</g>
	<g>
		<text transform="matrix(1 0 0 1 224.3125 110.9038)" class="st1 st2 st3">Faridpur</text>
	</g>
	<g>
		<circle class="st4" cx="152.4" cy="75.8" r="13.4"/>
		<text transform="matrix(1 0 0 1 146.4581 83.0736)" class="st2 st5">3</text>
	</g>
</g>
<g id="pabna-4">
	<path class="st7" d="M8.3,134.5l1.8-3.7l-0.2-3.5l-4-5.9l0.3-0.5l4,1.8l1-0.2L12,120l-1.3-0.3l-7.8,0.8l0.2-1.1l6.9-0.8l1.9-0.3
		l-0.2-1H8.3l-5.1-2.7l-0.6-1.3l5.4-2.6l3.2,0.2l2.2-0.6l4.3-4.5l1.4-0.2l2.2,2.7l-0.5,4.9l0.8,5.4l1.4,2.2l1-0.2l0.6-4.8l1.9-5.4
		l-0.5-4.9l0.5-1.9l4.9-2.2l1,0.3l0.8,4.9l7.8,0.2l6.2,1.6h1.3l1.4,1.1l0.6,2.1l2.2,1l2.4-0.8l2.2-1.3L60,111l1.1-3l3-0.3l2.2,0.3
		l3.5-0.5l-1.4-1.9L69,105l1.9,1.8l1.3-0.8l3.3,1l6.1-0.6l2.1-0.6l3.7,1.3l-0.2,4.6l0.3,1.1l-0.5,2.1l1,1v4.9l1.9,1.8l0.6,3.8l1,0.3
		l0.3-1.1l0.2-2.9l1.3-0.6l1.1,1.3v2.6l-1,1.9l0.8,2.7l-0.5,1.3l-2.9-0.5L90,132l1,2.7l2.9,0.8l-1.3,4.6l0.3,0.8l1.6-0.2l2.7,0.3
		l2.4-1l1.4,2.4v2.9l-1.1,1.8l0.5,4.6H97l-1.8,0.6l-2.1-0.2l-1.9,3.7l-0.8,0.6l-1-1.3l-1,1.4l-2.1,2.2l-2.6,1l-1.8-0.2l-1.1,0.6
		l-1.8-0.2l-1.3-1.8l-1.4,1.3l-2.4,0.6l0.6,3.5l0.2,14.7l0.5,2.4L77,182l-0.2,16.6l-1,4v6.9l2.1,6.1l0.3,4l2.1,1.9L81,227l-3.7-0.5
		l-2.6-1.6l-3-0.2l-3.5-3.2h-6.7l-6.7,1.1l-3.2-0.8L51,219l0.6-3.7l-3.8-1.1l-5.7-0.8l-6.5-5.3l-2.1-5.9l-6.1-12.1l-5.6-21.2
		c0,0-2.1-7.8-2.2-8c-0.2-0.2,0-4.8,0-4.8l-1.8-3.5l-1-4.5l-5.1-8.1l-1.3-3.3L8.3,134.5z"/>
	<path class="st7" d="M83.7,105.5v-1.3l4-2.9l-0.2-3.2l3.2-3.7l3.7-4.6l1.4-0.2l1.1,0.5l1.6-1l2.4,0.3l1,1l2.6-0.5l-0.5,3.7l4,1
		l0.6,0.6l-1.6,3.7l0.2,5.3v2.2l2.4-0.6l2.1,1.1l1.1-1.6l1.4,0.3l-0.8,1.8c0,0,1,1.1,1,1.3c0,0.2-0.3,2.2-0.3,2.2l1.3,1.6l0.6,3.8
		l-0.3,1.6l1,1.3l1.1-4.1l3.2-3.3l0.6-1.1l-3.7-1.1l-0.3-1.4l1.1-0.6l4,0.3l2.1-0.3l3.2,1.8l-0.2,3.2l0.5,5.9l-2.1,1.4l0.6,1.6
		l1.4,0.3l-1.6,2.2l0.8,0.5l6.1-5.7l3.2-1l3.7,1.9v2.9l2.1,4.6v3.8l4.5,4l1,0.8l-0.3,2.1l-0.2,1.3l3.7,3l8.1-1.3l3.7-2.7v-2.1
		l2.7-0.3l1.6-0.8l0.6,0.2l0.8,2.6c0,0,1.3,1.4,1.3,1.6s-0.2,4-0.2,4l2.1-0.8l2.4,1.1l1.9,1.6l0.6-0.5l-1-2.7l1.9-0.5l1.4,3l1.1,0.2
		l0.6-1.6l2.2-0.2l1.8,0.8l1.9-3.8l-0.6-4.5l1.1-1.3l1.9,0.8l3.7,0.6l3.5,3.5l1.6,1.6l1-0.5v-1.9l1.1,1.3l2.9-1.1l1.9,1.8l0.3,2.4
		l3.2,0.8l2.7,1l1-1.1l-1.1-4.3l0.2-1l2.2,0.3l1.1,3.7l2.1,1.3l0.3,3.5l-1.1,0.6l-3,0.8l-0.3,2.7l0.8,1.9l1.8,1.9l2.1,1.4l0.2,2.1
		c0,0,2.4,0.6,2.4,0.8s-0.5,2.4-0.5,2.4l0.3,1.3l-1.3,2.7L218,169l0.8,1.9l-2.2,2.2l-0.6,4.6l-1.4,1.6l-4.1,0.5l-2.9-1.8l-2.4-2.4
		l-1.9-3l-1.9,0.2l-0.5,2.2v3.8l-1.1,1.3l-2.9-0.8l-0.8-4.5l-0.2-1.8l-1.1-1.1l-1.3,0.6l-2.2,2.7l-3.3-0.3l-2.1-2.2l-1.4-1.4
		l-3.5-0.5l-2.4-2.9l-1.6-3l-1.9-1.4l-4.6,1.6l-2.9,3.3l-2.1,0.8l-1.1,2.7l-1.6,0.3l-1.1-2.9v-2.7l-1.8-1.6l-2.4,0.2l-2.9,0.2
		l-0.8-0.6h-1.3l-0.5,1.3l-0.5,1.6l-1.4,0.5c0,0-0.8-0.8-0.6-0.8s0.8-2.6,0.8-2.6l-0.5-1.9l-4.5-1.3l-0.6-1.3c0,0-1.1-0.3-1.6-0.6
		s-4.5-2.1-4.5-2.1L133,157l-2.1-1.4l-2.4,1.4l-2.2,0.3l-5.1-2.4l-3.7,0.3c0,0-1.8,0.2-1.8,0s0.6-3,0.6-3l-0.2-0.8l-1,0.3l-1,1.9
		c0,0-1.1,1.4-1.6,1.3s-2.2-1.8-2.2-1.8l-0.8-2.4l-1.4,0.2l-1.9-1l-1-1l-1.3,1.3c0,0-1,1.6-1.1,1.6s-2.7-0.3-2.7-0.3l-0.3-4.8
		l1.1-1.8v-2.7l-1.4-2.4l-2.6,1l-2.6-0.3l-1.6,0.3l-0.3-1.1l1.1-4.5l-2.9-0.8l-0.8-2.7l0.8-0.6l2.9,0.5l0.5-1.3l-0.8-2.9l1-1.8V123
		l-1.1-1.3l-1.3,0.6l-0.2,2.9l-0.3,1.1l-1-0.3l-0.8-3.8l-1.8-1.8v-4.9l-1-1l0.5-2.1l-0.3-1.3l0.2-4.5L83.7,105.5"/>
	<g>
		<text transform="matrix(1 0 0 1 146.3511 157.8755)" class="st1 st2 st3">Atghoria</text>
	</g>
	<g>
		<text transform="matrix(1 0 0 1 24.2319 154.481)" class="st1 st2 st3">Ishurdi</text>
	</g>
	<g>
		<circle class="st4" cx="89.4" cy="130.8" r="13.4"/>
		<text transform="matrix(1 0 0 1 83.4581 138.0736)" class="st2 st5">4</text>
	</g>
</g>
<g id="pabna-5">
	<path class="st8" d="M197.3,255.1l1.6-4.1l5.1-8.5l4.9-7.5c0,0,1.8-2.4,1.9-2.6c0.2-0.2,0.3-3.5,0.3-3.5l0.8-1.3l-0.5-3.5l-0.2-5.9
		l-1.3-3l-0.3-1.4L208,213l1.8-2.9l2.1-3.5c0,0,0.2-1.6,0-1.8s-2.1-2.6-2.1-2.6l0.2-1.3l2.2-0.2l2.2,0.2l1-1.9l0.5-2.9l1.3-1
		l0.3-1.1l-1.3-2.7l-1.1,0.6l-0.8-2.1l-1.9-0.2l-0.6-5.6l-1.4-3.3l-1.3-0.8l0.2-1.1l-1.8-1.1l-2.6-2.6l-1.9-2.9l-1.9,0.2l-0.3,2.2
		v3.7l-1.1,1.4l-2.9-0.8l-0.8-4.6l-0.2-1.8l-1.1-0.8l-1.3,0.5l-2.2,2.7l-3.3-0.3l-3.5-3.7l-3.5-0.5l-2.4-2.9l-1.8-3.2l-1.9-1.1
		l-4.5,1.4l-2.9,3.3l-1.9,0.6l-1.3,2.9l-1.6,0.3l-1.1-2.9v-2.7l-1.8-1.6l-5.3,0.3l-0.8-0.6h-1.3l-0.5,1.4l-0.5,1.3l-1.4,0.6
		l-0.5-0.6l0.6-2.7l-0.5-1.9L145,161l-0.6-1.3l-1-0.3l-5.1-2.4l-5.6-0.5l-1.9-1.4l-2.2,1.3l-2.4,0.5l-5.1-2.4l-5.3,0.5v-0.5l0.5-2.7
		l-0.3-1l-0.8,0.6l-1,1.9l-1.4,1.1l-0.5-0.2l-1.9-1.6l-1-2.6l-1.1,0.5l-1.9-1l-1.3-1l-1.1,1.1l-1,1.6l-3-0.3h-3l-1.6,0.6l-2.2-0.2
		l-1.9,3.5l-1,0.8l-0.8-1.3l-1,1.4l-1.9,2.2l-2.7,1l-1.8-0.2l-1.1,0.6l-1.8-0.2l-1.4-1.6l-1.1,1.1l-2.4,0.6l0.5,3.3v14.8l0.8,2.4
		L77,182l-0.2,16.4l-1,4.1v6.7l2.1,6.2l0.3,4l2.1,1.9l0.6,5.7l1.6,0.3l1.4-0.8l1.9,1.1l2.9-0.8l2.4-0.6l1-1.4l1.6-1.6l1.1-1.6
		l-0.2-2.2c0,0-0.8-0.5-0.8-0.6s0.6-1.4,0.6-1.6s0.8-1.3,0.8-1.3l-0.3-1.8l-1.9-0.6l-0.3-2.1l0.5-3.3l3.3-0.5l10.5-0.3l4.3-1
		l1.8,0.2l0.3,1.4l-1.3,7l0.3,1.3h1.3l3.2-1.3l2.7-1.3l1.9,1.1l1.8,0.6l-1,3.2l-0.5,3.2v5.6v3.3l1.4,1.8l1.1,1.4l1,0.2l0.5,1.4
		l2.1,1l2.1,1l0.5,4.1l1,3.2l0.8,2.2l1.3,0.3l0.5,1.8l1,1.1l-0.3,4l0.3,5.3l0.8,4.5l3.5,3.2l3.5,1.8l0.6-0.3l-1.3-2.4l-1.1-2.2
		l0.3-2.7l-0.2-3.5l-0.2-4l1.4-1.3l2.4-0.5l0.8,0.8l0.2,2.9l2.2,2.2l4,1.9l3.5,1.8l2.1,0.2l0.5,1.1l1,3l2.9,3l1.6,0.3l4.3-0.8
		l6.4-2.9l4.9-3l1-0.6l1.1,1.3l1.3,2.7l1,0.2l1.1-2.1l0.2-2.2l0.2-2.9v-1.1l0.6-0.2l0.5,0.8l0.3,1.4l1.8,2.1l1.6,0.2l1.3-1.9
		l-0.2-4.6l0.5-2.6l1.4-0.3L197.3,255.1z"/>
	<g>
		<text transform="matrix(1 0 0 1 151.5562 225.6377)" class="st1 st2 st3">Pabna</text>
	</g>
	<g>
		<circle class="st4" cx="134.4" cy="188.8" r="13.4"/>
		<text transform="matrix(1 0 0 1 128.4581 196.0736)" class="st2 st5">5</text>
	</g>
</g>
<g id="pabna-2">
	<polygon class="st9" points="197.4,254.7 202.2,255.8 207.6,256 209.7,257 211.5,260.3 213.7,264.8 218.3,269.1 222.8,270.4 
		225.2,274.3 228.5,280.4 233,287.4 234.9,292.4 235.9,296.4 237,296.8 240.7,296.5 245.1,296.4 246.6,297 248,300.5 250.9,304.8 
		253.7,306.1 255,306.1 257.1,305.1 259,305.8 260.6,307.7 262.2,307.7 260.9,305.9 261.7,305.6 263.1,307 264.1,305.8 267.1,306.7 
		271.6,307.2 274.1,305.9 276.4,306.6 280.4,307.2 283.7,308.2 286.4,307.4 288.2,307 288.2,308.3 287.7,311.5 290.4,312.1 
		293.6,313.4 295.5,313.3 297.6,314.2 299.7,312.1 301.3,312.6 303.2,312.6 303.6,310.5 305.6,309.4 310.8,309.6 316.1,311.8 
		319,313.7 320.1,313.6 320.5,312.5 320.7,310.4 324.5,309 330.3,309.3 331.9,308.5 332.2,306.6 333.8,305.8 333.3,303.7 
		330.4,303.9 329.2,303.2 328.8,301.8 326.5,301.1 324.4,297.5 323.6,294.6 321,291.1 321.3,288.7 322.8,282.5 323.7,280.2 
		322.5,276.1 321.5,276.1 320.1,276.1 318.8,270.8 320.1,269.9 321.8,269.7 324.4,267 324.1,265.6 320.5,262.5 321.2,260.2 
		319.9,258.9 317.4,260 313.4,262.7 311.1,262.5 310.5,261 312.6,257.8 311.8,256.8 309.1,256.3 305.2,253.9 303.8,251.7 
		304.1,250.3 307.8,250.3 313.2,251.1 315.4,250.1 319,249.9 321.3,249.9 321.7,248.5 320.1,246.1 319.4,242.6 315.6,238.1 
		312.4,235.4 309.4,233.4 305.7,233.4 303.5,231.9 303.8,230.7 307.6,229.4 312.7,224.8 310.2,224.1 307.2,224 301.4,223.5 
		295.4,221.9 292.5,220.3 284.7,220.4 281,221.9 275.3,226.7 272.9,227.9 271.1,227.3 270.8,224.6 270.8,221.1 269.7,220.4 
		262.8,223.5 258.8,223.8 257.2,222.8 256.1,220.3 252.6,218.4 251.2,218.5 250.5,220.3 247.8,222.2 246.6,223.6 246.4,225.2 
		245,225.6 244,221.7 242.9,221.9 242.2,223.6 240.8,224 235.7,223.5 234,222.8 234.4,220.1 235.1,219 238.7,218.2 238.1,216.6 
		235.2,216 232,213.6 230.3,213.3 228.7,209.3 227.3,208.5 226,206.6 225.5,207.8 224.2,207.8 223.6,206.1 221.5,205.6 219.9,206.3 
		219.6,208.6 218.2,211 216.6,212.5 214.8,211.8 213.9,209.8 212.4,211.4 211.6,210.1 212.3,209.4 212.4,207.8 211.6,206.6 208,213 
		209.6,213.9 211.3,218.4 211.5,224 211.9,227.6 211.2,228.9 210.8,232.4 203.8,242.8 198.9,250.9 	"/>
	<g>
		<text transform="matrix(1 0 0 1 246.6963 281.4072)" class="st1 st2 st3">Sujanagar</text>
	</g>
	<g>
		<circle class="st4" cx="251.4" cy="248.8" r="13.4"/>
		<text transform="matrix(1 0 0 1 245.4581 256.0736)" class="st2 st5">2</text>
	</g>
</g>
</svg>
