<?xml version="1.0" encoding="utf-8"?>
<!-- Generator: Adobe Illustrator 25.2.1, SVG Export Plug-In . SVG Version: 6.00 Build 0)  -->
<svg version="1.1" id="Layer_1" xmlns="http://www.w3.org/2000/svg" xmlns:xlink="http://www.w3.org/1999/xlink" x="0px" y="0px"
	 viewBox="0 0 400 335.3" style="enable-background:new 0 0 400 335.3;" xml:space="preserve">
<style type="text/css">
	.st0{fill:#6899E0;stroke:#FFFFFF;stroke-width:0.5;stroke-miterlimit:10;}
	.st1{fill:#C5CFED;stroke:#FFFFFF;stroke-width:0.5;}
	.st2{fill:#FFFFFF;}
	.st3{font-family:'TimesNewRomanPSMT';}
	.st4{font-size:24.672px;}
	.st5{font-size:16px;}
	.st6{fill:#9BB6EA;stroke:#FFFFFF;stroke-width:0.5;stroke-miterlimit:10;}
	.st7{fill:#7CA7E5;stroke:#FFFFFF;stroke-width:0.5;stroke-miterlimit:10;}
	.st8{fill:#548ED3;stroke:#FFFFFF;stroke-width:0.5;stroke-miterlimit:10;}
	.st9{fill:#8BAFE8;stroke:#FFFFFF;stroke-width:0.5;stroke-miterlimit:10;}
	.st10{fill:#ABBEED;stroke:#FFFFFF;stroke-width:0.5;stroke-miterlimit:10;}
</style>
<g id="bogura-1">
	<path class="st0" d="M256.8,43.5l1.6-1l-0.8-3.4l0.6-0.8l2.2,0.8l1,1.6l1.3-0.6l1.4,1l-1,1.3l-1.4,1l0.3,1.1l2.6-1l2.7,0.2l0.6-3
		h1.6l4.3-0.3l1.3-0.6l1.4,1v2.6l0.5,2.1l1.3,0.8l2.6-0.2l1.4,1.4l0.5,1.1l3.2,1.1l4.9,1.1l1.8-0.2l0.3-1.1l1.4,0.3l0.6,1.9h2.7
		l1.9-0.8l3.2,1.1l4.6,0.2l4.3,1.1l0.8-1.8l3.2,1.1l0.3-1.1l-0.6-2.1l4.5-0.3l3-0.5l2.6,0.3l0.8,1.6l-2.6,2.4l-0.3,3.7l1.6,1.1
		l-0.8,4l-1.1,2.1l-2.7-0.5l-2.4,0.2l-0.3,2.1l1.8,3l-0.6,1.8H317l-1.6,1.4l0.8,3.8l-3.7-0.3l-1.8-1.1l-5.1-0.6l-0.6,0.6l-0.2,1.8
		l-3.7,0.5l-1.3-1l-1.4-1.8l-1.6,1.1l-4-1.4l-3.8,1l-1.9-1.3l-1.9,2.1l-0.5,3.4l4.8-0.5l2.2,2.2l1.8,0.6l-0.6,2.7l0.6,2.7l0.2,2.7
		l1.1,1.8l1.4,0.8l-0.3,1.9l-3.5,0.6l0.3,1.6l2.2,1l1.6,2.2l-2.2,0.2l-0.8,0.8l1,3h3.5l-0.2,2.6l-0.5,1.6l-1.8,0.6l-0.6,1.1l1.9,1.3
		l-0.3,1.9l-1.8-1.6l-0.5,2.7l-1.4,3.4l-1,1.1l0.8,2.9l-1.4,0.6l-1.3-2.9l-1.6-2.2h-2.1l-0.5-1.6v-1.8l-1.9-1.4l-0.2-2.4l-1.9-0.6
		l-3.5-0.5c0,0-1,1.4-1,1.6s-0.6,3.5-0.6,3.5l-1.3,0.3l-0.8-2.7l-1.1-1L271,110l-2.1-1.4l-1.3-2.9l-1.4-0.6l-4.8,0.8l-0.5-2.2
		l0.5-2.1l-2.2-0.6l-1.3-4l1.6-4.2l0.2-1.3l-1.4-0.8l-3.8,0.8l-1-1.8v-3.5l-1.3-1.8l-2.9-2.6l-0.3-1.4l1.6-3.5l1-1l1.8-0.2l1.8-2.4
		l-1-2.1v-1.8l-1-0.6l-1.9,0.5L251,68l0.3-3l-1.3-3l0.6-1.9l3.4-1.4l3.7-3.2l-1.4-2.9l0.2-5.6L256.8,43.5"/>
	<polyline class="st0" points="298,102.9 294.4,102.9 293.5,99.9 294.4,99.1 296.4,98.9 294.9,96.7 292.7,95.7 292.4,94.1 
		295.9,93.5 296.2,91.7 294.8,90.8 293.6,89 293.5,86.3 292.8,83.6 293.5,80.9 291.7,80.2 289.5,78 284.7,78.5 285.2,75.1 287.1,73 
		289,74.3 292.8,73.4 296.8,74.8 298.3,73.7 299.9,75.4 301.1,76.4 304.8,75.8 305,74.2 305.8,73.5 310.7,74.2 312.5,75.3 
		316.1,75.6 315.4,71.8 316.9,70.3 318.9,70.3 319.5,68.6 317.7,65.5 318.1,63.5 320.5,63.3 323.2,63.8 324.3,61.6 325.1,57.7 
		323.5,56.6 323.8,52.9 326.4,50.5 325.4,48.9 322.9,48.6 324.5,46.5 329.1,46.2 334,48.9 340.1,52.6 342.6,53.1 344.2,51.3 
		345.7,48.9 347,47.8 348.1,48.3 348.4,53.9 350.6,60.9 353.2,67 354,75.3 354.3,82.3 356.4,85 360,89.2 361.5,94 362,102.6 
		359.4,108.3 358.6,115.8 361.3,119 364.2,120 365.3,124.6 365.2,126.8 361.6,126 359.6,130.7 353.2,131.9 353.8,134.5 356.4,142 
		359.2,151.1 362,156.7 364.2,164.8 375.1,176.6 384.8,179.8 391,179.8 395.3,181.4 393.6,182.9 385.6,185.1 382.1,190.8 
		377.9,195.2 371.5,194.8 362,192 360,192.3 357.3,196.3 357.5,197.6 358.8,200.1 353.7,207.4 353.8,209 354.5,211 353.8,211.9 
		349.5,212.4 349.7,215.4 349.5,217.2 345.5,218 341.5,216.7 337.5,215.9 337.5,213 339.5,212.7 338.8,211.3 337.1,209.5 337.4,207 
		334,205.5 330.7,208.4 327.3,209 326.5,210.3 324.1,210.2 323.3,206.7 320.5,209.4 318.2,209.4 317.1,206.3 319.7,197.6 
		317.7,193.6 317.6,189.3 304.5,185.1 299.7,188.3 302.7,193.2 302.7,196 301,196 296,191.8 291.7,186.1 294.6,179.2 293.8,171.4 
		297.6,168 297,165.9 294,166.7 293.5,165 297.8,162.6 298.1,159.1 301.1,155.7 301.3,152.1 299.9,149.5 299.4,150 298.9,153.2 
		296.8,153 292,151.9 289.7,151.1 287.9,150.3 286.1,151.1 284.9,150.3 287.6,148.9 285,146.6 285.8,142.2 287.4,141 288.4,142.8 
		289.3,142 288.4,139.1 286.3,139.3 285.5,137.4 286.8,136.4 289.5,137.1 291.6,135.8 290.6,133.5 291.6,132.9 293.2,135.5 
		293.8,134 293.2,131.8 290.8,129.4 291.6,123.6 291.1,120.9 292.7,120.3 291.9,117.4 292.8,116.5 294.3,113.1 294.8,110.4 
		296.5,111.8 296.7,110.1 294.9,108.8 295.6,107.7 297.3,107 297.8,105.4 298,102.9 	"/>
	<polygon class="st1" points="296.4,102.8 300.2,100.2 301.1,94.6 306.6,93.8 307.2,98.3 313.6,96.8 316.8,92.7 315.8,82.5 
		316,75.4 312.5,75.3 310.4,74.1 305.8,73.5 305,74.2 304.7,75.8 301.2,76.4 299.8,75.3 298.4,73.7 297,74.8 292.8,73.4 289,74.3 
		287.1,73.1 285.2,75.1 284.7,78.5 289.5,78 291.7,80.3 293.5,80.9 292.8,83.6 293.5,86.3 293.6,89 294.8,90.8 296.2,91.6 
		295.9,93.5 292.4,94.1 292.7,95.7 294.9,96.7 296.4,98.9 294.3,99.1 293.5,99.9 294.5,102.9 	"/>
	<g>
		<circle class="st2" cx="329.9" cy="109.2" r="13.4"/>
		<text transform="matrix(1 0 0 1 324.9297 116.5555)" class="st3 st4">1</text>
	</g>
	<g>
		<g>
			<text transform="matrix(1 0 0 1 257.9504 70.5923)" class="st3 st5">Sonatala</text>
		</g>
	</g>
	<g>
		<g>
			<text transform="matrix(1 0 0 1 300.1846 144.9453)" class="st3 st5">Shariakandi</text>
		</g>
	</g>
</g>
<g id="bogura-2">
	<path class="st6" d="M133.1,123.5l-0.6-3.7l-4.2,0.6l-3.4-2.4l-2.2-2.6l-2.2-3.4l1.3-6.2l1-1.4l-1.3-4.2l0.5-3.4l-1.9,0.2l-0.6-1.9
		l-1.9-1.6l-0.3-3.5l3.7-4.8l3.2-0.3l2.2,0.8l0.5-1.1l-2.1-2.6l-1.8-0.3l0.5-3.8l3.7-0.6l3,1l0.5-2.1l-4.6-0.3l1-1.4l4.5-3.7
		l1.1-1.9l0.2-2.1l3-1l2.2-1.9l-0.3-1.1l-2.2-1.3l-0.5-2.1l1.1-0.8l3.2,2.9l0.6,1.6l0.8-1l2.1,0.6l0.5,1.9l5.3-1.3l1.9-4.6l-0.3-5.9
		l1.6-5.1l2.4-3.5l-2.1-5.9l2.1-1.6l2.6-0.5l9.6-8.9l3-4.8l1-4.6l3.8-5.4l3.2-3.5l5.7-1.1l1.1,1.4h4.5l2.4-2.4l3.5,0.2l1.1-1.1
		l2.4,0.5l0.3,5.6l2.6,1.9l-1.4,2.1l-4.3,1.8l0.5,1.3l3-0.6l1,2.4l2.9-2.2l4,4.8l0.6,2.4l2.6-1.1l0.6,1l-1.6,2.6l0.2,3.5l1.4,5.3
		l3.5,0.3l0.8-1l5.9,4.5l1.3,2.9c0,0-0.2,2.1,0,2.1s1.8,0.3,1.8,0.3l0.5,1.6l1.1-0.2l-0.6-5.3l0.5-4.5l2.1-1.3l4.6,0.8l-1.9-5.9
		l4.8,1l1.4-3.7l3.5,4l1.9,0.2l0.5,6.1l2.1,0.2l1.3-4.9l3.8,0.3l0.8,3l2.2-0.8l-0.6-2.1l5.6-1.3v4.5l-1.8,4l1.8,1.8l-0.5,3.8
		l-0.2,5.4l1.4,2.9l-3.7,3.2l-3.4,1.4l-1.3,3.2l-4,1.6l-2.1,3.8h-3.8l-2.1-0.6l-3.7,2.1l-3.4-1.4l-1,2.9l-6.1,2.7l-4.6,4.5l-4,4.2
		l2.7,1.8l-0.8,2.7l-0.5,3.2l-4.3,2.1l-2.4,5.3l1.1,2.2l-0.3,5.4l-4.6,0.2l-1.1-1.1l-4.6,1l-3.2-4.9v-3l0.8-1.8l-1.8-1.6l-2.6,1
		l-0.3,2.6l-1.9-0.2l-0.5-1.4l-4.2,1.3l-1.4,1.1l-4.6-1.3l-5.6-0.5l-3.8-0.8l-2.4,0.5l-3,1.9l-2.2,1.9l-0.8,6.4l-4.2,4.2l-3.2,2.2
		l-1.9,3.5l-3.4,1.3l-5.6,4l-5.9,0.6l-1,1.3L133.1,123.5z"/>
	<g>
		<circle class="st2" cx="164" cy="77.7" r="13.4"/>
		<text transform="matrix(1 0 0 1 159.0964 85.0555)" class="st3 st4">2</text>
	</g>
	<g>
		<g>
			<text transform="matrix(1 0 0 1 162.0083 56.1084)" class="st3 st5">Shibganj</text>
		</g>
	</g>
</g>
<g id="bogura-7">
	<polyline class="st7" points="297,192.8 296.4,194.7 294.8,193.9 293.5,195 294,196.4 293.3,197.1 291.4,195.5 288.5,196.9 
		284.7,197.4 280.7,194.7 277.5,194.5 276.2,196.8 274,197.2 274.6,199.3 276.1,201.4 277.5,204.9 276.6,206.2 272.4,204.6 
		267.8,205.2 267.1,205.5 267.5,207 266.8,207.3 263.5,206.7 261.2,205.9 258.5,206.3 256.3,204.7 256.3,202.3 256.4,200.4 
		254.5,197.1 254.5,195 255.5,192.8 256.9,189.3 255.3,180.5 252.9,174.7 252.3,172 248.6,169.8 247.5,170.3 247.5,165.8 
		243.5,163.7 244.2,161.6 246.9,161.2 247.7,158.8 246.7,156.5 244.6,155.9 246.9,153.3 246.4,152.5 243.5,154.1 239.5,152.4 
		236.3,149.3 237.1,145.5 234.6,144.7 235.1,143.4 237.8,143.8 238.9,143 237,139 234.7,139 234.1,133.4 232.2,132.1 231.5,131 
		232.5,129.1 236,126 235.5,124 238.1,120.5 238.4,119.2 237.9,117.9 235.9,119.3 234.3,118.2 233.8,114.1 233.1,112.2 230.1,111.2 
		229.6,109 230.7,105 231.7,103.5 230.3,99.7 228.2,97.9 224.5,98.3 222.9,96.7 222.8,91.9 223.4,90 220.5,89.5 220.2,88.5 
		221.8,87.6 222,86.1 220.5,86 218.3,83.7 217.3,84.7 214.6,83.1 218.8,78.9 223.4,74.5 229.5,71.8 230.4,69.1 233.8,70.3 
		237.5,68.3 239.5,68.9 243.4,68.9 245.4,65.1 249.4,63.5 250.1,62.2 251.3,65.2 251,68.3 251.3,69.4 253.1,69.1 254.2,69.7 
		254.2,71.4 255.2,73.5 253.4,75.9 251.7,76.1 250.7,77 249.1,80.5 249.4,82 252.1,84.4 253.6,86.3 253.6,89.6 254.5,91.4 
		258.4,90.8 259.8,91.6 259.6,92.8 258,97 259.3,101 261.4,101.6 261.1,103.5 261.6,105.9 266.3,105.1 267.8,105.8 269.1,108.6 
		271.1,110.1 273.5,109.4 274.6,110.4 275.4,113.1 276.7,112.6 277.4,109.3 278.3,107.7 281.8,108.2 283.7,108.8 283.9,111.2 
		285.8,112.6 285.8,114.2 286.3,115.8 288.4,116 290,118.2 291.1,120.8 291.6,123.8 290.9,129.4 293,131.6 293.8,134 293.2,135.3 
		291.6,132.9 290.8,133.5 291.6,135.6 289.5,137.1 286.8,136.4 285.5,137.4 286.3,139.3 288.4,139.1 289.3,142 288.4,142.8 
		287.4,141 285.8,142.2 285,146.6 287.4,148.9 285,150.3 286,150.9 287.9,150.1 292.2,151.9 297,153 298.9,153 299.4,149.8 
		300,149.5 301.3,152.1 301.1,155.7 298.1,159.1 297.8,162.6 293.5,165 294,166.6 297,165.9 297.6,168 293.8,171.4 294.6,179.2 
		291.7,186.1 295.9,191.6 297,192.8 	"/>
	<polygon class="st7" points="197.2,244.8 195.5,244 193.1,240.5 189.9,240.7 189.7,245.1 188.6,247.4 186.7,247.7 184.8,245 
		184,241.4 178.9,241 177.1,242.1 177.1,243.7 174.6,244.2 174.1,245.4 173.1,245.9 172.3,244.8 172.5,242.9 168.2,243.2 
		165.5,241.4 164.8,237.1 167.4,236.3 167.5,233.3 167.5,231.4 165.3,229.2 166.1,225.5 165,222.9 165,221.2 166.3,220.2 
		167.5,217.5 167.4,215.9 167.7,211.9 168.2,211.1 169,211.3 170.1,212.9 171.8,212.9 172.8,211.1 174.2,207.6 177.3,205.9 
		179.8,206 183.2,204.7 184,202.7 183.8,201.1 184.9,199.1 185.3,195.3 184.3,191.5 186.1,184.6 187.5,182.9 185.7,180.5 
		183.5,179.7 183,176.2 181.1,176 180.3,174.7 181.1,173.4 181.3,172.5 183.5,174.6 188.8,174.4 189.6,172.5 191.2,172.2 
		192.8,174.4 196.1,172.2 200.6,172 206.3,171.7 207.3,169 210.2,168.5 213.7,167.5 215.4,169.3 216.9,172.5 218,173.3 219.3,171.9 
		217.5,168.5 220.1,168.3 223.1,168.5 223.2,166.6 225.3,166.1 226.9,169 230,169 232,171.1 236,169.8 238.7,167.7 241.4,167.7 
		242.4,164.8 243.7,163.7 247.5,165.8 247.5,170.1 248.6,169.8 252.3,172 252.9,174.7 255.3,180.5 256.9,189.1 254.5,195 
		254.5,197.1 256.4,200.4 256.3,202.2 256.3,204.7 258.5,206.3 260.3,206 262,207.3 262,210.2 263.2,211.8 264.9,212.4 266.7,215.4 
		268.9,216.1 270.3,215.4 271.8,216.1 271,217.2 272.9,218 273.8,216.9 275.1,218.1 275.6,222.3 276.6,225 275.6,225.6 270.8,225.2 
		267.9,225.8 267.5,228.2 267.6,229.2 264.1,229 263,228.2 260,229 258.7,231.6 258.2,232.7 255.3,232.2 250.2,232.2 246.7,230.4 
		244.8,229 243.5,228.8 242.1,228.5 240.8,227.4 239.4,227.9 238.4,230.6 236.7,230.9 233.8,230.1 231.9,230.1 231.4,230.9 
		228.4,229.8 227.1,230.4 227.2,232.4 228.4,233.8 228.2,234.7 227.1,234.6 225.6,233.1 225.2,234.3 223.6,234.3 222.4,236.2 
		222.8,239.5 222.3,240.8 219.7,240.7 218.5,240.7 218.5,241.6 218.3,243.8 217.7,244.3 216.1,244 215.7,241.9 215.6,240.5 
		213.7,240.5 211.8,239.1 210.3,238.6 206.5,239.1 205,239.2 203.8,241.4 201.4,242.9 198,245.3 	"/>
	<g>
		<g>
			<text transform="matrix(1 0 0 1 240.916 131.8486)" class="st3 st5">Gabtali</text>
		</g>
	</g>
	<g>
		<g>
			<text transform="matrix(1 0 0 1 192.9733 192.9561)" class="st3 st5">Shajahanpur</text>
		</g>
	</g>
	<g>
		<circle class="st2" cx="231.8" cy="212" r="13.4"/>
		<text transform="matrix(1 0 0 1 225.8463 219.3888)" class="st3 st4">7</text>
	</g>
</g>
<g id="bogura-5">
	<polygon class="st8" points="349.4,216.9 351.9,219.3 354.8,220.4 360,218.3 361,219.4 362.3,224.7 361.6,226.3 357.3,227.4 
		355.4,229.5 353,230.4 352.1,232.5 349.8,232.5 350.2,233.9 353.7,235.9 354.5,239.7 353.5,241.1 352.1,240.2 348.9,243.4 
		344.6,247.5 343.8,249.6 342.2,249.6 338.3,247.7 336.6,249.3 333.7,248.5 332.8,245.8 333.4,244.6 330.8,243.4 328.9,243 
		327.5,240 322.7,240.8 316.9,241.1 315.5,242.2 315.5,243.8 313.4,244 312.5,241.3 312.3,236.2 310.7,234.9 309,236.8 307.2,237.3 
		307.4,240.3 308.5,244.2 310.9,245.1 309.1,248 309.6,252.5 308.3,253.3 306.1,252.3 304,255.8 305.9,257.7 306.4,259.8 
		304.8,262.4 303.7,265.1 302.1,266.8 302.7,268.7 305.6,268.1 309.1,267.6 311.4,267.6 311.2,269.9 307.5,272.6 306.7,274.8 
		307.7,277.2 309,280.7 309.3,282.8 307.5,285.5 305.9,284.4 303.7,283.6 303.2,286.8 304.8,288.2 311.2,287.6 314.7,285 
		317.9,286.8 321.9,285.8 323,287.7 323.5,290.8 325.4,292.1 327,291.3 332.1,294.6 332.4,296.7 330.7,300.5 332.4,307.1 
		332.1,310.6 331.3,313.1 332.6,314.6 331.3,319.3 329.9,320.1 327,320.8 326.7,323.2 325.4,323.7 324.5,322.2 323.3,324.5 
		320.5,324.6 318.1,326.4 318.1,327.8 316.9,327.2 316.8,326.1 315.7,328.3 311.5,327 312,324 309.1,322.5 306.6,323.3 306.9,326.1 
		306.1,327.5 302.7,327.8 303.1,324.6 301.1,324.1 299.1,323.7 297.2,319.7 295.9,317.8 294.1,318.2 292.4,316 296,312.8 
		295.7,308.8 293.3,309.8 292.2,308.7 293.6,307.4 291.4,306.4 290,308.3 286.3,309 286.8,305.1 286.1,303.7 284.2,305 282.8,304.2 
		282.3,302.3 279.9,301.5 277.5,301 277.2,298.3 279.9,297.2 282.9,293 283.4,285.5 283.9,279.1 282.1,277.5 281.8,276.1 
		282.1,274.3 280.9,274.7 279.9,277 277,275.4 272.4,271.5 272.9,268.9 277,265.1 276.6,260.1 275,259.6 274.8,261.4 273.2,261.2 
		271.6,258.7 269.2,260 268.7,257.6 272.3,256.1 273.8,253.7 271.5,250.9 271.8,249 274,248.6 272.9,246.9 275.4,244.6 273.8,241.9 
		274.6,236.8 273.1,235.2 268.3,236.2 268.3,234.6 266,232.7 266.8,231.7 268.7,232.7 267.5,228.4 267.9,225.8 270.8,225.2 
		275.6,225.6 276.6,225 275.6,222.5 275.1,218.1 273.8,216.9 272.9,218 271,217.2 271.8,216.1 270.3,215.4 268.9,216.1 266.7,215.4 
		264.9,212.4 263.2,211.8 262,210.3 262,207.3 260.1,206 261.1,205.9 263.3,206.7 266.8,207.3 267.5,207 267.1,205.5 267.6,205.4 
		272.6,204.6 276.4,206.2 277.5,204.9 276.1,201.4 274.6,199.3 274.2,197.2 276.2,196.8 277.5,194.5 280.7,194.7 284.7,197.4 
		288.5,196.9 291.4,195.5 293.3,197.1 294,196.4 293.6,195 294.8,193.9 296.4,194.7 297,192.8 301,196 302.6,196 302.7,193.2 
		299.7,188.5 304.3,185.1 317.6,189.3 317.7,193.4 319.7,197.6 317.1,206.3 318.2,209.4 320.5,209.4 323.3,206.7 324.1,210.2 
		326.5,210.3 327.3,209 330.8,208.4 334,205.5 337.4,207 337.1,209.5 338.7,211.1 339.3,212.7 337.7,213 337.5,215.9 341.4,216.5 
		345.5,218 	"/>
	<polygon class="st8" points="192.1,298.4 192.6,299.9 192.1,301 190.7,301.5 190.5,303.2 191.6,303.5 190.5,305.6 190.2,307.1 
		191.5,308.8 192.6,308.7 192.9,309.5 192,310.2 193.4,311 193.1,312.3 193.1,313.1 194.4,312.2 194.8,313 193.7,314.1 194,314.7 
		195.3,314.1 194.7,315.7 195,316 196.6,315.8 196.3,316.6 196.4,319.8 196.9,320.3 198.3,319.8 198.8,317.4 200.1,317.1 
		201.2,317.9 201.4,319.7 202.7,320.1 203.6,319 206,320.6 207.1,321.1 207.6,320.3 207.8,319.2 208.9,319.5 210.2,321.3 
		212.4,319.7 213.3,321.9 215.9,321.7 218.9,322.2 219.7,321.4 220.1,320.3 222.9,320.3 224.8,320.1 225.3,320.6 225.2,321.9 
		225.3,323.2 228.5,323.8 230.7,323.2 233.6,321.4 233.6,318.9 234.4,317.8 238.4,317.6 241,318.1 241.9,319.7 244,321.6 
		244.3,323.5 245.3,324 248.8,324.3 252.1,324.5 253.6,325.7 257.2,325.9 258.2,327.8 259.8,327.6 261.9,326.7 264.1,327.8 
		265.2,327.5 266.3,326.5 265.2,323.3 266,322.4 267.8,322.9 268.4,321.1 271.6,320.3 274,321.9 275.6,321.6 277.5,322.4 
		280.1,321.4 282.1,319.7 285.7,320.8 290.4,322.4 291.2,325.6 290.6,327.8 288.9,330.2 289.3,331 290.3,330.5 293.3,326.5 
		294.9,326.2 296.4,325.1 296.2,324.1 294.1,322.5 294.3,319.7 294.3,318.1 292.4,316 296,312.6 295.7,308.8 293.3,309.8 
		292.2,308.7 293.5,307.4 291.4,306.4 290,308.3 286.3,309 286.8,305.1 286.1,303.7 284.2,305 282.8,304.2 282.3,302.3 280.1,301.5 
		277.5,301 277.2,298.3 279.9,297.2 282.9,293 283.9,279.1 282.1,277.5 281.8,276.1 282.1,274.3 280.9,274.7 279.9,277 277.2,275.6 
		272.4,271.5 272.9,268.9 277,265.1 276.6,260.1 275,259.8 274.8,261.4 273.2,261.2 271.6,258.7 269.2,260 268.7,257.6 272.3,256.1 
		273.8,253.7 271.5,250.9 271.8,249 273.8,248.6 272.9,246.9 275.4,244.6 273.8,241.9 274.6,236.8 273.1,235.2 268.3,236.2 
		268.3,234.6 266,232.7 266.8,231.7 268.7,232.7 267.6,229 264.1,229 263,228.2 260,229 258.2,232.7 255.3,232.2 250.2,232.2 
		246.7,230.4 244.8,229 242.1,228.5 240.8,227.4 239.4,227.9 238.4,230.6 236.7,230.9 233.8,230.1 231.9,230.1 231.4,230.9 
		228.4,229.8 227.1,230.4 227.2,232.4 228.4,233.8 228.2,234.7 227.1,234.6 225.6,233.3 225.2,234.3 223.6,234.3 222.4,236.2 
		222.8,239.5 222.3,240.8 218.5,240.7 218.3,243.8 217.7,244.3 216.1,244 215.6,240.5 213.7,240.5 211.8,239.1 210.3,238.6 
		205,239.2 203.8,241.4 201.2,243 198,245.3 197.2,244.8 196.9,245.3 190.5,250.7 192.1,252.3 191.5,253.7 191.3,255 193.6,257.7 
		195.8,259.6 196,261.7 194.7,265.7 194.2,271.5 195,273.1 195.2,275.8 197.5,279.3 198.3,283.8 196.9,288.2 195.8,293.6 
		196.9,294.3 196.9,295.4 194.5,298.6 193.4,298.3 	"/>
	<g>
		<g>
			<text transform="matrix(1 0 0 1 284.4805 226.5361)" class="st3 st5">Dhunot</text>
		</g>
	</g>
	<g>
		<g>
			<text transform="matrix(1 0 0 1 210.4004 284.5723)" class="st3 st5">Sherpur</text>
		</g>
	</g>
	<g>
		<circle class="st2" cx="248.4" cy="254.7" r="13.4"/>
		<text transform="matrix(1 0 0 1 242.513 262.0555)" class="st3 st4">5</text>
	</g>
</g>
<g id="bogura-6">
	<path class="st9" d="M181.1,172.5l2.4,2.1l5.3-0.2l0.8-2.1l1.6-0.2l1.6,2.2l3.4-2.2l4.6-0.2l5.6-0.3l1-2.7l2.7-0.5l3.7-1l1.8,1.8
		l1.4,3.2l1.1,0.8l1.3-1.4l-1.8-3.4l2.6-0.2l3,0.2l0.2-1.9l2.1-0.5l1.6,2.9h3l2.1,2.1c0,0,3.5-1.3,3.8-1.3s2.9-2.1,2.9-2.1h2.7
		l1-2.9l1.4-1.3l0.2-1.9l2.9-0.5l0.8-2.4l-0.8-2.1l-2.4-0.8l2.4-2.6l-0.5-0.8l-2.7,1.6l-4.2-1.8l-3.4-3l1-3.8l-2.6-0.8l0.5-1.3
		l2.7,0.3l1.1-0.8l-1.9-4h-2.4l-0.5-5.6l-1.9-1.3l-0.6-1.1l1-1.9l3.5-3l-0.5-2.1l2.6-3.5l0.3-1.3l-0.5-1.3l-1.9,1.4l-1.8-1.1
		l-0.5-4.2l-0.6-1.9l-3-1l-0.5-2.2l1.1-4l1-1.4l-1.4-3.8l-2.1-1.8l-3.7,0.3l-1.8-1.8V92l0.6-2.1l-2.9-0.5l-0.3-1l1.4-1L222,86
		l-1.6-0.2l-2.1-2.2l-1,1l-0.6,2.9l-0.5,3.2l-4.3,2.1l-2.4,5.3l1.1,2.2l-0.3,5.3l-4.5,0.3l-1.3-1.1l-4.6,1l-3.2-5.1v-2.9l0.8-1.8
		l-1.8-1.4l-2.6,0.8l-0.3,2.6l-1.9-0.2l-0.5-1.4l-4.2,1.3l-1.4,1.1l-4.6-1.3l-5.6-0.5l-3.8-0.8l-2.4,0.5l-3,1.9l-2.2,1.9l-0.8,6.2
		l2.4,0.8h2.2l3.7,2.9l1.8-0.3l0.8,0.5l0.6,2.1l1.6,1.1l0.2,3l-1.8,0.6l0.5,2.6l1.1,1l-0.5,2.7l-1,2.4l0.6,1.1l2.2,0.2h2.2l0.2,3
		l-2.1,1.1l0.3,2.6l1.9,0.8l-0.6,3.7l1.4,2.4l2.9,0.5l1.8,0.8l1.1,1.6l2.1,1l-0.5,2.6l-2.9,3.4l-0.2,2.1l1.3,0.6l-1.1,2.2l-0.6,3
		l-2.4,1.3l1,1.8l0.5,3.2l-0.2,2.7l-1.9,1.6L181.1,172.5L181.1,172.5z"/>
	<g>
		<g>
			<text transform="matrix(1 0 0 1 188.801 159.3669)" class="st3 st5">Bogura</text>
		</g>
	</g>
	<g>
		<circle class="st2" cx="206.9" cy="122.9" r="13.4"/>
		<text transform="matrix(1 0 0 1 200.9297 130.2222)" class="st3 st4">6</text>
	</g>
</g>
<g id="bogura-4">
	<polyline class="st1" points="103.8,185.3 106.4,183.7 106.1,178.4 108,177.6 109.4,179.2 110.1,177.1 111.8,178.4 116.8,174.9 
		118.2,173 120.9,173.1 122.2,171.2 121.2,164.7 119.6,164.3 119.8,163.4 122,163.4 122.5,156.2 121.7,153 123.5,151.4 122.8,147.9 
		121.2,146.3 119,143.3 119.2,138.8 121.4,136.4 123.6,135.3 122.7,132.7 123.8,131.1 126.7,133.9 127.8,132.4 127.5,129.7 
		129.7,128.6 129.4,124.9 132.7,125.2 133.2,123.5 137.2,124 138.3,122.7 144.2,122 149.8,118.1 153.2,116.8 155.1,113.3 158.3,111 
		162.4,106.9 164.8,107.5 167.1,107.5 170.7,110.4 172.5,110.1 173.3,110.6 173.9,112.6 175.5,113.7 175.7,116.8 173.9,117.4 
		174.4,120 175.5,120.9 175,123.6 174.1,125.9 174.7,127.2 177,127.3 179.2,127.3 179.3,130.5 177.3,131.5 177.6,134 179.5,134.8 
		178.9,138.5 180.3,140.9 183.2,141.4 184.9,142.2 186.1,143.8 188.1,144.7 187.7,147.1 184.8,150.6 184.6,152.7 185.9,153.3 
		184.8,155.6 184.1,158.6 181.7,159.9 182.7,161.6 183.2,164.8 183,167.5 181.1,169.1 181.1,173.4 180.3,174.7 181.1,176 183,176.2 
		183.5,179.7 185.7,180.5 187.5,182.9 186.1,184.6 184.3,191.5 185.3,195.3 184.9,199.1 183.8,201.1 184,202.7 183.2,204.7 
		179.8,206 177.3,205.9 175.4,207 174.2,207.6 172.8,211.1 171.8,212.9 170.1,212.9 169,211.3 168.2,211.1 167.7,212.1 167.4,215.9 
		167.5,217.5 166.3,220.2 165,221.2 165,222.9 166.1,225.5 165.5,228.8 163.7,229.5 162.6,232.7 161.8,233.8 160.7,233.1 159.7,232 
		159.9,228 157,228.4 155.6,227.6 155.2,224.8 153.8,223.4 152.5,224.7 151.4,224.1 151.9,222.9 150,221.5 148.2,220.4 146.1,221 
		144.7,220.7 144.7,217.7 143.9,216.4 142.2,217.3 140.2,217.5 139.4,216.1 140.4,214.2 139.8,212.6 137.4,211.6 136.1,209.5 
		133.9,208.9 134,207.3 135.3,205.1 134.8,203.5 133.4,202.8 130.8,202.8 128.7,198.4 128.3,196.9 127.8,194.8 124.4,193.6 
		123.3,191.2 121.4,192.1 118.2,192 116.5,191.5 116.5,188.6 114.2,188.6 112,187.7 109,188.9 106.7,189.4 105.1,188.9 104.6,186.9 
		103.8,185.3 	"/>
	<path class="st1" d="M192.1,298.6l1.3-0.3l1.1,0.3l2.4-3.2v-1.1l-1.1-0.6l1.1-5.4l1.4-4.5l-0.8-4.5l-2.4-3.5l-0.2-2.7l-0.8-1.6
		l0.5-5.7l1.3-4l-0.2-2.1l-2.2-1.9l-0.8-1l-1.4-1.8l0.2-1.3l0.6-1.4l-1.8-1.6l6.5-5.3l0.3-0.6l-1.8-0.8l-1.3-1.9l-1.1-1.6l-3.4,0.2
		v4.5l-1.1,2.2l-1.9,0.3l-1.9-2.7l-0.8-3.5l-5.1-0.5l-1.8,1.1v1.8l-2.7,0.3l-0.3,1.3l-1,0.5l-0.8-1.1l0.3-1.9l-4.5,0.3l-2.7-1.8
		l-0.6-4.3l2.6-0.8l0.2-3v-1.9l-2.4-2.4l-1.4,0.5l-1.1,3l-0.8,1.3l-1.1-0.6l-1-1.1l0.2-4l-2.9,0.3l-1.4-0.8l-0.3-2.7l-1.4-1.4
		l-1.3,1.3l-1.1-0.6l0.5-1.1l-3.7-2.6l-2.1,0.6l-1.4-0.3v-3l-0.8-1.3l-1.6,1l-1.9,0.2l-1-1.4l1-1.9l-0.6-1.6l-2.4-1l-1.3-2.1
		l-2.2-0.6l0.2-1.6l1.3-2.2l-0.5-1.6l-1.4-0.6h-2.6l-2.1-4.5l-0.5-1.4l-0.5-2.1l-3.4-1.3l-1.1-2.4l-1.9,1l-3.2-0.2l-1.8-0.5v-2.9
		h-2.1l-2.4-1l-3,1.3l-2.4,0.5l0.2,1.3l3.5,1.1l-0.3,2.6l0.5,1.6l-0.5,1.8l-5.7-4l-1.1,0.6l1.9,2.1l-0.8,0.6l-2.9,4.3l-6.4,4.3
		l1.6,2.4l-0.6,1.6l0.8,3.2l0.3,2.2v0.8l2.6,3l1.8-0.2l1.1-0.8l1,0.5l-0.6,2.7l-0.5,1.8c0,0,0.6,1.4,0.6,1.6s-0.3,1.4-0.3,1.4
		l-1.3-0.8l-1-0.2l0.2,1.9v0.6l1.3,0.5l-0.5,1.6l-1.9,0.3l0.5,1.6l-1.6,1.6l-2.6,0.2l-0.5,0.8l0.2,2.2l-1,0.3v1.6l0.8,0.2v1.4H93
		l0.2,1.6l0.5,2.1l1,0.6l-0.3,1.9l0.8,0.2l1.3-1.4l0.6,0.6l-1,1.8l-1.4,1.1l0.2,1.3l1.3,0.2l1.6-1.9l0.6,1.1l-0.3,1.9l0.8,1.4
		l3.5-0.6l1.3-2.9l0.6-1.4l2.1-0.2l2.6,0.8l0.8,1.4l0.2,2.9l1,0.6l0.2,4l-1.4,0.3l-1.3,1h-3.4v-1l0.5-1.6h-1.4l-1.8,1.1l-1.4-0.6
		l-1.1,1l-0.5,1.6l0.2,0.6l1.1,0.3l-0.2,3.8l-1,0.5l-1.4-0.8l-1.1-0.2l-1.1,1.8l-0.2,1.6l1,1.1v3.2l-1,0.8l0.5,2.2l2.1,2.4l0.3,1.3
		l-0.3,1l0.6,0.6l0.2,1.4l1.1,2.1l1.1,0.6l1.9,0.2l0.8,0.8l0.2,1.6l-2.2,0.3l-0.2,0.8l1.3,0.6l2.4-0.2l0.6-1.6l0.6-1l2.6,0.8
		l2.6-0.6l1.6-0.8l0.2-1.9l-0.8-1.6l1.1-1.1l1.4-0.5l0.6-1.1l-1-0.9l-1.4,0.2l-1.1-0.6l1.1-3.5l0.3-1.9l0.2-1.1h1v1.6l2.2,0.3
		l1.3-1.1l1.3-1.9l2.9-1.1l1.6,1.6l0.2,2.6l-1.8,1.1l0.5,1.1h2.1l1.9,0.5l1-1.8l0.5-0.2l1,1.8l-0.3,2.6l0.6,0.5l1.8-0.5l1.4,0.2
		l-0.2,0.8l-1.3,0.3l-0.5,2.6l-1.3,0.6l-1.4-0.8l-1,0.5l0.5,1.9l-1.1,1.3l1,1.1l-0.6,1.8h-1.3l-1.3,1l0.5,1l1.8-0.6l1.9,0.8l0.8,2.4
		l-0.3,2.6l0.8,0.6l1-1.6l0.2-3.7l1.1,0.5h1.4l1.1-1.1l1.1,1v2.4l-0.5,2.9l-0.2,1h-1.4l-0.2,1l2.1,0.8v2.6l1,2.9l1.6,1l0.8,2.9
		l1.1,1.4l1.9-1.3l2.6-1.1h2.1l-0.2-1l-1.6-1.1l1.3-1.9l0.5-2.2l2.9-1.3l1-1.8l2.6-2.6l1.1-0.2l0.3-4.3l0.2-1.1l-0.8-0.8l-2.2,0.3
		l-0.5-1.1V286l1.3,0.2l1,1l1.9-1.9l0.3-1.3l1-0.6l0.3-2.1l4.2-0.3l1.1-0.2v1.6l0.3,1l2.1,0.8l1.4-1.3l0.2-1.6l1.8,0.6l-0.2,1.6h1.8
		l1.4-0.3l1.8,0.6l2.1,1.4l1.1-0.2l0.5,1.4l1.8,0.5l-1.8,2.6l1.6,0.2h2.7l1,0.6l-0.6,2.1l0.2,4.5l0.5,2.2l3.4-0.2l3.5,0.5l2.4-0.8
		L192.1,298.6L192.1,298.6z"/>
	<g>
		<g>
			<text transform="matrix(1 0 0 1 125.4995 168.2715)" class="st3 st5">Kahaloo</text>
		</g>
	</g>
	<g>
		<g>
			<text transform="matrix(1 0 0 1 114.8359 254.0762)" class="st3 st5">Nondigram</text>
		</g>
	</g>
	<g>
		<circle class="st2" cx="154.8" cy="195.3" r="13.4"/>
		<text transform="matrix(1 0 0 1 147.8463 202.6388)" class="st3 st4">4</text>
	</g>
</g>
<g id="bogura-3">
	<polygon class="st10" points="121.7,106.7 118.2,102.9 107.7,103.7 97.5,103.7 89.8,103.9 90,102.4 91.7,99.2 92.2,97 87.9,95.2 
		87.2,93.6 85,94.8 83.3,93.5 80.9,92.2 79.1,93.2 78.9,96.7 73.5,96.3 72.9,97.9 74.6,101.3 73.8,105.1 75.6,105.1 75.6,106.9 
		70.5,111.2 70.2,114.5 69.8,116.3 72.1,117.9 72.4,122.8 74.6,122.5 75,127.5 77.3,127.3 77.5,129.6 75.9,131.1 75.1,134.5 
		72.2,135.3 68.1,132.7 65.1,135.5 65.1,137.5 67.5,138.5 68.9,141.5 71.6,141.2 72.4,143.9 70.5,145 72.1,147.7 70.6,150.8 
		68.1,151.3 68.1,153.5 71.1,154.9 73.2,153.2 74.2,154 75.6,160.8 73.7,161.5 68.7,163.4 67.6,166.1 68.7,168 71.8,169.3 
		74.5,173.9 76.4,173.9 76.9,172 78,172 79.1,176.5 86.4,177.8 88.7,177.6 90,176.2 91.1,178.2 95.9,179.4 97.5,181.6 100.5,181.9 
		103.5,183.5 103.8,185.4 106.4,183.7 106.1,178.4 108,177.6 109.4,179.4 110.1,177.1 111.8,178.4 116.8,174.9 118.2,173 
		120.9,173.3 122.2,171.2 121.6,166.4 121.2,164.7 119.5,164.3 119.8,163.4 122.2,163.4 122.4,159.9 122.4,156.2 121.7,153 
		123.5,151.4 122.8,147.9 121.2,146.3 119,143.3 119.2,138.8 121.4,136.4 123.6,135.3 122.7,132.7 123.8,131.1 126.7,133.9 
		127.8,132.4 127.5,129.7 129.7,128.6 129.4,124.9 132.7,125.2 133.2,123.2 132.4,119.8 128.3,120.5 124.9,118.1 122.7,115.5 
		120.4,112.2 	"/>
	<path class="st10" d="M71.9,144.4l-2.6-0.2l-2.7,1.8l-2.1-0.3c0,0-1.6-0.3-1.8-0.3s-1.8-1.8-1.8-1.8l-0.6,0.8l-0.8,2.1l-1.3,0.3
		l-1.4,0.2l-0.5,2.4l-1.8,0.6l-1.6-1.9l-2.7,0.2l-2.9,0.2l-0.3,1.8l-1.8,1.6l-3.5,0.6l-3.4-0.8l-1.4,0.6l-1.8,3l-1.6,0.3l-1.8-0.6
		l0.8-3.2l-1.3-1l-5.1,0.8l-5.4-0.5l-5.6,2.4l-1,2.6l0.6,4.8l1.1,1.8l0.3,3l4.3,0.5l-0.6,2.1l-3,0.3l-4.6-0.3l-0.5,3l0.6,1l1.3,4.3
		l3.5,0.5l0.6,1.3l-0.3,1.1l-2.6,0.2l-0.2,5.6l-1,0.8l-2.6-0.2v1l3,1.9l-1.1,2.1l-0.2,4l-2.6,2.1l0.2,1.4L8.5,200l0.2,3l-2.2,0.6
		v2.1l2.4,1.6l0.5,1.8l-0.8,0.8l-1.4-1.8l-1.4,0.2l1.6,2.7l3.5,1.8l1.8-0.5l-1-2.2l2.6-1.9l3.5,0.8l2.2,1.8l0.8-0.8l-0.6-1.9
		l0.3-3.7l2.9-2.9l-0.2-2.4l3.2-1.1l2.2,1.1l3.8-0.2l0.8-2.2l2.6-0.3l0.8-1.4l-0.5-3.4l2.6-1.1l3.8,0.3h2.2l1.4-1.1l3.2-3l2.2,0.2
		l1.6,3.2l1.4-0.2l0.5-1.1l1.1,0.8l1.4,2.1l1.9-0.5l0.5-1.9l1.9,1.3l0.5-2.1l1.9-1l2.6,1.4l3.4,1.4l-2.2,4l-1,2.6l-0.5,2.2l0.5,1.4
		h2.6l-0.5,1.4l0.2,1.3l0.8,1.1v1.8l2.1,0.3l1.6,0.2l0.3,1l-0.5,0.6h-2.9l-1.4,1.9l-1.3,2.1l1.9,1.3l4,1.6l-1,1.6l-1.6,1.6l-2.1-0.5
		l-0.2,0.8l1,1.1h-1.3l-1.1-2.2l-1,1v4v1.3l2.1-0.2l2.2-0.5l2.4-2.2l1.4-0.6l3,3.4l0.5,1.6l2.4,1.4h0.6l0.5-0.6l-0.3-0.8l0.6-0.2
		l1.3,1.4l2.4,0.6l0.5-2.2l-2.6-1.4l-2.6-0.2l-0.6-1.3l1.9-0.5l3.4,1.3l2.7,0.5l1.4,2.7l1.8-0.3l-0.2-2.1l0.2-2.7l-0.8-0.8h-1
		l-0.2,1.9h-1.3l0.3-1.8V218l-1.6,0.6l-0.3-1.3l1.8-0.6l1.6,0.3l0.2-2.2l-2.1-0.5l0.3-1l3.7-1.3l0.3,4.3l2.1-0.3l2.2-0.8l-0.3-2.2
		l-0.8-3.2l0.6-1.6l-1.6-2.4l6.4-4.3l2.9-4.3l1-0.5l-2.1-2.2l1.1-0.6l5.7,4l0.5-1.8l-0.5-1.6l0.3-2.6l-3.5-1.1l-0.2-1.4l-1.4-0.3
		l-0.5-2.1l-0.8-1.6l-0.3-1.8l-3-1.6l-2.9-0.3l-1.8-2.2l-4.8-1.1l-1.1-1.9l-1.3,1.3l-2.2,0.2l-7.3-1.3l-1.1-4.3l-1.1-0.2l-0.5,1.9
		h-1.9l-2.7-4.6l-3-1.3l-1.1-1.9l1.1-2.7l6.9-2.6l-1.4-6.9l-1-0.8l-2.1,1.8l-3-1.4v-2.2l2.6-0.5l1.4-3.2l-1.6-2.6L71.9,144.4z"/>
	<g>
		<g>
			<text transform="matrix(1 0 0 1 62.9453 134.8552)" class="st3 st5">Dupchanchia</text>
		</g>
	</g>
	<g>
		<g>
			<text transform="matrix(1 0 0 1 16.4424 192.0671)" class="st3 st5">Adamdighi</text>
		</g>
	</g>
	<g>
		<circle class="st2" cx="95.5" cy="156.5" r="13.4"/>
		<text transform="matrix(1 0 0 1 89.5964 163.8888)" class="st3 st4">3</text>
	</g>
</g>
</svg>
