<?xml version="1.0" encoding="utf-8"?>
<!-- Generator: Adobe Illustrator 25.2.1, SVG Export Plug-In . SVG Version: 6.00 Build 0)  -->
<svg version="1.1" id="Layer_1" xmlns="http://www.w3.org/2000/svg" xmlns:xlink="http://www.w3.org/1999/xlink" x="0px" y="0px"
	 viewBox="0 0 360 356" style="enable-background:new 0 0 360 356;" xml:space="preserve">
<style type="text/css">
	.st0{fill:#ABBEED;stroke:#FFFFFF;stroke-width:0.5;stroke-miterlimit:10;}
	.st1{font-family:'TimesNewRomanPSMT';}
	.st2{font-size:16px;}
	.st3{fill:#FFFFFF;}
	.st4{font-size:24.672px;}
	.st5{fill:#9BB6EA;stroke:#FFFFFF;stroke-width:0.5;stroke-miterlimit:10;}
	.st6{fill:#C5CFED;stroke:#FFFFFF;stroke-width:1.033;}
	.st7{fill:#6899E0;stroke:#FFFFFF;stroke-width:0.5;stroke-miterlimit:10;}
	.st8{fill:#6EADEA;stroke:#FFFFFF;stroke-width:0.5;stroke-miterlimit:10;}
	.st9{fill:#8BAFE8;stroke:#FFFFFF;stroke-width:0.5;stroke-miterlimit:10;}
</style>
<g id="naogaon-1">
	<polyline class="st0" points="34.1,51.3 41,47.7 43,41.9 42,34.9 35.3,28.3 34.5,15.7 36.7,15.4 44.1,17 48.2,16.2 50.6,8.4 
		60.5,9.3 63.1,13.9 69.3,13.9 78,16 76,19.2 77.2,22.2 79.2,21.7 81.9,18.5 86.2,18 88.6,21.1 88.6,28.6 97.1,27.5 101.2,33.2 
		100.6,36.4 105.3,37.7 106.2,50.2 108,53.6 115.3,59.6 106,65.6 108.8,70 109.5,73.5 114.4,75.2 114.5,78.2 111.9,82.6 113.5,87.2 
		112.9,90.6 118,98.5 118,101.6 111.9,101.6 101.7,99.6 87.9,106.3 85,109.8 80.1,106.3 79.2,97.7 83.8,87.7 85,83.2 75,77.8 
		71.9,79.9 67.9,79.7 63.4,78.3 61.8,80.4 56.5,80.5 56.6,84.7 54.6,85.7 52.3,84.1 50.7,82 46.4,80.8 45.1,76.6 44.7,71.8 
		38.9,72.7 37.3,71.6 36.2,60.8 34.1,51.2 	"/>
	<polygon class="st0" points="38,72.2 37.8,74.5 39.7,76.7 38.9,79.1 36.5,78.6 31.8,86.8 31.8,92.7 38.2,93.9 39.3,97.8 
		34.2,101.7 32.4,109.1 32,111.4 29.1,110.8 27.8,105.9 25.9,107.4 26.3,110.9 22.9,114.5 21.5,118.1 21.6,124.2 23.4,125.6 
		22.2,128.2 18.2,124.9 14.2,127.9 12.3,131.3 13.5,135.7 15.4,135.7 17.9,131.6 22.1,131.3 25.3,129.9 29,130.7 32.2,134.3 
		30.4,141.2 29.7,146.6 33,150.6 38,153.8 41.5,152.9 40.2,147.8 49.3,144 57.3,149.8 58.7,159.5 62.5,160.6 68.9,161 69.2,159 
		67.8,156.3 69.5,152.6 71.8,150.6 69.8,145.2 69.1,140.6 67,138.4 66.9,136.6 68.2,131.8 71.5,128.8 74.5,128.8 75.3,130.9 
		73.9,134.4 73.8,138 74.9,139.5 77,139.9 77,143.4 79.2,146 81.8,147.4 82.7,149.5 84.8,149.5 86.4,147.1 93.3,144.2 96.8,144.8 
		98.8,140.8 101.5,141.6 103.7,141.6 104.3,139.9 101.9,136.1 97.6,134.5 94.1,132.3 94.1,129.3 95.9,127.9 100.5,128.7 
		104.5,134.2 110.2,140.7 115.7,142 118.2,140.2 118.9,137.6 123,137.7 122.7,135 125.5,131.6 124.3,127.8 126.1,123.2 124.2,116 
		123.6,115.8 118.9,112.3 116.2,107.6 117.9,101.5 112,101.6 101.7,99.6 87.9,106.3 85,109.7 80.2,106.3 79.2,97.7 83.9,87.7 
		85,83.2 75,77.8 71.9,80 67.9,79.7 63.4,78.3 61.8,80.4 56.6,80.5 56.6,84.5 54.6,85.7 52.3,84.1 50.7,82 46.4,80.7 45.1,76.5 
		44.7,71.8 38.8,72.7 	"/>
	<polygon class="st0" points="58.8,159.3 55.2,160 53,163.1 56.3,170.4 56.3,172.1 53.9,173.7 53.7,177 48.7,181.5 48.1,191 
		45.3,190.7 39.4,183.2 34.8,183.1 34.6,185.4 38.9,189.2 39,192 34.6,191.1 31.8,189.6 29.8,193.7 28,192.8 25.4,192.6 24.7,188.5 
		18.1,187.1 16.8,189.3 16.9,192.3 14.9,194 15.3,196.2 13.9,198.4 10.9,199 8.8,197.9 8,196.1 6.6,197.9 7.2,201.2 9.4,202.9 
		14.5,201.2 16.5,198.2 18.9,195.6 21.2,194.2 22.4,197.2 20,197.9 19,201 21.2,202.8 22.4,202 24.4,200.8 25.8,202.1 26.1,203.9 
		27.1,205.1 30.1,205.2 32.3,201.8 33.3,201.4 34.6,203.2 34.1,208.2 31.6,209.5 30.1,210.7 28.1,213.8 28,217.6 27.6,219.2 
		24.2,218 23.5,221.2 23.4,223.2 19.8,224 19.1,225.8 20.3,227.5 24.1,227.2 26.8,225.5 32.1,223.5 38.1,223.6 39.2,226.6 
		41.3,228.3 44.5,228.3 45.7,230.5 46.5,231.3 44.8,232.6 40.6,232.5 39.5,235.4 41,237.3 43.9,237.4 41.6,242.2 40.9,246.3 
		43.1,247.4 45.9,246 47.4,244 50.5,245.3 51,247.4 53.6,247.5 56.2,243.7 61.6,247.3 62,251.8 62.7,255.6 70.6,261.3 76.1,261.9 
		80.2,262.9 85.1,261.8 87.9,263 93.1,266.4 93.1,268.1 90.9,271.6 92.2,274.1 96.1,273.6 100.5,268.9 102.3,264.5 100.8,259.7 
		102.4,255.6 100.8,250.6 102.2,247.6 104.7,246.8 112.1,248.1 116.9,241.4 117.5,238.3 115.9,234.3 113.3,232.2 114.4,227 
		113.9,223.9 112,220.1 112.8,219.7 117.2,220.5 117.4,216.1 119,216.2 120.8,216.7 123,215.8 123.8,212.5 121.4,210.1 119.1,208.9 
		119.5,203.8 122,200.3 121.8,194.2 122.9,192.9 128,192.9 132.1,195.4 133.1,199.3 134.9,198.4 134.9,192.1 133,188.9 128.1,185.9 
		128.2,181.7 126.5,180 126.6,177.9 128,173.2 132,169.8 133.2,161.8 133.9,157.4 132.1,151.3 129.2,148 128.4,145.1 123.8,142.2 
		122.9,137.5 118.9,137.5 118.2,140.1 115.7,142 110.3,140.8 104.6,134.3 100.6,128.7 95.9,127.9 94.1,129.3 94.1,132.3 97.7,134.6 
		102,136.2 104.3,139.8 103.7,141.6 101.6,141.6 98.8,140.7 96.8,144.8 93.3,144.2 86.3,147.1 84.8,149.5 82.7,149.5 81.8,147.3 
		79.3,146.1 77,143.4 77.1,139.9 75,139.5 73.8,138 74,134.4 75.3,130.9 74.5,128.7 71.6,128.7 68.2,131.8 66.9,136.6 67,138.4 
		69.1,140.5 69.8,145.2 71.8,150.5 69.6,152.5 67.8,156.3 69.2,159 68.9,160.9 62.5,160.6 	"/>
	<g>
		<text transform="matrix(1 0 0 1 47.4634 58.7529)" class="st1 st2">Sapahar</text>
	</g>
	<g>
		<text transform="matrix(1 0 0 1 41.2725 120.6406)" class="st1 st2">Porsha</text>
	</g>
	<g>
		<text transform="matrix(1 0 0 1 42.6509 216.7314)" class="st1 st2">Niamatpur</text>
	</g>
	<g>
		<circle class="st3" cx="85.9" cy="177.9" r="13.4"/>
		<text transform="matrix(1 0 0 1 79.9297 185.2222)" class="st1 st4">1</text>
	</g>
</g>
<g id="naogaon-2">
	<path class="st5" d="M97.5,27.7l7-6.7l5.7-2.6l4-3.8l7.8,0.9l6-2.8l9.3,3.1l2.8,1.8l-1.3,4.6l2.3,2.5l0.2,6.2l5.9,4.8l0.5,4.9
		l-1.8,9l-0.9,6l2,2.1l4.4-0.1l5.7-1l4.8,2.7l7.4-1.4l7.4,2.4l2.8,5.3l0.9,3.4l2.4-0.1l3.4-4.6l2.6-2.1l5,0.6l2.3,0.2l2-3.5l1.6-0.7
		l2.1,1.1l1.4,2.7l4.4,1.2l2.4,3.1l0.4,3.2l-3.5,4.4l-4.3,4l-1.3,3.2l0.8,2.7l2.3,0.7l1.5,2.6l2,0.9l7.4-0.6l5.8-1.7l3-1l2.9,3
		l2.2-1.8l1.8,1.4l2.7,2l1.7,4.5l1.5,3.6l3.8,1.3l1.7,0.3l1.3,4.8l0.4,7.5l0.8,2.7l1.5,2.4l-0.8,4.2l-2.3,1.8l-2.7-1.2l-5.9-3.3
		l-4.7-2.8l-2.9-3.4l-4-1.4l-4.9,1.6l-4.6,1.5l-12-0.4l-4.6-2.4l-4-1.7l-5.1,1.5l-3.4-0.4l-2.6-1.9l-1.2,2.9l-0.6,3
		c0,0-3.4,2.4-3.6,2.4s-11.6-3.5-11.6-3.5l-1.8-2.6l-3.1,0.4l-3.3-3.2l-3.1,1.7l3,4.9l-1,1.8l-3.1-1l-5.6-1.1l-2.2,2.6l-0.5,3.6
		l-1.8,1l-8.2-1.4l-6.4-4.2l-3.9-0.3l-4.6-3.6l-2.7-4.6l1.9-6.4l0.1-2.8l-5.2-7.9l0.7-3.4l-1.8-4.6l2.6-4.5v-3l-4.8-1.6l-0.8-3.5
		l-2.7-4.3l9.1-6.1l-7.2-6l-1.8-3.4l-0.8-12.4l-4.7-1.4l0.6-3.1L97.5,27.7z"/>
	<polygon class="st5" points="139.9,17.7 145,11.3 156.3,12.3 164.4,15.7 168.3,17.4 169.6,24.3 173.2,24.7 175.3,28.8 178.5,25.2 
		179.6,22.9 182.3,24.8 184.9,22 187.5,26.6 196.4,31.4 200.7,30.9 204.6,28.6 206,23.2 209.5,20.7 211.5,14.8 217.1,10.3 
		220.3,15.2 222.8,17.1 225.6,15.8 227.3,18.8 227.1,22.8 230.3,22 231.4,27 236.9,28.3 238.9,24.4 243.2,26.5 247.9,28.3 
		249.3,32.6 252,35.2 253.8,36.8 253.7,40.2 251.6,43.3 252.8,45 254.7,45.9 253,51 253.2,52.6 257.6,55.1 260.2,59.5 260.3,67.8 
		257,77.3 256.2,81.4 257.5,85 262.1,89.6 262.1,93 260.9,96.8 258.1,98.9 255.7,101.2 255.6,103.5 257.6,106.3 257.5,107.9 
		255,108.4 251.7,106.2 249.4,102.2 246.9,99.2 244.1,99 241.9,99.6 236.5,98.1 233.4,90 228.9,86.6 226.7,88.5 223.9,85.4 
		215.2,88.2 207.8,88.8 205.7,88 204.2,85.2 201.9,84.6 201.1,81.8 202.5,78.5 206.8,74.5 210.1,70.2 209.7,67 207.3,63.9 203,62.8 
		201.5,60 199.4,59 197.8,59.8 195.8,63.2 188.7,62.5 186,64.5 182.8,69.1 180.3,69.2 179.3,65.8 176.5,60.4 169.2,58 161.8,59.3 
		156.9,56.7 151.3,57.6 146.8,57.7 144.9,55.7 147.6,40.6 147,35.6 141.2,30.9 141,24.8 138.8,22.2 	"/>
	<g>
		<text transform="matrix(1 0 0 1 141.0264 98.3779)" class="st1 st2">Patnitala</text>
	</g>
	<g>
		<text transform="matrix(1 0 0 1 166.9629 50.0767)" class="st1 st2">Dhamoirhat</text>
	</g>
	<g>
		<circle class="st3" cx="151.9" cy="63.9" r="13.4"/>
		<text transform="matrix(1 0 0 1 145.9297 71.2222)" class="st1 st4">2</text>
	</g>
</g>
<g id="naogaon-3">
	<polygon class="st6" points="229.1,115.2 226.8,118.7 226.3,121.8 225,122.9 221.5,121.6 220.2,124.3 223,126.6 222.9,130.6 
		220.4,134.1 222.3,138.1 224.4,141.2 223.5,146.1 220.7,148.9 221.1,151.6 226.2,154.3 223.9,156.4 224.5,159 226.9,160.1 
		231,159.6 236.5,159.7 243,163.3 244.8,161.1 245.4,158.9 250.6,160.6 253.6,164 251.5,170.1 255.6,172.7 265.7,173.8 271,171.8 
		275,173.5 283.2,169.8 287.5,159 289.2,149.8 290.2,143.4 289.5,134.3 287,131.5 288.3,128.5 292.2,128.5 293,123 291.2,119.5 
		292,111.4 294.8,110.5 294.1,107.9 291.4,106 291.9,104.8 295.4,104.3 294.9,101.9 292.3,100.1 292.9,97.1 295.5,96 293.4,92.4 
		288.1,92.1 286.9,95.5 284,94 279.3,89.6 267.4,88.8 266.7,89.9 268.1,93.1 265.8,98 268.4,100.4 267.4,103.2 263.7,100.6 
		264,98.5 260.8,96.7 258.1,98.9 255.8,101.2 255.6,103.5 257.7,106.4 257.4,107.9 255,108.4 251.6,106.1 249.4,102.1 246.8,99.1 
		244,99 242.1,99.6 243.5,104.5 243.9,111.7 244.7,114.7 246.1,117.1 245.3,121.3 243,123.1 240.2,121.8 229.8,115.9 	"/>
	<polygon class="st6" points="191.3,195.8 194.6,190.5 198.1,185 202.3,183.2 203.4,186.8 201.6,192.6 200.9,195.4 201.5,197.5 
		209.2,200.6 211,202 213.8,207.1 216.3,209.2 221.3,208.8 227,203.1 231.4,197 232.9,190.4 232.8,185.4 229.6,184 225.4,184.2 
		224.2,183 227.2,179.6 230.5,178.2 230.5,175.4 229.9,172.7 224.2,172.9 224.5,167.9 224.8,162.8 227.2,160.1 224.5,159 
		223.9,156.4 226.1,154.4 221.1,151.6 220.7,148.8 223.5,146.1 224.5,141.1 222.3,138.1 220.4,134.1 223,130.5 223.1,126.6 
		220.3,124.3 221.5,121.7 224.9,122.9 226.5,121.6 226.9,118.6 229.1,115.2 226.7,112.2 222.6,110.9 213.1,114.2 201.2,113.8 
		196,111 192.6,109.7 187.4,111.2 184.1,110.7 181.5,108.8 180.4,111.5 179.7,114.6 176.2,117.1 164.3,113.6 162.7,111.1 
		159.5,111.5 156.2,108.3 153.2,109.9 156.1,114.9 155.2,116.6 152,115.7 146.5,114.6 144.3,117.2 143.8,120.7 142,121.8 
		133.8,120.4 127.5,116.1 124.1,115.9 126.1,123.1 124.3,127.7 125.5,131.6 122.8,135 122.9,137.5 123.8,142.2 128.4,145.1 
		129.2,148 132.1,151.3 133.8,157.4 132,169.8 128,173.2 126.6,177.6 126.7,178 129.5,178.4 132,181.1 135.7,182.4 144.2,176 
		146.4,177.4 154.3,178.7 158.3,181.6 160.3,187.8 158.4,191.8 152.3,198.1 152.4,204.2 155.6,206.2 159.1,210.5 162.5,212.7 
		164.7,211.1 163.9,208.2 162.7,205 163.2,202 165.5,200.1 165.9,203.5 167.5,205.8 172.5,206.1 174.5,204.3 179.1,192 185.2,192.6 
		190.1,195 	"/>
	<g>
		<text transform="matrix(1 0 0 1 137.7334 168.6392)" class="st1 st2">Mohadevpur</text>
	</g>
	<g>
		<text transform="matrix(1 0 0 1 226.9619 142.9038)" class="st1 st2"> Badalgachi</text>
	</g>
	<g>
		<circle class="st3" cx="170.9" cy="137.9" r="13.4"/>
		<text transform="matrix(1 0 0 1 164.9297 145.2222)" class="st1 st4">3</text>
	</g>
</g>
<g id="naogaon-4">
	<path class="st7" d="M102.3,264.6h3.3l4.5-2.1l3.1,2l2.3,6.8l1.6,7.6l-0.5,7.1l-1.9,4.5l1.4,4.1l2.7,3.9l0.8,3.6l1.5,1.6l3.2-1.3
		l1.7-2.5l0.6-3.9l1.6,0.5l0.8,4.4l3.6-1.5l6.2-2.4l3.3-3.1l4.1,0.6v2.5l-0.9,2l1.1,0.9l3.6-1.4l2.3,0.2l0.5-2.5l-1.7-2.4l-3.4-1
		l2.7-4.1l1.1-3.7l-2.4-2.1l1.5-3.3l4.5,0.3l1.9-2.6l0.8,4.2l3.1,0.6l5.4-1.2l0.7-7.3l1.8-3.1l2.1-0.1l2,4.8l5.7,3.7l3.5-0.3
		l6.8-4.1l3.5-4.1l4.2,1.3l1.2,5.3l3.8,1.4l4.3-3.3c0,0,3,1.1,3.1,1s3-3.2,3-3.2l3.8,3.5l1-1.1l-1.7-7.5l0.7-8.5l1.7-1.4l-0.4-5.2
		l-5.4-4.3l-3.1-0.2l-3.2-2.6l-3.5-0.2l1-8l-2.9-4.8l-4.9-2.8l0.7-5.3l-3-3.6l-0.2-3.9l2.9-3l1.4-5.5l-3.4-10.1l-3.5-3l-4.8-2.2
		l-6.1-0.6l-4.8,12.3l-1.8,1.7l-5-0.3l-1.6-2.2l-0.6-3.4l-2.2,1.9l-0.5,2.9l1.3,3.3l0.8,2.8l-2.2,1.6l-3.4-2.2l-3.6-4.3l-3.1-2
		l-0.1-6.2l6.1-6.2l1.9-4l-2-6.2l-4-3l-4.6-0.6l-3.2-0.6l-2.2-1.5l-6.5,5.1l-2,1.5l-3.8-1.3l-2.4-2.8l-3.1-0.4l0.1,2.1l1.6,1.6v4.1
		l4.9,3.1l1.9,3.2v6.2l-1.8,1.1l-1-4l-4.1-2.5h-5l-1.1,1.3l0.2,6l-2.4,3.6l-0.4,4.9l2.3,1.3l2.3,2.4l-0.8,3.3l-2,0.9l-1.7-0.4
		l-1.8-0.1l-0.2,4.3l-4.4-0.8l-0.8,0.4l1.8,3.8l0.6,3.1l-1.1,5.2l2.6,2l1.6,4.1l-0.6,3l-4.7,6.8l-7.3-1.3l-2.7,0.9l-1.3,2.9l1.5,5.1
		l-1.5,4.1L102.3,264.6z"/>
	<g>
		<text transform="matrix(1 0 0 1 139.3936 252.8887)" class="st1 st2">Manda</text>
	</g>
	<g>
		<circle class="st3" cx="146.9" cy="222.9" r="13.4"/>
		<text transform="matrix(1 0 0 1 140.9297 230.2222)" class="st1 st4">4</text>
	</g>
</g>
<g id="naogaon-6">
	<polygon class="st8" points="201.1,277.7 201.8,280.6 200.1,285.7 202.5,287.6 208.8,288.5 211.2,285.7 222.6,286.5 223,290.6 
		226.5,292.7 232.9,293 237.1,296.3 240.4,293.4 245.4,294 245.5,297.4 248.1,302.7 251.2,308.1 252.4,314.2 255.7,319.5 
		262.2,323.8 265.2,325.4 268.1,324.3 272.9,323.1 281.3,329.3 287.6,331.3 291.5,334.9 288.5,337.3 291.7,339.8 293.8,339.8 
		297.1,335.9 300.9,336.1 303.5,342.3 307.5,344.8 309.9,347.8 314.5,346 318.3,349 322,347.2 323.2,343 325.8,342.9 328.4,345.7 
		329.9,344.9 331.6,338.5 333.4,333.3 334,322.2 329.8,318.8 331.7,314.6 330.2,309.5 332,306.5 331.8,301.7 330.7,297.3 
		333.3,295.3 332.2,294.2 328.2,293.8 327.6,291.4 328.9,286.1 329.1,283.5 325.3,279.1 322.4,279.1 320.7,282.3 319.7,288.6 
		317.7,294.2 315.3,297.1 310.6,296.7 307.4,292.7 304.1,290.5 296,288.5 292.4,286.2 293.4,282.4 292.5,280.2 288.5,280.3 
		284.2,279.9 281.9,277.6 279.5,271.8 277.2,269 271.2,268.8 264.2,269.6 260.8,271.9 261.1,275 263.9,279.8 264.3,282.3 263,283.6 
		258.6,282.1 253.3,280.9 252.4,279.7 254.2,277.6 253.3,275 250.2,274.1 247.9,270.2 245.2,267.7 240.2,264.4 238.4,263.2 
		236.2,264.1 235.8,266.7 236.9,270.8 236.4,274.5 235.7,276.5 233,276.8 230.8,272.8 227.4,269.1 222.5,266.8 217.5,267 
		215.3,266.7 216.9,274.7 216,276 212.2,272.5 209.2,275.7 206.1,274.7 201.8,277.9 	"/>
	<polygon class="st8" points="215.4,266.6 217.5,267 222.5,266.8 227.5,269.1 230.9,272.8 233,276.8 235.8,276.5 236.4,274.5 
		236.9,270.7 235.8,266.7 236.2,264.1 238.4,263.2 245.3,267.9 247.9,270.3 250.2,274 253.3,274.9 254.2,277.6 252.5,279.6 
		253.4,280.9 258.8,282.2 263,283.6 264.4,282.2 263.9,279.7 261.1,275 260.8,271.8 264.3,269.5 271.4,268.8 277.2,269 279.5,271.8 
		281.9,277.6 284.2,279.9 288.4,280.3 292.5,280.2 293.5,282.4 292.4,286.1 295.9,288.5 304.2,290.5 307.4,292.7 310.6,296.8 
		315.2,297.1 317.7,294.3 319.8,288.6 320.7,282.4 322.4,279.1 325.3,279.1 329.2,283.5 328.9,286.3 327.7,291.3 328.1,293.8 
		332.2,294.1 333.1,295.2 335.3,293.8 339.1,293.4 342.3,288.5 344.8,288.4 347.8,285.2 347.7,280.3 348.1,276.8 349.5,274.7 
		348.8,270.8 346.7,270 346.7,266 348.3,260.8 350.6,260.7 352.4,257 354.5,253.2 354.9,249.6 354.6,245.8 350.1,248.3 348.3,247.6 
		346.6,245.7 344.4,250.4 345.9,255.2 344.3,257.2 340.8,255.6 339.7,257.8 335.3,256.7 332,253.6 329.3,256 327.5,256.8 
		325.1,256.1 324.9,251.9 328.1,251.2 330.9,249.1 327.4,247.7 324.9,245.9 325.9,243.7 328.4,242.8 328.1,240.3 326.7,237.6 
		326.7,235.6 324.7,233.8 324.2,230.1 326.5,226.9 326.7,224.5 322.8,222 319.1,223.2 316.8,225.9 314,223.1 312.1,225.2 310,222 
		307.8,221.8 303.9,226.3 299.9,225.6 297.1,225.6 296.4,227.8 295.7,231.5 292.1,233.6 289.9,233.4 286.2,232.4 285.7,235.7 
		283.6,236.6 282.9,242.1 282.6,244.7 280.8,244.5 277.5,243 273.8,244.6 272.4,245.6 270.4,243.4 267.6,242 263.5,242.1 
		260.5,245.4 259.5,248.6 257.2,250.2 252.8,251.1 247.6,251.2 244,250 242.1,250.8 241.1,252.9 239.5,252 238.2,248.8 236.8,248.7 
		233.5,251 229.9,254.9 227.9,255.2 223.4,252.7 219.2,250.8 217.2,252.6 217.6,257.5 216.1,258.9 	"/>
	<g>
		<text transform="matrix(1 0 0 1 256.2666 264.0039)" class="st1 st2">Raninagar</text>
	</g>
	<g>
		<text transform="matrix(1 0 0 1 288.8711 322.1592)" class="st1 st2">Atrai</text>
	</g>
	<g>
		<circle class="st3" cx="300.9" cy="289.9" r="13.4"/>
		<text transform="matrix(1 0 0 1 294.9297 297.2222)" class="st1 st4">6</text>
	</g>
</g>
<g id="naogaon-5">
	<g>
		<polygon class="st9" points="269.2,242.8 269.7,240.5 272.4,237.7 275.3,229.9 276.5,224.5 274.3,222.6 274.8,221.1 277.2,221.2 
			277.9,216.6 280.5,213.8 275.4,211.9 275.1,205.9 276.5,204.8 280.6,204 279.4,201.5 277.7,198.6 276.5,192.5 277.9,189.9 
			282.2,188.1 285,184.5 285,182.2 282.6,178.9 286.3,175.6 289.7,169.2 289.9,166.9 286.9,160.1 283.2,169.8 275.1,173.5 
			271,171.8 265.6,173.8 255.7,172.7 251.6,170.2 253.6,164 250.6,160.6 245.5,159 244.9,161 243,163.3 236.6,159.6 230.9,159.6 
			227.2,160 224.9,162.8 224.2,172.9 229.9,172.7 230.4,175.3 230.5,178.2 227.3,179.6 224.2,182.9 225.4,184.1 229.6,184 
			232.8,185.5 233,190.4 231.5,197 226.9,203.2 221.3,208.8 216.4,209.2 213.8,207.1 211,202 209.2,200.5 201.5,197.5 200.8,195.5 
			203.4,186.8 202.3,183.2 198.2,185 191.2,195.9 193.5,197.9 196.9,208 195.5,213.5 192.6,216.5 192.8,220.4 195.8,224 
			195.2,229.3 200.1,232.1 203.1,236.9 202,244.9 205.5,245.1 208.8,247.7 211.8,247.9 217.3,252.3 219.2,250.9 223.5,252.8 
			227.8,255.2 229.8,254.9 233.5,251 236.8,248.7 238.2,248.7 239.5,251.9 241.1,252.8 242.2,250.8 244,250 247.5,251.2 
			252.9,251.1 257.3,250.1 259.6,248.6 260.5,245.4 263.5,242.1 267.6,242 		"/>
	</g>
	<g>
		<circle class="st3" cx="250.9" cy="193.9" r="13.4"/>
		<text transform="matrix(1 0 0 1 244.9297 201.2222)" class="st1 st4">5</text>
	</g>
	<text transform="matrix(1 0 0 1 210.333 224.667)" class="st1 st2">Naogaon</text>
</g>
</svg>
