<?xml version="1.0" encoding="utf-8"?>
<!-- Generator: Adobe Illustrator 25.2.1, SVG Export Plug-In . SVG Version: 6.00 Build 0)  -->
<svg version="1.1" id="Layer_1" xmlns="http://www.w3.org/2000/svg" xmlns:xlink="http://www.w3.org/1999/xlink" x="0px" y="0px"
	 viewBox="0 0 340 488" style="enable-background:new 0 0 340 488;" xml:space="preserve">
<style type="text/css">
	.st0{fill:#ABBEED;stroke:#FFFFFF;stroke-width:0.5;stroke-miterlimit:10;}
	.st1{font-family:'TimesNewRomanPSMT';}
	.st2{font-size:16px;}
	.st3{fill:#FFFFFF;}
	.st4{font-size:24.672px;}
	.st5{fill:#6899E0;stroke:#FFFFFF;stroke-width:0.5;stroke-miterlimit:10;}
	.st6{fill:#8BAFE8;stroke:#FFFFFF;stroke-width:0.5;stroke-miterlimit:10;}
	.st7{fill:#9BB6EA;stroke:#FFFFFF;stroke-width:0.5;stroke-miterlimit:10;}
	.st8{fill:#7CA7E5;stroke:#FFFFFF;stroke-width:0.5;stroke-miterlimit:10;}
	.st9{fill:#C5CFED;stroke:#FFFFFF;stroke-width:0.5;}
</style>
<g id="sirajganj-1">
	<path class="st0" d="M206.6,114.3l-0.2-0.9l-3.5-1.6c0,0-2.6,1.3-2.6,1.1s-2.6-3.5-2.6-3.5l0.4-1.8l-1.3-1.6l-4.2,1.3l-3.5-1.5
		l-3.3,2.4l-3.8,0.7l-3.7-0.2c0,0-1.5-0.5-1.5-0.7s-0.4-2.7-0.4-2.7l1.1-1.8l2.7,1.8l2.2-3.3l-0.9-4.8v-0.9l-1.5-1.5l0.5-3.5l2-1.5
		l2.2-1.8l0.4-1.3l-1.5-0.5l-2.7,0.7l-3.1-0.4l-1.8,0.7l-1.1-0.4V85l2-2.2l0.4-2.4l1.1-2l1.3-2l-0.9-1.5l-1.6-1.1l-0.2-1.3l1.8-3.3
		l1.8-0.7l2,0.7V65l1.3-2.7v-1.5l-0.9-0.2l-1.5-0.5l-1.3-4l-0.5-2.4l1.3-2.2l1.1,0.2l1.6-1.5c0,0,1.1-0.9,1.5-0.7s0.7,1.5,0.7,1.5
		l0.2,4.6l0.7,2l0.5,1.5h1.5l1.1-2.6l2.7-0.5l3.3-0.5l2.7,0.5l1.8-0.7h2.6l0.9,1.1l1.5,2.2l3.5,1.1l0.5,0.5l-0.2,1.8l1.5,2.4l2,0.4
		l1.6-0.2l1.5-1.1l1.5,0.7c0,0,1.5,0.9,1.6,0.9s1.6-1.1,1.6-1.1l2.2-3.7l4.4-3.8l1.6-0.7l2.6-0.4l0.5-1.3l-0.5-3.5l-2-0.9l-2-1.5
		l-0.5-1.1l0.5-0.7h1.6l1.1-2.2l2.2-0.9l3.7-2.7l2.6-0.7l1.3-0.7l0.4-2.2l-2.2-3.8l-0.7-4.9l0.4-0.4l2.7-0.2l2.6-1.3v-1.1l-0.9-1.6
		l0.7-1.6l1.8-1.3l2.2-3.7l1.5-3.8l-1.1-1.8l-0.4-1.8l1.1-2l2-2.2l1.5-0.2l4.8,1.3l3.7,1.3l3.5,0.5l3.7-0.7l4.2-0.2l3.5,1.5l3.5,1.6
		l1.5,1.3l2,0.2l0.4,1.6l0.2,2l0.2,2.2l0.5,0.2L284,17l0.7-2.2l0.9-0.9l0.5-1.3l-0.9-1.8l0.4-0.9l1.5-1.1l4.6,2.9l2.7,1.5l1.8,1.3
		h0.9l2.4-2.7l2.9-2l1.1,0.2l0.7,0.9l3.1,2.6l2.2,4.2l0.7,3.8l-0.4,2.9l-0.7,2l-1.5,1.3l-0.9,0.5l0.4,0.7l2.4,1.3l1.8,0.4l2.7,1.8
		v1.1l-0.7,1.5l-0.7,2.4l-2,2.2l-0.2,0.9l-0.5,0.4l-2-1.1h-2.2l-1.5,0.5l0.2,2.6l0.5,2.9l0.7,0.7l1.5,0.7l0.5,1.5l0.5,1.3l0.9,0.5
		l0.9,1.8l0.2,1.8l0.5,0.2l0.7-0.5l1.6-0.7h1.5l1.5,1.5l-1.1,2.7l-1.5,1.6l-0.2,0.4l1.1,1.5l0.9,1.1v0.5l-0.9,0.7l0.2,2.2l0.5,0.4
		l2.6-0.5l1.3,1.1l0.9,2.6l-0.9,2.2l-4.6,3.3l-3.1,0.9l-0.5,0.4l-0.2,0.9l1.1,1.8l0.2,4.8l-0.5,5.3v8.2l0.2,2l0.7,2.2l0.2,1.5
		l-1.3,0.7l-2.7,0.5l-4,0.4h-3.1l-0.2,0.9l0.4,1.1l-1.1,3.7l1.5,3.1l1.5,2l0.9,3.8l0.2,1.1l-2.7,0.7l-2,0.9l-1.1,0.7l-0.7,0.5
		l-3.1-3.8l-1.8-0.4l-2.7,0.5l-2.9-0.4l-1.3,2.2l-1.8,2.9l-1.1,3.7l-0.4,2.2l2,2.7l1.3,1.6l0.2,0.2l-0.2,0.2l-3.5-0.4l-2.2,0.2
		l-1.8-0.2v-2.6l0.4-3.1l0.2-2.6l-0.5-2.7l-2.2-1.3l-1.5-0.2l-0.5,1.6l-0.7,1.1l-1.3,3.1l-1.1-0.2l-2.7-0.9l-2.9,0.4l-3.5,1.3
		l-0.2,1.8l-1.3,0.5v0.9l0.2,0.9v0.2l-0.4,0.2h-0.9l-1.8,0.4l-0.9,2.2l-0.9,2.7L255,140l-0.5,2l1.3,1.8l1.5,2.6l-0.4,1.6l0.5,1.3
		l-0.2,1.5l-0.9,1.1l-3.5,0.4l-1.5-0.2v-1.6l0.4-2l-1.3,0.2l-0.5-0.5l1.1-1.5h-1.1l-1.3,1.3l-1.1,0.4l-0.4-1.1l-0.4-1.6l-1.1-0.4
		l-1.6,0.2l-0.5-0.9l0.4-2.6l0.2-4.9l-2.4-4.6l-1.3-1.5l-0.7-0.2l-0.2,1.3l-1.3,1.3l-2.4,0.7H234l-0.2-1.8l-0.4-1.8l-1.1-0.5
		l-0.5-1.5l1.8-0.7l1.3-2l0.9-0.9l-4.2-4.9l-1.1-0.2l-1.5,1.5h-1.8l-1.6-0.7l-1.5,1.1l-1.1-0.9l-1.3-2.2l-3.5-2.2l-2.6-2l-0.9,0.9
		l-1.1,0.2l-2.2-1.3l-0.7-2h-0.9l-0.4,1.1l-2.2,0.5L206.6,114.3z"/>
	<g>
		<text transform="matrix(1 0 0 1 236.1406 77.0249)" class="st1 st2">Kazipur</text>
	</g>
	<g>
		<circle class="st3" cx="259.2" cy="95.8" r="13.4"/>
		<text transform="matrix(1 0 0 1 253.2081 103.0736)" class="st1 st4">1</text>
	</g>
</g>
<g id="sirajganj-3">
	<polygon class="st5" points="4,222.5 6.8,219 9,217 10.4,214.8 13,216.1 16.3,213 19,212.4 20,206.6 23.1,205.7 24.7,200.5 
		23.8,198.5 21.4,198.2 21.6,196.9 25.1,195 22.3,193.8 22.5,191.7 26,189.5 27.5,187.2 29.7,186.1 30.6,179.7 36.8,175.1 
		42.5,171.8 46.2,162.2 50,156.4 51.5,154 50.4,151.3 51.7,150 52.4,152.5 55.3,151.6 55.3,146.1 56.4,143 58.8,142.8 59.7,145.8 
		71.1,146.3 74.7,147.8 79,147.6 80.1,145.8 85,146.5 87.6,149.2 86.8,152.9 84.6,155.6 85.2,157.3 89.2,156.2 89.8,157.3 
		89.6,163.3 92.7,167.7 97.6,169 102.4,177.5 104.6,182.6 103.3,183.7 102.4,187 100,187.7 98.9,192.3 97.5,193.8 98,194.7 
		105,195.2 107,198.9 115.1,198.3 116.9,194.1 121.8,194.7 121.5,199.1 121.3,202 117.2,202 116.1,206.4 113.6,206.8 113.4,213 
		113.4,215.4 109.4,220.1 109.6,222.7 112.1,222.9 112.1,225.8 105.7,230.4 103.1,231.7 103.5,233.9 108.6,237.2 110.1,239.4 
		109.7,245.1 103,247.6 96.9,246.9 96.2,249.1 98.6,252.2 105.2,253.9 107.5,252 108.3,253.1 107.4,256.4 103.5,258.2 100.4,258.6 
		100.4,259.9 104.2,260.6 106.6,262.6 105.7,265.4 103.1,265.9 98.2,265.9 96.9,267.8 97.8,270.3 101.5,274.9 101.1,277.3 99.1,279 
		96.9,277.9 93.1,276.6 91.2,278.2 89,280.6 85.9,281.7 78.8,277.5 75.8,275.5 72.5,272.7 69.2,272.5 64.5,275.8 61.7,275.3 
		56.8,273.6 55.1,273.6 53.9,275.5 48.2,274 45.1,274 45.8,270.5 44.7,269.4 42.5,270.9 39.9,267 36.3,264.3 33.9,261.2 31.7,262.6 
		28.8,261 27.5,256.4 25.3,253.5 25.3,251.1 26.4,248.7 26.4,240.7 25.1,238.6 25.6,234.4 26.7,230.8 24,228.9 21.8,229.5 20,228.6 
		20,226.4 15.9,223.8 13.2,224.5 11.4,226.7 7.5,226.4 4.2,224 	"/>
	<path class="st5" d="M87.5,149.3l3.8,0.9l5.1-2.2v-4.6l5.3,0.2l2.9,0.4l0.9,2.2l1.1,1.1h1.8v2.9l7.3,0.7l4.2,1.6l2.7,0.4l0.2,2.7
		l3.5-0.7l0.4-1.8l1.6,0.2l2.2,2l2.4-0.5v-2.2l-1.1-1.8l0.7-1.6l2-0.2l1.5-1.5l3.7-1.1l0.9,1.8l5.1,0.7l3.1-1.8l1.1-1.1l5.3,1.1
		l4.2,1.6l0.7,2.4l0.2,2l-0.7,2.9l-1.5,2.9l0.4,0.9h0.9l1.6-2.9l1.1-2.4l1.6-0.4l1.8-0.4l0.7-1.3l-0.4-0.7l-1.6-1.1l-0.4-2l0.4-2.7
		l-1.1-1.3l0.7-1.5l2.2-0.9l0.5,0.7l1.3,2.6l1.3,0.9l0.2,2.4l0.4,0.5l2.9-0.2c0,0,1.6,0.5,1.5,0.4c-0.2-0.2,0.2,1.5,0.2,1.5l0.2,1.6
		l2.7,0.4l0.7-0.7l-0.2-2.7l0.5-1.6l3.8,0.4l1.8,1.3v2.4l2,1.6l2.2,0.2l0.7-1.8h0.9v1.6c0,0,0.7-0.2,0.9-0.4s0.2-1.8,0.2-1.8
		l2.4-1.1l3.7-0.9l0.7-1.8l1.5,1.8l1.6-3.8l3.5-0.7l1.5-1.3l1.3-0.2l3.1,1.3l1.8,0.4l2,1.5l-1.6,1.6l1.5,2.4l-0.5,0.9l-2.4-0.5
		l-1.5-0.2l-2.2-0.2l-1.6,1.1l-0.5,1.8l1.6,1.5l1.3,2.2v2.2l-1.3,0.9l-1.6,0.4l-0.9,2.2l0.4,2.4l-0.7,4.2l0.7,2.2l2.4,0.7l0.4,2.7
		l1.8,1.3l1.1,2.9l2.6,2.4v5.7v3.3l1.8,0.4l1.8,0.7l0.4,0.9l-2,1.5l-1.5-0.7l-1.8,0.5l-0.4,2l1.1,0.7l0.7,2.7l1.6,2.4h1.6l0.4,1.1
		l0.4,1.8l0.1,2.2l-1.8,1.5l-0.5,1.1l-0.2,1.8l0.9,2.4v1.6l-2.9,2.2c0,0-2.4,0-2.2,0s-0.9-2.2-0.9-2.2l-1.3-2l-2.6-0.2l-1.6-0.4
		l-0.5-1.1l-2,0.4l-0.5,1.5l0.5,2.2l2.6,0.2l3.1,0.9l1.8,2l-0.2,0.7l-3.1,1.3l-0.7,1.5l0.2,2.7l0.9,1.1l2.9,2.2l0.7,1.1l-0.9,1.1
		l-2.7-0.2l-1.6,0.4l-0.2,1.6l-1.1,1.3l-2.6-0.2h-1.8l-0.9-0.9l-0.4-1.1h-1.5l-1.1,0.4l-1.3-1.8l-0.7,1.3l-0.5,1.5l-0.2,0.7
		l-0.7-0.2l-0.4-0.9l0.2-3.1l-1.3-1.8l-2.9-2.2l-1.1-0.4l-1.1,0.5l-1.3-1.3l-1.5,1.1l-0.7-0.4l-0.2-2l-2.2-0.4l-0.7-1.1l-3.3,0.9
		l-2.4,0.5l-2.4,0.4l-2.4,1.5l-1.5,0.9l-1.5,0.2c0,0-0.5,0.7-0.4,0.9s1.3,1.5,1.3,1.5s0.4,0.9,0.4,1.1c0,0.2-0.7,1.5-0.7,1.5
		l-1.1,0.2l-0.7,1.8h-0.9l-1.6-1.6h-1.8l-2.2-0.4l-0.5,0.7l-0.2,2l0.2,1.8l-0.4,1.8l-0.5,0.5l-2,0.7l-1.3-0.2l-0.9,1.3l-0.9-0.7
		c0,0,0.7-0.9,0.7-1.1s0.5-3.8,0.5-3.8l-0.2-3.1v-2.4l0.5-0.7l0.9,0.2l1.1,1.6l0.9-0.5v-3.7l0.5-1.3l0.2-1.3l-0.5-0.2l-0.5,0.9
		l-0.9-1.3l-2.4,0.2l-3.3,0.9l-1.3,1.6l-0.9-0.4l-0.5-0.7l-1.5,0.9l-0.7,1.1l-2.6,0.9l-2.2,0.7l-0.2,2l-1.1,2.4l0.2,0.9L137,233
		l-1.3,0.2l-1.5-1.1l-0.9-1.5l-0.5-1.1l-1.6-0.4l-1.8-0.5l-4.6,0.2h-1.3l-1.1,1.5l-1.6,0.2l-2.6-0.2l-1.8-0.7l-0.5-0.7l-2.2,0.5
		l-2.9-0.7l-2.2-0.4l3.8-2.7v-3.1H110l-0.4-2.7l4-4.6l0.4-8.6l2.4-0.5l1.1-4.4h4l0.5-7.3l-4.9-0.5l-1.6,4.4l-8.2,0.5l-2-3.7l-7-0.7
		l-0.5-0.9l1.6-1.5l1.1-4.4l2.2-0.7l1.1-3.5l1.1-0.9l-2.2-5.3l-4.8-8.4l-4.8-1.1l-3.3-4.4l0.2-6l-0.5-1.1l-3.8,0.9l-0.5-1.6l2.2-2.7
		L87.5,149.3z"/>
	<g>
		<text transform="matrix(1 0 0 1 148.5728 194.9229)" class="st1 st2">Raiganj</text>
	</g>
	<g>
		<text transform="matrix(1 0 0 1 50.6064 224.2383)" class="st1 st2">Tarash</text>
	</g>
	<g>
		<circle class="st3" cx="127.2" cy="192.8" r="13.4"/>
		<text transform="matrix(1 0 0 1 121.2081 200.0736)" class="st1 st4">3</text>
	</g>
</g>
<g id="sirajganj-6">
	<path class="st6" d="M250.5,457.3c0,0-1.6-2.6-1.8-2.7c-0.2-0.2-5.7-2.6-5.7-2.6l-6.6-5.9l-5.5-2.9l-5.9-3.3l-1.6-0.4l-2.6,1.5
		l-1.1,0.2l-8.8-8.6l-1.8,0.4l-1.1-1.3l-1.6,1.6l-0.9-0.7l-1.3-1.5l-2.7-0.5l-3.8-3.7l-3.7-0.2l-2.2-1.1l0.4-2l-1.1-0.7h-5.9
		l-0.2,1.3l-0.9,1.5l-2.9-1.1l-2.6-2.6l-0.5-2.7l0.7-0.4l2.2,0.5l1.3-0.5l0.2-2.9l-2-1.8l-2-1.1l-2.9-0.5l-0.7,1.3l-0.2,2.2
		l-0.9,0.7l-0.7-0.9l0.2-3.5l-0.4-0.7l-0.4,0.4l-1.3,2l-1.5,0.2l-2-2l-0.5-0.5l-1.1,0.4l-0.5-0.5l-0.5-2.6l-1.6-2.2l-0.4-2.6
		l-0.5-1.6l-0.5-0.5l-1.5-0.5v-3.5l1.3-1.1l2.2-1.6v-0.9l-1.8-1.3l-1.5-0.9l-0.2-1.8l0.4-1.5l0.9-0.5l3.3,1.8h2.2l0.2-1.6l-0.7-2.7
		l-2.4-0.9c0,0-4.4-0.5-4.6-0.5s-2-0.7-2-0.7l-0.9-2.2l-1-3.8l0.4-1.6l1.1-0.7l1.8-0.2l2.2-1.3l0.2-1.1l-1.3-1.8l-1.5-0.7h-1.6
		l-1.3-1.3l0.4-1.5l1.5-1.5l2.4-0.2l0.7-2.6l-2-4.6l-3.5-3.3v-1.8l0.7-1.3l1.1-0.2l1.1-2.9l2-2.6l1.1-1.5l0.4-0.9h1.1l2,1.8l1.1-0.4
		l1.1-2l1.3-0.7l2.2,1.3h0.7l0.7-2.7l1.1-0.2l1.5,0.5l1.5-0.2V341l-2.2-2.6l-0.4-0.9l0.7-1.1l0.9-0.2l1.3,1.1l2.7,0.9l1.5-0.7
		l0.5-0.4l1.8,0.9l1.3-0.5l1.1-2l1.8-0.9l1.6,0.5l0.9,1.3l0.4-0.2l0.5-0.7l2.6,0.4h3.3l1.6-2l2-2.7l0.5-1.6l0.5-2.2l0.9-0.2l0.7,0.4
		v0.7l-0.2,1.8l-1.1,2l-1.1,1.6l-0.5,1.6l0.2,2l0.4,2.7v1.3h0.5l1.1-1.1h0.7l1.1,1.6h0.9l1.1-0.5l0.7,0.5v4.8c0,0,0.4,0,0.4,0.2
		s1.5-0.2,1.5-0.2l1.5,1.5l0.5,0.4l0.7-0.7l1.3-1.5l2-1.1l1.8,0.4l1.8-1.5l2.7,0.4l1.1,1.1l-0.2,2.7l1.1,1.1l2.2,0.2h3.7l0.2,2.7
		l1.1,0.9l0.2,2.7l1.3,0.7l1.8-0.5l2.6-6.6l0.4-5.3l1.1-0.7l8.2,1.5l0.7-0.7l0.2,2h1.5l1.6-2.2h1.6l1.1,1.6l1.3,1.5l2,1.1l2-0.7
		l2,3.8l2.4,1.3l2.9,1.8l0.4,3.1l-0.7,3.3l2.2,3.1l0.7,5.9l1.3,1.5v2.7l2.7,1.3l0.4,3.1l1.3,2.2l3.1,2.2l0.7,4l1.1,2.7v1.1l-1.1,0.4
		l-2-0.7l-0.9,0.2l0,0l1.5,4.8l0.5,3.3l-0.9,0.7l-3.5-0.5l-2,2l-1.5,5.9l2.6,3.5l5.1,2.6l4.2-0.4l2.7,3.3l-2.2,2.4l0.2,1.5l1.8,0.2
		l0.9-0.4l0.4-2.6l0.9-0.4l4,2.6l8.2,4l0.4,0.7l-1.6,1.3l-0.7,2.4l-1.8,0.2l-4.4-1.3l-2,0.5l-4,8.1l-2,0.5l-5.3,0.5l-2,3.3l-2.7,2.4
		l-1.8-0.5l0.2-2.6l-2-1.8l-0.9,1.3l0.7,3.1l-0.7,2.9l-2.4,1.8l-2.4-0.5l-2,1.5l-2.6-0.4l-2.6,2v1.1l1.8,0.7l-2.2,2.9l-3.7,2.6
		L250.5,457.3z"/>
	<g>
		<text transform="matrix(1 0 0 1 184.7637 398.3301)" class="st1 st2">Shahzadpur</text>
	</g>
	<g>
		<circle class="st3" cx="206.2" cy="368.8" r="13.4"/>
		<text transform="matrix(1 0 0 1 200.2081 376.0736)" class="st1 st4">6</text>
	</g>
</g>
<g id="sirajganj-5">
	<polygon class="st7" points="250.7,455.8 250.5,458 251.5,460.8 252.9,463.2 252.6,470 252.9,470.7 254.2,470.5 256.9,468.5 
		258.4,468.7 259.3,470 258.6,471.4 260.1,473.8 260.4,476.9 261.3,478.7 263.2,478.6 265.9,481.5 270.3,483.9 271.6,485.3 
		272.5,485.5 276.4,482.2 281.1,479.5 286.3,477.6 291.9,477.6 294.1,478.6 297.4,478.2 305.7,473.6 308.6,472.3 309.7,471.6 
		309.7,470.7 309,467.9 309.2,467.4 313.6,466.1 320,459.9 324,456.6 330.1,449.1 332.1,442.3 331.9,434.6 328.6,428.2 327.7,422.7 
		327.9,410.8 329,406.4 329.9,404.5 329.3,403.4 322.5,400 321.8,397.4 320.5,393 318.7,392.3 311.2,394.3 308.1,392.8 307.2,390.1 
		308.2,387.5 312.8,385.5 317.2,385.5 318.1,384.6 315.8,374.1 311.7,361.7 309.5,350.7 308.6,337.3 311.5,333.5 313.2,327.6 
		311.7,319.5 304.4,316.2 299.8,312.2 296,311.7 296.2,314 295.2,316.1 292.9,317.2 291,320.5 285,326.5 280.8,327 278.2,327.2 
		277.7,328.9 267,330.5 266.3,332.7 264.3,333.6 263.2,332.5 261.9,333.3 263,335.1 261.3,336.4 261.2,338.2 260.2,339 258.2,338.8 
		256,340.1 256,342.3 257.7,343 259.1,345.7 258,347.4 260.1,351.4 262.4,352.7 265.4,354.5 265.7,357.6 265,360.9 267.2,364.1 
		267.9,369.9 269.2,371.4 269.2,374.1 272,375.4 272.3,378.5 273.6,380.7 276.7,382.9 277.5,387 278.6,389.7 278.6,390.8 
		277.5,391.2 275.5,390.4 274.5,390.6 276,395.4 276.6,398.7 275.6,399.4 272.2,398.9 270.1,400.9 268.7,406.7 271.2,410.2 
		276.4,412.8 280.6,412.4 282.8,415 283.3,415.7 281.1,418.1 281.3,419.6 283.1,419.8 284.1,419.4 284.4,416.8 285.3,416.5 
		289.4,419 297.6,423.1 298,423.8 296.3,425.1 295.6,427.4 293.8,427.6 289.4,426.3 287.4,426.9 285.5,430.4 283.3,435 281.3,435.5 
		276,436.1 274,439.4 271.2,441.7 269.4,441.2 269.6,438.6 267.6,436.8 266.7,438.1 267.4,441.2 266.7,444.1 264.3,446 261.9,445.4 
		259.9,446.9 257.3,446.5 254.8,448.5 254.8,449.6 256.6,450.3 254.4,453.3 	"/>
	<path class="st7" d="M311.7,319.5l-0.4-8.4l-1.3-4.4l-2.9-2.4l-3.8-3.7l-0.7-5.5l0.5-4.2c0,0,0.2-4.6,0-5.1s-2-4.6-2-4.6l-6.4-4.4
		l-4-3.8l-0.5-2l0.7-5.7l0.5-1.5l-2.2-1.1l-2-0.4l-0.2,7.9l-0.5,2.7l-1.8,0.9L283,273v-2.6l-0.9-0.9l0.7-7l-0.4-1.8l-1.8-1.3
		l-3.7-1.8l-0.9-0.2l-0.2,0.5l0.5,1.1l-0.9,2.6h-0.7l-1.3-1.5l-1.3-1.1l-1.3,0.9l-1.1,0.4l-1.3-0.4l-1.5,1.3l-1.8-0.4
		c0,0-0.4,1.8-0.5,1.8c-0.2,0-2.2,3.7-2.2,3.7l-1.1-0.4l-1.5-1.1l0.5-0.9l-1.3-0.4l-0.5,1.8l-2.6,2.6v4.6l0.4,1.8l-0.4,1.5l1.6,0.9
		l-0.9,1.6l-1.8,2.4l-3.8,2.2l-1.8,2.9l-1.1,1.1l-1.3-0.4l-0.4-1.8l-1.3-0.9l-0.5,0.5v1.3l-2,1.8l-1.6,0.2l-1.6-0.4l-0.9,0.4
		l-0.9,1.1l-2.4,0.4l-0.4,0.7l-0.4,4.6l0.4,1.1l1.5,0.9l0.4,1.1l-0.5,1.6l-1.6,0.7l-1.8,0.9l-0.9,2l0.2,2.2l0.2,0.9l-1.6,0.9
		l-0.7-0.4l-1.1-1.1V304l-1.1,0.4l-1.3,0.7l-2.6-0.9l-0.4-0.2l-0.4,0.5v4.8l0.4,2.2l-0.2,1.5l0.4,1.5v4l-1.1,2.6l-1.8,1.1l-1.5-0.7
		l-1.5-1.1l-1.3,0.7l-2.6,2.4l-0.5,4l0.4,4.8l0.9,6l0.5,2.9l-0.9,1.8l0.7,2.2l1.8,0.4l1.8-1.5l2.7,0.4l1.1,1.1l-0.2,2.7l1.1,1.1
		l2.4,0.2h3.5l0.2,2.7l1.1,0.9l0.2,2.7l1.3,0.7l1.8-0.5l1.1-2.7l1.5-3.8l0.4-5.3l1.1-0.7l8.2,1.5l0.7-0.7l0.2,2h1.5l1.6-2.2h1.6
		l1.1,1.6c0,0,0.9,1.1,1.3,1.5c0.4,0.4,2,1.1,2,1.1l2-0.7v-0.2l1.1-1.6l-1.5-2.7l-1.6-0.7v-2.2l2.2-1.3l2,0.2l0.9-0.7l0.2-1.8
		l1.6-1.3l-1.1-1.8l1.3-0.7l1.1,1.1l2-0.9l0.7-2.2l10.6-1.6l0.5-1.6l2.6-0.2l4.2-0.5l6-6l1.8-3.3l2.4-1.1l0.9-2l-0.2-2.4l3.8,0.5
		l4.6,4L311.7,319.5z"/>
	<g>
		<text transform="matrix(1 0 0 1 237.9229 309.0996)" class="st1 st2">Belkuchi</text>
	</g>
	<g>
		<text transform="matrix(1 0 0 1 270.6426 455.7793)" class="st1 st2">Chowhali</text>
	</g>
	<g>
		<circle class="st3" cx="292.2" cy="361.8" r="13.4"/>
		<text transform="matrix(1 0 0 1 286.2081 369.0736)" class="st1 st4">5</text>
	</g>
</g>
<g id="sirajganj-4">
	<path class="st8" d="M89.1,280.5l0.7,2.4l1.5,0.7l-1.1,2.9l-0.4,1.6l0.4,2.4l1.8,1.6l2.4-0.2l0.4-1.3l2.9-0.5l3.5,1.5l-0.2,0.9
		l-0.9,1.1v0.4l0.7,0.4l1.5-1.1l0.9,0.9l-1.1,1.3l-0.7,1.6l0.7,1.1l2.2,0.2l0.7,2.2l-1.6,1.6l-2-0.2l1.1,4.2l-1.5,2.7l2.2,1.3
		l-1.1,4.6l2.7,2l-1.1,2.6l0.2,2.2l2.2,0.9l0.7,3.8l-2.4,3.8L104,335l1.1,1.5l1.1-0.2l2-2.7l3.3,0.9l1.3-0.9l1.6-5.7
		c0,0,2.7-0.2,2.9-0.9c0.2-0.7,1.3-2.6,1.3-2.6l2.4,0.7l3.5,2.6c0,0-0.2,2.4,0,2.6s2.2,2.6,2.2,2.6l-0.2,2.2l-1.5,2.6l-1.3,4
		l-1.8,1.1l0.4,2.7l-2.7,0.4h-2.9L116,347l4.4,3.3h1.6l1.8-1.5l5.7-0.7l1.5-1.3l1.1,0.4l2.9,3.8v2.7l-2.4,2.9l-1.8-0.2l-0.7-2
		l-2.2,0.2c0,0-1.1,0-1.1-0.2s-0.9-2.4-0.9-2.4l-0.9,0.4l0.7,3.3l1.3,2.6l1.5,0.4l0.2,1.3l-1.3,0.7l0.5,2.6h1.3l-0.2,1.3l-0.7,1.3
		l0.7,0.7l1.6-0.9l2.6,0.2l2-0.9l2.4,0.7l2,0.2l0.4-0.9l-0.2-6.4l1.3-1.1l0.9,0.5l1.1,0.7l3.5-0.2l1.3-0.9l1.1,0.9l3.5,8.2l1.5,2.6
		l1.8,0.9h1.4L156,369l0.4-1.5l1.5-1.5l2.4-0.2l0.7-2.5l-2-4.6l-3.5-3.3v-1.8l0.7-1.3l1.1-0.2l1.1-2.9l3.2-4.1l0.3-0.9h1.1l2,1.8
		l1.1-0.3l1.1-2l1.3-0.8l2.3,1.3h0.7l0.8-2.7l1.1-0.2l1.5,0.5l1.5-0.2v-1l-2.2-2.5l-0.4-0.9l0.7-1.1l0.9-0.2l1.3,1.1l2.7,0.9
		l1.5-0.7l0.5-0.4l1.8,0.9l1.3-0.5l1.1-2l1.9-0.9l1.6,0.5l0.9,1.2l0.4-0.1l0.5-0.7l2.6,0.4h3.3l1.8-2.3l1.8-2.5l0.6-1.7l0.5-2.1
		l0.9-0.2l0.8,0.4v0.8l-0.2,1.8l-1.1,2.2l-1,1.5l-0.6,1.7l0.5,4.7v1.4h0.5l1.1-1.1h0.7l1.1,1.6h0.9l1.1-0.5l0.7,0.5v4.8h0.3l0.1,0.2
		l0.3,0.1l1.2-0.2l1.4,1.4l0.6,0.4l2-2.1l2-1.1l-0.7-2.2l0.9-1.8l-0.5-2.9l-0.9-6l-0.4-4.8l0.5-4l2.6-2.4l1.3-0.7l1.5,1.1l1.5,0.7
		l1.8-1.1l1.1-2.6v-4l-0.4-1.5l0.2-1.5l-0.4-2.2v-4.8l0.4-0.5l-0.4-1.8l-2.9-4l-0.4-3.8l-1.5-1.6l-0.4-3.8l0.9-1.3l0.4-2.4l-0.5-1.3
		l-2.2-0.2l-0.7-4.8l-0.2-2.4l0.9-2.2l-1.6-1.8L214,269l0.5-2l2.4-1.5l0.4-2.2l0.4-2l1.1-2l0.2-1.3l-1.3-0.2l-2.6,2l-0.7,2.9l-1.6,2
		l-1.6,0.2l-1.1-0.4l0.2-0.9l2-1.5l-0.5-1.3l-0.9-2.2l-3.3-2.4l-2.2-2l-0.9,1.3l-1.1,0.4l-0.4-0.5v-2l-3.1-4.8l-1.3-0.2l-1.6-1.6
		l0.4-0.7l1.8-0.2l2.7-1.3l0.4-1.5l-2.2-2.6l-2.2-4.6l0.2-2.9l-0.2-0.2l-0.4-1.1H196l-1.1,0.4l-1.3-1.8l-0.7,1.3l-0.5,1.5l-0.2,0.7
		l-0.7-0.2l-0.4-0.9l0.2-3.1l-1.3-1.8l-2.9-2.2l-1.1-0.4l-1.1,0.5l-1.3-1.3l-1.5,1.1l-0.7-0.4l-0.2-2l-2.2-0.4l-0.7-1.1l-5.7,1.5
		l-2.4,0.4l-3.8,2.4l-1.5,0.2l-0.4,0.5v0.4l1.3,1.5l0.4,1.1l-0.7,1.5l-1.1,0.2l-0.7,1.8h-0.9l-1.6-1.6h-1.8l-2.2-0.4l-0.5,0.7
		l-0.2,2l0.2,1.8l-0.4,1.8l-0.5,0.5l-2,0.7l-1.3-0.2l-0.9,1.3l-0.9-0.7l0.7-1.1l0.5-3.8l-0.2-3.1v-2.4l0.5-0.7l0.9,0.2l1.1,1.6
		l0.9-0.5v-3.7l0.5-1.3l0.2-1.3l-0.5-0.2l-0.5,0.9l-0.9-1.3l-2.4,0.2l-3.3,0.9l-1.3,1.6l-0.9-0.4l-0.5-0.7l-1.5,0.9l-0.7,1.1
		l-4.8,1.6l-0.2,2l-1.1,2.4l0.2,0.9l-0.2,0.5l-1.3,0.2l-1.5-1.1l-0.9-1.5l-0.5-1.1l-1.6-0.4l-1.8-0.5l-5.9,0.2l-1.1,1.5l-1.6,0.2
		l-2.6-0.2l-1.8-0.7l-0.5-0.7l-2.2,0.5L111,229l-2.2-0.4l-2.6,1.8l-2.6,1.3l0.5,2.2l5.1,3.3l1.5,2.2l-0.4,5.5l-7,2.7L97,247l-0.7,2
		l2.4,3.1l6.6,1.8l2.2-1.8l0.7,1.1l-0.9,3.1l-3.8,2l-3.1,0.4v1.1l4,0.9l2.2,2l-0.9,2.7l-2.6,0.4l-4.9,0.2l-1.3,1.6l0.9,2.6l3.7,4.6
		l-0.4,2.4l-1.8,1.6l-2.4-1.1l-3.8-1.1L89.1,280.5z"/>
	<g>
		<text transform="matrix(1 0 0 1 132.1509 291.627)" class="st1 st2">Ullapara</text>
	</g>
	<g>
		<circle class="st3" cx="156.2" cy="261.8" r="13.4"/>
		<text transform="matrix(1 0 0 1 150.2081 269.0736)" class="st1 st4">4</text>
	</g>
</g>
<g id="sirajganj-2">
	<path class="st9" d="M215.4,215.5l1.3,1.1l2.6-1.6l2.6-0.2l0.4,1.6l-0.5,1.5l-3.1,0.9l-0.7,0.9l0.4,1.5l1.8,0.4l2.2,0.2v2.6
		l-0.9,1.5l-0.9-0.2v-1.8l-0.7-0.9l-0.9,0.5l-1.5,1.1l-2.7,0.4v0.7l2.7,0.5l1.1,1.1l-0.4,1.5l-2.7,1.1l1.5,1.5l1.5,0.4l-0.2,1.8
		l-1.5,1.6l0.4,2.7l1.3,1.6h3.7l1.6-1.3l0.5-2l3.8-0.2l2.4,1.3l2.2,0.9l1.6-0.9c0,0,0-1.5-0.2-1.5s-2.7,0.7-2.7,0.7l-0.7-0.9
		l0.7-0.9l1.1-0.2l0.5-0.7l-0.5-1.1l2.6-1.6l2,0.7l2.7,1.3l0.5-0.7l-2-1.1l-0.5-1.3l0.4-2.2l0.4-1.3l1.3-0.7v1.1l-0.5,0.7l2.2,3.7
		l1.1,1.1l-0.4,3.1l1.5,1.6h2.2l2.2,0.4l2.4-0.5l1.6,0.7l0.5,1.3l-1.3,0.5l-1.6,0.5l-0.2,0.7l1.3,0.5l3.1,0.2l1.5,0.2l0.2,1.1
		l-2.2,1.8l-0.7,0.9l0.2,3.7v4.9l-0.4,2.4l0.9,1.1l0.5,1.5v1.1l1.1,0.2v-2.6l1.1-0.9l0.4,0.5v1.5l0.9,0.7c0,0,1.8,0.5,2,0.5
		s0.7,2,0.7,2l-1.2,2l-0.4,1.5l-2.6,2.6v4.6l0.4,1.8L256,276l1.6,0.9l-0.9,1.6l-1.8,2.4l-3.8,2.2l-1.8,2.9l-1.1,1.1l-1.3-0.4
		l-0.4-1.8l-1.3-0.9l-0.5,0.5v1.3l-2,1.8l-1.6,0.2l-1.6-0.4l-0.9,0.4l-0.9,1.1l-2.4,0.4l-0.4,0.7l-0.4,4.6l0.4,1.1l1.5,0.9l0.4,1.1
		l-0.5,1.6l-3.5,1.6l-0.9,2l0.2,2.2l0.2,0.9l-1.6,0.9l-0.7-0.4l-1.1-1.1V304l-1.1,0.4l-1.3,0.7l-2.6-0.9l-0.4-0.2l-0.4-1.8l-2.9-4
		l-0.4-3.8l-1.5-1.6l-0.4-3.8l0.9-1.3l0.4-2.4l-0.5-1.3l-2.2-0.2l-0.7-4.8l-0.2-2.4l0.9-2.2l-1.6-1.8l-0.7-3.7l0.5-2l2.4-1.5
		l0.7-4.2l1.1-2l0.2-1.3l-1.3-0.2l-2.6,2l-0.7,2.9l-1.6,2l-1.6,0.2l-1.1-0.4l0.2-0.9l2-1.5l-1.5-3.5l-3.3-2.4l-2.2-2l-0.9,1.3
		l-1.1,0.4l-0.4-0.5v-2l-3.1-4.8l-1.3-0.2l-1.6-1.6l0.4-0.7l1.8-0.2l2.7-1.3l0.4-1.5l-2.2-2.6l-2.2-4.6l0.2-2.9l0.7,0.7h1.8l2.6,0.2
		l1.1-1.3l0.2-1.6l1.6-0.4l2.7,0.2l0.9-1.1l-0.7-1.1l-2.9-2.2l-0.9-1.1l-0.2-2.7l0.7-1.5l3.1-1.3l0.2-0.7l-1.8-2l-3.1-0.9l-2.6-0.2
		l-0.5-2.2l0.5-1.5l2-0.4l0.5,1.1l1.6,0.4l2.6,0.2l1.3,2c0,0,0.9,1.8,0.9,2.2h2.2L215.4,215.5"/>
	<path class="st9" d="M206.4,143.5l1.8-3.7l-0.7-3.3l-0.4-2.2l1.3-1.5l-1.5-0.5l-0.9-6.8l-0.7-0.5l2-3.7l0.2-4l-2.2-1.5l2-2.2
		l2.2-0.5l0.4-1.1h0.9l0.7,2l2.2,1.3l1.1-0.2l0.9-0.9l2.6,2l3.5,2.2l1.3,2.2l1.1,0.9l1.5-1.1l1.6,0.7h1.8l1.5-1.5l1.1,0.2l4.2,4.9
		l-0.9,0.9l-1.3,2l-1.8,0.7l0.5,1.5l1.1,0.5l0.4,1.8l0.2,1.8h1.5l2.4-0.7l1.3-1.3l0.2-1.3l0.7,0.2l1.3,1.5l2.4,4.6l-0.2,4.9
		l-0.4,2.6l0.5,0.9l1.6-0.2l1.1,0.4l0.4,1.6l0.4,1.1l1.1-0.4l1.3-1.3h1.1l-1.1,1.5l0.5,0.5l1.3-0.2l-0.4,2v1.6l1.5,0.2l3.5-0.4
		l0.9-1.1l0.2-1.5c0,0-0.5-1.1-0.5-1.3s0.4-1.6,0.4-1.6l-1.5-2.6l-1.3-1.8c0,0,0.4-1.8,0.5-2c0.2-0.2,1.1-2.6,1.1-2.6l0.9-2.7
		l0.9-2.2l1.8-0.4c0,0,1.5,0.2,1.3-0.4c-0.2-0.5-0.2-1.8-0.2-1.8l1.3-0.5l0.2-1.8l3.5-1.3l2.9-0.4l2.7,0.9l1.1,0.2l1.3-3.1l0.7-1.1
		l0.5-1.6l1.5,0.2l2.2,1.3l0.5,2.7l-0.2,2.4l-0.4,3.3v1.1v1.5l1.8,0.2l2.2-0.2l3.1,0.4c0,0,0.5,0,0.5-0.2s-1.5-1.8-1.5-1.8l-2-2.7
		c0,0,0.4-2,0.4-2.2s1.1-3.5,1.1-3.7s1.8-2.9,1.8-2.9l1.3-2.2l2.9,0.4l2.9-0.5l1.6,0.4l2,2.4l1.1,1.5l0.7-0.4l1.3-0.9l1.8-0.9
		l2.7-0.7l1.6,5.1l1.1,1.1l0.9,4l0.5,3.7l0.9,1.8c0,0,1.5,0.5,1.6,0.7c0.2,0.2,0.7,1.5,0.7,1.5l-0.9,1.1l-2.9,2.6l-2.7,1.3l-2.4,1.6
		l-1.3,1.6l-0.9,1.8l0.2,7.7v3.1l-1.3,0.4H298l-0.5,1.6h-2.4l-3.5-0.2H289l-0.2,0.7l0.5,1.1l-1.8,0.9l1.6,1.6l0.9,1.6l-0.9,3.1v1.6
		l-2.4-0.9l-2.7-1.1l-2.2,1.8l0.2,1.3l0.5,2.2c0,0,3.5,1.5,3.7,1.6c0.2,0.2,3.5,1.3,3.5,1.3l1.1,1.5l0.2,1.3l1.8-0.7l0.9,0.5
		l-0.2,1.5l1.5,2.6l-0.5,1.3l-3.3,4.6L289,192l0.4,1.6l1.3,0.9l2-1.3l0.9-1.5l1.3,0.2l0.2,1.1l-1.1,2l-2.7,2.6l-1.1,1.5h-1.6l-2,1.6
		l0.2,2l-0.2,4.6v3.1l0.9,0.4l4.6,0.2h1.6l-0.2,1.3l-3.3,4l-1.8,5.7l0.2,3.7l2.4,6l1.3,4.6l2.2,5.3l3.1,5.3l1.6,6.4l0.7,3.7
		l-1.3,3.1L297,263h-1.3H293l-1.5,0.7l-2.2-1.3l-2-0.4l-0.2,7.9l-0.5,2.7l-1.8,0.9L283,273v-2.6l-0.9-0.9l0.7-7l-0.4-1.8l-1.8-1.3
		l-3.7-1.8l-0.9-0.2l-0.2,0.5l0.5,1.1l-0.9,2.6h-0.7l-1.3-1.5l-1.3-1.1l-1.3,0.9l-1.1,0.4l-1.3-0.4l-1.5,1.3l-1.8-0.4l-0.4,1.6
		l-0.2,0.2l-2.2,3.7l-1.1-0.4l-1.5-1.1l0.5-0.9l-1.3-0.4l0.7-1.5c0,0-0.4-1.8-0.7-2l-2-0.5l-0.9-0.7v-1.5l-0.4-0.5l-1.1,0.9v2.6
		l-1.1-0.2V259l-0.5-1.5l-0.9-1.1l0.4-2.4v-4.9l-0.2-3.7l0.7-0.9l2.2-1.8l-0.2-1.1l-1.5-0.2l-3.1-0.2l-1.3-0.5l0.2-0.7l1.6-0.5
		l1.3-0.5l-0.5-1.3L250,237l-2.4,0.5l-2.2-0.4h-2.2l-1.5-1.6l0.4-3.1l-1.1-1.1l-2.2-3.7l0.5-0.7v-1.1l-1.3,0.7l-0.4,1.3l-0.4,2.2
		l0.5,1.3l2,1.1l-0.5,0.7l-2.7-1.3l-2-0.7l-2.6,1.6l0.5,1.1l-0.5,0.7l-1.1,0.2l-0.7,0.9l0.7,0.9l2.7-0.7c0,0,0.2,0.4,0.2,1.5
		l-1.6,0.9l-2.2-0.9l-2.4-1.3l-3.8,0.2l-0.5,2l-1.6,1.3h-3.7l-1.3-1.6l-0.4-2.7l1.5-1.6l0.2-1.8l-1.5-0.4l-1.5-1.5l2.7-1.1l0.4-1.5
		l-1.1-1.1l-2.7-0.5V225l2.7-0.4l1.5-1.1l0.9-0.5l0.7,0.9v1.8l0.9,0.2l0.9-1.5v-2.6l-2.2-0.2l-1.8-0.4l-0.4-1.5l0.7-0.9l3.1-0.9
		l0.5-1.5l-0.4-1.6l-2.6,0.2l-2.6,1.6l-1.3-1.1v-1.6l-0.9-2.4l0.2-1.8l0.5-1.1l1.8-1.5l0.4-2.2l0.2-1.9l-0.4-1.1H215l-1.6-2.4
		l-0.7-2.7l-1.1-0.7l0.4-2l1.8-0.5l1.5,0.7l2-1.5l-0.4-0.9l-1.8-0.7l-1.8-0.4v-9l-2.6-2.4l-1.1-2.9l-1.8-1.3l-0.4-2.7l-2.4-0.7
		l-0.7-2.2l0.7-4.2l-0.4-2.4l0.9-2.2l1.6-0.4l1.3-0.9v-2.2l-1.3-2.2l-1.6-1.5l0.5-1.8l1.6-1.1l2,0.2l1.8,0.2l2.2,0.5l0.5-0.9
		l-1.5-2.4l1.6-1.6l-2-1.5l-1.8-0.4l-3.1-1.3l-1.3,0.2L206.4,143.5"/>
	<g>
		<text transform="matrix(1 0 0 1 220.2803 181.4712)" class="st1 st2">Sirajganj</text>
	</g>
	<g>
		
			<ellipse transform="matrix(0.1602 -0.9871 0.9871 0.1602 11.1789 424.7392)" class="st3" cx="255.2" cy="205.8" rx="13.4" ry="13.4"/>
		<text transform="matrix(1 0 0 1 249.2081 213.0736)" class="st1 st4">2</text>
	</g>
	<g>
		<text transform="matrix(1 0 0 1 209.0625 250.6992)" class="st1 st2">Kamarkhand</text>
	</g>
</g>
</svg>
