<?xml version="1.0" encoding="utf-8"?>
<!-- Generator: Adobe Illustrator 25.2.1, SVG Export Plug-In . SVG Version: 6.00 Build 0)  -->
<svg version="1.1" id="Layer_1" xmlns="http://www.w3.org/2000/svg" xmlns:xlink="http://www.w3.org/1999/xlink" x="0px" y="0px"
	 viewBox="0 0 332 431" style="enable-background:new 0 0 332 431;" xml:space="preserve">
<style type="text/css">
	.st0{fill:#ABBEED;stroke:#FFFFFF;stroke-width:0.5;stroke-miterlimit:10;}
	.st1{font-family:'TimesNewRomanPSMT';}
	.st2{font-size:16px;}
	.st3{fill:#FFFFFF;}
	.st4{font-size:24.672px;}
	.st5{fill:#C5CFED;stroke:#FFFFFF;stroke-width:1.033;}
	.st6{fill:#8BAFE8;stroke:#FFFFFF;stroke-width:0.5;stroke-miterlimit:10;}
	.st7{fill:#9BB6EA;stroke:#FFFFFF;stroke-width:0.5;stroke-miterlimit:10;}
	.st8{fill:none;stroke:#FFFFFF;stroke-width:0.75;stroke-miterlimit:10;}
</style>
<g id="natore-3">
	<path class="st0" d="M174.9,204.8l-0.4-2.8l-2.6-0.9h-2.4l-2.6-1.9l-1.3,2.1h-1.5l-0.8-3v-2.6l-1.9-0.2l-0.6,2.4l-2.1,2.8l-0.6,2.6
		l-1.3,2.3l-2.3,0.4l-2.4-3.6l0.8-2.1l2.8-1.9l-1.1-3l-1.3-4.3l1.9-3.4l0.8-2.4l-2.1-3.8l-2.4-0.9l-2.8,1.3l-4,2.8v3l-0.4,2.3
		l-1.7,0.2l-1.9-2.4l-0.8-4.9l1.9-2.4l4.5-1.7l1.3-3.2l-2.4-4.7l-2.6-0.6l-3.4,0.8L138,170l1.3-3l-7.9-6.4l0.8-1.7l4.7-2.8l-0.8-4
		l0.6-2.1l3.6-2.6c0,0,2.1-3.6,1.9-3.8c-0.2-0.2-2.8-4.7-2.8-4.7l-0.2-2.8l4.5-2.3l0.8-3.2l-1.3-2.3l-0.6-5.3l4-1.3l1.9-1.3
		l-0.2-2.3l-4,0.4l-1.1-0.8l4.9-4.5l11.1-0.4l2.1-3.8l0.4-2.1h3l2.1,4.3l2.1-1.5l1.3-4.9v-4.3l2.3-1.7l-2.8-1.5l0.4-2.1L175,95
		l1.1-10.9l-0.4-8.3l-3-2.8l-2.8-1.9l-0.2-1.7l3.2-5.1l-1.9-0.9l0.6-6.4l0.8-4.9l3-0.6v-2.3h-2.8l-0.6-5.6v-3.4l4-4.5l4.5-0.9
		l2.8-0.9l2.1-4.3l1.1-0.4L185,26l1.1-2.1l1.5,1.7l0.4-2.1h1.5l1.7,3l1.3-2.3l4.1-1.1l0.2-1.3l-2.8-0.2l-1.5-0.9l0.6-1.1l1.7-0.4
		l-0.4-2.3l0.6-2.3l-1.1-1.9l0.8-1.7l2.1-2.4V5.3l3.2-0.2l0.6,5.1l3.6-0.4l3.2-1.7l0.6-3.6l2.4-1.3l1.7,1.5l2.8-0.6l0.8,1.9v3.6
		l1.5,1.7l-0.2,3.6l0.8,0.8l-0.8,1.1l-4,1.5l-4-0.2l0.2-4l-1.7,1.5h-4l-1.5,1.7l0.2,2.4l1.5,1.5l-0.4,3.8l-1.3,0.6l-3.4-0.6
		l-1.5,2.6v2.1l1.1,0.8l0.2,3l-1.5,2.4l3.8,5.8l0.9,4.5l2.4,4l3.2-0.4L208,51v1.7l-3,0.9l0.4,1.3l4.1,0.2l1.9-2.4l6-0.2l3-1.1
		l0.2-2.8l-1.7-1.7l0.9-1.5l3.4-0.4l-0.4-2.6l-3.4-0.4l0.9-4l1.1-4.3h0.9L224,36l1.7-0.6l2.3-3.2l3.8-1.9l2.1,0.8l0.6,1.7l-1.5,5.1
		l1.1,0.8l3.4-0.2l1.5-2.1l1.1-0.2l1.9,3.2l-1.3,2.4l0.4,1.3l1.7-1.1l2.6,0.9l-0.9,2.8l-2.4,1.9l-2.4-0.6l-0.6,1.9l-0.2,4.5
		l-1.9,2.3l-1.3,0.8l0.4,1.3l2.6-0.4l3,1.9l-0.2,4.5l1.1,0.6l0.8-0.6l0.8-4.3l4.3-1.7l0.9,1.1l0.4,5.8l-2.4,2.3v1.3l1.1,0.6l1.3,0.2
		l0.6,4.5l1.1,3L253,77l0.8,3l2.8,2.4l3-2.6l4.1-0.4l-0.6-3.4l0.9-2.3v-2.1l3-1.5l0.2-3.6l2.4-1.5l4.5-0.9l0.2-3.6l0.8-2.4l-0.4-1.3
		l-3.4-0.6l-0.8-2.3l1.3-1.5l2.6,0.8l1.7-2.4l1.5-1.9l0.4-2.6l6.4-0.4l0.6,3l3.2,1.1l1.7-1.1l0.8-2.4l1.9,0.2l0.6,2.4l4.1-0.2
		l4.9,2.6v2.1l2.6,0.2l0.6,1.3l-2.3,1.3l0.4,1.3l5.1-0.4l1.3,0.9l-1.1,3.2l0.4,4.3l1.3,3.2l6.8-0.6l5.6-0.4l1.1,1.5l-1.9,3.4
		l-1.1,4.9l0.8,2.4l-0.2,3.6l1.3,1.7l2.4,2.3l2.6,4.3l-0.4,3.6l2.8,0.8v1.7l-2.6,1.1l-3,7.5l-1.3,5.3l-2.8,4.3l-2.4-1.1l1.5,3.8
		l-2.4,1.9l-2.6,4.7l-0.6,3.8l-3.4,0.4l-2.1,2.3l-1.5,0.2l1.7,2.3l-1.9,4.3l-3.4,0.4l-8.5,10.4l-2.4-2.1l-1.1,1.5l2.8,1.5l-0.8,2.1
		l-2.6,0.6l0.2,1.3l2.8-0.6v4.1l-2.4,1.3l1.7,1.7l-1.5,1.3l0.8,2.3l-2.4,3.2l-2.6,4.3l-4.1,4.7l-5.8,0.9l-1.1,2.8l-2.4,0.4l-4,4.5
		l-0.8,0.4l-5.1-1.7l0.4-3.8l-1.9,0.2l-4.3,1.1l-2.1,2.8l-4.9,4.3l-6,3.6l-0.4,4.3h2.1l-0.2,2.1l3,1.3l-0.4,1.7l-7.9,2.6l-3.8-0.8
		l-3.4,1.5l-1.7-2.8l-2.6-1.5l-2.6,1.7l-7.5-2.6l-0.9,3.4l-1.9,1.7l0.9,2.8l-0.6,1.1l-5.1-2.1l-4.5-0.8l-3.6-3.4l-4.1-0.8l-5.1,1.5
		l-3.4-1.1l-1.5-1.3l1.9-2.1l-0.8-1.1l-4.9,1.3l-2.8,4.5l-2.1-0.4l-2.4,1.9L174.9,204.8z"/>
	<g>
		<text transform="matrix(1 0 0 1 199.9648 136.8604)" class="st1 st2">Singra</text>
	</g>
	<g>
		<circle class="st3" cx="217.4" cy="104.8" r="13.4"/>
		<text transform="matrix(1 0 0 1 211.4581 112.0736)" class="st1 st4">3</text>
	</g>
</g>
<g id="natore-4">
	<polygon class="st5" points="149.6,240.8 150.4,243.4 153,244.4 155.9,243.2 157.7,246.2 159.8,246.4 162.8,242.8 164.3,246.2 
		167.5,247.7 169,245.5 167.9,243.8 169.4,242.7 171.9,245.7 169.8,249.1 166.4,250.4 163.2,249.4 159.6,249.2 158.1,251.5 
		162.3,255.8 167.3,257.3 174.7,254 179.8,250.6 183.1,252.8 191.4,255.8 197.1,255.6 201,257.5 203.7,255.6 205.7,256 205.7,257.7 
		209.5,257.7 213.1,255.8 211,249.4 213.8,245.3 219.5,247.6 226.3,247.2 231.2,245.5 236.2,247.2 235.5,251.1 239.1,254.9 
		241.3,253.6 243.2,257 245.3,257.2 247,260.4 251.3,260.7 253.4,260.4 259,265.1 260.7,268.8 259.8,271.8 265.4,276.7 267.1,280.9 
		272.8,280.5 280.5,280.1 283.5,274.9 284.6,270.3 284.8,267.1 288.6,265.4 288,262.2 289.1,262.2 295.5,266.9 296.1,262.1 
		298,261.5 301.6,262.6 302.9,261.7 304.4,258.1 307.8,256.8 309.1,258.7 312.1,258.1 316.6,252.6 316.6,248.9 317.6,247.2 
		317.2,245.1 317.2,241.9 315.9,241.9 314,243.8 312.5,243.2 312.3,240 309.8,238.7 307.2,235.9 305.1,232.7 303.3,232.3 
		301.6,233.6 299.5,233.4 298.9,230.6 297.4,228.9 297.4,226.1 295.5,225.9 295.5,224.2 293.5,224.4 293.3,223.3 295.7,221 
		296.3,213.1 296.5,209.3 294,206 294.6,203.3 295.9,198.4 294,194.7 294.6,193.1 293.5,193 292,193.7 289.1,192.4 288.4,191.1 
		286.7,188.6 282.5,188.8 279,190.9 275.8,191.1 270.7,189.2 269.4,186.2 268.8,185.8 264.1,184.3 264.5,180.7 262.8,180.7 
		258.3,181.9 256.4,184.5 251.3,189 245.5,192.4 244.9,196.9 246.8,196.9 246.8,198.8 249.8,200.3 249.4,202 241.5,204.6 
		237.7,203.9 234.4,205.4 232.7,202.6 230,201.1 227.4,202.8 219.9,200.1 218.9,203.5 217,205.2 218,208 217.4,209 212.3,207.1 
		207.8,206.3 204.2,202.9 200.1,202.2 195.2,203.7 191.6,202.6 190.1,201.2 192,199.2 191.1,198 186.3,199.4 183.5,203.7 
		181.5,203.5 179,205.4 175.1,204.8 172.6,204.3 171.5,205.4 171.1,209.9 172.8,211.4 173.2,212.7 172,214 169,212.9 167.9,213.3 
		167,215.7 163.9,216.1 164.1,217.2 167.7,218.9 166.6,222 166.8,223.8 166.4,225.2 160.4,227 158.1,227.8 158.7,229.3 160.7,231.6 
		160,234 156,236.4 154.9,239.3 152.8,240 150.6,240 	"/>
	<path class="st5" d="M131.8,266.6l2.3-1.5l-0.4-8.3l1.3-1.7l4.7-3.6h1.7l2.3,0.4l0.2-3.6l3-1.3l1.9,0.2l2.3,2.1l4-1.7l2.3-2.3
		l0.6,0.9l2.1,0.2l3-3.4l1.5,3.2l3.2,1.5l1.5-2.3l-1.1-1.7l1.5-1.1l2.4,3L170,249l-3.4,1.3l-3.2-0.9l-3.6-0.2l-1.5,2.3l4.1,4.3
		l5.1,1.5l7.3-3.4l5.1-3.4l3.6,2.3l7.9,3l5.8-0.2l4,1.9l2.6-1.9l2.1,0.4v1.7h3.6l3.8-1.9l-2.1-6.4l2.8-4.1l5.6,2.3l6.8-0.4l4.7-1.5
		l5.3,1.5l-0.8,4l3.6,3.8l2.3-1.3l1.9,3.4l2.1,0.2l1.7,3.2l4.3,0.4l2.1-0.4l5.6,4.7l1.7,3.8l-0.9,3l5.6,4.9l1.7,4l13.2-0.6l3.2-5.3
		l1.1-4.5l0.2-3.2l3.8-1.7l-0.6-3.2h1.1l6.2,4.5l0.2,1.9l-1.5,5.6l0.4,5.3l-0.2,1.3l-1.5,1.3l-1.3-1.1l-3.8-0.6l-1.1,2.1l-0.4,4.5
		l-1.5,1.1l-1.7-0.4l-1.9,4.3l-1.1,4.1l-2.3,2.8l-2.1-0.2l-0.9,3.2l-1.9,2.4l-2.3-0.2l-3.2-1.9l-1.7,0.2l-2.4,3l-0.6,3.4l-1.3,0.4
		h-1.9l-0.8,2.8l0.6,3.2l3.8-0.2l0.9,2.4l-0.4,3.8v3.4l-1.7,1.5l-2.6-1.7h-1.1l0.2,1.3v1.9l-2.4,4.1l-1.5,0.2l-3.2-1.3l-0.8,1.3
		l1.1,3l1.1,3.6l-0.9,2.1l-0.9,1.7l-0.6,2.4l-1.9,3l-4.7,4.3c0,0-1.5-0.2-1.7-0.2s-3.6-1.1-3.6-1.1l-1.1,0.6v2.6l-3.4,0.2L233,356
		l-0.4,1.7l-1.5,0.9l-1.5-0.9l-0.2-1.7l-3.2,0.2h-2.1l-1.3,0.8h-4l-1.3,1.5l-0.8,2.6l-3,3.6l-1.7,3.6l-0.6,3l-1.7,1.7l-12,7.7
		l-3-1.5l-3.4-0.8h-1.7l-2.1-2.1l-0.8,1.3l1.9,1.9v0.9l-4.3-0.4l-3.6,0.6l-3.6,0.4l-1.3,3.4l-1.3,1.5l-2.1-1.1l0.9-15.4l1.9-2.3
		l-0.6-2.8l2.1-6.6l-2.1,0.2l-2.1-8.7l-4-2.1l-0.4-2.1l2.8-2.4l-0.6-4.9l0.9-3.2l2.8-2.1l-0.8-3.2l3.2-1.3l1.5,0.4l2.4-0.4l0.4-1.9
		h-1.5l-1.5-1.5l-0.8-5.3l-2.8-0.2l-2.6-1.9l-3-0.4l0.9-1.9l3-2.3l3.2-5.1l-0.2-4.1l-2.4-2.1l-7.2,1.1l-3.8,0.2l-1.5,2.6l1.7,3.2
		v3.6l-2.4,3.2l-4.5,1.3l-4.1,3.4l-2.1-0.4l-0.4-5.1l-2.4-1.5l-2.4,1.3l-0.6,3.4l-1.7,0.2l-1.3-2.6l-2.8-0.2l-3.6-3.2l-1.5,0.6
		l0.2,2.3l-2.3,1.3l-3.8,3.8L125,320l-4.1-5.8l-3.2-3.6l0.8-2.8l4.5-4l1.1-6.6l-1.3-1.3l0.2-3.2l-2.6-4.7l1.3-1.3l6.2,1.9l4-6.4
		l0.6-3l-2.6-6.6L131.8,266.6z"/>
	<g>
		<text transform="matrix(1 0 0 1 208.8438 229.6494)" class="st1 st2">Gurudaspur</text>
	</g>
	<g>
		<text transform="matrix(1 0 0 1 186.5625 308.5273)" class="st1 st2">Baraigram</text>
	</g>
	<g>
		<circle class="st3" cx="190.4" cy="279.8" r="13.4"/>
		<text transform="matrix(1 0 0 1 184.4581 287.0736)" class="st1 st4">4</text>
	</g>
</g>
<g id="natore-1">
	<g>
		<polygon class="st6" points="6.2,248.3 11.3,252.3 14.7,246 17.9,246.8 17.5,250.4 27.8,253.6 30.3,251.7 30.7,249.4 34.8,248.5 
			35,246.6 36.9,246.4 38,247.9 41.4,247.9 45.3,241.3 47,241.5 47,246.6 49.3,244.9 54.2,244.7 58.7,247.9 62.7,247 63.4,241.5 
			65.7,238.1 69.6,238.5 69.4,241.9 74,242.5 81.1,235.9 86.2,236.4 86.4,238.5 84.9,241.3 87.5,242.8 90.7,240.6 93.7,239.5 
			94.5,241 92,242.5 95,244 96.2,246.2 99.6,247.7 101.1,250.8 109.5,255.1 116.5,258.7 119.9,259.6 123.5,258.5 126.1,261.7 
			127.6,264.5 130.8,265.6 131.9,266.6 129.7,272.6 132.3,279.2 131.8,282.2 127.8,288.8 121.6,286.7 120.3,288 122.9,292.7 
			122.9,296.1 116.1,298 112.4,301.8 110.1,305.3 105.4,305 96.7,302.9 91.5,301.2 85.3,294.8 83,289 78.7,287.8 70,289.7 
			70.6,292.7 67.9,296.3 62.3,296.1 61.7,300.8 63.8,302.1 65.5,305.7 64.9,309.9 61.5,317 60.6,320.2 53.8,319.7 51.9,315.5 
			48.9,314.6 46.9,311.7 42.5,310.4 41,303.8 38.2,302 39.7,293.7 39.5,287.8 32.5,286.3 27.8,285.8 23.9,287.5 22,284.6 
			21.1,275.4 16.7,270.9 13.2,271.7 10.3,273.7 11.3,279.6 10.3,279.9 6.8,279.6 7.5,274.9 4.5,272.4 2,268.6 2.8,263 4.7,263.2 
			4.5,259.4 2.2,254.3 2.6,249.8 		"/>
		<path class="st6" d="M122.7,295.9l1.3,1.5l-1.1,6.2l-4.5,4.1l-0.8,2.8l3.2,3.6l3,4.3l1.1,1.5l2.1-0.2l3.8-3.8l2.3-1.1l-0.2-2.4
			l1.5-0.6l3.6,3.2l2.8,0.2l1.3,2.6l1.7-0.2l0.6-3.4l2.4-1.3l2.4,1.5l0.4,5.1l2.1,0.4l4.1-3.4l4.5-1.3l2.4-3.2v-3.6l-1.7-3.2
			l1.5-2.6l3.8-0.2l7.2-1.1l2.4,2.1l0.2,4.1l-3.4,5.1l-3,2.3l-0.8,1.9l3,0.4l2.6,1.9l2.8,0.2l0.8,5.3l1.3,1.5h1.7l-0.4,1.9l-2.4,0.4
			l-1.7-0.4l-3,1.3l0.2,1.1l0.6,2.1l-2.8,2.1l-0.9,3.2l0.6,4.9l-2.8,2.4l0.4,2.1l4,2.1l1.9,8.7l2.3-0.2l-2.1,6.6l0.6,2.8l-1.9,2.3
			l-0.8,15.4l-3.8,2.6l-2.6-1.1l-2.1,0.6l-2.1-1.3l-1.1-3.2L157,381l-2.1,0.8l-3.8-1.5l-5.5-0.2l-2.8,1.5l-1.3-1.9v-6l-1.5-1.5
			l-1.9,0.2l-2.3,2.6l-5.1,2.1l-0.6,4.5l1.1,4.5l4.1,1.9l2.4,2.4v3l-1.5,1.3v2.3l1.1,0.9l-0.9,1.7h-4.1l-4.7-1.7l-3.8-6.4l-0.2-6
			l0.4-4.5l-3.8-3.2l-2.4,1.5l-3.2,4.5l-3.8,0.9l-3.6-0.4l-4.9,2.6l-1.9,1.1l2.6,1.9l3.4,2.1h5.5l0.9,1.1l-0.9,0.8l-5.8,0.2h-5.5
			l-0.9,0.9l0.6,0.9h5.1l5.6-0.8l2.3,0.9l-1.1,2.6l-2.1,0.8l-3.8-2.1l-1.9,0.4l4,4l1.3,6.2l-2.1,6.6l-1.1,0.9l-7-2.3l-3.2-1.3
			L76.2,411l-7-1.7l-8.8-4.9l-4.9,5.1l-2.8,1.9l-4.5-0.4l0.8-2.8l0.4-1.9l2.1-1.7l-0.6-1.9l-1.9,0.2l-7.2,3.2c0,0-1.3,1.7-1.1,1.7
			s2.8,0.8,2.8,0.8l0.2,5.1l-1.1,1.9L26,423.4l-1.1-1.3l-5.5,3l-1.3-0.9l6.4-5.1l0.2-3.8l-0.9-1.9l-4.7,1.5l-2.8,0.8
			c0,0-2.6,0-2.6-0.2s-1.7,2.3-1.7,2.3l-1.3-0.8v-2.1l-2.1-0.6l-0.2-1.5l3.6-0.6l0.8-2.8l2.4-4l2.1-2.6l3.4,0.6c0,0,1.7,0.9,1.9,0.9
			c0.2,0,2.6-1.7,2.6-1.7l3.4-10.5l1.9-1.7l3.8-0.2l3.2-0.6l-0.4-1.9l-2.3,0.6h-4.1l-0.6-1.7l1.7-0.2l0.2-4.7l-1.3-0.8l-5.3,1.3
			l-3.2,0.2l0.4-2.3l-3.8-0.8l-3.4,0.6l-2.1,0.9l-3.8-2.3l1.7-4l2.4-1.3l1.9-0.6l1.9-1.5l0.9-3.8l-4.9-1.5v-1.7l1.3-1.7l3,0.4
			l1.3-1.5l1.3-5.1l-0.6-3.4l-3.2-0.9l-0.4-1.5l0.6-1.9l-2.1-0.4l0.6-1.9l2.3-0.2l1.1-2.4l0.4-2.4l-2.4-0.2l-0.2-6.6l2.1-1.1
			l0.9-3.2l0.2-2.3h2.6l-0.2,2.4l-0.8,4.3l0.6,0.8h1.3l0.9-2.8l1.3,0.9l0.8,1.9l2.4-1.1l1.3-2.4h4l2.4-1.3l-0.9-3.2v-3l1.1-0.6
			l1.3,1.3l2.1,1.7l3.6-0.8v-2.6l2.6-0.6c0,0,1.1-0.6,1.1-1.3c0-0.8-0.4-4.3-0.4-4.3l1.7-3.2l3.4,1.3l1.9,4.1l6.8,0.6l0.9-3.2
			l3.4-7.2l0.6-4.1l-1.9-3.8l-1.9-1.1l0.6-4.7l5.6,0.2l2.6-3.6l-0.6-3l8.7-1.9L83,289l2.3,5.8l6.2,6.4l5.1,1.7l8.8,2.1l4.5,0.4
			l2.4-3.6l3.8-3.8L122.7,295.9z"/>
		<g>
			<text transform="matrix(1 0 0 1 47.3062 271.7764)" class="st1 st2">Bagatipara</text>
		</g>
		<g>
			<text transform="matrix(1 0 0 1 99.7119 358.3066)" class="st1 st2">Lalpur</text>
		</g>
	</g>
	<g>
		<circle class="st3" cx="84.4" cy="333.8" r="13.4"/>
		<text transform="matrix(1 0 0 1 78.4581 341.0736)" class="st1 st4">1</text>
	</g>
</g>
<g id="natore-2">
	<path class="st7" d="M6.6,248.9l1.7-3.4l0.8-4.7l3.8-2.6l-0.2-3.2l2.6,0.6l2.1,3.2l0.9-0.4l0.2-1.5l1.3,2.4l0.8-0.4l-0.2-1.9
		l3.8-1.7l0.9-0.8l1.9,0.8l0.8,1.5h1.1l0.2-2.1l3.4-0.6v1.9l1.5-0.4l0.4-6.4l1.1-4.5l-0.2-1.3l-3.8-2.3v-0.9l2.4-3.8l0.8-3.8l2.1-4
		l0.6-3l2.3-1.3l0.2-1.1l-1.3-1.3l-1.7,0.4l-0.2-1.1l3.2-7l-1.1-2.4l-1.5-1.7l0.6-4l-0.6-1.5l0.4-2.1l-1.5-0.9l0.6-2.1l3-4.7v-1.3
		l-4-2.8l-1.9-1.9l0.9-2.3l1.1-0.8H37l1.3-2.3l-1.9-2.6l-0.6-2.3l0.2-1.9l-2.4-0.8l0.2-1.7l1.7-1.7l0.4-4.9l2.4-1.1l1.3,1.5h1.1
		l0.8-4.9l0.9-3.6l1.9-1.3l0.8,0.9l0.4,1.9l0.8-0.4l0.4-2.1l1.3-1.5l-0.4-2.1l1.3-1.7l2.8-0.4l1.9,2.1l1.9,0.4l0.6-0.9l-1.7-0.9
		l0.9-3l0.8-1.7l1.3-1.7l0.2-2.8l-2.1-0.9l-1.5,0.6l-2.6,2.8H48l-3.4-0.2l-6.4,2.8l-1.5-0.8l1.9-3.4v-2.3l-2.4-1.9l-4.1,0.9
		l-2.3,1.5l-2.4-0.6l-0.2-2.4l2.3-1.3l-0.8-3l1.7-0.8c0,0-0.2-2.3,0-2.4c0.2-0.2,1.1-1.1,1.1-1.1l0.8,0.6v3l3-0.4l1.7,0.6l1.5,1.9
		l1.3-0.9l-2.8-4l1.5-3.8l4.7-0.8h2.6l3.8-3.4l2.8,0.2l2.3-2.3l2.6,1.3l4.1,3.2l2.3-0.2l0.8,2.1l4.7-0.2l0.8-1.9l1.5-4.7l1.5-0.6
		l6.4-0.6l2.6-2.4l0.6-11.7c0,0-1.1-1.9-1.3-2.1c-0.2-0.2,0.8-6.2,0.8-6.2l0.9-1.9l3.4,0.4l2.8-0.8l2.1,2.4l3.8,0.9l4.1,3.6l1.9,1.9
		l5.8,1.7l6.2,2.1l1.7,2.8l-0.4,2.3l-4,1.5l-0.2,1.3l3,3l4.1,1.5l1.7-0.6l0.8-3.2l1.7-1.9l3.6-0.2l2.6,1.5l1.9,4.7l0.2,1.7v0.8
		l2.1,0.8l3.4,1.1l4.7,6l3.6,0.6l1.7-3.2l2.4,0.6l0.4,3l-4.5,4.3l0.9,0.9l4-0.4l0.2,2.3l-1.7,1.3l-4.1,1.3l0.6,5.1l1.3,2.4l-0.8,3.2
		l-4.5,2.3l0.2,2.6l2.8,4.9l-1.9,3.6l-3.6,2.8l-0.6,2.1l0.8,4l-4.5,2.8l-0.9,1.7l7.7,6.2L138,170l1.1,0.8l3.4-0.6l2.6,0.6l2.4,4.7
		l-1.3,3.2l-4.7,1.7l-1.7,2.4l0.9,5.1l1.7,2.3l1.5-0.2l0.6-2.3v-3l4-2.8l2.8-1.3l2.4,0.9l1.9,3.4l-0.6,3l-1.9,3.2l2.4,7.2l-2.8,2.1
		l-0.6,2.1l2.3,3.6l2.1-0.4l1.5-2.4l0.6-2.6l2.1-2.6l0.6-2.4l1.9,0.2v2.4l0.9,3.2h1.1l1.5-1.9l2.6,1.7h2.4l2.6,0.9l0.4,2.8l-2.3-0.6
		l-1.1,1.1l-0.4,4.3l1.5,1.7l0.6,1.3l-1,1.2l-3-1.1l-1.1,0.4l-0.9,2.4l-3,0.4l0.2,1.1l3.6,1.7l-1.1,3l0.2,1.9l-0.6,1.3l-8.1,2.6
		l0.6,1.3l2.1,2.3l-0.8,2.8l-4,2.3l-1.1,2.8l-2.1,0.8h-2.3l-0.9,0.8l0.8,2.4l2.6,1.1l2.8-1.1l1.3,2.1l-2.3,2.4l-4,1.5l-2.3-2.1
		l-1.9-0.2l-3,1.3l-0.2,3.6l-2.3-0.4h-1.7l-4.7,3.6l-1.1,1.7l0.2,8.3l-2.3,1.3l-0.9-0.8l-3.4-1.1l-1.3-3l-2.8-2.8l-3.2,0.9l-3.6-0.9
		l-15.4-7.9l-1.5-3l-3.4-1.5L95,244l-3-1.5l2.3-1.5l-0.6-1.5l-3,1.1l-3.2,2.3l-2.6-1.5l1.5-2.6l-0.2-2.3l-5.1-0.6l-7.2,6.4l-4.3-0.4
		v-3.6l-4-0.2l-2.3,3.2l-0.4,5.5l-4.5,1.3l-4.5-3.6l-4.9,0.4l-2.1,1.7v-5.3h-1.7l-3.8,6.8l-3.8-0.2l-0.9-1.5l-2.1,0.2v1.9l-4,0.9
		l-0.6,2.3l-2.3,1.9l-10.5-3.2l0.4-3.6l-3-0.8l-3.6,6.2L6.6,248.9"/>
	<g>
		<text transform="matrix(1 0 0 1 81.1519 204.6113)" class="st1 st2">Natore</text>
	</g>
	<polyline class="st8" points="53.2,124.2 57.9,119.4 66.1,123.5 67.5,128.9 74.3,130.3 79.7,133 83.8,134.4 92,135.8 97.5,141.2 
		100.2,143.9 107,143.9 108.4,138.5 112.5,126.2 112.5,116.7 113.8,107.1 114.5,101 	"/>
	<g>
		<text transform="matrix(1 0 0 1 72.521 124.2793)" class="st1 st2">Naldanga</text>
	</g>
	<g>
		<circle class="st3" cx="82.4" cy="174.8" r="13.4"/>
		<text transform="matrix(1 0 0 1 76.4581 182.0736)" class="st1 st4">2</text>
	</g>
</g>
</svg>
