<?xml version="1.0" encoding="utf-8"?>
<!-- Generator: Adobe Illustrator 25.2.1, SVG Export Plug-In . SVG Version: 6.00 Build 0)  -->
<svg version="1.1" id="Layer_1" xmlns="http://www.w3.org/2000/svg" xmlns:xlink="http://www.w3.org/1999/xlink" x="0px" y="0px"
	 viewBox="0 0 359 466" style="enable-background:new 0 0 359 466;" xml:space="preserve">
<style type="text/css">
	.st0{fill:#ABBEED;stroke:#FFFFFF;stroke-width:0.5;stroke-miterlimit:10;}
	.st1{font-family:'TimesNewRomanPSMT';}
	.st2{font-size:16px;}
	.st3{fill:#FFFFFF;}
	.st4{font-size:24.672px;}
	.st5{fill:#8BAFE8;stroke:#FFFFFF;stroke-width:0.5;stroke-miterlimit:10;}
</style>
<g id="Joypurhat_1">
	<path class="st0" d="M98.4,250.4l-3.5-1.6h-1.8l-1.8-0.7l-1.9,0.3l-6.3-1.6l-1.6,2l-1.3,3.3l-1.8-0.1v-1.6l-1.6-1.3l-2.6,0.4
		l-1.7-1.3l-3.3-0.2l-2.1-4.2l-0.4-2.6l-1.5-0.9l-1.4,1.3l-5.6-1.3l-2.5,0.3l-3.7,0.3l-1.9-1.1l-2.8,0.2l-2.3,2.5l-2.9-1.2l-3.5-0.8
		l-2.2,0.8l0.1,1.3l1.4,2.1l0.4,3.5l2.1,0.7l-2,2.1l-0.3,3.4l-1.3,1.4l-1.3,2l0.6,3.9l2.4,1.6l1.3,2l-0.4,2.2l-0.8,1.8l-2.1-0.3
		l-0.2-1.5l-0.5-1.6L33,263l-0.2-1.7l0.6-2.6l-1.6-1.4l-4.8,0.2l-1.4-1.3l-0.9-1.5l1.5-2.2l0.5-3.4l1.7-4l-0.6-4.9l-0.4-2.1
		l-1.2-0.2l-1.8,0.9l-2.5-1l-2.6-4.2l-1.4-2l-0.7-2.7l-1.4-3l-1-3.7l-0.3-3.3l2.3-4.9l1.5-4.5l1.5-3.9l1.2-4.4l1.8-3.9l1.6-3.5
		l-1-10.3l-0.1-5.5l1.2-3.2l-0.7-2.1l-2.5-1.2l-2.2-3.3l-7.6-5.4L7.6,159l-1.1-1.6l0.6-1.7L9,153l0.3-2.7l1.4-1l1.8,0.2l1.1-1.8
		l-1.7-2.5l-3.6-1.6l-3.6-0.3l-1-1.6l1.3-1.4l4-4.2l0.6-5.2L9,127.1l-1.6-4.7l1-5.4l1.7-3.1l3.1-3.2l3.4-4.5l1.9-1.2l2.2,0.4
		l2.9,2.8l1.5,4.4l1.2,1.1l1.9-0.7l1.6-2.2l2.7-0.2l0.3-1.5l0.6-3l-1.3-1.6l-2.5,0.2l-1.4-1.1L28,102l1.4-0.7l1.6-1.5l0.3-2.6l0.2-4
		L31,91.4l-2.1,0.2l-2.5,1.9l-3.2-0.7L21.4,90l-2.8-2.6l0.2-2.6l1.8-1.4l0.9-1.7L21.1,79l-0.2-3.6l0.4-2.3l1.2-0.3l2.8,2.4l2.2,1
		l1.1,1.7l-0.4,1.6l-1.6,0.6L26,80.9l-0.3,1.9l0.8,1.4l1.5,0.5l2.7,0.6l4.5,1.4l2.8,0.1l4.4,1.3l5.8,0.2l0.9,2.1l-0.2,2L48.2,95
		l1.5,4.1l1.2,1.2h1.6l0.5,0.9l2.3,0.1l1.4,0.6l2.2-0.8l2.2-2.5l2.3-0.9l0.7,2l-1.9,3.4l-2.5,4.7v3.1l-0.3,2.1l-0.4,2.5l1.7,2.8
		l1.2,0.2l3.1-0.7l2.2-0.1l0.9,1.5L67,122l-0.3,2.6l2.8,0.5l2.5-0.3l1.7-1.1l1,1l-0.3,1.6l0.6,1.8l-0.1,4.1l0.8,1.6l0.2,2.3l0.7,2.9
		l1.2,3.6l0.3,3.4l-1.1,2.9l-2.7,4.5l-0.4,2.3l1.8,2l2.7,0.4l1.4-1l0.3-1.9l0.9-0.7l1.5,1.5l1.7,0.1l1.5,1.9l1.7-1.3l2.8,1.5l5,0.5
		l3,0.3l3.6-1.9l0.5-3.4l-0.3-1.8l-1.8-1.3l-0.1-1.2l-1.6-0.8c0,0-0.7-2.5-0.7-2.6l1.8-2.5l1.3-1.6l-0.2-1.1l-1.9-0.1v-1.2l2.3-1.4
		l2.9-1.3l1.1-1.6l-0.4-3.2l-0.7-1.5l0.1-1.5l2.4-0.5l1.5,0.4l1.3-0.9l-0.2-1.8l0.2-0.7l1.2,0.2l1.4,1.8h2l2.1,0.6l0.6,2.6l3.1,0.6
		l2,1.4l4.6,0.3l4.4,0.4l6.1-0.4l1.7,1.3l3.6,1l6.6,0.5l3.7-1.7l0.5-1.5l2.5-1.1l6.6,0.1l0.5,0.9l-0.5,2.4l0.8,1.2
		c0,0,1.6,0.9,1.6,0.8c0-0.1,1.1-2.8,1.1-2.8l0.8-1.9l0.3-0.6l1.6,0.8l-0.2,3.1l-0.8,1.8l1,1.2l3.8,0.6l5.3,0.6l1.6,1.3l-1.5,2.4
		l-0.5,2l-2.4,1.7l-0.5,2l-0.6,1.3l1.1,1.8l-0.1,1.4l1.9,1l2.2,0.1l1.8-1.4l1.8,0.9l0.8,0.4l0.1,2.2l1.1,0.4l0.6-1.1l-1-3.2l0.2-1.1
		l2.9-0.4l3.3-1.3l3.4-1.1l2.5-2.1v-1.3l0.6-2.2l1.6-1l1.2,0.5l0.2,1.5l-0.6,1.9l0.2,1l1.9-0.2l2.3-0.3l3.3,1l1.8-0.5l0.5-3.3l1-1.5
		l1-1.6l2.6-1.1l2.3,1.2l2.1,4.4l4,3.3l3.1,0.8l2.1-1.3l0.6-1.8l1.7-0.1l2.2,0.9l3.8,1.2l1.2,0.3l1.7,1.1l0.7,1.6l2.4,0.6l0.6,0.2
		l-1.6,1.4l-2,0.9L238,155l-2.2,1.5l0.4,1.3h3.7l6.1-0.3l1.9-2.8l2.6,0.4l0.7,2.3l-1,3.1l-5.4,3.6l-2.1-1.6l-1-2.2l-3.3,2l-1.2,3.2
		l-3.5,0.9l-1.4,1.8l0.4,2.7h-2l-1.5-2.7l-1-2.7l-1.4-0.6l-1.5,1.9l-2.6,1.9v4.4l-1.3,1.2l-8.3-0.2l-1.9,1.1l-2.4,5.8l-4.2,1.8
		l-1.8,1.9l-0.1,2.7l-1.6,1.9l-0.6,2l1.1,2.1l-0.5,1l-2.6,1.6l-0.3,1.3l1.7,2.1l-0.3,3l-2,5.2l-1.6,2.7l-2.6-0.5l-1.9,1.1l0.1,0.9
		l-1.2-0.2l-1.2-1.5l-2.3,2l-2.5,1l-2.7-0.2l-2,1.6l-2.9,0.8l-1,0.8l0.6,0.8l2.8,1.1l0.6,1.6l-1,0.9l-2.9,0.2l-1.7-0.8l-1.2,0.6
		l-0.2,3.1l-2.7,4.7l-1.1,0.4l0.4,2.7l-0.1,2.1l-2.2,1.1l-0.4,1.4l-2.7,2l-0.5,1.7l0.1,2.7l-1.1,1.4l-2.3,0.1l-3,3.2l-1,3.9
		l-0.2,4.3l-2.1,2.6l-1.4,3.2l-1.9,1.6h-4.5l-2.8-1.8l-5.1-1.6l-8.3-0.3l-1.6,1.8l-0.1,2.8l-1.9,1.6l0.1,2.1L125,269l-2.7-0.5h-1.8
		v1.5l1.6,0.9l0.9,4.1l-1.4,2.1l-2.3,1.2l-3.8-5.2l-4.2-7l-1.8-3.6h-1.3l-0.3-0.8l1-1.7l0.1-1.8l-2.7-3l-4.4-2.2l-2.3-2.6
		L98.4,250.4z"/>
	<path class="st0" d="M28.7,77.7l5.1,0.1h6.9l4.7-2.2l1.7,0.5l0.5-1.8l-2.2-3.1c0,0-1.5-1.9-1.5-2.4S43,61,43,61l-0.2-2l-2.7-1.7
		L37.9,54l0.1-4.5l2.1-3.2l-1.7-2.6L36.7,42l-0.2-1.9l-1-1.7l1.6-4.2l2.6-2.8l-1-3.3l2.1-1.6l2.9,0.6l2.1-1.8l2.9-0.2l5.8-3.3l3.7-2
		l1.5-3.3l3,0.4l2.6-2.8L65.1,12l2.4-2.9l2.1-4.2L74,4.1l1.2,3.2l1.9,2.3l4.5,0.7h6.2l4,0.5l-1.3,3.4l0.5,2.2l1.3-0.3l0.6-3.4l1-1.4
		l3.7,0.7h3.5l1,2.8l2.5-0.2l2.1-2.3l1.2-3l4.3-0.2l0.6-2.9l-1.5-3.3l1-0.8l2,1.7l1.9-1l2.6,1l4.2,0.6v1l-3.1,0.3l1.3,2l3.2-0.7
		l0.8,1.2v2.1l3.3,2.6l3,0.7l-1.3-2.1l0.6-1l2.7,2.3l3.6,3.6l2.1-0.2l2-0.7l0.6,1.7l0.2,2.5l1.8,1.1l3.2-1l3.6-2.3l1.1-2.7l-2-2.2
		l0.9-1.7l0.2-1.7l3.5-1.2l1.2,1.1l0.4,2.6l2.8,1.2l2.6,3.7l2-0.1l2.6,5.8l2.5,2.8l1.8,3.2l3.7,0.9l2.9,0.2l-0.5,1.3l2,0.1l1.3,3.1
		l0.3,2.4l2.9,4.5l1,0.1c0.1,0,0-2.5,0-2.5l1.8-0.2l4.4,1.9l2.2-1.1l1.6-3.3h3.2l3.1,2.2l1.5-0.3l-0.2-4.2l0.5-1.5l1.9-2.2l-0.2-2.4
		l0.7-1.8l2.4-0.4l1,5.2l5.4,4.2l6.1-1.1l4.7-1.3l1.2-2.6l-0.9-3.6l-0.3-2l-1.4-1.1l0.3-1l2.4,0.2l4,0.4l1.6-0.9l0.9-0.3l0.8,1.1
		l2.4,0.5l0.4,1.4l1.2,1.4l2.3,0.7l3.1-0.1l1.5,1.6l1,1.9l-2.1,1.1l-2.6,1.6l-0.5,1.7l1,0.3l1.4-1.3l1.3,0.3l0.6,1.3l2.5-0.1h2
		l0.1,4.2l2.2,2.8l3-0.9l2.1-0.2l0.5,1.6l-0.9,1.5l1.4,2.5c0,0,1.2-0.2,1.2-0.3s1-2.1,1-2.1l1.3,0.3l0.5,1.7l2.2,0.6l0.5-1.1
		l0.1-1.6l3.2-0.8l2.8-1.6l0.9-1.9l-0.5-2.7l1.9-1.2L274,36l1.1,1.5l0.3,2.8l-0.4,2.9l0.8,2.3l2.4,2.8l2.2,0.7l3.2-0.2l0.9-1.7
		l0.8,0.2l0.6,3l0.4,1.7l-2.1,1.9l-3.6-0.6l-0.4,2.6l0.1,2.6l-1.5,1.2l-1.7,0.2l-0.8,1.6l-1,0.9l-0.6,2l-2.8,2.2l-0.8,1.1l0.2,1.2
		L272,70l0.2,2.3l0.5,2.7l-0.1,1.9l-1.3,0.8l-1.3,0.2l0.3,1.9l0.3,1.5l1.7,1.1l-0.2,2l0.6,1.9l-0.3,2.1l-1.2,3l-2.9,1.8l-2.7,1.5
		l-0.9,1.5l-1.6-0.1l0.3,3l1.7,0.9l4.2,0.3l3.4-0.3l1.7,0.3l1.4,1.9l-0.8,2.2l-0.4,2.4l0.9,0.4l-1,1.6l-2.9,0.6l-2,1.4l1.1,2.9
		l-1.7,3.9l-0.8,1.4l-4.7,0.9l-1.6,1.6l-3.2,0.2l-1.8,0.8l-2.9-1.4l-2.5-0.9l-2.3,0.9l-0.5,3l0.6,6.1l1,1.3l-1.9,4.4l0.2,3.2
		l-0.1,2.1l-0.8,1.5l-0.9-0.7l-1.7-2.4l-0.9-0.2L243,140l0.6,1.9l2.1,3l0.9,3.3l-1.3,2l-2.6,0.3l-0.7,0.8l-2.8-0.8l-0.6-1.7
		l-1.8-1.1l-4.7-1.4l-2.3-1l-1.7,0.1l-0.6,1.8l-2,1.2l-3.1-0.8l-4-3.3l-2.1-4.4l-2.3-1.2l-2.5,1.2l-2,3.1l-0.5,3.2l-1.8,0.6l-3.2-1
		l-4.3,0.5l-0.2-0.9l0.7-2l-0.2-1.6l-1.2-0.4l-1.5,1l-0.7,2.2v1.4l-2.4,2l-6.8,2.5l-2.8,0.3l-0.3,1.1l1,3.2l-0.5,1.1l-1.1-0.4
		l-0.1-2.3l-2.6-1.2l-1.7,1.3l-2.3-0.1l-1.8-1.1v-1.5l-1.1-1.7l0.6-1.3l0.6-2l2.3-1.7l0.5-2l1.5-2.4l-1.6-1.3l-9-1.1l-1-1.2l0.8-1.8
		l0.2-3.1l-1.6-0.8l-0.3,0.6l-2,4.7l-1.6-0.7l-0.8-1.3l0.6-2.3l-0.6-1l-6.6-0.1l-2.4,1.1l-0.6,1.5l-3.6,1.7l-6.5-0.4l-3.7-1
		l-1.7-1.3l-6,0.4l-9.1-0.7l-2-1.4l-3.2-0.6l-0.5-2.6l-2-0.6h-2l-1.4-1.8l-1.2-0.3L110,125l0.2,1.9l-1.3,0.9l-1.5-0.4l-2.4,0.5
		l-0.1,1.4l0.7,1.5l0.3,3.1l-1.1,1.6l-2.9,1.3l-2.3,1.3l-0.1,1.3l1.9,0.1l0.2,1.1l-1.4,1.6l-1.9,2.5l0.7,2.6l1.6,0.8l0.1,1.1
		l1.8,1.4l0.3,1.8l-0.5,3.4l-3.6,2l-8-0.7l-2.9-1.5l-1.6,1.2l-1.5-1.9l-1.7-0.1l-1.5-1.5l-0.8,0.7l-0.4,1.8l-1.4,1.2l-2.7-0.4
		l-1.8-2l0.4-2.3l2.7-4.5l1.1-2.9l-0.3-3.4l-1.9-6.4l-0.1-2.4l-0.9-1.6l0.2-4.1l-0.7-1.9l0.3-1.6l-1-1l-1.7,1l-2.5,0.3l-2.8-0.4
		L67,122l0.9-2.8l-0.9-1.5l-2.2,0.2l-3,0.6l-1.2-0.1l-1.7-2.8l0.7-4.7v-3.1l4.4-8.2l-0.7-1.9L61,98.5l-2.3,2.5l-2.2,0.8l-1.4-0.6
		l-2.3-0.1l-0.5-0.9h-1.5L49.7,99l-1.4-4l0.5-2.5l0.2-2l-1-2.1l-5.7-0.2l-4.4-1.3L35,86.8l-4.4-1.5L28,84.7l-1.6-0.5l-0.8-1.4
		l0.4-1.9l0.7-1.1l1.6-0.6L28.7,77.7z"/>
	<g>
		<text transform="matrix(1 0 0 1 136.7432 72.7534)" class="st1 st2">Panchbibi</text>
	</g>
	<g>
		<text transform="matrix(1 0 0 1 86.9097 187.5313)" class="st1 st2">Joypurhat</text>
	</g>
	<g>
		<circle class="st3" cx="168.9" cy="96.9" r="13.4"/>
		<text transform="matrix(1 0 0 1 162.9297 104.2222)" class="st1 st4">1</text>
	</g>
</g>
<g id="Joypurhat-2">
	<polygon class="st5" points="71.8,450.9 72.7,444.6 74.7,441.6 72.3,438.3 70.4,435.6 70.5,430.7 75.4,428.4 77.2,428.4 78,426.3 
		81.4,423.5 81.4,419.9 84.2,417 85.9,412.3 87.8,410.6 88.2,408.1 87.4,406.8 85,406.6 84.7,403.7 83.5,401.2 83.7,397.4 83,396.8 
		80.8,396.6 80.7,390.7 82.1,388.5 84.2,377.9 85.4,371.9 85.7,366.6 86.2,364.7 85.8,363.5 82.8,363 82.7,361.9 84.4,359.8 84,358 
		81.1,357 81.2,355.7 81.5,353.6 81.5,349.2 82.2,347.7 84.4,348.5 84.3,346.5 87.2,345.4 87.4,341.6 85.9,337.9 86.7,333.3 
		86.4,331.7 82.9,329.8 82.3,326.5 83.4,323.2 89.2,323.5 92.1,323.2 93.3,319.9 93.8,314.9 93.6,310.7 91,308.6 90,306 89.8,299.2 
		90.7,298.7 93.1,298.6 92.9,294.7 91.3,294.4 90.3,292.8 91.7,289.7 93.7,288 96.1,289.3 97.4,288.9 97.1,285.8 97.8,283.4 
		96.5,282.9 96.5,281.4 97.7,281.2 99.1,281.8 100.3,280.9 100.2,279.2 95.9,278.6 94.4,279.5 91.4,278.8 91.9,277.4 93.5,276.6 
		94.5,274.4 95.5,274.5 97,275.4 99,275.1 99.8,273.2 101.4,272.1 101.6,270.7 100,269.5 98.2,270.7 97.1,270 97.4,267.5 
		97.3,265.9 96,265.8 94.8,266.5 92.4,265.2 92.3,262.2 94.2,258.7 97,256.3 97.7,252.2 98.4,250.3 99.6,250.4 101.9,253.1 
		106.2,255.2 108.9,258.2 108.8,260 107.9,261.7 108.2,262.4 109.5,262.4 111.4,266.1 115.5,272.8 119.9,278.8 125.8,284 
		127.9,285.7 128,287.7 126.5,291.7 126.4,293.4 127.2,295.2 126.3,298.3 126.9,300.1 125.6,302.3 125.4,303.8 126.4,304.3 
		130,303.1 131.9,304.5 132.2,306.3 128.9,309.2 126.9,311.6 127.7,312.8 130.6,311.7 131.8,310.2 134.7,310.2 136.9,308.8 
		138.7,306.8 141.1,306.4 141.4,307.9 139.7,310.4 137.8,313.1 138.8,314.5 137.7,315.6 137.8,317.1 143.1,320.9 145.8,321.6 
		148.2,320.6 149.8,320.8 152.6,321 155,321 156.2,324.7 157.3,327 161.1,326.6 168.6,326.2 177.2,326.4 181.3,326.4 182.7,327.7 
		182.5,333.6 180.7,336.6 180.2,340.9 177.6,341.7 170.7,341.3 168.9,341.7 168.3,343.6 170.8,346.8 172.8,349.4 172.7,357.1 
		174.9,357.7 175.7,360.2 175,363.2 171.1,363.9 169.2,366 168.7,369 166.8,369.9 164.3,369.9 164.4,372.5 165,374.9 163.2,377.2 
		163.8,381 165,382.5 166.6,382.8 166.8,388.2 168.4,393.1 170.2,394.5 171.5,395.1 172.2,401.4 172.4,403.7 174.3,404.1 
		176.9,403.7 178.1,404.1 177.7,405.9 176.9,408.6 175.4,411.2 175.6,415.4 174.9,417.6 173,418.4 172.1,420.9 169,421.7 
		165.7,420.5 161.8,416.5 159.7,416 157.8,418.1 156.2,420.5 153.8,422.2 153.8,424.4 155.4,425 158.3,425 159.5,427.4 159.7,430.8 
		161.5,432.2 165.5,432.9 167.8,433.5 167.9,435.6 166.3,436.8 160.7,436.6 157.7,438.1 156.1,440 154.8,441 151.1,440.2 
		149.3,438.5 148,439.1 145.2,437 143.3,437.1 142.5,440.6 141.6,441.9 137.7,442.3 136.4,444.2 136.2,447.1 133.9,449.8 
		131.2,449.7 129.8,447.1 128.8,444.9 127.2,445.8 126,447.4 125.2,446.3 124.7,445 122.2,446.5 119.3,446.6 119.5,449.3 
		118.4,451.2 116.7,451.2 115.7,453.4 113.5,453.9 109.6,454.6 107.6,454.5 104.1,453.3 101.8,453 100.3,454.9 98.5,456 97.7,458.6 
		97,461.1 94.6,461.4 94.1,459.8 93,460.9 91.3,460.3 91.9,456.2 92.1,454.3 89.4,450.9 88.2,451.9 85.9,452 82,453.9 76.9,452.9 	
		"/>
	<path class="st5" d="M182.2,333.8l3.2,0.1l2-0.5l1.5,1.4l0.4,3.2l3.6,1.2l0.8-2.4l2.4-0.4l1.6,1.9l2.5,2.7l1.2,2l3.1,0.5l0.5,3
		l0.6,2.2l-2.1,4.2l-2,2.2l1.9,1.5l1.5-0.2l0.1,1.4l2.3,0.4l1.8-1.9l26.2,0.2l9.7,0.4l5.4-1.4l4-1.1l1.5,1.2l0.8,4.5l2.2,4.2
		l2.9,3.8l2.8-0.4l0.2-2.1l-1.8-1.9l0.6-0.7l2.5,1.4l1.9-0.8c0,0,0.4-1.2,0.3-1.3c-0.1-0.1-4.4-1.4-4.4-1.4l-0.2-1.9l1.1-0.5l2.2,1
		l0.5-0.9l-1.1-2l-0.8-2.9l-0.6-3.3l-0.8-0.7l-2.2-0.8l-0.1-1l1.8-1.2l0.2-3.7l-1-1.4l-1.9,0.2l-0.3-2.1l-2.4,0.2l-1.2-1.7l1.7-2.3
		l-2.7-1.8v-2.3l2.8-0.3l-0.2-1.8l0.9-1l2.3-1.5v-2.4l-1.5-1.1h-1.9l-2.5-1h-3.3l-10-2.8l-2.5-0.5l-2.5,0.4l-0.4-4.3l0.6-3.5
		l3.3-0.6l1.5-2.3l3.2-0.4c0,0,1.6-1,1.6-1.1s1.6-3,1.6-3l-0.5-1.6l-5.9-0.1l0.2-5.6l-1-3.4l-2.4-1.9l-0.9-3.7v-4.2l-0.2-4.7l-0.5-3
		l-2-1.4l-6.1-0.7l-3.5-0.1l-2.2,0.9L221,274l-0.7-3.7l-0.4-4.2l-0.9-1.9l-0.2-3.9l-2.4-1.8l-4,1.1l-1.4-1.4l1.2-2.6L212,253
		l-2.7-0.3l-1-4.2l-0.7-1.9l0.7-1.1l2.3-1l-0.9-3.2l0.6-5.2l2.5-2l2.8,0.3c0,0,4.5,0.8,4.6,0.8s0.6-1.1,0.6-1.1l-1.9-2.3l0.4-1h8.2
		l2.9-0.2l1.9-3.1l-2.4-2.3l0.4-2v-3.4l1.6-0.7l4.6,1.3l1.6-1l-1.9-1.8l-0.2-1.8l2.4,0.1l3.8-2.1l-0.4-2.3l2.7-3.5l1.1-4.1l1.4-0.2
		l2,2.2l1.4-0.3l-0.1-1.1L249,203l1.5-1.4l2.1,0.8l2-0.7l2.5,0.3l-0.6-2.4l-1.5-3.5l1.6-3.8l-1.3-1.7l-2.3,1h-4.5l-4-2.4l-0.8-2.7
		l-0.1-1l-1.2,0.1l-0.6,3.6l-0.7,2l-2.8,0.5l-1.5-3.9l1-3.8l0.1-4.9l0.7-1.6l1.4-0.5c0,0-1.1-3.5-1.1-3.6s-0.8-5.4-0.8-5.4l-1.7-2.7
		l-3.6,0.9l-1.4,1.7l0.4,2.8l-2-0.1l-1.5-2.6l-1-2.8l-1.5-0.5l-1.5,2l-2.6,1.9v4.5l-1.3,1.2l-8.3-0.2l-1.9,1.1l-2.4,5.9l-4.2,1.8
		l-1.8,1.9l-0.1,2.9l-1.6,1.9l-0.6,1.9l1.1,2.2l-0.4,1l-2.7,1.6l-0.3,1.3l1.7,2.2l-0.3,3l-2,5.2l-1.6,2.7l-2.6-0.6l-1.9,1.1l0.1,1
		l-1.3-0.3l-1.2-1.5l-2.3,2.1l-2.4,1l-2.6-0.2l-2.1,1.6l-2.9,0.8l-1,0.8l0.6,0.8l2.7,1l0.6,1.7l-1,0.9l-2.9,0.2l-1.6-0.8l-1.2,0.6
		l-0.2,3.1l-2.7,4.7l-1.1,0.5l0.5,2.7l-0.1,2l-2.2,1l-0.4,1.4L164,238l-0.6,1.6l0.1,2.9l-1.1,1.3L160,244l-2.9,3.2l-1,3.9l-0.2,4.4
		l-2.1,2.4l-1.4,3.2l-1.8,1.6l-4.5-0.1l-2.7-1.8l-5.1-1.5l-4.5-0.3l-3.9-0.1l-1.6,1.8v2.8l-2,1.5l0.2,2.2L125,269l-2.8-0.6l-1.7,0.1
		v1.5l1.6,0.8l0.9,4.1l-1.4,2l-2.3,1.2l8.7,7.6l0.1,2l-1.5,4v1.7l0.7,1.7l-0.9,3.2l0.6,1.8l-1.3,2.2l-0.1,1.5l1.1,0.5l3.5-1.2l2,1.4
		l0.3,1.7l-3.2,3l-2.1,2.4l0.8,1.2l2.9-1l1.3-1.5h2.8l2.2-1.3l2-2l2.3-0.4l0.2,1.4l-3.5,5.3l1,1.4l-1.1,1.2l0.1,1.5l5.2,3.8l2.8,0.7
		l2.5-0.9l6.7,0.4l1.3,3.8l1,2.2l4-0.4l7.5-0.4l12.6,0.3l1.4,1.3l-0.1,5.5L182.2,333.8z"/>
	<path class="st5" d="M261.9,324.9l0.3-2.4l3.1-2.6l4.1,1.1l4.1-1l0.2-1.2l-2.3-1.7l0.2-1.8l-3.2-0.6l-0.3-1.2l1.5-3.1l-1.3-1.9
		l0.8-2.3l5.8-0.8l5.4,1.9l1.1-1v-3.7l-1.9-0.7l-2.5,0.4l-2-0.7l-0.2-1.4l1.6-0.5l3.5,0.7l1.1-1.8l0.6-2.3l1.9-2.8l2.7-1.1l0.2-4.1
		l1.6-2.9l3.5,0.3l2.2-2l1.4-4.7l1.1-2.4l-0.5-1.3l-3.2,0.2l-2-0.4l0.7-3.2l1.3-1.9l2.5,0.9l1.7,2.3l1.2,2.8l1.7,1.9l1.8-0.5
		l1.1-0.9l2,1.7l0.5,2.3l1.6,0.9l3.1-0.1l2.8-0.2l1.7-1.6v-2.7l1.8-2.8l3.2-2l0.5-3.7l-1.1-3.1l-0.2-4.6l2.6-4.4v-3.4l0.8-3.5
		l2.9-2.8l2.1,0.2l1-1.3l-1-1.8V239l-1.8-4.2l-1.3-2.9l0.6-1.5l1.8-0.6l1.5-1.6l1.6,0.8l1.4,0.3l2-2.2l2.5-3.5l2.9-3.2l8.6-7.6
		l3.8-2.5l1.1-2.5l1.8-0.4l0.4-2.5l1.4-2.5l1.1-1.1l-1.1-0.7l-2.7-0.7l-3.9-3.5l-1.6-1.6l-1.1-0.2l-2.1,2.2l-1.3-1.5l-2.5-0.6
		l-0.6-1.5l0.4-1.7l-0.9-0.5l-1.7,2l-1.2-1.4l-6.4-0.6l-0.8-1.3l-2.1-3.6l-0.1-2.5l-1.6-1.9l0.5-5.9l-0.2-3.5l-1.9-1.6l-3.1-3.8
		l-1.2-3.7l-1.3-1.3l-2.4-2.1l-1.6-4.3v-3.7l-0.7-2.4l-2.2-1.1l0.2-3.3l-1.3-2.3l-2.3-0.7l-2.1-0.2l-1.6,1.8l-1,0.5l-0.5-0.6
		l0.5-1.1l-1.9-1.4h-2.5l-1.7-0.2l-1.5-2.5l0.6-1.1l2.2,0.5l2.1-2l0.9-3.2v-1.9l1.1-1.1l0.1-1.9l-1.8-0.4l-2.1-0.6l-0.8-1.4l-1.2-1
		V121l-0.7-1.3l-0.9-0.1l-0.8,2.3l-1.5,0.7l-1.2-0.8l-0.3-2l-1.6-1.1l-0.9-1.1l-3.5,0.3l-0.7-1.3l-0.3-1.9H282l-2.3,0.5l-1.6-1.2
		l-1-2.7v-3.9l-2.1-0.1l-1.3,2l-2.8,0.6l-1.8,1.4l1.1,2.9l-1.7,4l-0.8,1.3l-4.8,0.9l-1.5,1.5l-3.3,0.3l-1.8,0.8l-3-1.5l-2.4-0.9
		l-2.3,1l-0.5,2.9l0.6,6.2l1.1,1.4l-2,4.4l0.2,3.2l-0.1,2l-0.9,1.5l-0.8-0.8l-1.7-2.4l-0.8-0.2l-1.3,0.6c0,0,0.6,2,0.7,2
		s2,2.9,2,2.9l0.9,3.4l-1.4,1.9l-2.7,0.3l-0.5,1.1l-1.3,1l-2.2,0.9l-0.1,1.1l-2.3,1.5l0.5,1.1l3.5,0.1c0,0,3-0.1,3.1-0.1
		s3.2-0.2,3.2-0.2l1.9-2.7l2.5,0.3l0.8,2.4l-1,3.1l-1.9,1.4l-3.6,2.2l-2-1.5l-1-2.2l-3.4,2l-1.2,3.4l1.6,2.5l0.9,5.4l1.1,3.7
		l-1.4,0.5l-0.7,1.6l-0.1,5l-1.1,3.8l1.5,3.9l2.7-0.4l0.8-2l0.6-3.6l1.1-0.2l0.2,0.9l0.9,2.7l3.8,2.4l4.5,0.1l2.3-1l1.3,1.7
		l-1.5,3.8l1.4,3.4l0.5,2.4L255,202l-2,0.8l-2.2-0.8l-1.5,1.4l1.3,1.5v1.1l-1.4,0.2l-2-2.2l-1.4,0.1l-1.1,4.1l-2.7,3.5l0.4,2.3
		l-3.8,2.2l-2.3-0.1l0.2,1.8l1.7,1.8l-1.4,1.1l-4.6-1.3l-1.6,0.7l-0.1,3.3l-0.3,2l2.3,2.2l-1.8,3.1l-3.1,0.3l-8.1-0.1l-0.4,0.9
		l1.9,2.3l-0.6,1l-4.7-0.8l-2.7-0.2l-2.4,2l-0.6,5.2l0.9,3.1l-2.3,1.1l-0.7,1l0.7,1.9l1,4.2l2.7,0.3l0.2,2.6l-1.2,2.5l1.4,1.5l4-1.1
		l2.3,1.7l0.3,3.9l0.9,1.9l0.3,4.1l0.7,3.7l3.1,1.1l2.3-0.8l3.4,0.1l6.2,0.7l2.1,1.6l0.3,3l0.2,4.4l0.1,4.3l0.8,3.8l2.5,1.8l0.9,3.3
		l-0.1,5.6l5.8,0.1l0.4,1.7l-1.6,3l-1.6,1.1l-3,0.5l-1.5,2.3L238,312l-0.5,3.3l0.3,4.4l2.7-0.4l12.2,3.3l3.4-0.1l2.6,1.1h2
		L261.9,324.9z"/>
	<g>
		<text transform="matrix(1 0 0 1 276.2324 201.418)" class="st1 st2">Kalai</text>
	</g>
	<g>
		<text transform="matrix(1 0 0 1 162.6807 289.0332)" class="st1 st2">Khetlal</text>
	</g>
	<g>
		<text transform="matrix(1 0 0 1 93.0879 358.166)" class="st1 st2">Akkelpur</text>
	</g>
	<g>
		<circle class="st3" cx="275.9" cy="243.9" r="13.4"/>
		<text transform="matrix(1 0 0 1 269.9297 251.2222)" class="st1 st4">2</text>
	</g>
</g>
</svg>
