<?xml version="1.0" encoding="utf-8"?>
<!-- Generator: Adobe Illustrator 25.2.1, SVG Export Plug-In . SVG Version: 6.00 Build 0)  -->
<svg version="1.1" id="dist-jhenaidah" xmlns="http://www.w3.org/2000/svg" xmlns:xlink="http://www.w3.org/1999/xlink" x="0px"
	 y="0px" viewBox="0 0 400 357" style="enable-background:new 0 0 400 357;" xml:space="preserve">
<style type="text/css">
	.st0{fill:#C5CFED;stroke:#FFFFFF;stroke-width:1.033;}
	.st1{font-family:'TimesNewRomanPSMT';}
	.st2{font-size:16px;}
	.st3{fill:#FFFFFF;}
	.st4{font-size:24.672px;}
	.st5{fill:#ABBEED;stroke:#FFFFFF;stroke-width:0.5;stroke-miterlimit:10;}
	.st6{fill:#9BB6EA;stroke:#FFFFFF;stroke-width:0.5;stroke-miterlimit:10;}
	.st7{fill:#8BAFE8;stroke:#FFFFFF;stroke-width:0.5;stroke-miterlimit:10;}
</style>
<g id="jhenaidha-1">
	<path class="st0" d="M245.6,68.4l4.2-5.3l3-1.2l1.7-1.9l-0.1-2.1l-3.1-3.8l-0.5-2.3l-1.9-2.4l0.8-1.2l-1.8-2.4l0.1-1.7l1-0.7v-3.5
		l3.2-2.7l5.1,0.5l4.8-0.4l1.5-2.4l3,0.8l0.4,1.8l7.2,0.5l0.9-4.9v-4.5l4.3-0.1l-0.7-2.9l4.2-0.3l0.2-3.5l3.4-0.1l0.7-1.4l4.1,1.5
		l1,1.2l5.8,1.1l4.4-3.2l1.2-2.5l2.5-0.1l0.3-2.3l1.4-1.6l3.7-0.6l4.6,2l1.3,1.2l1.6-0.5l0.3-2.4l2.7,0.1l0.4-0.7h1.6l0.2-2l2.3,0.9
		l1.9,0.1l5,5.8l0.2,1.9l1.9,2.4l1,2.8l2.2,1.3l3.7,0.4l4.2,3.2l10.4,0.3l3,0.4l4.3,4.3l0.5,1.2l-1.4,2.4l1.3,2.7l4.3,1.8l1.1,2.1
		l-1,4l1,2.9l2.8,1.4l2.6,4.1l4.4,3.2l4.7,2.8l0.8,1.9l-0.9,5l1.1,1.4l4.5-1.1l3.7,2l0.8,2.5l3.2-0.6l1.5,0.4l0.7,2.1l-2.5,3.4
		l-1.7,2.7l-1.2,3.6l-2.1-0.7l-1.7,3.5l-1.7,1.7h-1.3l1.6,2.2l0.1,1.6l-1.2,1.8l-0.2,4l-1.3,2l0.1,2.1l-1.3,0.5l0.3,1.2l-2-0.1
		l-0.9,6.9l-0.3,3.3l-1.4,1l-0.1,2l-1.8,2.7l2.5,1.3l0.2,4.7l-4.2,4.7l1.4,1.7l-0.9,0.7l-2-1l-1.1,0.7l-0.4,1.1l-3.9,0.6l-2.5-0.2
		l-2.8-1.9l-1.8-2.1l1.2-1.2l-0.7-0.8l-1.8,1.3l-3.2-2.5v-1.2l-1.6,0.4l-1-0.7l0.9-4.1l-4.7-0.3l-2.5-1.6l-0.7-1.9l-3.7,0.3
		l-3.4-1.9l-1.7,2.6l-1.8-0.1l-1,1.9l1.2,1.2l-0.3,1.3l1,0.9l-0.9,1.1l-3.7,0.4l-3,3.1l-4.3,0.3l-1.6-1l-1.7,1.8l-3.3-0.5l-2.4,1
		l-3.3-2l0.2-2.7l1.1-1.8l-0.4-1.9l-3-0.9l-1.4-1.3l-2-0.3l0.1-0.7l1.8-0.4v-0.9h-4.7l-1.4,1.8l-1.6-0.1l-0.6,0.8l-1.3-0.1l-0.1-2
		l-2-0.7l-1.7-2.1l-2.6-2l-3-0.4l-0.4,1.1l1.4,0.8l-0.1,1.3l-1.2,1.4l2.9,3.5l-0.6,1.1l-2.1-0.3l-2.2-3l-3.6,0.6l-2.6-1.8
		c0,0-1.9-0.6-1.9-0.7l-1.3-2.8l-2.1-1.6l2.3-4.4l-0.6-1.2l-2.3,0.4l-3-1.4l0.7-2.8l-1.1-0.7l-2.3,1.6l-0.9-0.5l-0.2-6.9l-4.1-3.2
		l-1.6-2.8l0.3-2.1l2.1-3.3l0.2-2.1L271,84l-1.1-1.2l-3.8,1.3l-3.4-0.4l-6.6-3.7l-0.5-3.3l-2.4-3.1l-4.3-0.1l-2.9-2.1L245.6,68.4z"
		/>
	<g>
		<text transform="matrix(1 0 0 1 291.5566 64.6366)" class="st1 st2">Shailkupa</text>
	</g>
	<g>
		<circle class="st3" cx="322.8" cy="88" r="13.4"/>
		<text transform="matrix(1 0 0 1 316.7918 95.2745)" class="st1 st4">1</text>
	</g>
</g>
<g id="jhenaidha-2">
	<path class="st5" d="M284.2,130.4l1.7-3.2l-0.3-1.9l1.4-1.3l0.1-1.8l-2.7-1.8l-1.9-0.6l-1.3-2.8l-2.1-1.6l2.3-4.4l-0.6-1.1
		l-2.3,0.3l-3-1.4l0.6-2.8l-1.1-0.6l-2.3,1.5l-0.9-0.5l-0.2-6.8l-4.2-3.2l-1.6-2.8l0.3-2.1l2.1-3.3l0.2-2.1L271,84l-1.1-1.1
		l-3.8,1.3l-3.5-0.4l-6.5-3.7l-0.5-3.3l-2.5-3.1h-4.3l-2.9-2.1l-0.4-3.2l4.2-5.3l3-1.2l1.7-1.9l-0.1-2.1l-3.1-3.7l-0.5-2.4l-1.9-2.3
		l0.8-1.2l-1.8-2.4l0.2-1.6l1-0.7v-3.5l3.2-2.7l-0.8-0.4v-1.9l1.3-1.5l-0.3-1.2L251,31l0.5-1.9l-0.8-1.1l-1.4,1l-2-0.6l-0.7,0.9
		l0.1,2.7l-1.7,0.1l-0.2,2l-0.9,0.6l-4.5-1.1l0.9-1.4v-1.6l-1.1-0.8l0.3-1.7l0.8-0.9l-0.9-1.4h-1.1l-0.7-3.1H236l-0.9,1.2l-1-0.2
		l-2.2-2.2l-0.1-1.3l-0.4-1.5l1.9-1.2v-1.4l-1.1,0.7l-1.9-1.3l-1.4,0.1l-0.4,1.3h-2.1l-1-0.6h-2.1v-1.5l1.8-1.3l-0.5-3.1l1.2-1.2
		L225,7.3L223,8l-0.7-1.3l-1.6,0.4l-0.4,1.1h-3.2l-0.7,0.9l-0.1,1.9l-2.2,2l-0.2,0.7l1.4,2l-1.2,1l0.7,0.9l2.3,0.3l-0.4,2.4l2,1.6v1
		l-1.2,0.6l1.9,1.4l0.2,1.8l-0.8,0.7l4.8,3.3l2.5-0.2l0.5,3.1l-0.7,0.5l-0.3,1.3l-1.5,0.2l-1.3-0.3l-1.5,2.6l-2.2-0.3l-0.9,0.8
		l-1.5-0.3l-2.2-1.7l-1.5,0.1l-0.9-2.5l-1.6-1.5l-1.2,0.7l-1.4-0.6l-2.1,2.5l-1.3,0.9l0.2,0.9l3,0.2l1.1,1.3h2.2l1.4,1.2l1.8,1.3
		l-1.9,2.1l-0.5,2.4l-1.7,1.3l-1.9,4.2l-1.3,2.8l-1.6,0.8l-3.3-0.4l-3.7-1.3l-3.7-4l-1.6-4.2l-3.4,1.5l0.2,1.9l-1.3,1.4l-0.1,4.1
		l-1,2.8l0.9,1.3l-0.8,4.7l0.9,1.7l-0.4,2.7l-0.9,0.5l-0.2,4.4l2.7,4.4l1.2,2.9l-0.1,1.1l-2.5,4.4l0.9,3L188,88l-1.6-1.3l-0.7,1.1
		l2.5,2.7l1,4.6v2.4l-2.4,3.2l-1,6.2l-0.3,4l-1.7,1.3l-1.8,3.6l-4.7,2l-1.7,3.3l-2.3,3.4l-0.5,2.8l0.7,1.9c0,0,2.3,0.3,2.2,0.3
		l1.4-2.6l4.2-1.9l3-0.3l2.1,1.9l1.6,4.2l2.2,1.4l1-0.6l6.8,2l1.3-1l-0.2-6.9l1.9-1.3l1.5-3.3l4.2-4.9l2.9-0.5l0.7,0.9l-2.3,3
		l-4,2.8l-1.5,2.8l0.8,2l1.7,0.5h2.5l1.5,1.3l1.2,1.8l1.8-0.6l1.2-6.9l1.8-2.8l4.4-1.4l4.3-0.3l3.8,3l5.8,6.1l1.9-0.5l4.2-3l0.1,1
		l-2.9,4l0.1,1.9l1.4,0.8l4.6-1.6l2.4,0.2l0.1,2l-2.3,1.2l-0.8,1.5l3.4,3.4l0.7,1.2l-1,3.3l0.9,1.3l3.5,0.6l3.3-0.8l1-1.4l-0.6-2.9
		l0.9-5.5l-0.9-3.4l0.1-2.9l2.5,0.3l0.7,1.6l-1.4,3.6l-0.4,3l0.3,2.6l1.8,1l1.9,1.8l2.4-1.1l3-2.3l4.3-6.1l-1.5-1l-0.7-4.6l1.1-0.9
		l1.6,0.2l2.2-6.9l2.6-0.3l2.6,1.5l4.1,2.8l0.1,5.1l2.2,1.3L284.2,130.4z"/>
	<path class="st5" d="M163.7,154.1l-6-3.1l-1.7-0.5l-2.6-3l-1.5,0.5l-2.1,2.4l-1.8-0.6l-0.2-1l1.6-1.4l-0.7-2.2l2.4-1.9l0.6-1.3
		l4.2,0.3l1.8-0.6l3.1,1.6l3-0.2l1.7,2.1l2.3,1l1.4-0.9l-1.4-2.7l0.6-1.1l-1.2-1.3l0.1-2.9l2.7-0.9l1.2-4.6l1.8-0.1v-1.6l1.6,0.1
		l0.6-0.9l0.7,0.1l1.4-2.6l4.2-1.9l2.9-0.3l2.2,1.9l1.5,4.2l2.3,1.4c0,0,1.1-0.6,1-0.6s6.8,2,6.8,2l1.3-1.1l-0.2-6.9l1.8-1.4
		l1.5-3.3l4.2-4.9l2.9-0.4l0.7,0.9l-2.3,3l-4,2.8l-1.6,2.8l0.8,2l1.7,0.5l2.5-0.1l1.5,1.4l1.2,1.8l1.8-0.6l1.2-6.9l1.8-2.7l4.4-1.4
		l4.3-0.2l3.8,3.1l5.8,6l1.9-0.5l4.1-3l0.1,1l-2.9,4l0.2,1.9l1.4,0.8l4.6-1.6l2.3,0.2l0.1,2l-2.3,1.2l-0.8,1.6l3.4,3.4l0.7,1.2
		l-1,3.3l0.9,1.3l3.4,0.6l3.3-0.8l1-1.4l-0.6-2.9l1-5.5l-0.9-3.4l0.2-2.9l2.5,0.3l0.7,1.6l-1.4,3.7l-0.4,3l0.3,2.6l1.8,1l1.9,1.8
		l2.4-1.1l3.1-2.3l4.2-6.1l-1.6-1l-0.6-4.5l1.1-1l1.6,0.2l2.2-6.9l2.6-0.3l6.6,4.3l0.2,5.1l2.2,1.4l1.6,0.1l1.7-3.1l-0.3-1.9
		l1.4-1.2l0.1-1.8l3.5-0.7l2.2,3l2.1,0.3l0.6-1.2l-2.9-3.5l1.2-1.5l0.1-1.3l-1.4-0.8l0.4-1.1l3,0.4l2.6,2l1.7,2.1l2,0.7l0.2,2
		l1.3,0.1l0.6-0.8l1.5,0.1l1.4-1.8h4.7v0.9l-1.7,0.4l-0.1,0.6l2,0.3l1.4,1.3l3,0.9l0.5,1.9l-1.1,1.8l-0.2,2.7l3.3,2l2.4-1l3.3,0.5
		l1.7-1.9l1.6,1l4.3-0.3l3-3.1l3.7-0.4l0.8-1.1l-0.9-0.9l0.3-1.2l-1.1-1.2l1.1-1.9l1.7,0.1l1.7-2.6l3.4,1.9l3.7-0.3l0.7,1.9l2.5,1.6
		l4.7,0.3l-0.9,4.1l1,0.8l1.6-0.4v1.1l3.2,2.5l1.8-1.3l0.7,0.8l-1.1,1.1l1.7,2l2.9,1.9l0.6,0.1l-2,5.5l-1.5-0.1l-0.9,1.2l0.8,3.2
		v1.5l-1.7,1.1l0.6,1.1l-1.5,1.1l-2.6-0.6l-0.4,1.6l1.1,0.7l-1,2.2l-0.8,6.8l2.3,3.6l-1.1,2.7l-1.7,0.6l1.4,1.9l1.8,0.6l-0.4,3.9
		l-0.9,0.1l-2-1.2l-2.7,3.8l1.6,1.9l2-0.9l0.1,2.9l1.1,1.6l0.5,4.5l-0.4,8.3l-2.5,1.4l0.7,1.9l-0.3,1.2l1.3,2c0,0-1,2.1-1.1,2.1
		s-2.3-1.3-2.3-1.3l-0.6,1.5l2,1l-0.8,0.9l-1.7-0.9l-1.7,2l1.4,1.1l-1.5,0.9l-2.8-1l0.3,1.3l-1.6,0.9L348,215l-2.6,1.1l-0.9-1.3
		l-1.4,1.8l-1.7-0.1l-3.8-1.8l-3.5-0.8l-2.3-0.3l0.3,3.3l-0.8,2.2l-1.2,1.4L325,220l-2.3-3.2l0.2-4.6l-4.7-0.7l-0.9-0.9l0.3-1.4
		L317,209l-3.8,4.3l-1.2,1.4l-3.6,0.3l-1.5,1.8l-2.4-1.4l-1,0.7l0.1,1.2l-1.8,1.9l-2-1.9l-4.1,0.2l-0.7,1.3l-4.7-1.2l-1.1,1
		l-2.6-0.5l-3.2-2.7l-0.8,1.8l-3.9-3.8l-4.3-0.1l-3.4-2.6h-1.3l-1.6,1l-6.3-1.1L261,209l1.7,0.4l-1.8-2.8l-2.1-2.5l0.2-3.9l-3.2-4.1
		l-1.2,0.6l-2.8-1v1.3l1.5,1.5l-3.6,0.7l0.1,3.7l-1.5-0.2l-0.7,1.7l1.4,1.2l-0.5,3.6l-2.6,1.9l-2.2,0.3l0.1,2.1l-4.7-0.6l-2.5-3.1
		l-0.8,0.5l-0.5-0.8l-1.6,1.8l-8.9-9.2c0,0-1.4,0.1-1.3,0.1s-2.6-3.4-2.6-3.4s-4,1.2-4.1,1.2s-4.7-0.3-4.7-0.3l-2.5-3.7l0.1-4.1
		l-4.7-3.3l-2.5-2.7l-3.6,0.4l-1.7-0.9c0,0-3,0.2-2.9,0.2s-4.3-8.2-4.3-8.2l-6.6-4.8l-2.2-3.2l-3.6,1.8l-3.1-2.7l-1.8,0.2l-1.2,4.6
		l-1.6,0.1l-1-1.9l-0.1-5.5l-1.2-1.9l-2.5-1l-0.1-6.5L163.7,154.1z"/>
	<g>
		<text transform="matrix(1 0 0 1 174.8496 105.4238)" class="st1 st2">Harinakundu</text>
	</g>
	<g>
		<text transform="matrix(1 0 0 1 274.0303 163.2743)" class="st1 st2">Jhenaidah</text>
	</g>
	<g>
		<circle class="st3" cx="243.9" cy="162.3" r="13.4"/>
		<text transform="matrix(1 0 0 1 237.8752 169.5245)" class="st1 st4">2</text>
	</g>
</g>
<g id="jhenaidha-3">
	<path class="st6" d="M149.1,182.2l1.2-6l-1.3-1.3v-2l1.7-0.6l-0.8-3l1.5-1.4l-0.8-1.3l0.4-1.3l-1.4-1.6l0.3-0.7l1.8,1.3l2.2-2.8
		l2.1-0.4l1.9-2.2l0.9-0.1l1.1-2l-2.3-2.1l0.9-1.6l1.3,0.8l1.1-1.1l2.7,1.4l1.5,2.7l0.1,6.4l2.5,1l1.2,1.9l0.1,5.5l1,2l1.6-0.1
		l1.2-4.6l1.8-0.2l3.1,2.7l3.6-1.7l2.2,3.2l6.5,4.7l4.3,8.2l3-0.2l1.7,0.9l3.6-0.4l2.5,2.7l4.8,3.2l-0.2,4.1l2.6,3.7l4.6,0.3
		l4.1-1.2l2.6,3.3l1.3-0.1l9,9.1l-0.1,0.9l-2.2,3.6l-0.4,3.8l-3.9,0.1l-3.9-2.2l-0.3,3.5l1.1,2.4l6.2,4.1l-0.9,1.9l-6,0.2l-3,3.4
		l2.1,3.7l-1.5,0.9l-2.1-2.4l-2.9,0.1v4.5l-1.1,1.5l-1.1-0.8l-2.8,0.6l-1.1,1.3l1.2,3.9l1.1,0.7l-1.2,4.2l-1.7,1.4l-1.5,0.8v1.2
		l-1.8,1.4l-3.2-0.2l-0.4,1.2l-1.2-0.3l-0.1-1.4l-2-1.3l-2-0.1l-2.4,1.5v0.8l-0.6-0.1l-0.2-2.7l-1.9-1.5l-4-1.5l-0.6-5.3l-1.6-4.9
		l0.7-4.1l-1.4-1.9l-2.4,0.5l-3,2.8l0.8,4l-1.2,4l-3.1,6.6l-2.7-1l-0.9-1.7l2.5-8.6l-2.3-1.7h-1.6l-5.4,2.9l-3.1,0.7l-3.5-0.2
		l-2.2-2.1l-0.5-2.5l-2.2,0.8l-3.8,0.1l-1.8-1.4l-3.9-6.5l-2.7-1.9l1.4-2.3l-1.7-2.4l1.3-1.7l-0.7-1.1l1-0.8l-1.3-1.6l1.5-1.9l3,2.1
		l2.4-0.9l0.2-4.3l-1.1-1.9l-2.9-1.3l-5,0.1l-5.3,3.3l-1.6-0.7l0.7-1.9l4.9-3.3l2.1-0.1l-0.6-2.2l0.5-2.1l-1.5-1.8l0.9-2.7l2.6,0.2
		l0.9,0.9l1.2-0.7l-0.4-3l-1.2-1.4l0.3-1l3.9-2.9l2-3.4l0.2-3.5L149.1,182.2z"/>
	<path class="st6" d="M159.3,286.3l0.1-3.5c0,0,2.7-0.5,2.7-0.6s0.9-2.3,0.9-2.3l3.6-1.2l0.3-1.6l2.1-0.7l0.9-1.9l7.2,0.6l2.4,0.9
		l1.6-2.2h1.8l0.3,1.5l2.4,1.3l1.5-1.5l3.8-1.3l0.5-1.5l4.3-2.3l4.4-1.1l1.8,0.5l1.4-2.1l-2.5-1.9l-2.4-0.1l-1.3-0.8l-1.2-3.8
		c0,0-4.7-0.3-4.8-0.3s-1.4-2.4-1.4-2.4l0.9-1.4l3.7-0.2l-0.2-2.7l-2-1.6l-3.9-1.4l-0.6-5.4l-1.6-4.9l0.7-4.1l-1.5-1.9l-2.3,0.5
		l-2.9,2.8l0.8,4l-1.2,4.1l-3.1,6.4l-2.7-1l-0.8-1.8l2.5-8.6l-2.3-1.7h-1.6l-5.4,2.9l-3.1,0.7l-3.5-0.3l-2.1-2.1l-0.5-2.5l-2.1,0.8
		l-3.8,0.1l-1.8-1.4l-3.9-6.6l-2.7-1.9l-2.9-1.5l-6.1-3.1h-3.8l1.1,2.2l2.2-0.4l3.1,3.7l-0.2,2.2l-4.3,0.6l-1.3,0.8l-2.7-0.3
		l-2.3-2.9l-4.9,0.3l-0.1,1.7l-0.7,0.4l-1.5-0.6l-0.3,1l-0.2,0.9h-2.7l-2-1.2l-0.9,1.7l-1.5,0.1l-0.1,2.3L110,239l0.4,1.1l-1.1,0.5
		l-0.1,1.8l0.7,1.2l-0.4,1l-1.4-0.3l0.1,2l-1.7-0.4l-1.1,0.7l1.1,1.3l-0.7,0.6l-1.9-1.3l-2.7,1.7l-0.2,1.4h1.2l-0.2,2l-2.6-0.9
		l-0.8,1.3l-1.4-0.9l2-3.1l-1.7-1.6l-1.5,3.8l-3.2-2.4l-2.9-0.2l-2.6-2.6l-1-2.1l-1.9,0.4l-0.2,2.3l-1.2,1.2l0.8,2.5l-0.9,0.8
		l-7.2-6.4l-4.6,1.3l-1.2,3.5l-5.7,3.8l-3.2-0.7l-0.4-3l-3.9-0.1l-2,1.5l-2.5,4.6l-1.9,3l-1.1,0.3l-0.3-1.8l2.6-2.5l0.5-1.9
		l-1.2-0.5l-3.9,2.5h-2.6l1.1,1.9l-0.1,3.3l-1.8,0.7l-1.3,2.2l-3.7-0.3l-0.7-2.2l-2.4-0.1l-0.2,1.3l2.2,3.6l2.7,0.1l1.1,1.1
		l-0.5,1.3l-2.5-0.5l-2.4-1.3l-3.7,0.5l1.6,2.3l-1.3,0.7l-1.9-1.1l-1,1.3l-1.7-1.4c0,0-0.1-0.9-0.2-1c0-0.1-1.4-0.3-1.4-0.3
		l-0.9,1.5l3,3.4l0.4,1.5l-0.2,1.8l-0.3,3l-1.3,0.2l-1,2.4l1.4,2.4L30,283l1.9-1.3l1.5,0.2l0.6,1.2l-0.2,2.3l2.1,3l-0.3,1.9
		l-1.9,1.4l0.1,3.5l-4.2,2.7l-2.7-3.1l-2.8-0.3l2.1-4.9l-1.7-1.3l-1.8,2.3l-0.1,6.3l1.5,1.7l-0.7,2.8l-4.1-0.5l-0.6-2.5l-2-0.7
		l-0.3-1.5h-2l-1.3,2.4l-2.3-1.1l2.8-2.6l0.2-1.6l-3.5,0.8L9,295.4l-0.7,2L5,299.5l0.5,2.4l0.8,0.2L6,303.9l-1,0.4l1.2,2
		c0,0,2.1-1.4,2.2-1.4s2.1,0.1,2.1,0.1l2.2,2.9c0,0,1.4,0.1,1.5,0.1s0.8,3,0.8,3h-1.5l-0.2,2l4.4,3.9l3.1,0.7l0.1,5.9l-2.5,1.6
		l-0.2,2.6l2.2,0.8l2.5-0.8l1.7,1.5l-0.2,1.4l1.4,0.8l2.9-0.3l2.1,2l1.5,0.6l3.2-0.8l1.5,3.4l1.5,1l4.3-1.1l0.5-2.8l3.6,0.4l2.1,0.8
		l2.2,2.3l2.3,3.6l-1.1,1.5l-1.6,1.7l0.4,2.8l1.1,0.4l2.2,3.1l2.3-1.7l2.1,0.3l1.2,2.2l2.4-0.3l5.7,0.9l2.9-0.1l1.5-1.5l-1.3-2.7
		l0.4-2l-1.3-1.7v-6.3l2.1-4.3l-0.4-2.7l1.3-2.3l1.1,0.4l0.1,2.2l4.6,2.5l2.5,1.2l0.7,2.4l-1.8,1.6l-1.2,0.4l-0.8,2.1l1,0.6l2.7-1.4
		l1.7-0.2l1.6-1.8l-0.1-1.7l2.1-0.8l1,4.4l1.5-0.1l2.3,2.9l0.4,1.9l2.7,0.2l0.8-2.6l1.9-1.4l1,1.5l10.7,0.2l1.7,1.9l2.4,0.7l1.4,2.5
		l1.1-0.3l-0.8-3l2.6-0.2l-0.5-2.3l0.7-4l-0.8-1.7l1.1-1.3l6.3,0.2l3-0.1l3.1-2.7l-2.6-3.5l-1.6,0.8l-1.1-0.5l1.3-1.9l-0.7-1.7
		l0.8-0.5l1.4,1.5l2-2.8l1.2,1.1l0.8-0.6l-0.7-1.8l1.1-0.3l0.7-1.8l-1.1-1.3h-1.6l-0.6-0.9l0.3-1.7l-0.7-0.5l-0.8,1.3l-2.8-3.2
		l1.6-0.9l3.6,0.8l4.4,1.9l2-2.3l3-0.3l1.3-1l0.2-3.2l1.2,0.1l2.5,1.4l4.9,0.2l1.5-0.2l0.7,2.4l1.2-0.4l0.3-2.4l1.7,1.4l0.4-1.4
		l1.4,0.3l1.9-2.1l0.7,1.1l1.2-0.8l-0.7-1.3l1.1-1.2l-0.6-0.7l0.1-1.9l-1.4-2.5l-0.2-1.2l-1.7,0.1l-0.1-1.2l3.4-2.8l0.5-2.2
		l-1.4-1.7l0.6-1.4l-0.5-2.5L159.3,286.3z"/>
	<g>
		<text transform="matrix(1 0 0 1 138.4199 214.163)" class="st1 st2">Kotchandpur</text>
	</g>
	<g>
		<text transform="matrix(1 0 0 1 83.7715 274.873)" class="st1 st2">Moheshpur</text>
	</g>
	<g>
		<circle class="st3" cx="76.2" cy="294.3" r="13.4"/>
		<text transform="matrix(1 0 0 1 70.2085 301.5245)" class="st1 st4">3</text>
	</g>
</g>
<g id="jhenaidha-4">
	<path class="st7" d="M223.1,221.2l0.3-3.5l4,2.3l3.8-0.1l0.4-3.8l2.2-3.6l0.1-0.9l1.6-1.7l0.5,0.8l0.8-0.5l2.5,3.1l4.7,0.6
		l-0.1-2.1l2.2-0.4l2.7-1.8l0.4-3.6l-1.4-1.2l0.7-1.7l1.4,0.2l-0.1-3.7l3.5-0.7l-1.5-1.5v-1.3l2.8,1l1.2-0.6l3.2,4.1l-0.2,3.9
		l2.1,2.5l1.7,2.7l-1.6-0.2l0.6,1.4l6.3,1.1l1.7-1h1.2l3.4,2.6h4.3l3.9,3.9l0.8-1.8l3.2,2.6l2.6,0.5l1.2-1l4.7,1.1l0.8-1.3l4.1-0.2
		l2,1.9l1.8-1.9l-0.1-1.1l1.1-0.7l2.4,1.4l1.5-1.7l3.6-0.3l4.9-5.7l0.7,0.2l-0.3,1.4l0.9,0.9l4.7,0.7l-0.2,4.6l2.3,3.3l5.3,0.7
		l1.2-1.3l2.1-1.1l2.7,0.3l1.5,2.9l3.6,0.3l-1.9,3.1l-1.3,0.1l-6.2,6.1l0.4,1.4l3,1.4l-2.4,2.9l-2.9,0.2l-1.7,1.6l2.3,2.9l-0.8,2.8
		l-2.8,0.7l0.1,2.1l1.5,3.1l-1,1.9l-2.3,0.2l0.4,2.8l3.8-0.2l2,2l-0.4,1.6l-1.7,1.4l-0.9,3.2l-2,0.7l1.2,3.1l-0.3,3.3l1.5,1.1
		l-1.1,1.6l1.3,1.4l-0.6,0.9l-3.2-0.6l-3.1,0.7l-1.1-1.3l-2.8,0.2l2,3l3.3,1.1l0.3,1.4l-1.5,4.2l-2,0.3l-4.2,2.9l-2.5-1.7L313,287
		l-2,0.4l-0.1,1.3l-1.1,0.6l-1.3-0.3c0,0-1.3,1.9-1.4,1.9s-2.9-4.2-2.9-4.2l-1.4,0.3v1.9l-1.4,2.5l-0.4,4.7l1.7,2.3l-0.3,3l-2.6,1
		l-1,4.1l-3.3,2.3l-8.8-0.4l-4.4-0.2l-2.2,1.5l1.2,2.3l-0.9,1l-2.1-0.5l-3.1,1.3l-1.4-1.4l-2.7,0.1l-1.8-1.2l-1.7,1.2l-0.9,6.3H265
		l-5.6-2.3l-0.4,2.3l-2,0.5l-2-1.4l-5.6-1.7l-3.2-3.7l0.6-5.5l-1.3-1.6l-1.9,1.7l-3.3-2.5l-2.9-3.2l-7.8-3.9l-4.9,0.1l-6.1,3.2
		l-3.6,3.3l-2.1,3.9l-1.9,0.2l-1.6-2.5l2.7-2.4l3.2-3.7l6.3-4.7l-1.4-6l-1.5-4.3l-1.6-0.1l-2.9-3.4v-1.8l1.5-2.7l4.8-2.3l1.7-0.1
		l0.8-2.8l1.6-1.9l-1-2l-1.2,0.5l-0.6-0.9l0.6-2.1l-1.2-0.8l-3.5,1.4l-3.8,0.3l-0.9,0.8l-2.6-0.7l-3.1-0.1l-1.2-2.6l1.6-2.6
		l-0.1-2.6l-1.8-1.5l1.9-1.4V254l1.6-0.8l1.7-1.3l1.2-4.2l-1.1-0.7l-1.2-3.9l1.1-1.3l2.8-0.6l1,0.8l1.1-1.5l-0.1-4.6l3-0.1l2.1,2.3
		l1.5-0.9l-2.1-3.7l2.9-3.4l6.1-0.2l0.9-1.9l-6.2-4.1L223.1,221.2z"/>
	<g>
		<text transform="matrix(1 0 0 1 246.7393 252.8573)" class="st1 st2">Kaliganj</text>
	</g>
	<g>
		<circle class="st3" cx="268.2" cy="280.3" r="13.4"/>
		<text transform="matrix(1 0 0 1 262.2085 287.5245)" class="st1 st4">4</text>
	</g>
</g>
</svg>
