<?xml version="1.0" encoding="utf-8"?>
<!-- Generator: Adobe Illustrator 25.2.1, SVG Export Plug-In . SVG Version: 6.00 Build 0)  -->
<svg version="1.1" id="Layer_1" xmlns="http://www.w3.org/2000/svg" xmlns:xlink="http://www.w3.org/1999/xlink" x="0px" y="0px"
	 viewBox="0 0 214.5 600" style="enable-background:new 0 0 214.5 600;" xml:space="preserve">
<style type="text/css">
	.st0{fill:#8BAFE8;stroke:#FFFFFF;stroke-width:0.5;stroke-miterlimit:10;}
	.st1{font-family:'TimesNewRomanPSMT';}
	.st2{font-size:16px;}
	.st3{fill:#ABBEED;stroke:#FFFFFF;stroke-width:0.5;stroke-miterlimit:10;}
	.st4{fill:#FFFFFF;}
	.st5{font-size:24.672px;}
	.st6{fill:#7CA7E5;stroke:#FFFFFF;stroke-width:0.5;stroke-miterlimit:10;}
	.st7{fill:#9BB6EA;stroke:#FFFFFF;stroke-width:0.5;stroke-miterlimit:10;}
	.st8{fill:#C5CFED;stroke:#FFFFFF;stroke-width:1.033;}
</style>
<g>
	<polyline class="st0" points="57.8,202.7 56.1,204.4 54.4,202.5 52.2,203.5 50.4,203.6 49.1,205 47,205.1 45.6,206.4 42.1,205.8 
		41.3,200 37.7,190.7 35.4,189.9 30.5,188.1 24.4,186.9 19.8,184.3 19.7,182.4 21.7,181.6 28.6,183.4 30.8,182.7 30,180.1 
		27.4,175.2 27.5,171.4 33.2,166.5 35.4,164.2 37.3,162.2 36.7,160.5 35.5,159.1 36.2,159.2 36.2,157.3 34.7,156.8 34.2,153.6 
		31.8,153.2 30.4,151.7 32.3,148.6 36.4,149 37.4,150.6 38,149.6 39.4,150 40.4,151.9 40.1,154.2 43.5,157 44.1,151.5 45.2,148.8 
		46.7,149 46.9,147.1 49.2,146.7 51.1,143.3 51.6,139 49,137.3 49.2,136.5 51.8,136.6 53.2,135.4 55.3,137.6 59.1,136.8 62,137.4 
		64.2,137.7 63.9,139.3 62.2,143.2 63.1,143.7 65.2,142 66.7,143.6 69.5,143 71.7,144.4 73,142.9 73,138.3 74.1,137.6 76.9,139.3 
		80.5,138.5 81.1,134.7 83.7,134.7 87.6,139.5 89.6,141.4 89.8,143.3 89,144.1 91.3,147.6 92.5,147.4 93.9,148.8 93,152.1 
		94.3,152.7 93.5,156.4 94.6,157.9 96.6,159.2 96.2,160.6 94.7,161.4 94.7,163 95.9,163 96.8,166.4 100.3,167.5 99.3,169 
		97.2,168.6 96.6,170.8 95,170.9 94.2,170 88,168.4 84.5,166.5 80.1,163.1 78.4,163.4 77.7,168 74.1,170.1 74.8,172.9 79.6,172.7 
		83.7,175.1 84.1,177.2 88.8,181.9 88.6,182.8 86.9,182.4 86.5,183.7 86.7,186.2 85.5,186.8 81.3,184 74.1,187.5 72.5,190.7 
		73.6,194.5 72.7,195.3 71.7,194.1 70.9,194.6 71.3,196.5 68.7,199.9 66.9,200.1 66.1,203.5 68.4,203.5 69.1,205.7 67.8,206.2 
		61.6,202.9 59.6,204.5 57.8,202.7 	"/>
	<g>
		<text transform="matrix(1 0 0 1 17.1764 178.0777)" class="st1 st2">Debhata</text>
	</g>
</g>
<g id="satkhira-1">
	<polygon class="st3" points="38.2,69.8 35.9,69.7 35.8,68 38.6,66.8 39.6,60.4 41.9,52.9 37.4,46.2 37.5,44.8 36.4,43.3 35.2,44 
		34.8,43 35.5,42.6 35.2,40.5 33.7,38.9 33.6,37 31,35.3 29.4,38 24.2,39.3 22.5,38 22.4,35.7 21.2,35.4 19.9,36.9 16.2,35.2 
		15.3,32.3 14.2,31.5 14.4,30.1 15.7,30 15.5,29 14.4,29 13.9,27.8 12.8,28.8 10.9,26.9 12.1,23.3 9.7,21.1 11,19.4 15,19.3 
		15.8,16.8 17,16.7 18.7,14.8 20.4,14.3 21,15.6 18.8,17.7 19.9,20.4 22.4,20 24.8,17 25.8,17.8 25.5,18.7 27.5,19.5 27.5,20.7 
		28.3,20.8 28.6,19.3 29.6,19.2 30.5,20.6 32.2,17 33.9,15.8 35.3,18.2 36.8,18.2 36.2,20.2 38.3,20 40.4,17.1 41.5,17.8 42.3,16.8 
		43.8,17.8 44.4,19.7 45.4,19.3 44.7,17 45.4,16.3 47.9,16.5 50.3,18.9 52,19.5 52.3,18.9 51,17.4 52.4,17.2 50.9,13.9 51.7,11.6 
		49.8,10.2 50.4,9.2 48.9,8.3 50.6,5.6 51.9,6.3 54.5,5.2 60.9,5.1 62.3,5.7 64.9,8.9 68.4,11.2 71.3,13.2 72.5,10.6 73.3,10.4 
		73.6,9.3 72.5,8.8 74.2,7 75.3,7.4 75.4,11.3 77,13.2 78.7,12.9 78.2,11.3 80,11.6 79.9,10.4 81.2,10.3 81.8,11.4 84.9,11.3 
		86.2,11.9 88.6,8.8 90.1,9.9 90.8,9.8 92.6,12.2 96.6,14.9 99.1,15.6 101.2,15.2 102.7,13.5 102.7,11.3 101.4,10.3 98.9,9 
		99.4,8.2 103.8,5.3 105.1,5.2 105.8,6.2 104.9,7.1 103.6,7.9 103.9,10.3 106.2,12.6 109.5,12.9 111.5,14.4 113.2,19.4 116.4,25.9 
		117.3,28.7 117.2,29.9 116.3,30.9 114.2,30.6 109.5,26.6 107.6,25.1 106.1,25.8 103.4,29.8 103.5,32.3 105.2,34.2 108.2,35.9 
		111.5,38.9 111.7,40.8 110.4,45.3 109,49.1 109.3,52.2 112.5,58.3 116,61.2 115,61.9 111.9,62.9 109.7,61.5 107.1,61.3 106.2,59.5 
		101.3,60.1 98.5,60.8 97.6,63.2 94.8,62.6 92.1,61.7 90.7,63.2 90.2,64.7 88.9,65.5 87.5,65 88.6,62.3 84.8,61.9 82.9,64.6 
		80.4,65.2 78.6,63.4 78.4,61.4 76.2,59.8 74.1,60.8 70,60.8 69,62.3 66.5,61.5 62.3,61.1 57.1,60.6 55,59.6 53.4,60.3 55.3,63.2 
		56.3,65.1 54.2,66.3 53,65.5 51.7,66.4 51.1,64.9 49.2,65.9 46,64.6 43.7,66.3 41.7,70.3 39.3,69.8 	"/>
	<path class="st3" d="M130.1,64.7l1.9,1.2l0.4,1.6l1.3-0.4l0.1,1l0.8,0.6l0.5-0.1v-1.9l2.2,0.1l1.7,1.8l2.3,0.8l2.6-0.8l0.8-2.2
		l2-0.9l1.1,1l0.8-0.4l0.8-1.8l1.6,0.5l0.6-1.3l1.8,0.9L156,62l1.2,1l0.8-1l-1.1-1.9l1.6-1l0.7-1.1l2.2,0.4l1.7-1.1l0.6,0.5l1.7-1
		l1.7,1.7l0.7,1.1l-1.6,1.6l-0.3,3.4l-1.7,1.6l-0.7,0.1l-0.1,2.8l1,1.2l2.1,0.2l1.5-0.8l0.3-1.3l1.6,0.1l1.3-0.4l1.2,1.1l0.2,2.5
		v3.1l-0.6,1.5l2.4,3.1l1.3-0.8l1.4,0.9h2.2l2.8-2.2l1.9,3.4l1.6,0.1l-0.3,2.2l0.8,0.4l0.3,2.2L186,86l0.2,2.2l1.7,1.6l2.7,1.5
		l0.2,2.2v4.9l2.1,1.2l4.1,4.8l0,0l0,0l0.8,2.2l1.4,0.4l0.9,0.9l-2.6,5.4l1.9,0.2l-0.1,1.2l-3.1-0.2l-0.8,1.2l-4.2-1.3l-0.5-1.3
		l-2.7,2.4l0.9,2.5l-1.3,1.7l2.6,2.4l-0.8,4.5l-3.3,3l-5.3-6.7l-2.4-0.6l-1.8,1l-2.7-0.8l-2.6-3.4l0.1-5.3l-2-1.5l-0.3,4.3l-0.1,7.8
		l1.4,3.2l-0.1,8.5l7.3,4.2l4.1,0.7l4.9,4.5l-0.1,1.3l-7.5,3.9l-2.6,1.9l-0.3,2.3l2.4,0.9l2.2,0.3l0.7,0.9l-0.6,1.3l-4.5-0.7
		l-4.6-2.5c0,0-1.5-1.9-1.6-1.9l0.2-2.3l1.2-2.7l-0.1-3.4l-2.5-4.2h-2.7l-1.3,2l0.1,4.6l-2.5,2.4l-1.3-1l0.3-1.3l-0.9-0.2l-0.7,1.3
		l-1.9,0.1l-1.5,1.8v3l-3.7,2.2l-2.5,0.4l-0.9-3l-1.4,0.8l-1.1-1.6l-1.2,0.5l-1.1-2.2l-5.9-4.6l-2.1,0.1l-0.8-2.2l-1.5-0.6l-2.1,1
		l0.3,2l-1,0.2l-1.6-2.6l0.7-5.8l-0.9-1.3l1.1-3.3l-3-0.8l-2.4-3.5l-1.8-0.5l-1.9-4.7l1.5-0.3l0.9-2l-1.4-1.4l-0.1-2.5l-1.9-0.5
		l-1.1,1.5l-1.2-2.8l2.4-2.3l0.3-3.2l-4.5-2.1l-1.2,2.7l-3.6,2.2l-3.3-6.2l-1.8,1.2l-1.8-0.7l-1.5,0.7l-0.8-1.5l1.2-1.6l3.5-0.5
		l0.5-2.4l1.6-1.1l-0.3-1.3l-4.1-1l-0.9-1.6l-1.9-0.6l-0.5-2.9l-0.9-0.9l0.3-0.9l-1.4-1.7L98.2,90l-0.8-2.1l0.9-2.9l-0.5-1.9
		l-1.9-1.3l0.4-3.7l2.9-2.7l-0.6-1l-3.9-1l-0.9-1.5l0.6-0.7L96,72l2.9-1.1l1.2,1.1l0.8-0.9l-2.2-2l-0.9-3l0.7-2.1l-0.8-0.8l1-2.3
		l2.8-0.6l4.9-0.7l0.8,1.9l2.6,0.1L112,63l3.1-1l0.9-0.7l2.4,0.5l0,0l0,0l1.6-1.4l-0.2-2.3l1.5-0.7l1.8,1.4l-0.1,1.6l1.1,1.4
		l1.6,0.7l-0.1,1.7l-0.8,1.1l0.7,2.6l-0.9,1.4l-2.1,0.1l-1.9,1.9l-2.7,0.1L117,74l3.6,3.1l3.8-2.7l1.3,0.6l1.5-1.5l-0.8-1.2l0.8-2.4
		l1.4-0.4l-0.4-2.4L130.1,64.7z"/>
	<g>
		<text transform="matrix(1 0 0 1 45.1681 39.9187)" class="st1 st2">Kalaroa</text>
	</g>
	<g>
		<text transform="matrix(1 0 0 1 134.3348 84.5854)" class="st1 st2">Tala</text>
	</g>
	<g>
		<circle class="st4" cx="146.4" cy="108.6" r="13.4"/>
		<text transform="matrix(1 0 0 1 140.4544 115.8259)" class="st1 st5">1</text>
	</g>
</g>
<g id="satkhira-4">
	<g>
		<path class="st6" d="M210.2,470.4l-5.3-11.4l-8.3-6.9l-7.8-12.2l-6.3-13.5l-5.9-10.6l1.6-7.4l6.5-5.2l-2-2l-4.4,0.7l-4.3,2.6
			l-6.8,0.2l-8.6-7.9l-5.5,1.4l-0.7,2.3l4.4,1.8l9.7,7.6l-0.5,7c0,0-4.1,6.1-4.1,6.3c-0.1,0.2-10.6,12-10.6,12l1.5,3.1l8,2.1
			l4.8,7.1l-3.4,5.9l-11.9,5.5l-2.2,2.8l2.9,2.9l9.1,1.7l6.3,4.3c0,0,1.9,5.7,1.8,5.9c-0.1,0.3,10.2-1.5,10.2-1.5l4.3,1.7l2.1,6.2
			c0,0-2.5,5.4-2.9,5.5c-0.3,0.1-5.6,6.3-5.6,6.3s1.3,3.6,1.3,3.8c0,0.2,2.2,7.6,2.2,7.6l-2.5,6.2l6.5,8.3l2.9-1.2l-0.1-8.1l3.2-8.4
			l8-11.3l15.2-6.3l0.4-3.1L210.2,470.4z"/>
		<path class="st6" d="M171.3,573.6l-0.8-3.1l6.8-0.7c0,0,4.7-9,4.7-9.3s-3.4-13.5-3.4-13.5l3.1-1.1l-1-7.8c0,0-0.4-6.6-0.5-7.5
			c-0.2-0.9-7.8-13.9-7.8-13.9l-0.4-6l3.7-4.5l-0.4-4.6l-2.9-3.5l1-7.6l6.8-7.1l-0.8-2.5l-13.2,0.1l-3.9-4.8l-0.7-4.1l-11.9-0.8
			l-6.1-7.1l-0.4-7.6l7.1-3.2l8.1-3.7l3.4-3.6l-9.4-3.5l-8.9-1.1l-4.5-1.7l-3.6-7.8l-7.9,0.2l0.3,2.8l2,3.7l-0.8,5.1l-7.2,8.9
			l-5.2,6.1l0.5,9.3l4.1,5l10.8,0.5l12.1,0.1l4.9,4l-0.5,5.7l-5.7,7.6l0.1,14.1l-3.7,10.4l-4.1,4.7l1.9,9.2l3.9,9.6l5.5,4.1l4.6,7.3
			l1.3,12.2l2.6,6.7l-7.5,11.7c0,0-2.3,9.7-2,9.9s9.1,4.2,9.1,4.2l14.4-4l8.1-3.9l8-8.9l-3.5-4.8L171.3,573.6z"/>
		<polygon class="st6" points="119,547.5 113.6,545.6 112.6,540.5 100.9,536.2 93.5,531.1 90.3,523.5 90.4,514.5 93.1,504.5 
			93.5,501.6 85.7,497 81.9,487.9 82.1,474.8 72.5,474.6 68.7,476 68.2,485.9 71.1,488.8 78.6,495.3 81.6,503.1 81.3,517.2 
			74.6,531.1 75.1,535.8 81,538.8 86.9,543 98.4,555.9 103.3,563.8 115.1,564.1 119.8,560 121.1,554.8 119.3,553.8 		"/>
		<path class="st6" d="M137.1,494.2l4.8-9.8l1.5-6.1l-3.2-0.7l-9.6,0.3l-10.7-0.5l-4.4-3.7l-3.3-10.6l1.9-9.1l7.9-7.5l4.4-2.8
			l-0.9-7.5l-5.6-9.1v-8.4l3.7-2.7l7.1-2.5l-12.6-7.6l-6.7-9.5l0.7-1.1l9.9,9.4l11,5.3l0.8,4.8l-11.4,7.6l2,5.5l11.4,1.3l6.8,10.3
			l4.4-1.6l1.9-5.7l11.5-14.2l2.1-4.9l-6.1-5.9c0,0-7.2-4.9-7.5-5.7c-0.3-0.8-5.9-15.2-5.9-15.2l2.1-1.1l5.6,11.5l4.4-2.8l5.1,0.3
			l5.1,2.1l5.7-5.5l-0.3-8.8l3.3-7.4l8.6-7.3l5.9-5.7v-0.1l-0.3-6.4l-1.4-2.4l0.7-2.2l-0.7-1.8l3.3-5l0.3-2.2l-4.8-5.1l-4-3.2
			l-1.2-2.8l2.8-3.6l5.8-2.5l2.2-2.6l0.1-4.7l-2.7-1.4l-10.4,2L176,315l-0.5-5.9l-1.2-3.6l-3-3.1l-5.4-6.2l-2.8-4.1l-0.1-1.8
			l0.2-1.7l-1.9-6.8l-2.7-3.4l-3.2-2.8l-3.7-0.5l-2.8-1.5l-1.2,0.6l0.2,3.3l-2.2,0.4l-4.1,1.6l-2.3-0.1l-1.5-2.1l-0.8-5.9l-0.3-4.4
			l-1.3-2.4l-6.1-2.3l-3.9-0.1l-3.1,3.4l-4.8-0.3l-2.7,6.8l0.5,3.3l-1.6,0.8l-0.9,2.1l-5.2-0.5l-2.9-2.3l-2.9-3.9l-3.1,0.2l-0.8-5.3
			l-1.8-0.9l-0.4-3.8l0.6-1.3l-2.2-1.1l-0.9,1.6l-2.1,0.3l-2,4.1l-2-1.8l-0.6,1.2l-5.1-2.3l-0.6,0.9l1.9,2.1l-2.2,2.3l1.8,1.6
			l-1.8,4l3.1-1l0.2,1.4l-2.4,1.3l0.3,2.6l-1.4,2.1l-2.6,5.9l1.6,2.2v2l-3.1-0.8l-3.4,0.6l-0.1,1.1l-1,0.1l-0.3-2.4l-3.3,0.5
			l-0.8-1.2h-1.4l-2.8,5.1l-4.2,0.9l-0.3,2.7L56,300l5.1,6l4,5.2l-1.8,1.4l-3.1-1.2l-4.9-0.9l-3.7,1.2l-0.7,2.7l2.7,3.6l8.6,5.4
			l0.7,1.8l-2.8,2.8l-0.5,1.8L61,331l5.5-3.1l2,0.4l0.8,2.4l-0.1,8.3l2.3,5.4l6.4,5.9l7,8.3l0.2,1.9l0.4,0.7l-2.7,3.7l1.5,7.2
			l3.6,3.7l8.3-6l3.2,3.7l-12.7,12.4l-10.6,11.8l5.4,16l11,17.9l2.7,15.3l-0.4,16.2l-4.5,13.5l-0.4,6.6l5.8,7.5l4,11l1.6,13.1
			l-2.5,7.2l13.1,6.1l11,2.3l7.2-4.3l2-9.2l3.3-5.5L137.1,494.2z"/>
	</g>
	<g>
		<text transform="matrix(1 0 0 1 77.7439 303.806)" class="st1 st2">Shyamnagar</text>
	</g>
	<g>
		<text transform="matrix(1 0 0 1 95.7439 368.806)" class="st1 st2">Sundarban</text>
	</g>
	<g>
		<circle class="st4" cx="118.9" cy="328.1" r="13.4"/>
		<text transform="matrix(1 0 0 1 112.9544 335.3259)" class="st1 st5">4</text>
	</g>
</g>
<g id="satkhira-3">
	<polygon class="st7" points="42.2,205.5 43.5,217 46.8,224 52.7,228.8 52.8,232.6 49.4,240.2 49.7,242.6 54.2,246.5 54,248.6 
		47.5,251.3 45.3,254.6 41.4,256.8 41.8,258.7 50.4,266 49.9,268.7 46.2,272.6 46.6,275.1 49.2,278.8 47.7,281.9 49,285.6 
		47.3,291.7 47.3,296 48.5,297.8 50.9,298.1 53.6,297.2 56.2,300.1 58.7,296.6 59,293.9 63.3,293 66.1,288 67.5,288 68.3,289.1 
		71.6,288.6 71.9,291.1 72.9,291 73,289.8 76.4,289.2 79.5,290 79.5,288 77.9,285.8 80.5,279.9 82,277.8 81.7,275.1 84.1,273.9 
		83.8,272.4 80.6,273.5 82.5,269.5 80.7,267.9 83,265.6 81,263.5 81.7,262.6 86.9,264.9 87.4,263.6 89.4,265.5 91.4,261.3 
		93.4,261.1 94.4,259.4 96.6,260.5 95.9,261.9 96.3,265.7 98.1,266.6 99,271.9 102.1,271.7 104.9,275.5 107.8,277.8 113,278.3 
		113.9,276.2 115.5,275.4 115,272.1 117.7,265.2 122.6,265.5 125.6,262.1 123.8,261.1 123.2,258.4 120.1,258.2 118.3,250.2 
		120.9,246.8 120.7,245.4 116.5,245.3 114.4,240.2 115.7,239.4 119.4,239.5 121.7,238.1 121.5,231.4 118.3,227.9 117.7,221.7 
		122.1,219.2 123.4,215.1 122.5,214.1 117.7,213.6 113.5,209.5 112.9,207.6 114.8,206.8 119.2,207.1 123.7,199.8 123.7,197.8 
		119.9,197.1 110.9,200.7 108.4,206.4 104.6,206.1 100.4,206.8 99,205.7 98,202.9 94.9,201.5 93.1,201.7 92.1,200.6 92.5,195.8 
		91.1,195.1 92.5,191.3 89.3,190.1 88.8,187.3 86.6,186.2 85.5,186.8 81.2,184 74.1,187.5 72.5,190.7 73.6,194.5 72.7,195.3 
		71.6,194.1 70.9,194.6 71.3,196.5 68.7,199.9 66.9,200.1 66.1,203.5 68.5,203.5 69.1,205.6 67.8,206.2 61.6,202.9 59.6,204.5 
		57.7,202.8 56.1,204.3 54.4,202.5 52.2,203.5 50.4,203.7 49.1,205.1 47,205.1 45.6,206.4 42.4,205.8 	"/>
	<path class="st7" d="M125.5,262.1l4,0.1l6.1,2.3l1.3,2.4l0.4,4.3l0.8,6l1.5,2.1l2.3,0.1l4.1-1.5l2.2-0.4l-0.2-3.3l1.2-0.6l2.8,1.5
		l3.7,0.5l3.1,2.7l2.7,3.4l2,6.9l1.7-1l4.7,1.7l3.2-0.2l0.5-2.2l-2.7-9.8l-0.9-4l-1.3-0.6l-4.5,3l-2.9,0.9l-2.2-1.3v-3.7l4.9-3.5
		l1.9-3.7l-0.1-4.1l-3.7-5.1l-2.6-5l0.1-6l2.7-5.1l3.2,0.2l2.2-1.7l-0.5-2.2l-1.2-2l0.9-1.6l9.6-2.4l2.7-1.4l-0.2-2l-3.6-1.2
		L169,221l-3.7-4.8l-1.5-4.9l0.2-6.8l-0.9-3.5l-2.9-3.9l-2.9-3.2l0.4-3.4l2.7-4.8l1.2-1.9l4.5-0.5l2-2l1.8-5.5l0.5-7.5l-1.7-2.7
		l-3.3-0.9l-2.9,0.8l-1.7-0.8l-0.2-3.7l2-1.8l5.3,0.5l1.3-1.2c0,0-2.3-2.8-2.3-2.9c0-0.1-4.7-3.2-4.7-3.2l-1.2-1l1.3-1.9l-1.3-0.9
		l0.2-1.3l-1-0.1l-0.7,1.3h-1.8l-1.5,1.8l0.1,3l-3.7,2.3l-2.4,0.4l-1-3l-1.3,0.7l-1.1-1.5l-1.1,0.4l-1.2-2.2l-5.9-4.6l-2.1,0.1
		l-0.8-2.3l-1.5-0.6l-2.1,1l0.2,1.9l-1,0.2l-1.7-2.6l-5.3,2.8l-2.8-1.6l-1.4,1.4l-1.1-0.3l-1.2,0.9l0.7,1.4l-2.1,3l-1.1,0.1
		l-0.3,4.3l1.1,1.4l-0.6,0.7l0.2,3.1l1.1,1v2.6l-1.6,3.8l-1.4,5.2l-1.7,0.4l-1.1-1.2l-2.1-0.5l-0.8,1l-3.3-3l-1.6-1.7l-1.5-0.2
		l-1.5-0.9l-0.9,1.4l-2.2-0.4l-0.6,2.2l-1.4,0.1l-0.9-0.9L88,168l-3.5-1.8l-4.4-3.4l-1.6,0.3l-0.8,4.6l-3.5,2.1l0.7,2.8l4.7-0.2
		l4.2,2.4l0.3,2.1l4.8,4.6l-0.3,1l-1.6-0.4l-0.5,1.3l0.2,2.5l2.2,1.1l0.5,2.7l3.1,1.2l-1.3,3.8l1.3,0.8l-0.4,4.8l1,1.1l1.8-0.1
		l3.1,1.3l1.1,2.8l1.3,1.1l4.2-0.7l3.9,0.3l2.5-5.7l9-3.6l3.8,0.7v2.1l-4.5,7.2l-4.4-0.3l-1.9,0.9l0.6,1.9l4.2,4l4.8,0.6l1,0.9
		l-1.3,4.1l-4.5,2.5l0.6,6.3l3.2,3.4l0.2,6.8l-2.4,1.4l-3.7-0.1l-1.2,0.8l2.1,5.1l4.2,0.1l0.2,1.4l-2.5,3.3l1.7,8.1l3.1,0.2l0.6,2.7
		L125.5,262.1z"/>
	<g>
		<text transform="matrix(1 0 0 1 50.4264 236.9944)" class="st1 st2">Kaliganj</text>
	</g>
	<g>
		<text transform="matrix(1 0 0 1 107.6764 188.7444)" class="st1 st2">Assasuni</text>
	</g>
	<g>
		<circle class="st4" cx="133.9" cy="217.6" r="13.4"/>
		<text transform="matrix(1 0 0 1 127.9544 224.8259)" class="st1 st5">3</text>
	</g>
</g>
<g id="satkhira_2">
	<polygon class="st8" points="38.1,69.7 37,75.3 33.5,74.9 30.5,78 28.7,77 27.2,78.1 27.8,81.7 24.4,81.4 22.5,83.6 23.7,86.6 
		22.3,87.4 19.5,87.2 16.3,92.6 17.5,94.9 19.2,93.9 20.5,95.4 17.9,100 19,105.9 21.8,106.3 24.1,111.7 32.9,118.1 34.4,116.7 
		37.6,122.1 39.1,122.5 38.5,127.1 35.5,126.7 32.3,130.7 31.7,137 30.3,138.6 26.2,139.5 26.4,142.7 25.4,143 24.6,142.1 23.1,145 
		26,153 25.9,156.1 26.9,158.3 36.1,159.2 36.2,157.3 34.7,156.8 34.1,153.6 31.8,153.1 30.4,151.7 32.4,148.7 36.4,149 37.3,150.6 
		38,149.6 39.4,150 40.4,151.9 40.1,154.1 43.5,157 44.1,151.5 45.2,148.8 46.7,149 46.9,147.1 49.2,146.7 51.1,143.3 51.5,139 
		49,137.3 49.2,136.5 51.7,136.6 53.2,135.4 55.3,137.6 59.1,136.8 64.1,137.7 63.9,139.3 62.3,143.2 63.1,143.7 65.2,142.1 
		66.7,143.6 69.6,143 71.7,144.4 73,142.9 73,138.2 74.1,137.6 76.9,139.3 80.5,138.5 81.1,134.7 83.7,134.7 87.6,139.5 89.6,141.5 
		89.8,143.3 89,144.1 91.3,147.6 92.5,147.4 93.9,148.8 93,152.1 94.3,152.7 93.5,156.5 94.6,157.9 96.6,159.2 96.2,160.6 
		94.7,161.4 94.7,163 95.9,163 96.8,166.3 100.2,167.5 101.8,168.5 103.3,168.8 105.6,171.2 108.1,173.4 108.9,172.4 111,172.9 
		112.1,174.1 113.8,173.6 115.2,168.4 116.8,164.6 116.8,162.1 115.7,161.1 115.5,158 116,157.3 115,155.8 115.2,151.6 116.3,151.5 
		118.4,148.4 117.7,146.9 118.9,146.1 120,146.4 121.5,145 124.2,146.6 127.5,144.9 129.6,143.7 130.2,137.9 129.3,136.7 
		130.4,133.4 127.4,132.6 125,129.1 123.2,128.7 121.4,124 122.9,123.6 123.8,121.6 122.4,120.2 122.3,117.6 120.4,117.2 
		119.3,118.6 118.1,115.8 120.6,113.5 120.8,110.3 116.4,108.2 115.2,110.9 111.5,113.1 108.2,106.9 106.4,108.1 104.6,107.3 
		103.1,108 102.3,106.6 103.5,105 107,104.5 107.5,102.1 109.2,100.9 108.8,99.6 104.8,98.6 103.9,97.1 101.9,96.5 101.4,93.6 
		100.6,92.7 100.8,91.8 99.4,90.1 98.2,90 97.4,87.9 98.2,85 97.7,83 95.8,81.7 96.2,78 99.1,75.4 98.5,74.4 94.6,73.4 93.7,71.8 
		94.3,71.2 95.9,71.9 98.8,70.8 100,71.8 100.8,70.9 98.6,69 97.7,66 98.4,63.8 97.6,63.1 94.7,62.6 92.1,61.7 90.7,63.2 90.2,64.7 
		88.9,65.6 87.6,65 88.6,62.3 84.8,61.9 82.9,64.6 80.4,65.2 78.6,63.4 78.5,61.4 76.2,59.8 74.1,60.9 70,60.9 69,62.3 66.5,61.5 
		57.1,60.6 55,59.6 53.4,60.3 55.3,63.3 56.3,65.1 54.2,66.3 52.9,65.5 51.7,66.4 51.1,64.9 49.2,65.9 45.9,64.6 43.7,66.3 
		41.7,70.3 39.3,69.8 	"/>
	<g>
		<text transform="matrix(1 0 0 1 32.6658 100.7289)" class="st1 st2">Satkhira</text>
	</g>
	<g>
		<circle class="st4" cx="95.4" cy="122.6" r="13.4"/>
		<text transform="matrix(1 0 0 1 89.4544 129.8259)" class="st1 st5">2</text>
	</g>
</g>
</svg>
