<?xml version="1.0" encoding="utf-8"?>
<!-- Generator: Adobe Illustrator 25.2.1, SVG Export Plug-In . SVG Version: 6.00 Build 0)  -->
<svg version="1.1" id="Layer_1" xmlns="http://www.w3.org/2000/svg" xmlns:xlink="http://www.w3.org/1999/xlink" x="0px" y="0px"
	 viewBox="0 0 394.5 376.5" style="enable-background:new 0 0 394.5 376.5;" xml:space="preserve">
<style type="text/css">
	.st0{fill:#8BAFE8;stroke:#FFFFFF;stroke-width:0.5;stroke-miterlimit:10;}
	.st1{font-family:'TimesNewRomanPSMT';}
	.st2{font-size:16px;}
	.st3{fill:#9BB6EA;stroke:#FFFFFF;stroke-width:0.5;stroke-miterlimit:10;}
	.st4{fill:#FFFFFF;}
	.st5{font-size:24.672px;}
	.st6{fill:#ABBEED;stroke:#FFFFFF;stroke-width:0.5;stroke-miterlimit:10;}
</style>
<g id="narail">
	<path class="st0" d="M43.9,136.5l1.7-11.6l0.4-6.2l-3.4-9.6l1.4-0.6l1.1,2.9l2.2,0.5v-0.7l-1.5-1.5l-0.1-7.4l-3.3-0.2v2l-1.5,0.1
		l-0.1-2.4l1.4-1.5l-1.4-2.5l1.2-1.2l1.4,1.3l0.7-0.6L43,95.6l1-0.4l1.4,2.5l5-1.1l0.6-1.1l-0.8-1.2l1.8-1.5l0.6,1.4l1-0.7l1,1
		l0.7-0.7L51.8,89l-2.7-0.1l0.3-3.5l-1.6-0.6l0.2-5.5l-2.3-0.6l-0.4-5.5l1.7-0.5l0.1-2.6l2.3-2.4H52l1,0.8h4l2.6-2.4h5.1l1.6,0.9
		h2.2l1.9,2.6l2.4-0.5l3.3,0.9l1-1.3l-0.6-4.4l0.8-0.4l2.1,1.3l0.7-1.1c0,0-1.8-1.5-1.8-1.6s1.5-2.4,1.5-2.4l2.9,1.4l0.7-1L81,57.7
		l2.1-8.3l1-1l-0.6-3.1l1.7-0.6l1.2-1.7l1.5-0.1l1.9-2.6l4.1,0.5l2,1.9l3.4-0.3l4.2,7l8.4,2.1l3.9,2.8l4.6,7.6l1.5,1l5.4-0.1
		l4.4,1.1l3.7,4.2l5.4,11.6l6.5,7.8l7.2,1.2l6.7,2.9l5,6.8l2.1,4.7l2.4,1l2.8-0.2l6.9,4.3l3,0.1l3.1-2.4l2.3,0.3l5.3,3.7l4.8,5.8
		l6.9,4.5l-0.4,4.4l-2.1-0.1l-0.4,2.5l-1.8,0.4l-0.3,3l-4.3,1.9l-0.7,1.5l1.8,2.5l3.5,2.8l1.1,6.1l5.2,0.3l0.4,2.1l-3.7,12.6
		l-1.5,5.6l0.6,0.5l3-1.6l5,0.7l2.3-0.7l1.2,1.5l-1,2.1l5.5,4l2.8,0.5l-0.9,9l-0.8,3.9l-1.9,1.9l-3.6,0.7l0.6,1.2h1.4l2.2,2.4
		l-1.8,4l-2.7-1.2l-1.3,1.4l0.4,1.2l-2.3,2.1l1.4,2.2l-1.5,2.2l-1.8-2l-1.3,1.1l0.9,2l-1.7,0.7l-3.9,13.7l-0.4,4.4l-2.5,5l-0.1,3.1
		l-1.2,0.4l-2.9-0.7l-2.3,2l-0.9,3.7l-2.6-0.8l-3.4,1l-1.7,1.9l-1.7-2.1l1.8-3.3l-0.7-0.8h-1.7l-3.2-4.5l-4.4-3.7l-4.7,0.4l-1.8-2.6
		l-3.6-1.2l-1.9,1.6l-1.1-1l1.1-2.2l-1.9-2.9l-1.2,0.6l0.2,4.3l-1.7-0.4l-0.1,4.3l-3.6,1.5l-0.9,10.6l-2.4,3.1l-3,1l-6.6-0.8
		l-1.7,1.2l2.6,6.8l4.8,2.8l5.2,3l1.6,3.9l-0.5,3.9l1.8,1.9l-0.7,2.7l-3.3,4.6l0.3,5l-1.1,4.7L147,282l-5.1-1.5l-1.4,0.6l-0.9,2
		l-1.5,0.1l-0.9,5.6l-3.6-0.5l-2.7,2.1l0.1,1.4l-2.2,0.8l-2.8,1.8l-4.6-0.7l-2.2-0.7l-1.1,2.2l-4.1-0.4l-2.8-2.8l-4.4-1.8l-2.2-0.2
		l-3,2.2l-4.6,0.4l-1.1-0.7l-4.4,0.1l-3.1,3.3l-3.5,0.1l-2.1-1.8l-3.1-1.1l-0.2-1.6l-1.5-1l-0.3-1.7l-2.7-4l-0.9-7l0.9-1.4l-0.4-2.2
		l-1.1,0.4l-0.8,2.1l-3.2,2.8l-2.1,0.2l-0.8-2.9l-1-0.2l-0.8-1.8l-1.2-0.4v-4.9l1.8-4.4l-2.4-0.8l-0.1-1.6l4.9-0.2l4.1,0.5l1.1-1.7
		l-0.3-1.6l-1.8-0.8l-0.8,1.2l-6.3-1.2l-3.2-1.7l-1.4-3.6l2.5-0.4l-0.1-1.4l-1.9-1.1L60,248l1.8-1.6l-1.4-1.2l3.9-3.9l-1.4-3
		l0.6-1.7l-0.2-4.9l-1.6-2.1l0.8-1.3l-1.6-1.5l0.5-3.6l1.2-3.9l0.1-5.7l-2.3-0.1l-2,2.8l-0.5,2.7l-2.1,3.7l-1.4,1l-1.8-1l-3.2,5.5
		l-1.2,2.4L49,233l-4.3,3.9l-0.6,1.3l-2.6,1.3l-0.3,3.5l-1.3,2.7l-4.6-1.2l-1.8,2.2l-5-2.3l-2.2-0.4l-0.8-1.6l-3.1,0.4l-1.4,1.4
		l-1.9-0.5l0.5,2.1l4.7,6.7l-0.9,0.7l-6.3-8.5l-1.9-0.5l-1.9,0.7L9.2,241l3.3-6.8l1.6-7l0.6-7l-3.8-4.8V213l1.1-3.9l-2.7-8.7
		l-5.9-7.5l0.4-1l2.9-0.7l2-1.5l1.4,1l0.7-0.4l-0.1-2l0.6-0.2l1.8,1.4l0.2-2l1.8-1.2L15,188l2-0.1l0.8-2.2l-2.2-1.2l0.8-0.9L19,184
		l-0.4,3l1.5-1.2l1.4,1.1l2-1.5l-0.6,2.5l2.1-0.8l1.3,1.2l3-0.3l0.6-1.8l2,1.1l1.2-1.1l2.5,1.8l5.8-0.3l1.4-7.4l-2.4-0.2l-7.5-4.8
		l-0.1-2.7l1.1-0.8l-1.5-1.5l0.5-0.9l2,0.2l1.6,1l2-0.1l0.4-3.1l-1-0.8l0.4-2.3l-0.8-0.5l-0.8,1.2l-2-3l1.6-1.7l2.3,0.9l1.1-0.9
		l1,0.7l0.9-1.7l-0.9-2.8l-1.5,0.2l-0.1-2.7l1.4-0.4l1.7-2.3l1.1-3l2.2-1l-1.9-2.2l0.3-0.7l1.5,0.8l0.8-0.9l-1.7-2.3l1.1-0.7
		l-0.5-3.2L43.9,136.5z"/>
	<g>
		<text transform="matrix(1 0 0 1 90.3096 178.8294)" class="st1 st2">Narail</text>
	</g>
</g>
<g id="narail-1">
	<polygon class="st3" points="321.7,248.8 322.9,251.8 329.5,260.8 335.7,270.3 339.7,273.5 345.5,277.9 349.9,284.2 350.8,289.3 
		350.3,291.3 347.5,296 347.4,298.9 351.4,302.7 358.5,306.4 364.4,309.2 366.2,310.7 370.6,317 374.3,320.9 377.6,325 380.7,328.5 
		384,333.7 389.6,339.2 392.5,343.3 391.5,345.3 389.9,346.3 385.6,345.7 379.7,345.8 372.5,348.2 368.1,349.9 366.3,352.7 
		365.8,357.4 363.9,362.2 361.6,364.2 358,362.8 354.1,360.9 348,361.7 346.7,360 341.5,359.1 337,355.1 337,353.7 336.2,353 
		334.7,353.8 329.4,353.6 322.4,352 318.7,353.3 311.7,354.1 307.5,352.7 304.5,350.6 301.2,350.6 299.1,351.8 295.8,348.5 
		293.6,348.8 290,351.4 286.5,351.6 286.3,353 287.3,355.1 284.8,358.7 281,359.4 280.6,357.2 281,355.9 278.1,354.9 276.8,352.2 
		275.2,349.3 269.6,349.9 263.2,348.1 261.3,346.3 259.2,346.8 256,351.6 257.8,354.2 257.2,357.5 254.7,360.7 251.3,362 249,361.5 
		242.9,366 239.9,364.8 237.7,367.8 232.6,367.8 233.3,363.2 232.1,358.3 230.6,358.6 230.2,362.8 227.5,365.5 224.7,365 
		223.7,365.8 223.2,368.8 222.4,373.8 217.9,372.8 214.7,371.1 211.9,366.3 208.7,364.9 207.7,360.2 201.3,354.3 195.3,351.1 
		195.1,348.3 197.2,344.3 196.4,342.7 189.3,340.7 186.1,339.9 182.4,337.8 178,338.7 175.2,342.5 173.6,341.8 170.8,346.5 
		170.7,349.1 168.1,351.1 166.2,351.3 164.2,353.3 160,352.4 158,354.6 156.7,353.5 159,350.1 158.8,348 155.1,348.1 151,344 
		150.9,337.7 149.3,332.4 147.5,332.1 145.4,332.9 145.5,328.8 143.2,326.5 143.9,321.3 142,320.5 138.9,321.2 135.6,321.2 
		135.1,319.9 135.6,318.8 137,319.2 137.9,317.6 136.8,316.1 132.9,316 129,314.8 126.2,315 124.1,311.2 124.1,308 123.1,306.9 
		122.9,301.6 119.6,298.2 117.4,296.4 118.3,295 119.3,292.9 121.5,293.7 126,294.3 128.8,292.5 131,291.7 131,290.3 133.7,288.2 
		137.2,288.8 138.2,283.2 139.7,283.1 140.5,281 141.8,280.5 146.9,282 151.4,282.4 152.6,277.7 152.3,272.7 155.7,268.1 
		156.4,265.3 154.6,263.5 155.1,259.5 153.5,255.6 143.5,249.9 140.8,243.1 142.6,241.9 149.1,242.7 152.2,241.7 154.7,238.6 
		155.6,228 159.1,226.5 159.2,222.2 160.8,222.7 160.7,218.4 161.9,217.8 163.9,220.7 162.7,222.9 163.8,223.8 165.6,222.2 
		169.3,223.4 171.1,226 175.8,225.7 180.2,229.4 183.3,233.8 185,233.8 185.7,234.6 183.9,237.9 185.5,240.1 187.3,238.1 
		190.7,237.1 193.2,237.9 199.9,246 203.6,245.7 205.8,241.9 211,240.4 213.4,237.7 221.8,240.2 224.5,239.2 226.6,232.5 232.5,233 
		235.5,230.5 237.3,230.3 241.9,226 246.6,224.8 249.7,227.8 250.6,234.3 255.7,239.6 257.9,238.2 260.3,238.4 263.5,246.1 
		267.3,244.8 268.6,241.6 270.4,241.2 271.2,239.4 273.1,239.2 278.4,233.3 280.3,233 282.5,234.6 283.6,241.7 286.8,242 
		289.4,245.3 295.7,244 301.6,243.9 303.2,246 312.9,248.3 321.3,248.8 	"/>
	<g>
		<text transform="matrix(1 0 0 1 237.5576 274.1869)" class="st1 st2">Kalia</text>
	</g>
	<g>
		
			<ellipse transform="matrix(0.1602 -0.9871 0.9871 0.1602 -81.4011 501.1244)" class="st4" cx="253.8" cy="298.4" rx="13.4" ry="13.4"/>
		<text transform="matrix(1 0 0 1 247.7649 305.6525)" class="st1 st5">1</text>
	</g>
</g>
<g id="narail-2">
	<polygon class="st6" points="99.3,42.9 100.1,40.8 96.9,31.7 99.1,26.6 104.2,28.1 104.6,30.1 106.9,30.4 109,28.9 113.2,30.8 
		115.9,29.6 117,30.7 116.2,32 119.2,34.2 118.9,35.8 121.8,38.6 124,38.6 127.1,37.2 129.2,38.5 129,40.2 131.7,39.7 131.8,41.3 
		134.2,41.1 133.5,43.3 134.3,44.6 133.3,46.7 136.3,47.2 136.5,49.1 140.8,48.6 140.8,45.1 143.6,43.2 144.3,34.6 148.3,33.3 
		150.5,31.6 152.2,25.3 155.1,24.7 156.9,22.8 159.8,23.1 162.2,20.6 170.2,19.9 172,18.6 174.8,14.7 174.2,9.3 175.1,7.9 
		177.7,9.4 185.4,9.6 191.1,7.5 190.7,5.5 192.1,4.9 195.3,6.5 198.4,6.2 199.6,7.4 202.6,7.3 204.7,9.3 208.8,8 216.8,7.2 
		216.9,11.8 215.7,13.1 215.8,16.7 221.1,19.1 223,18.8 228.5,24.2 227.6,26.3 231.5,30.9 238.7,36.2 241.6,37.6 248.6,36.3 
		255.3,36.4 268.8,41.5 273.9,45.6 275.3,47.3 274.7,49.6 270.9,51.1 266.9,51.2 264.8,50.2 257,53 250.6,57.3 243.3,63.3 
		240.5,67.7 239.3,73.6 239.4,85.2 239.6,88.1 244,93 247.8,93.6 253.2,91.8 261.7,87.5 266.5,87.3 269.9,86.3 268.7,83.7 
		270.8,83.4 271.2,85.1 275,84.5 276.1,85.9 277.5,86.2 283.2,93.9 290.9,101.7 292.8,106 292.9,109.8 290.9,114 288.2,116.8 
		291.5,118.5 289.2,123.1 286.4,131.1 284.8,141.5 286,147.1 290.5,158.4 293.1,164.2 296.5,164.9 304.6,161.7 320.5,150.3 
		327.5,148.4 336.8,143 344,142 351.5,142 356.2,143.4 356.7,146.1 352.9,152.1 348.2,163.6 344.7,172.1 337.8,185.5 332.6,195.5 
		325.8,204.7 319.8,209.6 317.1,211.1 312.4,210.7 306.6,207.5 303.6,203 299.2,200.6 294,196.5 285.8,195.7 281,198.1 278.9,204 
		279.3,208.1 284.9,216.1 296.3,228.5 303.5,233.2 313.4,237.3 319.5,238.6 322.1,248.8 312.9,248.3 303.1,246 301.6,244 295.8,244 
		289.3,245.3 286.8,242 283.5,241.7 282.5,234.6 280.3,233 278.4,233.3 273.1,239.2 271.1,239.5 270.5,241.2 268.6,241.6 
		267.3,244.8 263.5,246.1 260.3,238.4 257.9,238.1 255.7,239.7 250.6,234.3 249.7,227.8 246.6,224.7 241.9,226 237.3,230.3 
		235.5,230.5 232.5,233 226.6,232.5 224.5,239.2 221.7,240.2 213.4,237.6 211,240.5 205.8,241.9 203.6,245.7 199.9,246.1 
		193.1,237.9 194.2,234.2 196.5,232.2 199.4,232.9 200.6,232.4 200.7,229.3 203.2,224.4 203.6,220 207.5,206.3 209.2,205.6 
		208.3,203.6 209.5,202.5 211.4,204.4 212.9,202.3 211.5,200.1 213.8,198 213.3,196.9 214.6,195.5 217.3,196.6 219.1,192.6 
		216.9,190.2 215.5,190.3 215,189.1 218.6,188.4 220.5,186.5 221.4,182.3 222.2,173.6 219.4,173 213.9,169 214.9,167 213.6,165.4 
		211.4,166.2 206.5,165.5 203.5,167 202.9,166.6 208,148.4 207.7,146.2 202.5,145.9 201.3,139.8 197.7,137 196,134.5 196.7,133 
		201,131.1 201.3,128 203,127.7 203.4,125.2 205.5,125.3 205.9,120.8 198.9,116.4 194.1,110.5 188.8,106.8 186.6,106.6 183.4,109 
		180.4,108.8 173.6,104.4 170.7,104.7 168.4,103.7 166.3,98.9 161.3,92.1 154.6,89.2 147.4,88 140.9,80.2 135.5,68.6 131.7,64.4 
		127.3,63.3 122,63.4 120.3,62.4 115.8,54.7 111.9,51.9 103.6,49.8 99.5,43.1 	"/>
	<g>
		<text transform="matrix(1 0 0 1 165.834 79.6864)" class="st1 st2">Lohagara</text>
	</g>
	<g>
		<ellipse transform="matrix(0.1891 -0.982 0.982 0.1891 66.5094 354.34)" class="st4" cx="247.8" cy="136.9" rx="13.4" ry="13.4"/>
		<text transform="matrix(1 0 0 1 241.7649 144.1525)" class="st1 st5">2</text>
	</g>
</g>
</svg>
