<?xml version="1.0" encoding="utf-8"?>
<!-- Generator: Adobe Illustrator 25.2.1, SVG Export Plug-In . SVG Version: 6.00 Build 0)  -->
<svg version="1.1" id="Layer_1" xmlns="http://www.w3.org/2000/svg" xmlns:xlink="http://www.w3.org/1999/xlink" x="0px" y="0px"
	 viewBox="0 0 400 349" style="enable-background:new 0 0 400 349;" xml:space="preserve">
<style type="text/css">
	.st0{fill:#ABBEED;stroke:#FFFFFF;stroke-width:0.5;stroke-miterlimit:10;}
	.st1{font-family:'TimesNewRomanPSMT';}
	.st2{font-size:16px;}
	.st3{fill:#FFFFFF;}
	.st4{font-size:24.672px;}
	.st5{fill:#C5CFED;stroke:#FFFFFF;stroke-width:1.033;}
	.st6{fill:#9BB6EA;stroke:#FFFFFF;stroke-width:0.5;stroke-miterlimit:10;}
	.st7{fill:#8BAFE8;stroke:#FFFFFF;stroke-width:0.5;stroke-miterlimit:10;}
</style>
<g id="kushtia-1">
	<path class="st0" d="M91.2,222.3l1.8-0.1l1.4-2l3.8-0.3l1.9-3.8l2.3-1l1.5,0.7l1.8-1.1l3.4,0.6l1.4-4.1l0.8-0.7l-0.4-1.6l4.8-5.4
		l-2.1-1.9l1.4-0.8l-0.8-1.9l1.1-0.7l1.3,1.8l2.1-1.3l6.4-1.7l4.5-0.7l1.8,0.1l2.1-0.7l2.2-0.1l8.7-3l3.7-1.9l4.3-4.1l-0.5-1
		l0.7-0.4l2.1,1.3l1.2-1.2l1.5-5.5l-1.5-7.6l-2-1.8l0.1-2.8l-3.8-6.4l3.8-5.9l3.1-3.6l-0.4-1.6l1.5,0.4l1.7-2.4l1.5,0.3l1.7-1.9
		l0.3-2.8l-0.9-1.9l-1.6-0.1l-1.8-8.5l-0.6-0.3v-4.1h-10.7l-1.9,1.1l-0.6-0.6l0.1-2.2L142,125l-1.2,0.4l-2.3-1.8l-3.1,0.4l-2.3-2.9
		l1.3-2.9l-0.3-1l1.7-0.7l-1.5-5.3l-1.5,0.2l-0.9-0.9l0.6-1.5l-0.4-0.9l-2.9,0.7l-1.8-2.5l1.2-2.7l1.3-0.5l0.8-5.4l3.5-4.8l1.8-4.7
		l1-19.2l-0.3-3.4l1.3-0.3l-0.8-4.2l-0.9-2.3l-0.8,0.6l-1.2-0.9l0.8-2.3l-0.3-1.4l2.4-2.4l-0.7-1l-2.9,0.5l-2.6,1.5l-2.6,0.3
		l-1.2,2.4l0.6,0.9l1-0.6l0.8,1.1l0.2,4.2l-0.8,0.9l-10.9,4.1L114,69l-1-0.7l-4.3,2.4l-0.9-0.6l2.9-2.4l2.6-2.5l-1.4-4.9l-3.2,0.9
		l-2.2,1.5l-2.6-0.2l-1.5,0.9l-0.2,1.1H101v-2.2l-2.3-2.1L97.4,60l-7.8-7.2l-2.4,2.4l-6.4,1l-4.6,0.1l-6.1-1.9L63.8,52l-8.9-5.2
		l-3.3-4.6l-6-6.2l-7.4-7.8l-6.1-10.3L28.6,9L21,9.1l-2.2-0.4l-1.4-1.6l-0.6,0.8l1.6,4.9L16.3,15l-0.9,5.1l-1.9,1.7l-1,2.5l-1.5,1
		l-2,3.1l-1.5-0.2l-1.4,1.6L6,38.3L7.9,43l3.2,2.7v5.6l0.7,4.1l-2.9,7.1L7,67.3l-0.5,6.5l-1.7,2.6L7,77.1l6.1-5.5l4.7-1.6l3.3,1.3
		l0.8,6.3L20,84.4l-1.8,5.1l0.2,3.4l1.5,2.4l2.3,0.3l2.5-1.2l1.7,1.5V98l-2.9,0.4l-2.9,2.5l0.3,3.1l1.2,0.6l2.4-0.2l2.7,2.4l0.4,4.8
		l-2.2,1.1l0.1,1.2l3.3,0.8l0.8,1.4l-5.2,7.4l0.2,3l-1.9,2.7l0.2,1.6l-1.2,4.4l-0.1,5.2l1.7,0.9l1.9-0.9l4.8-6.7l1.2-0.6l7.6-0.4
		l2.4,2.1l0.7,2.9l-1,1.4l2.4,4.3l-0.1,2.5l2,2.2l-0.2,1.1l-2.7,0.2l-7.6-3.2l-7,0.1l-2.6,3.7l0.6,3l-0.4,3.2l-0.3,2.3l0.1,1.3
		l2.3,1.4l3-0.7l3.3-3.6l2.1,0.3l3-1.9l2.4,1.4l0.3,3.2l1.4,1.4l0.4,5.4l2.3,1.7l2.2,1l1.7,1.7l2.2-1.9l-1.1-2.9l0.7-3.6l-1.2-3.4
		l2.2-2.9l1.7-0.7l2.9-3.6l4.4,0.2l4.2,1.3l0.7,3.8l2.5,3l0.4,1.9l-0.9,3.2l0.6,2.3l-1.2,4.5l2.5,3.7l-1,2.9l3.2,2.2l0.4,2.4h1.7
		l0.7-2.6l-0.3-1.9l3.2-1.1l1.1-1.7l2.7-0.4l4.3,2.1l3.7,0.3l4.4,3.4l2.5,2l2.2,3.7l3.3,2.3l0.6,2.9l3,2.8l0.2,3.8l0.8,4l-2,3.3
		l-2.2,5.2l-2.2,1.6h-2.2l-2.4,1.8l-2.9-0.9h-2.3l-1.4-0.7l-3.6,0.8l0.3,2.3l2.9,2.6c0,0,1.4,1.7,1.5,1.8
		C90.6,221,91.2,222.3,91.2,222.3z"/>
	<g>
		<g>
			<text transform="matrix(1 0 0 1 47.0563 132.1655)" class="st1 st2">Daulatpur</text>
		</g>
	</g>
	<g>
		<circle class="st3" cx="79.5" cy="98.5" r="13.4"/>
		<text transform="matrix(1 0 0 1 73.5419 105.8163)" class="st1 st4">1</text>
	</g>
</g>
<g id="kushtia-2">
	<polygon class="st5" points="136.6,58.9 139.8,56.8 144.8,52.4 145.6,52.7 149.7,56.3 154,57.9 159.5,58.3 164.3,59 173.3,59.7 
		179.7,60.1 186,62 189.8,67 192.3,72.6 197,79.3 197.4,82.4 198.3,86.4 199.1,88.5 199.4,93.3 201.9,101.9 204,108.1 205.6,113.3 
		206.3,118.2 207.3,119.8 207.8,124.3 209.4,128.9 212.7,136.4 214.6,140.2 212.3,140.7 209.8,142.6 204.6,144.1 201.8,144.9 
		196.7,143.9 193.3,142.9 190.3,146.9 188.1,147.3 186.3,146.2 177.8,147.7 175.7,146.7 173,143.9 171.3,140.2 171.5,138.8 169,137 
		166.7,137.7 165.6,137 165.5,135.4 162.5,134.6 161,132.6 159.4,133.1 158.7,132.8 158.7,128.7 148,128.7 146.1,129.8 145.5,129.2 
		145.6,127 142.2,124.9 141,125.2 138.6,123.5 135.6,123.9 133.3,121 134.6,118.1 134.3,117.1 136,116.4 134.4,111.2 133,111.4 
		132.1,110.5 132.7,109 132.2,108.1 129.4,108.8 127.6,106.2 128.9,103.6 130.2,103.1 131,97.7 134.5,92.9 136.3,88.2 137.3,69 
		137,65.6 138.3,65.3 137.5,61.1 136.7,59 	"/>
	<polygon class="st5" points="214.6,140.2 216.2,141.7 217.4,146.7 220.4,150.7 224.3,153.9 227.9,154.7 232.2,155.1 236.5,156.2 
		236.4,160.4 236.4,162.9 237.1,164.5 236.3,166.4 237.6,166.9 240.2,167.3 240.5,173 236.8,173.7 235.6,173.5 233,172.3 232,174.4 
		230.4,174.3 230,178.2 228.5,182.5 228.9,188.2 228.4,190.3 230.5,192 233.5,193.6 233.5,195.2 234.8,196.4 234.9,197.3 
		233.6,197.5 232.6,198.8 229.8,199.8 225.9,203.4 224.2,203.6 223.4,204.7 224.3,207.5 227.1,208.1 226.8,209.5 228.8,210.8 
		229.8,210.3 231.4,211.2 232.7,214.8 232.3,215.7 231.4,216.6 229.5,216.8 227.5,215.9 226.3,216.9 222.1,216.1 221.1,214.6 
		219.6,216 218.2,215.4 217.3,216.6 214.1,216 212.7,216.7 212.7,220.2 214.2,221.9 214.9,225.6 213.2,226.9 210.8,227.4 
		209.5,226.1 207.1,225.7 206.1,228.1 204,227.5 198.3,230.2 197.8,232.5 196.4,233.1 195.2,234.7 192.8,234 190.9,240.1 
		190.6,242.4 191.6,243.2 191.3,245.9 186.4,245.5 186,246.2 186.8,246.8 186.9,249.9 187.3,251 186.5,251.4 182.1,252.1 
		180.9,253.5 179.8,256.9 178.8,260.6 177.5,265.8 176.9,267.5 175.7,268.5 176.4,269.9 175.3,271.8 173.4,273.7 174.1,275.9 
		173.4,276.8 172,276.7 171,274.5 167.3,274.1 165.7,271.6 165.8,267 161.9,262.7 159.8,260.8 155.2,260.6 152.9,262.8 150.9,266.2 
		150.6,267.4 148.6,266.8 145.6,264.4 144.3,264.9 144.8,267.6 145.9,269.9 145,270.4 142,269 139.7,269.7 138.1,272.4 138.4,274 
		135.5,276.1 131.6,277.7 127.4,277.4 127.3,273.9 129.8,269.4 131.8,266.8 131.5,262.2 131.5,259.9 133.7,258.8 135.4,257.1 
		135.5,255.3 134.5,253 133.2,250.9 129.9,249.9 127.9,249.2 126.4,243.2 124.7,242.3 120.7,248.5 119,249.5 117.1,249.3 
		111.4,245.9 105.9,244.7 100.8,246.7 98.9,248.2 97.7,247 96.6,245.2 96.7,241.3 98.7,238.9 98.7,234.4 100.8,231.7 102.1,229.6 
		104.5,228.5 106.8,228.3 109.2,224.5 112.7,221.7 112.4,219.4 109.3,216.9 109.2,215.3 110.6,211.3 111.5,210.5 111.1,208.9 
		115.8,203.4 113.8,201.6 115.2,200.8 114.5,198.9 115.5,198.2 116.8,199.9 118.9,198.7 125.3,197 129.8,196.3 131.6,196.4 
		133.7,195.7 135.9,195.7 144.6,192.7 148.3,190.8 152.7,186.7 152.2,185.8 152.8,185.4 154.9,186.6 156.1,185.5 157.6,179.9 
		156.1,172.3 154.1,170.5 154.2,167.7 150.4,161.3 154.3,155.3 157.3,151.7 156.9,150.1 158.4,150.5 160.1,148 161.7,148.3 
		163.4,146.4 163.7,143.6 162.8,141.7 161.2,141.6 159.4,133.1 161,132.6 162.5,134.6 165.6,135.4 165.6,137 166.7,137.7 169,137 
		171.5,138.8 171.4,140.2 173,143.9 175.7,146.7 177.8,147.7 186.3,146.2 188.1,147.3 190.3,146.9 193.4,142.9 196.8,143.9 
		201.8,144.9 209.8,142.6 212.3,140.7 214.4,140.3 	"/>
	<g>
		<g>
			<text transform="matrix(1 0 0 1 148.5903 209.9077)" class="st1 st2">Mirpur</text>
		</g>
	</g>
	<g>
		<g>
			<text transform="matrix(1 0 0 1 145.4526 106.1469)" class="st1 st2">Bheramara</text>
		</g>
	</g>
	<g>
		<circle class="st3" cx="189.5" cy="167.5" r="13.4"/>
		<text transform="matrix(1 0 0 1 183.5419 174.8163)" class="st1 st4">2</text>
	</g>
</g>
<g id="kushtia-3">
	<path class="st6" d="M237,164.5l2.7,0.3l1.1-0.5l1.6,0.7l5.6-0.5l8.4-0.1l1.3,1.9l3.6,3.1l1.7-1.4l2.7,2.6l5.2,0.7l3.6-0.6l2.2,0.9
		l4-1l2.4-4.3l1.4-0.3l1.2-2.7l-1-0.9l0.4-1.6h3l4.9,4.3l1.9,5.3v0.7l-2.2-0.7l-1.8,4.2l-6.5,3.2l-6.2,1.6l-0.4,1.3l1.5,1.5
		l-1.1,1.7l-0.5,2.5l-4.3,1.2l-2.3,2.3l-6.7,2.3L263,194l-0.6,3.1l3.8,2.3l5.6,2.1v2.3l-2.8,2.8l0.4,5.4l4.2,4.7l-1.4,2l-1.6,0.1
		l-0.4,2l-1.5,2.3l-0.4,1.8l0.7,0.6l1.1-1.3l1.6,0.2l0.3,1.3l-1.5,3.7l-1,1l0.2,3.5l2.3,2.3l3.3,0.9l0.1,1.5l-1.7,1.1l0.2,2.9
		l3.2,2.8v1.4l-1.1,1l-3.1,0.5l-1.6,1.8l0.1,2.6l-2.1,0.8l-2.8,0.2l0.2,2.4l0.9,0.5l0.5-0.8h2.7l0.2,1.7l-0.5,1.4l1.7,1.2l-1.1,2.6
		l-0.2,3.8l0.8,1.5v1.6l2.6,1.1l3.5,0.9l0.4,1.1l-0.9,2.2l-1.1-0.3l-1,1.7l0.1,1.2l-2.2,2.8h-2l-1.1-0.8l-5,0.6l-0.5,2.2l0.2,3.6
		l-1.6,3.4l0.9,7.2l1.6,0.4l3.4-0.3l5.2,5.2l2.3,0.7l3.4,3.3v0.8h-1.2l0.4,1.9l-1.2,1l-3.2,0.1l0.1,4.7l-1,4.7l-7.8-0.4l-1-2.1
		l-2.9-0.2l-1.2,2.2l-5.1,0.3l0.3,2.9l-2.6,0.7l-1.3,1.6v3.7l1.6,3.3l-1.6,2.5l-0.2,1.9l-0.9,0.9l-2.7-2.2l-0.4-2.8l0.5-1.1l-2-2.8
		l0.1-1.7l1.2-2l0.5-3.3l2.5-2.5l0.8-2.4l-0.3-4.2l-2.8-2.2l-2.3,0.4l-2.3,4.5l-1.7,2l-2.2,0.1l-2-2.5l-0.1-6.2l-3.5-3.4l-3.5-0.1
		l-1.5-1l0.3-2.2l1.3-3.7l-0.4-2.1l-1.6-1.2l-4,2.3l-1.7-0.4h-1.9l-0.1-3.9l2-2.8l-0.1-2l-2.5-1.2l-3.3-0.2l-3.1,1.9l-3,2.6l0.1,5.8
		l1.5,2.6l1.8,2.2l0.7,2.7l1,1.5l0.4,4.1l1.5,1.5l2.7,0.4l3.6,2.3l0.6,1.1l-0.8,1.3l-3.2,0.8l-2.8,2.5l-4.4,1l-1.6-0.4l-1.6-2.3
		l-1.6-1.3l-2.3-2.5l-1.6-0.1l-2.7,3.1l-1.1,1.3l1,1h2.8l5.2,2.9l0.8,1.4l-1.5,2l-2.8,4.7l-3,5.1l-1.8,1.4l-2.7,0.1l-2.9-1.8
		l-3.6-1.8l-1.2-1.6l-1.5-3.9l-2.4-4l-1.3-3.7l-2.4-3.8l0.2-2.8l1.8-3.6l-0.7-6l-2.3-4l-2.4-0.8l-5-0.1l-1-1.4l1-2.4l3-4.4l3.6-7.5
		l1.7-5.7l-0.6-2.1l-1.6-0.7l-1,0.9l-0.4,3.1l-1.7-0.7l-2.6-0.9l-2.8-0.4l0.4-0.5l-0.7-2.1l2-2l1-1.9l-0.6-1.3l1.1-1l0.7-1.7
		l1.4-5.9l1.9-6.4l1.2-1.4l4.4-0.7l0.8-0.5l-0.4-1.1l-0.2-3.1l-0.7-0.6l0.5-0.6l4.8,0.3l0.3-2.7l-0.9-0.8l0.3-2.4l1.9-6l2.3,0.6
		l1.3-1.6l1.3-0.5l0.5-2.3l5.7-2.7l2.1,0.5l1-2.3l2.3,0.4l1.2,1.2l2.5-0.5l1.7-1.3l-0.7-3.7l-1.4-1.7l-0.1-3.6l1.4-0.7l3.3,0.6
		l0.8-1.2l1.4,0.7l1.5-1.4l1,1.5l4.2,0.8l1.2-0.9l1.9,0.9l1.9-0.2l1-1l0.4-0.8l-1.3-3.6l-1.7-0.8l-1,0.5l-2-1.4l0.3-1.4l-2.9-0.5
		l-0.9-2.9l0.8-1.1l1.8-0.2l3.8-3.7l2.8-1l1-1.3l1.3-0.1l-0.1-0.9l-1.3-1.3v-1.5l-3-1.6l-2.1-1.7l0.5-2.1l-0.4-5.8l1.5-4.2l0.4-3.9
		l1.5,0.1l1-2.1l2.6,1.2l1.2,0.2l3.7-0.7l-0.3-5.8l-2.6-0.3l-1.3-0.5l0.7-1.7L237,164.5z"/>
	<g>
		<g>
			<text transform="matrix(1 0 0 1 215.458 239.3774)" class="st1 st2">Kushtia</text>
		</g>
	</g>
	<g>
		<circle class="st3" cx="242.9" cy="259.2" r="13.4"/>
		<text transform="matrix(1 0 0 1 236.8752 266.4829)" class="st1 st4">3</text>
	</g>
</g>
<g id="kushtia-4">
	<path class="st7" d="M285.5,160.7l0.1-1.5l1.4-1.7l-0.7-2.3l-2.1-0.7l-0.4-2.8l1.1-3.3l0.1-0.9h4.1l1.9-0.4l8.3,0.2h1.3l2.2-1.1
		h4.7l0.8,1.3l-0.9,5.6l-0.2,3.5l1.1,1l2.3-0.2l3-1.6l2.2-1.6l1.6,1.5l1.9,0.5l-0.5,3.8l-0.9,5.3l0.5,9.5l2,1.4l0.3,1.6l2.3,0.6
		l0.3,1.6l1.4,0.1l0.6,1.5h2l1.3,4.9l-0.6,1.8l2.2,5.2h2l0.2,1.9l0.9,1.2l0.4,5.1l-1.5,0.8l0.9,1.5l0.6,6.3l1.1,3.1l3.6,3l3.1,1.5
		l1.1-1l-1.2-1.2l-1.2-3.4l0.6-5.2l0.3-5.5l1.4-2.1l2.1-0.5l1.7,1.6l0.3,3.4l4.6,2.2l5,3.3l3.9,0.6l2.2,5.8l2.4,2.6l1.9,0.6l0.1,1.1
		l-3.9,0.9l-5.9-0.6l-2.3,0.1v2.2l2.4-0.5l3,0.1l-0.5,2.6l-1.4,2.6l-2,0.7l-2.8-1.1l-1.7,3.2l0.5,1.7l4.5,0.9l0.1,1.4l-1.8,0.2
		l-1.7,1.3l3.1,4.1v2.8l-2.5-0.7l-2.1,4.3l0.2,3.2L351,251l-1.4,0.1l-1.2-1.4l-7.1,0.4l-1.7-1.7L337,247l-2.1,1.3l-1.5,5.8l0.9,0.6
		l-1.2,2.6l-2.3,4l-2.2,0.6l-0.2,1.7l1.5,1.4l-0.1,3.3l-2.2,0.1l-0.2,1.7l-1.1,0.6l1.5,1.6l-1.8,7.2l1.6,4.7l-2.3,6.1l0.9,0.8
		l-2.3,2.6l-2.8-0.7l-0.7,0.8l-0.3,1.9l-1.8,1.3l-1.8-2l-1.4,0.5l-2.3-2.2l-2,1.1l-1.4-0.4l-2,2.4l0.8,1.5l-1.1,0.9l-2.4-0.4l-2,3.8
		l-1.6,0.5l-2.6,2.1l-1.6-1.1l-3.7-0.3l-1.5-1.1l-1.8-1.3l-0.9,1l-1-0.4l0.2-1.6H287l-0.1,2l-1.7,0.8l-1.2-0.4l-0.8,0.8l0.1,1.9
		l-0.9,1.6c0,0-1.7-0.2-1.6-0.2s-1.5-0.1-1.5-0.1l-0.1-0.8l-3.4-3.3l-2.3-0.6l-5.2-5.3l-3.4,0.3l-1.6-0.4l-0.9-7.2l1.6-3.4l-0.2-3.6
		l0.5-2.2l5-0.6l1.1,0.8h2l2.2-2.8l-0.2-1.2l1-1.7l1.1,0.3l1-2.2l-0.4-1.1l-3.5-0.9l-2.6-1.1l0.1-1.6l-0.8-1.5l0.1-3.8l1.1-2.5
		l-1.6-1.2l0.5-1.4l-0.2-1.7h-2.7l-0.6,0.8L266,256l-0.2-2.4l2.7-0.1l2.2-0.8l-0.1-2.6l1.6-1.8l3.1-0.5l1.2-1v-1.4l-3.2-2.8
		l-0.2-2.9l1.7-1.1l-0.1-1.5l-3.3-0.9l-2.3-2.3l-0.2-3.5l1-1l1.5-3.7l-0.3-1.3l-1.6-0.2l-1.1,1.3l-0.7-0.6l0.4-1.9l1.5-2.3l0.4-1.9
		l1.5-0.1l1.4-2l-4.2-4.7l-0.4-5.4l2.8-2.8v-2.3l-5.6-2l-3.8-2.3l0.6-3.1l1.4-1.8l6.7-2.3l2.3-2.3l4.3-1.2l0.5-2.5l1.2-1.7l-1.5-1.4
		l0.3-1.3l6.3-1.6l6.5-3.2l1.8-4.1l2.2,0.7l0.1-0.8l-1.9-5.3l-4.9-4.3L285.5,160.7z"/>
	<polygon class="st7" points="366.6,220.3 368.5,218.7 373.3,218.2 378.4,216.1 383.6,212.5 385.9,210.9 387.1,210.8 389.4,215.5 
		391.4,214.8 391.9,213 395.4,214.6 395.5,219.5 397.3,223.1 396.3,224.1 393.2,224.1 393,226.2 392.2,227.8 390,228.2 389.9,230.8 
		389.6,235 388.5,237.2 389.5,239.9 389.1,242 387.1,242.7 384.7,244.3 383.9,245.9 382.7,246.5 382.2,248.7 380.6,249.2 379.8,252 
		380.9,253.1 379.5,259 378.7,260.2 378.6,261.9 377,263.7 376,265.9 375.7,272.5 374,272.9 374,274.8 376.2,275.5 376.3,278.4 
		376,279.7 374.8,279.8 374.9,280.9 375.8,281.7 374.7,284.3 372.2,284.1 371,283.6 369.9,284.6 366.4,284 365.3,284.4 366.2,286.1 
		364.3,287.9 364.4,289.4 366.7,290 368.9,289.1 370.7,289.5 371,290.7 369.6,295.2 367.7,298.8 367.2,301.5 366.1,302.4 
		364.3,302.3 363.5,303.7 361.2,303.4 360.4,305.3 358.5,305.6 357.8,307.5 355.2,309.5 348.2,309.2 345.3,307.2 343.6,306 
		339,305.6 336.9,304.1 334.4,299.3 332.6,295.4 328.3,291.2 325.7,290.8 324.9,290.3 327.2,284.1 325.6,279.5 327.3,272.3 
		325.9,270.7 326.9,270.1 327.2,268.4 329.3,268.4 329.5,265.1 328,263.7 328.2,261.9 330.4,261.4 332.7,257.3 333.9,254.8 
		333,254.2 334.6,248.4 336.6,247.1 339.2,248.5 341,250.2 348,249.8 349.3,251.2 350.7,251.1 351.6,249.6 351.4,246.4 353.6,242.1 
		356.1,242.7 356.1,240 353.1,235.9 354.7,234.6 356.5,234.5 356.4,233.1 351.9,232.2 351.4,230.6 353.2,227.3 356,228.5 358,227.7 
		359.3,225.1 359.8,222.6 356.9,222.5 354.5,223 354.6,220.7 356.9,220.6 362.8,221.2 366.4,220.4 	"/>
	<g>
		<g>
			<text transform="matrix(1 0 0 1 275.0889 226.4165)" class="st1 st2">Kumarkhali</text>
		</g>
	</g>
	<g>
		<g>
			<text transform="matrix(1 0 0 1 294.4307 277.9253)" class="st1 st2">Khoksa</text>
		</g>
	</g>
	<g>
		<circle class="st3" cx="351.1" cy="247.7" r="13.4"/>
		<text transform="matrix(1 0 0 1 345.1252 254.9829)" class="st1 st4">4</text>
	</g>
</g>
</svg>
