<?xml version="1.0" encoding="utf-8"?>
<!-- Generator: Adobe Illustrator 25.2.1, SVG Export Plug-In . SVG Version: 6.00 Build 0)  -->
<svg version="1.1" id="Layer_1" xmlns="http://www.w3.org/2000/svg" xmlns:xlink="http://www.w3.org/1999/xlink" x="0px" y="0px"
	 viewBox="0 0 400 356.7" style="enable-background:new 0 0 400 356.7;" xml:space="preserve">
<style type="text/css">
	.st0{fill:#ABBEED;stroke:#FFFFFF;stroke-width:0.5;stroke-miterlimit:10;}
	.st1{font-family:'TimesNewRomanPSMT';}
	.st2{font-size:16px;}
	.st3{fill:#FFFFFF;}
	.st4{font-size:24.672px;}
	.st5{fill:#C5CFED;stroke:#FFFFFF;stroke-width:1.033;}
	.st6{fill:#9BB6EA;stroke:#FFFFFF;stroke-width:0.5;stroke-miterlimit:10;}
	.st7{fill:#8BAFE8;stroke:#FFFFFF;stroke-width:0.5;stroke-miterlimit:10;}
	.st8{fill:#7CA7E5;stroke:#FFFFFF;stroke-width:0.5;stroke-miterlimit:10;}
	.st9{fill:#6899E0;stroke:#FFFFFF;stroke-width:0.5;stroke-miterlimit:10;}
	.st10{fill:#D0D6EC;stroke:#FFFFFF;stroke-width:1.033;}
</style>
<g id="Jashore-1">
	<polygon class="st0" points="80.3,107.2 79.1,107.6 79.1,109.4 76.9,113 75.9,116.4 76.1,118.8 74.8,119.9 74,113.5 69.6,112.9 
		67.9,112.9 66.4,114.3 64.6,114.6 64.5,118.3 62.3,119.7 58,120.4 56.9,123 54,122.8 53.5,124.8 51.9,125.2 50.5,129.1 51.9,130.9 
		51.1,131.6 48.1,130.1 48.1,131.8 50,132.8 50.4,136 50,140.8 49.7,142.9 45.9,141.5 43.7,143.7 43.6,146.3 43.2,148.8 42.3,150.9 
		38.9,149.8 37.7,151.6 35.2,153.7 35.5,155.2 32.7,159.4 32.3,160.9 30.3,161.4 27.7,163.3 26.6,163.5 24.2,162.1 23.6,163.1 
		24.4,165 22.8,165.6 21.7,164.2 20.5,165.6 19.5,165.1 16.5,167.2 14.9,167.3 15,168.8 16.3,168.8 18.8,171.8 18.6,173.5 
		16.7,174.1 16.4,175.7 14.4,175.8 13.8,177.5 14.4,178.7 13.1,179.5 14.2,180.3 13.7,181 11.8,180.1 11.2,180.7 14.8,184 
		15.6,186.5 17.9,187.8 18.6,190.1 19.2,190.8 18.4,193.8 19.2,200.7 21.4,202.5 23.9,202.9 23.8,204.9 21.6,207.2 22.6,210.4 
		17.9,214.7 17.5,216.2 18.5,220.1 20.9,220.5 22.2,221.6 22.3,222.9 20.5,224.7 16.6,222.8 10.9,222.4 7.1,221.5 3.4,219.7 
		2.7,220.9 4.5,223.6 6.5,225.2 11.7,225.1 13.6,225.7 13.9,228.4 12.9,231.5 13,234.1 13.9,236.7 16.6,239.4 16.4,240.9 
		12.2,243.2 9.1,245.3 7.9,247.9 7.4,251.4 9.1,257.6 10.1,260.9 11.1,261 15,255.8 17.1,256.5 19.5,258 21.3,254.2 25.4,254.2 
		28.9,255.4 28.5,259.6 28.3,263.9 25.7,266.1 25.2,267.9 25.9,268.7 28.1,270.5 33,272.1 35.5,273.5 36.9,274.9 39.4,273.7 
		39.8,272 42.8,271.7 42.9,273.8 40.5,275.2 40.6,276.7 42.2,276.8 41.8,278.8 46.4,278.1 46.5,276.3 48.6,274.5 49.6,275.6 
		48.1,276.8 51.5,277.9 51.6,279.2 52.7,279.2 53,277.6 54.2,277.5 54.7,279.1 55.7,278.8 56.8,275.9 56.4,274.6 58.3,274.5 
		58.1,273.4 60.3,273.6 60.6,275.5 62,276.5 63.2,276.5 61.9,278.4 62.8,278.7 65.4,278.1 67.3,274.7 68.9,275.6 70.3,274.5 
		72.5,277.3 73.4,277.2 73.7,274.1 76.6,274.1 81.2,277.6 82.6,277.1 80.7,275.6 80.5,274.4 82,275 82.2,273.5 80.3,270.6 
		81.4,269.7 81.5,267.8 79.5,266.3 79.9,265 78.6,264.6 79.1,262.2 80.6,259.9 79.2,256.9 80.5,251.8 79.2,246.4 77,243 80.6,239.8 
		81.7,237 80.3,231.4 81.6,230.3 85.8,230.3 88.4,225.8 86.5,223.5 88.6,217.5 91.4,214.4 91.4,211.9 90.3,210.6 87.8,210.4 
		87.2,208.5 89.7,205.4 87.5,203.4 88,200.7 89.4,200.7 90.1,199.2 88.9,196.1 88.9,190.9 87.7,189.3 86.6,184 88,182.8 86.4,175.8 
		88.9,175.1 89.7,173.2 85.5,172 84.3,170.6 84.9,167.1 87,165.4 91.4,167 92.8,165.6 89.4,159.9 91.3,158.8 90.8,153.3 88.6,150.8 
		88.7,147.2 91.3,147.2 93.9,145 90.8,140.9 88.5,141.6 88.7,143.2 87.8,143.9 84.7,142.7 84,139.7 85.8,134.6 85,132.6 86.4,131.8 
		88,128.6 91.2,127.2 90,121.3 88.2,117.7 90.7,113.4 89.5,111.4 87.6,112.2 85.5,108.7 83.6,108.1 80.5,107.4 	"/>
	<g>
		<g>
			<text transform="matrix(1 0 0 1 33.0283 183.5052)" class="st1 st2">Sarsha</text>
		</g>
	</g>
	<g>
		<circle class="st3" cx="55.5" cy="207.1" r="13.4"/>
		<text transform="matrix(1 0 0 1 49.4585 214.4185)" class="st1 st4">1</text>
	</g>
</g>
<g id="Jashore-2">
	<polygon class="st5" points="70.6,45.2 69.6,39 67.4,36.4 68.1,33.3 69.8,33.2 77.4,27.4 76.9,26.1 77.6,25.7 82.2,26.3 86.9,26.4 
		88.6,25.4 90.8,26.1 93.2,28.1 94.7,26.4 96.1,26.2 98.2,24 101.9,23.6 105.3,22.2 107.2,23.1 108.4,22 108.4,19.9 103.5,19.5 
		101.6,15.3 96.8,14.6 95.6,12.8 96.3,10.9 99.5,10.9 100.9,11.8 102.5,10.3 101.8,8.5 106.4,8.2 106.6,9.5 107.9,9.4 108.3,10.5 
		109.2,10.4 109.8,9.2 112.6,9.9 112.7,12.5 111,15.8 112.9,17.8 113.7,16.5 116.4,18.1 118.4,18.4 118.9,17.2 121.8,17.3 
		122.5,17.8 123.7,16.1 126,15.9 126.9,17.4 126,19.8 128,19.7 128.6,21 127.6,21.6 127.4,23.4 126.2,25.4 124.4,26.1 123.1,25.1 
		122.5,27.1 120.3,26.9 120.1,29.6 118.4,30.3 118.7,32.6 119.5,32.8 120.7,34.9 123.9,36.8 124.4,43.4 126.2,49.4 130.8,48.1 
		135.9,48.8 141.3,52.5 144.8,55.2 146.3,57.3 147.3,56.6 146.7,55.2 147.5,54.9 149.1,57 149.3,60 147.7,62.1 152.1,65.1 
		156.5,66.9 159.7,68.4 158.6,73.3 156.9,73.4 156.9,75.9 154.9,77.8 152.9,77.2 150,77.5 147,81.2 148.1,81.5 147.9,82.3 
		145.6,83.4 144.8,86.1 145.8,87.2 145.8,88.2 147.1,89.6 148.1,91 149.9,95.9 150.3,99.8 152.8,102.9 151.3,105.7 150.4,104.3 
		149.5,104.8 149.8,111 148.6,115.6 146.7,115.9 144.9,118.4 142.7,119.5 144.3,121.3 144,122 142.8,121.7 140.7,118.8 138.1,117.2 
		137.5,118.8 134.5,118.4 133.2,119 133.1,120.8 132.1,121.6 132,123.3 130.3,125.6 127.8,125.5 125.2,123.9 123.5,123.9 
		122.9,125.8 119.9,126.3 117.3,128.3 113.3,125.3 107.7,125.5 106.4,124.6 105.7,122.4 107.5,122.1 114.6,121.8 116.9,120.3 
		117.7,118.4 117.4,115.6 110.6,110.4 105.4,110.6 101.5,106.2 97.4,103.9 89,103.9 85.8,105.6 83.6,108.1 80.2,107.3 80,105.8 
		76.5,104.2 76.8,102.1 79.3,100.9 82.3,103 85,103.3 85.4,102.3 80.7,100.5 79,96.9 78.2,100.2 76.8,99.8 77.4,96.5 74.8,96.3 
		77.4,101.2 75.8,102 72.7,96.7 68.6,99.7 68.9,101.2 67.1,102.2 64.6,102.5 64,103.4 61.1,103.7 58.8,105.9 56,105.8 49.6,102.7 
		49.8,100.3 48.3,99.1 47.2,100.6 46.3,100 46.2,98.7 43.5,97.5 43.4,98.5 45,99.5 44.6,100.5 42.9,101.9 41.2,101.1 42.2,98.6 
		42.6,96.2 41.8,94.6 41.6,91.5 40.1,88.8 36.4,88.6 33.4,91 32.7,89.6 31.2,89.8 31.3,91.2 28.5,91 28.3,87.3 29,84.8 28.1,83.1 
		29,81.3 30.4,82 31.5,81.4 36.2,82.3 40.5,79.3 38.2,76.1 36.3,76.9 35.7,75.5 36.8,74.6 36.3,72.8 37.4,72.5 38.2,73.7 39.8,72.6 
		39.7,71.3 41.5,71.9 43.4,68.2 42.9,67 40.1,65.8 40.9,64.7 40.5,64 39.4,64.9 37.1,62.7 36,62.7 34.6,64.2 34,63.5 34,61.7 
		38,61.8 39.6,61 41.2,62.7 42.9,62 44.5,63.7 46.6,63.5 47.5,61.9 50.8,61.8 51.6,60.8 52.2,57.3 53.3,57.3 55.1,58.9 55.8,58.6 
		55.1,57.1 55.9,56.9 57.9,59.1 59.4,57.8 59.8,59.2 60.9,58.2 62.7,59.7 63.7,58.7 65,59.7 66.8,59.3 67.3,57.7 68.2,57.3 
		69.4,58.2 70.2,57.6 70.5,52.7 68.4,51.4 69.2,50.2 67.2,49.4 67.7,48.1 69.5,47.5 	"/>
	<path class="st5" d="M80.7,260l2.2,0.2l2.6-0.7l8.4,0.1l5.1,5.1l7.3,5.5l1.2-1.3v-1.5l1.4-0.7l0.5-1.7l-1-0.8l1.4-1.9l1.6,0.3
		l0.2,5.2l2.5,1.9l1.6-0.3l-0.1-1.9l2.1,0.2l0.7-1.3l1.9,1.4l3.2-0.5l1.8,1.1l2.6-3.7l1-0.1l1.1,1.7l1.4-0.8l-1.2-2.6l0.3-2.1
		l4.8-5.3l3.3-0.6l1.3-2.3l-2.5-3.3l0.7-1l4.8,1.5l3.6-0.2l1.1-1l-1.5-4.1l0.9-1.7l4.9,1l1.4-1.9v-6.8l-1.1-0.7l-2.8,0.2l-4.2-2.7
		l-3.2,0.4l-9.2,6.1l-3.9,2.5l-2.4-0.5l-1.9-6.7l0.8-7l7.6-9l5.8-7l3.7,0.1l1.2-1.4l-4.3-7.1l0.3-2.6l6.2-6.7l3.4-4.6l1.1-6.6
		l-2.3-5.1l1.9-0.7l3.3,1.2l3.3-1.5l2.7,0.5l3.6,0.7l2.2-1.4l1.8-0.1l0.6,2.7l1.8-0.3l1.3-1.2l1.3-2.8l-2.7-3.7l-0.8-4.5l2.2-2.2
		l-1.1-1l-7.8-0.8l-3-2.1l-0.4-2.4l-2.1-0.2l-0.2-1.3l3.4-0.2l3.9-2.4l-0.2-1.4l-3.7-1.8l-4.4,0.4l-4.1-2.1l-0.3-1.7l-3,0.9l-1.2-1
		l0.5-1.4l-1.2-2.1l-1.1-2.4l0.7-2l-1.7-2.3l1-2l-0.6-1.7l-2-0.4l-0.2-1.1l1.5-3.4l-1.3-1.9l0.8-3.9l-2.2-3l-2.5-1.4l-0.7,1.5
		l-3-0.3l-1.3,0.6v1.7l-1,0.9l-0.1,1.7l-1.7,2.3h-2.6l-2.6-1.7l-1.6,0.1l-0.6,1.9l-3,0.5l-2.6,2l-4-3.1l-5.6,0.2l-1.3-0.9l-0.6-2.2
		l1.8-0.3l7-0.2l2.3-1.6l0.8-1.9l-0.3-2.8l-6.9-5.3l-5.2,0.3l-4-4.5l-4.1-2.2h-8.4l-3.2,1.7l-2.1,2.5l1.9,0.7l2.1,3.4l1.9-0.8l1.1,2
		l-2.5,4.2l1.8,3.7l1.2,5.9l-3.2,1.4l-1.7,3.2l-1.3,0.9l0.8,2l-1.9,5.1l0.8,3l3,1.2l0.9-0.6l-0.2-1.6l2.3-0.7l3.1,4.1l-2.6,2.2h-2.6
		l-0.1,3.6l2.2,2.5L91,159l-1.8,1.2l3.3,5.6l-1.4,1.4l-4.4-1.6l-2.1,1.7l-0.5,3.5l1.2,1.3l4.1,1.3l-0.7,1.8l-2.6,0.8l1.6,6.9
		l-1.3,1.3l1,5.3l1.3,1.6v5.2l1.2,3.1l-0.7,1.5h-1.4l-0.5,2.7l2.1,2l-2.5,3.1l0.7,1.9l2.4,0.2l1.1,1.3l0.1,2.5l-2.9,3.1l-2.1,6.1
		l1.9,2.3l-2.5,4.4l-4.2,0.1l-1.3,1.1l1.4,5.5l-1.1,2.8l-3.4,3l2.2,3.3l1.3,5.4l-1.3,5.1L80.7,260"/>
	<g>
		<g>
			<text transform="matrix(1 0 0 1 64.0293 72.766)" class="st1 st2">Chougachha</text>
		</g>
	</g>
	<g>
		<g>
			<text transform="matrix(1 0 0 1 85.4087 172.8626)" class="st1 st2">Ghikargacha</text>
		</g>
	</g>
	<g>
		<circle class="st3" cx="121.1" cy="96.8" r="13.4"/>
		<text transform="matrix(1 0 0 1 115.1252 104.0852)" class="st1 st4">2</text>
	</g>
</g>
<g id="Jashore-3">
	<g>
		<path class="st6" d="M156.9,73.4l1.7-0.1l1.1-4.8l0.4-0.8l-1-0.6l0.2-1.3l1.1-1h2.3l1.3,1.6l3.9,0.4l0.8-4.1l-0.1-3.2l1.9-0.1
			l2,1.8l1.6-0.1l0.7-1.3l0.7,0.5l0.2,1.5l5.2-1.1l0.5-3.8l1.1-0.4l0.9,0.8l6.5-0.5l0.9,1.2l1.2-1.1l3.1,0.2l1.2-1.1l1.8,0.3
			l1.1-4.4l2.8-1.4l-0.4-3.8l-1.2-0.2l-0.1-1.7l0.8-1.3l-0.2-3.3l1.3-0.4l-0.3-2.4l1.3-1l2.2,3.5l0.5,2l3.4,1.5l3.2,1.1h3.3l6.7,5.3
			l-0.4,1.4L224,53l0,4l-1.4,3.6l-0.9,1.3l-3.9,1.9l1.1,1.6l1.8,0.1l3.9-2.6l0.8,0.3l0.2,2.6l1.7,2.6l2.1-0.6l2.7,3.2l-1,3.7
			l0.5,1.3l-0.9,1.1l0.1,4l2.7,0.2l1.7,1.6l-0.1,2.2l-1.7,1.3l1.4,1.9l4.9,0.7l1.5-0.2l3.9,1l2.1-0.5l2.2,1.3l1.5-0.3l0.1-1.8h1.9
			l-0.8,3.1l0.8,1.2l-2.4,3.4l-0.2,4.3l-5.2,3.3l0.6,1l-0.5,1l1.6,0.2l0.3,1.5l-0.2,1.8l1.2,0.3l0.3-1.6l2.3,2.5l1.3,4.6l1.4-1.3
			l2.1-0.4l0.3,0.7l-0.8,0.5l0.7,0.9l-3.2,3.7l1.9,0.2v3.1l-1.8,3.4h3.6l1.7,0.6v1.6l-1,2.5l1.3,0.1l2.7-0.5l4.7-6.1l-0.7-3.3l1-1.5
			h3.1l1.5,1.8l-0.1,1.4l-3,3.7l4.8,3.7l0.8,1l-1.4,2.1l-2.3-0.6l-3.6-2.8l-2,0.3l-0.5,2.9l4.5,7.4l0.1,1.3l-1.7,1l0.5,0.8l4.2,0.8
			l5.2-0.3l1,1.3h1.5l3.7,3.8l4.1-0.5l4.5-1.5l1.9,1.5l4.7,5.8l1.8,5.1l-1,2.5v1.3l1.5,1.1l1.2,3.5l-0.9,1.8v2.2l-2.9,6.9l-3.4-1.8
			l1.3-1.7l-0.3-2l1.4-1.2l-0.8-0.9l-2,1.2l0.1-2l-1.2-0.8l-1.9,1.1l-0.9-0.8l-0.1-2.3l-2-0.9l-0.2-2.4l-3.7-0.2l-1.6-1.2l-2.9,0.8
			l0.3,1.7l-1.9,2.1l0.9,1.4l-3.5,3.4l-3.6-0.8l-3.7-1.1l-1.1,0.3l0.1,1.3h-0.6l-2.5-1.4L263,171l1.7,1.4l-1.2,0.7l-2.8-3l-1.3,0.1
			l-0.5,1.2l-2.9-0.7l-0.8,1.4l0.9,1.1l-2.1,2.5l-0.8,1l-1.4-0.4l-1.1,1.9h-2.3l-2.5-3.7l-4.4-0.8l-1,1.1l-2.4-2l0.9-1.3l-1.9-3.7
			l-2.5-1.1l-1,0.4l-1.9,3l-1.4-0.3l0.2,2.9l-1.1,0.8l-1.4-1.2l-0.8,0.8l-1.4-0.8l-2.1,0.5l-2.3,2.9l-6.1-1.8l-0.8,1l0.3,1.1
			l-0.9,0.9l-1.5-1.2l-1.9,1.2v0.9l-2.5-0.3l-3,5.2l-1.6,2.8l-1.1-0.4v-1.9l-1.5-0.1l-1.1-1.9l1.8-3.2l-2.9-4.6l-1.3,0.6l-0.8,1.4
			l-0.8-0.8l1.3-2l-3.5-0.5l-4.7,0.6l-0.3,2.5l-0.6,1.3l-1.2-0.4l-3.2-2.4l-0.4-3l-1.8,0.1l-1.9,3l-0.5-2.2l-1.1,0.5l0.4,2l-2.1-0.3
			l-1.8,2.6c0,0-3.9,0.1-3.8,0.1c0.2,0,1.4-2.8,1.4-2.8l-2.6-3.6l-1-4.6c0,0,2.3-2.1,2.3-2.2c0-0.1-1-1-1-1l-7.8-0.9l-3.1-2.1
			l-0.4-2.4l-2.2-0.1l-0.2-1.4l3.4-0.2l3.9-2.4l-0.1-1.4l-3.6-1.8l-4.5,0.3l-4.1-2.1l-0.3-1.7l-3,0.9l-1.2-1l0.5-1.4l-1.2-2.1
			l-1.1-2.4l0.7-2l-1.7-2.3c0,0,1-2.2,1.1-2s-0.6-1.8-0.6-1.8l-2.3-0.4l-0.1-1.1l1.5-3.3l-1.3-1.9l0.8-4l1.1,0.3l0.4-0.7l-1.8-1.8
			l2.3-1.1l1.8-2.5l1.9-0.3l1.3-4.6l-0.3-6.2l0.9-0.5l0.8,1.4l1.5-2.9l-2.5-3.1l-0.4-3.9L148,91l-0.9-1.4l-1.4-1.4l0.1-1l-1.1-1.2
			l0.8-2.6l2.3-1.2l0.2-0.8l-1.1-0.3l3-3.7l3-0.3l1.9,0.6l2-1.8L156.9,73.4"/>
		<g>
			<g>
				<g>
					<text transform="matrix(1 0 0 1 172.7604 103.4984)" class="st1 st2">Jashore</text>
				</g>
			</g>
		</g>
	</g>
	<g>
		<g>
			<text transform="matrix(1 0 0 1 286.1064 160.8089)" class="st1 st2">Basundia</text>
		</g>
	</g>
	<g>
		<circle class="st3" cx="210.1" cy="126.8" r="13.4"/>
		<text transform="matrix(1 0 0 1 204.1252 134.0852)" class="st1 st4">3</text>
	</g>
</g>
<g id="Jashore-4">
	<path class="st7" d="M205.8,41.7l3.5,1.5l3.2,1.1l3.3-0.1l4.7,3.7l2,1.6l-0.4,1.4l1.9,1.8V57l-1.4,3.6l-0.9,1.3l-4,1.9l1.1,1.7
		l1.8,0.1l3.9-2.5l0.8,0.3l0.2,2.7l1.7,2.6l2.1-0.7l2.6,3.2l-1,3.7l0.5,1.3l-0.9,1.1l0.2,4l2.7,0.2l1.7,1.6l-0.1,2.2l-1.6,1.3
		l1.4,1.9l4.8,0.7l1.6-0.3l3.8,1l2-0.5l2.2,1.3l1.5-0.2l0.1-1.8l1.8-0.1l-0.8,3l0.9,1.2l-2.4,3.4l-0.2,4.3l-5.2,3.3l0.6,1l-0.4,1
		l1.6,0.2l0.3,1.5l-0.3,1.8l1.3,0.2l0.4-1.7l2.2,2.6l1.3,4.6l1.5-1.4l2.1-0.4l0.4,0.7l-0.9,0.5l0.7,0.8l-3.2,3.7l2,0.2v3.1l-1.8,3.4
		l3.6-0.1l1.7,0.6v1.6l-1,2.5l1.4,0.1l2.6-0.5l4.7-6.1l-0.7-3.3l1-1.5h3.1l1.5,1.8l-0.1,1.4l-3,3.7l4.9,3.7l0.8,1l-1.4,2l-2.3-0.5
		l-3.5-2.8l-2,0.3l-0.5,3l4.5,7.4l0.1,1.3l-1.7,1l0.4,0.8l4.2,0.8l5.3-0.3l1,1.4l1.5-0.1l3.6,3.8l4.1-0.5l4.5-1.5l3.4,1.5l1.7-1.1
		l2.6-0.1l0.1-0.9l3-0.5l0.8-0.5l-1.2-1.6l0.8-0.4l1.5,1.8l1.8-0.1l2.6,1.5l1.7-1.4h2.4l1.2,1.5l2.7-0.6l1-3.9l-5.6-3.2l0.3-3.4
		l2.9,0.4l0.6-1l-0.7-2.4l-1.7-0.9l0.2-1.2h3.4l0.4-1.2l-2.1-1.7l0.5-1.3l2.1-1.5l-0.3-1.5l1.5-1.1l0.4-3l-1.4-2l0.3-5.4l1.3-2.3
		l-0.6-3.3l-0.6-3.6l-1.2-2.6l0.4-0.5l1.9,2.4l-0.5-5.3l-1-0.8l-1.1,1.6l-0.9-0.9l1.2-1.4l-0.5-2l1.3-0.9l1.8,1.2h1.3l1.2-0.9
		l-0.2-1.2l2.1,0.2l0.7-1l-0.5-2.2l-3-0.9l-0.8-3.9l-1.2-0.6l-0.2-2.5l3.3-4l-2.2-1.9l-1-2.4l-1.3-0.1l-2.2-1.6h-3.1v-2.1l-1.8-1.1
		l-1.3,0.4l-3.5-4.2c0,0-1.4,0.4-1.5,0.4s-1-1.7-1-1.7l-2.6-0.4l-2.6-2.7l-1.8,0.7l-1.1-0.8l1.1-0.8l-2.5-0.3l0.1-2.8l-1.1-0.7
		l0.2-2.5l-2.2-1.2l-1.6,0.2l-0.6,3.6l-1.7,0.3l-1.3-1l-1.5,1v2l-1.5,1.2l-1.7-0.2l-0.5,2.3l-2.1,1.9l-2.4-0.4l0.1-3.7l-1.3-4.6
		l-2.8-4.4l-2.3,2.3l-2.6,1.3l-2-0.2l-1-1.5l2.1-5.5v-2.4l-2.1-2.7l-0.6-2.4l-2.3-2l-1.8,0.5l-0.6,3.7l-1.5,0.5l-1.4-1.9l0.4-0.7
		l-1.2-1.8l-1.1,0.3l-0.4-0.7l0.6-1.1l-0.8-2l-3.1,0.1l-2.8-2.2l-1.5-1.3V28l-2.1-1.9l1.1-3.4l-0.4-1.7l-1.5,0.7l-1.7-2.3l-2,0.3
		l-1.3-3.3l2.9-3.3l-0.9-1.9l-3.9-0.8L234.7,8l-2.8,0.1L229.3,9l-0.1,1.4l-1.3,1.2l-0.8,2.7l-1.9,0.4l0.3,4.2l0.4,1.6l1.2,1.7
		l-1.3,1.4l1.5,1.6l-2.4,0.3l-2.2,0.1l-2.4-0.4L219,24l-1.6,0.8l1.6,2.8l2.4,1.2l0.1,3.7l-2.2,1.8l-2,0.6l-1.5,1.7l-1.2-0.3l0.6-1.2
		h-1.6l-0.2,0.9l-0.8-0.8l-0.9,0.9l-2.1,0.4l-0.2,1.5l-1.4,0.5l-1.6,0.7l-1,0.3L205.8,41.7z"/>
	<path class="st8" d="M255.9,173.1l-0.9-1l0.8-1.4l2.9,0.7l0.5-1.2l1.4-0.1l2.8,3l1.2-0.7L263,171l0.6-0.6l2.5,1.4l0.6-0.1l-0.1-1.3
		l1.1-0.3l3.8,1.1l3.5,0.7l3.5-3.4l-0.9-1.4l1.8-2.2l-0.3-1.6l3-0.8l1.5,1.2l3.8,0.2l0.2,2.4l2,1l0.1,2.3l0.9,0.9l1.9-1.1l1.3,0.8
		l-0.1,2l2-1.1l0.8,0.9l-1.4,1.2l0.3,2l-1.2,1.7l3.3,1.8l0.6-1.1l0.8,1.2l2.3,0.8l1.7,1l3,3.5l0.7-0.9l-2-2.9l2.2-1.2l1.7,0.2
		l2.2,1.2l4.7-0.3l0.7-2.9l2.5-1.9l2-2.6l1.8-4.9l1.4-1.3l1.5-0.2l1.5-4l1.4-0.8l1.3,0.4l-0.6,5.7l0.8,6.5l-1.7,6.5
		c0,0,0.1,4.9,0,4.9s2.1,1.7,2.1,1.7l4.8,0.3l0.6,1.6l-4.9,0.4l-0.2,2.4l-0.9,2.2l0.4,2.9l2.4,2l1.4-0.2l0.8-2.1l1.7,0.2l-0.3,4
		l1.7,4.4l3.2,3.5l2.7,0.6l2.3-2.5l4.9,0.2l2.6-1.7l8.1,3.5l3.3,4l-0.4,2.2l1.5,5.5l3.4,0.9l3.6-0.3l0.1,1.1l-1.7,1.2l0.4,1.1
		l4.9-0.4l0.2,1.6l-1.1,1.4l2,1.3l-0.1,3l1.6-1.3l1.4,1.8l0.5,6.3l2.7,2.1l1.4-0.6l0.4,1.3l-1.4,1.9l0.4,1.1l0.5,0.1l0.4-1.6
		l1.6,0.6l4.1-1.6l1.9-1.3l-0.8-2.3l0.8-1.2l0.9,0.1l0.2,3.6l0.3,2.3l-0.4,3.3l-5.1,7.2l-7.1,6.1l-6.5,1.5l-2.5,1l-1.8,4l0.2,2
		c0,0-1.8,3.3-1.9,3.3s-1.3,0.4-1.3,0.4l-2.3-1.2l-7.9-6.2l-7-7.6l-0.7-2.2l0.3-5.1l-1-4.9l-2.9-5.3l-4.8-6l-2.6-5.9l-0.2-2.5
		l-2.2-1.7l-4.5,0.1l-5.6,1l-1.2,2.3l-3.6,4.4l-0.6,7.1l-0.1,6.2l-1,1.6l0.3,3.4l-1.5,1.9l-5.7,1.1l-4.4,0.8l-1.9,2.7l0.1,2
		l-1.7,2.8l0.4,1.4l-0.9,1l-1.9-0.5l-1.6,2.8l1.7,2.1l-0.4,1.9l-2.8,0.9c0,0-2.8-1.2-2.8-1.3s-5.4-1.2-5.4-1.2l-4.6,0.6l-1.4,2.4
		v2.1l-1.9,0.9l-2.2,0.1l-0.3-1.9c0,0,0.5,0,0.5-0.1l0.3-0.7l-2.1-4.9l1.9-3l1.8,0.3l0.2-4.8l3.1-3.5l0.1-3.7l1.8-3.4l-2.6-4.4
		l-4.9-4.4l0.6-1.5l-0.8-11.6l1.1-1.8l-1-4.7l-4.4-0.5l-0.8,3.4l-2.7-0.7l-1.3,0.5l0.9,1.5l-1.3,1.7l1.7,4.1l-0.8,2.1L271,232
		l0.3-10l-0.1-2.9l-1.1-1.7l0.6-1.7l-1-1.8l-1.8,0.4l0.4-2l-2.2-1.4l0.3-7l-1.9-2.1l-0.1-4.4l-4.2-1.5l0.3-3.8l-0.9-1.1l0.6-1.1
		l-2.3-1.3l0.4-1.3l2.6,1.6l0.4-1l-2.9-3.4l-1.6-3.3l1.1-2.2l-3.1-2.3l-1.2-0.8l2-2.3L255.9,173.1z"/>
	<g>
		<g>
			<text transform="matrix(1 0 0 1 281.4717 207.224)" class="st1 st2">Abhaynagar</text>
		</g>
	</g>
	<g>
		<g>
			<text transform="matrix(1 0 0 1 258.1748 86.6165)" class="st1 st2">Bagherpara</text>
		</g>
	</g>
	<g>
		<circle class="st3" cx="293.1" cy="109.5" r="13.4"/>
		<text transform="matrix(1 0 0 1 287.1252 116.7519)" class="st1 st4">4</text>
	</g>
</g>
<g id="Jashore-5">
	<path class="st9" d="M139.8,271.6l-8.1-5.8l-0.8-1.7l-0.5-1.2l0.3-2.1l4.8-5.2l3.4-0.6l1.3-2.4l-2.5-3.3l0.7-1l4.8,1.5l3.6-0.2
		l1.1-1l-1.4-4.1l1-1.7l4.8,1l1.4-1.9V235l-1.2-0.6l-2.7,0.3l-4.2-2.8l-3.1,0.4l-13,8.6l-2.4-0.5l-2-6.7l0.8-6.9l13.4-16.1l3.7,0.2
		l1.2-1.4l-4.2-7.2l0.3-2.5l6.1-6.7l3.5-4.7l1-6.6l-2.2-5l1.9-0.7l3.3,1.2l3.3-1.5l6.2,1.2l2.2-1.4l1.9-0.1l0.6,2.6l1.8-0.2l1.3-1.2
		l3.6-0.1l1.8-2.5l2.1,0.2l-0.4-1.9l1.1-0.5l0.5,2.1l1.9-3l1.8-0.1l0.4,3l3.2,2.4l1.2,0.4l0.6-1.3l0.3-2.5l4.7-0.6l3.4,0.5l-1.2,2
		l0.8,0.8l0.8-1.4l1.3-0.6l2.9,4.6l-1.8,3.2l1.1,1.9l1.5,0.1v1.8l1.1,0.4l4.5-7.9l2.4,0.3v-0.9l1.9-1.2l1.5,1.2l0.9-0.9l-0.4-1.2
		l0.8-1l6.1,1.7l2.4-2.9l2-0.5l1.4,0.8l0.7-0.8l1.4,1.2l1.1-0.8l-0.2-2.9l1.4,0.2l1.9-3l0.9-0.4l2.5,1.1l1.9,3.7l-0.8,1.4l2.3,2
		l1-1.1l4.4,0.8l2.5,3.7h2.3l1.1-1.8l1.4,0.4l0.6-0.7l4.2,3.1l-1.1,2.2l1.7,3.3l2.8,3.3l-0.4,1l-2.7-1.5l-0.4,1.2l2.4,1.3l-0.5,1.1
		l0.8,1.2l-0.2,3.8l4.2,1.5l0.1,4.4l1.9,2.1l-0.3,7l2.2,1.4l-0.4,1.9l1.7-0.4l1.1,1.8l-0.6,1.7l1,1.6l0.1,3.1L271,232l1.7,0.6
		l0.8-2.1l-1.7-4.1l1.3-1.7l-0.8-1.5l1.2-0.5l2.7,0.7l0.9-3.4l4.3,0.5l1,4.7l-1.1,1.9l0.9,11.6l-0.6,1.4l4.9,4.5l2.5,4.3l-1.8,3.4
		l-0.1,3.7l-3.1,3.5l-0.2,4.8L282,264l-1.9,3.1l2.1,4.8l-0.3,0.6h-0.6l-1.3,0.1l-1.1,1.1l-2.7-0.4l-2.8,0.5l0.1,1.3h-4.6l-1.4,2.3
		l-2.5-0.6l-5.8-2.5l-2.8,1l-0.9-1.1l-0.1-2.8c0,0-2.5-1.3-2.5-1.4s-0.2-2.2-0.2-2.2l-3.3-0.6l-1.2,0.9l-1.5-1.6l-2.3,0.2l-0.5,1.1
		l-2-0.3l-1.5-3.7l-0.2-3.7l-5.1-0.3l-3.1,0.7l-5.2,0.7l-1.3,1.2l-4.7-0.3l-0.8,1l2.5,3.1l-1,0.6l-3.2-0.4l-0.8-1.4l-3.5-2.1
		l-0.9,1.6l-1.6-0.1l0.2-2.9l-3.1-2.4l-4.7,5.2l-1.8-0.7L199,262l-2.2,1.7l-5.1,1.8l-1-1.1l-1.9,1.3l-2.4-0.5l-4.5-1.6v2.2l-3.6,2.3
		c0,0-1-1.3-1-1.2s-1.4-0.3-1.4-0.3V264l-2-0.1l-1.2,4.2l-0.9-0.2l-1.8-2.1l-2.4,0.1l0.7,2.3l0.4,4.5l0.2,0.7c0,0-1.1,0.8-1.2,0.8
		s-3.9,0.6-3.9,0.6l-6.2-0.1l0.6-2.8l-2.7-3.1l-5-1.2l-1.9-2.3L148,263l2.2-2l-0.3-1.6l-2.4-0.4l-6,4l0.1,1.6c0,0,1.6,0.4,1.7,0.5
		s2.5,3.3,2.5,3.3l-0.1,1.4l-3.5,1.8H139.8z"/>
	<g>
		<g>
			<text transform="matrix(1 0 0 1 175.0879 205.3255)" class="st1 st2">Manirampur</text>
		</g>
	</g>
	<g>
		<circle class="st3" cx="217.8" cy="227.5" r="13.4"/>
		<text transform="matrix(1 0 0 1 211.7918 234.7519)" class="st1 st4">5</text>
	</g>
</g>
<g id="Jashore-6">
	<path class="st10" d="M164.8,286.4l-2.7,5.9l-3.2-2.6l-2.1,0.3l-1-2.6L155,286l-2.9-0.6l-2.8,1.5l-0.6,2.4l-2.4,2.4l2,3l0.8,2.2
		l2.2-0.3l2.5,3.1l1.7,0.9l0.8,3.4l1.4,1.5l-0.5,1.4l-1.4,0.7l-0.1,3.4l-2.5,2.5L153,315l1.7,1.8l-0.8,2.2l1.4,3.6l1.8,0.9l0.1,3.3
		l4.3,1.5l0.3,2.3l1.7,0.8l3.3-2.4l0.1-1.9l-1.1-1.6l0.9-1.4l2.3,2.5l1.8-1l1.5,1.6l-0.1,2l2.3,2.9l-1.2,2.3l0.3,4.5l-3.4,0.4
		l-0.9,2.6l-4.2-0.7l-0.6,2.4l0.4,3.5l1.9,1l0.8-0.7l3.3,0.7l1.6-0.8l-0.4-0.9l2.7-2l1.5,0.3l0.2-4.6l1.9-1.3v-3.6l1.5-1l3.7,2.1
		l0.2,2.3l1-0.1l1.1-2.2l3.3,0.1l1.9,2.4l1.5-0.6l1,1.2l3.3-1.1l2.7-3.8l1.7,1.1l2.5-2.1h3l0.1-2l1.7,1.5l1.8-0.5l0.6-1.7l1.9-0.5
		l1.4,1l0.7-1.4l-1.7-2.1l2-0.6l1.9-2.1l2.1,0.9l2.7-1.3l0.3-2.7l1.8-2.6l1.2,0.5l1.2-1.6l2,2.4l1-0.1l2.4,2l1-1l-0.3-5.6l3.1,1.3
		l1.2-0.7v-1.3h1.6l3.2,2.6l2.4-1.1l0.4-7.1l1.6-0.3l3.6,5.3l5.6-0.3l1.5,0.8c0,0-2.6,2.8-2.7,2.8s-3.1,0.7-3.1,0.7l-2-0.4
		c0,0-0.2,2.1-0.2,2.2s4.6,1,4.7,1.1s9.4,1.3,9.4,1.3l2.1,1.1l3.1-0.7l0.5,0.6l-0.8,1.3l-1.8,0.3l-0.3,3l-1.8,1.1l0.4,1.9l1.8,0.6
		l2.2-2.1l5.4-1.3l2.6,1l1.5-1l0.5-2.1l2.4-0.9l0.2-1.3l-1.7-1.2l1.3-3.4l-0.9-0.8l0.1-3.1l1.9-1.2l1.9-4.4l-0.1-2.2l-4.2-0.3
		l-0.8,1l-2.4-2.9l1-3.2l2.9,0.3l2.4-3.3l-1.4-2.9l-0.2-1l-2.1-1.6l0.4-3.8l-1.6-3.5l-0.9-1.2L276,283l-3.3-1.1l1.1-2.8l-0.3-4h-4.6
		l-1.4,2.4l-2.6-0.6l-5.7-2.5l-2.8,1.1l-0.9-1.1l-0.1-2.8l-2.5-1.3l-0.2-2.2l-3.3-0.6l-1.2,0.9l-1.6-1.6l-2.3,0.2l-0.5,1.2l-2-0.3
		l-1.6-3.7l-0.2-3.7l-5.1-0.3l-3.1,0.8l-5.2,0.8l-1.3,1.2l-4.7-0.3l-0.8,1l2.5,3.1l-0.9,0.6l-3.2-0.5l-0.8-1.4l-3.5-2l-0.9,1.6
		l-1.5-0.1l0.2-3l-3-2.4l-4.7,5.2l-1.7-0.6l-3.1-1.6l-2.2,1.7l-5.1,1.8l-1-1.1l-1.9,1.3l-2.5-0.5l-4.4-1.5v2.1l-3.6,2.3l-1-1.3
		l-1.5-0.3v-2.6l-2-0.1l-1.2,4.2l-0.9-0.2l-1.8-2.1l-2.4,0.2l0.7,2.2l0.4,4.5l0.2,0.7l-1.2,0.9l-4,0.6l-6.1-0.1l0.7,1.6l1.6,1.2
		l-0.3,2.6c0,0,2.8,0.7,2.7,0.8c0,0.1-0.2,3-0.2,3l2.3,1.5L164.8,286.4z"/>
	<g>
		<g>
			<text transform="matrix(1 0 0 1 182.9336 285.7796)" class="st1 st2">Keshabpur</text>
		</g>
	</g>
	<g>
		<circle class="st3" cx="208.1" cy="305.1" r="13.4"/>
		<text transform="matrix(1 0 0 1 202.1252 312.4185)" class="st1 st4">6</text>
	</g>
</g>
</svg>
