<?xml version="1.0" encoding="utf-8"?>
<!-- Generator: Adobe Illustrator 25.2.1, SVG Export Plug-In . SVG Version: 6.00 Build 0)  -->
<svg version="1.1" id="Layer_1" xmlns="http://www.w3.org/2000/svg" xmlns:xlink="http://www.w3.org/1999/xlink" x="0px" y="0px"
	 viewBox="0 0 393.3 426.3" style="enable-background:new 0 0 393.3 426.3;" xml:space="preserve">
<style type="text/css">
	.st0{fill:#8BAFE8;stroke:#FFFFFF;stroke-width:0.5;stroke-miterlimit:10;}
	.st1{font-family:'TimesNewRomanPSMT';}
	.st2{font-size:16px;}
	.st3{fill:#FFFFFF;}
	.st4{font-size:24.672px;}
	.st5{fill:#9BB6EA;stroke:#FFFFFF;stroke-width:0.5;stroke-miterlimit:10;}
	.st6{fill:#ABBEED;stroke:#FFFFFF;stroke-width:0.5;stroke-miterlimit:10;}
</style>
<g id="sherpur-1">
	<path class="st0" d="M40.2,244.8l-4.9,5.6l-4.4,5.2l-6.6,5.1l-0.5,1.9l1.5,1.6l-0.4,6.9l-1.4,0.7l-4.5-1.1l-12.2-0.6L4,270.4
		L3.2,273l0.1,3.5l-1.5,7.8l-0.4,2.2l6.9,0.3l4.2-0.6l0.6,1.6l-1.9,2.4l0.1,1.5l-1.1,3.3l0.2,5.5l1.9,4.2l2.2,2.1l-0.9,5.8L11,317
		l1.1,0.7l0.8-0.9l2.9-0.2l3.4-2.3l1.6,0.3l1,1.7l1.5,2.4l0.2,6.4v15.3l-1,1.2l-1.9-1.5h-0.7l-0.1,1.6l1.3,8l1.9,1l2-0.1l5.5-4.4
		l3.9-0.3l6.4-1.9l7.2-0.7l4.6,2.9l0.8,4.6l2.1,2.8l0.2,7.1l2.8,13.1l7.7,6.9l2.8,1.1l9.2,0.3l1.4,0.7l0.6,2.1l2.7-0.1l6.2,3.1
		l2.3-0.2l2-2.6l5.8-2.7l6.2-1.1l6.2,9.5l9.5,3.4l2-1.3l3.4,1.7l3.5,0.2l1.7-0.8l2.2,1.7l1.7,0.3l0.5-1.4l-0.2-3.8l2-0.7l5.7-4.4
		l1.3,0.2l-0.2,1.3l-2.7,1.7l-3,3.7l0.2,2.3l2.6,1.3l3.2-1.2l5.8-0.8l0.6-2.1h3.8l3.4,3.6l6.6,2.2l6,0.7l1.3-1.2l6.6-0.8l1.7-1.2
		h2.2l4.7,2.2l3.7,0.8l9.7-0.2l4.7-1.3l4.3-0.3l4.5,2.1l0.8-0.9l-1.3-2.2l0.2-1.3l3.8,1.2l4.4,0.6l0.4-3.8l1.8-4.1l-2.8-2.8
		l-1.8-3.4l-4.8-6.3l0.2-1.4l1-0.6l4.6,0.4l1.8-0.4l1.1-7l2.1-6.9l0.1-3.3l-3.2-0.9l-1.5-1.3l0.5-4.2l-1.9,0.2l-2-0.8l1.4-3.2
		l-4.3-2.5l-1.6-1.4l2-1.8v-3.9l1.6-2.2l3.8,1.2l0.9-0.7l5.4,0.8l5.1,1.8l2.4-1.1l0.3-2.7l-4-2.5l-0.9-0.8l0.1-3.1l-2.1-3.4l-6.5-4
		l-0.2-2l-1.6-2.3l-1.3-4.8l0.2-1.9l-2.3,0.4l-0.8-1.1l1.8-1.8l-1.1-2l3.2-7.3l2.2-2l6.5-3.1l1.9-2.1l-0.1-3.2l-2.7-2.1L227,280
		l-0.8-1.6l2.4-4.3l1.1-2.7l1.1-1.3l-0.6-1.3l-7,4.9l-1.8,0.6l-2.4-4.9l-3.2-0.8l-2.1,0.9l-2.1-1.1l3.2-3.8l2.2-4.4l0.9-3.2l0.5-8.6
		l-5-1.3l-1.1,2.5l-4.1-0.9l-2.1-1.5l-4,0.3l-1.5-0.3v-2.8l-1.8-0.5l-2,0.6l-17.5-4.7l-2.7-3.7l-0.4-2.9l-1-0.9l1.5-5.6l-0.1-3
		l-2.7-4.7l-1.1-2.9l-3.8-1.4l-3,1.4l-2.1,5.1l0.5,4.7l-1.2,1.4l-11.2-7.5l-1.1,1.9l0.9,2.3l-1.8,1.4l-7-1.4l-0.3-3.5l-2.9,0.3
		l-7.5,5.5l-2.5-0.2l-1,1.1l3.1,2.3l-2.6,1.4l-1,8l-2.8,1l-2.9,2.6l-3-0.2l-0.1,2l1.6,2.4l-1.9,0.6l-1.3-1.3h-1l-0.2,2.3l-3.9,0.4
		l-1.9-2.4l-2.6-1.9L103,243l-3.3-2.9L95,244l0.7,4.8c0,0-1.1,2.1-1.1,2.2c0,0.1-12.2-3.3-12.2-3.3l-5.1-4l-3.2-0.4l-4-4.1l-2.4,0.1
		l-0.5,2.6l-5.5,4.8l-6.3,0.1l-0.1,2.5l-1.4,0.6l-5.1-5.1l-7-2.5l-1.2,1.8L40.2,244.8z"/>
	<g>
		<text transform="matrix(1 0 0 1 114.7406 336.1148)" class="st1 st2">Sherpur</text>
	</g>
	<g>
		<circle class="st3" cx="124.6" cy="287.8" r="13.4"/>
		<text transform="matrix(1 0 0 1 118.6247 295.0737)" class="st1 st4">1</text>
	</g>
</g>
<g id="sherpur-2">
	<polygon class="st5" points="222.8,78.6 228,79.1 234.4,79.6 238.2,80.4 241.8,79.4 256.2,80.8 265.9,81.6 273.1,85.2 279,88.8 
		282.3,88.7 283.7,91.4 287.4,93.3 294.3,94.1 296.3,94.1 302.6,97.7 304.5,99.3 307.5,98.2 309.8,98.3 313.6,103.8 320.4,100.1 
		328.9,101.3 336.1,104.7 341.1,104 348.8,108 348.1,113.3 349.3,114.8 347.7,128 345.6,132.7 346.2,138.1 345.8,143 348.1,144.3 
		347.1,146.9 348.3,149.5 348.7,152.6 354.4,155.7 353.1,157.8 354.3,162.4 353.4,163.6 354.8,166.1 350.9,168.6 351.7,171.1 
		350.3,173.7 351.3,177.9 349.9,179.6 348.8,189.5 349.8,193.2 347.8,197.6 347.5,203.4 349.5,207 353.4,207.4 356.4,209.6 
		361,209.9 364.5,212.7 364.4,216.4 370.3,221.7 377.6,215.1 379.4,213.6 381.2,214.6 381.3,216.9 383.7,218.7 385.8,218.6 
		387.4,220.2 387.7,224.4 385.9,225.6 384,224.2 379,224 376.1,227.2 368.1,225.5 367.6,227.4 368.4,228.8 368.1,231.9 369.6,235.9 
		366.3,244.1 366.1,247 365,247.8 361.8,247.2 359.5,250.3 353.7,250.7 351.5,252.9 348.2,252.5 345.8,249.1 345.6,243.3 
		343.8,238.4 342.6,238.9 342.7,241 338.9,242.5 336.2,242.3 335.4,245.6 336.7,247.5 336.1,248.5 334.6,248.5 333.2,253.1 
		329.4,254.4 325.7,251.7 324.6,253 326,255.3 324.5,256.2 320.7,262.9 322.6,265.4 323.1,270.3 323.1,276.5 321.6,280.9 
		320.7,281.9 317.7,280.8 315.6,283.3 314.1,282.8 314.7,280.8 317.5,277.9 317,276.5 312.9,274.7 312.3,275.4 311.2,279.2 
		306.6,278.8 302.7,281.4 300,279.7 296.1,277.4 295.1,272.7 292.1,272.3 290,277.7 287,277.3 281.2,286.2 276.5,286.5 265.1,282.3 
		259.1,282 258,277.2 258.5,274.1 257.3,272.8 253.9,274.8 251.4,284.3 247.4,280.9 242.3,279.8 236.8,280.2 234.3,278.1 
		231.3,270.4 230.5,270.1 229.9,268.8 222.9,273.8 221,274.3 218.7,269.4 215.5,268.6 213.4,269.5 211.3,268.4 214.5,264.6 
		216.7,260.2 217.6,257 218.1,248.4 213.1,247.1 212,249.6 207.9,248.7 205.8,247.2 201.8,247.5 200.3,247.3 200.3,244.4 
		198.6,243.9 196.5,244.5 179.1,239.8 176.4,236 176,233.1 175,232.2 176.4,226.6 176.4,225.2 178.9,226.4 180.7,225.6 182.4,226.4 
		182.8,233.4 184.8,234.6 186.3,233.9 188,230.6 190.9,227.8 196.5,221.3 200.4,218.2 195.5,211 196.6,208.5 196,205.7 187.2,201.8 
		186,198.6 187.6,193.4 188,189.2 186.4,187.4 186.9,185.5 185.7,184 183.6,184 180.2,178.7 182.5,177.3 186.3,180 188.1,178.4 
		188.8,179 189.7,178.4 188.3,176.3 186.2,176.9 181.8,174.1 183.4,172 186,173.6 186.6,172.8 184.1,170.1 183.1,170.6 182.3,170.2 
		183.7,168.1 184.5,168 197.6,170.3 199.3,169.5 201.6,170.1 204.9,168 205.3,166.2 207.5,166 210.4,164.1 211.6,162.6 212.9,163.2 
		213.6,161.1 219,162.6 221.7,158.2 221.3,156.2 218.1,156 216.7,154.9 214.2,154.8 214,151.6 212,148.5 209.8,147.6 209.2,146.9 
		209,144.6 207.1,144.3 207.1,140.3 208,138.6 214.3,135.8 217.1,131.6 218.5,132.3 222.3,131.6 222.5,130.5 220.7,127.8 
		220.7,124.4 222.7,124.4 224.1,123.5 224.6,121.9 227.5,116.6 229.3,115.4 228.2,113.8 231.4,107.9 230.8,106.2 231.6,102.8 
		231.2,100.5 228.5,98.1 226,93.3 225.7,90.5 226.3,88.2 227.6,86.4 227.9,85.6 225.2,84.3 222.8,81.4 222.7,78.8 	"/>
	<path class="st5" d="M214.9,397.5l4.3,5.1l3.8,0.3l3.3,2.8l1.5-0.9l4.6,1.5l3.9-3.2l1.8,0.4l0.7,2.4l1.4-0.1l4-4.5l1.7-0.3l3.2-1.6
		l2.7,0.2l2.5,2.8l-0.2,3l-2,3.3l0.5,1.9l3,0.9l3.1,1.6l3.8-0.3l1.4,0.6l0.5,2.9l6-1.2l5.4,0.6l3,0.8l1.9,1.2l3.9-0.1v2.6l4.6,0.1
		l3.1,1.3l13.2,2.1h9.5l7.5-3l2.8-2.9l2.8-5.7l-0.4-2.1l-1.8-1.6V403l3.2-5.1l0.3-5l2.4-7.9l1.8-6.7l-0.6-1.5l-3.8-0.4l-0.8-0.8
		l0.1-1.9l-1.1-0.9l-2.6,0.1l-1.3-1.6l1.6-2.3l-0.6-1.9l-1.7-0.6l-1.8-1.9l0.2-5.8l5.1-2.4l3.5,0.1l4.5,3l10.4-0.4l-0.7-2.2
		l-0.1-5.3l-1.5-3.6l-6.6-4.3l-4.5-0.5l-2.2-0.3l-0.5-1.3l2.8-3.4l-0.7-1.1l-4.8-2.3l-1.1,0.8l-0.2,4.8l-1,0.5l-2.7-1.8l-2.5,0.1
		l-0.4-2.4l-2.5-5.2l-1,0.5l-0.8-1.1l9.1-9.5l-0.1-1.1l-1.6-0.8l0.6-2.9l4-2.6l0.4-4.9l2.9-12.7l-0.7-6.1l-2-1.9l1.1-4.6l-6.2-3
		l-0.8,1l-3-1.1l-2.1,2.5l-1.5-0.5l0.6-2l2.7-2.9l-0.5-1.5l-4.1-1.7l-0.6,0.8l-1.1,3.7l-4.6-0.4l-3.9,2.7l-6.6-4l-1.1-4.7l-3-0.4
		l-2,5.4l-3-0.4l-5.9,8.9l-4.7,0.4l-11.4-4.2l-6-0.3l-1.1-4.8l0.5-3.1l-1.2-1.4l-3.5,2l-2.5,9.5l-4-3.4l-5.1-1l-5.5,0.4l-2.5-2.2
		l-3.1-7.7l-0.8-0.3l-1.1,1.3l-1.1,2.7l-2.3,4.3l0.8,1.5l0.4,4.7l2.8,2.1l0.1,3.2l-1.9,2.1l-6.5,3l-2.2,2l-3.1,7.2l1.1,2l-1.8,1.8
		l0.8,1.1l2.3-0.4l-0.1,1.9l1.4,4.8l1.5,2.3l0.2,2l6.5,4l2.1,3.5l-0.1,3l0.9,0.8l4,2.5l-0.3,2.7l-2.4,1.1c0,0-5.1-1.9-5.2-1.9
		l-5.3-0.7l-0.9,0.7l-3.8-1.2l-1.6,2.3l-0.1,3.9l-2,1.8l1.5,1.4l4.2,2.5l-1.3,3.2l2,0.8l1.9-0.2l-0.5,4.1l1.4,1.3l3.2,0.9l-0.1,3.3
		l-2.1,7l-1.1,7l-1.9,0.4l-4.6-0.4l-1,0.6l-0.2,1.4l4.8,6.4l1.8,3.4l2.8,2.8l-1.8,4.1l-0.3,3.8l-4.5-0.5l-3.7-1.2l-0.2,1.3
		L214.9,397.5z"/>
	<g>
		<text transform="matrix(1 0 0 1 246.4072 180.0316)" class="st1 st2">Nalitabari</text>
	</g>
	<g>
		<text transform="matrix(1 0 0 1 256.5739 348.5316)" class="st1 st2">Nokla</text>
	</g>
	<g>
		<circle class="st3" cx="261.1" cy="228.3" r="13.4"/>
		<text transform="matrix(1 0 0 1 255.1247 235.5737)" class="st1 st4">2</text>
	</g>
</g>
<g id="sherpur-3">
	<path class="st6" d="M48,18l-2.6,3.4l1.2,4.3l1.2,2.1l-3.1,7.5l0.5,1.8L44.4,42l2,3.6l-2,1.5l-1.6-2L42,46.7l-5.5-0.4L35,43.7v-1.2
		l-3.6-3.4l-3,1.9l-3.9-0.3l-2.8,6.6l0.2,9l-1.3,1.9l0.1,5.4l-1.8,9.1l-1.6,3.1V82l-2.4,0.6l-2.6,2.8l-0.2,1.9l1.2,1l-0.7,1.1
		L10,90.3l-1.8,2.4l2,1.2l-1.8,4.2L7.9,110l-0.8,6.1l-3,3.1l0.9,3.3l2.6,1.9l6.6,1.4l5.3-1.1l1.1,0.8l1.3,2.8l3.2,2l2.3,3.2
		l-0.4,1.9l-1.4,0.1l-1.7,2l-2.4,0.4l-2.2,3.4l-0.2,2.6l-1,2.1l2,1.8l-1.4,1.9l-0.2,4.7l-1.6,4l2.3,2.3v1.2l-2.8,2.6l0.6,1.6
		l1.5,3.1l-1,1.5l-2.1,0.4l-2.8,0.9l-0.1,2.4l2.8,8l-1,0.7l-1.2,2.6l2.2,1.6l-0.4,1.1l-2-0.4l-0.3,3.4l1.5,3.1l2.9,0.4l1.6,2.5
		l1.2,4.2l10.6,14.2l-0.4,5.5l0.4,1.9l-1.5,2l0.4,4.1l-2.1,2.4l2.5,4.9l1.9-0.4l0.9,2.5l-0.6,1.4l1.4,1.4l5.1-0.1l3,0.7l6.9,2.5
		l5.1,5.1l1.4-0.6l0.1-2.5l6.3-0.1l5.5-4.8l0.5-2.6l2.4-0.1l4,4.2l3.3,0.4l5.1,4l12.1,3.3l1.2-2.3l-0.7-4.7l4.7-3.9l3.3,2.9l5.3,1.4
		l2.6,1.9l1.9,2.4l3.9-0.4l0.2-2.3h0.9l1.3,1.3l1.9-0.6l-1.6-2.4l0.1-2l3,0.2l2.9-2.6l2.8-1l1-8l2.5-1.4l-3.1-2.3l0.9-1.1l2.5,0.2
		l7.5-5.5l2.9-0.3l0.3,3.5l5.5,1.1l1.8-1.4l-1.1-1.9l1.3-1.8l-0.8-1l-3.7-2.7l-2.9-1l-2.1-3l-2.1-4.2l-0.8-4.5l-1.5-6.3l0.4-3
		l-2-8.6l0.6-4.7l-3.9-2.5l-2.1-1.5l-1.4,0.7l-1.5-0.1l-1.5-0.8l-1.4,0.5l-0.9-0.7l0.4-2l-3.7-2.1l-0.4-2.1l1.3-2.7l0.2-2.3
		l-1.4-0.8l-2.6,3.2l-1.5-0.2l-0.3-2.3l-1.8-0.5l-1.8,1.9l-1.7-0.3l0.2-1.5l0.7-1.8l-2-1.9l1.4-3.7l-0.9-2.2l-1.5,1.6l-0.7-1.4h-2
		l-1,2.3l-2.9-1.7l-1.6-6.4l-1.4-1.6l0.8-2l-1.6-2l-3.1-0.2l-1.1-5.3l-2.4,0.2l-1.3-1.6l-0.3-3.9l1.2-0.3l2.8,1.3l2.1-0.1l1.4,1.5
		l4.8,0.4l2.5,3.9l2,0.1l0.2-2.9l1.8-0.1l1.7,2.3l1.8-0.4l2.5-4.3l0.5-4.3l-2.9-3.6l-4.7-2.9l0.5-4.1l0.9-1.4l-2-4l-0.1-5.6
		l-1.9-1.3l-0.6-3.5l-2.5-0.1l-1.6,1.9l-2.9-0.5l-1-2.1l-0.8-5.6l2.3-5L96,90.7l-2.2-0.8L92,86.7l-0.4-3.5l-4.1-1.5L85,78.5
		l-3.3-2.4l0.2-2.5l2.2-4l-0.4-2.3l4.4-1.2l2.9-1.9l5,2c0,0,2.1-2.1,2.1-2.2c0-0.1,2.4,0.4,2.4,0.4l2.2-2.2l-0.8-4.2l-1.2-1.9
		l2.8-6.5l6.8-8.6l1.9-0.7l2,0.3l1.9-1.4l2.7-4.2l-0.1-3l-5.2-4.3l-3-0.5l-4.8,3.2l-2.9-0.3L94.2,27l-3.1-0.1l-0.4-8.3l-1.5-5.2
		l-5.1-5l-5.7-4.2l-2.6,0.7l-1.1,1L69,6.2l-3,2.1l-2.2,3.3l-0.9,3.1l-1,0.5l-1.8-1.7L52.7,18H48z"/>
	<path class="st6" d="M176.4,223.5v1.7l2.5,1.2l1.8-0.7l1.7,0.7l0.4,7.1c0,0,1.9,1.1,2,1.1s1.5-0.6,1.5-0.6l1.7-3.3l3-2.8l5.6-6.5
		l3.9-3.1l-4.8-7.2l1-2.6l-0.6-2.7l-8.8-3.9l-1.2-3.2l1.6-5.2l0.4-4.1l-1.5-1.9l0.5-2l-1.2-1.4h-2.1l-3.5-5.3l2.3-1.4l3.8,2.8
		l1.8-1.7l0.7,0.6l0.9-0.6l-1.4-2.1l-2,0.6l-1.1-0.7l-3.3-2.2l1.6-2.1l2.5,1.6l0.6-0.7l-2.5-2.7l-1,0.6l-0.9-0.5l1.5-2.1l0.8-0.1
		l13.1,2.3l1.7-0.8l2.3,0.6l3.3-2l0.4-1.8l2.2-0.2l2.9-1.9l1.2-1.5l1.3,0.6l0.7-2.2l5.4,1.6l2.6-4.5l-0.3-2l-3.3-0.2l-1.4-1
		l-2.5-0.1l-0.3-3.2l-2-3.1l-2.1-0.8l-0.7-0.8l-0.2-2.3l-2-0.2l0.1-4.1l0.9-1.7l3.3-1.6l3-1.3l2.8-4.1l1.4,0.7l3.7-0.7l0.2-1.1
		l-1.8-2.7v-3.4l2-0.1l1.4-0.9l0.6-1.6l2.9-5.3l1.8-1.3l-1.1-1.6l3.2-5.9l-0.6-1.7l0.8-3.4l-0.4-2.2l-2.7-2.5l-2.6-4.7l-0.2-2.8
		l0.5-2.3l1.4-1.8l-2.9-1.4l-2.6-2.9l-0.2-2.6l-9.5,0.9l-11.8-7.2l-7.7-6l-8.4-1.4l-3.8-1.2l-2.2-1.8l-9.7-7.2l-5.8-3.7
		c0,0-1.7-4-1.6-3.9c0,0.1-1-2.6-1-2.6l-2.1-1.2l-4.4,0.3l-7.1-0.2l-6-0.9l-2.3-2l-3.5-0.8l-3.9-2.6l-4.6-4.8l-6.1-2.5l0.1,2.7
		l-1.7,0.8V35l-2.7,4.3l-1.9,1.3l-2-0.3l-1.9,0.7l-6.8,8.6l-2.8,6.5l1.1,1.9l0.8,4.2l-2.2,2.2L98,63.9l-2.1,2.3l-5.1-1.9L88,66.1
		l-4.4,1.2l0.4,2.3l-2.2,4L81.6,76l3.3,2.4l2.6,3.2l4.1,1.5l0.4,3.5l1.9,3.1l2.2,0.8l0.2,1.8l-2.4,5l0.8,5.6l1,2.1l2.9,0.6l1.6-1.9
		l2.5,0.1l0.5,3.4l1.9,1.4l0.1,5.6l2,4l-0.9,1.4l-0.5,4.1l4.7,2.9l2.8,3.6l-0.5,4.3l-2.5,4.3l-1.7,0.3l-1.7-2.3l-1.8,0.1l-0.2,2.9
		h-2l-2.5-4l-4.8-0.4l-1.4-1.5l-2,0.1l-2.8-1.3l-1.2,0.3l0.3,3.9l1.3,1.6l2.4-0.2l1.1,5.3l3.1,0.2l1.7,2l-0.2,2.2l1.4,1.6l1.6,6.4
		l2.9,1.7l1-2.3h2l0.7,1.4l1.5-1.6l1,2.2l-1.4,3.7l2,1.9l-0.7,1.8l-0.2,1.5l1.6,0.3l1.9-1.9l1.8,0.5l0.3,2.2l1.5,0.2l2.6-3.2
		l1.4,0.8l-0.2,2.3l-1.4,2.8l0.4,2.1l3.7,2.1l-0.4,2l0.9,0.7l1.4-0.5l1.5,0.8h1.5l1.4-0.7l6,4l-0.7,4.6l2,8.6l-0.4,3l2.4,10.8
		l2.1,4.2l2.1,3.1l2.9,1l3.7,2.7l0.8,1l-1.3,1.8l1.1,1.8l-1.8,1.4l1.5,0.4l1.9-1.5l-0.9-2.3l1.1-1.7l11.2,7.5l1.3-1.5l-0.5-4.7
		l2.1-5l2.9-1.4l3.6,1.4l1.1,2.9L176.4,223.5z"/>
	<g>
		<text transform="matrix(1 0 0 1 41.0739 173.1151)" class="st1 st2">Sreebordi</text>
	</g>
	<g>
		<text transform="matrix(1 0 0 1 133.0739 115.6151)" class="st1 st2">Jhenaigati</text>
	</g>
	<g>
		<circle class="st3" cx="62.6" cy="109.3" r="13.4"/>
		<text transform="matrix(1 0 0 1 56.6247 116.5737)" class="st1 st4">3</text>
	</g>
</g>
</svg>
