<?xml version="1.0" encoding="utf-8"?>
<!-- Generator: Adobe Illustrator 25.2.1, SVG Export Plug-In . SVG Version: 6.00 Build 0)  -->
<svg version="1.1" id="Layer_1" xmlns="http://www.w3.org/2000/svg" xmlns:xlink="http://www.w3.org/1999/xlink" x="0px" y="0px"
	 viewBox="0 0 304.8 507" style="enable-background:new 0 0 304.8 507;" xml:space="preserve">
<style type="text/css">
	.st0{fill:#ABBEED;stroke:#FFFFFF;stroke-width:0.5;stroke-miterlimit:10;}
	.st1{font-family:'TimesNewRomanPSMT';}
	.st2{font-size:16px;}
	.st3{fill:#FFFFFF;}
	.st4{font-size:24.672px;}
	.st5{fill:#C5CFED;stroke:#FFFFFF;stroke-width:1.033;}
	.st6{fill:#9BB6EA;stroke:#FFFFFF;stroke-width:0.5;stroke-miterlimit:10;}
	.st7{fill:#8BAFE8;stroke:#FFFFFF;stroke-width:0.5;stroke-miterlimit:10;}
	.st8{fill:#7CA7E5;stroke:#FFFFFF;stroke-width:0.5;stroke-miterlimit:10;}
</style>
<g id="jamalpur-1">
	<polygon class="st0" points="80.4,29.2 76.2,31.3 64.6,32.4 63,33.3 61.5,37.1 61.6,38.2 54.4,44.9 51.2,46.1 50.2,47.3 50.4,49.4 
		52.8,50.3 56.1,59 59.6,68.9 60.9,68.9 60.9,73.7 61.9,80.7 65.6,85.4 68.1,90.8 67.1,95.5 64.8,97.5 64.9,105.9 65.9,110.1 
		64.5,116.8 62.7,117.5 52.4,118.2 45.9,116.8 40,118 37.2,125.3 36.1,128.7 33,132.7 26.6,147.9 26.6,153.1 21.8,158.3 21.8,159.1 
		24.9,158.2 27.4,158.7 27.3,160.5 29.3,162 31.5,158.8 35.4,159.3 35.2,160.3 32.8,160.3 32.3,162 38.4,164.7 37.8,167 40.1,167.3 
		45,161.8 47.4,161.5 51.7,159.6 52.4,161.2 49.8,164.1 48.5,164.3 50.1,168.4 52.8,168.3 54.2,166.6 62.7,170.5 62.6,172.9 
		66,173.5 66,175.8 67.8,178.3 69.4,181.7 73.5,183 77,183.2 78.3,185.1 76,187.6 76.8,188.9 78.7,189.4 80,187.6 81.7,187.5 
		83.8,185.4 86.3,187.1 88.4,186.2 88.5,184.1 87,182.9 86.9,180 91.8,181.6 92,179.7 94.2,180.4 96,180.1 95.6,175.3 93.4,172.4 
		93.8,170.9 92.9,169.7 90.6,169.6 89.7,170.4 83.3,170.3 79.9,168.4 78.4,164.8 79.2,157.7 80.3,157.5 81.9,158.2 83.1,157.1 
		83,150.7 84.1,147.2 88.4,146.9 90.9,150.1 92,150.1 92.2,145.5 90.6,145.1 86.7,139.9 85.3,136.1 86.3,134.2 84.6,132.4 
		84.4,128.7 86.1,127.6 84.5,125.3 82.7,125.9 81.5,125.1 81.2,122.7 85.1,119.1 88.3,113.9 92.3,111.7 95.3,112.2 98.5,116.9 
		100.4,117.5 102,116.5 100,113 102.1,112.5 99.7,109 96.2,105.9 92.7,100.8 90.4,99.6 87.4,99.8 87.5,98.5 88.2,96.1 87.3,93.2 
		91.3,90.5 91.4,83.3 95.6,78.4 96.8,78.6 101.6,84.5 103.9,85.1 106,84.5 107.2,85.7 108.4,84.9 107.6,83.1 110.6,80.1 110.5,77.8 
		112.7,76.3 112.7,71.8 108.1,63.6 104.3,54.8 102.7,53.4 101.9,41.5 101.1,33 102.7,29.5 105.3,22.1 103.7,18.7 104.3,13.5 
		97.8,12.4 91.3,10.5 86.9,8.7 82.4,4.6 74.3,2.5 73.7,4.1 74.9,6 77.2,6.7 78,9.5 76.4,12 77,12.8 78.6,12.9 79.6,15.9 80.8,15.9 
		80.9,13.8 82.1,14.2 82.2,21.1 	"/>
	<path class="st0" d="M108.3,84.5l1.4-1.1l8.9,3.2l6.2,0.5l5.8,1.4l5.2-1.6l5.5-7.9l3.8-2.3l4.4,0.7l9.6,3.5l2.8,0.3l2.7-3l1.6,1.6
		l0.2,3.5l-3.4,2.1l-3.5,0.2l-1.6,2.2l1.5,4.4l-2,2.9l0.4,7.1l-4.1,0.2l-3.2-4l-5.3,1.1l-1.8,12.9l-1.7,9.7l-3,2.5l0.6,2.2l-2.7,1.9
		l0.9,1.4l-1.2,12.7l-1.7,2.4l1.3,2.4l2,0.9l4.7-0.6l1.1,0.2l4.3,4.1l0.3,0.7l-4.7,3.7l-0.5,3.2v5l-0.8,1.2l-0.1,1.6l0.8,0.5
		l-1.1,3.4l1,1.8l-3.2,2.3l0.3,3.2l1.4,1.7L140,182l0.8,1.3l-1.1,1.5l1,3.7L140,190l-3.6,0.9l-2.2-1.5L128,191l-2.2-0.3l-1-1.8
		l0.6-4.5l-1.9-1.8l-2.3-2.7l-0.3-2.2l1.5-1.7l-2.5-3.2h-1.6l-4-3.8l0.9-2.6l-0.8-1.5L109,164l-1,1.9l2.5,3.6l-1.5,1.6l-2.8-1.4
		l-1.3,0.7l0.3,4.1v1.2l-1.4-0.3l-0.1-1.6l-2.4,0.2l-0.2-4h-5.9l-1.6,1l-0.8-1.3l-2.2-0.1l-0.9,0.8l-6.5-0.1l-3.4-1.9l-1.4-3.6
		l0.8-7.1l1.1-0.3l1.4,0.7l1.4-1l-0.2-6.4l1.1-3.5l4.4-0.3l2.5,3.3H92l0.1-4.6l-1.6-0.4l-3.9-5.3l-1.3-3.8l0.9-1.9l-1.7-1.8
		l-0.2-3.7l1.7-1.1l-1.5-2.3l-1.9,0.6l-1.2-0.8l-0.3-2.4l3.9-3.5l3.3-5.2l4-2.3l3,0.6l3.2,4.7l1.9,0.6l1.5-1l-1.9-3.5l1.9-0.5
		l-2.3-3.4l-3.6-3.1l-3.4-5.1l-2.3-1.2l-2.9,0.2v-1.4l0.8-2.4l-0.9-2.8l3.9-2.7l0.2-7.2l4.2-4.9l1.2,0.2l4.7,5.8l2.3,0.6l2.2-0.6
		l1.2,1.3l1.2-0.8L108.3,84.5z"/>
	<g>
		<text transform="matrix(1 0 0 1 71.2823 67.9067)" class="st1 st2">Dewangonj</text>
	</g>
	<g>
		<text transform="matrix(1 0 0 1 109.4489 112.3322)" class="st1 st2">Bokshiganj</text>
	</g>
	<g>
		<circle class="st3" cx="90.7" cy="123.6" r="13.4"/>
		<text transform="matrix(1 0 0 1 84.7081 130.907)" class="st1 st4">1</text>
	</g>
</g>
<g id="jamalpur-2">
	<path class="st5" d="M21.7,158.9l-2.8,3.4l-0.5,1.7l-4.7,5.9l0.3,1.6l-1.6,9.4v2l1.3,0.9l0.2,6.6l-0.1,1.3l-1,0.3l-1.5-0.7
		l-0.5,3.3l-1.1,2.8L7,199.6l1.2,3l4.2,5.1l3.1-0.1l-0.8,4.7l0.3,1.6l1.4,2.3l-0.5,8l-1.4,0.9l-2.4,0.2l0.8,5.2l1.3,5.6l3.2,8.7
		l1.4,2.1l-0.5,12.3l2.7,4.4l3.2,2.4l2.8-1.9l2.8,0.1L37,266l4.2-1.1l-2-3.3c0,0,5.6-6.6,5.5-6.7c0-0.1,7.5-4.4,7.5-4.4l8.2,0.7
		l0.8-1.1l-1.5-2.6l4.8-1.7l6-3.3l0.1-2.1l1.4-0.7l2.2,1l3.1-6.6l1.6-4.7l-0.8-4.7l4.6-7.5l7-5l1.7-7.5l2.2-0.2l5.3,6.8v2.5l6.6,4.2
		l2.3,7.4l-0.8,11.1l0.3,2.2l4.2,4.3l1.8,6.6l-0.7,3.2l2.7,1.9l2-0.5l1,1.5l-2,2.5l4.2,5.3l4.7-0.5l1.4,6.9l10.2,0.1l-1.6-9.1
		l3.3-1.6l1-2.8c0,0-0.1-3.4-0.2-3.4c-0.1,0-2.8-6.5-2.8-6.5l2-5.4l-0.9-0.5H132l0.8-9.3l7.5,0.4l4.2,0.6l1.2-3.1l-1-2.8l6.3-5.6
		l3.5-4.1l-0.6-1.3l-3.4-0.3l0.2-2.5l-2.8-1.6l1.4-5.5l0.7-3.9l-0.7-1.7l-6.1-8.9l-0.7-2.2l-1.5-0.5l-0.7,1.5l-3.6,0.9l-2.2-1.5
		l-6.2,1.7l-2.2-0.3l-1-1.8l0.6-4.5l-2-1.8l-2.2-2.6l-0.3-2.2l1.5-1.7l-2.5-3.2l-1.6,0.1l-3.9-3.8l0.8-2.6l-0.8-1.6l-5.3-0.9
		l-1.1,1.9l2.5,3.6l-1.5,1.6l-2.9-1.4l-1.3,0.7l0.3,4.1v1.2l-1.4-0.3l-0.1-1.6l-2.4,0.1l-0.2-3.9l-6-0.1l-1.5,0.9l-0.3,1.5l2.2,2.8
		L96,180l-1.8,0.4l-2.3-0.6l-0.1,1.8l-4.9-1.5l0.1,2.8l1.5,1.2v2.2l-2.2,0.9l-2.4-1.7l-2.1,2.2h-1.7l-1.2,1.8L77,189l-0.8-1.2
		l2.4-2.6l-1.3-1.9l-3.5-0.2l-4.1-1.3l-1.7-3.4l-1.7-2.4l-0.1-2.3l-3.3-0.6v-2.3l-8.4-3.9l-1.4,1.6l-2.7,0.1l-1.6-4l1.3-0.3l2.6-2.9
		l-0.6-1.5l-4.4,1.8l-2.4,0.3l-4.9,5.5l-2.3-0.3l0.6-2.3l-6.1-2.7l0.6-1.7h2.4l0.1-0.9l-3.9-0.5l-2.2,3.2l-2-1.5l0.1-1.8l-2.5-0.5
		L22,159L21.7,158.9z"/>
	<g>
		<text transform="matrix(1 0 0 1 16.2823 227.1563)" class="st1 st2">Islampur</text>
	</g>
	<g>
		<circle class="st3" cx="46" cy="197" r="13.4"/>
		<text transform="matrix(1 0 0 1 40.0414 204.2403)" class="st1 st4">2</text>
	</g>
</g>
<g id="jamalpur-3">
	<polygon class="st6" points="135.4,262.8 139.7,260.4 141.8,258.8 143.5,258.9 145.5,261.3 145.9,270.9 145.9,273.6 145.6,274.7 
		143.7,273.8 140.5,273.1 140.2,278 142.6,284.1 143.6,287.5 145.4,288.7 144.7,290.3 140.6,291.3 138.7,295.5 139.1,299 
		140.2,301.5 140.2,305.9 139.3,307.4 139.8,321.6 138.4,331.8 135.4,335.4 130.9,336.2 129.2,334.8 125.7,335.1 118.7,333.5 
		113.4,330.7 102.9,337.3 96.9,338.2 92.9,334.7 92.5,333.4 93.3,332.4 92.8,329.5 87.3,327.3 85.8,328.6 84.2,328.1 82.8,325.9 
		81.3,327.6 78.7,327.4 79.5,319.3 82.7,317.6 85,308.4 82.7,306.4 83.8,304.9 86.3,302.3 84.7,297.4 85.9,295.7 89.6,297.9 
		90.5,290.5 88.9,288.9 85.3,288.7 84.7,284.7 81.7,284.5 76.7,279.6 77.7,278.2 76.9,276.5 75.4,276.1 71.7,273.2 72.5,269.4 
		69.2,267.5 65.5,267.7 62.6,270.1 59.8,267.4 56.5,265.4 52.7,266 51.2,269.5 49,269.9 48.5,266 43.4,265.6 41.1,264.8 39.2,261.6 
		44.7,254.8 52.2,250.5 60.4,251.3 61.2,250.1 59.7,247.6 64.4,246 70.4,242.6 70.6,240.5 72,239.9 74.1,240.9 77.3,234.3 
		78.9,229.5 78.1,224.8 82.7,217.3 89.6,212.3 91.4,204.8 93.5,204.6 98.9,211.4 98.9,213.8 105.4,218 107.7,225.3 106.9,236.4 
		107.2,238.7 111.4,243 113.2,249.6 112.5,252.8 115.1,254.7 117.1,254.2 118.2,255.7 116.3,258.2 120.4,263.5 125.1,263 
		126.5,269.9 136.7,270 	"/>
	<path class="st6" d="M24.5,265.5l1.2,3.2l1.2,2.8l0.2,7.3l0.1,5.5l-2.9,2.7l0.1,8.4l1.3,2.7l2.1,0.9l1.8,0.1l0.5,3.5l1.2,3.1
		l-1.2,0.8l-2.8-0.7l-2.4,2.2l-0.3,2.1l-1.9,1.2l-5.2,0.7l0.3,2l3,4.4l0.6,8l2.8,5.5l3.5,5.7l-0.1,4.8l1.6,4l7.7,8.3l9.2,6.5L52,364
		l8.1,0.5l3.1,1.2l0.3,0.8l3.3-0.8l2.8-2.5v-4.6l1.2-1l5.1,3.1l2.3-0.1l1.6,1.1l0.4,2.2l5.5,2.6l3.1-0.5l1.7,3.8l2.4-0.5l0.5-3.5
		l1.6-1.6l3.8,1.6l3.5-0.3l0.7-3.9l3.1-0.8l2-3.4l0.1-4.3l1.2-3l-5.8-0.4l-2.1-0.8l-0.2-3.5l0.8-0.5V342l-4.5-0.9l-0.9-3l-4-3.6
		l-0.4-1.2l0.9-1.1l-0.6-2.8l-5.5-2.2l-1.5,1.4l-1.7-0.5l-1.4-2.2l-1.5,1.7l-2.6-0.3l0.9-8.1l3.2-1.7l2.2-9.2l-2.2-2l1.1-1.6
		l2.5-2.6l-1.6-4.8l1.2-1.6l3.7,2l1-7.4l-1.6-1.6l-3.5-0.1l-0.7-4l-2.9-0.2l-5.1-4.9l1-1.4l-0.9-1.8l-1.5-0.4l-3.6-3l0.7-3.7
		l-3.3-1.9l-3.7,0.2l-2.8,2.4l-2.8-2.6l-3.3-2l-3.8,0.7l-1.5,3.4l-2.1,0.5l-0.6-3.9l-5.1-0.4l-2.3-0.8l-4,1.2l-7.3-2h-2.8l-2,1.4
		L24.5,265.5z"/>
	<g>
		<text transform="matrix(1 0 0 1 49.9073 267.2397)" class="st1 st2">Melandah</text>
	</g>
	<g>
		<text transform="matrix(1 0 0 1 35.2406 325.0732)" class="st1 st2">Madarganj</text>
	</g>
	<g>
		<circle class="st3" cx="100.7" cy="292.9" r="13.4"/>
		<text transform="matrix(1 0 0 1 94.7081 300.157)" class="st1 st4">3</text>
	</g>
</g>
<g id="jamalpur-5">
	<path class="st7" d="M143.2,273.8l0.1,2l2.4,2.2l6.4-3.9l7.4-0.3l2.4,1.7l1.8,4.7c0,0,1.3,6.5,1.2,6.5s0.4,4.1,0.4,4.1l5.3,3.8
		l4.6,2l3.3,0.1l5.5,2.4l3.3-2.8l5.2-0.5l3.7,5.1l9,2.3l4.8,0.9l-0.2-3.2l4.5-3.5l0.8,1l-3.4,4.2l1,1.4l5.7-1l1-1.5l1.8,0.3l1.9,2.2
		l6.5,1.2l6.7-1.7l4.5,1.5l9.7-1l2.4,0.3l5.2,3.2l2.2,0.4l1.3,1.4h3.9l0.8-1.1h1.7l1.3,0.9l4.4-3.2h2.4l1.7,2.3l-1.3,2.5l0.5,1.2
		l5.7,1.8l0.7,1.5l6.6-0.4l2.7,1.1h2.4l0.2,2.6l1.7,1.2l2.3,0.3l-0.3,1.9l-0.7,1.4l-0.9-0.4v-1.3l-2.3,1.9l-0.8,4.3l-0.8,0.8l-2-0.1
		l-1.6-0.9l-0.9,0.7l0.4,1.3l5.4,0.1l2.1-1.1l1.4,0.2v0.9l-1.5,1.2l2.6,1.2l-0.6,0.9l-3.7,0.6l-3.6,1.2l0.1,1l1.7,0.4l-0.2,4.6
		l-1,1.5l-2.5-0.1l-1,1.1l0.2,0.9l1.4,1v1.9l1.1,0.6v1.4l2.8,0.2l-1,2.1l-1.4,0.4l-2-1.8l-1.3,0.1l-1.4,1.3l-3.1-1l-4.4,4.4l1.5,0.8
		l-3,3.1l1.5,1.7v1.8l-1.9,2.2l1.6,3.3l-1.3,3.1l-4.2-0.5l-3,1l-1.8,3.6l-0.7,0.4l0.6,1.9l-1.1,1l-2.2,0.1l-0.2-1.8l-3-1.5l-1.6-2.2
		l-2.3-0.5l-2.6,2.2l-1.9-0.7l-1.1,1.6l-1.3,0.3l-0.7,1.1l-2.4-0.1l-3.1-2.3l-0.4-0.9l-3.1-2.1l-3.5,1.1l-5,1l-0.9,0.8l-0.1,1.8
		L231,377l-3.5,0.2l-6.1,3.2l-1.5,0.3l-3.5-1.3l-2.8,0.1l-0.2-1.4h-1.1l-0.2,1.6l-2,1.1l-2.3-0.4l-1.2,4.4l1.2,3.1l-2.8,4.6
		l-2.2-0.5l-0.1,1.9l-1,0.5l-1.1-0.8l-0.9,2.8l-1.1,0.8l-1.9-0.4l-6.6,5.5l0.7,3l-2.6,2.7l-1.8-1.3l-1.7,2.4l-2.1-0.9l-1.1,1.7
		l-3.4-0.4l-2.8-2.2l-0.5-2.1l-2.5-0.1l-0.3-1.3l1.9-1.1v-3.2l-2.8-3.1h-2.7l-0.9,1.1l-1.8-0.8l-1.9,1.6l-1.3-2.8l1.9-1.1l-2.8-2.9
		l-2.8-1.9l-7.2-3.1v-3.6l-2.4-0.9l-0.1-1.1l2.5-0.6l-1.2-3.6l-6.1-3.7l-4-2.6l-0.6-4.9l-4-1.2l0.2-3.5l2.8,0.1l1.1-2.6l-2.6-0.4
		l-1.9-2.5l-0.3-2.8h-2.3v1l-4.2,2.4l-3.9-1.9l-5,0.2l-0.7-1.7l-2.6,0.3l-1.8-2.1l-5.1-0.8l-5.7-0.4l-2.1-0.9l-0.3-3.4l0.8-0.5v-2.9
		l-4.5-0.8l-0.9-3l6.1-0.9l10.5-6.6l5.3,2.8l7,1.6l3.5-0.4l1.7,1.5l4.5-0.9l3-3.6l1.4-10.3l-0.5-14.1l0.9-1.5l0.1-4.4l-1.2-2.5
		l-0.4-3.5l1.9-4.2l4-1.1l0.8-1.6l-1.9-1.2l-1-3.4l-2.4-6.1l0.4-4.8L143.2,273.8z"/>
	<g>
		<text transform="matrix(1 0 0 1 167.2823 328.1567)" class="st1 st2">Jamalpur</text>
	</g>
	<g>
		<circle class="st3" cx="196.5" cy="350" r="13.4"/>
		<text transform="matrix(1 0 0 1 190.5414 357.2403)" class="st1 st4">5</text>
	</g>
</g>
<g id="jamalpur-4">
	<polygon class="st8" points="63.7,366.5 62.2,367.8 53.2,368.1 50.9,369.4 49.9,371.9 45.2,377.5 47.3,378.9 53.6,381.2 55.2,381 
		55.8,384 54.7,386.3 56.2,386.9 59.3,382.5 57.9,380.1 60.1,378.6 63.8,381.9 69.5,385 75.1,380.7 78.6,383 81.9,388.9 82,395.4 
		79.7,397.5 80.7,398.7 83.5,399.1 86.6,401 85.2,406 82.8,407.9 77.8,408.1 79,414.1 81.2,414.6 83.5,420.6 86.2,419.6 88.5,420.3 
		88.5,422 85.9,425.1 88.9,427.6 87.3,428 87.6,430.6 90.8,430.8 92.4,432.5 91.9,434.8 89.3,437.9 83.5,439.8 83.1,441.7 
		84.7,444.7 84.1,460.4 85.6,464.1 84.4,465.7 73.5,466.6 72.4,467.8 73,469.6 72.4,471.5 74.7,477 75.7,477.6 75.9,480.7 
		78.8,482.8 80.6,484.5 81.1,492.8 83.9,493.8 84.1,495.8 86.4,499.6 89.3,500.9 93.4,500.7 95.8,498.6 96.4,495.1 99.9,494.9 
		100.2,493.5 96.8,492.5 97.6,491.2 96.1,489.3 97.5,488.4 99.7,491.2 101.3,487.3 105.2,488.2 105.8,486.9 102.9,484.5 103.4,482 
		106.2,480.1 108.9,480.2 108.8,478.7 106.7,478.4 104.6,476.4 105.4,474.6 109.2,476.3 109.9,475.4 108.7,472.7 111.7,472.2 
		112.1,471.1 111,469.7 112,466.9 117.3,470.4 118,468.4 113.9,464.4 112.4,462 113.1,460.7 115.4,461 115.5,458.9 112.2,457.6 
		113.1,455.3 116.1,455.1 119.9,456.1 125.4,454.7 127.3,451.9 125.2,448.1 124.9,444.1 129.4,438.5 130.8,435.8 132.9,438.1 
		136.3,439 141.2,436.2 141.6,432.5 138.8,424.2 133.5,418.8 131,416.7 131.5,410.5 131.2,406.6 130.9,399.8 133.7,398.4 
		131.9,396.6 133.2,396 135.1,397.4 136.1,397 137.9,400 140.8,400.4 141.9,400.5 142.6,401.9 144.1,401.2 143.4,399.8 141.3,398.6 
		143.2,397.1 146.3,402 148.3,400.3 149.3,397 151,395.9 153.1,395.9 155.1,397.4 156.1,396.2 154.4,394.9 155.5,393.8 152.5,391.9 
		153.3,389.9 156.8,391.7 160.1,390.1 159.1,389.5 151.9,386.4 151.9,382.9 149.5,382 149.4,380.9 151.9,380.3 150.7,376.6 
		145.4,373.5 140.6,370.4 140,365.5 136,364.4 136.2,360.9 139,360.9 140.1,358.3 137.5,357.9 135.6,355.4 135.2,352.6 133,352.7 
		132.9,353.7 128.6,356.1 124.7,354.2 119.7,354.4 119,352.8 116.5,353.1 114.6,350.9 109.6,350.2 108.5,353.1 108.3,357.6 
		106.4,360.9 103.3,361.7 102.6,365.6 99.2,366 95.3,364.4 93.8,366 93.2,369.4 90.9,370 89.1,366.2 86,366.7 80.4,364 80.1,361.8 
		78.4,360.6 76.2,360.8 71.1,357.7 69.9,358.7 69.9,363.4 67.1,365.9 63.9,366.8 	"/>
	<polygon class="st5" points="85.3,403.3 87.2,404.7 89.7,402.1 91,405.6 91.6,404.5 93.6,404.5 94.2,407.2 95.3,407 95.5,403.2 
		96.3,402.9 98,404.3 99.3,403.8 98.8,401.3 97.6,400.7 97.2,397.3 98.1,395.8 98.9,398 101.7,396.1 98.5,394.6 99.7,392.9 
		104.3,386.3 108.4,381.6 111.4,380.4 113.9,372.5 115.6,371.5 118.5,370.9 119.8,366.9 124.1,364.9 129.3,366.5 128.7,371.9 
		126.6,373.8 126.3,376.2 120.9,380.2 119.7,379.8 117.6,381 118.1,383.3 119.5,385.9 123.1,387.4 123.4,389.3 121.9,390.3 
		116.4,388.6 113.2,389.8 113.3,391.6 114.9,392.7 113.7,394.8 114.6,398.1 116.7,399.3 116.5,403 115.2,404.9 115.9,406.7 
		112.5,409.4 117.4,417.7 116.5,418.5 113.2,418.1 110.5,419.3 107.4,420.3 106.8,422.3 108.2,425.3 113.8,426.4 113.9,427.6 
		111.9,429 109.9,431.6 109.8,433.9 113.1,434.3 113.2,435.7 109.7,436.5 108.4,438.6 104.1,440.9 100.8,440.5 98.3,439.3 
		95.6,442.3 91.8,443.5 89.2,442.4 87,442.1 85.1,439.4 89.6,436.9 91.4,434.2 91.3,432.3 89.6,430.6 86.9,430.7 86.9,428.2 
		88,427.9 85.3,425.2 87.5,422.2 87.6,420.1 85.7,419.6 83.5,420.7 82.7,420.3 81.8,418 80.4,417.2 80.6,415.5 79.6,414.2 78.2,414 
		76.5,408.8 77.2,408.2 81.6,408.3 84.4,406.3 	"/>
	<g>
		<text transform="matrix(1 0 0 1 72.4489 384.49)" class="st1 st2">Sarishabari</text>
	</g>
	<g>
		<circle class="st3" cx="112.2" cy="419.2" r="13.4"/>
		<text transform="matrix(1 0 0 1 106.2081 426.4903)" class="st1 st4">4</text>
	</g>
</g>
</svg>
