<?xml version="1.0" encoding="utf-8"?>
<!-- Generator: Adobe Illustrator 25.2.1, SVG Export Plug-In . SVG Version: 6.00 Build 0)  -->
<svg version="1.1" id="Layer_1" xmlns="http://www.w3.org/2000/svg" xmlns:xlink="http://www.w3.org/1999/xlink" x="0px" y="0px"
	 viewBox="0 0 400 384.7" style="enable-background:new 0 0 400 384.7;" xml:space="preserve">
<style type="text/css">
	.st0{fill:#ABBEED;stroke:#FFFFFF;stroke-width:0.5;stroke-miterlimit:10;}
	.st1{font-family:'TimesNewRomanPSMT';}
	.st2{font-size:16px;}
	.st3{fill:#FFFFFF;}
	.st4{font-size:24.672px;}
	.st5{fill:#C5CFED;stroke:#FFFFFF;stroke-width:1.033;}
	.st6{fill:#8BAFE8;stroke:#FFFFFF;stroke-width:0.5;stroke-miterlimit:10;}
	.st7{fill:#7CA7E5;stroke:#FFFFFF;stroke-width:0.5;stroke-miterlimit:10;}
	.st8{fill:none;stroke:#FFFFFF;stroke-width:0.25;stroke-miterlimit:10;}
	.st9{fill:#9BB6EA;stroke:#FFFFFF;stroke-width:0.5;stroke-miterlimit:10;}
</style>
<g id="netrokona-1">
	<path class="st0" d="M70,109.4l-2.1-2.6l-0.2-1.6l1.3-1l-0.5-0.9l-2.3-0.3v-1.5h2.1v-1l-2.2-0.6l0.1-3.9l2.3-3l-1.8-1.1l0.4-1
		l3.3,0.1l0.4-1.3l-2.4-2.9L66.1,86l0.1-1.9l2.3,0.3l-0.2-2.7l-1.4-1.9l-3.2,0.7l-1.5,2.4l1,1.3l-2.4,1.3l-1.2,2.4l-1.2-0.4L58.2,86
		l1.2-2.4l-0.1-3.8l1.9-1.1l0.2-2l-3-2.2l0.2-1.5l5.7-5l-0.2-1L63,66.1l3.5-4l-0.2-1l-1.9-0.2L64,59.3l1.4-1.3L65,54.8l2.2-1.6
		l-1.3-2.1l0.4-1.1l2.9-0.8L69.1,45l-2.8-2.9l0.1-1.3l3.3-1.5l0.4-4.1l1.6-3.4l-1-1l-0.4-7.5l1.2-0.9l1.9,1.1l0.8-0.8h2.6l0.4,0.8
		l2.4-0.3l1.6-1l3.4,0.5l0.5-1.1l-2-1.6L83,18l1.3-0.6l4,1.7l0.9-2.1l-0.3-2.6l-2.2-2.9l1.3-0.8l2.9,2.8l1.2,3.5l1.2-0.7l0.6-4.9
		L95,9.1l1.2,0.5L95.1,13l1.6,5.2l-0.9,2.5l1.1,6.2h1.7l1.2-4.2l1.4-1.2l0.5,0.9l-0.2,1l2.9-0.2l2-1l0.5,1l-2.4,3.3l0.9,2.2l1.5-0.7
		l2.2,0.2l2,2.8l1.4,1.1l1.2-0.2l-0.3-2.3l0.9-1.8l1.4,1.9h1.7l0.8-3.4h3.1l1.5,1.7h3.6l2.1,4.5l3.4,0.7l3.1-2.4l-1.4-2.4l-2.3,0.6
		l-0.1-2.2c0,0,3.1,0,2.9-0.2c-0.1-0.1,0.1-1.7,0.1-1.7l1.5-0.3l0.6,2.4l2.3,0.8l1.2-2l3.2-0.5l1.5,1.4l-0.3,2.1l2.3,0.3l0.8,1.3
		l-3.2,3.4l-1.9-1.9l-0.9,1.2l-0.1,1.9l-3,4.3l1.5,2.2l2,1l1,0.3l-0.1,1.6h1l1.3-2.2l0.7,0.6l0.4,1.9l3.7,0.4l-0.1,1l-2.3,0.8
		l1.4,1.7l-0.8,0.5l-2.5-0.5l-1.5,3.8l1,0.3l1.5-1.1l3.2,0.4l0.3,0.8l-0.7,2.2l0.8,1.2l0.6,4.6l-1,0.9l0.4,1l1.3-0.5l1.9,1.2
		l0.5,4.4l3.4,0.3l2.8,2.3l1.1-0.2v-2.1l1.2-1.4l2.8,3.4l0.1,1.3l-0.8,0.5l-1.7-0.4l-4.9,4.7l0.2,1.2l-1.2,0.9l0.6,2.8l-0.8,1.3
		l-1.7-0.6l-4.5-5.8l-2.9,0.2l-3.2,1.9v2.3l-2.8,2.5l0.4,1l3.1,0.4v1l-0.9,0.6l1,1.1l-0.1,2.9l-2.2-1.1v1.9l-2.4,1.5l-2.4,0.9
		l-0.2,2.5l0.9,2l2.6,0.9l0.8,3l0.4,1.5l-4,2.7l-1.1-0.6l-2.2,0.5l-0.8,1.1l-1.9-0.4l-1.9,2.4l-1-0.7l0.5-1.5l-2-1.6l-2.2,0.5
		l-2.6,2.9l-1.8,0.2l-3.3,1.5l0.6,1.1l-0.9,1.3l0.8,1.5l4.1-0.2l2.1,2.5l0.9,0.1l1.3-1.2l1.8,1.3v3.7l-1.3,0.2l-0.1,1.7h-2.6
		l-0.8-1.2l-1.5,0.6l-2.9,0.1l-1.8,1.5l-0.7,1l-4,3.2l-5.1,2.6l-2.8-0.5l-2.3-3.6l-2,1.2l-1.7,0.7l-2.7-1.8l0.1-1l0.8-1l7.2-1.5
		l0.2-0.9l-0.8-1.2l-3.6,1.1l-0.9-1.1l2.7-2.7l0.2-2.5l-1.1-0.3l-1.6,2l-3.4,1l-2.8-3.4h-1l-3.2-1.4l-3.6,0.5l-4.1,2.1l-4.6,0.8
		l-0.8-1.5l0.7-3.7l-0.9-2.5l-3.1-0.4L70,109.4z"/>
	<path class="st0" d="M144.6,26.6l1.2-1.7l-1-1.2l1.9-3.1l3-2.1l2.2,0.3l2.9-2.4l1.7,0.3l-0.6,2.5L158,20l4.5-1.2l1.1,3.4l2.3,1.1
		l1.2-0.9l1,0.6l-0.8,3.5l5.3,2.3l0.2-1l-1.4-1.3l1.3-0.8l1.9,1.1l0.3,2l7.4,1.2l2.7,0.1l-0.1-1.9l2.2,0.2l0.9,2.9l2.7,0.6l4-1.5
		l1.8,1.4l2.2-1v-1.1l1.7-0.3l0.5,1.4l2.1-0.6l1.5-2.7l3.4-0.8l4.5,1.2l2.2-0.9l2.7,2.1l10.9-0.6l8.9-1.9l4.5-2.5l5.3,0.3L249,23
		l0.9,0.7l-2.1,2.2l3,1.7l1.6,2.1l-0.2,1l-2.1-0.1l1,2.5l-0.6,1l-1-1l-2.4,1l1.1,2l-0.9,1l-4-0.7l-0.5,1.8l-1.4,4l0.7,1.4l2.1,0.1
		l-0.2,2.5l1.6,0.3l-0.4,5.1l-0.8,2.6l-3,0.1l-0.4,1.6l8.9,9.9l2.5-1l1.3,1l0.1,2.3l-2.3,1.2l0.8,1.4l-0.2,3l1,1.5l1.7,1.4l-0.7,1.9
		l-2.3,1.1l-1.2-0.2l-1.6-1.6l-1.1,0.2l-0.3,1.3l-1.5,0.5l-1.1-0.5l-1-1.3l-1-0.4l-2.5-3.7l-1.8-0.7l-1.9,1.8l-1.4-0.3l-1.1-0.6
		l-0.6,0.9l-1.5-0.4l-0.7,0.8l2.3,2.2l-0.6,1.3l2,2.6l-0.8,1.4l-1.7-0.2l-1.3,0.6l0.1,1.1l1,2l-0.9,2.8l0.7,0.7l1.5,0.3l-0.4,3.4
		l-0.7,1.1l1.5,0.8l2.2-0.7l6.6-0.2l0.7,1.5l2.3,1.7h2.1l2.1,1l-0.5,0.8l-3.8,1.1l-2.6-1.1l-1.8,1.6l-1.6-0.2l-0.3,1.5l-3.4,0.6
		l-0.2,1.5l-1.5,1.3l0.3,4l1,1.6l-0.1,2.3l1.3,0.5l0.5,1.5l4.2-0.2v0.8l-1.3,1.6l1.1,1.9l-2.1,3.2l-2.1,2.4l-0.1,1.9l-5.1,0.7
		l-4.9,2.9l-4.7-1.1l-1.5,1.7l-4.1,0.8l-2.9-0.9l-5,5l-1.4-1.1l-1.2,0.4l-0.3,1.7l-3.2,0.9l-3.1,2.4h-2.7l-2.1-1.9l-1.1,0.3
		l-0.1,1.8l-4.9,2.2l-1.5-0.2l-0.1-1.4l5.1-4l-1.1-2.6l-2.3-2.4l2.3-6l-3.5-4.4l-1.2,0.9l-1.8-0.8l-0.6-2l-4.5-0.4l-2.9,4h-2.9
		l-2.5,1.2l-1.9-1.3l1.2-4.5l-1.3-0.8l-2,2.2l0.3,1.9l-1.8,1.2l-3.6-1.2l-1.2,2.5l-2.4-0.4l-6.9-6l-1.7,0.8l1.3,1.8l-0.6,1l-1.6-0.3
		l-2-2.7l3.1-4.1l-1.3-2l-1.6-1l-1-3.2l-3.4-1.8l-0.7-3.7l-1.2-4.4l-2.5-0.9l-0.9-2l0.2-2.5l2.4-0.9l2.5-1.5v-1.9l2.2,1V87l-1.1-1
		l0.8-0.7v-1.1l-3.1-0.3l-0.4-1l2.9-2.5v-2.2l3.2-1.9l2.9-0.2l4.5,5.8l1.7,0.6l0.9-1.3l-0.6-2.8l1.2-0.9l-0.1-1.2l4.9-4.7l1.7,0.5
		l0.8-0.5l-0.1-1.4l-2.8-3.3l-1.2,1.3v2.1l-1.1,0.3l-2.8-2.4l-3.4-0.3l-0.5-4.4l-1.9-1.2l-1.2,0.5l-0.3-1l0.9-0.9l-0.5-4.6l-0.8-1.2
		l0.7-2.2l-0.3-0.8l-3.2-0.4l-1.4,1.2l-1-0.3l1.4-3.8l2.5,0.5l0.8-0.5l-1.4-1.7l2.3-0.8l0.1-1l-3.7-0.4l-0.4-2l-0.7-0.6l-1.3,2.2
		h-1.1l0.2-1.6l-1-0.4l-2-1l-1.5-2.2l3-4.4l0.1-1.9l1-1.2l1.8,1.8l3.2-3.4l-0.8-1.4l-2.3-0.2L144.6,26.6z"/>
	<g>
		<text transform="matrix(1 0 0 1 80.9998 63.6894)" class="st1 st2">Durgapur</text>
	</g>
	<g>
		<text transform="matrix(1 0 0 1 167.2333 58.7875)" class="st1 st2">kalmakanda</text>
	</g>
	<g>
		<circle class="st3" cx="179.6" cy="88" r="13.4"/>
		<text transform="matrix(1 0 0 1 173.6247 95.2403)" class="st1 st4">1</text>
	</g>
</g>
<g id="netrokona-2">
	<path class="st5" d="M237.3,127.1l1.5,0.8l-0.4,3.8l2.3,2.4l3.2,0.6l0.6-1.5l2.7,0.2l2.3,3.1l0.7,2.9l2.8,0.3l0.4,1.8l-1.1,4.9
		l-4,3.9l-1.9,0.4l-2.7-0.4l-2.9,1.6l0.6,2.2l2.6-2.1l1.2,0.7l-1,3.5l0.4,2.9l0.9,1.5l-0.9,3.4l0.6,2.5l4.3,1.9l1.6-1.1l0.1-1.3
		l5.6-1.5l3.6,1.4l3.3,0.2l1.6,2.2l-0.1,4.3l0.8,1.3l0.2,4.5l-2.3,0.7l-0.7,0.7l-0.3,2.4l-1.2,0.8l-1.8,0.4l-3.8,3.8l-2.5,0.7
		l-1.2-0.2l-1.3-2.4l-0.8,0.5l-0.5,2.6l-2,1.8l-3.3,0.7l-3.5-0.3l-2-2.1l-0.8-0.7l-0.8,0.6l0.3,3.3l-2.1,1.2l-1.6-1.5l-0.3,0.7v1.4
		l-1.9-0.4l0.1,1.2l-1.2,0.3l-1.1-1.3l-1.5,0.1l0.4,2l-0.6,0.5l-1.8-0.2l-3,0.9l-2.9-1.1l-0.8,0.7l-0.2,1.8l-2.3,0.8v2.3l-3.2,1
		l-2.2-0.8l-1.4-1.1l-0.4-1.9l-2.1,0.4L199,202l-1.5,0.6l0.2,1.6l-1.1,0.3l-0.8-2.5l-2.2-1.4l0.1-1.8l-3.4-3.1l-0.9,0.7l-0.5,1.3
		l-4.2,1.8l-1.4-0.9l-1,0.4l-0.5,2l-3.4,2l-4.7,0.1l-2.5-0.8l0.4-1l1.4-0.4l-2-2l2.9-3.8l1.7,0.1l0.4-0.9l-1.4-1.1l0.5-1.9l1.7-1.7
		l-0.3-3.3l-3.6-3.1l-0.7,0.6l-0.6,1.4l-1.9,2.1l-1.9-0.3l-0.8-1.1l0.5-0.7l1.9-0.2l1.3-1.5l0.2-1.7l2.2-1l0.2-2.9l1.8-2.5l0.2-2.1
		l4.7-4.9l-0.6-3l0.3-2.8l2.6-0.8l3.6,2.1l1.2-1l-0.8-2.1l-3.5-1.3l-0.2-1.8l0.9-4.5l-3.5-5.3l-1.9-1.1l-1.7,1l-0.9,2.9l-1.2,2.2
		l-2-0.5l-4.3-3l-0.3-2.5l0.8-4.8l-1.2-3.9l-2.1-0.4l-1.4,0.8l-0.7,2.6c0,0-0.9,0.2-1,0.1c-0.1-0.1-4.8-3.3-4.8-3.3l-1.5,0.2l-1.6,2
		l-1.2-0.1l-0.1-1l1.5-2.1l1.9-1.7l0.3-1.8l-1.1-1.2h-2.3l-3.9-1.6l-1.2-2.7l1.1-4.2v-2.9l1.7,0.3l0.5-0.9l-1.2-1.8l1.7-0.8l6.8,6.1
		l2.3,0.4l1.3-2.5l3.5,1.2l1.8-1.3l-0.3-1.9l2.1-2.2l1.3,0.9l-1.2,4.4l1.9,1.3l2.5-1.2h2.9l2.9-4l4.5,0.4l0.6,2l1.8,0.9l1.2-0.9
		l3.5,4.4l-2.3,6l2.3,2.5l1.1,2.5l-5,4l0.1,1.4l1.5,0.3l5-2.2l0.1-1.8l1.1-0.3l2.1,1.9h2.7l3-2.4l3.3-0.9l0.3-1.7l1.2-0.4l1.4,1.1
		l4.9-4.9l2.9,0.9l4.1-0.8l1.5-1.6l4.7,1.1l4.9-2.9l4.8-0.6L237.3,127.1z"/>
	<path class="st5" d="M98.8,229.6l2.7,0.2l1.5,1.5l1.1-0.2l0.5-1.2l2.3-0.1l1.8,1.2l3.4-1.3c0,0,1.7,1.8,1.7,1.7s2.8-1.8,2.8-1.8
		l2.7,0.7l1.5,2.2l-0.9,2.2l-2.7,1.7v1.9l1.6,1.4l4.9,1.2l2.1,1.8l0.5,2.5l-1.2,2.1l0.9,0.6l2.5-1.6c0,0,3.5,0.7,3.6,0.7l5.4,2.9
		l1,3.2h6.1l1-0.9l0.1-2.3l2-0.3l2.6,0.6l3.6-1.1l2.8-3.2l-2.2-3l-0.3-2.1l1.7-2.1l2.2,0.4l-0.1-1.2l1.1-1.1l-0.9-2.5l1.9-1l1-3.1
		l-0.4-1.6l2.3-2.2l-3.4-5.8L158,220l-1.2,0.8l-1.7-2.4l0.2-1.3l0.9-1l0.2-2.3c0,0,1.4-0.6,1.4-0.7s1.7,1,1.7,1l2.3-0.9l1.3,0.6
		l0.9-1.1l-0.3-5.3l1.2-1.2l4.7-0.6l1.1-0.7l0.3-2.4l-0.1-0.4l0.3-0.6l1.4-0.5l-1.9-2l2.9-3.8l1.7,0.1l0.4-0.9l-1.4-1.1l0.5-1.9
		l1.7-1.7l-0.3-3.3l-3.6-3L172,184l-0.7,1.4l-1.9,2l-1.9-0.3l-0.9-1.1l0.5-0.7l1.9-0.2l1.3-1.5l0.2-1.6l2.2-1l0.2-2.8l1.8-2.5
		l0.2-2.1l4.7-4.9l-0.6-3l0.3-2.8l2.6-0.8l3.6,2.1l1.2-1l-0.8-2.1l-3.5-1.3l-0.2-1.8l0.9-4.6l-3.5-5.3l-1.9-1.1l-1.7,1l-0.9,3
		l-1.2,2.2l-2-0.5l-4.3-3l-0.3-2.5l0.8-4.8l-1.1-3.9l-2.1-0.4l-1.4,0.8l-0.7,2.6l-1,0.1l-4.9-3.4l-1.4,0.2l-1.6,2l-1.3-0.1l-0.1-1
		l1.5-2.1l1.9-1.7l0.3-1.8l-1.1-1.2h-2.2l-3.9-1.6l-1.2-2.7l1.1-4.3v-2.8l-1.9-2.7l3.1-4.1l-1.3-2l-1.6-1l-1-3.2l-3.4-1.8l-0.7-3.6
		l-3.9,2.6l-1.1-0.6l-2.2,0.5l-0.8,1.1l-1.9-0.4l-1.9,2.5l-1.1-0.7l0.5-1.6l-2-1.5l-2.2,0.5l-2.6,2.8l-1.8,0.2l-3.2,1.6l0.5,1
		l-0.9,1.3l0.8,1.4l4.1-0.3l2.1,2.5l0.9,0.1l1.3-1.1l1.8,1.3v3.6l-1.3,0.2l-0.2,1.7h-2.6l-0.8-1.2l-1.6,0.6h-2.9l-1.8,1.6l-0.6,1
		l1.2,0.4l4.1,6.5h1.6l1.7-2.5l1.6,0.2l1.8,5.6l-0.1,2.4l-2.6,1.3l-4.8,0.8l-2-0.3l-1.7,0.9l-6.5-1l-0.4,1.1l0.4,1.7l-1,0.4
		l-2.1-0.9l0.1,3.3l-3.7-0.2v2l2.1,0.4l1.5,6l-1.5,1.6l-0.2,3.9l-2.7,0.2l-3.3,3.1l-2.8-1l-0.5,1l0.6,2l-0.2,1.6l-3.7-0.5l-2.3,2
		l0.6,3.5l-2.1,2.4l-0.9,5.7l-0.9,1.7l0.5,3.7l-1.3,2.2l0.9,1.4l-0.9,2.5l1.5,2.5l2.3,0.7l-0.3,2.5l2.1,4.9l-0.8,2.3l0.4,5.5
		l1.9,2.2l0.1,5.4l-3.2,0.6l-0.5,3.5l0.6,1.8l-1.7,0.6l-0.8,4.4l2,0.3l0.8-1.7l3.1-0.6l2.2,3.3L98.8,229.6z"/>
	<g>
		<text transform="matrix(1 0 0 1 200.8167 168.9124)" class="st1 st2">Barhatta</text>
	</g>
	<g>
		<text transform="matrix(1 0 0 1 118.9 168.9125)" class="st1 st2">Netrakona</text>
	</g>
	<g>
		<circle class="st3" cx="134.3" cy="192.3" r="13.4"/>
		<text transform="matrix(1 0 0 1 128.2914 199.5736)" class="st1 st4">2</text>
	</g>
</g>
<g id="netrokona-4">
	<polygon class="st6" points="266.3,178.3 268.2,177.5 270,177.9 274.8,174.2 276.3,174.7 276.1,176.8 278.5,178.8 277.8,179.6 
		276.5,178.9 275.1,179.6 275.5,180.7 277.5,182 279.4,179.5 280.1,179.2 281.2,180.1 281.5,182.9 282.8,182.9 282.7,178.8 
		285.1,175.7 287.5,173 286.4,171.6 286.8,169.8 290,168.4 292.3,169 292.9,171.2 295,171 295,172.6 295.8,172.4 297.3,170.5 
		301,171 300.6,174.4 302.5,174.4 305.1,172.6 306.9,173.6 307,175.3 309.6,178.1 311.1,177.9 312,180.9 313.9,180 316.1,180.2 
		316.3,182.4 318.1,182.4 317.8,183.9 321.7,189.1 320.5,190.5 319.3,189.6 318.6,193.3 321.5,195.1 324.3,203.3 327.9,203.8 
		328.3,201.9 329.4,201.9 329.4,204.8 332.2,206.3 331.3,207.6 329.6,207.4 326.8,208.7 324.7,215.1 325.3,216.1 323.6,220 
		325.3,222.5 325.8,225.6 320.2,237.3 318.4,236.4 315.3,238.2 312.2,236 310.7,236.5 310.1,238.1 311.5,240.5 311.1,241.1 
		309,240.6 307,241.6 307.2,244.3 307.6,246.8 307.1,247.6 302,246.2 302.2,244.4 301.1,243.1 297.7,244.3 296.1,246.9 294.5,247 
		291.6,246.2 288.3,248.2 282,246.1 277.3,246.4 273.8,248 274.3,252.5 275.1,254.3 274.9,256.2 273,257.3 273,260.1 270.1,261 
		270,262 269.6,263.3 267.7,262.3 263.9,263.2 262,262.3 261.9,259.1 258.9,257.3 258.4,255.2 255.9,254.7 255.9,253.2 258.5,252.1 
		258.1,248.6 258.4,247.5 257.1,246 257.1,241.9 258.5,240.7 257.3,239 254.9,239.9 251.2,241.8 250.8,243.4 244.7,244 242.1,244.9 
		241.4,247.7 240.2,247.8 235.1,244.3 234.9,240 236.4,235.8 234.8,234.2 234.7,230.8 232.1,230.2 231,228.4 226.9,227.1 
		225.7,223.9 226.8,221 225.4,218 226.7,216.1 228.8,214.7 230.5,211.8 234.1,210.8 237.3,211.9 240.8,210.4 240.9,208.3 240,207.6 
		240.7,206.3 239.4,203.4 239.5,200.3 238,199.9 237,201.4 235.9,200.8 235.6,194.4 234.5,193.5 233.6,193.3 233.6,192 233.9,191.3 
		235.5,192.8 237.6,191.6 237.4,188.3 238.2,187.7 239,188.5 241,190.6 244.5,190.9 247.9,190.2 249.8,188.4 250.3,185.8 
		251.2,185.3 252.5,187.7 253.8,187.9 256.3,187.2 260.1,183.4 261.8,182.9 263,182.1 263.3,179.8 264.1,179.1 266.3,178.4 	"/>
	<path class="st6" d="M325.8,225.7l1.2,0.6l0.7-1.1l1.1,0.7l2,0.2l0.9,1.4l0.4,0.6l2.1,0.2l-0.1,1.1l-0.4,0.7l-0.2,1.1l1.9,1.2
		l2.1-1.2l3.6,0.4l0.4-0.9l-1.3-2.1l0.4-1.5l2.8-2.1v-2l2.4-0.8l-1.6-5.1l-2.6-1.9l-0.6-1l0.1-3.1l3.4-1.9l0.5-2.5l1.1-0.7l1.7,1.1
		v2l1.5,0.3l1.3-0.8l1.5,1l-0.3,1.9l3,1.1l-0.3,2.8l1,5l-0.1,2.2l-3.6,4.2l-1.2,0.8l-1.5,4.3l1,0.8l1.9-0.4l2.3,0.6l0.7,5.3
		l-0.6,0.7h-2l0.5,1.9l-2.5,3l-1.9,0.4l0.6,2.6l-0.5,1.1l-3.3-0.9l-4.8,2.5l-3.7,2.1l0.1,0.7l2.3,1.5l2.6-0.8l1.9,0.3l0.6,1.3
		l-0.4,1.8l1.8,0.9l1.2-1.5l1.5,0.2l0.9,1.3l-0.8,2.9l-1.6,1l-0.9-1.1l-2.3-2.7l-1.5,0.8l0.4,2.1l2.8,4.1l-0.6,3l-2.2,0.5l-2.4,0.7
		l-0.5,1.1l0.7,0.6l5.4-0.3l2.3,0.1l1.4,0.8l-1.2,2.7l0.9,1.4l1.8-0.5l0.8-3l2.6-2.2l5.7,1.3l3.9,3.4l3.3,2.5l1.4,0.8l0.7-1.2l3,2.7
		l1-0.5l-0.6-1.4l1.1-0.8l1.2,0.6l2.2-2.4l2.6-1.5l-1.2-2.2l0.9-2.2l2.5-0.1l2.2,2l-0.8,2.9l-1,3l0.4,2.8l-0.5,2l-2.1,1.5l-0.1,1.7
		l6.2,4.2l2.7-0.4l1.4,1.1l-0.5,2v3l0.5,1l-1.3,2.4l-3.1,1.9L382,298l-1.1,1.9l0.2,1.5l4.5,1.1l0.1,1.1l-0.9,5.4l-2.2,2.3l-1-0.4
		l-1.2,0.7l-1.5-1.5l-4.1,0.2l-1.1,1.3l-0.5,5.7l-1.2,4.2h-1.2l-1.9-0.8l-1,0.3l-0.1,1.1l-1,0.2l-0.8-1.6l-0.6-1.8l-1.5,0.4
		l-0.8,0.9l-1.8-0.1l-1.4-2.2l-2-0.3l-0.8-1.1l-0.8,0.9l-1.3,0.2l-1.8,2.9l-2,1.6l-1.7-0.5l-2.7-3.3l-2.3,0.3l-1.3,1l-1.3-1.1
		l-1.5,2.3l-1.9,0.1l-1-0.8l0.2-1.2l-1.6-1.8l-2-0.6l-0.7,0.7l0.8,1.4l-1.3,1.5l1,1.6l-1,1.9l1.5,2.5l2.4,1.7l-1.4,1.3l-1.4,5.7
		l-1,0.1l-0.7-1.6l0.1-7.8l-1.1-2.7l-4.1-4.1h-2.3l-1.5-1.5l-0.1-3.8l-2.4-2.6l-1.1-7.2l1.5-3.5l-3-2.3l-1.3,0.4l-2.2-1.5l-0.9,0.6
		l-1.6-1l-1.5,1l-4.5-1.4l-1.1-1.4l-4.3,0.9l-0.6-3.1l2.6-2.6l0.4-3l-2.9-1.3l-1.3,0.1l-1.1-2.2l-1.2,0.4l-0.6,2l-0.9-0.6l-0.8,0.9
		l-1.8,0.4l-1,1l-2-1.7l-1.5,0.4l-1.3-0.8l3.9-3.8l3.2-3.1l-0.9-2.4l-0.5-2.2l-3.1-0.8l-1.6-2.7l-2.3-0.7l0.3-2.9l-6.4-4l-4.4-1.1
		l-2.7,0.9l-3-0.2l0.1-1.1l2.8-0.9l0.1-2.8l1.8-1.1l0.2-2l-0.8-1.7l-0.5-4.5l3.5-1.6l4.7-0.3l6.3,2.1l3.3-2l2.9,0.9l1.5-0.1l1.6-2.6
		l3.4-1.2l1.2,1.3l-0.2,1.8l5,1.4l0.6-0.8l-0.5-2.4l-0.1-2.8l2-1l2,0.6l0.4-0.6l-1.4-2.4l0.6-1.6l1.4-0.5l3.1,2.2l3.1-1.8
		c0,0,1.8,1,1.8,0.9s5.5-11.4,5.5-11.4L325.8,225.7z"/>
	<polygon class="st6" points="301.5,294.9 300.9,297.6 299.2,299.1 299.8,300.4 299.3,301.4 300.9,303.2 299.4,304.3 297.7,303.2 
		295.2,303.9 294.5,306.4 292.8,308.5 292.3,310.2 289.6,311 286.7,318 287.7,320 290.3,319.4 290.6,320.2 288.5,321.4 288.1,323.3 
		292.4,324.7 292.2,325.9 287.6,326.4 283,324 281.4,325 278.5,330.1 278.9,331.5 279.5,334 278.9,337.3 277.5,338.6 275.8,338.8 
		273.1,337.1 270.9,339.3 267.3,339.3 265.8,339.2 264.5,340.2 263.3,339.3 260.9,337.5 258.1,340.2 256.7,341.4 255.1,340.1 
		254.1,337.9 251.5,338.2 250.7,336.8 250.7,334.5 249.1,334.1 247.7,336.7 246.1,337.1 243.9,340.1 242.9,340.1 241.2,338.2 
		238.2,339.7 236.1,339.6 234.5,337.9 233.6,335.7 231.4,334.8 230.7,333.6 229.1,333.6 228.2,332.7 225.4,333.1 225.1,331.5 
		224.7,327.2 222.8,325.2 220.7,325.8 219.3,324.6 221.3,322.9 220.8,318.3 222.1,314.5 216.7,309.3 214.8,310.2 213.8,307.5 
		215.1,305.7 213.4,304 214.2,300.5 213,298.6 213,296.5 209.4,292.6 209.4,290.9 207.6,289.7 204.8,289.6 206.1,281.4 206.5,277.4 
		204.3,276.6 199.2,277.6 198.1,277.2 197.3,272.6 196.3,272.5 195.1,273.3 192.1,269.8 192.5,268.9 196.9,268.7 200.7,265.8 
		203.6,266.1 204.8,263.8 207.4,262.3 205.8,258.5 206.9,257.6 210.7,260.2 214.1,260.9 218.2,259.7 220.6,260.7 226,258.9 
		229.8,260.9 230.9,265.4 233.2,268.1 239.1,267.9 240.7,270.7 246.9,271.7 249.6,269.2 252.9,269.4 255.1,268.3 255.8,265.9 
		260.2,264.6 262,262.3 263.9,263.2 267.6,262.3 269.6,263.3 270,262 273,262.2 275.7,261.3 280.1,262.4 286.6,266.5 286.3,269.3 
		288.6,270 290.1,272.7 293.3,273.5 293.7,275.7 294.7,278.1 287.6,285 288.8,285.8 290.4,285.4 292.3,287.1 293.3,286.1 
		295.1,285.7 295.9,284.8 296.8,285.3 297.4,283.4 298.6,283 299.7,285.1 301,285.1 303.9,286.4 303.5,289.4 300.8,292 301.3,294.7 
			"/>
	<g>
		<text transform="matrix(1 0 0 1 262.0667 200.2458)" class="st1 st2">Mohongonj</text>
	</g>
	<g>
		<text transform="matrix(1 0 0 1 244.2333 303.1625)" class="st1 st2">Madan</text>
	</g>
	<g>
		<text transform="matrix(1 0 0 1 296.1291 263.975)" class="st1 st2">Khaliajuri</text>
	</g>
	<g>
		<circle class="st3" cx="282.3" cy="221.3" r="13.4"/>
		<text transform="matrix(1 0 0 1 276.2914 228.5736)" class="st1 st4">4</text>
	</g>
</g>
<g id="netrokona-3">
	<path class="st7" d="M155.8,244.5l2.6,0.1l0.6-3l4.2-1.2l2.4,1.9l-1.5,8.1l3.8,2.8l2.1-0.5c0,0,10.6,4.4,10.5,4.4s2.8-1.2,2.8-1.2
		l2.8,1.8l2,0.2l2.7,2.5l-3.7,6.5l2.3,1.6l1.1-0.9l1.9,1.3l4.4-0.3l3.8-2.9l2.9,0.3l1.2-2.2l2.6-1.5l-1.6-3.9l1.1-0.9l3.8,2.6
		l3.4,0.7l4-1.2l2.5,1l5.4-1.8l3.7,2.1l1.1,4.5l2.3,2.7l5.9-0.2l1.7,2.8l6.2,1l2.7-2.4l3.3,0.2l2.1-1.2l0.8-2.4l4.3-1.3l1.9-2.3
		l-0.2-3.2l-2.9-1.8l-0.5-2.1l-2.5-0.5v-1.5l2.7-1.1l-0.5-3.5l0.4-1l-1.2-1.6l-0.1-4.1l1.4-1.2l-1.2-1.7l-2.4,0.9l-3.7,1.9l-0.4,1.6
		l-6.1,0.5l-2.6,1l-0.7,2.7l-1.2,0.1l-5.1-3.4l-0.2-4.3l1.5-4.2l-1.6-1.7l-0.1-3.3l-2.6-0.7l-1.1-1.8l-4.2-1.2l-1.2-3.3l1.1-2.9
		l-1.4-3l1.2-2c0,0,2.2-1.3,2.2-1.5s1.7-2.8,1.7-2.8l3.6-1l3.2,1.1l3.5-1.4l0.1-2.1l-0.9-0.7l0.7-1.3l-1.3-2.8v-3.2l-1.5-0.4l-1,1.5
		l-1-0.7l-0.4-6.3l-1.1-1l-1.1-0.2l-1.8-0.4l0.1,1.2l-1.2,0.4l-1.2-1.3l-1.5,0.2l0.3,2l-0.6,0.5l-1.8-0.2l-3,0.9l-3-1.1l-0.8,0.7
		l-0.1,1.7l-2.3,0.9l-0.1,2.4l-3.2,1l-2.3-0.8l-1.3-1.1l-0.4-1.9l-2.1,0.4l-10.1,3.9l0.1,1.5l-1,0.3l-0.8-2.5l-2.2-1.4l0.1-1.9
		l-3.4-3.1l-0.8,0.6l-0.6,1.3l-4.2,1.8l-1.4-0.9l-0.9,0.4l-0.5,2l-3.4,2l-4.7,0.1l-2.4-0.8l-0.3,2.4l-1.1,0.7l-4.7,0.6l-1.2,1.2
		l0.3,5.2l-0.9,1.2l-1.3-0.6l-2.4,1l-1.7-1l-1.5,0.7l-0.2,2.3l-0.9,1.1c0,0-0.2,1.3-0.2,1.2s1.6,2.4,1.6,2.4l1.3-0.9l1.3,0.2
		l3.4,5.7l-2.3,2.2l0.4,1.6l-1,3.1l-1.9,1.1l0.9,2.5l-1.1,1.1l0.1,1.2l-2.2-0.4l-1.7,2.1l0.3,2.1l1.3,1.8L155.8,244.5z"/>
	<g>
		<polygon class="st7" points="125,246.9 119.7,248.6 118.6,247.1 118.5,245.2 115.1,245.4 113.8,244.3 111.8,245.6 113.7,252.3 
			112.3,254 114.2,255.9 116.8,254.4 121.3,256.6 122.6,258.8 121.1,261 122.8,262.4 124.2,261.5 126.6,262.6 127.2,268.7 
			124.1,271.2 119.8,269.6 116.8,273.7 116.4,277.1 112.1,278.5 112.1,279.7 113.8,284.2 112.5,285.6 113.6,286.9 117.9,286 
			119.4,290.4 117.1,290.7 118.1,293.4 115.7,294.6 116,298.2 114.3,299.2 117,304.7 119,304.4 119.9,307.7 126.4,315.7 
			127.4,315.4 128.5,312.8 130.6,311.9 130.4,314.5 131.3,314.8 132.4,313.3 135.5,314 137.5,322.3 144.9,322.1 145.9,323 
			146.4,325.9 147.5,327 147,328.8 145.4,329.3 145.2,336.9 147.9,337 151,337.7 154.2,336.8 154.8,335.5 154.4,332.7 156.2,332.5 
			158.1,336.5 160.3,338.1 162.8,338 164.1,339.4 164.1,341.3 164.8,343.1 163,349 160.6,349.9 161.2,351.6 164.5,350.3 
			165.2,351.5 162.4,353.6 164.2,355.1 166.2,354.9 166.6,353 168.3,353.3 171.3,358.3 173.6,360 176,360.1 176.4,363.2 
			177.6,365.9 175.9,371.3 173.9,372.7 174.6,374.8 177.3,373.3 178,374.8 176,376.6 176.6,378.3 178.3,378.2 179.1,376.2 
			182.3,376.8 183.8,375.5 181.6,372.8 182.7,371.9 185.8,376 187.4,375 185.9,372.7 188.7,372.2 189.1,370.4 190.8,369.9 
			192.3,373.9 195.6,374 197.9,376.2 198.8,375.3 199.1,373 199.9,373.4 201.2,370.4 203.3,368.9 202,367.5 203.5,365.2 
			204.9,365.4 207.3,363.9 209.4,364.2 208.9,366.8 210.3,366.5 211.6,367.7 215,366.5 216.1,368.2 217.4,367.5 217.1,364.7 
			218.5,363 221.7,363.1 225.9,364.9 227.6,363.6 228.9,364.1 229,366.6 230.4,366.6 230.4,364.6 233.4,363.6 233.9,361.6 
			232.4,348.3 230.6,345.7 229,346.4 225.7,341.2 226.5,338.8 225.2,331.8 224.6,327.2 222.8,325.2 220.7,325.8 219.2,324.6 
			221.2,322.9 220.8,318.3 222.1,314.5 216.8,309.4 214.8,310.2 213.8,307.5 215.1,305.7 213.4,304 214.2,300.5 212.9,298.7 
			213,296.5 209.4,292.6 209.4,290.9 207.7,289.7 204.8,289.6 206.1,281.4 206.5,277.5 204.4,276.6 199.2,277.6 198,277.2 
			197.3,272.6 196.3,272.5 195.1,273.3 192.1,269.8 192.5,268.9 190.6,267.6 189.5,268.5 187.3,266.9 191,260.3 188.2,257.8 
			186.2,257.6 183.4,255.8 180.6,257 170.1,252.7 168,253.2 164.1,250.4 165.6,242.3 163.2,240.4 159,241.6 158.4,244.6 
			155.8,244.5 156.5,245.6 153.7,248.9 150.1,249.9 147.5,249.3 145.5,249.6 145.4,251.9 144.4,252.8 138.3,252.8 137.2,249.7 
			131.8,246.8 128.3,246.1 125.8,247.6 125,247.1 		"/>
		<path class="st8" d="M168.2,353.3l2.4-0.1l1-0.9l-2.1-2.1l0.2-0.8h1.2c0,0,2.8,3.6,2.7,3.6l1-0.2l1.1-0.9l-1.5-1.8l0.5-0.4
			l2.1-0.2l1.2-1.7l1.5-0.1l1.2,3.7l3.7-0.2l3.1,1.9l0.9-2.8l0.9,0.3l1.8-2.8l2.2-1l-1.5-1.3l0.1-1.4l1.3-0.7l1.8-0.3l2.3-1l2-0.3
			l0.4,0.9l-0.6,1.6l2,0.4l0.9,0.6l3.7-0.6l1.4,1.4l0.8-0.5l0.1-2.9l1.5-1.6h2.3l5,1.7l2.2-1.1l1.3,0.2l0.4,2.8l1.1-0.1l0.8-2.2
			l2.8-0.9"/>
		<g>
			<text transform="matrix(1 0 0 1 176.9 233.7458)" class="st1 st2">Atpara</text>
		</g>
		<g>
			<text transform="matrix(1 0 0 1 143.4 302.2458)" class="st1 st2">Kendua</text>
		</g>
		<g>
			<circle class="st3" cx="175.7" cy="258.2" r="13.4"/>
			<text transform="matrix(1 0 0 1 169.708 265.4903)" class="st1 st4">3</text>
		</g>
	</g>
</g>
<g id="netrokona-5">
	<polygon class="st9" points="38.7,95.8 38.7,95.8 41.8,96.1 41.6,99.6 46.2,102 48.1,101 50,101.3 55.1,105.3 56.7,105.5 
		57.9,104.7 58.1,102.3 59.4,102.1 61.1,105.2 64.7,104.9 65.6,105.6 68.2,110.2 70.6,109.1 72.4,108.2 75.5,108.6 76.3,111.2 
		75.7,114.8 76.5,116.3 81.1,115.5 85.2,113.4 88.8,112.9 92,114.3 93,114.3 95.8,117.7 99.3,116.7 100.9,114.7 102,115 
		101.8,117.5 99.1,120.2 100,121.3 103.6,120.1 104.3,121.3 104.1,122.2 97,123.6 96.2,124.7 96.1,125.7 98.7,127.5 100.3,126.8 
		102.4,125.5 104.7,129.1 107.5,129.6 112.7,126.9 116.6,123.8 117.9,124.2 122.1,130.7 123.7,130.7 125.4,128.2 127,128.4 
		128.7,134 128.6,136.3 126,137.7 121.3,138.5 119.3,138.2 117.6,139.1 111.1,138.1 110.7,139.2 111,140.9 110.1,141.3 107.9,140.4 
		108,143.7 104.4,143.5 104.3,145.5 106.4,145.9 108,151.9 106.5,153.4 106.2,157.3 103.5,157.6 100.2,160.7 97.5,159.6 96.9,160.7 
		97.6,162.7 97.4,164.4 93.7,163.8 91.4,165.8 92,169.3 89.8,171.7 88.9,177.4 88.1,179.2 88.6,182.9 87.3,185 88.2,186.5 87.2,189 
		88.7,191.5 91.1,192.2 90.8,194.7 92.9,199.6 92.1,201.9 92.5,207.4 94.4,209.6 94.6,215 91.3,215.6 90.8,219.1 91.4,221 
		89.6,221.5 88.9,225.9 90.9,226.1 91.7,224.5 94.8,223.9 96.9,227.1 98.8,229.5 98.3,230.8 97.8,232.4 92.1,235.5 90.2,235.5 
		88,235.5 85.8,233.6 85,231.4 82.5,231.5 77.3,233.5 76,232.4 75.6,229.4 73,227.9 70.7,227.8 69.3,226.2 69.8,225.2 68.6,224.5 
		68.3,222.7 67,222.6 64.2,225.2 62.5,223.7 56,223.6 54.6,222.3 54.5,218.1 53.5,218.2 49.1,223.6 47,224.7 45.3,224.2 44.8,222.9 
		45.7,220.5 49.3,217.8 52.9,216.4 52.9,214.9 55.4,212.1 55.6,210.7 57.4,211.2 58.1,210.4 58,206 53.4,205.8 52.1,207.2 
		51.6,209.4 49.9,209.2 49,207 48.2,207.2 47.5,208.6 46.3,208 45.6,206.4 43.2,205.9 42.7,205.2 44,203.6 46.5,204.4 48.3,203.5 
		48.5,202 46.9,200.3 47.5,199.3 49.5,199.9 50,198.7 47.5,196.5 47.3,190.5 49.4,190.4 49.2,189.3 47,187.6 46.9,182.5 44.4,181.7 
		40.7,183.4 39.3,183.5 38.1,182.7 32.9,182.8 30.3,179.3 30.2,177.1 32.9,174.3 32.2,172.9 33.5,171.2 33.5,169.9 31.7,168.5 
		31.7,166.8 30.2,165.6 30.3,160.2 31.8,158.3 35.6,157.8 35.7,155.2 32,154.3 31,152.2 29.1,151.6 26.8,153.1 25.8,152.6 
		26.3,151.4 28.7,149.6 28.9,147.6 28,146.8 24.9,149.7 22.4,150.7 21.1,150.4 21.1,148.5 19.5,147.9 18.8,145 18.8,142.3 20.3,141 
		20.6,136.6 22,135.3 24.6,133.4 24.5,132.2 23.2,132 21.3,133.5 19.7,132.7 18.5,130.3 17.8,128.5 14.9,128.5 14.5,127.1 16,123.7 
		15.2,122.6 13.9,122.6 13.9,119.2 12.3,119.1 10.9,118.5 8.9,120 8,119 8.7,117 12,113.5 13.8,113.5 14.6,112 12.2,109.6 
		10.3,110.1 9.2,109.3 10.7,106.3 10,105.4 10.6,103.6 13.4,102.6 15.1,103.1 16.3,105.3 16.1,110.7 17.2,110.8 18.3,108.8 
		18.3,104.2 19.8,104 20.7,106.9 22.5,106.7 24.1,104 25.5,104 27.8,110.1 31.1,113.1 32.8,113.8 34.6,113.2 36.4,111.3 36.8,107.5 
		35.2,105.6 31.1,106 29.2,104.5 29.1,102 29.8,100 31.4,100 33.4,100.7 35.9,102.5 36.6,101.9 36.9,98.5 	"/>
	<g>
		<text transform="matrix(1 0 0 1 15.7333 164.9541)" class="st1 st2">Purbadhala</text>
	</g>
	<g>
		<circle class="st3" cx="67.6" cy="134.3" r="13.4"/>
		<text transform="matrix(1 0 0 1 61.6247 141.5736)" class="st1 st4">5</text>
	</g>
</g>
</svg>
