<?xml version="1.0" encoding="utf-8"?>
<!-- Generator: Adobe Illustrator 25.2.1, SVG Export Plug-In . SVG Version: 6.00 Build 0)  -->
<svg version="1.1" id="Layer_1" xmlns="http://www.w3.org/2000/svg" xmlns:xlink="http://www.w3.org/1999/xlink" x="0px" y="0px"
	 viewBox="0 0 263.7 531.3" style="enable-background:new 0 0 263.7 531.3;" xml:space="preserve">
<style type="text/css">
	.st0{fill:#7CA7E5;stroke:#FFFFFF;stroke-width:0.5;stroke-miterlimit:10;}
	.st1{fill:#9BB6EA;stroke:#FFFFFF;stroke-width:0.5;stroke-miterlimit:10;}
	.st2{fill:#232323;}
	.st3{font-family:'TimesNewRomanPSMT';}
	.st4{font-size:16px;}
	.st5{fill:#FFFFFF;}
	.st6{font-size:24.672px;}
	.st7{fill:#8BAFE8;stroke:#FFFFFF;stroke-width:0.5;stroke-miterlimit:10;}
	.st8{fill:#ABBEED;stroke:#FFFFFF;stroke-width:0.5;stroke-miterlimit:10;}
	.st9{fill:#C5CFED;stroke:#FFFFFF;stroke-width:0.5;stroke-miterlimit:10;}
</style>
<polygon class="st0" points="49.9,63.3 45.3,76.8 48.1,77.5 50.5,74.1 50.6,74.2 55.1,77.1 55.4,69.4 61.2,58.9 63.7,47.4 
	65.2,42.2 64.4,40.9 57,40.8 56.2,42.3 "/>
<g id="cox_s_bazar-1">
	<polygon class="st1" points="72.9,84 72.9,84 75.7,80.2 76.7,73.1 72.9,71.4 73,71.4 77.2,66.5 77.2,66.5 81.7,67 87.3,66.6 
		91.1,63.6 91.1,63.7 92.8,64.6 93.9,62.1 93.9,62.2 97.8,64.3 102,59.9 102,59.9 105.1,61.1 107.5,58.3 104.3,55.9 104.3,55.9 
		105.8,50.9 104,50.8 104,50.7 104.1,47.6 106.1,48 106.8,46 104.2,44.9 104.3,44.8 106.2,42 104.7,37.6 98.6,40.4 98.5,40.4 
		95.6,39.1 95.6,39 97.1,31.5 97.1,31.5 102.8,33.1 106.6,30.6 105.2,27 102.2,28.3 102.2,28.3 99.2,26.7 95.7,29.8 95.7,29.7 
		92.1,24.5 91.5,21.2 91.5,21.2 94.2,19.2 92.3,17 91.6,17.3 87.8,15.6 84.8,20.8 86.3,23.4 86.3,23.5 83.5,26 81.6,25.1 82.7,21.9 
		81,20.8 79.3,25.6 79.3,25.5 76.5,23.7 74.4,27.2 69.2,26.2 66.4,29.5 67.8,32.5 67.8,32.5 67.6,36.2 67.6,36.2 64.9,37.2 
		64.8,40.9 64.5,40.9 65.3,42.2 65.3,42.2 63.8,47.5 61.3,59 55.5,69.4 55.2,77.2 55.3,77.2 55.3,77.3 55.2,77.3 55.2,78.6 
		62.6,82.9 62.6,82.9 60.2,93.3 63.4,98.1 71.4,93.8 71.4,93.9 73.3,97.2 73.3,97.2 76.8,98.4 77.1,95.5 	"/>
	<path class="st1" d="M103.5,154l3.9-0.5c0.9-0.8,1.9-1.7,1.9-1.8s0.3-4.4,0.3-4.8v-0.1h0.1l6,2l1.7,1.4l3.3-1.1l0,0l1.9,3.6
		l3.2,0.2l0,0v7.8l4.1,0.3l1.1-2.2l3,1.3l0.2-2.6h0.1l2.6,1.7l0.8-2.2l3.5,1.7l0,0L141,159l3.8-0.3l8.2-6.1l2.5-1.7l1.5-4.8
		l-2.6-4.2l-6.1-2.1l0,0l-0.1-2.2l-6.2-1.2l0,0l-0.5-2.6l-3.1-0.2l0,0l-1.7-1.4l3.2-1.6l3.5-0.5l0.9-3.3l-3.8,0.6l0,0l-3.1-2.4
		l2.8-0.4l3.2-3.5l-2.7-2.3l-1.9,1.6l-0.7-1.5l0,0l2.1-1.9l-1.7-3.7l-1.3,1.2l0,0l-2-2.3l0,0l2.6-2.7l1.6,0.2l0.7-1.3l-1.6-1.8
		l1.8-2.6l0,0l2.7,1.2l1.1-2.1l-3-1.5l0,0l-0.2-2.5h0.1l4.5,0.7l0.8-2l-4-2.4l0,0l0.6-3.7l3.8,1.3l0.1-1.8l-2.7-1.5l0,0l1-1.5l0,0
		l2.6,1.9l4.6,0.1l0,0l1.3,1l8.2-0.7l1.1-2.7l-2.1-0.2l-0.5-2l0,0l3.3-10.1l2.4-4.9h1.6v0.1l-0.2,4.8l2.1,1.1l2.4-0.5l1.6-4.6l0,0
		l6.2,0.5l0.3-0.9l-3.2-7.8l0,0l1-5.5l-3.1-3l-2.5-0.7l-0.9,2.6l0,0l-1.9-0.4l0,0l0.8-3.9l-2.9-1.9h0.1l2.2-1.3l-0.2-4.5l-4.7-0.6
		l-2.1,3.5l0.8,4l2.3,1.6l1.4,2.9l0,0l-0.2,3.1l0.8,1.7l0,0l-0.3,2.9l1.9,1.2l0,0l1.8,9.7l-2,0.5v-0.1l-0.5-5.5l-1.5-1.5l-1.9,0.5
		l-0.4,2.4l-1.9,1.7l0,0l-2.1-1.5l-1.3,1.8l0,0l-3.6-1.1l0,0l0.3-2.7l-5.2-6.1l-3.6,2.5l-5.8,1l0,0l-2.2-7.4l-1.3,1.1l0,0l-5.8-0.5
		l0,0l-2.7-4l1.7-1.5l-0.4-2.5l0,0l1-2.7l0,0l3.2-1l1-4.2l-2.1-2.2l0,0l0.3-2.6l-1.9-3l0,0l1.1-1.4l-1.2-4.1l0.8-2l-2.1-0.9l0,0
		l1.7-3.6l-2.7-1l0,0l0.1-1.9l-3.8-5.3l-2,0.7l-1.9-1.8l0,0L122,7.2l-2.5-0.4l-1.1,2.4h-0.1l-3.2-2.8l-1.5,1.2l1.9,3.5l0,0l-2,1.2
		l-0.3,3.1l0,0l-9.8,1.1l0,0l-1.6-2.2l-4.1-0.8l-0.8,1.9L92.4,17l1.9,2.2l-2.7,2.1l0.6,3.2l3.5,5.2l3.5-3.1l0,0l2.9,1.6l3.1-1.3
		l1.5,3.7l-3.9,2.6l0,0l-5.6-1.6L95.7,39l2.9,1.3l6.2-2.8v0.1l1.6,4.5l0,0l-1.9,2.8l2.6,1.1l0,0l-0.8,2.1l-2-0.3l-0.1,2.9l1.9,0.1
		l-1.5,5.1l3.2,2.4l0,0l-2.4,2.9l0,0L102,60l-4.2,4.4l-3.9-2.1l-1.1,2.5l0,0l-1.7-0.9l-3.7,2.9l0,0L81.7,67l-4.4-0.5l-4.1,4.8
		l3.7,1.6l0,0l-1,7.2l0,0L73,84l4.2,11.4l0,0l-0.3,2.9H77l0,0l1,9.1l2.3,3.9l2.7,5.2l8.4,7.4l5-2.1l0,0l4.7,1.5v0.1l-1.9,4.2v5.8
		l1.2,7.9l0.5,6.5l4.9-1.5v0.1l0.2,2.3l0,0l-3.5,2.4l0.3,1.9L103.5,154"/>
	<text transform="matrix(1 0 0 1 79.7618 105.5648)" class="st2 st3 st4">Chakaria</text>
	<text transform="matrix(1 0 0 1 78.9766 55.5648)" class="st2 st3 st4">Pekua</text>
	<g>
		<circle class="st5" cx="125.9" cy="77.6" r="13.4"/>
		<text transform="matrix(1 0 0 1 119.9297 84.8889)" class="st3 st6">1</text>
	</g>
</g>
<g id="cox_s_bazar-2">
	<g>
		<polyline class="st7" points="45.2,76.8 49.8,63.2 56.1,42.2 56.9,40.8 56.6,40.8 56.6,40.7 57.3,29.2 54.9,22.6 49.5,8.4 
			46.4,2.8 41.3,9.1 32.9,16.2 27.6,25.1 26.1,33 27.7,43 31,49.1 32.1,57.5 32.1,57.6 28.9,64.6 26.6,74.9 25.8,82.6 22,90.4 
			22.4,98.7 23.7,101.9 37.8,101.9 38.7,100.2 40.5,91 45.2,76.9 		"/>
		<text transform="matrix(1 0 0 1 6.1938 46.3564)" class="st2 st3 st4">Kutubdia</text>
	</g>
	<g id="dist-cox_s_bazar-2">
		<path class="st7" d="M73.3,97.4L71.4,94l-8,4.2l0,0l-3.3-4.8l0,0L62.5,83l-7.4-4.2l0,0v-1.4l-4.6-3l-2.4,3.3l0,0L45.3,77l-4.7,14
			l-1.8,9.3l-0.9,1.7H38l-0.1,4.7l-1.7,6.1l-0.2,8.6l-4.9,12.1l0.2,5.9l0,0l-1.9,5.5l4.3,1.9l0,0l-0.4,6.1l0,0l-1.2,1.5l-0.1,3.3
			l1.5,2l5.4-2.9l0,0l2.4,0.5l0,0l-0.3,3.8l0,0l-7.8,6.7c0,0.3,0,4.1,0,4.2c0,0.1-2.3,5.4-3.2,7.7l1,4.8l4.5,2.8l3.5,5l14.5,12.4
			l0,0l0.1,2l4.6,2.6l3.2-0.3l0.1-2.2l0,0l9.2-7.7l7.1-1.7l4.3-2.8l0,0l2.1-0.1l2.6-3.4l0.2-4.2l2.8-4.8l1-16.8l-1-3.8l0,0l2-24.2
			l-2.1-6.9l-8.5-8.6l-3-7.4L73.3,97.4L73.3,97.4L73.3,97.4z"/>
		<text transform="matrix(1 0 0 1 12.8434 175.2707)" class="st2 st3 st4">Moheshkhali</text>
	</g>
	<g>
		<circle class="st5" cx="62.9" cy="132.8" r="13.4"/>
		<text transform="matrix(1 0 0 1 56.9297 140.1389)" class="st3 st6">2</text>
	</g>
</g>
<g id="cox_s_bazar-3">
	<polygon class="st8" points="91.2,203.3 96.4,194.3 100.4,188.4 98.1,183.1 98.1,183.1 99,178.1 98,172.3 97.4,161.9 99.3,161 
		103.3,154.1 102.9,153.4 102.9,153.5 101,152.1 99.4,152.2 96.5,155.8 95.6,161 96.7,175.2 96.8,189.6 96.8,189.6 93.4,197.2 
		87.4,203.4 87.3,203.4 86.6,203.4 87,204.7 	"/>
	<path class="st8" d="M124.3,287.8l5.5-0.9l2.3-3l2.7-1.4l-0.2-1.6l0,0l5.6-3.1l6.4-8l2.8,1.6l1.3-1.1l-1.1-2.2l0,0l4.8-3.8l0,0
		l3.4-0.5l2.6-2l-2.3-4.2l-1.5-7l-3.1-3.9l0,0l-1.1-6.8l-1.2-3.4h0.1l4.5-0.9v0.1l0.5,2.7l1.5,0.6l2.3-5l0,0h2.2l1-1.8l-1.4-1.2l0,0
		l1.3-2l-1.4-1.6l0,0l3.6-3.2l0,0l2,1.7l4.9-1.6l1.2,3.3l2.3-0.5l0,0l1,3.8l2.6,4.4l0.6,3.1l1.7,4.3l5-0.1l3.2-4.7l0,0l2.4,2.2l1-2
		v0.1l2.5,2.5l4.1-1.5l0.7-3.4l-4.4-1.8l0,0l2.1-6l-3.7-1.2l0,0l0.5-3.8l-2.7-4.3l3,0.2l0.3-3h0.1l2,1l0.9-0.9l-3-2.1l0,0l2.4-2.1
		l-1.9-1.6l1.7-3.3l-2.6-0.5l0,0l-0.3-2.6l-3,2l0,0l-2.4-1.9l0,0l1.8-4l-3.1-2l0,0l-0.1-2l-2.2-1.2l-3.8,1.2l0.2-4.3l-3.8-0.8
		l-3.1,2.2l-0.3,4.2l0,0l-1.8-0.1V197l0.5-5.4h-1.7l-1.5,2.9l0,0l-3-2.5l0,0l0.7-3.3l-1.8-1.3l0,0l-0.6-3.1l-2.4-2.3l0,0l-0.5-3.3
		l0,0l2.7-0.8l0.5-2.3l1.7-1.8l3.5-1.5l2.8-7.5l-2.6-1.9l0,0l-2.5-6.7l0,0l0.9-5.2l-0.9-2.5l-3.7-0.1l-1,1.9l-3.9,3.8l-1.5,0.1
		l-0.1-2l-3.1-0.8l-2.5,1.7l-8.2,6.1l0,0l-3.9,0.3l-3.4,4.8l3.4,0.4l0,0l1.6,3.3l-9.4,3.7l8.7,3.7l4.9-0.3l0,0l2.2,1.6l0,0l2.3,7.9
		l0,0l-1,4.2l3,1.2v0.1l-2.3,3.4l0,0l-4.8,0.9l0,0l-0.8-4.9l-3.8-1.7l-1.3,1.6l0,0l-7.7-0.3V189l0.4-2.6l-3.9-0.4l-6.9,0.6l0,0
		l-3.2-0.7l-3.6,0.6l0.3,5.3l4.7-0.4l0,0l1.9,1.6l0,0l0.1,5l2.1,1.8l5.9-0.2v0.1l-1,4.2l0,0l-7.1-1.8l0.7,2.8l0,0l-1.4,3l2,2.6l0,0
		l1.1,9.3l2.8,7.1l0,0l-2.1,2.7l0,0L120,230l0,0l-0.9-3l-6.2-0.6l-0.7,2.7l0,0l-2.6,2.5l0.1,3.1l0,0l-2.6,1.4l1.4,3l0,0l-3.8,2.5
		l0,0l-4.4-1.9l-1.7,0.7l-0.5,2.2l5.3,5.9l9,16.2l0.7,3.9l1.6,1.8l0,0l0.6,5.8l3.3,5.3l0,0l-0.2,0.8c0.8,1,2.1,2.5,2.2,2.6
		C120.5,285.1,123,286.9,124.3,287.8z"/>
	<path class="st8" d="M141,159.3l0.2-0.3l-3.3-1.6l-0.8,2.2l-2.7-1.8l-0.2,2.5l-3-1.4l-1.1,2.2l-4.3-0.3l0,0V153l-3.2-0.2l0,0
		l-1.9-3.6l-3.3,1.1l-1.7-1.4l-6-1.9c-0.1,1.9-0.3,4.6-0.3,4.8s-1,1.1-2,1.9l0,0l0,0l-4,0.5l0,0l-4,6.9l0,0l-1.8,0.9l0.6,10.3
		l1.1,5.8l0,0l-0.9,5l2.3,5.3l0,0l-4,5.9l-5.2,9l0,0l-4.4,1.5l-0.4-1.4l-2.5,0.2l-4.8,6l0,0l-1.4-0.4l-1.1,1.1l1.4,6.2l1.4,3.9
		l4.4,3.9l10,11.1l3.8,6.8l0.3,0.3l0.5-2.2l1.8-0.7l0,0l4.4,1.9l3.7-2.5l-1.4-3l0,0l2.6-1.4l-0.1-3.1l0,0l2.6-2.5l0.7-2.7l0,0
		l6.3,0.7l0.9,3l5-0.6l2.1-2.6l-2.7-7.1l-1.1-9.3l-2-2.7l0,0l1.4-3l-0.8-3l7.2,1.8l1-4l-5.8,0.2l0,0l-2.1-1.8l0,0l-0.1-5l-1.8-1.5
		l-4.7,0.4l-0.3-5.5l0,0l3.7-0.6l0,0l3.2,0.7l6.9-0.6l4,0.4v0.1l-0.4,2.6l7.5,0.3l1.3-1.6l0,0l3.9,1.7l0,0l0.8,4.9l4.6-0.8l2.2-3.3
		l-3-1.2l0,0l1-4.3l-2.3-7.8l-2.2-1.6l-4.9,0.3l0,0l-8.9-3.8l9.6-3.8l-1.6-3.1l-3.5-0.4v-0.1l3.4-4.8"/>
	<text transform="matrix(1 0 0 1 140.157 214.7266)" class="st2 st3 st4">Ramu</text>
	<text transform="matrix(1 0 0 1 48.4021 220.3999)" class="st2 st3 st4">Cox’sbazar</text>
	<g>
		<circle class="st5" cx="135.6" cy="233.8" r="13.4"/>
		<text transform="matrix(1 0 0 1 129.5964 241.1389)" class="st3 st6">3</text>
	</g>
</g>
<g id="cox_s_bazar-4">
	<polygon class="st9" points="178.4,354.5 178.3,354.5 174.3,353.8 174.3,353.8 173.2,351.8 168.1,353.7 168.1,353.7 163.5,351.7 
		155.4,345.9 146.9,346.5 144.9,349.7 139.2,354.9 158.7,376.9 158.7,376.9 153.3,378.2 153.2,378.2 150,372.5 127.7,346.5 
		124.5,344.4 131.3,353 170.9,403.6 177.2,412.6 182.3,431.7 187.1,442.6 189.1,443.8 189.1,443.9 193.3,452.8 200.7,460.3 
		213.7,482 220.6,496.7 230.7,516.5 240.4,523.3 255.1,530.4 254.9,529.2 251.6,520.9 245.1,502.5 236.6,480.3 227.8,460.1 
		220,444.1 216.4,443 216.4,443 213.5,438.7 211.6,432 211.6,432 212,426.6 211.7,422 209.4,413.3 208.7,403.7 207.1,395.1 
		207.1,395.1 208.4,387.8 206.4,382.1 202.4,377.2 196.4,373.4 196.4,373.4 191.5,362.6 188.7,355.2 184.9,351.9 182.9,349.5 
		185.4,349.3 185.4,349.1 179.4,350 	"/>
	<path class="st9" d="M150.1,372.5l3.2,5.6l5.3-1.2l-19.6-22l0,0l5.8-5.3l2-3.1l0,0l8.5-0.7l0,0l8.1,5.8l4.6,2l5.1-1.9l1.1,2
		l3.9,0.7l1-4.4l0,0l6.1-0.9v-3.4l-3.6-2.5l-5.9,1.3l0,0l-2-1.4l0,0l-0.8-5.5l-0.3-6l0,0l1.4-3.7l-2.5-2.5l0,0l0.5-1.4l-1.2-1l0,0
		l-0.2-4.6l0,0l5-6.4l1.2-8.9l0,0l2.9-1.7l0.9-0.9l-1.5-1.5l0,0l1.7-1.3l-0.8-2.3l-4.2,1.4l0,0l-1.1-1.4l1-1.7l-2.5-1.8l0,0l1-2.4
		l-2.2-1.2l0,0l-0.2-4.3l-1.8-0.1l0,0l-3.1-4.4l-3.2-6.9l-1.1-6.5l-2.2-4l0,0l-2.6,2l0,0l-3.4,0.5l-4.7,3.8l1.1,2.2l0,0l-1.4,1.1
		l0,0l-2.8-1.6l-6.4,7.9l-5.5,3.1l0.2,1.6l0,0l-2.7,1.4l-2.3,3l0,0l-5.6,0.9l0,0c-0.2-0.1-3.8-2.7-3.9-2.9c-0.1-0.2-1.3-1.6-2.2-2.6
		l-0.6,2l3.4,11l0,0l-1.5,7.1l-1.1,10.9l1.4,10.4l-0.9,8.3l4.1,10.3l1.3,1.7l3.5,2.2L150.1,372.5z"/>
	<text transform="matrix(1 0 0 1 122.2 312.3442)" class="st2 st3 st4">Ukhiya</text>
	<text transform="matrix(1 0 0 1 195.3237 455.1873)" class="st2 st3 st4">Teknaf</text>
	<g>
		<circle class="st5" cx="176.4" cy="372.8" r="13.4"/>
		<text transform="matrix(1 0 0 1 170.4297 380.1389)" class="st3 st6">4</text>
	</g>
</g>
</svg>
