<?xml version="1.0" encoding="utf-8"?>
<!-- Generator: Adobe Illustrator 25.2.1, SVG Export Plug-In . SVG Version: 6.00 Build 0)  -->
<svg version="1.1" id="Layer_1" xmlns="http://www.w3.org/2000/svg" xmlns:xlink="http://www.w3.org/1999/xlink" x="0px" y="0px"
	 viewBox="0 0 328 577.3" style="enable-background:new 0 0 328 577.3;" xml:space="preserve">
<style type="text/css">
	.st0{fill:#C5CFED;stroke:#FFFFFF;stroke-width:0.5;stroke-miterlimit:10;}
	.st1{fill:#232323;}
	.st2{font-family:'TimesNewRomanPSMT';}
	.st3{font-size:16px;}
	.st4{fill:#FFFFFF;}
	.st5{font-size:24.672px;}
	.st6{fill:#ABBEED;stroke:#FFFFFF;stroke-width:0.5;stroke-miterlimit:10;}
	.st7{fill:#9BB6EA;stroke:#FFFFFF;stroke-width:0.5;stroke-miterlimit:10;}
</style>
<g id="feni-1">
	<path class="st0" d="M130.3,112l-1.2,8.5l2.7,1.8l0,0l4.5-0.1l-0.5-4.4l5.5-4l6.1-0.2l0,0l0.6,7.4l-1.2,3.5l1.3,9.5l2.2-0.2l1-3.8
		l8.3-3.7l0,0l1.8,2l2.6-4.1l17-0.3l1.8-3.2l0,0l5.7,0.9l0,0l-0.9,4.3l1.8,1.9l0.8,7.9l7.1,4.6l0.3,8.9l3,2l0,0l-4.1,2.2l1.4,2l5,1
		l2.7,4l-0.6,7.5l3.3-0.7l11.3-2.8l1.4-4.3l0,0l4.4-0.1l1.7-2l-2.9-2.2l0,0l1.6-4.7l0,0l2.5-0.1l0.1-7.9l0,0l7-3l-0.1-0.3l0,0l5-5.4
		l3-8.7l-7-1.8l0,0l0.2-6.2l0,0l8.4-2.1h5.2l1-3.4l-5.4-1.7l0,0l3-6.6l-2.3-2.1l-10.1,5.1l0,0l-3.1-4.5l-4.2,5.5l0,0l-6.4-4.6
		l-6.6-3l0,0l0.5-2.1l0,0L228,96l1.8-9.5l-2-5.1l-7.4-8.7l-17,8.7l0,0l-0.5-4.1l-6.7-3l0,0l4.8-4.7l8.6-1.6l6.3-2.7l-12.6-19.1
		l-10.4,3.1l0,0l0.8-4.9l-3,0.4l0,0l-1.1-2.4l0,0l6.7-1.9l0.8-3.9l4-2.6l-2.6-2.4l-4.1-0.6l-16.5-2.6l-6.9,5.8l0,0l-3.5-5l-2.7,6.8
		l0,0l-2.5-0.4l0,0l0.9-4.9l-2.7-2.2l0,0l2.7-4.2l-0.9-2.4l3-4.5l-2.7-2.7l0.4-2.2l-2.2-0.4l0,0c0,0,1.4-3.8,1.4-3.9
		c0-0.1-0.9-1.2-1.3-1.8l-1.9,3l0,0l-2.1-2l-1.7-3.3l-1.1,0.8l1.5,14.7l1.1,14.1l-0.6,2.2l0,0l-3.2-0.3l-2.9-3l-3.5-7.7l-3.3,0.5
		l-0.1,7.3l0.8,2.6l2.4,0.1l7.8,7.3l-0.1,1.9l0,0l-3.2,0.4l-11.3,0.6l-0.5,3l5,3.5l0,0l-0.3,2.9l3.7,4.8l-1.2,3.7l-2.1,1.7l-8.7,0.2
		l-1.8,1.2l1.2,3l4.1,3.2l0,0l-3.9,6.7l-7.1,5.6l1,1.6l5.9-0.1l0,0l-1.7,9.1l-1.6,7.3l0,0h-2.8l-1.3,4.1l-1.1,4.5L130.3,112
		L130.3,112z"/>
	<polygon class="st0" points="322,331.4 315.8,327.2 306.1,323.1 303.3,320 302.9,303.3 301.3,301.9 294,304.3 287.9,300 
		288.5,291.7 292.8,278.9 291.8,277.5 284.1,278.9 284.1,278.9 283.5,276 294.1,260.8 293.7,257.7 287.3,258.5 277.3,259.5 
		275.3,257.5 275.3,257.5 276.9,252.2 280.2,243.3 279.1,241.4 269.7,241 269.7,241 270.3,236.7 274.8,234.8 279.5,232.1 273.9,220 
		269.2,212.5 269.2,212.5 275.1,208.6 275.1,203.5 273.7,202.1 265.7,200.2 264.5,198 267.3,189.3 256.7,189.1 256.8,192.4 
		256.8,192.4 244.3,193.6 240.5,194.9 236.3,191.2 232.6,192.2 232.2,197.3 230.4,199.3 218.5,199.2 218.2,206.5 220.5,207 
		220.5,207 217.9,219.6 220.7,226.3 228.4,224 228.4,224 220.7,226.3 220.7,226.4 220.7,226.4 220.7,226.3 216.7,227.5 216.6,227.5 
		216.3,224.2 213.6,225 213.6,225 212.4,222.2 210.8,223.8 211.4,231.3 210,236.8 210,236.8 202.9,235 200.2,239.1 200.2,239.1 
		192.6,235.4 185.9,247.2 189.4,254 188.9,261.1 188.9,261.1 187.7,261.5 179.5,264.1 179.5,266.4 186.8,272.2 192,268.8 
		195.3,263.6 195.3,263.6 197.7,268 195.6,274.2 192,279.2 190.7,284.9 188.1,287.3 188.6,289.1 194.1,291.2 195.5,289.8 194,285.8 
		194,285.8 202.6,285.9 204.6,287.7 214.2,287.5 218.6,284.1 218.6,284.1 220.7,285.3 222.6,283.1 222.6,283.1 226.7,285.9 
		231.8,285.6 241,288.4 241,288.4 238.6,293.6 240.3,296.7 237.5,304.4 242.3,308.2 248.9,310.1 248.9,310.1 248.6,315.1 
		252.7,314.7 252.7,314.7 256,319.7 257.4,326.3 251.7,332.2 249.3,339.1 247.7,342.7 245.5,344.5 246.2,347.4 248.9,350.1 
		249.3,356.8 253.4,361.1 253.4,361.1 251.7,363.3 249.2,364.2 249.1,367.9 255.8,371.2 256.5,378.6 261.1,386.5 262.8,389.4 
		262.8,389.4 260.3,392 261.4,394.2 260.9,395.9 256.9,397 250.3,392.9 248.1,396.3 248.1,396.2 248.1,396.2 249.6,397.9 
		254.7,400.1 261.6,397.9 262.8,396.6 263,392.9 263,392.9 270.5,390.9 280.8,384.6 281.2,379.4 278.1,374.7 278,373 278,373 
		286.2,370 286.7,366.7 283.7,359.8 277.4,358.4 271,357 274.6,349.8 274.6,349.8 279.7,350.5 282.7,355.9 286.1,356.2 291.8,344.7 
		286.7,343.1 286.7,343.1 289,340.6 292.8,340.7 296.6,344.9 300.2,345.4 305.5,343.2 308.2,343.6 311.2,349.1 314.1,349 
		314.1,343.2 316.7,339.7 323,337.6 323.8,334.1 	"/>
	<polygon class="st0" points="187.7,261.5 188.9,261.1 189.4,254 185.9,247.2 192.6,235.4 192.6,235.4 200.2,239.1 202.8,235 
		202.9,235 210,236.8 211.4,231.3 210.8,223.8 212.4,222.2 213.7,225 216.3,224.2 216.3,224.2 216.7,227.5 220.7,226.3 217.9,219.6 
		220.5,207 218.2,206.5 218.2,206.5 218.5,199.2 218.5,199.2 230.4,199.3 232.2,197.3 232.6,192.2 232.6,192.2 236.3,191.2 
		240.5,194.8 244.3,193.6 256.8,192.4 256.7,189.1 256.4,189.2 256.4,189.2 257.8,186.2 257.8,186.2 264.1,186.1 264.3,184.2 
		262.2,182 259.3,182.3 259.3,182.3 257.6,177.5 257.6,177.5 260.2,176 260.6,174 249.2,172.4 246.7,171.9 246.7,171.9 246.8,168.4 
		257.4,161.3 258.8,157.1 258.1,153.4 253.6,154.4 252,157.6 252,157.6 248.2,157.1 239.9,152.7 239.9,152.7 239.8,150.8 
		239.8,150.8 250.6,144.8 249.5,143.2 240.6,145.8 237.1,145.2 237.1,145.2 235.5,140.3 228.5,143.3 228.4,151.3 228.4,151.3 
		225.8,151.3 224.2,156 227.2,158.2 227.1,158.2 225.5,160.2 221.1,160.4 219.6,164.7 208.4,167.5 205.1,168.2 205.1,168.2 
		205.7,160.7 203,156.7 198,155.7 196.6,153.6 196.6,153.6 200.7,151.4 197.7,149.4 197.4,140.5 190.2,135.8 189.4,127.9 187.5,126 
		188.4,121.7 182.8,120.8 181,124 163.9,124.3 161.3,128.5 161.3,128.5 159.5,126.4 151.2,130.1 150.2,133.9 150.2,133.9 147.9,134 
		147.9,134 146.7,124.5 147.9,121 147.3,113.7 141.2,113.9 135.7,117.9 136.2,122.3 136.2,122.3 131.7,122.4 131.1,141.3 
		136.8,146.9 137.7,155.7 140.7,163.9 145.1,169.5 143.2,182.2 151.2,187.1 151.2,187.1 147.7,203.7 148.9,205.7 151.6,203.9 
		151.6,203.9 153.5,206 153.5,206 151.8,210.5 152.7,216.4 156.8,219.8 164.8,219.8 164.8,219.8 158.8,238 158.6,238.4 163.5,239.4 
		163.5,239.4 163.1,242.4 168.6,240.3 168.6,240.3 171,243.2 170.8,248.3 174.4,249.6 174.4,249.6 175.2,254.3 181.8,256.9 
		182.6,260 182.6,260 177.5,261.6 179.5,264.1 179.5,264.1 179.5,264 179.5,264.1 179.5,264.1 179.5,264 	"/>
	<text transform="matrix(1 0 0 1 141.7155 96.6591)" class="st1 st2 st3">Parshuram</text>
	<text transform="matrix(1 0 0 1 152.3237 177.8797)" class="st1 st2 st3">Fulgazi</text>
	<text transform="matrix(1 0 0 1 198.9806 255.1493)" class="st1 st2 st3">Chhagalnaiya</text>
	<g>
		<circle class="st4" cx="210.6" cy="128.1" r="13.4"/>
		<text transform="matrix(1 0 0 1 204.6797 135.4722)" class="st2 st5">1</text>
	</g>
</g>
<g id="feni-2">
	<path class="st6" d="M179.5,264.1L179.5,264.1L179.5,264.1l-2-2.5l0,0l5.2-1.6l-0.9-3.1l-6.6-2.6l-0.8-4.8l-3.6-1.3l0,0l0.3-5.1
		l-2.4-2.9l-5.5,2.2l0,0l0.4-3l-4.9-1l-0.7,1.7l-8.9,2l-4.5,3.2l0,0l-5.2-2.8l-19.5-11.9l-7.1,2.1l-10.9-0.4l-5.1,1.9l-2.6-1.4
		l-6.6,0.8l-4,3.9l0,0l-3-2.5l-14.4,10.4l-0.1,4.8l0,0l-0.8-0.2l2.5,6.8l6.7,6.1l-0.7,3.3l0,0l-8,0.6l-1.1,3.3l1.7,2.9l-0.8,5.9
		l-2.3,1.4l-5.2,0.1l-0.6,2.7l2.8,3.1l10-3.1c-0.1-0.2-1.1-4.4-1.1-4.6s3.6-1.5,3.7-1.5l0,0l0,0l3.7,4.1l3.5,0.7L83,279l0,0l2.1,2.7
		l0,0l-3.6,5l-6.2-0.2l0.4,4.3l3.8,1.3l1.5,6.2l11.3,1.4l3.2,2.3l0,0l-1.5,3.6l11.9-1.2l6.7,0.7l0,0l1.6,5.2l4.1,2.1l0,0l-0.4,5
		l-4.5,7l0.4,3.2l4.8,1.6l2.3,4.1l0,0l-2.7,2.6l0,0L113,332l-5.7,1.3l-1,2.9l5.3,1.4l0,0l-4,7.7l-0.9,5.1l0.9,4.7l0,0l-0.3,0.2
		l1.7,1.2l1.4,3.8l3.8,4.4l4.8-0.4l0.3-3.8l-2.6-2.6l0,0l2.9-7.7l-0.3-4.7l0,0l2.3-1l0,0l1.6,3.7l6.8,0.7l3.5-1.1l1.9,1.5l0.2,12.6
		l3.3,0.8l2.6-1.9l0,0l2.6,3.8l0.6,7.5l0.8,6l1.9,0.3l0,0l1.9,8.6l2.8-0.6l0,0l3.3,4.9l4.2-3.1l-1.5-4.3l0,0l6.1-1l0,0l0.6,3
		l3.3-1.2l0,0l2.5,4l-1.7,3.4l1.1,7.4l2-0.1l-0.1-4.2l3.1-2.6l6.5,1.8l2.6-2.6l-1.4-5l2.8-4.9l5.6-2l-3-7.9l0,0l6.2-4.4l0,0l6,6.2
		l3.4,3.5l1.5-1.1l0,0l2.4,3.5l1.3-1.6l-1.8-3.9l0,0l2.7-0.2l9.6,8.9l0,0l-1.1,4.5l4.7,1.7l0,0l-3,2.7l2.7,3l-0.7,7.8l6.2,1.8
		l1.8-1.3l-0.7-0.5l0,0l3.7-1.1l7.2-0.9l7.6-4l2.3-3.4l0,0l6.5,4.1l4.1-1.2l0.4-1.6l-1.1-2.2l0,0l2.5-2.6l-1.7-2.9l-4.5-8l-0.8-7.4
		l-6.7-3.3l0,0l0.1-3.7l0,0l2.6-0.9l1.7-2.1l-4.1-4.3l-0.3-6.7l-2.7-2.7l-0.7-2.9l0,0l2.2-1.8l1.6-3.6l2.4-6.9l5.7-5.9l-1.4-6.6
		l-3.3-5l-4.1,0.5l0,0l0.4-5l-6.7-1.9l-4.8-3.8l0,0l2.7-7.6l-1.6-3.2l2.4-5.2l-9.2-2.8l-5.1,0.4l-4.2-2.8l-1.9,2.2l0,0l-2.1-1.2
		L214,288l-9.6,0.2l-1.9-1.7l-8.6-0.1l1.4,4l-1.4,1.4l0,0l-5.5-2.1l-0.5-1.8l0,0l2.6-2.4l1.3-5.7l3.6-5l2.2-6.2l-2.4-4.4l-3.3,5.1
		l-5.2,3.4l0,0l-7.3-5.8L179.5,264.1L179.5,264.1L179.5,264.1z"/>
	<text transform="matrix(1 0 0 1 141.7153 305.0072)" class="st1 st2 st3">Feni</text>
	<g>
		<circle class="st4" cx="186.6" cy="323.5" r="13.4"/>
		<text transform="matrix(1 0 0 1 180.6797 330.8055)" class="st2 st5">2</text>
	</g>
</g>
<g id="feni-3">
	<polygon class="st7" points="231.4,403.7 230.3,402.8 228.4,404.1 222.2,402.4 222.2,402.4 222.9,394.6 220.1,391.5 220.1,391.5 
		223.2,388.8 218.5,387.2 218.5,387.2 219.6,382.7 210.1,373.8 207.4,374 209.1,377.9 209.1,377.9 207.8,379.5 207.8,379.5 
		205.4,376 203.8,377.2 203.8,377.2 200.5,373.7 194.5,367.5 188.3,371.9 191.2,379.8 191.2,379.8 185.6,381.8 182.9,386.7 
		184.3,391.7 184.3,391.7 181.7,394.3 181.7,394.3 175.2,392.4 172.1,395 172.2,399.2 172.2,399.2 170.2,399.3 170.2,399.3 
		169.1,391.9 170.8,388.5 168.3,384.6 165,385.8 165,385.8 164.4,382.8 158.3,383.8 159.9,388.1 159.9,388.1 155.7,391.2 
		155.7,391.2 152.3,386.4 149.5,387 149.5,387 147.6,378.4 145.7,378.1 145.7,378 144.8,372.1 144.2,364.5 141.7,360.7 139.1,362.6 
		135.8,361.8 135.8,361.8 135.6,349.2 133.7,347.7 130.1,348.8 123.3,348.1 123.3,348.1 121.7,344.5 119.4,345.5 119.6,350.2 
		116.7,357.9 119.3,360.5 119,364.3 119,364.3 114.2,364.7 110.4,360.3 109,356.5 107.2,355.3 104.8,357 102.6,357.5 104.1,366 
		104.1,366 99.6,368.1 99.6,368.1 98.2,365.4 95.2,367.6 96.2,370.9 94.6,373.4 94.6,373.4 89.1,371.4 86,371.9 83.4,377.6 
		90.3,381.9 90.3,381.9 88.1,388.6 82.9,392.9 82.1,396 83.3,398.3 85.7,398.1 91.2,400.3 93.8,398.9 93.6,395.2 93.6,395.2 
		96.5,394.7 96.5,394.7 98.7,402.2 105.6,406.5 109,412.8 109,412.8 106.9,415.9 106.9,415.9 100.6,411.5 98.4,412.6 99.5,417.3 
		97.2,421.9 101.3,428.5 101.3,428.5 98.6,429.1 91.5,424.3 85.1,424.5 83.9,427 88.4,433.6 92.2,434.8 95.9,431.2 95.9,431.2 
		98.6,434.2 98.6,434.2 91.6,443.8 93.1,447 100.3,446.6 107.8,442.2 107.8,442.3 108.6,445.2 108.5,445.2 104,448 103.8,452.8 
		108.7,457.9 108.6,457.9 105.2,458.9 105.2,458.9 102.4,455.6 96.3,448.5 93.1,449.9 94.2,458.7 92.7,467.9 89.3,469.6 89.3,469.6 
		85.9,461.9 82.1,461 76.1,466 67.1,466.8 65.8,470.9 68.2,473.5 73.2,473.8 76.4,475.5 79.9,473.7 82.2,475.1 82.2,485.6 
		86.8,490.7 89.7,491.7 94.8,490.1 94.8,490.1 95.9,492.1 95.9,492.1 93,494.5 86.6,495.2 73.7,490.3 68.3,493.1 68.2,500.2 
		73.1,507.4 78,508.8 81.1,511.4 92.2,524.1 100.9,526.2 102.4,524.9 118.3,516.8 122.2,515.8 122,511.6 122,511.6 124.1,511 
		130.6,516.6 134.7,530.5 139.9,537.8 152,546.6 159.7,546.9 176.5,551.3 184.5,558.7 191.9,563.8 207.7,575.3 210.3,574.5 
		208.9,571.2 207.6,563.4 208.9,556.1 213,543.8 212.9,535.1 207,524.2 199.2,513.4 189.7,498.1 185.2,484.2 187,476.4 187,476.4 
		190.9,475.6 195.3,479.2 201.6,478.7 205.5,475.8 208.7,463.9 215.3,459.1 223,446.5 223.3,439.3 219.5,436.2 219.5,436.2 
		224.4,423.8 226.8,416.3 226.8,416.3 231,416.3 232.8,411.6 236.9,409 236.2,403.4 	"/>
	<path class="st7" d="M68.9,400.3l-0.5,4.6l8.3-0.4l4.6-6.1l1.9-0.1L82,396l0.8-3.1l5.2-4.3l2.2-6.7l-7-4.3l0,0l2.6-5.6l3.2-0.5
		l5.5,2l1.6-2.5l-1-3.3l0,0l2.9-2.2l0,0l1.4,2.8l4.5-2.1l-1.5-8.4l0,0l2.2-0.6l2.5-1.7l-1.6-1.1l0,0l1.6,1.1l0.3-0.2l-0.9-4.7
		l0.9-5.1l4-7.7l-5.3-1.4l0,0l1-3l5.7-1.3l5.1,4.2l2.6-2.6l-2.3-4.1l-4.8-1.6l0,0l-0.4-3.2l4.5-7l0.4-5l-4.1-2.1l-1.6-5.2l-6.7-0.7
		L93.6,306l0,0l1.5-3.6l-3.2-2.3l-11.3-1.4l0,0l-1.5-6.2l-3.8-1.3l0,0l-0.4-4.3l0,0l6.2,0.2l3.6-5l-2-2.7l-2.7,2.7l-3.5-0.7
		l-3.7-4.1c-1.3,0.4-3.7,1.3-3.7,1.5s1.1,4.6,1.1,4.6l0,0l0,0l-9.8,2.6l0,0l-2.8-3.1l0.6-2.7l0,0l5.2-0.1l2.3-1.4l0.8-5.8l-1.7-2.9
		l1.1-3.3l0,0l8-0.6l0.7-3.3l-6.7-6.1l-2.6-6.8l-4.8-1.3l-4.9,2.2l-5.7-0.4l-3-3.5l-7,1.6l0,0l0.2-3.4l-4.4-0.2l-3.9-5.3l-4,1.7
		l0.1,3.8l0,0l-2.8,1.6l0,0l-0.9-2.3l-4.5,2.5l-6.8-1.3l-3.3,9.1l1.4,4.9l7.8,3.4l0,0l0.1,2.9l0,0l-5.8-0.6l-0.4,2l4.2,3.3l0.1,2.8
		l2.8,1.2l0.3,2.1l-3,4.3l-0.2,4l0,0l-3.9,1.4l1.3,8.5l1.2,8.1l-2.1,8.7l1.2,3.4L14.2,328l-2.2,1.7l0.2,9.7l-3.2,3l-0.1,2.7l6.4,0.3
		l0,0l1.1,9.3l-1.7,5.3l3.2,2.3l-0.2,11.5l-1.2,2l-0.2,10.5l4.1,11l0,0L15,398l0.3,4.2l0,0l-3.7-0.1l-2.3-3l-3.7,4.7l2.4,3.1
		l-0.7,4.9l2.1,1.1l1.9,3.2l4.1-2.6l0,0l2.2,6.2l2.6,2.1l0,0l-1.2,2.5l1.7,1.9l1.7-2.7l0,0l4.1,1.6l3.4-9.6l0,0l5.1,0.9l2.6-3.1
		l0.1-6.8l0,0l8.4,1.9l1.7,2.7l4,0.1l2.5-2.3l0,0l3.2,2.3l7.1-6.4l1-4.8l0,0L68.9,400.3L68.9,400.3z"/>
	<text transform="matrix(1 0 0 1 18.8139 321.1493)" class="st1 st2 st3">Daganbhuiyan</text>
	<text transform="matrix(1 0 0 1 128.6473 415.8993)" class="st1 st2 st3">Sonagazi</text>
	<g>
		<circle class="st4" cx="178.6" cy="446.5" r="13.4"/>
		<text transform="matrix(1 0 0 1 172.6797 453.8055)" class="st2 st5">3</text>
	</g>
</g>
</svg>
