<?xml version="1.0" encoding="utf-8"?>
<!-- Generator: Adobe Illustrator 25.2.1, SVG Export Plug-In . SVG Version: 6.00 Build 0)  -->
<svg version="1.1" id="Layer_1" xmlns="http://www.w3.org/2000/svg" xmlns:xlink="http://www.w3.org/1999/xlink" x="0px" y="0px"
	 viewBox="0 0 400 448.7" style="enable-background:new 0 0 400 448.7;" xml:space="preserve">
<style type="text/css">
	.st0{fill:#7BC3FF;stroke:#FFFFFF;stroke-width:0.5;stroke-miterlimit:10;}
	.st1{font-family:'TimesNewRomanPSMT';}
	.st2{font-size:16px;}
	.st3{fill:#FFFFFF;}
	.st4{font-size:24.672px;}
	.st5{fill:#43A1FF;stroke:#FFFFFF;stroke-width:0.5;stroke-miterlimit:10;}
	.st6{fill:#64C4FF;stroke:#FFFFFF;stroke-width:0.5;stroke-miterlimit:10;}
	.st7{fill:#9BB6EA;stroke:#FFFFFF;stroke-width:0.5;stroke-miterlimit:10;}
	.st8{fill:#C5CFED;stroke:#FFFFFF;stroke-width:0.5;stroke-miterlimit:10;}
	.st9{fill:#D9E4FF;stroke:#FFFFFF;stroke-width:0.5;stroke-miterlimit:10;}
	.st10{fill:#6899E0;stroke:#FFFFFF;stroke-width:0.5;stroke-miterlimit:10;}
	.st11{fill:#ABBEED;stroke:#FFFFFF;stroke-width:0.5;stroke-miterlimit:10;}
	.st12{fill:#7CA7E5;stroke:#FFFFFF;stroke-width:0.5;stroke-miterlimit:10;}
	.st13{fill:#8BAFE8;stroke:#FFFFFF;stroke-width:0.5;stroke-miterlimit:10;}
	.st14{fill:#9FCBFF;stroke:#FFFFFF;stroke-width:0.5;stroke-miterlimit:10;}
</style>
<g id="cumilla-1">
	<polygon class="st0" points="46.3,149.5 48.3,139.8 48.3,139.8 55,136.6 55,134.6 55.1,134.6 60.4,132.1 60.3,132.1 60.5,132 
		60.6,132.1 60.6,132 64.4,126.6 64.3,113 64.4,113 68.6,110.1 76.3,111.2 79.3,107.8 78.8,101.2 72.1,98.4 67.8,99.5 67.8,99.4 
		63.1,91.7 60,94.6 59.9,94.6 52.8,95.2 45.4,92.6 34.8,84.5 27.9,86.8 18.1,86.1 16.5,87.8 16.1,94.6 12.4,109.7 10.6,112 
		8.8,116.7 11.9,118.5 16.8,119.2 20.7,117.2 20.7,117.2 23.5,118.5 23.5,120.6 25.5,127.4 29.6,131.4 29.6,131.4 30.1,135.2 
		27.8,136.2 27.8,136.2 18.9,133.6 17,137.9 18.8,143 21.3,144.2 28.3,144 28.3,144 33.5,147.1 39.9,153.2 43.3,152.6 	"/>
	<polygon class="st0" points="123,196 123.1,196 124.8,192.7 124.4,185.7 128.8,185.4 129.6,182.6 129.7,182.6 132.6,183.1 
		132.4,180 132.5,180 136.5,180.1 136.5,180.1 138.4,182.9 139.3,182.8 139.6,181 135.1,177.6 135.1,177.5 136,172.6 133.1,171.8 
		133.1,171.7 133.4,169.3 133.5,169.3 135.4,168.5 133.7,158.8 133.2,154.6 131.8,155.3 131.8,155.3 126.3,156.8 126.3,156.7 
		124.7,154.2 124.9,154.2 130.1,153.3 128.4,150.1 124,148.7 119.3,153.5 119.2,153.5 113.9,153.2 114,153.1 114.8,150.7 
		113.2,149.6 110.2,152.4 85.3,162.6 85.2,162.5 75.7,156 70.7,156.8 70.7,156.8 64.7,154.3 70,149.5 67.7,134.3 63.1,135 63.1,135 
		60.5,132.3 55.3,134.7 55.3,136.7 55.2,136.7 48.5,140 46.5,149.6 43.5,152.8 43.4,152.8 39.9,153.4 40.1,157.9 43.9,164.2 
		46,169.9 52.5,176.6 52.5,176.7 50.1,184.3 50.1,184.3 39.9,189.5 43.4,195.2 44.5,201.9 52.3,212.1 52.3,212.2 51.4,215.6 
		51.5,222.4 54.7,222.5 61,225.8 61,225.8 62.5,231 66.4,233.5 67.2,232.2 62.9,226.3 63,226.2 65.3,224.8 65.3,224.8 72.3,228 
		73,232.6 75.8,232.7 78.9,227.8 76.6,224.8 76.8,224.8 80.6,225 80.4,222 80.5,222 82.9,220.6 82.1,213.9 82.2,213.9 83.8,213.5 
		83.8,213.5 88.4,219 93.3,218.7 93,218.9 91,220.3 94.5,221.9 97.9,218.3 96.9,215.6 99.9,213.4 100,213.5 103.2,216.8 
		106.9,214.4 106.5,205.7 106.6,205.6 114.7,204.5 114.2,201.6 114.3,201.6 121.7,200.3 121.8,200.4 122.4,201.3 124.6,199.4 	"/>
	<text transform="matrix(1 0 0 1 15.1663 108.75)" class="st1 st2">Meghna</text>
	<text transform="matrix(1 0 0 1 56.6663 175.4167)" class="st1 st2">Daudkandi</text>
	<g>
		<circle class="st3" cx="84.2" cy="194.3" r="13.4"/>
		<text transform="matrix(1 0 0 1 78.263 201.6389)" class="st1 st4">1</text>
	</g>
</g>
<g id="cumilla-2">
	<polygon class="st5" points="125.1,154.4 126.4,156.5 131.8,155 132.9,151.5 135.7,148.5 135.7,146.3 132.8,147.7 132.7,147.6 
		130.8,136.9 127.5,136.7 127.5,136.6 127.8,129.1 125.1,127.9 126.9,125.4 125.9,121 125.9,121 126.7,120.2 126.8,120.3 
		127.9,123.7 129.7,122.5 127.7,114.1 123.5,111.6 122,113.7 119.4,110.8 111.2,111.2 112,117.4 111.9,117.5 108.5,118.2 
		108.5,118.2 104.6,110.9 99.9,109.8 99.2,114.3 99.2,114.3 97.5,114.9 97.5,114.8 95.6,110.9 95.6,110.9 97.6,106.4 94.6,105.2 
		92.4,111.9 92.3,111.9 87.8,112.7 85.3,114.7 85.3,114.7 78.3,114.5 78.2,114.5 75.2,111.2 68.6,110.4 64.5,113.1 64.6,126.6 
		60.7,132.2 63.2,134.8 67.9,134 67.9,134.1 70.2,149.6 70.2,149.6 65.1,154.2 70.7,156.6 75.7,155.8 75.8,155.8 85.3,162.3 
		110.1,152.2 113.2,149.3 115,150.7 115,150.7 114.2,153 119.2,153.3 124,148.5 124,148.5 128.5,149.9 130.4,153.4 130.3,153.5 	"/>
	<path class="st5" d="M72.1,98.2L72.1,98.2L79,101v0.1l0.5,6.8l0,0l-3,3.5h-0.1l-0.9-0.1l2.9,3l6.9,0.2l2.5-2l4.5-0.8l2.3-6.7h0.1
		l3.3,1.3v0.1l-2,4.6l1.8,3.7l1.4-0.5l0.7-4.6h0.1l4.9,1.1l0,0l3.9,7.2l3.1-0.7L111,111h0.1l8.4-0.4l0,0l2.5,2.8l1.3-1.9l-0.1-0.1
		l0.1-0.2h0.1h0.1l7.9-11.5l1.2-5.3l0,0l5.2-5l-2.1-3.7c-2.4,3.1-5.3,6.7-5.6,6.7l0,0l0,0c0,0,0,0-0.1-0.1s-1-1.5-2.5-3.8l-0.1-0.1
		v-0.1l6.2-7.1l0,0l5.9-1.2l0.5-2.5l-5.9-6.1l0,0l0.1-3l-3.3-0.1V66h0.1l9.2-4.1l-0.7-4.1l-6.6,4.8l-0.1-0.1l-2-2.9l-3.7,0.8l0,0
		l-1.5-1.7l-4.8-0.9l-5.6,1.1l0,0l-2.7-2.8l0,0l-0.2-2.5l-2.6-0.1l-1.2,1.3h-0.1l-4.8-1.7V53l-0.4-2l-6-4.2l-1.2,2h-0.1L95,48.2
		l-3.8,3.9l-3.9,1.4l0.8,3.3l0,0L84.9,65l0.2,4.4l5.6,4l0,0l0.2,5l0,0l-5.1,4.2l-5-1.7v-0.1L79.5,75l-1.9-1.7L76,74.6l0,0l-3-1.1
		l-2.3,3.2l0,0l-3.1,0.7l-0.9,5.1l-3.3,9.1l0,0l4.6,7.6L72.1,98.2z"/>
	<text transform="matrix(1 0 0 1 74.083 93.9167)" class="st1 st2">Homna</text>
	<text transform="matrix(1 0 0 1 78.9163 146.1667)" class="st1 st2">Titas</text>
	<g>
		<circle class="st3" cx="101" cy="116.3" r="13.4"/>
		<text transform="matrix(1 0 0 1 95.013 123.6389)" class="st1 st4">2</text>
	</g>
</g>
<g id="cumilla-3">
	<path class="st6" d="M140.3,62L140.3,62l-9.3,4.2v2l3.3,0.1v0.1l-0.1,3.1l5.9,6.1l0,0l-0.6,2.7h-0.1l-6,1.2l-6.1,7
		c0.3,0.5,2.2,3.2,2.5,3.8c0.4-0.3,3.1-3.6,5.5-6.7l0.1-0.1l0.1,0.1l2.3,4l-0.1,0.1l-5.2,5l-1.2,5.3l-7.9,11.5l4.3,2.5l0,0l2.1,8.6
		h-0.1l-2.1,1.5l-1.2-3.5l-0.5,0.5l1.1,4.4l0,0l-1.7,2.3l2.6,1.2v0.1l-0.3,7.4l3.2,0.2v0.1l2,10.7l2.9-1.4v2.6l0,0l-2.8,3.1l-1,3.2
		l1.2-0.6v0.1l0.5,4.3l1.8,9.9h-0.1l-2,0.8l-0.3,2.2l3,0.8v0.1l-1,5l4.4,3.3l4.4,0.3v-0.1h0.1l0.8-3.2l1.9-2.6l0,0l4.9-0.5l-0.8-4.9
		h0.1l1.9-1.3l0.1-4.4l0,0l2.6-1.9V158l0,0l3.1-4.7l-1-1.5l0,0l1-6h0.1l9.4,0.6l0.3-5.4h0.1l4.1,0.3l0.6-2.8l-2.8-3.7v-0.1l1.3-1.6
		l-1.4-3.7l0,0l3.7-5.2l-1.1-2l0,0l5.2-6.7h0.1l1.8,0.5l1.7-1.5l-1.2-5.6h0.1l3.3-1.5l0,0l4.9,3.7l1.2-1.1h0.1l3.1,2.3l1.5-2.1
		l-1.1-4.8l0.2,0.2l2.8,2.3l2.8-6.7L195,101v-0.1l1.2-5.4l0.1,0.2l1.5,2v-5.6l-3.3-1.7v-0.1l0.2-3l0,0l5.5-4l5.8-6.4l2.9-4h0.1
		l1.5,0.4v0.1l-0.3,2.1l5.7-1.2l1.5-1.7l1.1,1.3l6.4-6.3l-0.1-0.1l0.1-0.1l0.1,0.1l3.2-8l3.5-8.5l-0.1-0.1l2.3-3.6l-1.2-1.2
		l-0.9,2.7l-0.1-0.1l-3.4-2.5l0.1-0.1l1.5-0.9l-0.6-3.1h0.1l4.1-2.2l-2.4-1.4l-4.5,3.7l0.1-0.4l1.7-4.7l-2.1-0.2l-1,2.3l-1.9-1.4
		l3.5-3.9l-1.4-0.7l-4.9,4.2l-0.1-0.1l-0.8-1.3l0,0l0.5-1.9h0.1l1.8,0.7l1.5-2.9l-1.9-4.1l-3.1,2.9v-0.2l-1.3-4.4h0.1l2.2-2.2
		l-1.8-2.2l-1.1-3.5l-6,2.8l-3.3,0.3l-6.6,1.8V23l-1.3-3.2l-3.1,0.2l2.8,4l-11.3,0.6l-9.2,2.6l0.1,4h-0.1l-5.5,0.8v-0.1l-0.9-2.2
		l-8,3.1l-9.3,3.7v-0.1l-0.2-1.8l-6.6,1l-0.2,4h-0.1l-3.5-0.6l-0.7,2.5h-0.1l-2.9,0.9l-0.6,3.3l1.3,6.9l0,0l-2.4,5.1l0,0L140.3,62z"
		/>
	<text transform="matrix(1 0 0 1 146.083 62.2083)" class="st1 st2">Muradnagar</text>
	<g>
		<circle class="st3" cx="173" cy="85.3" r="13.4"/>
		<text transform="matrix(1 0 0 1 167.013 92.6389)" class="st1 st4">3</text>
	</g>
</g>
<g id="cumilla-9">
	<path class="st7" d="M272.7,412.7L272.7,412.7l-0.5-2.3h0.1h4.1l-3.3-6.3l-2.8,0.3v-0.1l-0.1-6.9l-2.5,0.5v-0.1l-2-7.6l-1.7-0.4
		v-0.1l-0.5-4.8l2.1-0.1l0.9-3.2l-0.3-5.5h0.1l5-0.3l-0.4-4.1l-1.7-4.7l-8.9-0.1l-1.7,2.4h-0.1l-2.2-1.2l-9.6,2.3v-0.1l-0.4-3.2l0,0
		l2.1-1.1l-0.8-4.8l3.2-2.2l0.1-1.7l-5.3-1.7l-2.9-4.1l1.7-4.8c-1.6-0.6-3.4-1.3-3.6-1.3l0,0h-0.1l0,0l0,0l0,0l0,0l0,0
		c0-0.1,0.4-2,0.7-3.4l-5.5,0.6l-1.1,3.9l0,0l-4.6,2.2l1.7,3.8h-0.1l-2.9,0.7v-0.1l-0.3-1.7l-6.1,0.7l0,0l-1.2-1.3l0.1-0.1l2-1.7
		l0.1-3.5l-2.7,0.1l0,0l-1.4-1.9l-1.7,0.4l0,0l-2.2-1.7l-6.9,3l-0.3,7.6l2.7,2.3h-0.2l-5.7,1.7l2.3,3.8h-0.1l-5.5,1.4l-0.1,1.5
		l3,1.8v0.1l-0.1,12.1l4.3,0.8v0.1l-2.8,6.9H206l-10.9,1.2l-2.8,3.2l3.7,3l-1.5,3.8c0.1,0.3,0.5,2.1,0.5,2.6c0.5-0.1,2.9-1.1,5.1-2
		h0.1h0.1l3.6,2.9l8.2-0.2v0.1l2.8,5.3l2.6-1.3l0,0c-0.2-1.5-0.3-2.4-0.3-2.5s0-0.3,3.7-1.5h0.1v0.1l3.4,9l0,0l-0.9,1.9l4.3,6.8
		l7.1,0.4l0,0l1.3,3.2l8.4,0.1l-0.1,0.1l-1.6,3.1l8.1,0.9l8.3-1.2l2.9-2.5l0,0l12.3,1.1l0.2-2.7l0,0l2-1.5l0,0l0.8,0.1l-0.3-6.5
		L272.7,412.7z"/>
	<path class="st7" d="M219.7,343.5L219.7,343.5l1.4,2l2.9-0.1v0.1l-0.1,3.7l0,0l-2,1.6l1,1.1l6.2-0.7v0.1l0.3,1.6l2.5-0.6l-1.7-3.7
		h0.1l4.6-2.2l1.1-4h0.1l5.8-0.7v0.1c0,0-0.2,0.9-0.4,1.8l-0.1,0.4c-0.1,0.3-0.1,0.6-0.2,0.8l0,0c0,0.2-0.1,0.3-0.1,0.4
		c0.4,0.1,1.6,0.6,3.6,1.4h0.1l0,0l0,0l0,0v0.1l-1.7,4.8l2.8,4l5.4,1.7v0.1l-0.1,1.9l0,0l-3.1,2.1l0.8,4.8h-0.1l-2.1,1.1l0.3,2.9
		l9.5-2.3l0,0l2.1,1.1l1.6-2.3h0.1l9.1,0.1l1.7,4.7l0.9-0.6l-0.2-5.4h0.1l4.2-0.6l4.3-1.5l0,0l1.8,0.8l0.1-2h0.1l2.9-0.2l1.4-4.8
		h0.1l2.3,0.4l-0.4-3h0.1l2.3-0.7l2.8-4.5l2.1-1.8l-1-4.5l0,0l1.6-6.6l-0.6-0.7l-3.2-0.7v-0.1l-0.5-3.5L290,329l0.1-0.1l1.4-1.1
		l-0.3-4.9l-4.2,0.7l-3.2-0.4l-0.4,2.2h-0.1l-4.2-1.1v-0.1v-3.3l-5,0.1l0.1-0.1l2-6.3l-2.8-0.4l-2.1,1.4l-4.9,1v-0.1v-2.8l-1.5-1.3
		l-0.7,2.5h-0.1l-2.2-0.5v-0.1l0.2-7.4l0,0l1.5-2.5l-2.2-1.8l0.1-0.1l1.9-3.1l1-7.1l-2.8-3.8l0.1-0.1l2-1.5l-0.1-2.7l-4.7-1.7
		l-3,1.2v-0.1l-1.7-2l-1,0.3l0,0l-3.3-2.9l0.2,6.5l0,0l-1.7,1.2l0,0l-6.8-0.2l0.4,2.7l2.1,1.9l0,0l-0.5,3.9h-0.1l-4.6-0.2l-3.1,1.3
		l2.2,3.1v0.1l-3,3.4l0.3,3.7h-0.1l-2.5-0.1l0.1,2.9h-0.1l-4.2-0.3l-1.5,2.4h-0.1l-3.5,0.1l-0.1,8l1.5,3.8h-0.1l-3,0.3l-0.3,4.5
		h-0.1l-3.1,0.7l0.2,6.9h-0.1l-1.4,0.5l-1.5,5.7l2.1,1.6L219.7,343.5z"/>
	<text transform="matrix(1 0 0 1 225.7497 337.7083)" class="st1 st2">Laksham</text>
	<text transform="matrix(1 0 0 1 166.1247 391.8333)" class="st1 st2">Monohargonj</text>
	<g>
		<circle class="st3" cx="250.4" cy="360.6" r="13.4"/>
		<text transform="matrix(1 0 0 1 244.4297 368.8889)" class="st1 st4">9</text>
	</g>
</g>
<g id="cumilla-7">
	<path class="st8" d="M179,266.3l8-1.2l2.7,2.7l0.8-0.8l-1.9-5.6l0,0l0.4-2.9l-1.5-0.5v-0.1l0.6-3.8l-2.5-2.6l-1.7,0.8v-0.1
		l-1.7-4.6h0.2c0.5,0.1,0.9,0.1,1.1,0.1l0,0c0-0.5,0.2-2.7,0.2-3.2l-3.8-1.3v-0.1l0.4-1.5h0.1l5,1.3l1.1-0.9l-2.6-3.3l0,0l0.4-4.4
		h0.1l7.2-1l0,0l2.5,3.7l6.1-1.2l4.5-1.7l-1.8-6.1l0,0l0.2-9h0.1l4.7-0.7l0,0l2.3,1.9l0,0l0.5,2.3h1.5l0.3-3.2h0.1l2.6-0.3l0.5-3.8
		h0.1l6.8,0.1v0.1l-0.2,3.6l2.4,0.8l1.5-1.2l0,0l2.5,0.8l4-1.9l-0.2-9l-1.4-0.5v-0.1l0.1-2.3l-4.3-5.9l-5.8,0.5l0,0l-3.5-1.5v-0.1
		l-0.4-5.2l-9.1-2.8v-0.1l-0.1-2.6l-1.6-1.1l-1.9,2.1l-3,0.5l0,0l-10.1-4.6l-2.9,2.6l0,0l-4.7-0.3V187l0.1-1.8l-2.7-2.1l-3.1,1.5
		l0,0l-2.2-1.5l2.5-3.7l-0.9-1l-4.5,4.1H173l-3-2.1l-3.3,0.8v-0.1v-2.8l-1.3-0.6l-2,1.8h-0.1l-4.1-1.4l-2.1,2.6l0,0l-12.7,0.2v0.1
		h-0.1l-4.5-0.3l-0.3,2h-0.1l-1.1,0.1v-0.1l-1.9-2.8l-3.8-0.1l0.2,3.1h-0.1l-2.9-0.5l-0.7,2.7H129l-4.3,0.3l0.4,6.9l-1.7,3.3
		l1.6,3.4h-0.1l-2.3,1.9l2,2.7v0.1l-1,3.6l4.2-0.7v0.1l1.6,3.6l7.6-0.9l0,0l2.7,4.5l0,0l-0.7,4.9l3.1,4.6l0,0l-0.7,3l3.4,8.3
		l4.3-0.3v0.1l0.5,3.9l0,0l-1.7,3.6l2.8,1.6l3.3-1.7v0.1l2.1,5.4l2.3-1h0.1l5.8,5.7l3.6,7h-0.1l-3.1,1.1l1.9,9.2l4.7-0.2l0,0
		l3.6,2.7l1.1-3.3h0.1l2.2-0.2L179,266.3L179,266.3z"/>
	<text transform="matrix(1 0 0 1 144.1664 203.75)" class="st1 st2">Chandina</text>
	<g>
		<circle class="st3" cx="171" cy="224.8" r="13.4"/>
		<text transform="matrix(1 0 0 1 165.013 232.1389)" class="st1 st4">7</text>
	</g>
</g>
<g id="cumilla-4">
	<polygon class="st9" points="184.1,187.3 188.5,187.6 191.4,184.9 191.5,185 201.5,189.6 204.4,189.1 206.4,186.9 206.5,186.9 
		208.2,188.1 208.3,190.7 217.4,193.6 218.9,193.3 218.1,188 218.2,188 223.8,186.6 224.1,184.8 221.5,182 221.6,181.9 223.4,179.8 
		222.1,176.6 222.2,176.6 223.4,167.9 223.5,167.9 227,169.3 227.7,159.8 225.8,157.7 225.9,157.6 229.1,154.4 228.6,149.1 
		232.1,151.9 232.4,151.9 233.4,149.5 228.7,146.8 229.9,145.3 229.9,145.3 231.8,145.2 232.7,137 232.8,137 238.9,133.4 
		238.4,131.7 236.5,130 236.5,130 236.7,122.8 235.1,122.7 234.5,129.8 234.4,129.8 229.4,130 229.4,129.9 229.6,124.1 229.6,124.1 
		231.7,121.7 231.6,106.2 228,105.9 228,105.8 228.1,103.3 231.5,95.7 229.4,95 224.3,97.9 224.3,97.9 222.1,96.2 222.1,96.2 
		224.7,88.7 224.8,88.7 235.4,90 235.8,86.7 234,86.6 230.5,82.9 230.5,82.9 230.6,78.5 229.1,77.5 229.1,77.4 227.8,69.8 
		225.7,67.8 219.1,74.2 219,74.1 218,72.9 216.5,74.4 216.5,74.4 210.5,75.7 210.5,75.6 210.8,73.4 209.5,73.1 206.7,77 200.9,83.4 
		195.4,87.4 195.2,90.2 198.5,91.9 198.5,91.9 198.5,98.2 198.3,98 196.7,95.9 195.6,100.8 200,100.9 200,101 197,108.1 
		196.9,108.1 194.2,105.8 195.1,110.1 195.1,110.1 193.4,112.5 193.3,112.4 190.2,110.1 189,111.2 188.9,111.2 184,107.5 
		180.9,108.9 182.1,114.4 182.1,114.5 180.3,116 178.5,115.6 173.4,122.1 174.5,124.1 174.4,124.1 170.7,129.3 172.2,133 
		170.8,134.6 173.6,138.3 173.6,138.3 173,141.3 172.9,141.3 168.8,141.1 168.5,146.5 168.4,146.4 159,145.8 158,151.6 159,153.2 
		159,153.2 155.9,158 155.9,162.4 155.8,162.4 153.2,164.3 153.1,168.6 153.1,168.7 151.3,169.9 152.1,174.9 152,174.9 147,175.3 
		145.2,177.9 144.4,181 157,180.8 159.1,178.1 159.2,178.2 163.4,179.6 165.4,177.8 165.4,177.8 166.9,178.4 166.9,178.5 
		166.9,181.2 170.1,180.4 170.1,180.5 173.1,182.6 177.6,178.4 177.6,178.5 178.7,179.8 178.6,179.8 176.2,183.5 178.2,184.8 
		181.3,183.3 181.4,183.3 184.2,185.5 184.2,185.6 	"/>
	<text transform="matrix(1 0 0 1 158.9997 154.125)" class="st1 st2">Debidwar</text>
	<g>
		<circle class="st3" cx="209.7" cy="119.8" r="13.4"/>
		<text transform="matrix(1 0 0 1 203.763 127.1389)" class="st1 st4">4</text>
	</g>
</g>
<g id="cumilla-5">
	<g>
		<polygon class="st10" points="229.1,59.6 225.8,67.6 228,69.7 228,69.7 229.3,77.3 230.8,78.3 230.8,78.4 230.7,82.9 234.1,86.4 
			236,86.5 236,86.6 235.6,90.2 235.5,90.2 224.8,88.9 222.3,96.2 224.3,97.7 229.4,94.7 229.4,94.8 231.8,95.6 228.3,103.3 
			228.2,105.7 231.9,106 231.9,106.1 231.9,121.7 231.9,121.8 229.8,124.2 229.6,129.8 234.3,129.6 234.9,122.5 235,122.5 
			236.9,122.6 236.9,122.7 236.7,129.9 238.6,131.6 238.6,131.7 239.2,133.5 239.1,133.6 232.9,137.2 232,145.4 231.9,145.4 
			230,145.5 229,146.7 233.6,149.4 233.6,149.5 232.6,151.9 234.7,152.2 237.1,147.8 240,149.1 240,149.2 239.7,153.2 242.9,152.9 
			244.2,146 249.7,139.2 249.8,139.3 252,140.5 258.4,138.1 262.8,123.4 262.8,123.4 269.3,122.9 270.3,120 270.3,120 283,118.6 
			282.1,112.5 282.2,112.5 283.5,110.7 282.4,105.2 284.1,97.4 281.5,88.7 281.5,88.7 282.3,87.4 280.7,86 279.5,87.7 279.4,87.7 
			277.1,87.5 275.8,89.2 275.8,89.2 273.7,89.1 273.6,91.1 269.3,90.8 265.6,89.3 265.6,89.3 261.8,84.7 264.4,86 266,81.9 
			265,80.6 263,83.1 263,82.8 263.3,78.5 260.3,80.8 260.4,80.5 261.3,77 259.9,75.7 260.1,75.6 261.9,74.7 261.2,73 259.5,73.1 
			258.8,75.5 258.7,75.5 254.1,73.3 254.2,73.2 256.5,70.7 256.5,68.5 253.6,66 251.5,67.8 251.5,67.8 250.2,66.1 250.3,66.1 
			256.2,63.3 255.9,61.4 249.7,63.7 249.7,63.5 249.4,60.9 244.5,63.3 244.5,63.1 244.6,61.4 240.6,60.2 242.3,59.4 244.1,56.2 
			243.1,55.3 239.8,58.2 239.8,58.1 237.5,56.8 237.6,56.8 240.7,51.6 239.5,51.1 234.9,56.1 233.5,53.3 235.7,52.8 236.6,50.2 
			235.6,49.5 233.6,51.6 233.5,51.6 233.5,51.6 233.5,51.6 233.5,51.6 232.6,51.1 		"/>
		<polygon class="st10" points="269.4,123.1 269.4,123.1 262.9,123.6 258.5,138.2 258.5,138.2 252,140.8 252,140.8 249.8,139.5 
			244.4,146.1 243.1,153.1 243,153.1 239.5,153.5 239.5,153.4 239.7,149.2 237.2,148.1 234.8,152.4 234.8,152.4 232.5,152.1 
			232.4,152.4 232.3,152.3 228.9,149.6 229.3,154.5 229.3,154.5 226.1,157.7 228,159.7 228,159.7 227.2,169.6 227.1,169.6 
			223.6,168.2 222.4,176.6 223.6,179.9 223.6,179.9 221.8,181.9 224.4,184.7 224.3,184.8 224,186.8 223.9,186.8 218.4,188.1 
			219.1,193.5 219,193.5 217.4,193.8 217.8,198.8 221.2,200.2 227.1,199.7 227.1,199.8 231.4,205.7 231.5,205.7 231.5,205.8 
			232,206.4 236.6,204.6 237,201.9 237.1,201.9 241.8,199.8 241.3,197.1 241.4,197.1 245,197 245,197 250,199.4 250,199.5 
			249.6,201.7 253.3,202.8 255.8,202.1 255.9,202.1 258.2,203.6 258.2,203.7 258.1,205.6 259.3,205.7 260,202.2 256.3,190.6 
			256.5,190.6 259,190.5 259,190.5 261.3,192.9 262.3,192.3 261.8,189.1 261.9,189.1 266.4,188.3 266.4,188.3 267.6,189.3 
			267.6,189.4 265.9,192.5 273.7,192.6 275.1,190.8 275.2,190.8 278.6,191.6 280.4,186.3 280.5,177.4 280.6,177.4 283.7,176.6 
			283.3,169 283.4,169 290.1,169.8 291.6,167.7 291.7,167.7 295.7,167.7 295.7,167.7 297.1,170.5 303.3,169.6 303.3,169.7 
			303.8,171.6 305,171.5 308.4,160 311.7,156.8 310.3,155.2 307.6,158.1 307.6,158 304.9,155.6 303.5,157.7 303.4,157.7 301,156.8 
			301,156.7 301.8,148.4 297.7,142.7 296.6,140 291.2,134.6 291.2,134.5 292.6,132.6 291.9,130.9 285,130.4 285,130.4 285.2,126.1 
			283.3,120.4 283,118.8 270.4,120.2 		"/>
		<text transform="matrix(1 0 0 1 236.7497 105.375)" class="st1 st2">Brahmanpara</text>
		<text transform="matrix(1 0 0 1 252.4164 153.4583)" class="st1 st2">Burichang</text>
	</g>
	<g>
		<circle class="st3" cx="250" cy="171.1" r="13.4"/>
		<text transform="matrix(1 0 0 1 244.013 178.3889)" class="st1 st4">5</text>
	</g>
</g>
<g id="cumilla-8">
	<path class="st11" d="M218.6,335.9l-0.2-6.9h0.1l3.1-0.7l0.3-4.5h0.1l2.9-0.3l-1.4-3.6l0,0l0.1-8.3h0.1l3.5-0.1l1.5-2.4h0.1
		l4.2,0.3l-0.1-2.9h0.1l2.5,0.1l-0.3-3.6l0,0l2.9-3.4l-2.3-3.2h0.1l3.3-1.4l4.6,0.2l0.4-3.7l-2.1-1.9l-0.5-3h0.1l6.9,0.2l1.6-1.2
		l-0.2-6.9l0.2,0.1l3.5,3l1.5-0.5l-0.3-2.4h0.1l3,0.5l2.8-1.8l-1.1-7.3h0.1l4.7-0.5l0,0l2.5,1.1l5.6-4.1l-2.9-0.8l0,0l-4.7-8.1
		l-2.4-8.5l0.1-8.7l-3.1-2.9l0,0l-0.9-4.6l-3.2-0.6l0.2,2.4h-0.1l-2.5,0.8v-0.1l-1.2-3.1l-1.6-1.4v-0.1l1.1-4.5h0.1l2.9-0.9v-1.1
		l-2.2-0.1l-3.1,2.3l-0.1-0.1l-2-1.8l-4-0.1v-0.1l-0.8-9.3h-3v-0.1l0.6-2.7l-1.7-0.5V212l0.2-1.5l-5.5-1.9l0.2,9h-0.1l-4.1,2l0,0
		l-2.5-0.8l-1.5,1.2l0,0l-2.6-0.8v-0.1l0.2-3.6l-6.5-0.1l-0.5,3.8h-0.1l-2.6,0.3l-0.3,3.2h-0.1h-1.8v-0.1l-0.5-2.4l-2.2-1.8
		l-4.6,0.7l-0.2,8.8l1.8,6.2h-0.1l-4.6,1.8l-6.2,1.2V237l-2.5-3.7l-6.9,0.9l-0.4,4.2l2.7,3.4l-0.1,0.1l-1.3,1.1h-0.1l-4.9-1.3
		l-0.3,1.2l3.8,1.3v0.1c0,0-0.3,3.3-0.3,3.4v0.1l0,0c0,0-0.1,0.1-1.1,0l1.6,4.1l1.7-0.8l2.7,2.8l0,0l-0.6,3.7l1.5,0.5v0.1l-0.4,3
		l1.9,5.6l0,0l-1,1l-0.1-0.1l-2.7-2.7l-7.8,1.2l-0.7,3l1.2,4.1l-0.5,3.7l3.2,5.9l3.7,0.3l0,0l3,4l0,0l-0.1,8.7l4.1,1.3l-0.1,0.1
		l-2.3,4.6l2.5,2l5.4-3.9v0.1l5.8,14.7l2.5-2.2l0.1,0.1l2.8,4.7l-0.1,0.1l-2,1.6l2,5.4l5.1,1.3v0.1l-0.5,7l2.7,2.9L218.6,335.9z"/>
	<text transform="matrix(1 0 0 1 198.333 275.4583)" class="st1 st2">Barura</text>
	<g>
		<circle class="st3" cx="230.6" cy="242.8" r="13.4"/>
		<text transform="matrix(1 0 0 1 224.6797 250.1389)" class="st1 st4">8</text>
	</g>
</g>
<g id="cumilla-10">
	<path class="st12" d="M332.1,213.1L332.1,213.1l-3.3,1.9l-4,7.2l-0.1-0.1l-2-1.1l-2.6,0.8l-1.3,5.5h-0.1l-3.6-0.4v-0.1l0.3-5.2
		l-1.2-1.2l-2,1.5l-0.1-0.1l-1.8-2.9l0,0l-0.3-4.3l0,0l1.9-2.4l-1.3-0.5l-1.9,2.1h-0.1l-2.7-0.6l-1.7,2.2l-0.1-0.1l-4.1-4.1
		l-10.4,0.4l-3.1,2.1l-2.7,0.6v-0.1l-0.8-2l-6.9,1.5l-2.1,3.8l0,0l-5.9,1l-7.5,2.5l-0.9,6.5l-1.7,2l0.7,3.7h-0.1l0.9,4.5l3.2,3l0,0
		l-0.1,8.7l2.4,8.5l4.6,8l3.3,0.9l-0.2,0.1l-5.9,4.3h-0.1l-2.6-1.1l-4.5,0.5l1.1,7.2h-0.1l-3,1.8l0,0l-2.9-0.5l0.3,2.3h-0.1
		l-0.4,0.2l1.6,1.9l2.9-1.1l0,0l4.8,1.8v0.1l0.1,2.9l0,0l-2,1.5l2.7,3.7l0,0l-1,7.3l-1.9,3.1l2.2,1.8v0.1l-1.5,2.6l-0.2,7.2l1.9,0.5
		l0.8-2.6l1.8,1.6l0,0v2.7l4.6-0.9l2.1-1.4l0,0l3.1,0.5v0.1l-2,6.3l4.9-0.1v0.1v3.3l4,1l0.4-2.2h0.1l3.2,0.4l4.4-0.8v0.1l0.3,5.1
		l0,0l-1.4,1.1l2.1,2.3l0,0l0.5,3.4l3.1,0.7l0,0l0.6,0.6l0,0l0.2,0.1v0.1l0,0l0,0l4.2,0.3l0.3-1.4h0.1l2.3-0.1v0.1l0.9,1.8l2.3-0.8
		l-0.1-1.9h0.1l1.3-0.1l2.1-2.7l-1.5-2.3l0.1-0.1l2.2-1.4l0,0l0.1-0.1l0.2-0.1l-0.9-1.7h0.1l6.1-5l-2.4-1.4l0.1-0.1l2.4-3.6l-4-1.3
		l-2.5,1v-0.1v-3.7l-1.5-2.2v-0.1l2.4-3.9l-4.2-7.7l0,0l0.9-2.2l-1.5-1.6l0.1-0.1l2-0.7l-3.1-1.5l-1.3-1.7l0,0l1-2.5l-2.2-3.8l0,0
		l1.3-4.5h0.1l2,0.6l2.2-3.7l-0.7-1.3l-1.5-0.1l0,0l-3.1-4.6l0,0l0.2-2.1l-0.5-0.7l-2.3,1.1v-0.1l-0.8-3.7h0.1l1.6-0.5l0,0l3.4,0.5
		l0,0l2.4,2.7l3.6-2.3l0,0c0.6,0,1-0.1,1.2-0.1c0-0.3-0.1-1.7-0.2-2.1l-3.1-0.2v-0.1l-0.2-3.6l0.9-0.5l0,0l2.1,1.9l3.8-1.6l12.6,0.5
		l0.8,2.3l3.5,0.9l0,0l1.7,2.4l7.8-0.5l0,0l1.9,2.2l3.1-0.9l0,0l2.7,0.9l2.2-0.6l1.7-5.3l-5.2-0.8v-0.1v-5.3h0.1l4.9-0.3l-0.8-2.9
		l-7.2,0.9V252l-0.7-21.1l-7.1-5.1l0.1-0.1l3.8-3.8l-7.8-6.1l0,0l-0.2-3.4l-1.3-2.2l-1.2,0.6L332.1,213.1z"/>
	<polygon class="st12" points="349.9,424.4 350,424.3 350.3,422.3 350.4,422.4 354.4,424 355.8,422.9 352.4,419.5 349.3,420.7 
		349.3,420.6 347.5,418.7 347.5,418.7 348.1,416.2 346.1,416.2 346.1,416.1 345.5,411.1 342.6,410.1 342.5,410.1 341.6,407.7 
		341.7,407.7 347.1,405.9 347,404.3 345,404.3 345,404.2 345,402.2 345.1,402.2 349.4,399.2 349.6,398 346.7,396.7 346.8,396.6 
		350.6,393.2 349.1,391.6 344.7,394.3 344.7,394.2 344.5,390.5 339.1,390 339.2,389.9 340.4,387.6 338.1,386.6 338.2,386.5 
		340.2,383.8 339.8,381.3 337.2,380.2 337.3,380.1 340.5,377.8 339.5,375.8 335.3,379.1 335.3,379 334.9,377.4 334.9,377.3 
		340.8,370.3 340.3,366.8 336.5,367.3 336.5,367.3 335.6,366 335.6,365.9 336.8,364.5 336.8,364.5 340.6,364 340.3,362.3 338,363 
		338,362.9 337.2,362.1 337.2,362 337.9,358.9 340.4,360.4 344.6,355.4 343.4,354 339.9,358.1 339.9,357.9 338.9,354.6 335.2,350 
		335.3,349.9 337.1,349.2 337.2,349.3 339.5,351.6 341,349.9 339.8,346.9 334.2,346 334.2,345.9 332,341.1 332,341.1 334.1,337.6 
		334.2,337.6 338.3,338.6 337.4,336.6 337.4,336.5 340.1,334.8 338,333.4 335.3,335.2 335.2,335.1 334.1,331.5 328,331.6 
		327.5,334.8 327.4,334.8 325.4,335.3 325.4,335.3 323.1,333.5 323.2,333.5 325.5,330.7 320.5,330.9 320.4,330.8 319.9,329.1 
		320,329.1 324.4,328.8 324.7,327 319.7,326.1 316.6,324.2 311.6,327.8 311.6,327.9 311.6,327.9 309.1,329.5 310.6,331.8 
		310.5,331.8 308.3,334.6 308.3,334.6 307,334.7 307.2,336.6 307.1,336.6 304.6,337.5 303.7,335.6 301.6,335.7 301.3,337.1 
		301.2,337.1 296.9,336.7 295.3,343.2 296.4,347.8 296.3,347.9 294.2,349.7 291.4,354.2 291.4,354.3 289.1,354.9 289.5,358 
		289.4,358 287,357.6 285.6,362.4 285.5,362.4 282.6,362.5 282.5,364.6 282.4,364.6 280.5,363.8 276.3,365.3 272.2,365.9 
		272.4,371.2 272.4,371.2 271.3,371.8 271.8,376.2 271.7,376.2 266.6,376.5 266.9,381.8 266.9,381.8 265.9,385.2 265.9,385.2 
		263.9,385.2 264.3,389.7 266,390.1 266,390.1 268,397.7 270.5,397.2 270.5,397.3 270.6,404.2 273.3,403.9 273.3,404 276.8,410.6 
		272.5,410.7 272.9,412.5 277.7,412.3 277.7,412.4 278.1,419.1 280.9,419.6 286.3,416.7 286.4,416.8 289.4,423.4 289.4,423.5 
		288.5,424.5 289.9,426.4 292.3,424.4 292.3,424.4 296.4,426.5 298.2,430.5 308.6,428.1 308.6,425 308.7,425 314.7,426.1 
		314.7,426.2 314.5,429.4 317.9,431.2 318.2,425.9 324.9,425.9 324.9,426 324.4,430 344.6,432 344,428.8 344.1,428.8 347.2,428.7 
		347.2,428.8 350.9,432.4 352.3,428 	"/>
	<text transform="matrix(1 0 0 1 269.6664 240.25)" class="st1 st2">Cumilla </text>
	<text transform="matrix(1 0 0 1 269.6664 254.25)" class="st1 st2">Sadar South</text>
	<text transform="matrix(1 0 0 1 267.3748 394.2083)" class="st1 st2">Nangalkot</text>
	<g>
		<circle class="st3" cx="283.9" cy="287.6" r="13.4"/>
		<text transform="matrix(1 0 0 1 270.9297 295.8889)" class="st1 st4">10</text>
	</g>
</g>
<g id="cumilla-11">
	<path class="st13" d="M382,395.9l-3.3-0.4v-0.1l1.3-4.4l-3.1-2v-0.1l-1.5-12.2l-5.4-3v-0.1l0.6-4l-0.9-39.6l-2.8-1.5v-3.3h0.1
		l4.1-0.9l0.2-2.5l-4.4-0.5v-0.1l-3.9-12.1l0,0l3.4-3.8l-8.2-2.8l0,0l-0.9-3l0,0l3.5-4h0.1l4.8,1.1l-4.1-9.6l-5.7,0.6l0,0l-3.7-3
		v-0.1l3.3-12.7h0.1l7.9-0.9l-0.5-5.4h0.1l4.3-0.4l0.6-4.1l-3.3-0.4l-7.8,5.2l-5.5,0.7v-0.1l-2.1,0.6l0,0l-2.7-0.9l-3.1,0.9v-0.1
		l-1.9-2.2l-7.8,0.5v-0.1l-1.7-2.4l-3.5-0.9v-0.1l-0.8-2.2l-12.4-0.5l-3.9,1.6l0,0l-2.1-1.9l-0.7,0.3l0.2,3.3l3.1,0.2v0.1
		c0,0,0.2,2.1,0.2,2.3c0,0.1,0,0.2-1.4,0.3l-3.7,2.4l-0.1-0.1l-2.4-2.7l-3.3-0.5l-1.5,0.4l0.7,3.4l2.2-1.1v0.1l0.6,0.9l0,0l-0.3,2.1
		l3,4.4l1.5,0.1v0.1l0.8,1.4l0,0L306,280h-0.1l-2-0.6l-1.2,4.3l2.2,3.8l0,0l-1,2.4l1.2,1.6l3.5,1.6l-2.3,0.8l1.4,1.5v0.1l-0.9,2.2
		l4.2,7.7v0.1l-2.4,3.9l1.4,2.1l0,0v3.6l2.3-0.9l0,0l4.4,1.4l-0.1,0.1l-2.4,3.6l2.5,1.4l-0.1,0.1l-6.1,5.1l0.8,1.5l5-3.7h0.1l3.2,2
		l5.2,0.8v0.1l-0.3,2.1h-0.1l-4.4,0.2l0.4,1.4l5.3-0.2l-0.1,0.2l-2.3,2.9l2,1.5l1.8-0.4l0.5-3.2h0.1l6.4-0.2v0.1l1.1,3.6l2.6-1.7
		h0.1l2.5,1.5l-0.1,0.1l-2.8,1.8l1.1,2.3l-0.2-0.1l-4.3-1l-2,3.3l2.2,4.7l5.6,0.9v0.1l1.2,3.2l0,0l-1.7,1.9l-2.4-2.4l-1.5,0.6
		l3.5,4.5l1,3.1l3.4-4l0.1,0.1l1.4,1.6v0.1l-4.4,5.2h-0.1l-2.3-1.4l-0.6,2.7l0.6,0.8l2.4-0.7v0.1l0.3,2.1h-0.1l-3.9,0.5l-1,1.3
		l0.7,1.1l3.9-0.5v0.1l0.5,3.7l0,0l-5.9,7l0.3,1.3l4.1-3.3l1.2,2.4h-0.1l-3.1,2.2l2.5,1v0.1l0.3,2.6l0,0l-1.9,2.7l2.3,1v0.1
		l-1.2,2.2l5.2,0.5v0.1l0.2,3.6l4.3-2.7l0.1,0.1l1.7,1.8l-0.1,0.1l-3.8,3.4l2.8,1.2v0.1l-0.3,1.4l0,0l-4.3,3v1.8h1.9l0.2,2h-0.1
		l-5.3,1.7l0.8,2.2l3,1v0.1l0.5,5l2.1,0.1v0.1l-0.6,2.5l1.6,1.8l3-1.2h0.1l3.6,3.6l-0.1,0.1l-1.6,1.3h-0.1l-3.9-1.6l-0.3,1.7
		l2.4,3.6l0,0l-1.5,4.6l0.4,0.4l8.4,1.5l6.5-1l-1.1-3h0.1l7-4.9l0,0l16.5-1.6l5.8-1.7L382,404.5V395.9z"/>
	<text transform="matrix(1 0 0 1 303.7498 302.4583)" class="st1 st2">Chauddagram</text>
	<g>
		<circle class="st3" cx="348.6" cy="322.3" r="13.4"/>
		<text transform="matrix(1 0 0 1 336.6797 330.6389)" class="st1 st4">11</text>
	</g>
</g>
<g id="cumilla-6">
	<polygon class="st14" points="304.9,171.7 303.7,171.8 303.6,171.7 303.1,169.8 297,170.7 297,170.6 295.5,167.9 291.7,167.9 
		290.2,170 290.1,170 283.5,169.2 283.9,176.8 283.8,176.8 280.7,177.6 280.6,186.4 278.8,191.9 278.7,191.9 275.2,191 273.8,192.8 
		273.8,192.8 265.5,192.7 265.6,192.6 267.4,189.4 266.3,188.5 262.1,189.3 262.5,192.4 261.3,193.2 261.2,193.1 258.9,190.7 
		256.6,190.8 260.2,202.2 259.5,206 259.4,206 257.9,205.8 257.9,205.7 258,203.8 255.8,202.3 253.3,203.1 253.2,203.1 249.4,201.9 
		249.4,201.8 249.7,199.5 244.9,197.2 241.6,197.3 242,199.9 241.9,199.9 237.2,202.1 236.8,204.7 236.7,204.8 231.9,206.7 
		231.5,206.1 231.4,208 232.6,208.5 232.7,208.5 232.8,208.5 238.5,210.5 238.5,210.5 238.3,212.1 240,212.6 240,212.6 239.4,215.3 
		242.3,215.3 242.3,215.4 243.2,224.8 247.1,224.9 247.1,224.9 249.1,226.6 252.1,224.4 252.1,224.4 254.5,224.5 254.5,224.6 
		254.6,225.9 254.5,226 251.5,226.9 250.5,231.2 252,232.6 253.2,235.6 255.3,234.9 255.1,232.4 255.2,232.4 258.5,233 258.5,232.9 
		258.6,232.9 258,229.5 258.1,229.5 259.7,227.4 260.6,220.9 260.6,220.9 268.2,218.3 274.1,217.3 276.2,213.5 276.2,213.5 
		283.4,212 283.4,212.1 284.2,214 286.8,213.5 289.8,211.3 289.9,211.3 300.4,211 300.4,211 304.4,215.1 306,212.9 306.1,213 
		308.8,213.6 310.7,211.5 310.8,211.5 312.5,212.1 312.4,212.2 310.4,214.7 310.7,218.9 312.4,221.6 314.4,220.2 314.4,220.2 
		315.7,221.6 315.7,221.6 315.5,226.8 318.7,227.1 320,221.6 320,221.6 322.8,220.8 322.8,220.8 324.8,221.8 328.7,214.8 331.8,213 
		330.5,210.6 330.6,210.6 331.9,210 331.2,209 331.3,208.9 332.2,204.5 330.9,202.7 330.9,202.7 331.6,196.2 330.1,188.8 323.4,189 
		323.4,188.8 323.9,186.3 321.7,182.3 316.8,184.7 313.6,183.8 313.6,183.7 315.9,178.9 316.7,175.1 308.7,176.6 308.7,176.6 
		304.7,172.5 	"/>
	<text transform="matrix(1 0 0 1 287.333 189.5833)" class="st1 st2">Cumilla</text>
	<g>
		<circle class="st3" cx="316" cy="205.6" r="13.4"/>
		<text transform="matrix(1 0 0 1 310.0131 212.8889)" class="st1 st4">6</text>
	</g>
</g>
</svg>
