<?xml version="1.0" encoding="utf-8"?>
<!-- Generator: Adobe Illustrator 25.2.1, SVG Export Plug-In . SVG Version: 6.00 Build 0)  -->
<svg version="1.1" id="Layer_1" xmlns="http://www.w3.org/2000/svg" xmlns:xlink="http://www.w3.org/1999/xlink" x="0px" y="0px"
	 viewBox="0 0 400 600" style="enable-background:new 0 0 400 600;" xml:space="preserve">
<style type="text/css">
	.st0{fill:#ABBEED;stroke:#FFFFFF;stroke-width:0.5;stroke-miterlimit:10;}
	.st1{fill:#232323;}
	.st2{font-family:'TimesNewRomanPSMT';}
	.st3{font-size:16px;}
	.st4{fill:#9BB6EA;stroke:#FFFFFF;stroke-width:0.5;stroke-miterlimit:10;}
	.st5{fill:#8BAFE8;stroke:#FFFFFF;stroke-width:0.5;stroke-miterlimit:10;}
	.st6{fill:#7CA7E5;stroke:#FFFFFF;stroke-width:0.5;stroke-miterlimit:10;}
	.st7{fill:#6899E0;stroke:#FFFFFF;stroke-width:0.5;stroke-miterlimit:10;}
	.st8{fill:#C5CFED;stroke:#FFFFFF;stroke-width:0.5;stroke-miterlimit:10;}
	.st9{fill:#DCE6FF;stroke:#FFFFFF;stroke-width:0.5;stroke-miterlimit:10;}
</style>
<g id="bandarban">
	<polygon class="st0" points="174.9,210.5 171.9,200.5 170.9,197.3 170.6,197.6 170.2,197.3 170.7,196.8 168,188.6 159.9,168.3 
		152.1,154 144.9,141.3 138.8,134.2 133.3,128.4 145.3,119.8 150.2,110.5 153.7,110.1 156.3,116.4 163,121.6 174.7,120.9 
		176.9,117.6 177.7,110 173.1,101.9 163.4,96.5 167.3,81.8 161.8,80.8 161.8,55.2 159.7,48.9 153.2,51 144.5,57 134.6,63.8 
		131.5,64.5 129.7,61.3 128.9,56.5 127.4,52.4 123.1,47.4 113,46.1 103.4,47.1 103.3,50.3 101.9,51 102.6,51.6 105.4,51 105.2,52.8 
		107.6,55.7 106.1,55.9 106.4,57.6 104,57.5 104,58.3 106.4,58.7 104.8,62.3 106.4,65.4 104.1,70.2 101.9,72.5 99.8,74.3 102,80.2 
		100,81.5 100.2,83.4 101.7,83.4 103.2,87.5 102.2,89.6 102.9,92.1 101.9,93.6 101.6,97.7 103.6,100.8 104.7,100.7 105.5,103 
		105.2,106.1 103.1,107.1 103.5,108.7 105,108.7 107.5,114.5 112,119.5 110.9,120.4 111.2,122.7 109.6,125.4 108.9,125.5 
		108.3,127.1 111.1,129.8 110.5,133 112.2,135.7 113.4,134.7 115.2,137.6 109.6,143.4 114.3,148.2 114.5,152.2 110.2,155.2 
		109.2,155.1 108.5,157.8 105.6,158.7 104.8,157.3 102.7,159.1 103.3,160.5 106.5,160.3 106.9,161.6 111.2,160.9 112.2,163.3 
		107.5,167.8 109.3,168.8 112.1,167.4 111.9,169.6 117,170.6 118.1,171.6 114.5,176.4 115.8,177.9 114.7,178.9 113.5,178.6 
		111.1,180.4 111.7,181.7 113.6,180.9 115.7,182.4 115.4,184.9 118.2,185.2 118,189.2 119,189.3 120,186.1 121.7,188.4 125,188.6 
		126.1,191 128.3,190.2 129.2,191.5 128,194.9 134.9,195.6 133.5,198.5 129,198.7 128.1,202.9 131.8,206.3 131.8,206.3 132.3,206.4 
		132.3,206.7 133.8,208.1 136.9,208.1 139.6,206.2 142.3,205.7 147.4,208.4 150.6,214.9 155.7,221 168.2,223.2 179.8,221.3 
		178.1,216.6 	"/>
	<text transform="matrix(1 0 0 1 84.3012 104.4691)" class="st1 st2 st3">Bandarban</text>
	<polygon class="st4" points="162.3,80.4 167.9,81.4 164,96.3 173.4,101.5 173.5,101.6 178.3,109.9 177.4,117.9 174.9,121.3 
		174.8,121.4 162.9,122.2 155.9,116.7 155.9,116.7 153.4,110.7 150.5,111 145.6,120.1 134,128.5 139.1,133.9 145.4,141 152.6,153.7 
		160.3,168.1 168.5,188.4 171.1,196.3 173,194 181.2,187.5 183.2,177.9 180.5,175 184.9,170.7 183.7,165.2 180.6,164.4 179.9,161 
		183.1,158.3 180.1,155.1 180.5,150.6 178.6,147.8 181.2,143.1 189.3,141.9 193.7,138.6 196.6,134.4 202,136.6 210.3,136.2 
		215.8,133.6 225.3,126.2 235.4,119.3 244.2,115.1 244.1,112.5 241.7,107.6 238.3,107.3 236.7,102.7 237.6,99.9 235.9,94.6 
		230.4,86.1 226.9,85.9 224.2,82.7 220.2,81.5 215.8,76.8 211.7,71.2 205.7,61 201.9,53.4 195,54.3 188.8,52.9 181.2,53.4 
		176.3,51.5 169.4,47.9 160.7,48.6 160.1,48.8 162.3,55.2 	"/>
	<text transform="matrix(1 0 0 1 176.0855 99.4397)" class="st1 st2 st3">Rowangchhari</text>
	<polygon class="st5" points="225.6,126.6 216.1,134 210.3,136.7 201.9,137.1 196.8,135 194,138.9 189.5,142.4 181.5,143.6 
		179.2,147.8 181.1,150.4 180.6,154.9 183.9,158.3 180.5,161.2 181,164 184.1,164.8 185.5,170.9 181.2,175 183.7,177.8 181.7,187.8 
		173.4,194.3 171.3,196.9 172.4,200.3 175.3,210.3 178.6,216.4 180.3,221.2 180.3,221.2 180.4,221.4 181.4,224.2 183.6,235.5 
		185.2,242.8 186.5,246.7 191.9,245 200.2,240.7 205,237.5 208,237.8 216.5,232.5 221.9,228.7 223.1,230 226.6,236.5 228.2,239.9 
		229.6,246.7 233.3,258.3 235.4,263 247.7,259.5 263.7,254.9 280.6,249.4 289.4,245.2 288.9,243.2 286.6,238.6 282,231.5 
		281.8,226.8 276,219.9 276.1,216.1 273.3,214.7 273.8,210.5 269.9,209.4 268.9,204.3 265.6,201.9 265.6,200 263.9,199.4 
		262.4,194.6 263.3,193 257.3,185.3 257.3,185.2 258.4,174.9 256.3,172.5 256.3,172.4 256.7,167.2 253.3,165.8 249.9,161.7 
		251.5,157.8 250.2,152.8 250.2,152.8 252.8,146.7 250.4,141.8 249.5,130.2 243.9,124.8 245.1,120.6 244.3,115.9 244.2,115.7 
		235.7,119.8 	"/>
	<text transform="matrix(1 0 0 1 200.9679 199.3514)" class="st1 st2 st3">Ruma</text>
	<polygon class="st6" points="109.2,362.2 111.7,360.6 113.5,362 116.5,360.8 115.4,359.1 119.8,357.7 122.9,358.5 123,355.3 
		125.2,354.3 128.3,357.7 130.9,357.6 132.6,355.3 135.3,355.6 135.5,362.5 138,362.6 143.6,360.3 150.3,354 149.7,353.6 150,353.2 
		150.1,353.2 148.4,350.3 147.1,343.4 143.8,335.4 147.6,331.1 153.7,326.3 157.8,319.1 163.8,304.6 168,300.1 175.5,296.8 
		178.1,293.5 179.6,289.8 188.2,280.1 197.2,274 200.8,272.1 201.6,271.3 199.4,268.1 194.9,261.5 189.4,255.3 186.9,249.9 
		186.1,247.4 185.9,247.4 185.8,247 186,246.9 184.7,243 183.1,235.6 180.9,224.3 180,221.8 168.2,223.7 155.5,221.4 150.1,215.2 
		147.1,208.8 142.2,206.2 139.7,206.6 137,208.7 133.7,208.6 132.2,207.3 132,208.2 133.5,209.3 133.4,211 130.3,212.1 128.7,214.5 
		125.9,215.1 124.4,218.5 126.4,219.6 125.1,221.3 122.9,220.2 121.1,221.9 121.6,223.5 117.4,224.6 116,222 112.2,222.6 
		111.2,223.9 113.1,225.4 112.6,228.1 114.1,228.1 114.2,231.1 116.4,235 118.3,235.1 118.4,237.2 115.4,239.2 111.5,237.8 
		109.3,239.2 106.7,238.7 104.8,240.4 98.9,241.6 94.5,238.9 94.6,236.4 93.1,236.4 91.7,234.5 95,228.7 94.1,227.5 89.6,229.2 
		89.6,231.7 87.3,233.6 85.3,231.6 84.2,233.3 81.8,231.2 80.2,233.5 77.5,233 71.2,239.6 71.6,241.8 75,241.7 77,245.2 79,245.5 
		78.9,247.7 80.7,248 80.3,253.6 82.9,259.6 81.2,260.7 81.1,262.5 82.5,263.5 82.4,267 83.6,267.1 84.7,270 83.9,271.9 84.7,272.7 
		83.5,274.9 80.8,274.4 79.8,277.1 80.9,278.8 78.7,280.5 80.2,284.5 86.8,285.6 87.7,283.9 89.8,284.5 89.7,287.7 92.1,291.7 
		98.1,291.1 98.5,289.7 102.3,288.1 102.4,290.9 105.3,293.3 106.1,296.9 109.9,297.3 111.3,295.5 114.8,298 115.4,295.4 
		117.3,295.6 118.5,294.5 118,291 121,289.6 122.9,290.9 122.5,295.3 124.3,296.9 124.9,296.4 123.9,291.8 124.3,289.9 123,288.7 
		123,286 121.1,283.2 120.2,276.2 117.3,273.7 116,270.6 117.1,266.5 122,266 121.8,268 123.1,268.7 122.5,272.8 123.5,273.7 
		123.7,277.1 124.7,277.5 125.6,275.7 127.9,275.6 129.4,277.9 132,279 130.7,284.2 134.6,290.5 132.6,293.3 128.6,292.4 
		126.7,293.6 126.1,297.9 124.3,298.7 120.9,296 120.8,292 119.6,292.4 120.6,295.1 118.4,296.9 116.8,297.1 116.5,298.8 
		114.2,300.3 113.6,304.5 111,309.9 110.8,311.7 112.4,311.6 113.4,313.1 111.7,315.6 106.3,315.4 105.1,317.5 103.3,316.6 
		103.5,315.2 99.1,314.9 94.5,313.5 94.1,315.1 98.7,316.5 96.4,318.3 93,317 91.9,318.1 93.9,320.7 95.7,321.1 95.7,324.9 
		91.1,323.5 90.5,324.2 94.4,328.8 93.4,330.4 90.9,329 88.8,331.2 90.6,333.4 84.9,337.6 85.2,338.9 89.2,338.6 90.8,342.6 
		88.8,344.2 89.4,344.9 91.6,343.3 94.2,346.4 91.7,347.4 92.2,348.7 89.1,350.2 89.7,351.3 94.8,351.1 94.4,353.2 92.9,355 
		92.8,355 87.9,356.8 88.4,358.2 91.1,357.2 94.2,361 97.2,360.6 99.7,363.6 100.8,364.6 102.4,364.5 105.5,361.1 	"/>
	<text transform="matrix(1 0 0 1 130.4679 256.3514)" class="st1 st2 st3">Lama</text>
	<polygon class="st7" points="263.9,255.4 247.8,260 235.1,263.6 232.8,258.5 229.1,246.8 227.7,240 226.2,236.7 222.7,230.2 
		221.8,229.3 216.7,232.9 208.1,238.3 205.1,238 200.5,241.2 192.1,245.4 186.6,247.2 187.4,249.7 189.8,255.1 195.3,261.2 
		199.8,267.8 201.9,270.9 202.2,270.7 202.5,271.1 202.2,271.4 202.8,272.2 210.3,285.4 219.3,310.4 225.3,318.4 225.3,318.4 
		226.6,334.2 231.5,338.5 240.2,343.6 243.4,352.1 248,364.5 248,364.6 247.3,374.2 250.1,382.1 256,385.9 262.8,392.4 263.3,396.6 
		263.3,396.7 260.1,403.7 262.1,412.6 262.1,412.6 261.6,419.4 263.9,422.2 269.1,439.4 272.6,444.1 275.4,452.4 276.3,458.4 
		278.7,461.3 277.6,463.7 280,469.2 280,469.3 279.5,472.3 281,475 285.9,492.3 291.8,509.8 294.3,524.7 301.8,523.5 304.5,522.4 
		304.1,518.9 306.2,517.5 307.3,514 314.6,510.9 316,508.7 318.3,510 325.4,507 327.5,506.1 328.1,503.7 325.7,498.2 321.2,492.6 
		318,481.6 314.1,466.4 314.1,466.4 314.9,461.7 309.8,447.6 310.1,443.4 306.6,437.8 306.3,433.4 303.9,424.8 303.9,424.8 
		304.2,416.9 300.9,407.2 300.9,400.7 299,383.2 296,378.7 296,378.7 295.6,372.5 296.4,358.9 294.9,353.9 292.5,345.8 293.3,342.1 
		293.9,337 294,330.8 291.6,327.1 292,320.3 294,315.9 293.1,308.4 294.6,305.4 293.1,303.5 294.8,298 295.3,292.1 295,287.5 
		293.3,282.3 294.5,279.3 294.1,275.7 299.3,273.3 299.3,270.6 296.9,270.2 295.3,263.9 295.6,259.5 290,253.5 289.8,246.9 
		289.5,245.7 280.8,249.9 	"/>
	<text transform="matrix(1 0 0 1 230.3325 293.6308)" class="st1 st2 st3">Thanchi</text>
	<polygon class="st8" points="275.8,458.6 274.9,452.5 272.2,444.3 268.7,439.6 263.4,422.4 261.1,419.6 261.6,412.6 259.6,403.6 
		259.6,403.5 262.8,396.6 262.3,392.6 255.7,386.2 249.7,382.4 249.6,382.3 246.7,374.3 246.8,374.2 247.5,364.6 239.8,343.9 
		231.2,338.9 226.1,334.5 224.8,318.5 218.8,310.6 209.8,285.6 202.4,272.4 201.9,271.7 201.1,272.5 197.4,274.4 188.5,280.5 
		180,290.1 178.5,293.8 175.8,297.2 168.2,300.5 164.2,304.9 158.3,319.3 154.1,326.6 148,331.4 144.4,335.5 147.5,343.3 
		148.8,350.1 151.1,353.9 151,353.9 152.1,354.7 152.1,354.7 155.4,363.5 158.8,366.4 165.6,366.8 165.6,366.9 170.8,371.2 
		175.7,371.1 179.2,375.7 184.7,380.4 191.9,395.3 196,402.6 196,405.4 201.4,411.9 200.6,417.1 204.3,419.5 204.8,423.4 205,423.3 
		217.4,439.7 219.5,439.6 223.1,444.5 226.3,455.1 223.5,460.9 225.3,470.1 228.9,469.9 229.3,473.5 232.8,473.6 236.3,471.4 
		241.7,474.3 243.6,478.2 249.1,476.4 253.3,479.4 257.6,474.6 256.5,467.9 257.6,466.6 265.2,469.7 268.9,466.4 277.1,463.4 
		278.1,461.4 	"/>
	<text transform="matrix(1 0 0 1 159.6296 342.6307)" class="st1 st2 st3">Alikadam</text>
	<path class="st9" d="M200,417.3l0.9-5.3l-5.4-6.5v-2.8l-4.1-7.2l-7.1-14.9l-5.5-4.6l-3.4-4.4l-4.8,0.1l-0.1-0.1l-5.2-4.3l-6.8-0.4
		l-3.6-3.2l-3.3-8.7l-1-0.7l-6.9,6.5l-5.7,2.4l-3.1-0.2l-0.1-6.9l-2-0.2l-1.7,2.2l-3.1,0.1l-3-3.3l-1.5,0.7l-0.1,3.6l-3.5-1
		l-3.7,1.2l1.1,1.7l-3.8,1.6l-1.7-1.4l-2.4,1.6l-3.6-1.1l-3,3.3l0.2,1.2l3.2,0.4l2.1,5.1l-1.3,1.4l0.1,1.2l1.5,0.4l-0.1,1.7l1.8,0.5
		l3.8-2.6l1.4-3.8l4.8,3v4l-2.6,1.2l0.3,1.2l2.3-0.5l-0.2,1.9l1.7,1.1l-0.3,1.9l3.8,3.3l-2.2,5.6l-3.4,3.5l-2.8,1.2l-0.5,3.7
		l-2.3-0.5l-0.7,0.4l0.6,3.4l4.8,6.1l-0.4,3.8l2.6,1.3l2.7-3l0.3,4.8l1.3-0.2l-0.5-3.1l6.4-2.3l1,1.4l-0.8,2l1.6,2.5l4.8-2.3
		l1.3,1.4l-0.8,2.1l4.3,3.7l-2.5,1.5l0.1,1.9l2.4,0.7l1.9-1.6l3.1,2.9l-0.3,3.9l0.9,1l-0.4,4l-2.1,3.4l-1.7-0.1l-0.6,1.3l2.6,0.8
		l-1.3,3.3l1.1,2.4l3-0.1l0.5,1.7l-2.2,3.7l0.3,1.5l4.3,2.3l-1.4,1.8l0.5,1.5l-1.6,1l-2-0.1l-7.6-1.5l-1.2,4.2l-3.3-1.6l-2.1,2.2
		l-2.2-3l0.1-4l-2.4-3.6l-2.3-5.5l-1.8,1l-2-3.5l-4.9,1l-1.1-0.9l-2.8,3.2l-0.3,3.9l1,1.5l-4.1,2.3v3.1l-2.6,0.3l-1.1-2.4l-3.7,0.8
		l6.2,21.8l3.3,5.4l-0.3,3c2.6,5.3,6.5,13.1,6.7,13.5c0.1,0.1,1.2,0.5,2.2,0.7l0.2,0.1l-0.4,3.2l2.6,2.8l1.9,6.4l4.1-1.4l1.3,2.8
		l-4.2,5.2l-2,9.1l-5.5,7.5l2.8,3.2l-1,4.1l2.2,1.4l-0.2,6.6l2.7-0.7l-0.4-3.6l1.3,1.1l4-5.1l1.9,0.7l2.3-3.4l0.7-4l1.6-3.3h2.1
		l1.6-4l-3.9-7.2l3.9-2.4l0.4-2.5l-2.1-2.2l1.7-3.7l-4.3-3.8l-4.9-11l-0.6-9l6.9-4.8l0.6-2.8l6.1-0.6l0.7-2.2l5.6-1.6h0.1l3.1,0.5
		l1.8-3.2l-3-3.8l2.2-2.2l-1.5-5.6l6.2-3.9l-2-2.8l1.7-5.1l0.1-5.2l9.3-1.2l3.2,5.3l1.4-2.8l4.5,3.3l1.4-2l3.3,1.8l2.7-2.1l-2.9-4
		l5-2.4l-0.9-3.4l2.3-3.3l1.2-6.9l3.6,1.7l5.7-6.8l2.6,0.6l3-1.3l-0.5-3.9L200,417.3z"/>
	<text transform="matrix(1 0 0 1 84.3013 411.9691)" class="st1 st2 st3">Naikhongchhari</text>
</g>
</svg>
