<?xml version="1.0" encoding="utf-8"?>
<!-- Generator: Adobe Illustrator 25.2.1, SVG Export Plug-In . SVG Version: 6.00 Build 0)  -->
<svg version="1.1" id="Layer_1" xmlns="http://www.w3.org/2000/svg" xmlns:xlink="http://www.w3.org/1999/xlink" x="0px" y="0px"
	 viewBox="0 0 334.7 593.3" style="enable-background:new 0 0 334.7 593.3;" xml:space="preserve">
<style type="text/css">
	.st0{fill:#C5CFED;stroke:#FFFFFF;stroke-width:0.5;}
	.st1{fill:#232323;}
	.st2{font-family:'TimesNewRomanPSMT';}
	.st3{font-size:16px;}
	.st4{fill:#FFFFFF;}
	.st5{font-size:26.2374px;}
	.st6{fill:#8BAFE8;stroke:#FFFFFF;stroke-width:0.5;stroke-miterlimit:10;}
	.st7{fill:#A8E82D;stroke:#FFFFFF;stroke-width:0.5;stroke-miterlimit:10;}
	.st8{fill:#9BB6EA;stroke:#FFFFFF;stroke-width:0.5;stroke-miterlimit:10;}
	.st9{fill:#ABBEED;stroke:#FFFFFF;stroke-width:0.5;stroke-miterlimit:10;}
	.st10{fill:#6899E0;stroke:#FFFFFF;stroke-width:0.5;stroke-miterlimit:10;}
	.st11{fill:#64FF67;stroke:#FFFFFF;stroke-width:0.5;stroke-miterlimit:10;}
	.st12{fill:#7CA7E5;stroke:#FFFFFF;stroke-width:0.5;stroke-miterlimit:10;}
</style>
<g id="noakhali-1">
	<path class="st0" d="M69,91.4L69,91.4l4-6.1l-0.8-9.1L69.3,73l0,0l-0.1-3.8l0,0l3-0.5l-1.9-4l-0.6-9.8l0,0L75,42.7l9.3-9.8l6.6-5.2
		l-1.7-6.2l-4.6,0.7l0.1,2.7l-3.4,0.5l-3.9-5.8l-5.8,3.2l-1.1-4.4L64,18.9v-0.1l-0.6-7.7l-13.6,1.5L49.2,22l0,0l-6.6,6.7l3.8,6.1
		l0,0c-0.1,0.1-3.4,2.9-3.7,3.1l0,0c-0.5,0-3.9-2.3-5.5-3.3l-0.4,5.3l0,0L27.5,40l5.8,5.7l-3.5,2.4l0,0l-4.6-5l-2.9,0.1l-0.2,5.2
		l10.4,11.7h-0.1l-6.1-0.8L26,63.8h-0.1l-4.1-2.7l-4.1,6.6l3.8,6.9l12.9-1.1v0.1l-1,3.9l3.8,0.2v0.1L36.9,81l4.1,6.9l4.6-6.2l0,0
		l9.2,10.6l5.5-3.9l0,0l5.4,7.3l0.1-3.8l0,0L69,91.4L69,91.4L69,91.4z"/>
	<polygon class="st0" points="83.7,95.2 90.5,94.1 93.6,83.4 93.7,83.5 108,88.4 117.3,88 117.2,91.2 132,90 132,90.1 133.9,93.2 
		144.8,93.6 145.1,87.8 145.2,87.8 159.7,87.7 161.7,84.8 160.6,83.9 160.7,83.8 161.7,84.7 163.2,82.5 156.6,77 156.6,77 
		155.1,66.9 141.8,61.9 134,61.8 134,61.8 129.9,49.9 130,49.9 137.4,46.7 136.7,41 109.2,42.3 109.2,42.3 92.6,34.7 92.6,34.6 
		90.8,27.8 84.3,33 75,42.8 69.9,54.9 70.5,64.7 72.4,68.8 69.3,69.3 69.4,73 72.3,76.1 72.3,76.1 73.1,85.3 73.1,85.3 69.2,91.4 
		69.9,91.3 69.9,91.5 75.9,92.6 	"/>
	<text transform="matrix(1 0 0 1 17.5658 65.5588)" class="st1 st2 st3">Chatkhil</text>
	<text transform="matrix(1 0 0 1 86.9825 80.8087)" class="st1 st2 st3">Sonaimuri</text>
	<g>
		<ellipse class="st4" cx="89.4" cy="51.2" rx="14.4" ry="14.3"/>
		<text transform="matrix(1.014 0 0 1 82.9941 59.0376)" class="st2 st5">1</text>
	</g>
</g>
<g id="noakhali-4">
	<polygon class="st6" points="202.7,367.9 206,372.1 209.1,369.1 206.4,364.5 	"/>
	<g>
		<polygon class="st6" points="136.1,359.1 136,359.1 131.5,357 128.3,359.3 130.8,362.3 141.7,363.7 152.1,354.5 152.3,350.8 
			145.9,355 		"/>
		<g>
			<polygon class="st6" points="76,210.2 80.9,214.7 102.6,221.1 104.5,226.1 113,219.8 113,219.8 137.1,224.1 137.1,224.2 
				142.3,241.4 149.5,246.5 155.5,233.1 154.7,232.2 154.8,232.2 155.5,233 165.3,210.6 163.5,210.5 163.5,210.5 165.3,210.5 
				165.9,209.2 156.1,205 148.7,196.5 137.3,189.3 137.3,189.3 136.9,183.4 137,183.3 139.4,180.1 140.5,167.7 140.5,167.7 
				147.3,160.1 142.6,154.8 142.6,154.8 144.8,152.2 144.8,152.2 152.4,154.9 150.2,141.6 126.5,142.1 126.5,142.1 122,137.4 
				113.3,140.2 113.3,140.2 109.5,137.1 105.6,145.2 102.4,142.7 90.8,142.6 88.3,146.1 88.3,146.1 82.1,143 77.3,146 77.2,146 
				72.4,144.1 64.2,141.2 65.1,145.4 59.7,145.4 58.5,150.3 44.2,151.7 42.4,155.2 47.8,161.7 47.8,161.8 43.9,169.5 43.9,169.5 
				39.5,170 37.5,176.8 37.5,176.8 20.4,179.4 47.5,196.1 63.4,208.6 63.4,208.6 63.4,210.5 			"/>
			<g>
				<polygon class="st6" points="200.1,297.4 212.1,277.6 208.4,273.8 208.5,273.7 209.2,265.5 201.5,263.8 187,260.5 172.5,253.2 
					161.8,240.4 155.5,233.2 149.6,246.7 149.5,246.7 142.2,241.5 142.2,241.5 137,224.2 113,219.9 104.4,226.2 104.4,226.2 
					102.5,221.2 80.9,214.8 76,210.3 63.4,210.6 63.1,228.2 76.9,232.6 76.9,232.6 82.7,246.8 82.7,246.8 73,254.4 67.3,267.6 
					78.5,284 81,299 114.5,297.5 139.8,298.5 150.9,294.8 150.9,294.8 152,328.5 151.9,328.5 150.8,294.9 139.8,298.6 139.8,298.6 
					114.5,297.6 81,299.1 81.9,304.9 82.1,306.2 90.3,310.7 102.5,324 110.6,343 116.3,327.7 116.3,327.7 116.7,327.4 116.8,326.9 
					116.9,326.9 116.8,327.3 128.2,319.2 135.5,317 138.6,310 138.7,310.1 135.6,317.1 135.6,317.1 128.3,319.3 116.8,327.5 
					112.1,350 119.8,360.3 135,368.9 141.6,370.2 151.6,361.4 152.1,354.7 141.7,363.8 141.7,363.8 130.8,362.4 130.8,362.3 
					128.2,359.2 128.2,359.2 131.5,356.9 131.5,356.9 136.1,359 145.9,355 152.4,350.6 152.4,350.5 152.4,350.5 170.4,335.6 
					165.1,328.4 152,330.4 151,339.1 151,339.1 143.2,342.7 135.6,347.4 135.5,347.4 127.8,345.4 127.8,345.3 133.2,341 133.2,341 
					142,340.2 147.3,336.8 147.3,329.4 146.9,318.6 147,318.6 147.4,329.4 147.4,336.9 147.3,336.9 142.1,340.3 133.2,341.1 
					128,345.4 135.6,347.3 143.2,342.6 150.9,339 151.9,330.3 151.7,328.6 151.7,328.6 162.4,325.5 162.4,325.5 175.6,327.4 
					176.5,323.6 176.6,323.6 184.6,326.4 190.6,312.4 190.6,312.4 192.6,312.6 193.3,310.7 				"/>
				<polygon class="st6" points="212,300.1 206.4,307.1 203.5,313.9 205,314.1 205,314.2 201.2,328.7 208.5,338.6 213.6,347.3 
					219.6,345.9 227.2,339.7 225.3,337.1 225.3,337.1 226.7,334.9 226.7,335 230,338.5 235.1,334.6 233.2,329.4 233.3,329.5 
					237.4,330.3 236.2,311.3 223.1,284.3 219.9,290.5 				"/>
				<polygon class="st6" points="212.2,277.6 212.2,277.6 200.2,297.4 193.4,310.8 192.7,312.6 203.4,313.9 206.3,307.1 
					211.9,300.1 219.8,290.5 223,284.2 222.9,283.9 209.6,270.2 209.6,270.2 209.3,265.9 208.6,273.7 				"/>
				<polygon class="st6" points="196.7,372.2 190.9,377.6 196.9,387.2 202.9,383 201.8,377.4 				"/>
				<path class="st7" d="M206.4,364.4l-3.8,3.5l0,0l3.4,4.3l3.2-3.1l0,0L206.4,364.4L206.4,364.4z M206,372.1l-3.3-4.2l3.6-3.4
					l2.8,4.5L206,372.1z"/>
				<text transform="matrix(1 0 0 1 29.5658 175.5588)" class="st1 st2 st3">Noakhali Sadar</text>
				<text transform="matrix(1 0 0 1 100.2324 281.1421)" class="st1 st2 st3">Subarnachar</text>
			</g>
		</g>
	</g>
	<g>
		<ellipse class="st4" cx="112.2" cy="196.4" rx="14.4" ry="14.3"/>
		<text transform="matrix(1.014 0 0 1 105.7441 204.2046)" class="st2 st5">4</text>
	</g>
</g>
<g id="noakhali-3">
	<polygon class="st8" points="77.2,145.9 82.1,142.9 82.1,142.9 88.3,146 90.8,142.4 90.8,142.5 102.5,142.6 102.5,142.6 105.5,145 
		109.5,137 109.5,137 113.3,140.1 122,137.3 122,137.3 126.5,142 150.1,141.5 149.8,139.2 149.9,139.2 150.2,141.5 150.7,141.5 
		153.7,138.8 153.7,138.8 157.5,140 157.2,138.7 157.3,138.7 157.6,140 158.6,140.3 167.6,134.4 170.2,127.8 170.2,127.8 
		174.2,126.5 172.6,118.4 172.6,118.3 176,114.1 166.8,109.2 166.8,109.2 166.7,104.2 161.6,103.9 161.8,98.7 166.4,97.9 162,93.7 
		166.6,88.5 161.8,84.8 159.8,87.8 159.8,87.8 145.2,87.9 144.9,93.7 144.8,93.7 133.9,93.3 133.9,93.3 132,90.1 117.1,91.3 
		117.2,88.1 108,88.5 108,88.5 93.7,83.6 90.5,94.2 90.5,94.2 83.7,95.3 83.7,95.3 75.9,92.7 69.9,91.6 70.2,98.5 73.2,105.5 
		73.2,105.5 67,112.1 66.7,118.9 66.7,118.9 62.8,124 67.6,131.6 67.5,131.7 63.2,135.9 64.2,141.1 72.5,144 	"/>
	<text transform="matrix(1 0 0 1 54.3991 123.0588)" class="st1 st2 st3">Begumganj</text>
	<g>
		<ellipse class="st4" cx="146.1" cy="119.7" rx="14.4" ry="14.3"/>
		<text transform="matrix(1.014 0 0 1 139.7441 127.5376)" class="st2 st5">3</text>
	</g>
</g>
<g id="noakhali-2">
	<polygon class="st9" points="137.4,46.8 130.1,49.9 134.1,61.7 141.9,61.8 155.2,66.8 155.2,66.8 156.7,77 163.3,82.5 163.3,82.5 
		161.8,84.7 166.8,88.5 166.7,88.5 162.1,93.7 166.6,98 161.9,98.8 161.7,103.8 166.8,104.1 166.8,104.2 166.9,109.2 176.1,114.1 
		176.1,114.2 172.7,118.4 174.3,126.5 170.3,127.9 167.7,134.5 167.7,134.5 158.6,140.4 158.5,140.4 157.7,140.1 158.5,144.2 
		167.8,144.9 172,140.3 172.1,140.3 181.6,137.9 185,142.9 185.1,140.3 185.2,140.3 185.1,142.9 190.3,139.2 195.7,136.1 
		195.4,135.6 191.6,136.5 191.6,136.4 190.9,130 191,130 197.3,126.7 197.9,102 193.6,100.4 193.6,100.4 196,92.5 195.6,74.5 
		195.7,74.5 198.4,72.4 198.3,61.5 195.7,60.8 195.7,51 185.8,49.7 185.8,49.7 185,45.9 178.4,46.5 178.5,49.9 178.4,49.9 
		175.5,49.9 175.5,49.9 175.3,45.6 170.6,45.1 166.5,48.5 166.4,48.5 160.3,49 160.3,49 148.6,36.9 139.8,37.7 138,40.9 138,40.9 
		136.8,41 137.5,46.8 	"/>
	<text transform="matrix(1 0 0 1 158.6491 69.9755)" class="st1 st2 st3">Senbug</text>
	<g>
		<ellipse class="st4" cx="177.1" cy="96.5" rx="14.4" ry="14.3"/>
		<text transform="matrix(1.014 0 0 1 170.7441 104.2876)" class="st2 st5">2</text>
	</g>
</g>
<g id="noakhali-6">
	<polygon class="st10" points="64.7,337.6 64.5,332.5 62.1,329.2 41.6,342.1 51.1,342.7 	"/>
	<g>
		<path class="st10" d="M94.1,403.1l1.3,2.4h-0.1l-3.6,0.6l-9.1,11.1l7.5,8.3l7.8-2.5c1-1.6,2.6-4.1,2.6-4.3c0-0.2-2.4-3.9-4-6.3
			l0,0l0,0l1.3-0.7l0,0l1.9,1.5l1.9-1.8l-3.3-12.1L94.1,403.1z"/>
		<path class="st10" d="M89.3,495.7c-2.6,1.6-5.9,3.7-7.9,5.1l1,7.1l-1.3,1.7c2.4-0.6,5-1.3,5.2-1.6
			C86.3,507.4,88.9,497.3,89.3,495.7z"/>
		<polygon class="st10" points="98.9,575.4 102.2,572.3 101.4,582.3 102.9,584.3 112.2,574 115.6,573 115.6,566.6 106.1,566.9 
			97.1,572.1 		"/>
		<polygon class="st10" points="62.6,360.2 62.5,356.7 54.4,355.5 48.5,357.5 57.6,376.4 58.5,367 		"/>
		<polygon class="st10" points="88.3,455.8 88.3,455.7 92.3,433.3 82.5,427.4 84.9,437.4 84.9,437.4 80.2,458.8 81.7,470.4 
			81.6,472.3 89.5,458.2 		"/>
		<polygon class="st10" points="64.2,380.9 60.3,381.5 67.3,393.3 67.6,386.6 		"/>
		<path class="st10" d="M141.6,370.3L135,369l-15.3-8.6l-7.8-10.4l0,0l4.7-22.4l-0.3,0.2l-5.8,15.5v-0.1l-8.1-19.1l-12.1-13.4
			l-8.2-4.4l1.3,9.9l0,0l-7.9,4.5l-13.3,8.4l2.4,3.3l0,0l0.3,5.2l0,0l-13.6,5.1l0,0l-9.6-0.6l-0.3,0.2l7.3,15l6-2l0,0l8.2,1.2
			l0.1,3.7l0,0l-4.1,6.8l-0.9,9.5l1.6,3.3l0.9,1.6l4.1-0.6l0,0l3.4,5.8l0,0l-0.3,6.8l7.2,12.2L72.3,391l-5.1-16.8l0,0l0.4-12.8l0,0
			l6.8-2.1l15.2,4.9l0,0l7.8,9.3l0,0L95,386l0,0l-4.1,3.2l0.6,11.2l0,0L83,411.2l-3.8,2.4l3.3,13.6l9.9,6l0,0l-4,22.5l1.3,2.4l0,0
			l-8.1,14.3l-1.2,20.8l1.1,7.3c2.6-1.7,7.3-4.7,8-5.1l0.1-0.1v0.1c-1.2,4.8-3.1,12-3,12.3c0,0,0,0,0,0.1c-0.1,0.3-3.3,1.1-5.4,1.6
			l-0.6,0.8l-0.4,23.2l9.5-6.9l11.6-25.5l6.2-24.8l0.2-27.8l-0.6-25.1l-4-3.8l7.9-11l-2.9-20.8h0.1l30,12.4l0,0l4.5,7l16.8-6.9
			l-8.8-24l0,0l1.1-14.8L141.6,370.3L141.6,370.3z M101.7,411.2l-2,1.9l0,0l-1.9-1.5l-1.2,0.6c0.7,1.1,4,6.1,4,6.4s-2.2,3.7-2.6,4.3
			l0,0l0,0l-7.8,2.6l0,0l-7.6-8.3l0,0l9.1-11.1l0,0l3.6-0.6l-1.3-2.3l0,0l4.4-4.1v0.1L101.7,411.2L101.7,411.2z"/>
		<path class="st10" d="M142.3,407.3l-4.5-7L107.9,388l2.9,20.7l0,0l-7.8,11l4,3.7l0,0l0.6,25.1l-0.2,27.8l-6.2,24.8l-11.6,25.5l0,0
			l-9.6,7v0.7c-1,1.8-4.2,7.7-4.7,8.1c0.5,0.5,8.4,6.4,11.5,8.7l13.1,3.8l3.8,3.4l9.3-6.2l19.1-20.6l0,0l9.9,0.7l-1.7-7.3l0,0
			l15.5-12.2l0.9-13.1l8.9-22.9l-0.2-24.3l-0.1-19.7l-1.9-20.8l-4.2-11.4L142.3,407.3L142.3,407.3z"/>
		<polygon class="st10" points="86,555.7 86,555.7 75.1,547.2 62.2,560.3 61.3,570.4 64.3,583.5 70.6,588.7 85.2,576.8 85.2,576.8 
			87.1,578 87,578 83.9,581.7 86.7,583.6 93.9,576.4 94,571.9 98.8,562.6 95.4,556.2 		"/>
		<polygon class="st10" points="91.4,400.4 90.8,389.2 90.8,389.2 95,386 97.2,373.5 89.5,364.3 74.4,359.4 67.7,361.5 67.3,374.2 
			72.4,391 74.7,405.9 79,413.1 79.2,413.5 82.9,411.1 		"/>
		<polygon class="st11" points="62.1,329.2 62,329.2 41.5,342.1 41.6,342.1 		"/>
		<path class="st11" d="M106.1,566.8l-9.2,5.3v0.1H97l1.8,3.4v0.1l3.2-3l-0.7,9.7l0,0l1.5,2.1v0.1l9.4-10.4l3.4-1l0,0v-6.6
			L106.1,566.8L106.1,566.8z M115.6,566.6v6.5l-3.4,1l-9.3,10.3l-1.5-2.1l0.8-9.9l-3.3,3l-1.8-3.3l9-5.2L115.6,566.6z"/>
		<text transform="matrix(1 0 0 1 111.2324 443.6421)" class="st1 st2 st3">Hatia</text>
	</g>
	<g>
		<ellipse class="st4" cx="133.2" cy="467.5" rx="14.4" ry="14.3"/>
		<text transform="matrix(1.014 0 0 1 126.8276 475.2881)" class="st2 st5">6</text>
	</g>
</g>
<g id="noakhali-5">
	<polygon class="st12" points="197.5,217.5 192.3,208.2 187.4,206.6 187.5,206.5 197.8,197.9 189.6,190.9 189.6,190.9 188.7,174.2 
		191.1,161.1 184.7,152.8 184.7,152.8 185,143.1 181.6,138.1 172.1,140.4 167.8,145.1 167.8,145 158.5,144.3 158.5,144.2 
		157.5,140.1 153.7,138.9 150.7,141.5 150.7,141.5 150.3,141.6 152.6,155.1 152.5,155 144.8,152.3 142.8,154.8 147.4,160.1 
		147.4,160.2 140.6,167.8 139.5,180.1 139.5,180.2 137.1,183.4 137.4,189.2 148.7,196.5 156.2,204.9 166.1,209.1 166,209.1 
		165.4,210.5 174.4,211 	"/>
	<polygon class="st12" points="185.1,143.1 184.8,152.8 191.2,161.1 191.2,161.1 188.8,174.2 189.7,190.9 198,197.9 197.9,197.9 
		187.6,206.5 192.4,208.1 192.4,208.1 197.7,217.7 197.6,217.6 174.4,211.1 165.4,210.6 155.6,233.1 161.9,240.3 172.5,253.1 
		187,260.4 201.5,263.7 209.2,265.3 198.7,243.1 192,245.7 192,245.7 191.8,241.3 188.9,236 180.1,232 173.7,233.6 173.7,233.5 
		168,220.1 173.1,222.7 173.1,222.7 174.2,229 181.6,229.6 183.5,225.8 183.5,225.9 197,237.6 198,235.6 198,235.6 202.5,233.9 
		205.5,227.9 206.5,222.1 206.5,222.1 215.6,211.5 215.6,211.5 230.2,207.8 230.2,207.8 246.8,208.6 257.6,206.9 258.8,201.4 
		249.7,200 239.5,193.2 230.4,188.9 230.5,188.8 231.2,185.8 228.6,183 222.3,177.8 222.3,177.8 221.7,173.8 221.7,173.8 
		226.3,171.8 226.3,171.8 232.8,174.6 234.4,172.5 229.1,170 228.5,164 221,163.5 221,160.1 221.1,160.1 227.5,159.5 231.2,156.8 
		231.2,156.9 231.8,161.6 235.1,161.6 235.6,152.8 235.7,152.8 240.7,157.3 242.7,156.1 240.1,153.3 240.1,153.3 242.2,149.1 
		233.5,149.5 233.6,149.4 236.2,143.3 234.2,144 234.2,144 230.7,141.3 230.7,141.2 232.9,138.7 232.9,138.8 237.9,141.5 
		237.8,133.4 241.8,135.1 242.5,132 235.5,125.5 231.7,126.4 223.1,132.1 222.3,128.1 219.3,128.4 217.4,134.5 217.4,134.5 
		211.7,134.8 211.7,134.8 209.8,133 204.8,131.7 204.7,136 201.9,136.5 198.6,141.9 198.5,141.8 195.7,136.2 190.4,139.3 	"/>
	<polygon class="st12" points="215.3,224.7 209.1,232.1 213.6,246.6 218.7,255.6 226.4,261.3 230.9,258.7 238.7,241.2 241,226.7 
		236.6,219.6 232.7,218.2 	"/>
	<polygon class="st12" points="239.5,193.1 249.8,199.9 258.9,201.3 258.9,201.3 257.7,207 257.7,207 246.8,208.7 230.2,207.9 
		215.6,211.5 206.5,222.1 205.5,227.9 202.6,234 202.6,234 198,235.7 197,237.7 183.5,226 181.6,229.7 181.6,229.7 174.1,229.1 
		174.1,229.1 173,222.8 168.2,220.3 173.8,233.4 180.1,231.9 180.1,231.9 189,236 189,236 191.9,241.3 192,245.6 198.8,242.9 
		198.8,243 209.2,265.2 209.2,265.2 209.2,265.2 221.9,263.8 226.3,261.3 218.6,255.6 213.5,246.6 208.9,232.1 209,232 215.3,224.6 
		232.7,218.1 232.7,218.1 236.5,219.5 236.2,219 236.3,219 243.6,219.7 243.6,219.7 259,231.3 268.2,232 289.4,237.8 289.5,237.8 
		305.8,256.3 323.7,272.2 323.5,268 312.2,257.5 302.9,236.5 293.5,221 292,215.5 288.6,213.5 270.3,200.8 261.9,199.7 254.1,192.9 
		254.1,192.8 253.5,186.9 249.6,182.3 244.6,184.8 238.5,188.8 238.5,188.8 233.8,188.5 233.8,188.5 231.3,185.9 230.6,188.8 	"/>
	<text transform="matrix(1 0 0 1 136.3991 176.1421)" class="st1 st2 st3">Kabirhat</text>
	<text transform="matrix(1 0 0 1 200.2324 209.3087)" class="st1 st2 st3">Companiganj</text>
	<g>
		<ellipse class="st4" cx="208.8" cy="173.1" rx="14.4" ry="14.3"/>
		<text transform="matrix(1.014 0 0 1 202.4111 180.8711)" class="st2 st5">5</text>
	</g>
</g>
</svg>
