<?xml version="1.0" encoding="utf-8"?>
<!-- Generator: Adobe Illustrator 25.2.1, SVG Export Plug-In . SVG Version: 6.00 Build 0)  -->
<svg version="1.1" id="Layer_1" xmlns="http://www.w3.org/2000/svg" xmlns:xlink="http://www.w3.org/1999/xlink" x="0px" y="0px"
	 viewBox="0 0 291 356" style="enable-background:new 0 0 291 356;" xml:space="preserve">
<style type="text/css">
	.st0{fill:#ABBEED;stroke:#FFFFFF;stroke-width:0.5;stroke-miterlimit:10;}
	.st1{fill:#18BBC5;}
	.st2{font-family:'TimesNewRomanPSMT';}
	.st3{font-size:16px;}
	.st4{fill:#FFFFFF;}
	.st5{font-size:24.672px;}
	.st6{fill:#C5CFED;stroke:#FFFFFF;stroke-width:1.033;}
	.st7{fill:#7CA7E5;stroke:#FFFFFF;stroke-width:0.5;stroke-miterlimit:10;}
	.st8{fill:#8BAFE8;stroke:#FFFFFF;stroke-width:0.5;stroke-miterlimit:10;}
	.st9{fill:#6899E0;stroke:#FFFFFF;stroke-width:0.5;stroke-miterlimit:10;}
	.st10{fill:#9BB6EA;stroke:#FFFFFF;stroke-width:0.5;stroke-miterlimit:10;}
	.st11{font-family:'MyriadPro-BoldCond';}
	.st12{font-size:9.0441px;}
</style>
<g id="rangpur-2">
	<polygon class="st0" points="16.9,121.7 21.5,122.3 21.7,119 22.7,117.4 22.5,116 26.1,113.9 28.1,114.5 29.3,111.4 32.1,110.2 
		34.1,114.3 35.3,117.6 38.9,117 42.4,118.7 43.1,121.1 43.1,124.8 46.8,124.8 47.5,124 46.3,122.3 49.9,120.6 53.6,120.4 
		57.7,120.7 58.7,125.9 61.4,129.1 64.9,128.6 62.7,124.4 62,122.7 63.7,122.4 66.6,123.4 67.5,122.1 69.6,122.5 69.2,119.6 
		72.3,118.3 75.6,121.5 78,124.5 80.5,126.1 83.6,123.7 82.2,120.4 81.5,118.4 80.7,116.3 84.1,115 85.8,115.6 87.3,114.8 
		85.8,111.1 81,109.9 81.8,106.4 84.9,104.4 84.2,102.1 81.2,101.3 83.9,98 85.5,99.2 87.9,97 86.3,95.2 87.3,86.4 86.3,82.9 
		86.2,80.3 79.8,76.2 79.4,76.9 75.9,76.8 75.4,74.2 72.2,73 70.9,73.4 67.2,72.7 65.5,74.1 63.5,74.5 64,76.6 61,81.2 59.3,83.9 
		57.4,83.6 58,81.7 55.7,81.9 54.9,81 45.8,81.9 45.4,81.2 39.9,83 40.2,84.2 37,85 35.6,84.2 32.1,86.7 29.1,86.6 26.3,86.8 
		23.3,84.6 18.8,84.7 18.3,85.9 17.1,86.6 16.1,85.9 13,88.4 12.5,90.5 13.5,91.7 16.9,89.7 17.1,93.1 18.3,94.8 18.5,95.6 
		17.1,97.3 17.4,98.9 20.2,99.5 19.9,101.6 18.9,102.9 14.7,102.7 13.4,106.4 12.7,112.1 12.4,115.5 15.5,115.5 16.8,117.4 	"/>
	<polygon class="st0" points="16.9,121.5 14.9,122.4 12.3,120.6 10.6,121.1 8.9,124.8 10,125.7 8.1,128.8 4.2,128.9 3.2,130.6 
		2.8,134.7 5.2,140.4 8.3,145.3 6.9,148.2 9.6,150.3 10.7,150 12,153 15.8,152.3 15.2,150.6 18.2,149.7 19.2,152.4 18.5,154.6 
		19.5,156.1 22.9,156.1 23.7,158.5 22.5,161.1 23.9,164 27.6,164.2 27.4,162.5 28.5,162.3 32.4,162.8 34.8,164.2 33.2,166.9 
		30.8,169.9 31.7,173.7 35.5,176.5 35.6,178.6 32.4,178.8 33.5,182.2 32.5,184.2 35.3,185.7 35.3,184.2 37.5,185.3 38.5,184 
		41.4,193.2 45.5,193.2 47.1,191.4 48.5,191.7 48.8,193.5 50.6,193.4 51.4,192.4 54.3,194.8 55,201.7 56.3,203 59.3,201.3 
		63.8,200.3 69.9,201.7 71.9,202.3 72.2,205.3 79.4,210.8 81,210.8 82.7,210.1 82.9,212.8 80.4,218.3 78,220.3 78.7,224 81.5,224.4 
		81.1,227.5 83.1,228.5 86.1,224.5 88.6,218.6 91.7,218.2 94.7,212.3 100.4,209.5 102.3,206.5 101.5,202.3 102.8,202 100.9,198.7 
		100.6,195.8 98.9,187.8 102.1,184.7 102.8,181.2 99.5,181.9 95.8,179.6 98.4,169.9 99.9,166.3 100.5,163.5 102.9,161.6 
		108.6,161.6 109.9,148 106,145.6 106,139.8 104.3,138.5 103.1,139.4 100.9,136.8 102.1,132.7 98.1,132.5 97.8,130.5 86.9,128.8 
		86.6,131.9 84.8,133 83.4,132.9 82.1,134.6 80,133.9 78.8,134.9 75.9,133.6 75.1,130.8 77.4,130 78,127.8 80.4,125.9 77.8,124.4 
		75.4,121.4 72.5,118.4 69.3,119.4 69.6,122.4 67.5,122.1 66.5,123.4 63.7,122.4 62.1,122.7 64.8,128.8 61.4,129.2 58.7,125.9 
		57.6,120.7 53.8,120.4 50.1,120.6 46.4,122.1 47.5,124 46.8,124.8 43.1,124.8 43.1,121.3 42.4,118.7 38.9,117.2 35.3,117.6 
		34.1,114.2 31.9,110.4 29.3,111.4 28.1,114.3 26.3,113.9 22.5,116 22.7,117.3 21.7,119 21.3,122.3 	"/>
	<path class="st1" d="M61.8,158.8c-0.1,0-0.2,0-0.3-0.1C61.6,158.8,61.7,158.8,61.8,158.8s0.3-0.1,0.2-0.2
		C62,158.7,61.9,158.8,61.8,158.8z"/>
	<g>
		<text transform="matrix(1 0 0 1 32.3408 160.8057)" class="st2 st3">Badarganj</text>
	</g>
	<g>
		<text transform="matrix(1 0 0 1 21.7842 105.2012)" class="st2 st3">Taragonj</text>
	</g>
	<g>
		<circle class="st4" cx="35.1" cy="130.9" r="13.4"/>
		<text transform="matrix(1 0 0 1 29.0964 138.2222)" class="st2 st5">2</text>
	</g>
</g>
<g id="rangpur-3">
	<path class="st6" d="M75.1,130.6l2.3-0.6l0.6-2.1l2.5-1.8l3.1-2.5l-3-7.2l3.4-1.3l1.6,0.6l1.6-1l-1.6-3.4l-4.5-1.3l0.7-3.8l3.3-1.8
		l-1-2.3l-2.8-1l2.5-3l1.4,1.3l2.5-2.4l-1.6-1.8l1.1-8.5l3,3.3h2.5v-1.6l5.4-1.6l0.3-2.8l3.7-2.4l3.7-0.3l0.4,2.8l3-0.3l-0.1-2.3
		l3.7-0.4l4,2.4l2.7-1l0.1,2.8l7.2-0.1l2.1-1.7l0.3-1.4l-3.1-0.3l-0.6-3.8l3.1-4l5.2-0.1l2,2.4l-1.6,2.5l0.3,2l6.2,1l7.2,0.3
		l4.7-3.7l2.7,1.4l-0.1,3.3l4.2,2.1l2-0.7l-0.1-1.7l2.4,0.1l1.3-2.3l2.3-0.1L171,84l1.6-2l3.3-0.1l2.8,2.7l0.4,2.4l3.1,0.1l2.5-1.6
		l0.1,1.4l-1.3,3l0.8,0.6l-0.3,1.4l-3.4,1.1l0.4,4.5l-6.4,21.1l0.4,1.4l1.1-0.3l1.4,2l-1.6,3.4l-0.7,1.6l4.1,1.8l1.6,3.5l2.3,0.8
		l0.7,2.7l1.6,0.4h1.7l1.4,2.1l-2.3,1.7l-1.7-0.1l0.1,2.3l-1,1l-1-1l-4.1,3.5l3.3,5.5l1.4-1l2,2.3l-2.1,2.8l1.4,0.8l-0.3,2.3
		l-2.1-1.1l-0.4,1l-0.3,1.7l-2.3,1.1h-2.4l-2-3l-1.4,1.3l-2.1-0.8l1.3-1.8l-1-1.3l-1.4,0.4l-0.1-0.8v-1.1l-4.5-1.7l-1.1,2.3l-5-0.1
		c0,0-3.1,1.7-3.1,1.8s0,3.7,0,3.7l-4-0.4l-3.8,0.8L148,158l0.8-1.1l-1.3-1.7l-3.3,2l-0.6,4l-1.8-0.4l-3.3,0.8l-1.6,3l-2,1.3l-5,0.1
		l-2.5,1l-2.5-0.6l-5.1,1.1l-1.1-1l-1.3-2l-5-1.6l-0.8-2.4l-2.8-0.8L110,148l-4-2.4v-5.8l-1.6-1.3l-1.1,0.8l-2.4-2.5l1.1-4l-4-0.4
		l-0.3-2L87,128.8l-0.4,3.1l-1.7,1.1l-1.6-0.3l-1.1,1.7l-2.1-0.7l-1.3,1.1l-2.8-1.3L75.1,130.6z"/>
	<g>
		<text transform="matrix(1 0 0 1 113.5146 139.6021)" class="st2 st3">Rangpur</text>
	</g>
	<g>
		<circle class="st4" cx="138.1" cy="111.9" r="13.4"/>
		<text transform="matrix(1 0 0 1 132.0964 119.2222)" class="st2 st5">3</text>
	</g>
</g>
<g id="rangpur-5">
	<path class="st7" d="M103.1,281.6l-1.1-1l-2.5-2.1v-1.1l-2.1,0.1l-1.1-1.1l2.3-2l-0.3-1.8h-3.8l-2.1-2.4l-3-1l-0.3-1.7l2.5-1
		l2.7-0.3l2.1-0.1v-1.4h-3.1l-1.7-0.3l1.6-2.3l0.1-1.8h-1.8l-1.1,3.5l-1.4,1.3l-0.6-1l0.7-1.8l-0.6-1.7l-1.4-0.3l-1.6,0.3l-1.4-2.3
		l0.6-1.6l2-0.1l1.1-3l-3-0.8l-1.1-5.4l1.3-2.8l2.7-1.1l-2-2.1l1-0.8l1.7,1.1l0.6-1l-1.1-1.8l-3.3,0.3l-0.3-3l-0.4-3.1l0.8-1.4
		l-1.4-1.4l0.1-2l2.8-3.5l2.7-6.1l3-0.3l3-5.9l5.8-2.8l2-2.8l-0.8-4.1l1-0.6l-1.7-3.1l-2-10.9l3.1-3.3l0.7-3.4l-3.3,0.8l-3.8-2.4
		l2.7-9.8l1.6-3.5l0.6-2.8l2.4-1.7l5.5-0.3l0.6-1.7l2.4,0.6l1.3,2.5l4.8,1.6l1.1,1.7l1.1,1.1l5.2-1l2.4,0.6l2.8-1l4.7-0.1l2.3-1.3
		l1.4-3l3.1-0.8l2,0.4l0.7-4.1l3.1-1.8l1.3,1.7l-0.8,1.3l0.8,2.1l4.1-0.8l3.7,0.4V156l3.1-1.7l5,0.1l1.1-2.3l4.5,1.6v2l1.6-0.1
		l0.8,1.1l-1,1.8l1.8,0.8l1.6-1.4l2,3l2.4,0.1l2.3-1.1l0.7-2.7l2,1v1.1l0.7,1.7l-0.4,2.1l2.1,1.6l3.5,0.6l1.8-0.3l0.8-1.3l-0.7-2.3
		l1.4-0.8l0.8,0.1l0.1,2.3l1.1,1.3l1.4,0.4l-0.1,2.7h1.1l0.8-1.7l0.6-0.8l-0.4-2l1.1-0.6l1,2.3l1,0.1l0.1,0.7l-1.4,1.8l0.1,1.6
		l1.6-0.4l1.3,0.6l-1.3,1.7l1.8,1.8l-0.1,1l-1.7,0.8v0.8l2.5,2h1.4l0.6-0.7v-1.1l1.3,0.8l1.7-0.3l2.5-1.6l1.3,0.4l0.3,3.1l-1.8,1.1
		l-1.3,0.7l-0.3,1.4l0.8,0.7l2-1.1l1.4,0.4l1.3,1.1l0.1,0.6l1.8-0.7l0.6,1l-2.4,1.3v1.7l1.8,1.1l1.4,2.8l-0.3,1l-3-0.8l-1.5,0
		l-0.3,0.8l1.3,1.1l1.7-0.1l0.7,0.8l-2,1.1v1.3l2-0.3l3.3,0.8l0.4,1l-0.6,1.1l-3.8-1l-1.4-0.1l-1.6,1.6l-0.1,1.3l3.1,1l0.8,1.6
		l-0.1,0.7l-2.1,0.1l-0.7,0.6l0.7,2l-2.7,2l-1.1-0.8l-0.6,0.7l1,2h4.8l0.4,0.8l-0.4,0.7l-1.6,0.1l-0.4,1.8v1.6l1.8,2.4l0.3,0.8
		l-0.8,0.7l0.6,1l2.3-0.7l0.6,2h2.3l1.8-1.6h1l-0.3,1l-1.3,1.4l0.6,0.8l2-1.3c0,0,1.3-0.8,1.6-0.8s1.1,0.8,1.1,1s0,1,0,1l-2.5,0.7
		l-1.8,0.1c0,0-0.3,1-0.1,1.1s1,1.1,1.1,1.1s1.7,0.4,1.7,0.4h1.3l0.8,0.7c0,0-0.3,0.8-0.4,0.8s-1.7-0.1-1.7-0.1l-1,1.3l-0.8,1.1
		l-0.6-0.4v-1.4l-0.8-0.4l-0.6,0.4l0.3,2.3l1.3,1h0.7l2.1-2.4l1,0.3l1.4,1.1l-0.6,1.6l0.6,0.8l1-0.1l0.3-2l1.7-1.6l2.1-0.8l0.6,0.1
		l-0.4,3.4l1.6-0.1l1.7-3.3l1.7-0.3l0.7,1l-0.4,3.3l0.3,0.7l1.4-0.7l1.1-1l0.6,0.8c0,0-1.3,2.3-1.3,2.4s-0.8,0.8-0.8,0.8l-2.1-1.1
		l-1,0.3v2l0.6,1.1l1.8-0.6l0.3,1.8c0,0,0.8-0.3,0.8-0.4s0-1.8,0-1.8l1.1-0.1v1.7l1.1-0.6c0,0,0.6,0.4,0.7,0.6s-0.3,0.8-0.3,0.8
		l-1.1,0.1l-1.1,1.4l-0.7,0.4l-1.4,0.1l-0.6,1.1l0.8,1.1l0.1,1l0.7,1v1.1l-1.6,2l1.1,2l0.4,1.6l-0.1,0.7l-1.4,2l-2-0.6l-0.7,0.4
		l-0.4,2.5v2l-0.7,2.3l-1.1,0.1l-1.7-1.3l-1.1,0.1l-0.1,1.8v1.1h-1.3l-1.1,1.3v1.3c0,0-0.4,0.3-0.6,0.4c-0.1,0.1-1.8,0.6-1.8,0.6
		l-1.4-0.8l-1.3-0.8l1.3-2.7l-1.8-2.1l-0.1-2l1.8-3l-0.7-1.1l-4.1,0.1l-2.5-1.4l-3.3-3l-0.3-2.4l-3.5-2l-0.7,1.6l-3.4,0.4l-5.7-0.6
		l-3.1-1l-3.8,1h-3.1l1.1-2.7l-1.4-1l-5.1,2l-2.7,0.4l-0.7-2.5l2.3-1.6l0.1-1.3l-6.9-2.1l-3.3,0.7v3.3l-1.7,0.7l-1-1.4l-3.5-3.5
		l-2.8,0.6l-2.4-3L162,237l0.4,1.8l-0.3,1.4l-3.7-1.3l0.4-2.3l-2.5-1l-2.1,0.1l-2.8-2.1l-2.7,1.8l-0.1,4.4l-2.5,0.7l-0.8,2.3l-9.5,1
		l-3-2l-4.4-1.6l-8.6,3.1l-3-2l-2.8,1.4l-0.8,4.2l-3.7,0.7l-4,3L104,249l-1.7,0.6l-1.3,4.1l1.4,2.7l0.4,4.2l3,2.4l0.3,2.3l-1.8,2.7
		l1.8,4L103.1,281.6z"/>
	<g>
		<text transform="matrix(1 0 0 1 118.5908 221.2539)" class="st2 st3">Mithapukur</text>
	</g>
	<g>
		<circle class="st4" cx="157.1" cy="188.9" r="13.4"/>
		<text transform="matrix(1 0 0 1 151.0964 196.2222)" class="st2 st5">5</text>
	</g>
</g>
<g id="rangpur-4">
	<path class="st8" d="M177.6,121.8l2.4,0.3l1.4-2.7l2.7-0.6l4.7-2.7l4.4-1l4,4.1l-1.1,4.5l0.6,3.3l1.6,0.7l-1.1,4l1,2.4l2.7-0.4
		l1.8-1.7l-0.4-2.1l1.6-0.3l0.6,2.3c0,0,2.3,0.4,2.4,0.1c0.1-0.3,2-5,2-5l8.5-0.6l2.5,2.5l3.3-2.5l-1-3.3l2.7-1.3l3.7,0.8l5.4,3
		l3.4-0.7l2.8,0.8l0.8,2.7l3.3-0.1v1.8l-3.1,0.7l3.7,2.5l-1.4,4.1l1.7,0.4l-1.4,2.7l3.3,1.7l3.1-1.3l1.8-5.1l5,0.7l0.7-1.4l9.9-0.7
		v-1.8l-3.4-6.1l3.3-1.6l3.3,0.7l0.8-6.4l-1.1-3l-2.7-1.6l-2.4,0.3l-0.7-2.4l-2.1,0.8l-1.3-2.4l0.1-2.5l-7.6-11.2l-2.5,0.8l0.4-2.4
		l-1.4-0.4l-7.1,0.3l-5.1-1.4l0.7-3l-1.8-0.4l-4.4,1.7l-4.1-0.6l-1-0.8l-2.1,0.3l-6.4-1l-3.5-2.5l-4.8-4.2l0.3-3l-2.5-1.3l-2.1,0.6
		l-5.1-2.4L197,80h-3.4l-0.3,1.4l-2.4,1.6l-3-1.6l-1.8,1.1l-0.6,2.3l-0.8,1l0.1,1.1l-1.3,3.1l0.8,0.7l-0.4,1.4l-3.1,1l0.4,4.2
		l-6.2,21.1l0.1,1.4l1.3-0.1L177.6,121.8z"/>
	<path class="st8" d="M177.8,121.8l-2.3,5l4.1,1.8l1.6,3.5l2.1,0.7l0.8,2.8l1.7,0.4l1.4,0.1l1.4,2l-2,1.6h-1.8l0.1,2.1l-1,1.1
		l-1-0.8l-4,3.4l3.1,5.5l1.3-1l2,2.3l-1.8,2.8l1.3,0.8l-0.3,2.1l-0.3,1.3l0.7,1.6l-0.3,2.1l2.3,1.6l3.4,0.6l1.8-0.1l1-1.4l-1-2.1
		l1.4-1l1.1,0.3v2.3l1.1,1.1l1.4,0.4l-0.1,2.7l1.3,0.1l0.7-1.7l0.6-0.8l-0.3-2.1l1-0.6l1,2.3l1.1,0.1l0.1,0.8l-1.6,1.6v1.7l1.7-0.6
		l1.4,0.8l-1.4,1.6l2,1.8l-0.1,0.8l-1.7,1c0,0-0.3,0.8-0.1,0.8s2.5,2,2.5,2h1.3l0.7-0.7V175l1.1,1l1.7-0.3l1.4-0.6l1.3-1l1.3,0.6
		l0.4,3.3l-2,0.6c0,0-1.4,0.6-1.4,0.8s0,1.7,0,1.7l0.8,0.6l1.7-1.1l1.6,0.4l1.3,1.1l0.3,0.6l1.7-0.7l0.6,1l-2.5,1.3l0.1,1.7l1.8,1.1
		l1.4,2.8l-0.1,1.1l-1.3-0.3l-1.8-0.7l-1.6,0l-0.1,0.8l1.1,1.1l1.8-0.1l0.6,0.8l-2,1.3v1.1l2.1-0.1l3.1,0.6l0.6,1.3l-0.6,0.8
		l-1.7-0.3l-2.3-0.6l-1.4-0.1l-1.6,1.7l-0.1,1.1l0.8,0.4l2.3,0.6l0.8,1.4l-0.1,1l-2-0.1l-0.8,0.7l0.4,1l0.3,1l-1,0.7l-1.7,1.3
		l-1.1-1l-0.6,0.8l1,2h2.7h2.1l0.4,1c0,0-0.4,0.4-0.4,0.6s-1.6,0.1-1.6,0.1l-0.4,2.1v1.3l2,2.5l0.3,0.7l-1,0.7l0.6,1l2.3-0.7l0.6,2
		h2.4l1.7-1.4l1-0.3c0,0,1.3-1,0.8-1.6c-0.4-0.6-0.6-1.7-0.6-1.7l0.4-0.4l1,1.3l0.4-2.4l-1-2.4l1.8-1.1l1.1-2.1c0,0,0-4,0-4.1
		s0.3-2,0.3-2l1.8-0.3l4.8,0.1l0.3,0.8l2.1,0.1l0.3-2h2.5v0.6l-0.8,1.3l0.6,1.6l2.1,0.3l0.8-0.4l1.3-0.8v-1.7l1.7-0.3l3.1-0.7
		l0.8-1.4l1.6,0.1v-2l2-0.1l1.4,0.8l0.4-0.7l-0.7-0.8l1.6-0.4l0.4,1.1l-0.4,2.3l2.3,2.7c0,0,2.3,2,2.3,2.1s1.3,1.7,1.3,1.7l0.1,1.8
		l1.6,0.7l1.7,0.8l1.4-1.6l-1.1-1.8l1.3-1.3c0,0,0.1-1.4,0.1-1.6s-2.4-2-2.4-2l-0.7-1.7l-0.6-3.3l0.8-2.4l1-2.8l-0.1-1.1l1-1.3
		l1.4,0.1l1,1.7l1.1,0.1l1-1l-0.3-1.1l-1.8-0.3l-0.3-1.8l-1.1-1l0.6-1.4l1.7,1.8l2.8,1.3l3.1-1l1.7-1.8l1.1,0.4l1.1-1l-1.8-2.3
		l2.4-3.3l2.8-4l2-2.3v-3.4l-0.6-1l-1.1,0.3l0.3,2.1l-0.6,0.7l-1.6-1.4l-1.1,0.6l-0.3,1.6l-0.4,1l-1-0.3l-0.3-6.8H277l0.7-5.5
		l1.8-5.7l0.7-2.5l-0.1-1.1l-2-0.4l-0.8-5.2l0.7-3.8l-0.3-2.3l-2-3.1l-0.3-1.7l-1.8-0.6l-2,1.1l-3.1,0.3l-1.4-0.1l-9.6,0.7l-0.8,1.4
		l-5.1-0.7l-1.7,5.1l-3.1,1.3l-3.3-1.7l1.3-2.7l-1.6-0.4l1.4-4.1l-3.8-2.5l3.3-0.7v-1.8l-3.3,0.1l-0.8-2.7l-3-0.8l-3.1,0.7l-5.7-3
		l-3.4-0.8l-2.7,1.3l0.8,3.1l-3.1,2.5l-2.7-2.3l-8.4,0.3l-2.1,5l-2.4-0.1l-0.6-2.3l-1.6,0.4l0.4,2l-1.8,1.8l-2.5,0.3l-1.3-2.1
		l1.3-4.1l-1.7-0.8l-0.4-3.3l1.1-4.2l-4-4.2l-4.2,1l-4.8,2.7l-2.5,0.6l-1.6,2.7L177.8,121.8z"/>
	<text transform="matrix(1 0 0 1 199.0273 114.3379)" class="st2 st3">Kaunia</text>
	<text transform="matrix(1 0 0 1 216.5283 172.2021)" class="st2 st3">Pirgacha</text>
	<g>
		<circle class="st4" cx="218.1" cy="144.9" r="13.4"/>
		<text transform="matrix(1 0 0 1 212.0964 152.2222)" class="st2 st5">4</text>
	</g>
</g>
<g id="rangpur-6">
	<path class="st9" d="M103.1,281.8l1.8-5.9l1.3-3.7l-1.8-4.2l1.8-2.3l-0.3-2.5l-3-2.4l-0.4-4.2c0,0-1.6-2.5-1.4-2.7
		c0.1-0.1,1.1-4.1,1.1-4.1s1.8-0.6,2-0.6s1.1,2,1.1,2l3.8-3.1l3.8-0.7l0.8-4.2l2.8-1.4l2.8,2l8.8-3.3l4.4,1.6l2.8,2.1l9.6-1l0.8-2.3
		l2.5-0.6v-4.5l2.8-1.8l2.8,2.1l2.1-0.1l2.5,1l-0.4,2.4l3.7,1.3l0.3-1.6l0-2.1l1.8-1.8l2.4,3.1l2.8-0.6l3.4,3.4l1,1.6
		c0,0,1.8-0.6,1.8-0.7s0-3.3,0-3.3l3.4-0.7l5.1,1.4l1.8,0.7l-0.3,1.3l-2.3,1.6l0.7,2.5l2.7-0.4l5.1-2l1.4,0.8l-1.1,2.7h3.1l3.8-0.8
		l3.1,1l5.7,0.6l3.4-0.4l0.6-1.7l3.7,2.1l0.1,2.4l3.4,3l2.4,1.4l4.2-0.3l0.7,1.4l-1.8,3v1.7l2,2.3l-0.8,2.1l-0.8,0.7l-2.4-0.3
		l-0.3,3l-2.3,7.5h-5.4l-1,1.1l-1,5l1.7,0.1l1.3,2.4l-0.8,1.8l-2,0.4l0.3,1.3l1.4,0.4l-1.8,2.8l0.3,2.3l-2.1,2.5l-1.8,0.1l-1.7,1.6
		l0.4,1.3l-0.8,2L206,303l-0.6,1.8l-1.6,1l-1.8,0.4l-2.1,3.1l-0.3,0.7l0.4,0.8l0.1,2.1l-1,0.6l-1.3,0.1l-3.1,2.7l0.7,1l-0.1,1.4
		l0.8,1.6c0,0,0.3,2,0.3,2.1s-1.7,3.5-1.7,3.5l-0.6,1.7l-0.1,2l0.1,1.1l1.6,0.1l1.3-0.4l0.8,1l-0.8,3.7l-0.6,0.6L194,335l-1.3,1.1
		l-1.8,0.4l-0.7,0.8v1.8l0.7,2.1l0.1,1.3l1.6-0.7l1.6-0.3c0,0,0-1.8,0.3-1.8s1,0,1,0l1.4,2.4l-0.1,2.5l-0.7,1.4l-1.4,1.7l-1.8,0.4
		l-1-0.4c0,0-0.4,1.3-0.6,1.3s-1.6,0.3-1.6,0.3l-1.3-1.3l-1,1.7l-2.1-1.3l-2-0.1l-2.1,2l-1.7-0.6H176l-3.5,0.8l-2.3-0.1l-1.1-1.6
		l-2.3,0.3v-1.6l-1.1-0.8h-2.8l-2-3l-1.6-1.3l-1.8,1l-1,1.3l-1-0.4l0.8-1.3l3.1-3.1V339l-1.8-1.6l-1.6,1.8l-0.6,1.6l-0.8,1.1
		l-1.4,0.1l-0.6-0.6l-2.4-1l-1.4,0.6l-2.1-0.7l-1.4-2.1l0.6-1.8l1.3-1c0,0,1.7,0.1,1.8,0s1.1-1.1,1.1-1.1l0.3-1.4l-1.1-0.8l-1,0.4
		l-3,0.1l-1-0.7l-0.1-1.1l-1.3-1l-0.3,0.6l0.3,2.3l-0.6,1.4l-1.6,0.3L139,334l-0.4-1.6l1.3-2.3l0.3-1.7l1.3-1l-0.4-1.1l1-1.8
		l0.4-0.1l0.3,2l1.1,1.1l1,0.1l1.4,1.3l1-0.8l-2-1.7l0.1-1.3l1.7-0.4l2.7-2.1l-0.1-1.4l-2.7,2.1l-1.8-1.6l-1.3-1.4v-0.8l1.6,0.3
		c0,0,1.3-1.6,1.3-1.7s-0.8-1.8-0.8-1.8l-0.1-2.7l-1.6-1l-1.6,0.4l0.8,2.4l-0.6,1.3l-3,1.1l-0.6-0.6l1.8-1.7l-0.4-1.6l-3.4-1.4
		l-3.8,0.1l-1-0.8l1-1.1l1.7-1.6l-1.8-2.4l-3.7-3.5l0.3-1.3l-2.1-2.8l-1.3,1.1l1.3,1.4l-0.3,0.8l-1.8-0.4l-2-0.7l-2.3,2.3l-1.3-0.6
		l-0.6-3.7l-0.7-0.1l-1,0.6l-2.4-2.7l-0.1-1.7l-2.1-1.3l-0.8,0.6l-1.1,1.6l-0.7,0.4l-1.1-0.4l0.1-1.3l-0.8-1.3l-1.1,1.7l-1.1,0.1
		l-2.5-0.8l-0.1-0.8l1-0.3l2,0.7l0.3-0.8l-1.6-1.8l-1.6,0.6l-1,0.8l-2-0.8l-2.1-0.7l-1.7-0.8l0.4-1.6l2.3,0.8c0,0,1.7,0.8,1.8,0.8
		s2.5-0.7,2.5-0.7l0.6-2.1l-0.8-1.1V285l0.6-1.4L103.1,281.8z"/>
	<g>
		<text transform="matrix(1 0 0 1 142.4092 290.3115)" class="st2 st3">Pirgonj</text>
	</g>
	<g>
		<circle class="st4" cx="161.1" cy="261.9" r="13.4"/>
		<text transform="matrix(1 0 0 1 155.0964 269.2222)" class="st2 st5">6</text>
	</g>
</g>
<g id="rangpur-1">
	<polygon class="st10" points="79.5,76.6 77.5,73.2 77.8,66.1 82.4,65.2 83.3,62.4 82,59.2 85.1,51.9 91.9,48.5 86.8,40.3 
		83.7,39.5 84,35.9 86.1,32.7 85.4,27.3 85.7,23.3 82.9,21.6 85,19.9 87.5,12.6 89.7,9.4 88.5,6.9 92.4,4.3 96.7,8.9 99,6.7 
		101.6,7.6 104.3,6.3 111.8,10.9 119.6,11.6 122.4,10 129,16.8 131.3,16.7 133.9,21.1 137.1,22.9 137.7,26.2 140.1,29.8 141.2,27.6 
		146.8,35.4 152.7,38 158.6,40.9 160.8,43.6 164.2,43.6 165.2,40.6 169,40.3 173,44.1 174.1,46.3 171.8,47.1 176.4,53.6 182,59.3 
		183.7,59.2 185.1,61.7 189.2,62.4 193.1,66.7 192.8,70.9 195.8,73.5 197.6,72.9 200.7,77.9 196.8,80 193.4,79.8 193.2,82 
		191.1,83.4 188.3,81.4 186.1,82.5 185.6,85.1 182.4,87.2 179.2,87.1 178.6,84.5 176.1,82 172.5,82.2 171.3,84.1 167.4,80.5 
		165,80.5 163.9,82.8 161.3,82.7 161.3,84.5 159.6,85.1 155.4,83 155.5,79.7 152.7,78.3 148.2,82 140.7,81.8 134.7,80.8 134.1,78.8 
		136,76.4 134.3,73.7 128.6,73.9 125.6,78 126.2,81.7 129.3,82.1 129,83.4 127.1,85.1 122.2,84.9 119.7,85.1 119.7,82.4 116.9,83.2 
		112.9,81 109.2,81.5 109.2,83.7 106.4,84.1 105.8,81.3 102.4,81.5 98.4,84.2 98.3,86.6 93.1,88.2 93.1,90.2 90.4,90 87.1,86.2 
		86,80.1 	"/>
	<text transform="matrix(1 0 0 1 106.1904 62.8105)" class="st11 st12">           </text>
	<g>
		<text transform="matrix(1 0 0 1 100.9893 67.6436)" class="st2 st3">Gangachara</text>
	</g>
	<g>
		<circle class="st4" cx="119.1" cy="40.9" r="13.4"/>
		<text transform="matrix(1 0 0 1 113.0964 48.2222)" class="st2 st5">1</text>
	</g>
</g>
</svg>
