<?xml version="1.0" encoding="utf-8"?>
<!-- Generator: Adobe Illustrator 25.2.1, SVG Export Plug-In . SVG Version: 6.00 Build 0)  -->
<svg version="1.1" id="Layer_1" xmlns="http://www.w3.org/2000/svg" xmlns:xlink="http://www.w3.org/1999/xlink" x="0px" y="0px"
	 viewBox="0 0 298.5 348.5" style="enable-background:new 0 0 298.5 348.5;" xml:space="preserve">
<style type="text/css">
	.st0{fill:#8BAFE8;stroke:#FFFFFF;stroke-width:0.5;stroke-miterlimit:10;}
	.st1{font-family:'TimesNewRomanPSMT';}
	.st2{font-size:16px;}
	.st3{fill:#FFFFFF;}
	.st4{font-size:24.672px;}
	.st5{fill:#7CA7E5;stroke:#FFFFFF;stroke-width:0.5;stroke-miterlimit:10;}
	.st6{fill:#9BB6EA;stroke:#FFFFFF;stroke-width:0.5;stroke-miterlimit:10;}
	.st7{fill:#ABBEED;stroke:#FFFFFF;stroke-width:0.5;stroke-miterlimit:10;}
	.st8{fill:#C5CFED;stroke:#FFFFFF;stroke-width:1.033;}
</style>
<g id="gaibandha-5">
	<g id="dist-saghata">
		<path class="st0" d="M180.6,342.2l3,1.8l5.6-0.3h6.2l3.6,0.9l1.2-2.1l2.7,1.2l0.6-2.4l11.3-1.5l3-2.7l6.2-0.3l10.4,6.2h3.9
			l0.9-3.3l3.9-1.8l2.7-0.9v-8.3l-2.1-2.7l1.2-5.3h-3.6l-4.2-7.4l3-3.9v-4.5l-13.4,0.3l-0.6,7.7h-2.4l-0.6-1.8l-2.4-0.6l-0.6-8.9
			l1.8-4.5l2.4-3.3l-0.3-5.3l2.7-7.1l-3.6-2.4l-3,6.8l-3.3-5l1.5-5.9h3.6l0.6-5.3l-9.2-7.7l-3.6,0.3l0.3-6.2l-3.9-8.3l-1.5-4.5
			l-4.1-0.7l0.6-3.6c0,0,2.1,0,2.1-0.3s-4.5-5.6-4.5-5.6l-2.4,3.3l-4.2,3.6l-8.3-0.6l-1.8,3.9l-3-0.6l-1.8-1.8l-3.9,3.3l-2.4,3.9
			l-0.3,3.9l-2.1,3.3l0.3,3.3l-8.6,13.1l2.1,2.1l-1.8,5.9l-2.1,8.6l2.4,5.3l8,3.9l-0.9,6.8l3.6,3.3l-3.9,8.6l-3-2.7l-1.5,3l2.1,3
			v5.9l5.9,3l2.4,6.5l4.5,3.3L180.6,342.2z"/>
		<g>
			<text transform="matrix(1 0 0 1 163.7402 289.7393)" class="st1 st2">Saghata</text>
		</g>
	</g>
	<path class="st0" d="M239.7,305.4l2.1-0.3l-0.6-5v-4.5l0.9-9.2l6.2-9.2l5.6-7.1l0.3-3.9l6.5-15.1l3.6-5.6l2.7-7.7l2.4-2.4l8-0.3
		l4.2,1.5l10.4-2.4l1.2-5.3l-0.9-6.5V215l2.1-0.9l1.2-3.6l-2.7-8l-3.6-5.9l-1.2-9.2l-3.3-9.2l-2.4-0.9l-0.9-3.6l-4.2,0.6l-1.5-13.7
		l-3.9-1.8l-3-5.3l1.2-2.1l-5-1.2l-1.5,4.2l0.6,9.5l-6.2-1.2l0.9,5l-1.5,4.2l-3.9,5.3l-3.9,4.8l-3.9-0.6l1.2,4.2l-2.4,2.1l-5.3-1.8
		l-1.8-7.4l-4.5,1.5l-5.9-2.1l-3.6,3l-2.7-1.8l-1.8,5.3l-3.3-1.5l-4.2,0.6l-4.8-2.4l-2.1,4.8v6.5l-3.3,2.7l1.2,1.5l2.7-0.9l0.6,2.4
		l-5.2,3.4l0.9,3l3-2.7l-1.5,7.7l2.4,2.1l-0.6,1.8l-3-0.3l-4.2,3.3l0.6,1.8l2.7-0.9l-0.9,5.9l-3.3,3c0,0,1.2,2.7,1.5,2.4
		s2.7-2.4,2.7-2.4l-0.9,4.2l2.7,7.4l0.3,0.9l-1.5,0.3l-0.9,3.5l4.2,0.9l5,12.8v6.2l3.6-0.3l8.9,7.4l-0.3,5.6h-3.6l-1.5,5.9l3.3,5
		l3-6.8l3.6,2.1l-2.4,7.1v5.6l-2.4,3.3l-1.8,4.8l0.6,8.3l2.4,0.9l0.6,1.8h2.4l0.6-7.7H239.7L239.7,305.4z"/>
	<g>
		<text transform="matrix(1 0 0 1 225.1543 207.502)" class="st1 st2">Phulchari</text>
	</g>
	<g>
		<circle class="st3" cx="237.6" cy="229.6" r="13.4"/>
		<text transform="matrix(1 0 0 1 231.5964 236.9722)" class="st1 st4">5</text>
	</g>
</g>
<g id="gaibandha-4">
	<path class="st5" d="M52.9,314.9l4.2-5.9l3.3-6.5l5-3l8.3,2.1l7.1-3l3.9,7.1l-4.5,2.7l1.5,2.7l4.5,2.4l2.4-1.8l3.6,5l4.5,1.2
		l-3.9,3l3.6,8.9l4.2-0.6l6.8,5l0.9,5.6l2.4-0.3l0.6-9.8l5.9,0.9l0.3-2.4l-1.8-5l4.8,1.5l2.4-3.6l4.5,3.9l0.6,6.8h2.4l1.2-4.5
		l3.6-0.6l1.5,3l5.9-4.5l1.8,2.1l-3,4.8l1.2,5l2.1-5.3l4.2,1.5l-2.4,4.5l5.9-0.9l1.5-3.3l8.9-0.6l-0.3,4.8l7.4,3.9l6.5,2.7l4.8-2.1
		l-2.7-4.5l-4.5-3.3l-2.4-6.2l-5.9-3.3v-5.9l-2.1-3l1.5-3l3,2.7l3.9-8.6l-3.6-3.3l1.2-6.8l-8.3-3.9l-2.1-5.6l1.5-8.3
		c0,0,2.1-5.3,2.1-5.6c0-0.3-2.1-2.4-2.1-2.4l5.3-7.7l3.6-5.3L169,255l-3.3-0.3l-1.8-3l-6.2-1.5l3-5.6l-0.9-3l-8-2.1l3.9-3.3
		l-1.2-5.6l-8.3,1.2l-11.9-0.9l-1.5-5.3l-5.9,1.2l1.5,2.7l-3.3,3.9l2.7,4.2l-0.9,1.5l-4.2-2.1l-5.6,1.8l-1.2-1.2l0.9-3.9l-1.8-0.9
		l-6.2,4.5l-3.3,1.8l0.6,2.4h-4.8v-5.3l-2.7-3l-2.7-2.7l2.1-3l-0.9-1.8l-7.1,2.4l2.7,4.8l1.8,4.2l-3.3,1.8l5,6.5l-0.6,2.4l-4.8-3.6
		l-5-0.3l1.8,3l-0.9,2.7l-6.2-1.5l-1.8-3l-5-5.3l-6.8-1.2l-1.5,3.9l-7.4-0.9l-0.9-4.8l-7.7-0.6l-0.3,2.7l2.4,1.8l-5.3,0.9l-5.6-1.5
		l-3.9,1.5l-3.6-1.8l-2.4-3.6l-4.5,0.9l-0.9-3.6l-5,0.3l-4.8,5.6l-2.7,4.2l-4.2,2.7l1.5,4.5l-1.5,3.3l0.3,5L4.1,263l1.5,2.1h5.3
		l0.9,5.9l3,0.3l6.2,4.8l3.6,2.7l-3.9,5l0.8,1.7l7.4-0.3l2.4,9.5l6.2,5.3l-1.5,3.6l3.6,7.4l5-0.6l1.2,2.7L52.9,314.9z"/>
	<g>
		<text transform="matrix(1 0 0 1 64.6328 287.8613)" class="st1 st2">Gobindaganj</text>
	</g>
	<g>
		<circle class="st3" cx="125.6" cy="260" r="13.4"/>
		<text transform="matrix(1 0 0 1 119.5964 267.3056)" class="st1 st4">4</text>
	</g>
</g>
<g id="gaibandha-3">
	<g id="dist-palashbari">
		<path class="st6" d="M66.6,238.6L63,238l-3.9-8l-0.6-6.2l-7.4-5.3l-4.2-8.3l-4.5-3l0.6-1.8l7.4-0.9L51,203l-4.2-0.3l0.6-4.2
			l10.1-0.6l5.3,1.5l8.3-0.3l3.3-2.1l7.4,0.9l3.6-2.4l3.3-1.5l1.2,3.3v3.3l3.6,2.7c0,0,3.3-2.7,3.3-3s-1.2-3-1.2-3l3.6-2.1l6.8,2.4
			l3.3-1.5l2.7-3.3l8.3,3.9l4.8,1.2l4.8-3l7.4-0.9l3.9-1.5l1.8-1.8l7.4,0.3l4.2,3.3l0.6,2.1l-4.2,3.3l1.8,1.8l-2.1,3.9l1.2,2.1
			l-1.5,4.5l3.9,2.1l8.3-1.8l3.3,3.3v3h2.7l1.2-4.5l7.1,0.3l4.8,3l-1.8,3l1.5,3l-4.5,0.3l-4.2,3.9l0.9,3.9l1.5,2.7l0.3,5.6l-1.5,4.5
			l-2.7,4.2l-0.3,3.6l-2.4,3.6l-3.3-0.9l-1.8-2.7l-5.3-1.5l2.4-5.6l-1.2-3l-7.4-2.1l3.3-3.3l-0.9-5.6l-8.3,1.2l-11.6-0.9l-2.1-5.3
			l-5,1.2l0.6,2.4l-2.7,4.5l2.1,3.9l-0.3,1.2l-4.5-1.8l-5.3,1.8l-1.2-1.5l0.3-3.6l-1.2-0.6l-6.8,4.5l-3.3,1.5l0.9,2.1l-4.8,0.3
			l-0.3-5.3l-5-5.6l2.1-3.3l-0.9-1.5l-6.8,2.7l2.4,4.2l1.5,4.5l-2.7,1.8l4.8,6.5l-0.6,2.1l-4.8-3l-4.8-0.6l1.5,3l-0.9,2.7l-6.5-1.5
			l-1.5-3l-5.3-5.3L66.6,238.6z"/>
		<g>
			<text transform="matrix(1 0 0 1 75.7881 219.6152)" class="st1 st2">Palashbari</text>
		</g>
	</g>
	<path class="st6" d="M88.6,194.1l0.6-3.6l-0.9-2.4l-1.5,0.3l-0.9,2.4l-2.4-0.3l-1.5-3.3l0.9-2.7l3.6-1.8l2.7,0.6l1.2-1.2v-4.2
		l-2.4,1.2l-1.8-1.5v-2.7l2.4-6.2c0,0-1.2-3.9-1.2-4.2s1.2-5,1.2-5l5-0.3v-2.4l-2.1-2.4l3-3.6l2.4-0.3L99,149l1.2-6.5l1.8-3.3h2.1
		l2.1-3.6l-0.6-3l1.8-1.2l-1.5-2.7l2.4-1.8l-0.3-3l-2.7-0.9l1.8-6.8l5.6,0.3c0,0,1.8-5.3,1.8-5.9s1.2-2.7,1.2-2.7l0.3-3.3h3.3
		l3.6,2.4l2.7-1.2v-2.4l3-0.3v-3l3.3,0.9c0,0,2.1-1.8,2.1-2.4s0.6-5.6,0.6-5.6h3l1.8-3l5.6,1.5l6.5-1.2l5-0.3l1.5-3.6l2.7-0.9
		l1.5-3.6h1.5v3l2.7,0.9l-1.8,4.5l-2.1,0.3v1.5l3.6-0.3l3.6,3.6l-1.5,1.2l-2.7,2.1l-5.3,1.2l0.9,1.8l-1.5,3h-2.4l-0.3,3.6l3,3h3.9
		l2.4,2.7l0.3,4.8l3,0.6l3,1.8l-0.9,3l0.9,1.5l-0.6,4.5l-1.8,1.8l-2.1,3.6l0.9,2.7l-2.7,2.1L165,144l1.2,1.8l-1.2,2.7l1.8,1.8
		l3.9,0.3l-6.5,8.3l-2.1,1.2l-4.2-0.9l-1.2-3l-4.5-0.3l2.1,2.7l-0.9,2.1l0.6,3l-0.3,3l2.4,1.5h-4.8l3.6,5.9l-3.6,0.9l-6.2-2.1
		l-3.6,1.2l-3.3-4.5l-2.1-0.6l-3.6,1.2l1.2,3.9l-0.3,4.5l1.5,1.2l-1.8,3.3l-0.6,3.9l-0.3,2.1l-0.3,6.2l-6.2,3l-5-1.2l-8.3-3.9
		l-3,3.3l-3,1.5l-7.1-2.1l-3,1.8l0.9,3l-3.3,3l-3.6-2.7v-3.6L88.6,194.1"/>
	<g>
		<text transform="matrix(1 0 0 1 75.4873 161.3052)" class="st1 st2">Sadullapur</text>
	</g>
	<g>
		<circle class="st3" cx="140.3" cy="132.6" r="13.4"/>
		<text transform="matrix(1 0 0 1 134.3464 139.9722)" class="st1 st4">3</text>
	</g>
</g>
<g id="gaibandha-1">
	<path class="st7" d="M139,90.8l-2.4-3.6l1.5-3l-1.5-4.8l5-3.3l-1.5-1.8l-4.2,1.2l-1.8-1.8l1.5-2.4l3.3,1.2l2.4-3.3l-0.8-0.7
		c0,0-4.2,0.9-3.9,0.9s-0.9-5-0.9-5l-3.3,4.5l-2.1-1.5l1.8-2.7l-4.8,1.2l-0.6,3.9l-2.1-0.6v-3h-3l-1.8,2.7l-4.2-3.6l1.5-1.5l1.8,1.5
		l5-1.2l-4.8-2.7l-1.5-4.2c0,0,2.4-2.1,2.4-3s-0.6-6.2-0.6-6.2l3-4.2l0.6-6.2l1.8-0.9l8,0.3l0.6-1.8l2.4,0.3l-0.9,2.1l1.2,2.1
		l3.9-1.2l0.6-1.8l5.3-2.1l3.6-3l3-0.9l1.5,1.2l0.3,3l3,3.6l0.3,2.1l2.4,0.6l0.3,2.1l3.3,1.5l0.9-0.9l-0.6-2.4l1.8-2.7l-3.3-2.7
		l-0.9-6.8l2.1-6.2l2.1-0.3l2.1,2.4l0.6-2.4l-3-3.9l1.2-1.2l3,3.3c0,0,2.7-0.3,3-0.3s3.3-3.3,3.3-3.3l1.8,1.8l1.5-2.1l-2.4-2.7
		l5.9-8.3l2.7-1.8l2.4,2.7l3,0.9l3,4.2V16l-1.8,4.5l0.6,3l1.5,1.5l-1.2,1.2l-2.4-0.9l-1.5,3.6h-3l0.3,3.3l1.8,4.2l8,2.1h6.5l2.4,3.9
		l3.3,4.5l1.2,3.9l3.9,3.6h3l6.2-5v-1.2l2.4,0.9l1.8-1.5c0,0,4.5,1.8,4.8,2.1s9.8,10.4,9.8,10.4l7.7,3.9l4.8,3.9l6.5,0.3l5-1.8
		l3,1.2l0.6,3l-3,0.3l-0.3,2.4l-4.2,1.8l-1.5,3.3l0.6,3.6l7.4,5l0.6,3.9l-2.4,2.1l-9.8-1.2l-2.4,1.8l0.6,3.3l7.1,5.3l-3.3,3.3
		l2.4,2.1l2.7-1.8l3,0.3l0.9-2.1l4.8,0.6l0.9,3.3l-1.5,8.6l-4.2,9.5l-4.2,5.3l0.9,2.1l5-2.7l1.8,2.7l-1.8,5.9l-5-0.9l-7.1,2.4
		l-3.9,3l-0.4,1.3l-7.3-0.9l-4.2-1.6h-4.7l-2-3.4l-2.5-1.1l-1.9,2.2l-5-1.9l3.3-1.7l-1.2-1.4l-3.5,0.6v-4.5l-1.8-1.2l-1.2,1.2
		l-6.5-1.2l-0.3-4.8l-3-2.4l-3.9,2.1l-5.8-7.3l-3.5,0.3l-1.2,2.8l-3.9,0.3l-3.3,1.5l-6.8-2.1l-3.1,1.9l-7.5-0.6l-3.4-1.9l-2.7-0.9
		l-0.3-4.8l-2.4-2.4h-3.3l-3.6-3l0.3-3.6h2.1l1.8-3l-0.9-2.1l5-0.6L169,96l-3.6-3.6l-3.6,0.3v-1.5l2.1-0.3l1.8-4.5l-2.7-0.9v-3h-1.5
		l-1.5,3.6l-2.7,0.9l-1.5,3.6l-5.3,0.3l-5.9,1.2L139,90.8"/>
	<g>
		<text transform="matrix(1 0 0 1 174.9844 99.3462)" class="st1 st2">Sundarganj</text>
	</g>
	<g>
		<circle class="st3" cx="193.1" cy="71.2" r="13.4"/>
		<text transform="matrix(1 0 0 1 187.0964 78.4722)" class="st1 st4">1</text>
	</g>
</g>
<g id="gaibandha-2">
	<path class="st8" d="M284.5,178.1c0,0-0.6-3.3-0.6-3.6s-5-6.5-5-6.5l9.2-9.2l0.3-3.3l-1.5-0.3l3.6-6.2l-3.6-1.8l0.3-4.5l-1.2-0.9
		l-4.2,2.4l-8,0.6l-3.3,0.9l-1.5-0.9l-1.5,1.2l-0.9-2.1l-2.1-3l4.5-2.7l-5-0.6l-7.1,2.1l-3.6,3.3l-0.8,1.5l-7.1-0.9l-4.2-1.8
		l-4.8,0.3l-2.1-3.6l-2.7-1.2l-1.5,2.4l-5.6-2.1l3.9-1.5l-0.9-1.5l-4.2,0.6l0.3-4.2l-1.5-1.5l-1.8,1.2l-6.2-0.9l-0.3-4.8l-2.7-3
		l-4.2,2.7l-5.6-7.7l-3.6,0.3l-1.2,3.3l-4-0.1l-3,2.1l-6.8-2.7l-3.3,2.1l-7.4-0.6l-0.9,3l0.9,1.2l-0.9,4.5l-1.5,2.1l-2.1,3.3l0.6,3
		l-2.1,2.1l-1.5,3.9l0.9,1.2l-0.6,3l1.5,1.8l3.9,0.3l-6.5,8.3l-1.8,1.2l-4.5-0.9l-1.2-3l-4.5-0.3l2.1,2.4l-0.9,2.4l0.6,2.7l-0.3,3.3
		l2.1,1.5h-4.5l3.3,5.6l-3.3,1.2l-6.5-2.1l-3,1.2l-3.9-4.5l-1.8-0.6l-3.3,1.2l0.9,3.9l-0.3,4.5l1.2,1.2l-1.5,3.3l-0.9,5.9v5.9
		l6.2-0.9l3.3-1.5l1.5-1.5l7.1,0.3l4.5,3.3l0.3,2.1l-3.3,3.3l1.2,1.8l-2.1,3.9l1.2,2.1l-1.5,4.5l3.9,2.1l8.3-1.8l3.3,3.3v3h2.4
		l1.8-4.5l6.5,0.3l4.8,3l-1.5,3l1.2,2.7l-4.2,0.6l-4.2,3.9l0.9,3.9l1.5,2.7l0.3,5.6l-1.2,3.6l3.3-2.4l1.8,1.8l3,0.6l1.8-3.9l8.3,0.6
		l4.2-3.6l2.4-3.3l3.3,3.6l-1.8-6.2l0.3-3.9l-2.4,2.1l-1.5-2.1l3.3-3.3l0.9-5.9l-2.7,0.9l-0.6-1.8l4.2-3.3l2.7,0.3l0.9-1.8l-2.4-2.1
		l1.5-7.7l-3,2.7l-0.9-3l5.6-3.6l-0.6-2.4l-2.7,0.9l-1.2-1.5l3.3-2.7v-6.5l2.1-4.5l4.8,2.1l4.2-0.6l3,1.5l2.1-5l2.7,1.2l3.9-2.7
		l5.6,2.1l4.5-1.5l1.8,7.1l5.3,2.1l2.4-2.1l-0.9-3.9l3.6,0.3l7.7-10.1l1.5-4.5l-0.9-4.8l5.9,1.2l-0.3-9.2l1.5-4.2l4.8,0.9l-0.9,2.1
		l3,5.3l3.9,1.8l1.5,13.7l4.2-0.6l0.9,3.6L284.5,178.1z"/>
	<g>
		<text transform="matrix(1 0 0 1 162.1123 173.9336)" class="st1 st2">Gaibandha</text>
	</g>
	<g>
		<circle class="st3" cx="201.1" cy="145.6" r="13.4"/>
		<text transform="matrix(1 0 0 1 195.0964 152.9722)" class="st1 st4">2</text>
	</g>
</g>
</svg>
