<?xml version="1.0" encoding="utf-8"?>
<!-- Generator: Adobe Illustrator 25.2.1, SVG Export Plug-In . SVG Version: 6.00 Build 0)  -->
<svg version="1.1" id="Layer_1" xmlns="http://www.w3.org/2000/svg" xmlns:xlink="http://www.w3.org/1999/xlink" x="0px" y="0px"
	 viewBox="0 0 352 395" style="enable-background:new 0 0 352 395;" xml:space="preserve">
<style type="text/css">
	.st0{fill:#9BB6EA;stroke:#FFFFFF;stroke-width:0.5;stroke-miterlimit:10;}
	.st1{fill:#020202;}
	.st2{font-family:'TimesNewRomanPSMT';}
	.st3{font-size:16px;}
	.st4{fill:#FFFFFF;}
	.st5{font-size:24.672px;}
	.st6{fill:#ABBEED;stroke:#FFFFFF;stroke-width:0.5;stroke-miterlimit:10;}
	.st7{fill:#C5CFED;stroke:#FFFFFF;stroke-width:1.033;}
</style>
<g id="lalmonirhat-3">
	<path class="st0" d="M223.4,350.1l-0.2,4.6l2.4,3.3l3.1,0.5l2.2,3.3l-1.4,1.9l1,1.2l1.9-0.7l5,2.6l4.3-0.3l-0.2,3.9l6.2,5.8
		l3.3,2.6l3.4,0.2l4.8,1l1.5-0.5l2.6,2.1l1.7-1h4.3l2.4-1.2l0.5,3.6l5.3,1h4.8l2.1,2.2l2.6-1.9l0.5-5.3l-1.2-1.9l0.7-4.3l2.4-0.5
		l2.4,2.4l1.2-1.5l-1.2-1.7l0.9-1.4l-0.5-0.7l-3.3-1.5l-1.9-0.2l-2.9,2.9l-1.9-1.5l0.5-1.9l4.1-3.1l3.9-0.3l4.3-2.1l2.1-4.3l2.2-0.5
		l0.9,2.2l-1,2.2l2.7,4.1l0.3,3.8l2.6,1.9l3.6,2.4l2.7,0.2l0.7-1.4l1.2,1.4l4.6,0.3l-1-2.1l-1-4.1l1.2-2.2h1.2l1.4,4.1l3.4-0.2
		l2.4-3.3l0.9-10.3l-1.7-11l0.3-1.4l2.2-0.7l5.8,2.7l2.4,1.4l1.9-2.7v-5.1l1.9-2.2l5-0.7l3.1-3.1l1-2.7l-1-1l-2.9,2.2l-3.8,0.5h-2.4
		l-2.6-1.7l-3.8-0.5l-0.9-4.1l-4.1-1.5l-2.4-1.7l-0.9-7.2l-5-0.2l-2.2-2.1l0.9-4.5l-3.3-2.9v-1.9l0.5-3.8l-3.4-4.1l0.2-4.1l-3.1-7.2
		l-2.1,0.7l-2.6,3.3l-3.6-0.2l-2.7-2.4l-2.6-4.3l1.2-6.7l3.3-3.9l-0.2-2.9l-4.3-0.5h-5.8l-2.6-1.4l-5.1,0.2l-2.4,1.5l-1.2,5.8
		l-0.9,4.1l-0.3,4.5l-2.2,2.6l1.7,5.1l-0.2,5.7l0.5,2.9l-0.3,3.9l-1.7,3.9l-2.4,1l-1.7,4.1c0,0-2.7-0.2-2.9-0.3
		c-0.2-0.2-1.9-1-1.9-1l-0.9,1.9l1.7,1.2l2.2,0.2l-1.4,2.4l-1.9,1.2v2.1l-2.1,2.7l-5.5,1.2l-0.9,1.7l-5.7-0.7l-1,1.5l2.9,1.4
		l-1.5,3.8l-2.9,2.1l-2.2-1l-1,1.2l1.7,2.1l-1.9,2.2l-3.6-1l-7,0.7l-2.2-1l-0.9-5l-1.7,0.2l-0.2,4.1l0.9,4.3l2.1,3.1l-0.5,1.7
		l-2.6,0.3l-1.4-1.2l-3.1,2.1L223.4,350.1z"/>
	<g>
		<text transform="matrix(1 0 0 1 253.4814 341.1025)" class="st1 st2 st3">Lalmonirhat</text>
	</g>
	<g>
		<circle class="st4" cx="262.1" cy="358.9" r="13.4"/>
		<text transform="matrix(1 0 0 1 256.0964 366.2222)" class="st2 st5">3</text>
	</g>
</g>
<g id="lalmonirhat-1">
	<path class="st6" d="M115.4,273.7l-1.5-1.7l-3.1,0.5l-3.3-4.6l0.5-2.2l-1-3.8l-1.2-1.7l-0.2-1.7l-2.4-2.4l0.3-2.1l-0.9-2.9l0.9-0.5
		l-4.1-3.9l0.2-1.2l1.4-0.7l-1.2-2.7l0.7-2.7l-2.4-4.3l-0.3-3.1l1.7-1.9l-0.9-3.3l1.7-3.1l2.1-0.7l-4.5-5.7l-1-2.4l0.9-1.2l-0.5-4.5
		l0.9-3.3l-0.3-4.3l0.7-1l4.1,0.2l1.4-1.9l-0.2-3.3l-1.7-4.3v-5l0.3-2.6l-2.2-2.7l-3.8-3.6l-0.2-3.4l-3.3-2.1c0,0-1-1.9-1-2.1
		s-3.9-0.7-3.9-0.7l-4.8,1.5l-3.1-2.6l-4.3-0.5l-4.5-1.9l2.1-2.2l-1-1.4l-2.1,1.7l-1.5-2.6l-0.7-4.3l-3.9-1l-0.3-2.9l2.4-1.5
		l3.8-0.2l0.5-3.6l0.9-5.8l1.2-0.2l-0.9-4.1l-3.6-1.4l-3.4-1l-3.1-6.3l1-1.7l2.2-0.7l1.2,0.9h1.4l0.2-2.2l2.9,0.9l0.5,2.6l1.2-0.2
		l0.7-0.9l2.2,1.5l-0.5,3.1l5.7,0.7l4.1,2.9l-0.7,3.6l4.8,5l1.7,0.2l0.3-6.9l1.7-3.9l1.7-1l1.5,1.2l3.3-2.6l4.3,0.9l2.1-1.7
		l-0.2-1.5l-1.2,0.2l-2.6-1.9l1.4-5l3.1-1.2l2.7,0.5l3.1,5l2.7,1l0.3-1.9l4.5,1.2l1.5-0.9l-0.5-2.1l1.9-0.3l0.9,3.8l-1.9,0.9
		l-0.3,2.2l1,1.4l1.9-0.7l2.1,4.1l-0.5,3.3l1.2,3.8l-0.3,3.8l3.4,2.9l0.2,1.5l-3.6,3.6l-1.5,2.4l-0.9,4.6l-0.9,3.9l1.4,3.3l1.9,3.6
		l3.4-0.9l1.7,2.4l0.9,1.9l1.5,0.2l-0.5,2.9l-4.3-0.9v3.4l1.7,3.4l2.1,4.6h2.2l2.1,3.6l4.8,1.2l7.2,3.1l4.5-0.2l3.9-1.9l1.2,1.5
		l3.9,0.9h3.9l3.6,2.4v3.1l1.9,2.1l2.4,0.5l6.7,7.4l-1,2.1l0.9,1.7l6.3-0.5l1.5,1.4l-0.7,2.2l-3.1,2.6l-1.5,2.1l-1.2,7.5l5.8,2.4
		l5.3-1.2l1.4-2.2l1.9,1.7l-0.7,2.9l-0.3,3.6l-0.5,3.3l1,4.3l-0.9,3.1l-3.4-0.2l-3.8,0.7l-1.9-3.4h-2.4l-1.2,2.2l-0.7,3.6l-1,0.5
		l-1.2-2.2l-1.4,1.5l-2.9,0.7l-0.3-3.6l-1.9,0.3l-2.1-5.3l-3.8-2.1l-3.9-0.7l-1.5-4.8L161,235l-2.9-0.2l-1.9,2.7l-2.6,1l-1.2-2.9
		l-5.3-0.9l-2.9,1l-2.7,5l-2.4-0.2l-4.3,3.8l1.7,3.6l-0.7,1.2l1.9,2.9l-1,0.9l-1.5-1l-1.5,0.5l-10.8-0.7L122,253l0.7,2.2l0.7,5.5
		l2.7,4.6l-1.4,1.4l-1,2.2l-2.1,1.5l-1.9,2.6L115.4,273.7"/>
	<path class="st6" d="M75.2,129.7c0,0,2.6,0,2.6-0.2s-0.7-3.4-0.5-3.6s2.9-4.6,2.9-4.6l3.3,1.9h2.1l0.3-1l-1.9-1l1.5-2.6
		c0,0-1.2-2.6-1.2-2.9s-0.3-4.8-0.3-4.8l0.3-3.8l0.5-4.8l-4.1-2.9l-3.6,1.9l0.9,3.8l-0.5,3.1l-0.7,2.6l-3.6-1l-3.4-3.9l-3.3,0.9
		l-1.7-3.1l3.3-9.4l-2.6-1.5l-3,3.2l0.3,4.8l-0.3,2.6l-2.4-1.9L58.7,96l-2.1,0.3l-0.9,4.5l-3.3,2.1L50.8,98l-4.1-0.5l-1.4,3.9
		l-3.1,7.4l-5.1,2.4l-9.1,0.2l-5.1-5.8l-2.9-3.1l-3.9,0.3l-1.4-4.6l3.6-3.3l-2.6-5.5l-2.6-4.8l0.2-6.3l4.1,0.3l0.7,1.7l4.6-1.4
		l1.2,4.8L21,86.4l1.4,4.3l4.5-2.7c0,0,3.1,2.1,3.1,2.4s-1,5.5-1,5.5l4.3-1.2l1.4,1.9l-1.4,3.1l1.4,1.9l2.9-2.2l2.6,1.4l3.4-3.4
		l2.2-0.7l-0.9-4.3l1.7-4.6l4.5,2.1l1.2-4.8l2.1-3.9l-3.9-2.1L47.6,80l-3.1-5.3l1.4-0.5l3.1,2.4L48,73l-0.2-3.3L43,71.5l-6.3-2.2
		L34,68.9l0.2,3.1c0,0,1,1,1,1.4c0,0.3-1.4,8.1-1.4,8.1l-3.6-1.2l-0.3-4.1l2.7-2.2l-2.1-1.7l-1.4,1.4L26.4,73l2.4-5l3.9-1.9l0.2-3.3
		l-2.2-2.4c0,0-2.1,1.2-2.1,1.7s-0.7,5-0.9,5c-0.2,0-5.5-0.7-5.5-0.7L18.1,63l-1.9-1.4l-1.7,2.9L13,63.6l1-2.7l-3.9,1.2l-1.7-3.8
		l0.3-1.5l6.2-0.9v-1.7h-3.3l-3.3-1.7l3.9-3.4l1.2-5L12.9,40L11,40.3l-2.2,1l-2.6-3.4L7.1,37l1.5,0.7l3.6-0.9l5.3,1.2l2.9-4.5
		l-1-1.2h-1.9L16.7,31l-0.5-3.3l4.5-0.3l-0.2-1.2L17.6,26v-2.7l1.5-1l3.8,2.1l0.7,2.6l3.6,0.3L27,22.8l4.1-0.9l-2.2-3.1L28,14.9
		l3.8-2.6l3.9,2.7l1.2-1.9l-2.4-1.7l-1.2-3.8l3.4-0.3l1.9,4.8l3.9,1.2l3.9,0.7l0.3,4.6l-2.6,2.1L43.8,23l2.4,0.5l-0.3,3.4l1.2,3.4
		l3.8,1.4l1.5,3.6l2.1-0.5L53,31.4l-2-1.7l-1.5-2.6l2.1-3.3l2.2,2.1l-1.2,1.4l1,2.2l1.4-1l2.7,0.5l-0.3,2.4l1.5,2.6l2.4-0.9l2.9-1.4
		l2.9,1.4l-2.6,4.5l1.4,1.7l1.4-2.9l2.9-0.3L70,39.4l1.7,4.6h1.9l0.3-3.8l5.1,0.3l3.8,1.2l1.7,0.7l1.7-2.7l5,1.7l-0.7,3.8l1.5,0.3
		l0.7-3.3l4.1-1.9h3.3l-0.2,1l-2.7,2.4l-2.7,1.4l1.2,0.9l2.9-1.5l2.7-0.9l1.9,1.4l-2.2,1.7l0.3,3.3l-2.1,2.4l0.7,3.8L99,59.5
		l-3.9,0.2l0.3,1.7l2.6-0.7l2.9,2.1l2.7,0.5c0,0-0.5,3.1,0,4.8c0.5,1.7,0.9,3.4,0.9,3.4s0,3.9-0.2,4.1s-2.9,4.5-2.9,4.5l-4.1,3.6
		l-0.7,1.5l2.6,0.5l3.9-5.1l1.7,0.2l-1.2,2.7h3.1l2.1-2.2L111,83l-0.7,2.2l0.7,0.7h2.4l0.2-1.2l4.1-1l5.8,0.2l0.2,3.4L123,89
		l0.9,3.4l-4.1,0.2l-2.2,0.3v1l3.4,0.3l0.3,2.2l-2.9,2.4l-1,1.9l-1.4,2.6l-2.6-1l-0.2-3.3l-1-2.1l-0.5-3.1l-1.9-0.7l-0.3-4.1
		l-2.2-1.2l-0.9,1.5v3.1l-2.1,1l0.3,1l3.9,1.5L108,98l-2.2,1.4l2.7,1.7l-2.7,2.1l-1,5l2.7,2.1l6.9,4.6l3.3,2.6l-2.4,3.1l-0.2,5.5
		l-0.9,1.4l-2.9-1l-3.1-5l-2.6-0.2l-3.1,1l-1.2,5l2.4,1.9l1.2-0.2l0.2,1.5l-1.9,1.5l-4.5-0.5l-3.4,2.2l-1.5-1l-1.5,1l-1.7,3.8
		l-0.3,6.9h-1.9l-4.8-5l0.9-3.4l-4.3-3.1l-5.5-0.7L75.2,129.7"/>
	<g>
		<text transform="matrix(1 0 0 1 36.2119 59.1553)" class="st2 st3">Patgram</text>
	</g>
	<g>
		<text transform="matrix(1 0 0 1 105.1025 222.3418)" class="st2 st3">Hatibandha</text>
	</g>
	<g>
		<circle class="st4" cx="105.1" cy="155.9" r="13.4"/>
		<text transform="matrix(1 0 0 1 99.0964 163.2222)" class="st2 st5">1</text>
	</g>
</g>
<g id="lalmonirhat-2">
	<polygon class="st7" points="223.4,350.3 219.6,347.4 214.3,345.9 211.8,342.4 207.8,340.7 204.9,336.3 202,334.7 200.3,329.6 
		201.1,326.5 201.3,323.7 199.2,320.3 194.4,318.4 193.1,313.1 195,312.9 194.1,308.1 195.3,306.8 193.6,303.7 194.4,302 
		198.6,301.8 202.3,304.2 205.4,303.9 206.4,302.5 205.9,300.8 206.4,298 212.6,297.2 213.5,293.8 216.9,291.2 217.1,289.3 
		218.1,285.4 218.1,281.4 220.7,279.2 219.5,276.8 220.7,275.1 222.6,271.5 225.1,270.4 226.2,272.7 228.2,269.8 233.4,271 
		239.3,268.6 241.9,266 241.4,261 243.8,260 250.1,261.2 253.6,262 254.4,259.5 252.4,256.1 252.5,253.5 255.3,252.8 258.7,250.6 
		259.9,248.7 260.4,246.1 260.9,242.9 263.3,243.2 268.8,241.7 268.8,240.3 269.9,239.9 272.6,242.3 274.7,245.8 274.3,250.2 
		271.2,254.9 271.6,258.8 274.5,260.8 280.6,261.4 284.8,263.2 287.2,266.8 286,266.3 280.8,266.7 278.4,268 276.4,277.8 276,282.3 
		273.8,285 275.5,290.2 275.3,295.8 275.9,298.7 275.5,302.5 273.8,306.6 271.4,307.6 269.7,311.7 266.8,311.4 264.9,310.5 
		264,312.3 265.6,313.5 268,313.6 266.6,316 264.7,317.1 264.7,319.1 262.5,322 257.3,323.2 256.3,324.9 250.7,324.3 249.6,325.6 
		252.4,327 251.2,330.9 248.1,333 245.9,332 244.8,333.2 246.4,335.1 244.8,337.3 241.1,336.4 234,337.1 231.8,335.9 231,331.1 
		229.2,331.3 229.1,335.4 229.9,339.7 232,342.8 231.5,344.3 228.7,344.8 227.5,343.6 224.4,345.7 	"/>
	<path class="st7" d="M201,326.7l-2.6-0.9l-2.2-2.7h-2.7c0,0-2.1,2.7-2.2,2.7c-0.2,0-4.1-0.2-4.1-0.2l-2.1-3.3l-3.6-1.2l-3.3-2.7
		l-4.3-0.7l-2.4-2.1l-3.9-4.5v-3.8l-0.9-0.2l-1.2,2.4l-3.9-4.5l-0.7-2.7l-3.4-3.3l-0.5-2.1l-3.1-2.1h-2.7l-4.1-3.9l-1.5-1.4
		l-2.6,0.2l-1.5,1l-7.7-0.5l-4.1-1.9l-14.4-13.2l-0.2-1.7l4.8-0.7l1.9-2.6l2.1-1.5l1-2.2l1.4-1.2l-2.7-4.8l-0.7-5.3L122,253l0.9-1.2
		l3.9,0.2l7.2,0.3l1.2-0.3l1.7,1l0.9-0.9l-2.1-2.9c0,0,1-1.2,0.9-1.2c-0.2,0-1.7-3.6-1.7-3.6l4.3-3.8l2.4,0.3l2.7-5.1l2.9-1l5.3,0.9
		l1,2.9l2.7-0.9l1.9-2.9h2.9l0.5,2.2l0.9,2.4l0.7,2.4l3.9,0.7l3.8,2.1l1.9,5.3l2.1-0.3l0.3,3.6l2.9-0.7l1.4-1.5l1.2,2.2l1-0.3
		l0.7-3.6l1-2.4l2.6-0.2l1.9,3.6l3.8-0.7l3.4,0.2l0.9-3.1l-1-4.3l0.3-3.4h5.1l2.4,1.9l2.2-0.9l2.4-0.3l3.6,2.1l1.9,2.2l2.1,0.5v1
		l1.2-0.3l0.2-0.7l2.4,1.2l0.9,2.4l2.7,1.9l2.4,2.2l-0.9,2.7l0.7,1l1.7-1.2l1.5,3.3l3.8,1.9l2.9,2.1l3.3-0.5l3.9-0.3l0.5,5l-2.6,2.6
		l-6.2,2.4l-5.1-1.2l-2.1,2.7l-1-2.1l-2.6,1l-1.7,3.4l-1.2,1.9l1,2.2l-2.6,2.4v3.8l-1,3.9l-0.2,2.1l-3.4,2.6l-0.9,3.3l-6,1l-0.7,2.7
		l0.5,1.5l-1,1.5l-2.9,0.3l-4.1-2.4l-3.8,0.2l-0.9,1.9l1.4,2.7l-1,1.5l0.7,4.6L193,313l1.2,5.1l5,1.9l2.1,3.6L201,326.7z"/>
	<g>
		<text transform="matrix(1 0 0 1 152.3071 290.5459)" class="st1 st2 st3">Kaliganj</text>
	</g>
	<g>
		<text transform="matrix(1 0 0 1 213.6357 305.2051)" class="st1 st2 st3">Aditmari</text>
	</g>
	<g>
		<circle class="st4" cx="157.1" cy="262.9" r="13.4"/>
		<text transform="matrix(1 0 0 1 151.0964 270.2222)" class="st2 st5">2</text>
	</g>
</g>
</svg>
