<?xml version="1.0" encoding="utf-8"?>
<!-- Generator: Adobe Illustrator 25.2.1, SVG Export Plug-In . SVG Version: 6.00 Build 0)  -->
<svg version="1.1" id="Layer_1" xmlns="http://www.w3.org/2000/svg" xmlns:xlink="http://www.w3.org/1999/xlink" x="0px" y="0px"
	 viewBox="0 0 372 373" style="enable-background:new 0 0 372 373;" xml:space="preserve">
<style type="text/css">
	.st0{fill:#7CA7E5;stroke:#FFFFFF;stroke-width:0.5;stroke-miterlimit:10;}
	.st1{font-family:'TimesNewRomanPSMT';}
	.st2{font-size:16px;}
	.st3{fill:#FFFFFF;}
	.st4{font-size:24.672px;}
	.st5{fill:#ABBEED;stroke:#FFFFFF;stroke-width:0.5;stroke-miterlimit:10;}
	.st6{fill:#C5CFED;stroke:#FFFFFF;stroke-width:1.033;}
	.st7{fill:#8BAFE8;stroke:#FFFFFF;stroke-width:0.5;stroke-miterlimit:10;}
	.st8{fill:#548ED3;stroke:#FFFFFF;stroke-width:0.5;stroke-miterlimit:10;}
	.st9{fill:#9BB6EA;stroke:#FFFFFF;stroke-width:0.5;stroke-miterlimit:10;}
</style>
<g id="dinajpur-5">
	<path class="st0" d="M275.3,223l2.6-5.8l-0.2-1.6l-2.6,0.4l-6.3-5.4L268,208l-0.9-0.2l-1.8,0.5l-4.2-1.6h-1.4l0.4,1.6l-1.1,0.4
		l-1.6-1.2l-1.1,2.3l-1.4-1.4V203l-1.2-1.1l-2.1-0.5l-1.9-0.2l-0.4-1.2l-1.4-0.2l-1.2,1.6l-3.3,0.2l-0.5-3.3l-0.7-3l-1.1-1.2
		l-1.6,0.9l-1.4,0.2l-0.9-1.2l0.7-0.7l-1.1-1.2l0.2-2.8l1.9,0.2l0.4-1.1l-2.3-0.5l0.5-1.9l-2.3-1.4l0.9-2.5h2.3l-0.9-3.3l-1.2-2.1
		l-2.3-0.5l-0.9,1.1h-1.6l-1.2,1.1l-1.9-0.7l-0.2-2.6l0.7-2.6l-3-1.4l-1.1-1.9l-0.7-2.5h-2.5l-0.7,1.9l-1.1-0.2l-0.5-1.1l-4.2-1.8
		l-0.2-2.3l1.1-0.4l-1.1-3.3c0,0-3-3-3-3.2s-0.4-4.2-0.4-4.2l0.5-2.6l2.6-0.2l2.5-0.5l0.2-2.5l-1.8-0.4V144l-1.8,0.2v1.8l-1.6-0.9
		L210,144l-0.5-1.8H207l-0.2,0.9l-1.9-0.9l-0.9-2.1l-2.3-0.2l-0.7,3.2l1.6,0.4l1.2-0.4l1.2,1.6l-0.9,0.7l-3.7-0.9h-2.5l-0.7-1.4
		L196,142l1.1-3.5l-1.4-2.8l-0.4-3.5l-0.4-2.8l-1.6-0.7l-3-0.2l-3.3,0.4l-3-2.6l-0.9,1.1l0.9,2.6l0.2,3.2l2.8,4l3.7,1.9l0.5,3.2
		l-3.5,4l-2.5,1.4l-2.6-0.9l-1.9,0.7l-3.7,7l-0.7,3.3l0.9,2.1l1.1,1.6l-0.4,2.1l-2.5-1.2l-1.6,0.4l0.5,3.2l1.2,3.3l-1.8,0.5
		l-0.2,1.9l-1.2,0.2l-0.4,4.6l-0.5,1.6l-2.6,0.2l-0.2,0.9l1.1,1.4l-0.7,1.2l-1.4-0.4l-0.7,1.9l1.1,1.8l3.2,2.1l0.5,1.8h-1.6
		l-1.1,1.1l-0.4,5.3l0.9,1.6l2.3,1.9l0.2,3.5l-1.8,2.6l0.2,1.4l2.5,6.7v6.8l0.4,1.1l2.1,2.5l1.6,3.2l0.4,2.1l2.5,0.4l1.6,1.2
		l-0.5,1.1l-1.9-0.4l-2.3-0.7l-0.7,1.1l0.5,1.8h2.6l2.5,2.6l2.5,1.6l0.2,1.8l2.8-1.4c0,0,1.1-0.5,1.2-0.7s0.5-2.3,0.5-2.3l4,0.2
		l3-0.2l1.2-1.9l-0.5-1.4l-1.8-2.1l0.2-3.5l2.8-0.9l2.6-0.5l-0.7-1.4l-2.6,0.5l-0.9-1.6l0.5-1.2l2.8-0.7l0.7-1.9l1.4-0.5l1.8,1.4
		l3.2,1.8l3,0.4l0.4,0.9v4l0.7,1.2h1.6l-0.2-2.3c0,0,0.4-2.6,0.4-3s-0.2-1.9-0.2-2.1s1.1-1.4,1.1-1.4h3.3l1.8,1.8l1.6,0.4l0.7,1.1
		l0.2,2.1l1.2,1.4l-1.1,1.4l-1.9,0.9l0.4,1.4l1.6-0.5l-0.5,2.3c0,0,1.1,2.6,1.1,3.2c0,0.5,0.2,2.1,0.2,2.1l2.1,1.2l2.6,1.6l2.8,0.7
		l2.5,0.9l1.8,1.2l0.9-1.4l-0.5-2.3v-4.6l1.8-0.9l0.5-1.6H234l0.2-3.9l3.9-0.9l1.6,1.6l4.9,1.1l0.2-2.1h7.5l3.2,0.9l2.3-2.3l1.1,0.2
		v2.6l1.4,3l2.5,0.5l1.1-0.7l-0.4-1.8l1.4-2.3l-0.4-3.2l3.5-1.2l2.1-3.3l4,1.6L275.3,223z"/>
	<polygon class="st0" points="177.2,232.1 170.9,231.4 169,229.3 163.9,231.4 163.4,233.7 165.8,234.8 165.8,236.2 164.9,237.4 
		165.3,242.3 166.5,248.1 167.9,249.5 172.6,248.4 174.2,250.7 174.2,253.5 176.2,256 175.8,257.9 174.9,259.6 176.3,261.2 
		176.3,263.3 171.6,267.4 172.3,270.7 174.4,271 175.3,273.7 174.6,275.2 173,274.4 172.5,275.6 173.7,277.5 173,279.3 171.6,279.8 
		168.8,279.8 166.9,280.8 167.2,282.2 170.7,282.8 171.1,285.9 175.6,285.6 176.7,287.5 178.6,288.6 180.9,290 184.2,289.8 
		187,290.3 191,289.6 191.2,287.7 193.1,286.6 199.6,286.8 201.9,285.2 208,285.2 209.3,284.2 214.3,284.3 214,288 215.2,288.4 
		218.7,286.3 220.3,285.9 220.7,284.2 222.1,284.2 223.3,281.5 222.9,279.1 221.9,276.8 226.1,277.2 227.3,278.2 229.1,277.9 
		229.4,276.1 228,274.7 227.5,273.5 228.4,270.9 230.5,271.2 231.5,266.8 233.3,264.4 232.4,263.1 232.4,261 231,258.8 226.8,257 
		226.4,255.6 227.3,253.2 226.8,251.9 230.8,250.7 230.6,249.5 231.9,247.9 231.7,245.3 233.3,242.5 234.5,243.4 235,242.5 
		234,241.1 232.2,239.8 227,238.3 222.2,235.5 222.1,233 221.2,230.2 221.7,227.8 220.1,228.3 219.8,226.9 221.7,226.2 222.4,224.8 
		221.4,223.4 221.2,221.3 220.5,220.1 218.9,219.9 217,218 213.6,218.1 212.8,219.5 212.9,221.6 212.6,224.6 212.8,226.9 
		211.2,226.9 210.3,225.7 210.5,221.6 210.1,220.8 207,220.4 203.7,218.5 202.3,217.2 200.9,217.8 200.2,219.7 197.4,220.6 
		196.8,221.6 197.7,223.2 200.3,222.7 200.9,224.1 198.4,224.6 195.6,225.5 195.4,229 197.2,231.1 197.7,232.3 196.6,234.2 
		193.7,234.6 189.5,234.4 188.9,236.5 184.9,238.6 184.7,237 182.3,235.6 180,232.8 177.2,232.8 	"/>
	<g>
		<text transform="matrix(1 0 0 1 206.6514 208.3906)" class="st1 st2">Parbatipur</text>
	</g>
	<g>
		<text transform="matrix(1 0 0 1 176.916 251.3447)" class="st1 st2">Fulbari</text>
	</g>
	<g>
		<circle class="st3" cx="198.1" cy="183.9" r="13.4"/>
		<text transform="matrix(1 0 0 1 192.0964 191.2222)" class="st1 st4">5</text>
	</g>
</g>
<g id="dinajpur-1">
	<path class="st5" d="M53,82.5l2.1-1.9l1.9-0.4l3.5,2.3l3.7-0.2l0.2-1.4l3.2-0.9l4.6,3.7L72,88.4l0.7,2.3l2.6,0.9l1.8-0.4
		c0,0,3.3,3.7,3.5,3.7s3.5,1.2,3.5,1.2l2.5,4.6l3,4.7l2.1-2.1l3-1.8h4.7l2.6,2.1l1.6-2.1h4.7l0.2-2.6l4.2-0.5l-0.2,4.2l2.5,4
		l-0.9,1.9l1.6,2.1l1.9-0.5l1.4,2.1l3.9-4.2l-1.6-2.8h-2.6l-0.2-1.8l2.1,0.2l0.2-3.3h1.1l1.6,1.9v2.6l2.1,1.6l4-2.1l4.9,3l-6.1,12.4
		l-1.6,3.9l-1.6,1.2v3.3l-2.3,4.7l-1.6,1.2l-1.9-0.7l-4.7,5.1l-3.2-0.9l-3.9,0.5l-0.7,2.1l-2.8,1.1l-1.6-2.5l-3.7,0.2l-5.3-1.8
		l-2.1,2.8l-5.3-2.5l-0.4-1.8l-6.7,0.9l-4.7-2.1l-3.7-3.3l-6.3-1.9l-4.6,1.9l-1.2-1.6l-0.9-3.9l-3.7,0.4l-3.9-1.9l-1.4-7l2.3-0.4
		l0.7-2.3l-2.3-0.4v-2l1.8,0.7l0.2-2.6l-0.9-1.6l1.9-2.6l-4.4,0.9l1.1-3.3l3.3,0.7l1.2-3.5L50,94.9l0-2.9l-1.6-2.1l0.4-5.1L53,82.5"
		/>
	<path class="st5" d="M47.2,69.9l3-2.1l0.9-2.3L49,65.4l-0.7-2.8h-1.8l-0.7-1.9l4.7,1.2l0.9-1.4L50,58.9l3.3-4.6l1.9-0.9l2.5-2.8
		l4.9,0.2l0.7-4.9l-0.9-2.8l-1.9-0.9L59.6,35l1.9-3l2.1,0.4l1.6-3.5l-0.9-2.1l1.6-3.7l4.7-2.3L82,22l2.3-1.4l0.4-2.3l1.6-1.2
		l3.9-1.2L89.5,12V8.8l4-4l4.2,2.1c0,0,1.4,2.8,1.4,3s4.6,2.6,4.6,2.6l7.2,9.8l0.5,2.5l3,1.1l10.5-0.9l0.5,3.5l4.4-0.2l-0.4,3.3
		l-2.8,2.8l1.9,2.3l3-2.3l2.3,2.3l-2.1,4.2l0.4,4l-3.7,1.6l2.5,2.6l-0.2,3.3l1.9,4.2l-2.1,2.1l0.9,4.2l3.7,0.7l-0.2,3.9l1.2,0.9
		l-1.6,6.8l-1.6,5.1l0.4,5.8l2.3,3.2l-1.8,2.1l4,7.9l-1.1,3.3l1.2,3.2l-3.7,1.6l-4.9-2.8l-4,2.1l-2.1-1.6v-2.6l-1.6-1.9h-1.1
		l-0.2,3.2h-2.1l0.2,1.8h2.6l1.6,2.8l-3.9,4.2l-1.4-2.1l-1.9,0.5l-1.6-2.1l0.9-1.9l-2.5-4l0.2-4l-4,0.4L108,102h-4.7l-1.6,2.1
		l-2.6-2.1h-4.7l-3,1.8l-2.1,2.1l-3-4.7l-2.3-5L80.5,95l-3.7-3.7l-1.6,0.4l-2.6-0.9l-0.7-2.3l0.2-4.6L67.5,80l-3,0.9l-0.4,1.2
		l-3.5,0.4l-3.9-2.3l-1.8,0.4L53,82.5l-3.2-3.3l-1.2-2.5L48.2,73L46,72.5L47.2,69.9"/>
	<g>
		<text transform="matrix(1 0 0 1 77.1396 76.8203)" class="st1 st2">Birganj</text>
	</g>
	<g>
		<text transform="matrix(1 0 0 1 66.0537 119.7744)" class="st1 st2">Kaharol</text>
	</g>
	<g>
		<circle class="st3" cx="99.1" cy="42.9" r="13.4"/>
		<text transform="matrix(1 0 0 1 93.0964 50.2222)" class="st1 st4">1</text>
	</g>
</g>
<g id="dinajpur-2">
	<polygon class="st6" points="72.1,236.2 69.6,236.9 66.1,235.8 67.2,234.1 65.8,233 63.7,237.2 62.3,238.6 60.5,238.1 60.4,232.3 
		61.8,227.9 58.8,228.8 58.8,225.3 57,224.4 55.1,226.9 53,225 54,223 51.9,221.8 49.3,223.2 45.1,219.5 43.4,216.2 46.7,208.8 
		46,206.4 40.9,205.7 39.9,207.1 34.4,206.2 33.2,204.5 30,201 26.4,201.3 24.4,199.6 26.5,197.3 25.3,191.8 26.9,189 28.8,186.4 
		29.2,176.3 29.2,171.3 32.8,166.8 37.4,164.3 38.5,166.1 40,165.2 40.9,161.9 43.2,161.2 41.1,156.1 40.7,151.6 40.6,147.3 
		46.3,146.6 46.5,141.9 45.5,139.8 47.4,138.1 50.2,139.3 55.6,134.9 55.1,131.4 57.2,129.5 58.6,129.7 59.8,131.4 64.4,129.5 
		70.7,131.4 74.4,134.7 79.1,136.8 85.8,136 86.1,137.7 91.4,140.2 93.5,137.4 98.7,139.1 102.4,138.9 104,141.6 103.3,145.9 
		101.2,147.7 100.1,151.6 97.5,153.3 96.4,157.5 97.5,160.3 97.7,166.8 96.8,167.7 95.4,167.5 94.2,169.6 97.3,171.7 97.7,174.7 
		98.4,175.7 97.5,177 95.6,176.4 93.1,177.8 93.8,179.4 97.1,179.6 91.7,187.3 92.4,189.7 94,192 95.6,192.7 95.2,193.6 94.2,194.1 
		93.5,196.4 90.8,199.2 91,202.7 89.1,204.5 86.5,203.4 84.9,206.6 87.2,211.5 86.6,213.4 81.7,213.4 80.1,214.1 79.3,218.7 
		81.4,222.9 80.3,224.3 79.4,227.8 77.5,230.7 76.8,234.4 75.9,235.6 73.5,235.3 	"/>
	<path class="st6" d="M29,172.8h-2.8l-3.3-1.6l-3.2-0.7l0.9-1.4l-0.4-1.2l-0.9-1.2l1.1-2.3l-0.2-1.8l0.7-0.9l2.1,1.8l1.2-2.5
		l-1.6-2.8l0.7-4l-1.2-1.8l-2.1,1.9l-1.8-0.5l-0.5-2.6l3-0.2l1.6-1.6l-3.7-2.1l1.2-2.1l-2.5-2.1l-1.4,1.1l-1.6-2.6l-0.9,2.1
		l-0.9,1.9l-3.2-0.4l-1.1-2.6l0.9-1.4L8,140.3l-1.4,0.9l-1.4-3l1.4-1.6l-2.3-2.1l1.4-2.6c0,0-1.4-1.9-1.4-2.5c0-0.5-0.5-4.7-0.5-4.7
		l-0.2-3l-1.1-1.6l0.2-3.1l2.1-1.6l0.2-2.1l-1.4-1.1l0.2-1.4l2.1-0.7L4,105.5v-6l0.9-2.8l3.5,0.5c0,0,1.4-2.5,1.4-2.6
		c0-0.2,1.1-5.8,1.1-5.8l0.7-2.6l2.3-0.2l0.2,1.9l3.9,3.2l1.4-2.3l-3.3-3.3l0.9-1.2l2.8-0.2l3.3,3l0.7-1.1l-0.7-1.8l0.5-0.9l3.3,1.2
		L26,87.3l1.8,1.4l2.8,0.7l1.8-1.2l0.2-4.2l1.6-0.9l1.6,1.4L36,88l3.5,0.4l1.9-2.1l0.5-1.9l-0.5-5.1l-3.2-1.4l0.2-1.8l2.3,0.4
		L39.5,74l0.9-3.3l5.8-1.4l1.1,0.7L46,72.5l2.5,0.5l0.2,3.7l1.2,2.5l2.1,2.3l1.2,1.2L48.6,85l-0.2,5.1L50,92l0.2,2.8l3.5,5.8
		l-1.1,3.7l-3.7-0.9l-0.9,3.3l4.4-0.9l-1.9,2.8l1.1,1.4l-0.4,2.8l-1.8-0.7l-0.2,2.3l2.5,0.2l-0.7,2.5l-2.3,0.4l1.4,6.8l3.9,2.1
		l3.7-0.4l1.1,3.9l-1.4-0.2l-2.1,1.6l0.4,3.5l-5.3,4.4l-3.2-1.1l-1.8,1.8l0.9,2.1l-0.2,4.6l-5.8,0.9l0.7,8.4l2,5.1l-2.1,1.1
		l-0.9,3.2l-1.6,0.9l-1.2-1.8l-4.4,2.5l-3.7,4.6L29,172.8z"/>
	<g>
		<text transform="matrix(1 0 0 1 1.7686 157.1797)" class="st1 st2">Bochaganj</text>
	</g>
	<g>
		<text transform="matrix(1 0 0 1 52.2139 190.1904)" class="st1 st2">Birol</text>
	</g>
	<g>
		<circle class="st3" cx="29.1" cy="120.9" r="13.4"/>
		<text transform="matrix(1 0 0 1 23.0964 128.2222)" class="st1 st4">2</text>
	</g>
</g>
<g id="dinajpur-4">
	<path class="st7" d="M163.7,232.3l-7,1.9l-2.3,1.2l-3-1.4l-2.1-3.2l-3,0.7l0.2-6.1l-3.3-4.6l-0.4-2.1l-1.6-2.8l-2.1-2.8l2.1-2.8
		l-0.9-3.9l-4,1.2c0,0-1.8-0.5-1.8-0.7s-0.5-3-0.5-3h-7.2l-2.1-8.4l-2.6-1.9l1.2-3.2l2.8-2.1l3.3-5.4l-1.9-6.3l2.6-2.5
		c0,0,1.2-2.6,1.2-2.8s4-2.3,4-2.3l0.4-4.7l-1.2-3l1.9-7.4l3.9-4.2l-0.7-7.5l-1.8-4.7l0.9-7.2l-0.9-2.5l-3.5-1.6l-1.9-3l4.6-0.5h4.9
		l4.4,1.2l4.4-0.5l2.5,0.5l3-3.3l4.2-1.8l2.3-2.5h1.9l0.5,3.2l5.3-0.5l5.1-4.7l3-1.1l0.7,1.9l0.4,3.7l2.3,2.6v3.9l2.1,1.2l0.9,3.2
		l0.2,3.2l2.8,3.9l3.5,2.1l0.7,3.2l-3.5,4.2l-2.5,1.2l-2.6-0.9l-1.9,0.7l-3.7,7l-0.7,3.3l0.9,2.1l1.1,1.4l-0.4,2.1l-2.5-1.1
		l-1.4,0.4l0.4,3l1.2,3.5l-1.6,0.5l-0.4,1.9l-1.2,0.2l-0.4,4.4l-0.5,1.8l-2.6,0.2l-0.2,0.9l1.1,1.2l-0.7,1.4l-1.4-0.4l-0.7,1.8
		l1.1,1.9l3.2,2.1l0.5,1.8h-1.6l-0.9,0.9l-0.5,5.4l0.9,1.4l2.3,2.1l0.2,3.5l-1.8,2.6l0.2,1.4l2.5,6.7v6.7l0.4,1.2l2.1,2.5l1.6,3.2
		l0.4,1.9l2.5,0.5l1.4,1.2l-0.5,1.1l-4-1.1l-0.5,0.9v1.1l-5.8-0.5l-1.9-1.9l-5.3,1.9L163.7,232.3z"/>
	<polygon class="st7" points="134.1,107.4 138,105.7 136.7,102.5 137.8,99.3 133.6,91.5 135.5,89.2 133.2,86 132.9,80.3 134.5,75.2 
		136,68.3 134.8,67.5 135,63.6 131.3,63.1 130.4,58.7 132.5,56.6 130.6,52.4 130.8,49.1 128.2,46.4 132,45 131.7,40.8 133.8,36.6 
		131.5,34.4 128.5,36.8 126.6,34.4 129.4,31.5 129.7,27.5 132.5,27.2 135.2,23.7 138.8,24.2 138.5,28.2 141.5,33.7 142.7,39.1 
		141.1,43.8 143.4,49.4 143.7,53.3 141.3,56.1 141.6,57.3 145.3,59.1 146,56.4 151.1,57.7 153.9,57.5 156.4,59.2 159,59.9 163,64.3 
		162.3,70.1 164.9,77.4 168.8,87.6 169.1,91.5 171.4,91.8 171.6,95.3 169.7,98.5 171.4,101.4 171.1,110 173,110.7 176.2,109.7 
		178.8,110.7 178.4,113.5 175.3,114.8 170.4,119.3 165.1,119.8 164.4,116.7 162.7,116.7 160.4,119.1 156,121.1 153.2,124.2 
		150.9,123.7 146.5,124.2 142,123 136.7,123.2 132.7,123.7 128.2,120.2 	"/>
	<g>
		<text transform="matrix(1 0 0 1 142.585 86.0381)" class="st1 st2">Khansama</text>
	</g>
	<g>
		<text transform="matrix(1 0 0 1 140.5547 160.1211)" class="st1 st2">Chirirbandar</text>
	</g>
	<g>
		<circle class="st3" cx="154.1" cy="118.9" r="13.4"/>
		<text transform="matrix(1 0 0 1 148.0964 126.2222)" class="st1 st4">4</text>
	</g>
</g>
<g id="dinajpur-6">
	<path class="st8" d="M291.1,339l3.7-1.1l0.2-1.6l-1.8-1.1v-4c0,0,1.1-0.9,1.1-1.1s-0.5-1.8-0.5-1.8l-1.9,0.4l0.4-1.6l3.5-2.3
		l0.7-2.8l2.5-0.2l-0.2-1.8c0,0,2.5-0.4,2.5-0.5c0-0.2,1.2-3.9,1.2-3.9l2.5-0.4l0.7-2.3l3.9-1.4l1.1-4.6l3.2-2.1l6-6.5l4.6,0.5
		l1.4,0.9l-1.2,2.3l0.5,0.9l2.5-1.6l-0.4-3l2.1-0.2l1.1,5.1l-2.3,1.2l0.9,1.6l1.4,0.5l2.5-1.6l0.9,0.9l-2.3,2.6l-2.1,0.2v1.1
		l1.6,1.1l-0.7,1.4l-2.6-1.8l-0.4-1.8l-1.1,0.4l-2.3,5.4l0.5,1.8l1.6,0.2c0,0,1.1-1.4,1.1-1.6s0-2.1,0-2.1l1.1-0.5l1.6,3l4-0.7
		l-0.4,2.3L330,318l0.9,3.7l3.3-0.2l2.3,1.2l2.1-1.4l1.4-2.3h1.1l0.5,1.6l-3.2,3.3l1.1,0.9l2.1-1.8l2.8,3.3l3.3,0.2l0.5,1.1
		l-0.9,1.6h-6.5l-1.2,1.6l0.7,0.9l4.2,0.2l-0.7,1.8l-6.8,0.9l-0.5,1.4l2.8,0.5l4.2,6.3v1.8l3.7,2.8h1.8l1.4,3.3l-0.7,1.9l2.1,3.7
		l0.5,2.3l3.2,0.7l-0.9,2.8c0,0-4.9,0-5.1-0.2s-2.5-1.6-2.5-1.6v-2.1l-4.9-1.1L341,358l1.9,2.8l-1.4,1.2l-5.3-1.6l-4.6,1.1l-4-2.8
		h-3.7l-0.5-2.8h-2.8l-1.6,1.6l-5.1-0.5l0.4-4l-1.9-0.9l-0.7,2.6l-3.7,1.4l-2.3-0.9l-2.8-1.6l-0.5-1.4l-2.1-0.7l0.9-1.2l-0.9-1.8
		l-2.3,0.2l-0.9-1.8h-4.6l-1.1-3.7v-2.5V339H291.1z"/>
	<path class="st8" d="M320.5,299.1v-4.7l-3.9-2.6l0.2-2.1l-2.1-1.8l-0.5,1.1l0.9,1.9h-2.3l-1.2-1.1l-2.5,2.1l-1.4-4.6l-2.8-0.5
		l0.2-1.2l-2.1-1.9l-1.8,2.6h-1.1v-2.1l-0.9-0.7l-1.2,1.9l-0.7-0.5l0.7-1.4l-1.6-1.6l-1.8,1.4l-4.7-1.6l-0.9-1.1l0.9-1.1l3.5,1.4
		l2.1-0.2l0.7-1.9l-0.9-1.6l0.7-1.8l-6.8-5.6l1.4-3l-2.5-1.6l-0.9,1.4l-4.9-4l2.1-1.4l3.9-0.9l-1.2-1.4l-5.3,1.2l0.2-4.2h-2.5
		l-0.9-2.5l3.2-2.5l-0.5-1.2l-2.8-0.2l-0.7-4.9l1.4-2.1l1.6,0.7l0.7-0.9l-1.8-3.3l-0.2-2.5l-1.1-0.9l0.5-1.4l-0.9-2.8l1.8-1.9V229
		l-1.9-0.9l-0.5-3L276,225l-1.1-2.6l-1.1-2.1l-4-1.8l-2.1,3.5l-3.5,1.1l0.4,3.3l-1.4,2.3l0.4,1.8l-1.1,0.7l-2.3-0.5l-1.8-3l0.4-2.6
		l-1.2-0.4l-2.1,2.6l-3.3-1.1h-7.7l0.2,2.1l-5.1-1.1l-1.4-1.6l-4,0.9l-0.4,3.9h2.8l-0.4,1.6l-1.9,0.9v4.6l0.5,2.3
		c0,0-1.1,1.6-0.9,1.6c0.2,0,1.2,1.4,1.2,1.4l-0.7,0.7l-1.2-0.9l-1.6,3v2.6c0,0,1.4,0.4,1.6,0.4c0.2,0,2.1-0.2,2.1-0.2l-0.2,1.6
		l10,1.9l0.9,2.3l-1.9,2.1l0.9,3.3l3,5.8l2.3,3l-0.4,3.9l0.7,1.6l-1.4,1.8l0.2,6.1l0.7,1.1l-1.1,0.7l-3,1.9l1.2,2.3l2.5,1.1l3.9-1.1
		l3.9-0.9l1.6-1.4l2.8,0.4l0.9,0.9l5.4,0.9l0.2,1.2l-2.5,2.5l-0.9,2.1l-2.8,0.4l0.2,2.1v4l-0.2,1.4l-2.5,0.4l-1.4,1.9l-0.2,1.4h-3.5
		l-0.4,2.1l-0.2,1.9l0.5,1.2l-0.7,1.9l-0.9,1.8l-0.5,2.1l0.9,3.2l2.3,0.5l3.3-0.7l0.9,1.8l1.6,0.7l0.4,1.8l2.1,0.2l0.5,1.9l2.3,1.6
		h5.3l3.5,0.7l4.7-0.5l0.2,2.1l3.5-0.5l0.7,1.8l5.1-0.5l2.1-0.9l0.4-1.4l3.3-2.3l1.1-2.6l2.1-0.5l0.2-1.8l2.3-0.4l1.6-3.9l2.1-0.5
		l0.9-2.3l3.5-1.2l1.4-4.7l3-1.9l6.1-6.5L320.5,299.1z"/>
	<polygon class="st8" points="252.5,316.1 248.7,316.6 247.5,315.4 244.3,315.2 243.8,312.4 242.9,308 237.1,308.9 232.4,308.2 
		232,310.3 232.6,312 233.6,312.7 233.1,313.8 230.6,312.9 228.4,315.4 227.7,318 228.5,320.6 228.7,322.7 229.2,322.9 228.9,324.1 
		231.7,325.3 232.4,326.6 231.3,328 232.6,329.5 235.4,330.9 237.8,330.9 239.6,329.5 240.3,327.8 241.3,327.6 241.7,329 241,335 
		240.3,339.7 240.8,342.5 243.1,343.9 245.4,344.1 246.8,341.6 248.3,341.8 248.7,339.2 251.3,339.7 252.5,341.3 256.6,344.1 
		259.9,344.6 260.2,346.2 262.7,345.8 263.6,344.6 263.6,342.7 265,342.2 268,345.1 270.8,347.6 271.3,349.9 274.1,350.4 
		276.5,353.7 277.8,354.9 280.9,354.2 281.4,352.1 283.5,352.8 285.1,347.6 287,347.2 286.9,350.2 289,352 293,351.1 292.3,347.4 
		291.1,343.4 291.1,339 294.6,338 294.9,336.4 293.2,335.3 293.4,331.3 294.2,329.9 293.7,328.5 291.6,328.8 289.7,329.7 
		284.6,330.1 283.9,328.3 280.2,328.8 280,326.7 275.7,327.3 272.2,326.6 266.7,326.7 264.4,325 263.9,323.1 262,322.9 261.5,321.1 
		259.9,320.4 259,318.7 255.7,319.4 253.4,318.9 	"/>
	<path class="st8" d="M231.7,247.9l-1.1,1.9l0.2,1.1l-1.9,0.4l-2.1,0.7l0.5,1.4l-1.1,2.5l0.5,1.1l4.4,1.9l1.2,2.3l-0.2,2.3l0.9,1.2
		l-1.8,2.3l-0.9,4.6l-2.1-0.4l-0.9,2.6l0.7,1.4l1.4,1.1l-0.5,1.8l-1.8,0.5l-1.2-1.2l-4.7-0.7l1.9,2.8v2.3l-0.9,2.6h-1.8l-0.4,1.8
		l-1.9,0.4l-3.2,2.1l-1.4-0.4l0.7-3.7h-1.4l-4-0.2l-1.1,1.1h-6l-2.5,1.6h-6.5l-1.9,0.7v2.3l-4.2,0.5l-3-0.5l-6.3,0.2l-2.1,1.8
		l0.7,1.6l2.1,1.1c0,0-1.4,1.8-1.4,1.9c0,0.2,1.1,4.7,1.1,4.7l1.8,1.6l3.9,0.5l-0.5,1.8l1.2,1.2l3.7,1.1l1.1,0.9l-1.2,2.3l3.5,2.8
		l1.1,3.2l2.6,2.1l1.4-0.4l-0.5-3.9l1.8-1.2l5.3,0.5l0.2,3.7l1.8,3.3l1.8,3.2h3.5l1.4-1.6l0.9,0.4l-0.4,4.6l3.9,1.9l5.3-0.2l2.5-1.8
		l1.8,0.7l2.6,1.4l1.6-2.6h2.8l-0.9-1.1l-2.6-1.2l0.2-1.2l-0.5-2.3l-1.1-2.8l1.1-2.5l2.1-2.5l2.3,0.9l0.7-1.1l-0.9-0.7l-0.7-1.8
		l0.5-2.1l4.6,0.7l5.8-0.9l1.4,7.2l3,0.2l1.4,1.2l3.9-0.7l0.5-2.3l0.9-1.9l0.7-1.8l-0.5-1.2l0.5-4h3.3l0.4-1.4l1.6-1.9l2.1-0.4
		l0.4-1.4l-0.2-6.1l2.8-0.4l0.9-2.1l2.5-2.5l-0.2-1.2l-5.4-0.9l-0.9-0.9l-2.6-0.4l-1.8,1.4l-7.5,1.9l-2.6-1.1l-1.2-2.3l3.9-2.6
		l-0.5-1.1l-0.2-6.1l1.4-1.8l-0.7-1.6l0.4-3.9l-2.3-3l-3-5.8l-0.9-3.3l1.9-2.1l-0.9-2.3l-10-1.9l0.2-1.6l-2.1,0.2L231.7,247.9z"/>
	<g>
		<text transform="matrix(1 0 0 1 192.5664 303.9209)" class="st1 st2">Birampur</text>
	</g>
	<g>
		<text transform="matrix(1 0 0 1 240.3604 249.0986)" class="st1 st2">Nawabganj</text>
	</g>
	<g>
		<text transform="matrix(1 0 0 1 223.3604 341.2803)" class="st1 st2">Hakimpur</text>
	</g>
	<g>
		<text transform="matrix(1 0 0 1 300.5879 337.4688)" class="st1 st2">Ghoraghat</text>
	</g>
	<g>
		<circle class="st3" cx="270.1" cy="284.9" r="13.4"/>
		<text transform="matrix(1 0 0 1 264.0964 292.2222)" class="st1 st4">6</text>
	</g>
</g>
<g id="dinajpur-3">
	<g>
		<path class="st9" d="M73.5,235.1l-1.9,1.1l2.8,2.1l2.6-0.9l2.6,1.2L83,239l2.1-4.6h3l-0.2,2.6l4,3.3l1.4,2.3l6.3-1.1l3.3,0.4v1.9
			l-2.1,1.1l0.9,6.1l3.9-1.2l1.9,0.7l1.2,2.3l6.5-0.5l5.8,1.4l3.2-1.8l2.1-2.1l-0.5-7.9l1.9-0.9l0.7,1.6l4-1.6l6.7-1.2l0.2,3
			l-1.2,2.8l0.5,1.9h1.1l1.6-2.8l4.6,0.7l5.3-4.6l-0.7-1.1l-2.1,0.5l-2.6-2.6c0,0,1.2-1.8,1.2-1.9s-0.4-4.6-0.4-4.6l0.2-6l-3.5-4.4
			l-0.2-2.1l-1.6-2.8l-2.1-2.6l2.1-3l-0.9-3.9l-4,1.2l-1.6-0.7l-0.7-3h-7.2l-2.3-8.4l-2.5-1.8l1.2-3.3l3-2.1l3.2-5.4l-1.8-6.3
			l2.5-2.5l1.2-3l3.9-2.1l0.5-4.7l-1.2-3l1.9-7.4l3.7-4.2l-0.5-7.5l-1.9-4.9l1.2-7l-1.1-2.5l-3.5-1.6l-1.9-2.8l-4.6-3.9l-1.4,3.9
			l-1.6,1.2v3.5l-2.3,4.7l-1.6,1.1l-1.9-0.9l-4.7,5.3l-3.2-0.9l-3.9,0.5l-0.7,2.3L104,141l-0.9,4.7l-2.1,1.6l-0.9,3.9l-2.6,1.6
			l-1.1,4.6c0,0,1.1,2.6,1.1,2.8s0.2,6.5,0.2,6.5l-0.9,0.7l-1.4-0.2l-1.4,2.1l3.5,2.1l0.2,3l0.7,1.1l-0.9,1.2l-1.9-0.7l-2.5,1.6
			l0.7,1.6l3.5,0.2l-5.6,7.7l0.7,2.6L94,192l1.6,0.7l-0.2,1.1l-1.4,0.4l-0.5,2.5l-2.6,2.6l0.2,2.3v1.4c0,0-1.9,1.8-2.1,1.8
			s-2.5-1.4-2.5-1.4l-1.6,3.5l2.3,4.9l-0.5,1.8h-4.9l-1.8,0.7l-0.7,4.6l2.3,4.2l-1.2,1.6l-0.9,3.5l-1.9,3l-0.7,3.7l-1.1,1.2
			L73.5,235.1z"/>
	</g>
	<g>
		<circle class="st3" cx="111.1" cy="186.9" r="13.4"/>
		<text transform="matrix(1 0 0 1 105.0964 194.2222)" class="st1 st4">3</text>
	</g>
	<text transform="matrix(1 0 0 1 83.5 229.5)" class="st1 st2">Dinajpur</text>
</g>
</svg>
