<?xml version="1.0" encoding="utf-8"?>
<!-- Generator: Adobe Illustrator 25.2.1, SVG Export Plug-In . SVG Version: 6.00 Build 0)  -->
<svg version="1.1" id="Layer_1" xmlns="http://www.w3.org/2000/svg" xmlns:xlink="http://www.w3.org/1999/xlink" x="0px" y="0px"
	 viewBox="0 0 400 352.7" style="enable-background:new 0 0 400 352.7;" xml:space="preserve">
<style type="text/css">
	.st0{fill:#9BB6EA;stroke:#FFFFFF;stroke-width:0.5;stroke-miterlimit:10;}
	.st1{font-family:'TimesNewRomanPSMT';}
	.st2{font-size:16px;}
	.st3{fill:#FFFFFF;}
	.st4{font-size:24.672px;}
	.st5{fill:#C5CFED;stroke:#FFFFFF;stroke-width:1.033;}
	.st6{fill:#ABBEED;stroke:#FFFFFF;stroke-width:0.5;stroke-miterlimit:10;}
	.st7{fill:#7CA7E5;stroke:#FFFFFF;stroke-width:0.5;stroke-miterlimit:10;}
	.st8{fill:#6899E0;stroke:#FFFFFF;stroke-width:0.5;stroke-miterlimit:10;}
</style>
<g id="sunamganj-5">
	<path class="st0" d="M292.3,35.2l14.1-2.6l1.3-2.7l0.4-2.2l2.1-1.4L312,27l1.8-1.3l2,1.3l0.6-1.1l-2-1.9l0.3-2.2l2.4-2.3l3.2,0.7
		l2.4-0.4l1.9-1.2l7.3-0.7l3.4,0.7l-0.3,2l-3.8,0.4l-1.8,2.1l-0.9,3.1c0,0,1.2,0.6,1.2,0.7c0,0.2-0.9,2.6-0.9,2.6l-1.2,2.2l1.5,4.4
		l1.5-0.1l0.6-1.8l1.7-1l1.1,0.4l-0.1,2.2l1.1-0.3l0.4-1.6h1.4l2.1,1.7l0.6,2.3l-0.3,3.5l1.1,2.2l3,1.4l2.8,0.6l2.7-0.9l2.4-2.3h2.6
		l0.4-1.5l2.6-0.2l0.5,2.8l2.1-2.2l0.1-3l4.1-1.5l2.9,1.3h2.2l1.7-1.1l0.6,0.4l0.2,1.5l-0.6,1.3l0.5,1.4l-0.6,2.7l1,1.6l-0.3,3.5
		l-1.4,1.6v5.3l-0.4,0.6l1,1.6l-1.2,1.8l-0.7,3l-0.4,2.6l0.7,1.1l1.4,0.4l1.3,2.4l0.4,1.8l-1.4,3.4l-0.5,0.8l0.6,1.6l-0.6,1
		l-3.6,0.9l-1,0.1l-2.6-2.9l-0.3-1.5l0.2-2.5c0,0,0.5-1,0.5-1.1s-0.9-0.8-0.9-0.8l-1,0.9l-0.9-0.3l-0.3-1.3l-2.5-0.3l-1.5,0.8
		l-1.3-2.4l0.8-1.6l-0.8-0.8l-2.3,0.4l-2.4-2.2l-2.3,0.1l-1.2,1.1c0,0,0.8,1.5,0.9,1.5s-0.6,3.6-0.6,3.6l-2.8,3.3l-3.7,0.2l-3.2,0.1
		l-1.7-0.5l-1.3,1.6l-2.6,0.4l-4.9,0.8l-2.1,1.7l-1.8,3.1l-0.9,1.5l-1.6,0.4l-0.4,5.6l-0.5,7.1l0.3,3.9l1.5,0.1L326,98l1.7,0.8
		l-0.3,0.9l-1.6,0.3l0.6,1.2l-0.5,2.8l-0.5,1.4l-2.1,0.4l-0.7,1.2l0.2,1.7l1.7,0.2l4.7,3.1l-1.3,2.3h-1l0.1,2.7l-2.2,0.3l-2.5-1.8
		l-1,1.5l-1.3,0.5l-1.7-1.3l-0.8,1c0,0-1.9,0.2-1.8,0.1c0-0.1-3.1-1.3-3.1-1.3l-1.1,0.6l-1.3,2.3l-3.7,2.7l-2.9,0.1v0.9l1.4,2.1
		l-0.8,2l-1.8,0.6l-1.1,1.5l-1.3-0.1l-1.2-1.2l-3.6-0.1l-2.5,2l-4.8,0.4l-2-1.9l-2.7,0.6l-6.3,2.8l-2.2,0.2l2.1-5.1l0.5-1.9
		l-0.1-2.6l-3.7-3.4l-1.2-3.5l-2-1.7l-0.8-3.7l-2.3-3.2l-1.8-1.7l0.5-2.3l2.2-2v-2.8l0.7-1.8l0.3-4.7l-1.5-0.9l-2,0.5l-2.4-0.6
		l-3.2,1.1l-3.2-1.9l-2.1-2.4l-0.3-4.1l1-2.3l-0.6-1.2v-1.5h1.2l1.5,1.1l1.8,0.1l1,1.7l1.1,3l2.1,2l1.5-0.4l0.9-2.1l0.8-0.3
		l-0.2-1.2l-2.5-0.1l-0.8-1.2l0.8-1.5l0.5-2l0.9-1.4l4-0.5l3,1.1l2.8-0.6l3.5-3.2l1.4-2.9l0.6-2.8l1.2-1.3l-0.7-0.9l-1.5,0.5
		l-0.4-0.9l1-1.3l-0.7-0.4l-1.4,1l-1.5-0.4l-0.2-1.3h-1.9l-1.7,0.3l-0.6-1.2l0.8-4l-0.5-0.7l-0.3-0.9l0.5-0.7l1.5-2.7l1-4.7
		l-0.4-1.9l0.9-1l1.4,0.9h1.4l3-2.1l7.3-1.3l4.2-4.8l-0.4-1.4L292.3,35.2z"/>
	<path class="st0" d="M371.2,39l1.3-0.5l0.9-2.3l2.4-2.2l0.9-1.4l3.2-0.2l1.6,1.7l1.3,2.5l0.8,1.8h1l0.9,1.8l-1.4,1.1l0.5,0.9
		l2.4-0.4l2.5,0.3l0.7,2v1.6l-2.5,1l-0.6,1.1l0.4,1.5l-0.7,1.5l-1.5,0.6l0.1,0.7l0.9,0.5v2.2l-1,0.9l0.2,1.6l1.1,1.6l-0.5,1.2
		l-1.2,0.9l3.7,5.3l4.6,3.5l0.1,0.9l-1.5,1.4l-0.8,1.3l1.1,1.3l1.7-0.2v0.9l-2.3,1l-3-0.2l-1.4,1l-2.5-1.4h-1.1l-1.3-1.2L381,75
		l-1,2.3c0,0-0.8,1.1-1,1.2c-0.1,0-3.4,1.1-3.4,1.1h-4.5l-1,0.4l-1.7,1.9v2l1.5,1.8l0.8,1.2l-0.1,1.9l-1.3,1.4l-1.5,0.5l-4.3-0.8
		l-0.7,1l2.6,3.2l1.7,2.5l0.5,1.8l-0.2,1.3h-3.8l-2.9-0.2l-0.7,1.6l2,2l4.2,1.2l2,1.5l2,4l1.7,0.8h2.9l0.4,1.5l-1.7,1.6l-4.1,0.8
		l-4.4-0.6l-2.2-1.8l-2.6-1.3c0,0-1.1,1.1-1,1.1s1.8,2.9,1.8,2.9l3,2.2l5.5,1.4l4.4,1.5l3.8,1.1l0.4,1.8l-0.6,1.4l-2.3-0.6l-0.2,1.2
		l1.9,1.6l2.7,1l2.4,1.2l0.1,2.3l-1.6,1.7l-0.9,3l-1.7,0.8l-0.2,1.7l0.5,0.2l3.4-0.1l1.3,0.6l-0.4,1.3l-2.1,2.1l-2.7,0.1l-1.2,1.3
		l-0.5,1.6l-1.1,0.5l-4.5-2.1h-1l0.1,1.4l0.8,2.2l2.1,1.5l-1.2,1.6l-0.8,1.9l0.9,1.4l-0.1,1.7l1.8-0.2l0.4,1.6l1,0.8v1.5l-1.6,1.6
		l-5.2-0.4l-0.5,1l0.9,0.4l5.1-0.2l0.8,1.7l-0.9,1.5l-1,0.6v1.7l-2.9-0.1l-2.3,0.3l-0.3,1l2.7,0.1l-0.6,2.1l0.2,2.9l0.9,1.8l2.7,0.4
		l1.1-1.2l2,0.1l0.1,2.3l0.4,2.4l-0.6,1.2l-2.3,0.3v1.7l0.3,1.1l-2.2,1.2l-1.8-0.7l-0.2-1.5v-2.7l-0.8-1.3l-3.1-0.3l-0.9,1.2
		l1.8,1.7l-0.9,2.7l0.2,2.3l-2-0.1l-2.2,1.4l-0.7,0.6l-1.5-0.1l-3.4,4.1l0.7,0.8l1.4,0.2v1.9l2.3,4.7v2.9l-1.8,1.3l-3.4,1.5
		l-3.5-0.6l-3.4,0.9l-2.1,2.2l-2.7-0.8l0.1-1.4l-4,0.3l-2-2.5h-1.7l-1.5-2.2l-1,1.7l1.3,1.7v2.8l-0.9,3.4l-2.3,2.1l-2.9-0.5l0.5-1.6
		v-2.4l-2.8-2.9l-4.8-2l-1.9-1.8l-4.1-0.1l-2.9,1.7c0,0-1.1-0.6-1.2-0.6s-1.5-4.1-1.5-4.1l-2.1-0.1l-2.9,1.1l-2.9,2.9l-2.8,1
		l-1.7-1.2l-0.2-4.3l-1.1-0.8l-3.1,2.8l-1.1-0.3l-0.9-1.5l-1.1,0.4l0.7,1.9l-0.5,0.7l-1.5-0.9l-1.6-0.3l-2,1c0,0-1.2-1.2-1.1-1.3
		c0.1,0,0.2-8.3,0.2-8.3l-1.8-6.9l-2-1.4h-2.5l-0.4-1.1l1.8-0.7l-0.5-2.4l0.7-4.5l-4-3.6l0.4-1.3l2.8-3.3l2.6-0.3l2.3,1.2l0.8-0.7
		l2.2-3.9h2.2l1.7-1.2l0.2-1l-1-2.5l0.2-2.7l-9.4-7.6l-2.4-2.5v-3.1l-1.4-1.1L274,140l-0.2-2.8l-1.2-3.4l1.4-2.8l2.1-0.1l6.4-2.8
		l2.6-0.6l2,1.8l4.8-0.4l2.6-1.9l3.6,0.1l1.2,1.2l1.3,0.1l1.1-1.5l1.7-0.6l0.8-2l-1.4-2v-0.9l2.9-0.1l3.7-2.7l1.2-2.4l1.2-0.6
		l3.1,1.4l1.8-0.1l0.8-1l1.7,1.3l1.3-0.4l1-1.5l2.5,1.8l2.2-0.3l-0.1-2.7h1l1.4-2.3l-4.7-3.1l-1.7-0.1l-0.2-1.6l0.7-1.3l2.1-0.4
		l0.5-1.4l0.5-2.8l-0.6-1.2l1.6-0.3l0.3-0.9l-1.7-0.8l-4.7,1.4l-1.6-0.1l-0.3-3.9l0.8-12.7l1.6-0.4l2.7-4.6l2.1-1.7l7.5-1.1l1.3-1.7
		l1.7,0.5l6.9-0.3l2.9-3.4l0.6-3.6l-0.8-1.6l1.1-1l2.2-0.1l2.4,2.2l2.2-0.4l0.8,0.8l-0.8,1.6l1.3,2.4l1.5-0.8l2.5,0.3l0.3,1.3
		l0.9,0.3l1-0.9l0.9,0.8l-0.5,1.2l-0.2,2.5l0.3,1.5l2.5,2.9l0.8-0.1l3.7-0.9l0.6-1.1l-0.6-1.6l0.5-0.8l1.4-3.5l-0.4-1.8l-1.3-2.4
		l-1.4-0.4l-0.7-1.1l0.4-2.7l0.7-3l1.2-1.8l-1-1.5l0.4-0.6v-5.3l1.4-1.7l0.3-3.5l-0.9-1.6l0.6-2.6l-0.5-1.4L371.2,39z"/>
	<g>
		<text transform="matrix(1 0 0 1 279.7998 99.611)" class="st1 st2">Doarabazar</text>
	</g>
	<g>
		<text transform="matrix(1 0 0 1 311.8779 185.4733)" class="st1 st2">Chatak</text>
	</g>
	<g>
		<circle class="st3" cx="331.1" cy="127.9" r="13.4"/>
		<text transform="matrix(1 0 0 1 325.0964 135.2222)" class="st1 st4">5</text>
	</g>
</g>
<g id="sunamganj-4">
	<path class="st5" d="M173.1,20.3l2.5-0.1l2.3-1.7l2.4-0.1l1.9,1.1l2-1.1l5.5,0.1l3.2,1.8l0.3,2.2h1.7l0.3-0.7l1.6,0.3l2.5,1.9
		l2.7-0.3l3.2-1.1l1.6,1.1l4.5-3l1.7,1.7l-0.4,1.2l1,1.7l2.4,0.5l2,1.4l1.2-0.2l1.7,1.4l3.2,0.3l0.4,1.6l-0.7,2.7l-4.7,1.8l-0.7,2.3
		l1.4,3l2.7,1.8l0.7,2.6l-2.2,1.4l0.4,2l1.7,0.9l1.9,2.7l1.3,3.1l-0.7,1.9l-3,4.5l-0.1,1.9l1.6,6.2l-1.4,0.9l-2.8,0.5l-3.4-2.9
		h-16.9l-1.3,1.2L197.7,83l-3.2,1.3l-1.4-1l-2,0.8l-4.1-1.6l-3.2,2.5l-2.4-1.9l-0.9,0.8l0.9,2.8l-1.3,2.1l-4.2,2.3l-4.5,5.5
		l-2.7,1.5l-0.9,1.2l2.4,3.6l0.3,2.4l-1,1.7l-2.5,0.1l1.4-3l-1-3.3l-5.1-0.7l-1.6,2.4l-1.6-0.4l0.5-1.6l-2.2-3v-4.1
		c0,0-3.6-0.2-3.7-0.2c-0.1,0-2.5-3.4-2.5-3.4l-1.2-0.6l-0.8-2.2l-2-0.6l-2.9,0.7l-2.2-2.5l-0.8-1.5l0.3-0.7l3.6-0.5l0.2-3.4
		l2.1-3.1l6.3,0.5l1-0.8l6.8,0.2l1.7-1.7l1.5,0.5l0.8-0.7l-1.4-2.8l-0.6-9.3l-2.3-7.8l-3-0.7l-0.9,3.9l-2.7,0.1l-1-2.5l-1.1,1.6
		h-1.2l1.1-4.2l4.3-6.8l7.5,1.6l1.3-2.2l-1.3-3.2l2-2.5l1.2-1.6l1.9-4.7l1.4-0.1l0.9,2.9l3-1.1v-1.4L171,27l2.8-5.6L173.1,20.3z"/>
	<path class="st5" d="M219.7,27.2l1.2-0.7l4.5-0.5l0.7-0.7l0.4-1.6l1.5,0.1l1.7,0.8l3.5-0.5h1.1l0.7,1.1l1.9-1l-0.7-2l1.2-0.6
		L239,23l4.1,5.2l1,0.4l2.5-0.1l3.6,2.7l1.9,1.1l2.6,0.5l1.6-2l2.2,1.7l0.7,0.3l2.9-1.5l1.9,0.1l0.8,1.6l-0.9,1.4l0.4,1.6l1.2,1.2
		l-1.1,1.3l-1.9,0.4l0.2,1.7l2.6,0.3l3.8-0.2l0.9-1.3l1.9-0.1l2.3,0.5l1-0.6v-1.1h1l1.1,1.4h2.9l0.2-3.5l1.5-1.2l2.5-1.5h3.4
		l2.5,1.2l2.1,0.2l0.6,1.8l-4.2,4.8l-4.3,0.7l-2.9,0.7l-3,2.1h-1.4l-1.3-0.8l-0.9,1l0.4,1.9l-0.9,4.7l-1.5,2.7l-0.6,0.7l0.3,1
		l0.5,0.7l-0.7,4l0.5,1.2l1.8-0.3l1.8,0.1l0.2,1.3l1.4,0.5l1.4-1l0.7,0.4l-1.1,1.3l0.4,0.9l1.5-0.4l0.6,0.9l-1.1,1.3l-0.6,2.9
		l-1.4,2.8l-3.4,3.2l-2.8,0.6l-3-1.1l-4,0.4l-0.9,1.4l-0.6,2l-0.8,1.5l0.8,1.1l1.8,0.1h0.8l0.2,1.1l-0.8,0.4l-0.9,2.1l-1.4,0.4
		l-2.1-2l-1.1-3.1l-1-1.7l-1.7-0.1l-1.5-1.1l-1.2-0.1v1.5l0.6,1.2l-1,2.3l0.3,4.1l2.1,2.4c0,0,3.2,2,3.2,1.9s3.2-1.1,3.2-1.1
		l2.4,0.6l2.1-0.5l1.4,0.9l-0.3,4.7l-0.7,1.8v2.8l-2.2,2.1l-0.5,2.1l-0.6,0.6l-3,1l-1.3,2.2l-3.5,2.7h-0.9l-0.8,1.1l-1.6-0.1
		l-1.3-1.5l-0.8,0.9l0.5,1.8l-0.6,1.8h-2l-1.5-0.4l-2,0.9h-1.1l-2.9-0.7l-1.6,0.2l-1.5-1.2l-1.2,1.1l-1.5,3.2l-0.9,2.8l0.2,1.3
		l-0.8,1.7l1,2.4l-0.2,4.4l-0.9,0.4l-3.4-0.2l-1.1,1.4l0.7,3.3l-0.5,3.2l-0.5,1.8l-1.4-0.3l-1.4-4l-3.6-3.3l-1.3-0.1l-1.2,1.9
		l-1,0.7l-0.9-0.4l-2.7-2.1l0.2-2.1l-1.1-0.8l-1.6,0.4l-1.9,2.1l-1.6-0.3l-0.5,1.3l0.3,3l-0.9,1.1l-1.9-0.2l-0.5,0.9l2.8,1.7
		l-0.3,1.4l-1.8,1.6l-4,1l-1.4,0.7l-1.8,1.7l-4.1,0.4l-2.3-1.1l-3.6-0.4l-1.7,0.9l-1.7,0.5l-1.2-1l0.4-1.5l4.4-3.9l1.3-2.1l1.2-1.4
		l3.1,0.7l1.6,0.3l1.1-2.5l-0.3-2l-1,0.2l-1.6,0.9l-1.3,0.4l-2-0.3l-0.3-1.1l2.1-1.8l-1.1-4.1l-0.4-2.5l-1.7-3.5l-0.2-0.9l-1-0.4
		l-0.6-1.5l-1.3-0.4l-1.2,0.3l-0.3-0.6l0.6-1.7l-1.3-0.4l-0.7-2.5l0.7-1.6l-2.1-1.7l-1-1.6l-3.2,0.3l-2.3-2.9l-1.9-1.7l-2.5,0.8
		l-1.9,1.2l-0.6,0.2l-0.4-0.6l0.5-0.9l-0.3-2.4l-2.3-3.6l0.9-1.2l2.7-1.5l4.5-5.5l4.1-2.3l1.4-2.1l-0.9-2.8l0.9-0.8l2.4,1.9l3.2-2.5
		l4.1,1.6l2-0.8l1.4,1l3.1-1.3l0.5-14.2l1.3-1.2h16.9l3.4,2.9l2.8-0.5l1.3-0.9l-1.6-6.2l0.1-2l3-4.5l0.7-2L225,51l-1.9-2.7l-1.7-0.9
		l-0.4-2l2.2-1.4l-0.7-2.6l-2.7-1.8l-1.4-3l0.8-2.3l4.7-1.8l0.7-2.8l-0.5-1.6l-3.1-0.3L219.7,27.2z"/>
	<g>
		<text transform="matrix(1 0 0 1 174.1834 54.0423)" class="st1 st2">Biswamvarpur</text>
	</g>
	<g>
		<text transform="matrix(1 0 0 1 171.749 105.0107)" class="st1 st2">Sunamganj</text>
	</g>
	<g>
		<circle class="st3" cx="215.6" cy="77.9" r="13.4"/>
		<text transform="matrix(1 0 0 1 209.5964 85.2222)" class="st1 st4">4</text>
	</g>
</g>
<g id="sunamganj-1">
	<path class="st6" d="M20.2,78.7L23,81l2.7-3.6l-2-2.2L23.1,70l1.8-1.4l-0.4-1.2l-2.2-0.2l-3.4-2.7l-3.3-3L13,57.7l-0.6-0.6l0.7-0.7
		l1.8-0.1l0.9-1.5h0.8l0.3,0.6l0.8-0.8l-1.4-2.1l-0.1-1.6l0.8-1.4L14.8,48l0.6-1.4L13.2,46l1.5-6.5l1.3-0.1l2.2,0.9l1-1.1l-0.7-1.7
		l3.9-0.9l-0.2-2.2l1.4-0.4L22,31.7l-2.5-1.3l2.4-2.9l4.7-0.8l13.8-3.4l7.4-2.6l8-0.6l7.4-2.6l3.6,0.1l5.7,3.6l2.1,0.6l1.8-0.6
		l0.4,2L75,26.4l2.7,6.2l0.6,2.3l-0.6,2.2l-1.5,1.6l1,1.2L68.6,48h-3L63,46.6l0.8-1.8l-3.5-1.3l-0.3,1l-7.6-0.8l-4,2l-1.6,4.8l2,0.6
		l1.9-1.6l0.3,1.6l-1.9,2.2l1.2,3.3l2.5,0.3l1.7,1.7l4.8,0.7l0.7,1.9L59.1,63l1,0.5l1.3,1l0.1,1.7L59,67.4l-0.6,3l1.4,1.1l1.1-1.8
		l1,0.5L65,74l1.5-1.6l2.7,2l3.2-3.5l1.6,2.3l1.5-0.6l0.8,2.4l-1.2,1.3l2.7,1.2l2,2.9l1.4-0.8l1.7,1.6h2.5L84.2,86l-1.7,0.5l0.7,1.1
		l3.3,2.3l1.2,2.3c0,0-1.1,0.9-1.2,0.9s-4.7-1.4-4.7-1.4l-0.9,2l2.7,2.6L83.4,98l-2.6,1.6l0.6,1.6l2.8-0.9l0.4,2.5l4,5.7l2.8,1.7
		l1.1,3.7l4.8,5.2l3.3,0.8l0.5,3.2l3.5,6.8l-2.3,3.5l1,0.9l3-1.9l1.3,1.2l-1.6,3l1.2,1.2l3.7-1.6l2.5,3.2l1.7-2l1.4,1l-0.7,3
		l1.2,1.4l1.8,0.8l0.3,5.1l-2.4,4.2l1.6,4.3l0.1,3.4l-1.9,3.9l1.5,3.4l-0.7,4.9l-2.2-0.5l-0.3-4.1l-2,0.2l-3.2,3.9l-3.6,2l0.3,1.4
		l2.7,0.8l5.6,5.7l2.2-0.1l1,1.9l-4.6,9l-2,1.5l-0.4,2l1.3,2l-0.7,1.4c0,0-2,1.5-2.2,1.5c-0.1,0-2.4-2.9-2.4-2.9l-2.7,1.2l-2.5-0.6
		l-3.9-2.3l-2.8-1l-2-6.5l-3.4-2.3l0.1-2.2l2.2,0.7l0.5-2.6l-4.1-6.4l-1.5-1.6l-3.2,0.4l-1.1-1.4l0.8-1.5l-0.9-1.1l-1.8,1.4
		l-3.5-4.2l-3.5,0.2l-2.5-1.5l-6.4-0.5l-2.6-2.1l-2.2-0.1l-1.7,3.1l0.3,1.6l-3.8,4.9l0.6,2.9l-1,0.9l-2.5-3l-3,2.1l-1.5-1.1l0.1-1.5
		l2.2-0.9l-2-2l-1-1.5l-3.9,2.6l-3.6,0.2l-0.3-3.7l-0.7-1.9l-0.3-4.2l-1.6-1.5l-2.4-0.1l-3.5-1.7l-2.6,0.7l-2.4,0.1l-0.7,2.6
		l-2.9,0.6l-1.5-2l-1.9-1.4l0.3-4.5l-0.6-6.9l-0.8-0.5l-1,1.6l-1.3-1l1.1-1.9l6-0.1l0.9-1.7l2.7-1l0.3-2.8l1.5-2.7l-0.1-1.9
		l-2.3-0.4l-2.3-4l-3-1.9l-1.6,1.3l-3.2-0.1l-0.4-2.1l-1.8-0.2v-2l1.2-1.4l-0.8-1l-2.1-0.3l-0.2-2l3.8-2l-0.3-3.5l0.1-2.5l-2.2-1.1
		l-2,0.6L7,111.2l0.5-1.9l-1.1-1.2l0.2-3.3l1.2-0.9l0.1-2.1l3.2-0.1L15,99l3.9,0.8l2-0.7l-0.2-1l-2.3-0.6l-3-0.8l-0.8-3.1L5,94.3
		l-0.7-1.5L5.7,91l-0.5-1l-1.3-0.1l-0.3-1.1l1-3.3l-1.1-1.4l0.2-1l3.4-0.2l0.2-1.2l-1.4-1.2L5.4,78l-2.1-1.3v-1.3l2.6,0.2l0.9-1.2
		l1.8,1.3l1.9-1.4l2.6,0.6l1.5,3.8l1.9,0.1l0.8,1.3l1.5-0.8L20.2,78.7z"/>
	<path class="st6" d="M64.5,17.4l7.6-4.6L83.7,13l14.2,1.7l8.1-2l12.3,0.1l9.5-2.9l15.7,0.8l7.6,1.5l6.4-0.7l3.2-3.2l4.2-1.3
		l5.3,5.4l5,0.4l1.1,1.5l-3.6,4.6l0.7,2.5l-2.8,5.5l3.7,5.6v1.4l-3,1.2l-0.8-2.9l-1.4,0.1l-1.9,4.7c0,0-3.6,4.4-3.4,4.1
		c0.2-0.3,1.5,3.2,1.5,3.2l-1.2,2.2l-7.5-1.6l-4.3,6.8l-1.1,4.2h1.2l1.1-1.6l1,2.5h2.7l0.9-3.9l3,0.7l2.2,7.8l0.6,9.3l1.4,2.8
		l-0.8,0.7l-1.6-0.5l-1.6,1.7l-6.9-0.2l-0.9,0.8l-6.4-0.4l-2,3.1l-0.1,3.4l-3.7,0.5l-0.4,0.7l-7.6,1.2l-2,0.9l-0.5,2.4l-0.7,0.7
		l-2.2-0.2l-9.1,5.9v2.5l0.2,2l-1.1,0.9l-6-1.6l-2.2-0.7l-2.8,1l-4.7,3.5l-1.3,2.1l-1.7-0.2l-3.2-2.4l0.4-2l3.2-2.7l1.5-2.8
		l-0.1-2.9l-4-3.7l-1-2.1l-3.1-0.2l-3.5-2.2l-1.1,0.5l-0.5,2L85.3,86l-1-0.2l1.1-4.5h-2.5l-1.7-1.7l-1.4,0.8l-2-2.8l-2.7-1.2
		l1.1-1.3l-0.8-2.4L74,73.3L72.4,71l-3.2,3.5l-2.7-1.9L65,74.1l-3-3.8l-1-0.5l-1.1,1.8l-1.4-1l0.6-3l2.6-1.2l-0.1-1.7l-1.4-1l-1-0.5
		l1-1.9l-0.8-1.9l-4.8-0.7L52.7,57l-2.4-0.3L49,53.4l1.9-2.3l-0.3-1.5l-1.9,1.5l-2-0.6l1.6-4.8l4-1.9l7.6,0.8l0.4-1l3.5,1.3L63,46.7
		l2.5,1.5l3.1,0.1l8.6-8.2l-1-1.2l1.5-1.6l0.6-2.2l-0.6-2.3L75,26.4l1.7-3.3l-0.3-2l-1.8,0.6l-2.1-0.6l-5.7-3.7h-2H64.5z"/>
	<path class="st6" d="M109.1,201.5l-0.7,0.7l0.5,0.5l0.6-0.4l1.2,1l1-1.3l0.2-0.7h0.8l2.1,2.3l1.5-0.3l1.5,2.6l2.3,1l0.5,2.2
		l0.4,1.1l1.2,0.3l2.8-1.9l2.2-1.7l-0.6-2.3l1.9-1.9l1.4,0.1l0.8,2.6l1.3,0.1l4.2-5.2l0.2-1.4l-0.5-1.6l1.2-1.6l2.2,0.3l1.8,2.6
		l1.1-0.5l-0.2-2l1.2-1.3l1.3,1.4l1.1-0.3l0.1-1l2.8-0.5l1.1-0.9l0.3-2.1l-0.3-1.6l4,0.1l0.7-1.7l-2.3-3.4l-0.9-3.2l0.7-1.8l0.4-3.2
		l-0.8-2.2l1.2-1.7l3.4,1.6l2.2,2.4l5.9,1.8l0.9-1.2l2.7-1l2.8,2l1.7,2.2l3.6-0.2l0.4-1l-0.2-0.1l-0.1-1.5l-1.2-1.9l-4.1-3.7l0.1-2
		l2.9-3.1l0.9-1.8l4.3-1.3l0.9-2.4l2.5-0.9l0.7-3.2l-1-1.7l-1.5,0.1l-0.4-2.9l0.8-1.3v-1.2l-2.4-0.4l-0.8-4.4l-1-1.9l-0.2-2.3
		l1.9-0.5l0.4-0.5l-1.2-0.5l-2.4,0.4l-0.8-1.2l2.6-6.5h1.6l1.7,1.3l3.9-4.1l2.9,1.2l1.6-2.1l1.4-3.1l-0.5-2.3l0.6-2.6l-0.6-1.4
		l-1.3-0.4l-1.2,0.3l-0.3-0.6l0.6-1.7l-1.3-0.4l-0.7-2.5l0.8-1.6l-2.1-1.7l-1-1.6l-3.2,0.4l-2.3-2.9l-1.9-1.6l-2.5,0.8l-1.8,1.2
		l-0.7,0.2l-0.4-0.6l-0.5,0.9l-2.5,0.1l1.3-3l-1-3.3l-5-0.7l-1.6,2.5l-1.6-0.4l0.5-1.6l-2.2-3v-4.1l-3.7-0.2l-2.9-4l-1.3-0.6
		l-0.8-2.2l-2.1-0.7l-2.9,0.7l-2.3-2.6l-0.8-1.4l-7.7,1.2l-2,0.9l-0.5,2.4l-0.7,0.7l-2.2-0.2l-9.1,5.9v2.5l0.2,1.9l-1.1,0.9
		l-8.3-2.2l-2.8,1l-4.8,3.5l-1.2,2.1l-1.7-0.3l-3.2-2.4l0.4-2l3.2-2.7l1.5-2.8l-0.1-3l-3.8-3.4l-1-2.1l-3.1-0.2l-3.5-2.2l-1.1,0.5
		l-0.6,1.9L85.3,86l-1-0.2l-0.1,0.3l-1.6,0.5l0.6,1l3.3,2.3l1.2,2.3l-1.2,0.9l-4.8-1.4l-0.8,2l2.7,2.6L83.5,98L81,99.6l0.6,1.6
		l2.9-0.9l0.3,2.4l4,5.8l2.9,1.7l1,3.6l4.8,5.2l3.3,0.8l0.4,3.2l3.5,6.8l-2.3,3.5l1,0.9l3-1.8l1.3,1.2l-1.6,3l1.1,1.2l3.7-1.6
		l2.5,3.2l1.7-1.9l1.4,0.9l-0.7,3l1.1,1.4l1.9,0.8l0.3,5.1l-2.4,4.2l1.6,4.3l0.1,3.4l-1.9,3.9l1.5,3.4l-0.7,4.9l-2.2-0.4l-0.3-4.1
		l-2,0.2l-3.2,3.9l-3.5,2l0.3,1.3l2.7,0.8l5.6,5.7l2.2-0.1l0.9,1.9l-4.5,9l-2,1.5l-0.4,2l1.3,2l-0.7,1.4L109.1,201.5z"/>
	<g>
		<text transform="matrix(1 0 0 1 28.1211 136.9264)" class="st1 st2">Dharamapasha</text>
	</g>
	<g>
		<text transform="matrix(1 0 0 1 58.8892 53.2868)" class="st1 st2">Tahirpur</text>
	</g>
	<g>
		<text transform="matrix(1 0 0 1 106.1567 162.2741)" class="st1 st2">Jamalganj</text>
	</g>
	<g>
		<circle class="st3" cx="86.1" cy="97.4" r="13.4"/>
		<text transform="matrix(1 0 0 1 80.0964 104.7222)" class="st1 st4">1</text>
	</g>
</g>
<g id="sunamganj-2">
	<polygon class="st7" points="176,179.2 175.6,180.2 172,180.4 170.3,178.2 167.5,176.3 164.8,177.3 163.9,178.5 158.1,176.7 
		155.8,174.3 152.4,172.7 151.3,174.4 152,176.6 151.6,179.7 150.9,181.5 151.7,184.8 154,188.2 153.4,189.8 149.4,189.8 
		149.7,191.3 149.4,193.4 148.3,194.3 145.5,194.8 145.5,195.9 144.3,196.2 143,194.8 141.8,196.1 142,198 140.9,198.5 139.2,195.9 
		136.9,195.6 135.7,197.1 136.3,198.7 136,200.2 131.9,205.4 130.6,205.3 129.7,202.7 128.4,202.6 126.5,204.5 127.1,206.8 
		124.8,208.5 125,211.4 124.9,214.4 121.2,218.1 119.7,221.2 119.8,223.8 121.7,223.7 123.3,223.9 124.7,224.6 126.9,222 128.4,222 
		130.1,218.2 133,217.7 136.3,215.5 138,215 139.4,212.9 141.7,213.1 143.5,216.9 145.4,218 149.4,217.2 151.4,217.3 152.7,218.3 
		152.6,220.1 151.3,221.1 149,219.9 143.9,219.6 142.2,221 141.2,223.6 144.7,228 147.8,229.9 148.5,231.4 148.4,234.2 147.7,234.5 
		143.5,234.4 142.7,236.5 141,239.2 141.3,244.1 140.5,245.1 138.3,243.4 136.4,241.3 135.2,242.3 134.6,244.6 135.4,245.8 
		138.6,246.5 140.8,247.4 141.9,247 141.8,245.4 143.6,245.2 144.7,246 144,247.5 146.6,247.6 150.3,246 151.4,246.7 153.8,245.7 
		154.7,246.5 153.6,248 154.1,249.4 156.1,249.8 159.3,249.4 161.1,250.8 160.5,252.4 161.9,253.2 163.7,253.6 162.4,255.7 
		162.9,256.9 163.9,255.9 166.6,257.8 171.6,254 171.6,252.1 172.1,251.4 171.8,249.1 172.2,247.7 174.9,246.5 175.4,245.6 
		175.1,244.9 174.2,245.2 172.6,246.1 170.8,246 168.9,244.5 167.9,239.7 169,238.9 172.8,238 175.4,235 176.7,234.9 180.8,237.4 
		184.2,238.7 184.9,238.2 183.7,236.4 184.3,235 186.4,235.1 187.1,236.1 186.9,238.8 189.6,238.5 190.1,239.5 189.6,241.2 
		189.4,243.3 188.4,244 188.4,245.2 189.9,246.5 192,246.4 194.2,247.1 195.1,249.3 193.4,251.2 192.1,253.7 191.1,255.3 
		191.1,256.8 192.2,257.1 194,253.7 200,248 201.4,247.2 202.4,247.6 201.7,249.6 202.8,250.6 205.9,250.4 208,249.1 210.4,250 
		210.3,252.8 212.7,254.7 213.3,256.9 213,258.1 210.5,258.2 209.3,259.5 208.8,262.1 208.9,263 209.9,263.1 210.6,261.9 
		213.6,260.8 217.9,265 219.8,265.6 222.1,265.2 225.3,269 225.4,270.4 223.9,271.4 225.9,273.6 227.9,274.1 229.9,278 229.9,279.6 
		231.3,285.5 232.8,285.5 233.3,284.3 235.3,286.2 237.4,286.3 239.4,285 241.3,285.8 242.9,285.2 243,281.8 244.4,280.8 
		249.2,280.8 249.1,281.9 247.8,284.5 248.3,288.1 250,288.1 250.1,285.6 252.8,286.7 253.7,287.7 253.6,290.4 254.8,291.4 
		255,294.5 256.5,294.8 258.1,293.6 258.4,289.2 261,288.5 261.6,287.2 260.5,286.1 260.5,281.1 259.2,280.7 259.1,279.2 
		263.2,278.1 263.3,272.5 261.7,271.8 260.1,272.1 258.6,270.2 259.2,267.2 259.5,264.3 262.6,262.1 262.3,260.1 259.2,256.7 
		258.6,254.4 257.4,254.2 254.4,249.7 255.1,248 256.4,247.3 257.6,248 257.9,249.3 258.6,249.7 261.8,245.1 263.7,243.2 
		263.7,241.6 264.6,240.8 264.3,240.1 263.3,240.2 262.1,238.8 263.2,235.9 262.3,234.4 262.7,231.6 263.3,230.5 266.1,230.9 
		268.2,228.9 268.1,226.8 265.8,225.6 265.2,224.9 265.9,220.8 262.6,215.1 263.8,213.7 264.1,212.1 263.1,211 258.9,210.1 
		258.2,208.9 258.4,206.9 260.2,204.7 260.1,202.4 259.5,199.8 258.1,197.9 255.2,197.7 250.3,198.5 249.4,196.8 243.9,194 
		242.8,194.9 242.6,197.2 240.8,196.8 239.4,197.6 239.3,200.7 238.2,201.2 237.3,200 237,197.3 231.5,197.7 229.7,198.7 
		228.8,197.5 227.8,197.6 227.6,199.4 226.9,199.8 224.4,198.3 216.6,194.4 216,193.8 217.4,192.7 219.5,192.2 220.4,190.9 
		220.7,188.8 220.5,187.6 218.6,187.7 216.5,188.7 215,188 213.5,189 211.2,189 210.6,187.3 209.2,187.4 208.5,189.7 206.7,190.4 
		205.1,189.9 203.2,186.1 202.7,183.3 196,177.6 193.3,176.3 191.2,177.8 190.9,179.2 190.3,179.6 186.9,177 184.3,178.2 
		178.3,176.3 177.7,179.5 	"/>
	<path class="st7" d="M226,273.6l-2.5,2.5l-2.9,0.4l-3.8-0.6l-1.4,0.8l-2-0.2l-1.4,1l1.6,1.7l3.1,1.6l0.3,1.4l-2.2,3.1l-1.5,2.8
		l-0.9,1.1l-0.9-0.3l-0.3-2.9l-1.1-1.4l-1.2,0.4l-2.1,2.6l-1.5,4.1l-1.3,1.2l-2.8,1l-4.3,3.8l-2,2.6l-1.4-0.5l-0.9-2.3l-0.7-1.9
		l-0.9,0.1l-0.8,2.5l0.6,3.7l0.5,2.9l-0.8,3.7l-0.1,1.6l-0.4,1.4l-2.1,1.5l-1.6,1.4l-0.4,1.1l0.4,1.8l-0.5,2.5l-0.4,5.6l-0.4,1.9h-1
		l-4.1-0.3l-2.6-1.6l-1.7-1.7l0.5-0.9l-0.6-0.5l-2.2,1.1l-1.8,2.7l-0.4,3.6l0.1,3.9l-1.6,1.7l-3.8,1.4l-2.2-0.1l-3.9,1.7l-3.3,2.7
		l-3.2-2.6l-1.5-0.7l-2.2,0.9l-2.8-1.8l-3.8,0.3l-1.1-2.8l1.2-2l-1.2-1l-2.7,0.9l-1-1.7l0.6-0.9l3-1.4l-0.2-1.5l-1.7-2.1v-2.2
		l0.5-1.3l-0.5-1.5l-7.7-2.3l-2.5-0.5l-1.1-1.6l0.7-1.7l0.5-1.8l-1.1-1.9l-1-1.8l0.2-1.5l1-0.1l2.7,1.1l3.2,2.2h2.2l2-2.6h2.5
		c0,0,0.3-5,0.4-5c0.1,0,0.4-4.4,0.4-4.4l1.3-1.9l3.4-0.7l2.5,1.3l1.3,1.2l2.3-0.1l2.3-2.3l0.3-3.5l0.6-1.3l-0.5-1.6l-2,0.3
		l-1.9-0.5l-0.7-0.9l1.4-1.3l0.1-1.2l1.4,0.3l2.6,1.2l2.2-1.4l1.9-2.4l-0.1-1l-0.7-1.4l0.1-2.9l-1-1.6h-2l-5.2-2.7l-2.3-2l-0.2-1.3
		l1.8-1.2l0.5-1.5l0.1-4.2l0.8-2.3l0.4-2.8l-0.9-1.1l-1.3,0.1l-1,1.4l-0.3,2.2l-2.1,1.9l-0.9,1.4l-2.7-0.4l-1.1,0.7l0.2,1.7
		l-0.3,0.4l-1.4-0.8l-1.8-2.1l-0.3,0.7l0.1,2.4l-0.9-0.3l-1-2.1l-1.9-0.6l-3.6-2.9l-2.8-1.7l-4-0.3l-1.4,2l-1.5,2.6l-2-0.2l-1.3-2.4
		l-0.5-2.9l-2.1-0.3l-1.5,0.6l-3.5-0.1l-0.4-1.5l0.8-0.7l2.5-0.2l1.3-2.3l-0.4-1.6l-1.4-1.2l-0.2-2l0.8-0.8l1.5,0.1l1.6,1.9l1.3,0.1
		l0.9-1.6l-1-2.7l-1.4,1.1l-0.9,0.4l-1-0.5l0.4-1.9l-0.4-1.6l-1.8-0.2h-2.6c0,0-1.7-0.8-1.7-1.1s0.4-1.6,0.4-1.6l4.4-2.2l1.8-1.3
		h1.1l1,0.8l1.9-0.5l0.1-1.4v-1.5l2.7-2.1l0.4-1.2l-0.2-1.5l1.2-0.5l1.1-0.9l0.7-1.9l-0.4-1.3l1.9-2.2l1.6-0.1l1.7-3.8l2.8-0.5
		l3.3-2.2l1.7-0.4l1.4-2.2l2.3,0.2l1.8,3.7l1.9,1.1l4-0.7h1.9l1.4,1.1l-0.1,1.8l-1.3,1l-2.5-1.2l-4.9-0.3l-1.7,1.4l-1,2.5l3.5,4.5
		l3.1,1.9l0.7,1.6l-0.1,2.7l-0.8,0.3l-4.1-0.1l-0.7,2.2l-1.7,2.7l0.3,4.8l-0.8,1l-2.2-1.7l-1.8-2.1l-1.2,1l-0.6,2.2l0.8,1.2l3.2,0.7
		l2.2,0.9l1.1-0.4v-1.5l1.7-0.3l1.1,0.8l-0.6,1.4l2.6,0.2l3.6-1.7l1.1,0.8l2.4-1l0.9,0.8L154,248l0.5,1.5l2,0.4l3.3-0.4l1.7,1.4
		l-0.6,1.5l1.4,0.9l1.8,0.4l-1.3,2l0.4,1.2l1.1-0.9l2.6,1.9l5-3.8l0.1-1.8l0.5-0.8l-0.4-2.3l0.5-1.4l2.6-1.2l0.5-0.9l-0.3-0.7
		l-0.9,0.3l-1.6,0.9l-1.8-0.2l-1.9-1.5l-1-4.7l1.1-0.9l3.8-0.8l2.6-3.1l1.2-0.1l4.2,2.5l3.3,1.3l0.7-0.5l-1.1-1.9l0.6-1.4l2.1,0.1
		l0.7,1l-0.2,2.7l2.7-0.3l0.6,1l-0.5,1.7l-0.2,2.1l-1,0.7v1.2l1.5,1.4l2-0.1l2.2,0.8l0.8,2.2l-1.7,1.8l-1.4,2.7l-0.9,1.4l0.1,1.5
		l1.1,0.3l1.7-3.4l6-5.8l1.4-0.8l1,0.4l-0.7,2l1.1,1.1l3.1-0.2l2.1-1.4l2.4,0.9l-0.1,2.8l2.4,1.9l0.6,2.1l-0.4,1.3l-2.5,0.1
		l-1.2,1.3l-0.5,2.6l0.1,0.9l1,0.1l0.7-1.2l3-1.1l4.4,4.2l1.8,0.6l2.3-0.4l3.2,3.8l0.1,1.4l-1.4,1l1.9,2.1L226,273.6z"/>
	<g>
		<text transform="matrix(1 0 0 1 189.2129 217.4186)" class="st1 st2">Derai</text>
	</g>
	<g>
		<text transform="matrix(1 0 0 1 171.312 277.984)" class="st1 st2">Sulla</text>
	</g>
	<g>
		<circle class="st3" cx="178.1" cy="236.9" r="13.4"/>
		<text transform="matrix(1 0 0 1 172.0964 244.2222)" class="st1 st4">2</text>
	</g>
</g>
<g id="sunamganj-3">
	<path class="st8" d="M284.3,200.1l-0.9,0.8l-1.6-1l-1.8,0.7l-0.4-2l-1.5-0.6l-1.6,1.1l-2.8-2.6l-2.1-0.2l-1.7-0.7l-3.4-3l-1.5,0.2
		l-0.7,1.3l1,1.9l-0.6,1.1l-0.8-0.5l-1.2,0.8l-3-1.6l-1.8,1.9l1.5,1.9l0.6,2.5v2.3l-1.8,2.2l-0.2,2l0.7,1.2l4.2,1l1,1.1l-0.3,1.5
		l-1.3,1.4l3.3,5.7l-0.7,4.1l0.7,0.6l2.3,1.2l0.1,2.1l-2,2l-2.8-0.4l-0.7,1.1l-0.4,2.8l0.9,1.5l-1.1,2.9l1.2,1.4l1-0.1l0.2,0.7
		l-0.9,0.8v1.6l-1.9,1.9l-3.1,4.7l-0.8-0.4l-0.3-1.4l-1.1-0.6l-1.3,0.6l-0.7,1.8l3.1,4.4l1.1,0.3l0.6,2.3c0,0,3.1,3.3,3.1,3.4l0.3,2
		l-3.2,2.1l-0.3,3l-0.6,3l1.4,1.8l1.6-0.3l1.6,0.8v2.8l-0.1,2.7l-2.2,0.5l-1.9,0.6l0.1,1.5l1.3,0.5v5l1.1,1.1v0.9l1.2,0.2l1.3-0.5
		l1.7-1l0.8,0.5l-0.4,1.3l-1,1.5l-0.1,1l0.9,0.1l3.2-2.6l1.7-3.3l1.6-0.2l1.6,1.8l1.5-0.1l-0.2-2.4v-0.7l0.9-0.6l3.5,3.1l0.6,1.2
		l0.7-0.6l-0.5-1.8l0.9-0.5l3.5,2.7l2.5-0.3l2,1.8l1.5-0.2l2.8-1.5l0.7,0.7l1,2.9l0.8,0.2l0.2-2l1.2-1l1.9,0.7l1.1,2.2l-0.6,1.6
		l0.8,3.8h1.1l0.5-2.2l3.5-2.5l-0.6-1.5l0.3-3.5l1.8-1l1,3.1l1.8,3l1.3-0.7l-0.9-2.9l0.7-0.7l0.9,0.2l3.5,3.9l2,0.5l2.1,1.8l0.1,3.1
		l1.3,0.4l-0.4-4.5l-0.7-1.6c0,0-0.4-2.4-0.5-2.4s-3.2-0.3-3.2-0.3l-0.2-2.4l1.8-1.5l2.6,0.3l0.1-0.6l-1.3-0.8l1.7-1.4l1.7,0.5
		l0.9,1.3l-0.4,4.8l3.1,1.9l1.4-0.3l-0.2-0.9l-0.7-1.3v-1.1l1.3-1.2l3.6-1.6l2.9,0.3l2.1,0.3l0.4-0.6l-0.5-1.7l1-0.2l2,2l2.1,3.4
		l1.2,2.2l0.5,1.8l2,0.3l1.7-1.1l-0.5-3l-1.2-1.9l1.1-2.8l2.4-0.7l5.2,0.6l1.3-1.4l-0.5-0.7v-3.4l1.6-2.1l0.4-0.6l-0.3-1.5l-0.1-1.7
		l-1.5-0.2l-2.2,0.2v2.4l-0.9,0.7l-1.1-0.7V270l5.6-0.1l2.1-0.9l1.1,0.3l0.6-1.6l-1.4-0.7l-1.3-1.5l0.6-2.4l-0.9-1.3l-1.8,0.1
		l-0.1-1l3-2.3l0.1-1.6l3.2,0.1l0.2,2.2l2.8,0.4l0.5-1.3l0.8-1.6l-0.4-0.7l-0.9,0.3l-0.7-1.3l1-0.8l-3.4-2.7l-1.1-2.8l-1.5-0.2
		l-1-0.9l0.2-0.7h1.9l0.1-1.3l-0.1-0.9l2-1.1l0.7,0.5h2.5l0.5-3l1.5-0.9l0.1-1.5l-1.1-1.6l-1.6,0.2l-0.6-1.4l0.8-0.8l-0.3-1.2
		l-2-0.1l-0.9-1.7l-1.5-0.9l-0.8,1l-1.3,0.1l-0.2-0.7l-1,0.7l-0.5,0.7l-2,0.2l-0.3-1.4l0.7-2.9v-1.3l-1.3-0.8l-4.3,1l-1.7-0.8
		l0.3-0.8l3.4-1.7c0,0,0.7-0.9,0.8-0.9l1.5,1.5l2.5-2.1l0.9-2.9h0.8l0.5,1.7l3.8,2l1.2-0.6l1.7,1l1.3-1.7l-2.3-1.4l0.1-0.9l2.6,0.1
		l0.3-1l-1.6-1.3l-0.4-1.3l0.6-3.1l-0.3-1.3l-1-1.1l-1,0.6L362,212v-1.2l-0.8-0.7l-2.1,1.6l-1.6-1.2l-0.1-2.9l1.7-0.6l-0.3-1
		l-0.2-2.2l-0.4,0.1l-3.5,1.5l-3.4-0.6l-3.4,0.9l-2.1,2.2l-2.7-0.8l0.1-1.4l-4,0.3l-2-2.6l-1.6,0.1l-1.5-2.1l-0.9,1.7l1.3,1.7v2.9
		l-0.9,3.4l-2.3,2.1l-2.9-0.5l0.5-1.7l-0.1-2.3l-2.9-2.8l-4.7-2l-2-1.8l-4.1-0.1l-2.9,1.7l-1.2-0.6l-1.4-4.1l-2-0.1l-2.9,1.1
		l-2.9,2.9l-2.8,1l-1.7-1.2l-0.2-4.3l-1.1-0.8l-3.1,2.9l-1.1-0.3l-0.9-1.5l-1.1,0.3l0.7,2l-0.5,0.7l-1.6-0.9l-1.5-0.3l-2,1
		L284.3,200.1L284.3,200.1z"/>
	<path class="st8" d="M175.9,179.2l1.9,0.3l0.5-3.3l6,2l2.6-1.2l3.4,2.6l0.6-0.5l0.3-1.4l2.1-1.5l2.8,1.3l6.7,5.6l0.5,2.8l1.9,3.8
		l1.6,0.5l1.9-0.7l0.7-2.3l1.4-0.1l0.6,1.7h2.3l1.6-1l1.5,0.6l2.1-1l1.9-0.1l0.2,1.2l-0.3,2.1l-0.8,1.3l-2.1,0.4l-1.5,1.1l0.6,0.7
		l8,4l2.3,1.4l0.7-0.5l0.2-1.8h1.1l0.9,1.2l1.8-1l5.5-0.5l0.2,2.7l0.9,1.2l1.1-0.5l0.1-3.1l1.4-0.8l1.9,0.3l0.2-2.3l1-0.9l2.9,1.5
		l2.6,1.3l0.9,1.7l4.9-0.8l2.9,0.2l1.7-1.9l3,1.6l1.3-0.9l0.8,0.4l0.6-1.1l-1-1.9l0.7-1.3l1.5-0.2l3.4,3l1.7,0.7l2.1,0.2l2.8,2.6
		l1.6-1.1l1.5,0.6l0.3,1.9l1.8-0.7l1.5,1l0.9-0.8l0.2-8.5l-1.8-6.9l-2-1.4h-2.5l-0.4-1.1l1.8-0.7l-0.5-2.4l0.8-4.5l-4-3.6l0.4-1.3
		l2.8-3.3l2.6-0.3l2.3,1.2l0.9-0.6l2.2-3.9h2.2l1.7-1.2l0.2-1l-1.1-2.5l0.3-2.7l-9.4-7.6l-2.5-2.5v-3.1l-1.4-1.1l-2.4-0.6l-0.2-2.8
		l-1.2-3.4l1.4-2.8l2.1-4.9l0.5-1.9l-0.2-2.6l-3.7-3.4l-1.2-3.5l-1.9-1.7l-0.9-3.8l-2.3-3.2l-1.8-1.7l-0.5,0.6l-3,1l-1.4,2.2
		l-3.5,2.7h-0.8l-0.9,1.2l-1.6-0.1l-1.3-1.5l-0.8,0.9l0.5,1.8l-0.6,1.8h-2l-1.5-0.4l-2.1,0.9h-1.2l-2.9-0.7l-1.6,0.2l-1.5-1.2
		l-1.2,1.1l-1.5,3.2l-0.9,2.8l0.2,1.3l-0.8,1.7l1,2.4l-0.2,4.5l-1,0.4l-3.3-0.2l-1.1,1.4l0.7,3.3l-0.5,3.2l-0.5,1.7l-1.4-0.4l-1.4-4
		l-3.6-3.2l-1.3-0.1l-1.2,1.9l-1,0.7l-0.9-0.4l-2.7-2.1l0.2-2.1l-1.1-0.8l-1.6,0.5l-1.9,2.1l-1.6-0.3l-0.5,1.3l0.3,3l-0.9,1.1
		l-1.9-0.2l-0.5,0.9l2.8,1.7l-0.4,1.5l-1.8,1.5l-4,1l-1.3,0.7l-1.8,1.7l-4.1,0.4l-2.3-1.1l-3.6-0.4l-1.8,1l-1.7,0.5l-1.2-1l0.4-1.5
		l4.3-3.9l1.3-2.1l1.2-1.3l4.7,1l1.2-2.6l-0.3-2l-1,0.2l-1.5,0.9l-1.3,0.4l-2-0.4l-0.3-1.1l2.1-1.8l-1.2-4.2l-0.4-2.4l-1.6-3.5
		l-0.2-0.9l-1-0.4l-0.6,2.6l0.5,2.4l-1.4,3.1l-1.6,2.1l-2.9-1.2l-1.1,1.1l-2.8,3.1l-1.7-1.3h-1.6l-2.6,6.5l0.9,1.2
		c0,0,2.3-0.3,2.4-0.4c0.1,0,1.3,0.5,1.3,0.5l-0.4,0.5l-2,0.5l0.2,2.4l1,1.9l0.8,4.4l2.4,0.4v1.2l-0.8,1.3l0.4,3l1.5-0.1l1,1.7
		l-0.7,3.2l-2.6,0.9l-0.9,2.4l-4.3,1.3l-0.9,1.9l-2.8,3.1l-0.1,2l4.2,3.7l1.1,1.8L175.9,179.2z"/>
	<g>
		<text transform="matrix(1 0 0 1 204.2588 163.1237)" class="st1 st2">Dakshin Sunamganj</text>
	</g>
	<g>
		<text transform="matrix(1 0 0 1 278.3184 246.4147)" class="st1 st2">Jagannathpur</text>
	</g>
	<g>
		<circle class="st3" cx="306.7" cy="220.2" r="13.4"/>
		<text transform="matrix(1 0 0 1 300.763 227.5555)" class="st1 st4">3</text>
	</g>
</g>
</svg>
