<?xml version="1.0" encoding="utf-8"?>
<!-- Generator: Adobe Illustrator 25.2.1, SVG Export Plug-In . SVG Version: 6.00 Build 0)  -->
<svg version="1.1" id="Layer_1" xmlns="http://www.w3.org/2000/svg" xmlns:xlink="http://www.w3.org/1999/xlink" x="0px" y="0px"
	 viewBox="0 0 384 292" style="enable-background:new 0 0 384 292;" xml:space="preserve">
<style type="text/css">
	.st0{fill:#C5CFED;stroke:#FFFFFF;stroke-width:1.033;}
	.st1{font-family:'TimesNewRomanPSMT';}
	.st2{font-size:16px;}
	.st3{fill:#FFFFFF;}
	.st4{font-size:24.672px;}
	.st5{fill:#ABBEED;stroke:#FFFFFF;stroke-width:0.5;stroke-miterlimit:10;}
	.st6{fill:#9BB6EA;stroke:#FFFFFF;stroke-width:0.5;stroke-miterlimit:10;}
	.st7{fill:#8BAFE8;stroke:#FFFFFF;stroke-width:0.5;stroke-miterlimit:10;}
	.st8{fill:#6899E0;stroke:#FFFFFF;stroke-width:0.5;stroke-miterlimit:10;}
	.st9{fill:#7CA7E5;stroke:#FFFFFF;stroke-width:0.5;stroke-miterlimit:10;}
</style>
<g id="sylhet-1">
	<path class="st0" d="M31.5,110.1l0.4,1.6l-0.3,0.8l-1.6,0.9v1.4l1.2,0.7l1.2-0.3l1.5-1l1.1,0.5l0.1,1.1l-0.8,0.9l-3.3,0.5l-0.9,2.3
		l-0.7,0.7L27,120l-1.4-0.7l-1.2,0.1l0.1,1.2l1.5,1.2l2.3-0.3h1.1l1.1,0.9l-0.1,1.1l0.9,1l-0.4,2.3l1,0.6l1.9-0.1l2.2,2.3l1.2-0.3
		l1.4-0.2l1.4,1l1.2-0.1l1.2-1.2l1.1,0.1l0.6,0.9v1.1l0.8,0.5l0.3,1.5l-1.6,2.5l0.9,1l0.3,2.6l-1.3,2.2l0.3,1.3l2.9,0.6l3.5-1.5
		l3-1.9l3.4,0.2l-1.3,2.1l-0.5,1.7l1.4,2.3l2,0.2l1.9-1.9l0.2-1.9l0.3-3l1.9-4.6l2.8-1l2.5,1l2,2.5l-0.4,1.5l-1.9,0.5l-0.7,1.1
		l1.5,1.4l0.5,1.4l1.9-0.2l1.1-1.5l0.1-1.5l2.2,0.1l1.1,2.4l2.6-0.9l0.6-1.3l3-0.9l2.1,0.2l1.4,2.1l1-0.4l2.1-2.7h1l2.3,1.4l1.3,2.8
		l-1.3,3l1.3,1l3.8-0.5l1.2,1.3l-0.5,3.8l1.1,1.1l1.2-0.4l1.7,2.4l2,0.2l3.2-0.9l2,2l2.1,0.7l5.4-0.4l1-1.9l0.2-1.6l1.2,0.3l3,1.4
		l1.9-1.3l2.5-0.3l1.5,3.7l3.3,0.9l-0.5,2.3l4.1,0.6l1.3-8.7l-0.7-2.2l1.2-2.8l3.1-0.4l2.4-2.8l1.7,1.5l2.3,0.8l0.4,2.3l1.7,0.3
		l6.9-6.9l0.2-1.7l1.2-0.6l2.3-2l2.7-0.8l0.1-2.1l1.3-1.2l-1.3-0.3l-1.6,0.5l-1.3-1.5l-0.9-6.9l-3-7.1l-3.2-3.9l0.4-2.4l-2.5,0.4
		l-4.9,2.6h-2.1L138,114l-1.3-0.7l-1-2.1l-0.5-2.4l-0.9-1.7l-0.1-1.3l-2.6-1.8l-0.6-2.1l-1.9-3.2l-1-3.1l-2.5-1.7l-0.7-1.4l-0.1-2.7
		h-2.4l-1.8-1.1l-0.5,0.4l-0.9-0.2L117,90l-0.7,2.5l-1.2,1.3l-1.3,0.7l-0.3,1.3l-1.1,1.3L111,97l-2-0.3l-0.6,0.7l-1.1,1.8l-1.2,0.2
		l-1.3-1.1l-1.6,0.5l-6.3-0.6L96,97.6l-0.7,0.8l-1.1,0.1l-1.4,1.6l0.6,1.2l-0.9,0.9l-3.2-1.7l-1.3,0.7l-1.9-0.1l-0.5-5.3l-2.1-1.9
		l-1.8-4.8L77.6,90l-1.1-0.4l0.8-1.9l0.1-2.5l-1-0.3l-0.7,0.6l-1-0.6l-0.5,0.4l-0.4,1.5l-1.5,1L71,88.3l-0.8-0.1l-0.1-1l1.1-1.3
		l0.2-0.9l-0.7-0.4L69.4,86l-2.1,1.4l-1.4,0.5l-2.3-1.5l-0.9-0.9l-1,0.3l-1.4-1.5l-0.2-1.6v-1.1l-0.9-0.1l-2.8,2.9l-0.6,0.9l-1-0.1
		l-1.4-1L49,86.9L47,87l-1.2,1.9l-0.1,2l-0.9,2.2l0.5,1.1v1l-0.6,0.1L44,94.7l-1.2,0.7l-0.9-0.1L40,97.4l-1.2,0.4l0.1,2.3l-0.7,1.1
		l-1.8-0.4l-1.6-0.8l-0.8,0.3l-0.3,1.1l1.5,2.3l-1.7,1.2l1.1,0.9l-1,2.3l-1.6,1.2L31.5,110.1z"/>
	<g>
		<text transform="matrix(1 0 0 1 89.6438 127.4501)" class="st1 st2">Sylhet</text>
	</g>
	<g>
		<circle class="st3" cx="65.1" cy="112.9" r="13.4"/>
		<text transform="matrix(1 0 0 1 59.0964 120.2222)" class="st1 st4">1</text>
	</g>
</g>
<g id="sylhet-4">
	<polygon class="st5" points="42,60.1 43.1,58.4 39.4,55.4 36.7,52.2 36.2,49.6 37,48.8 36.1,46 36.7,45.3 39.1,43.2 38.5,42.3 
		37,43.3 36.3,41.3 37.9,39.9 38.1,37.9 39,36.6 40.3,35.3 39.5,32.6 37.5,32.6 36.6,33.2 35.8,32.6 36,31 36.8,29.5 36.1,27.5 
		37.3,25.2 37,22.7 39.4,22.8 41.4,23.3 43.1,24.1 43.9,26.9 45.8,27.7 47.8,28.8 48.7,28 46.6,26.3 47.3,24.5 47.1,22 48.7,20.3 
		48.6,17.6 46.9,14.8 47.9,12.5 50.4,10.1 51.9,9.7 52.4,10.7 52,12.8 53.1,14.5 55.1,15.4 56.7,15 57.4,15.7 60.1,16.8 62.5,15.9 
		64.7,15 70.1,14.2 73.9,14.5 74.1,13.9 72.9,13.1 73.3,12.3 77.2,12.6 78.6,12.7 81.3,9.8 82.6,9.9 83.5,9.1 88.5,9.4 90.8,10.7 
		93.3,11.2 93,12.3 91.5,15 91.4,18 91.1,19.5 92.6,21.2 92.8,23.1 91.3,25.8 90.4,27.2 91.2,31.4 92.5,34.2 96.3,36.8 96,37.6 
		94.4,39 93.5,41.7 93.9,43.5 95.7,44.4 96.4,45 96.6,46.5 95.6,47 92.2,47.1 90.1,48.9 89.7,50.1 90.3,50.6 91.2,49.9 92.2,51 
		93.5,51.8 94.5,52.2 95,54.3 96.7,54.9 96.5,55.8 95.1,56.2 93.1,58.9 93.1,60.4 94,61.2 93.7,62.4 92.2,62.1 91.6,63.7 91.2,66.1 
		89.9,68.6 90.7,70.2 91.2,70.8 90.5,71.7 91.3,72.5 92.9,72.5 93.3,75.4 93.7,77.7 94.5,81.2 95.9,82.3 95.7,83.7 95,84.7 
		93.6,84.8 92.1,85.3 91,84.6 90.3,83.9 89.8,84.8 89.5,86.7 88.7,88.5 87.9,89.1 86.6,87.5 85.3,88.2 82,89 77.6,90 76.4,89.6 
		77.2,87.8 77.3,85.3 76.4,84.9 75.6,85.6 74.5,85 74,85.4 73.7,87 72.2,88 71,88.3 70.1,88.2 70,87.2 71.1,85.9 71.3,84.9 
		70.6,84.6 69.4,86 67.3,87.4 65.9,87.9 63.7,86.4 62.7,85.6 61.8,85.8 60.3,84.3 60.2,82.8 60.1,81.6 59.2,81.5 56.4,84.4 
		55.7,85.3 54.7,85.1 53.3,84.1 51.8,85.1 49,86.9 47,87 45.7,88.9 45.6,91 45.1,92 44.7,93.2 45.2,94.3 45.2,95.2 44.6,95.3 
		43.9,94.7 42.7,95.4 41.8,95.4 39.8,97.4 38.6,97.8 38.7,100.1 37.9,101.2 36.2,100.8 34.5,100 33.8,100.3 33.5,101.4 35,103.7 
		33.3,104.9 34.5,105.9 33.5,108.2 31.9,109.4 31.5,110.1 30.7,110.2 29.8,107.9 29.7,106.1 29.2,104.8 27,104.1 21.9,102.4 
		19.6,101.9 17.4,101.5 14.2,99.3 13.1,97.2 13.4,96.4 14.8,96.3 17.9,98.4 21.1,98.7 25.2,98.8 27.3,97.6 27,96.3 23.7,95.8 
		21.7,93.1 20.1,90.7 18.8,89.7 15.2,88.3 14.3,87.7 14,86.4 15.3,85.8 19.1,85.7 20.5,84.6 20.6,83.4 17.8,79.4 16.7,78.6 16,78.5 
		15.6,78 16.3,77.3 17.7,77.1 19.6,77.7 21.5,77.2 22.6,75.9 22.7,74.2 22.1,72.9 20.9,71.9 20.9,70.4 22.9,67.9 23.7,67.5 
		25.5,67.8 28.3,67.2 30.9,66.5 31.3,64.9 31.4,63.5 32.3,62.8 33.9,63.8 35.2,64.1 36.3,63.8 38.6,64.6 41.7,64.2 43.3,63 
		43.3,62.1 42,61.6 41.7,60.7 	"/>
	<path class="st5" d="M93.1,12.1h4l2.1-1.6l2.3,0.2l2.2-1l1.7,1l0.9-0.1l2.3-1.3l3.8,0.1l2-1.7l4.4,0.1l2.5-0.7l2.2-0.2l2.3,0.5
		l2.4,0.1l1.9,1.9l1.3-0.6l1.2,0.3l2.8-0.3h4.4l4,0.1l1.2,0.9l0.7,0.7h1l2.9,1.4l1.2,0.1l2.7-2.3l3.9-3.6l2.2-1.2l3.4-0.6l2.7-0.3
		l1.4,0.8l0.1,1.4l1.1,0.9l1.1,0.8l1.2-0.1l0.2-1.3l1.5-0.4l0.8-0.7l2.1,1l0.6-0.4l0.2-1l2.4-0.3l1.8-0.4l2.4,0.5L183,5l0.9-0.8
		l0.7,0.3v0.7l-1.7,2.4v0.7l2.8,1.3l-0.3,1.7l0.7,1l0.1,2.4l-0.9,1.7l-1.1,0.8l-1.2,0.5l-1.8,2.3l-0.3,2.5l1.1,2l0.2,0.6l-1.1,0.9
		l-0.3,0.7l0.5,0.6l2.4-1.2L185,27l0.7,0.9l2,0.3l2.1,1.1L190,30l-1.1,0.7v0.6L191,35l0.3,2.5l1.8,0.3h1.3l-0.1,1.8l2.3,0.6l1.8,2
		l0.9,7.5l0.7,0.6l2.3-1.3l4.3-1.5l2.6,0.3l1.4,1.3l-2.7,1.9l-1,2.6l-0.4,1.1h-0.9l-1.9-0.1l-1.6,1.9l-1.6,0.6l0.3,1.9l1.3,0.3
		l0.5,0.4l-1.1,1.3l-1.5,1.5l-4.5,1.4l-3,1.6l-0.7,2.6l0.4,2.3l-0.2,2.7l0.2,1l2.1,0.9l1.9,0.4l1.2,1l-0.3,1l-1.7,0.4L195,80v1.2
		l-1.1,0.3l-1.7,0.9l-0.4,1.3l-2,2.2l-1.8,0.8h-2.3l-1.2-0.7l0.4-1.8l-0.7-0.4l-1.1,1.8l-0.6-0.9l0.7-0.9l-1.4-0.6l-0.8-0.6
		l-0.9,0.9l-0.6,0.9v1.3l-1.6,0.1l-1.3-0.6l-1.7-2.4h-1.1l-1.2,2l-1.4,0.8l-1.9-0.4l-0.3,0.6l0.8,1v1.4l-0.9,0.5l-1.6-0.1v1.7
		l-1.1,0.4H165l-0.5,0.8l-2.1,0.2l-0.5,1.3l-1.5,2.2l-0.3,3.6l0.1,3.1l-0.2,1.7l-0.7,0.9l-1.6-0.5l-0.8,0.5v1.3l-0.6,1.2l0.1,0.7
		l0.5,0.6l-0.5,0.8l0.1,1.6l-1.2-0.1l-1.4-0.1l-2.4,1l-2.6,0.4l-3.4,1.7l-1.4,0.8h-1.9l-3.8-0.3l-1.3-0.7l-1-2.2l-0.5-2.3l-0.9-1.7
		l-0.2-1.4l-2.6-1.8l-0.7-2.1l-1.9-3.2l-1-3.1l-2.5-1.7l-0.7-1.4l-0.1-2.7h-2.4l-1.8-1.1l-0.5,0.4l-0.9-0.1l-2.2,1l-0.7,2.5
		l-1.2,1.3l-1.3,0.7l-0.3,1.3l-1.1,1.3L111,97l-2-0.3l-0.5,0.6l-1.2,1.9l-1.2,0.2l-1.4-1.1l-1.6,0.5L97,98.2l-1-0.6l-0.8,0.8l-1,0.1
		l-1.4,1.6l0.6,1.3l-0.8,0.9l-3.2-1.8l-1.4,0.7l-1.9-0.1l-0.5-5.3l-2.1-1.9L81.7,89l3.5-0.8l1.4-0.7l1.3,1.5l0.8-0.6l0.8-1.8
		l0.3-1.9l0.6-0.9l0.6,0.7l1.1,0.8l1.4-0.5l1.5-0.2l0.7-1l0.2-1.4l-1.5-1l-1.6-8.7l-1.5-0.1l-0.9-0.8l0.7-0.9l-0.5-0.6l-0.8-1.6
		l1.4-2.5l0.4-2.4l0.7-1.6l1.4,0.3l0.4-1.2l-1-0.8v-1.5l2.1-2.7l1.3-0.4l0.2-1l-1.6-0.5l-0.5-2.1l-1.1-0.4l-1.3-0.8l-1-1.1l-0.9,0.7
		l-0.5-0.6l0.4-1.1l2.1-1.8l3.4-0.2l1-0.4L96.4,45l-0.6-0.7L94,43.5l-0.5-1.9l1-2.7l1.6-1.3l0.3-0.8l-3.8-2.6l-1.3-2.8l-0.8-4.2
		l2.5-4.1l-0.3-1.9l-1.4-1.7l0.3-1.5l0.1-3l1.5-2.7L93.1,12.1z"/>
	<polygon class="st5" points="184.2,4.8 184.4,3.6 186.5,3.7 187.3,4.6 189.8,4.4 192.6,6.4 193.7,5.8 198.2,7.9 200.1,8.3 
		201.9,9.2 203.4,9.3 205.8,11.2 208.1,12.2 209.8,13.1 211.2,14.7 212.2,14.9 214.2,15.3 216.4,17 216.6,18.1 219.7,18.7 219.7,20 
		217.6,20.1 217.2,22.4 217.6,22.7 217.4,25.2 220.4,25.1 221.8,26 221.2,26.8 220,26.1 218.3,26.1 218.5,27.1 220.7,27.6 
		222.4,28.4 224.2,26.5 226,27.8 225.4,28.6 228,29 229.5,28.2 231.5,28.4 231.8,29.2 230.5,29.3 228.3,29.6 228.6,30.8 230.7,30.7 
		230.6,31.4 228.3,32.2 229.6,33.2 231.9,31.7 234.9,32.5 235.6,34.4 237,34.7 237.7,36.4 238.5,36.2 238.6,33.5 240.4,29.5 
		240.6,28 241.6,28 244.1,30.4 243.6,31.9 245.6,32.6 251.4,35.1 254.7,36.8 254.6,37.7 253.6,37.8 250,36.2 247,35.9 245.4,36.8 
		244.8,39.3 244,40.9 245.3,42 247.1,41.8 249,41 253.3,43.3 254.7,44.2 254.5,46.4 256.4,47.9 256.1,49 253.6,47.9 253.1,48.8 
		253.1,51 251.5,53.3 251.3,55.7 250.4,57.5 248.1,58.5 246.4,61 247.1,62 249.8,61.9 251.8,62.9 256.3,64.3 257.6,64 259.5,65.3 
		259.6,66.7 256.8,68.1 254.7,69.8 254,71.6 251,72.3 249,71.6 247.3,65.2 246.5,63.2 244.8,63.2 241.1,65.1 238.2,66.1 235.1,66.6 
		234.4,67.3 234.4,68.7 233.9,70.5 232.2,72.5 231.8,75.1 227.6,84.4 227.6,88.4 224.4,93.1 222.2,93.4 218.9,97.3 216.4,98.1 
		214.1,98.1 212.3,99.4 207.7,100.2 204.5,100.7 201.8,99.6 198.3,101 194.6,101.7 192.9,100.2 192.2,101.4 190.7,100.4 
		189.1,101.1 189,102.4 189.6,103.3 189.1,104.7 187.2,105.1 187,106.4 187.6,108.4 184.6,112.1 179.4,111.3 176.9,115.9 177,116.9 
		176.3,117.1 173.4,117.8 172,119.9 170.2,124 170,128.4 169.7,129.4 166.4,131.6 165.9,131 163.6,132.8 161,132.3 159.4,132.8 
		158.1,131.3 157.2,124.5 154.2,117.5 151,113.5 151.4,111.1 153.7,110.1 156.3,110.4 156.3,108.9 156.8,108.1 156.2,107.5 
		156.1,106.7 156.7,105.5 156.8,104.2 157.5,103.7 159.1,104.2 159.9,103.3 160,101.5 159.8,98.5 160.2,95 161.7,92.8 162.2,91.5 
		164.3,91.3 164.8,90.5 166,90.6 167.1,90.2 167.2,88.5 168.6,88.6 169.6,88.1 169.7,86.6 168.8,85.7 169.2,85 171,85.4 172.5,84.6 
		173.7,82.7 174.8,82.7 176.5,85.1 177.7,85.7 179.3,85.6 179.3,84.3 179.9,83.4 180.9,82.4 181.6,83.1 183.1,83.7 182.4,84.6 
		183,85.4 184.1,83.6 184.8,84 184.4,85.9 185.6,86.6 187.9,86.6 189.8,85.8 191.7,83.7 192.1,82.4 193.9,81.4 195,81.2 195,79.9 
		195.3,77.9 197,77.5 197.3,76.4 196,75.4 194.3,75 192.2,74.1 191.9,73.1 192.2,70.4 191.8,68.2 192.5,65.6 195.5,64 199.9,62.6 
		201.5,61 202.5,59.8 202,59.3 200.7,59.1 200.4,57.2 202,56.6 203.6,54.6 206.3,54.7 207.8,51.1 210.5,49.2 209.1,47.9 206.6,47.6 
		202.3,49.1 200.1,50.3 199.3,49.7 198.4,42.3 196.6,40.2 194.3,39.6 194.4,37.8 193,37.8 191.3,37.5 191,35 188.6,31.8 188.6,31.2 
		189.6,30.5 189.4,29.8 187.5,28.7 185.4,28.4 184.7,27.5 183.3,26.6 180.9,27.9 180.5,27.2 180.7,26.5 181.8,25.5 181.6,25 
		180.5,22.9 180.9,20.4 182.7,18.2 183.8,17.6 184.9,16.8 185.8,15.1 185.7,12.6 185.1,11.6 185.3,9.9 182.5,8.6 182.4,7.9 
		184.1,5.5 	"/>
	<g>
		<text transform="matrix(1 0 0 1 38.6662 61.1371)" class="st1 st2">Companiganj</text>
	</g>
	<g>
		<text transform="matrix(1 0 0 1 126.9065 79.5204)" class="st1 st2">Gowainghat</text>
	</g>
	<g>
		<text transform="matrix(1 0 0 1 172.9758 40.766)" class="st1 st2">Jointiapur</text>
	</g>
	<g>
		<circle class="st3" cx="127.1" cy="31.9" r="13.4"/>
		<text transform="matrix(1 0 0 1 121.0964 39.2222)" class="st1 st4">4</text>
	</g>
</g>
<g id="sylhet-5">
	<path class="st6" d="M256.2,48.3l1.6-0.2l2.1-1.8l1.4,0.7l2.8,1.3l3.1,1.4l1.5,0.9l2.3,0.9l2.7,0.4l5.1,1.6l3.5,1.1l2.6,0.5
		l3.1,1.3l2.5,0.9l4.2,0.8l2.9-0.6l1.2-1.4l1.9-2.1l4.8-0.3l2.3,1.5l3.4,0.5l0.7,2.4l0.2,2l-0.5,2.9l-2.7,3.1l-0.9,1l0.5,1.1h1.7
		l1.1,0.9l1.4-1.3l1.7,0.6l1.2-1.2l0.7-0.1l0.2,1.8l0.9-0.2l0.6-1.4l2,1l0.7,1l-0.3,2.2l1.1,0.3l0.9-1.8l1.1,0.2l1.2,1.9l1.8,0.2
		l1.3-1.2l3.3,1.1l2.8,3.2l1.9,0.3l1.2-0.2l1.8,1.3l1.6,0.6l0.8-0.6l1.8,0.1l0.7,0.8h0.8l0.1-1.4l1.3,0.2l0.7,2.6l-0.1,2.4l-1.3,1.1
		l0.6,2.4l-0.9,4.2l-1.6,3.6l-1.2,3.2l-2.3,1.2l-2.5,0.8l-3.9-0.8l-3.7,0.3l-0.5-1.4l0.2-3.7l-2.8-3.2l-1.8,0.1l0.1,2.1l-0.8,3.2
		l-0.3,4.1l-0.7,1.4l-2.2,0.1l-2.5-0.2l-1.2,1.5l-0.9,3.3l-0.3,3h-2.6h-3.1l-0.9-1.8l-0.4-1.9l-2.2-0.3l-1.5-1.5l-1,0.2l-0.7,7.8
		l-0.5,1.4l-2.3,0.7l-1.9-0.9l-1.2,1.2l-0.7,1.9h-1.8l-7.8-3.2l-2.8-1.8l-0.8-2l0.6-1.5l0.7-0.6l-0.8-2.5l-0.6-2.5l-1.7-1l-4.5-0.3
		l-1.2-0.1l-0.7,1.8l-1.1,0.9l-1.1,0.1l-0.3,2.1l-0.4,0.6l-3.2-0.3l-2.3,0.9l-1.6,1.8l0.2,1.9l0.1,1.9l-0.6,1.9l-0.5,0.7l-1-0.3
		l-2.4-2.1l-2.8-0.7l-2-0.7h-2l-1,1l0.4,1.8l2.3,2l1.2,2.1l0.2,1.6L256,119l0.1,1.6l-0.4,0.8l-1.7-0.1l-2.2-1l-0.7-0.7l-1.5,1.3
		l-1.7,2.9l-1.9,0.3l-2.4-0.5l-2.1,1.1L239,125l-0.9,0.7l-1.4-0.4l-2.5-4.3l-0.6-2.7l-1.4-1l-3.2,0.8l-1.3,1.7l-0.1,2.4l0.9,4.9
		l-0.4,1.3l-1.6,1.5l-1.4,2.7l-0.5,1.3l-0.4,1.7l-2,2.1l-4.1-1.2l-0.7-0.7l-1,0.4l-0.2,1.5l-4.7,0.9l-1.6,0.4l-1.4,1.2l-0.8,1.4
		L207,144l-0.7,1.2l-1.9-0.4l-2.7-1.9l-1-1.1l-0.9,0.1l-1.3,0.6l-2.5,0.1l-0.9-0.6l-2.2-2.5l-3.1,0.9l-0.2,1.5l-4.8,4.8l-0.9,1.1
		l-2.1-0.1l-2.5,0.4l-1.9,0.6l-3,0.2c0,0-1.8,0.5-1.9,0.5s-2.7-0.5-2.7-0.5l-1.5-1.5l1.5-2.7l3.3-3.9l-0.1-1.3l-1.1-1.7l0.5-0.8
		l1.4-0.2l-0.2-1.5l-2.2-1.9l-1.2-0.5l-0.6-3.1l0.3-1l0.2-4.4l1.8-4.1l1.5-2.2l3-0.6l0.5-0.2v-1l2.5-4.6l5.2,0.9l3-3.7l-0.6-2.1
		l0.2-1.2l1.9-0.4l0.5-1.4l-0.6-1l0.1-1.2l1.7-0.7l1.5,0.9l0.7-1.1l1.7,1.5l3.8-0.8l3.4-1.4l2.8,1.2l7.7-1.3l1.8-1.3h2.3l2.5-0.7
		l3.3-4l2.2-0.3l3.2-4.7l-0.1-4l4.3-9.4l0.3-2.6l1.7-2l0.5-1.8v-1.4l0.7-0.7l3.1-0.5l2.8-1l3.7-1.9l1.6,0.1l0.9,2l1.7,6.4l1.9,0.7
		l3.1-0.8l0.7-1.8l2.1-1.7l2.8-1.3l-0.1-1.5l-1.9-1.2l-1.3,0.3l-4.5-1.5l-2-1l-2.6,0.1l-0.7-1l1.6-2.5l2.3-0.9l0.9-1.9l0.2-2.4
		l1.6-2.3v-2.2l0.5-0.8l2.5,1.1L256.2,48.3z"/>
	<polygon class="st6" points="253.4,121.6 255,123.7 254.6,126.2 254.5,127.7 255.5,128.3 254.9,130.5 255.2,131.9 256.1,132.6 
		260.9,133.7 261.8,134.8 261.6,135.5 260.2,135.3 259.8,136.9 259.5,139.4 261.9,140.8 264.1,139.1 267.2,137.1 269.4,136.4 
		273.4,137.2 276.8,137.1 278.9,138 283.2,137.8 284.6,135.6 286.1,133.9 288.4,133 290.9,133 293.1,134.1 293.9,135.6 294.3,138.8 
		295.8,140.7 298.2,142.1 299.7,142.2 302.1,141.3 303.4,141.9 303.3,144.1 304.1,145.7 306.2,147.7 308.7,150.7 309.7,150.6 
		310.9,148.5 310.9,145.5 310.7,143.6 311.3,142.9 312.3,143.4 314.2,146.9 315.6,149.9 317.7,150.1 318.4,150.5 318.9,152.6 
		319.9,153.3 321.1,152.9 322,151.5 323.6,151.4 324.6,153 325.5,157.3 326.8,158.4 328,159 328.4,161.6 328.9,162.7 330.6,162.9 
		332.9,163.6 335.3,164.2 336.6,164.1 336.6,161.1 337.4,159.2 340.1,158.8 342.3,159.7 345.3,161.6 346.4,162 350.8,160.9 
		352.9,160.3 353.3,159 353.4,154.8 353.4,153.8 354.6,152.8 357.5,152.2 361.2,151.4 364.5,152.2 367.5,154.1 368.4,154.7 
		368.9,154.1 369.2,152.6 370.6,152.1 372.3,152.2 373.2,151.6 373.6,150.2 373.5,149.4 374.5,148.4 375.7,146.3 376.3,144.8 
		376.1,142.2 375.7,139.5 377.2,137.8 378.4,136 377.7,135.1 375.7,134.1 375.2,133.2 375.5,132.1 376.7,130.7 375.9,129.6 
		373,128.6 371.6,125.9 371.7,122 372.7,119.2 373.6,117.2 373.6,115.5 371.9,115.6 368.2,118.4 367.1,118.9 362.2,118.7 358,120.5 
		356.7,120.6 355.6,118.9 356.6,115 358.6,112.3 360.9,111.9 363.2,111.7 364.4,110.6 364.9,108.8 362.3,106.5 360.5,105.1 
		358.8,105.8 356.1,108 354.2,107.8 352,107.4 349.8,107.5 344.6,108.1 342.5,107.8 343,104.9 344.2,99.9 344.3,95.8 341.9,95.7 
		339.4,97.1 336.9,97.9 333,97.1 329.3,97.4 328.8,96 329,92.4 326.2,89.1 324.4,89.2 324.5,91.4 323.6,94.6 323.3,98.8 
		322.6,100.2 320.4,100.3 317.9,100 316.7,101.5 315.8,104.8 315.5,107.8 309.8,107.8 308.9,106 308.4,104.1 306.3,103.8 
		304.7,102.2 303.7,102.4 303,110.3 302.5,111.6 300.2,112.3 298.3,111.4 297,112.6 296.4,114.4 294.5,114.5 286.7,111.2 
		283.8,109.5 283,107.5 283.6,106 284.3,105.4 283.5,102.9 282.8,100.3 281.2,99.4 275.6,99.1 274.8,100.9 273.7,101.8 272.6,101.9 
		272.3,104 271.8,104.7 268.6,104.4 266.3,105.3 264.7,107.1 265.1,111 264.5,112.9 264,113.6 263,113.3 260.6,111.2 257.3,110.3 
		256,109.8 253.9,109.8 253,110.8 253.3,112.6 255.7,114.6 257,116.7 257.2,118.2 255.5,119.1 255.6,120.7 255,121.5 253.6,121.5 	
		"/>
	<g>
		<text transform="matrix(1 0 0 1 244.2004 85.2777)" class="st1 st2">Kanaighat</text>
	</g>
	<g>
		<text transform="matrix(1 0 0 1 298.4074 132.2431)" class="st1 st2">Zakiganj</text>
	</g>
	<g>
		<circle class="st3" cx="275.1" cy="107.9" r="13.4"/>
		<text transform="matrix(1 0 0 1 269.0964 115.2222)" class="st1 st4">5</text>
	</g>
</g>
<g id="sylhet-6">
	<polyline class="st7" points="197.7,194.6 197.5,196.7 198,197.9 196.6,198.4 195.5,199.2 195,198.7 194.2,196.4 194.4,195.4 
		193.2,194.8 192.9,192.7 192.1,192.7 192.1,194.5 191.2,196.1 192.6,198.7 190.7,200.4 191.1,201.1 194.1,201 196.5,203.7 
		196.5,204.3 195.3,204.4 194.9,204.9 196.6,206.2 201.3,206.7 202,206.1 202.7,206.8 202.7,208.6 203.9,210.3 208.4,210.3 
		210.2,208.6 210.8,206.5 214.8,205.8 216.9,208.1 218.3,208.2 222.6,205.4 225.3,205.7 226.5,204.7 228.9,204.7 232.2,203 
		233.7,202.9 235.2,202.3 238.7,201.7 240.9,203.1 242.8,203 243.7,204 244.9,204.1 247.5,202.4 248.3,199.9 247.3,197.9 
		247.8,196.6 246,193.6 245.9,191.2 247.1,188.6 247.2,186.3 248.3,185.5 249.5,185.6 250.4,187 251.9,185.8 253.6,186.9 
		254.7,185.8 253.9,184.6 253.9,183 255.4,182.5 258,180.6 260.8,180 261.7,178.4 262.6,178.3 264.7,179.2 266.5,179.2 268.1,177.7 
		267.7,175.6 265.1,175 264.6,174 264.9,173 265.8,173.2 267.1,173.9 269.4,173.4 270.6,172.1 271.3,171.5 270.9,170.6 271.9,169.9 
		271.5,168.8 267.4,168.9 266.5,166.3 266.2,161.4 264.3,160.4 263.8,157.7 265.8,155.6 267.8,156.7 268.6,156.1 267.8,153.9 
		268.7,152.5 268.9,147.1 267.6,145.8 265.7,145.5 265.3,144.2 263.8,144.2 263.4,141 261.8,140.7 259.5,139.4 259.7,136.9 
		260.2,135.3 261.5,135.5 261.8,134.7 260.8,133.7 256.1,132.5 255.2,131.9 254.9,130.5 255.5,128.3 254.5,127.7 255,123.6 
		253.4,121.5 251.1,120.4 250.3,119.8 248.9,121.1 247.2,124.1 245.2,124.4 242.9,123.9 240.7,125 239,125 238.1,125.7 236.7,125.3 
		234.2,121 233.7,118.3 232.3,117.3 229,118.1 227.7,119.8 227.6,122.2 228.5,127.1 228.1,128.4 226.5,129.9 225.1,132.6 
		224.5,133.9 224.2,135.6 222.1,137.7 218,136.5 217.4,135.8 216.4,136.2 216.2,137.7 209.9,138.9 208.5,140.2 207.7,141.5 207,144 
		206.4,145.2 204.3,144.8 201.6,142.9 200.6,141.7 199.8,141.9 198.5,142.4 196.1,142.5 195.1,141.8 192.9,139.3 189.8,140.2 
		189.7,141.7 190.8,143.8 190.7,144.9 188.9,144.7 189.2,145.4 191.7,146.7 191,148.2 190,148.3 191.1,151.5 190.8,153.6 192,154.3 
		191,157.3 191.1,158.6 191.7,158.9 192.8,157.9 194,158.4 195.3,158.2 197.8,159.3 198.8,157.4 198.6,155.9 200.9,154.7 
		201.3,155.6 203.4,155.3 204.7,157 204.6,158.3 201.7,158.9 201.1,161.5 201.7,162.9 200.7,164.6 201.5,165 204.6,165.4 
		206.4,167.5 207,168.8 206,170 206.1,172.5 204.8,172.9 203.6,175.2 202,176.2 202.3,176.8 203.8,177.3 203.6,178.7 202.7,179.8 
		200,180.4 198.9,181.9 198.1,182.1 198.1,184.6 199.2,186.1 200.7,186.1 201.6,186.7 201.3,187.2 199.2,187.1 198.9,187.6 
		199.2,188 201,188.2 201,188.9 200.1,189.6 198.7,190.6 196.8,189.3 195.2,192.5 196.4,193.2 194.7,193.8 195.1,194.5 197.8,194.7 
			"/>
	<path class="st7" d="M162.2,132.6l-1.4,1.2l-0.1,2l-2.7,0.8l-2.3,2l-1.2,0.5l-0.2,1.7l-6.9,6.9l-1.7-0.3l-0.4-2.3l-2.3-0.8
		l-1.7-1.6l-2.4,2.9l-3.1,0.4l-1.1,2.8l0.7,2.2l-1.2,8.6l-4.1-0.7l0.1,2.3l2.3,0.5l-0.3,3.4l-1.1,2.4l-2.6,0.6l-0.2,2.3l0.5,0.4h3.1
		l0.9,2.2l-0.4,2.8l0.7,3.2l3.8,4.1l2,0.4l1.7-2.3l2.5-0.2l2.6,1.1l-0.3,4.2l2.5,0.7l-1.6,1.8l0.2,2.4l2.9,0.1l-0.4,3.1h-2.6l-0.6,2
		l-2,0.4l-0.2,2.3l1.6,0.6l-1.5,6.3l-0.2,4l2.2-0.2l0.9,1.5l-0.4,2.8l-0.8,0.9l0.5,1.1l-1.3,0.6c0,0,2.6,3.8,2.5,3.8
		s-1.1,0.9-1.1,0.9l1.3,1.9l2.6,0.9l3.2-0.5l1.1-0.9v-1.7l1.7,0.3l0.4,1.5l1.9,1.1l-0.8,1.6l0.5,0.3l1.6-0.9l1,0.5l-1.4,1.7l-3,3.1
		l0.9,1l1.8-0.4l1.3,1h2.2l0.6,1.2l3.3-1l2,0.1l1.7,2.3h3.3l3.6,3.2l2.8-3l1.2,1l-0.6,1.5l2.6,0.4l0.6,1.5l1.4-0.4l-0.5-1.7l1.5,0.1
		l1-1.8l1.7-2.1l-0.9-4.2l0.6-1.6l-1-1.4l0.1-2.1l1.4-0.3l1.8,1.6v3.5l2,0.1l2.5,0.6l1.2-2.3l1.6-0.7l-0.6-1.2l0.1-3.1l1.3-0.1
		l0.7-2.9l-0.4-4.8l-3.1-0.4l0.4-5.6l-0.8-1.5l0.9-1.2l-1.1-1l0.4-0.5l1.2-0.1v-0.6l-2.5-2.6l-2.9,0.1l-0.4-0.7l1.9-1.7l-1.4-2.6
		l1-1.6v-1.8h0.7l0.3,2l1.2,0.6l-0.3,1l0.8,2.3l0.5,0.4l1.1-0.7l1.4-0.4l-0.5-1.3l0.3-2l-2.6-0.1l-0.4-0.7l1.5-0.6l-1.1-0.7l1.6-3.1
		l1.9,1.2l2.4-1.6l-0.1-0.7l-1.9-0.3l-0.2-0.4l0.3-0.4h2l0.3-0.4l-0.9-0.6l-1.5-0.1l-1.1-1.5v-2.5l0.7-0.3l1.2-1.5l2.6-0.6l1-1.1
		l0.1-1.5l-1.5-0.5l-0.2-0.6l1.6-1l1.3-2.3l1.2-0.4v-2.5l1-1.3l-0.6-1.3l-1.9-2.1l-3-0.4l-0.8-0.4l0.9-1.7l-0.6-1.4l0.6-2.5l2.9-0.6
		v-1.3l-1.2-1.7l-2.1,0.3l-0.5-0.9l-2.2,1.2l0.3,1.5l-1.1,1.9l-2.4-1l-1.3,0.2l-1.2-0.5l-1,1l-0.6-0.4l-0.1-1.3l1-3l-1.2-0.7
		l0.2-2.2l-1-3.1l1-0.1l0.6-1.5l-2.5-1.4l-0.2-0.7l1.7,0.2l0.1-1.1l-1.1-2l-4.8,4.9l-0.9,1.1l-2.1-0.1l-2.5,0.4l-1.8,0.6l-2.9,0.2
		l-1.9,0.5l-2.7-0.5l-1.4-1.5l1.5-2.7l3.3-4l-0.1-1.3l-1.1-1.7l0.5-0.8l1.4-0.2l-0.1-1.5l-2.3-1.9l-1.2-0.5l-0.6-3.1l-3.2,2.1
		l-0.6-0.5l-2.3,1.7L162.2,132.6z"/>
	<g>
		<text transform="matrix(1 0 0 1 215.1203 170.0287)" class="st1 st2">Beanibazar</text>
	</g>
	<g>
		<text transform="matrix(1 0 0 1 153.1978 207.181)" class="st1 st2">Golapganj</text>
	</g>
	<g>
		<circle class="st3" cx="196.1" cy="162.9" r="13.4"/>
		<text transform="matrix(1 0 0 1 190.0964 170.2222)" class="st1 st4">6</text>
	</g>
</g>
<g id="sylhet-3">
	<path class="st8" d="M74.9,143.7l-2.5-0.2l-0.6,1l0.5,0.6l1-0.1l0.8,2.2l-0.1,2l-1.4,0.8l0.8,2.3l0.5,1.6l-0.6,1.4l-0.8,0.6
		l0.6,1.2l1.5-0.7l1.3-4.2l1,0.1l0.6,0.8l-0.8,3l-1,1l0.5,1.3l1.3,0.5l-0.7,2.7l-2.1-0.1l-0.3,1.6l0.9,1.8l1.7,0.7l-0.8,4.2
		l-1.8,2.6l-0.3,2.1l-2,0.8l-0.3,1.3l0.9,1.7l-0.9,0.8l-1.8-0.4l-0.6,1l0.1,3.7l-1.3,3.9l1.3,2l4.9,1.7l2.1-0.3l2,2l1.1-1l0.9,0.5
		l-0.1,1.1l-1.4,1.2l0.5,0.8l1.9-0.3l2.4,0.7l1.2-0.6l0.4-2.2l2.3-1.3l0.4,0.8l0.7,4.1l1.7,2.6l-1,2.1l1.7,1l-0.2,1.5l-1.4,0.8
		l-0.8,1.5l0.9,0.5h1.9l1.3-1.8h1.6l1.3,0.4l-0.3,1.7l0.7,0.7l2.2-0.8l0.7-1.6h0.9l1.9,1.7l1.9-0.4l2.4,1.1l0.2,0.8l0.5-0.1l0.1-1.4
		l1-0.3l1.4,2.8l1.7,0.4l1.6,1.7l1.3-0.6l-0.5-2.2l0.9-0.8l5,0.9l2.5,1.3l2.6,1.5h2.4l3.5,1l1.2-1.2l1.5,0.9l0.9-1l4.6,0.3l0.8,2.5
		l0.6,2.1l-0.8,2.5v1.5l1.5,1.7l1.3-1.1l1,0.3l1.5,0.6l1.1-0.4l1-0.8l-2.5-3.8l1.3-0.5L145,215l0.8-0.8l0.4-2.8l-0.9-1.5l-2.2,0.2
		l0.2-4l1.5-6.3l-1.6-0.6l0.2-2.3l2-0.5l0.6-1.9h2.5l0.4-3.1l-2.9-0.1l-0.2-2.4l1.6-1.8l-2.5-0.7l0.4-4.3l-2.6-1.1l-2.5,0.2
		l-1.6,2.3l-2-0.4l-3.8-4.1l-0.7-3.2l0.4-2.8l-1-2.2h-3.1l-0.5-0.4l0.2-2.3l2.5-0.6l1.2-2.4l0.2-3.4l-2.3-0.4l-0.1-2.2l0.4-2.3
		l-3.3-0.8l-1.5-3.7l-2.5,0.3l-1.9,1.3l-3.1-1.4l-1.2-0.2l-0.2,1.6l-1,1.9l-5.4,0.4l-2.1-0.7l-2-2.1l-3.2,0.9l-2-0.2l-1.8-2.4
		l-1.2,0.4l-1.1-1.1l0.6-3.8l-1.3-1.3l-3.7,0.6l-1.2-1l1.3-2.9l-1.3-2.8l-2.3-1.4h-1l-2.1,2.8l-1,0.4l-1.4-2.1l-2.1-0.2l-3,0.9
		l-0.6,1.4l-2.6,0.9L74.9,143.7z"/>
	<path class="st8" d="M18.9,216.7l-0.8,0.3l-1.6-0.7l-1.5,1.1l0.5,1.7l-2.4,0.1l0.2,1.5l2,0.5l-0.1,1.2l4,3.1l-0.7,1.7l1.6,0.9
		l-1,2.3l-3-0.4l-0.1-1.6l-3,0.1v1.5l-1.3,0.4l-0.1,1.4l-1.5-0.4l0.1,1.3l2.6,0.5l-0.6,3l1.2,1.3l1.3,0.1l-0.1,2.1l-1.4-0.6l-1,0.9
		l-5.8-0.5l-0.3,3.2l1.9,1.1l0.4-3l2.9,0.2l0.6,0.5l-0.5,1.1v1.2l0.4,0.4l-1.7,1.6l-0.7,3l0.3,1.3l1.3-1.6l1.8-0.5l1.1,1.1l-3.4,2.4
		v3.3l-0.6,1.5L9.2,257l-3.3,2.9l0.9,1.7l-1.1,2.5l2,1.2l1.2-0.5l0.1,0.8l-0.9,2.3l-1.8,0.8l-1.6,0.8l-0.2,1.3l-1.6,0.1l-0.4,1.5
		l1.6,0.3l0.6,1.4l3.3,0.8l2.6-0.1l0.5-1.3l3.3,1.5l1-1.4l2-0.1l1.7-1.8l1,1l0.9-0.2l-0.3-0.9h1l0.7,2l1.1,2v3.5v1.7l1.9,1.2
		l5.5,1.3l2.4,1.8c0,0,3,1.5,3.1,1.5s5.3,1.9,5.3,1.9L44,288l4.1-1.9l2.7,0.1l1.1,1.1l0.9-0.8l0.3-2.6l4-3.9l4.5-2.8l1.1-1.3
		l-0.3-1.4l0.8-1.3l1.6,0.3l2.2,0.8l1.1-1.1l-1.5-3.1l0.2-2.3l2.7-2.3l4.3-0.8l0.9,1l0.4,2.6l1.5,0.3l7.6-5.2l3.8-2.3l3.3-0.2
		l3.7,1.4l2,2.7l1.4-0.8l4.3-1.8l0.6-1.7l0.3-1.7l2.3-1l2.1,0.7l1.2,1.2l0.6-0.3l1.6-1.4l2.1,0.6l1.5,1.4l-0.2,3.1l1,1.2l3.3-1.3
		l2-2l-0.1-5.1l0.9-1.3l1-3.3l1.6,0.1l0.3-2.5l1-1.1l-1.3-2.1l1.6-2.2l-0.7-2l-2.1-0.4l-2-0.2l-0.6-1.9l0.8-0.5l-2.6-2.8l0.3-1.8
		l1.3,0.1l0.1-2.7l2.7,1.1l2.7-2.5l-0.2-1.3l-1.7-1.7l-1.9-0.3l-3-3.1v-3.4l0.3-1.4l-1.1-0.7l-2.3-0.2l-1.6-2.4l1.1-2l-1.5-2.2
		l-0.8,0.2l-1.6-1.7l-1.6-0.3l-1.5-2.8l-1,0.4l-0.1,1.4l-0.5,0.1l-0.2-0.8l-2.4-1.1l-1.9,0.4l-1.9-1.8h-0.9L99,207l-2.2,0.8
		l-0.8-0.7l0.3-1.7L95,205l-1.6,0.1l-1.3,1.8h-2l-0.9-0.5l0.8-1.5l1.4-0.8l0.2-1.5l-1.7-1l1-2.1l-1.7-2.6l-0.6-4.1l-0.4-0.8
		l-2.3,1.3l-0.4,2.2l-1.2,0.6l-2.4-0.7l-1.9,0.3l-0.5-0.8l1.4-1.3l0.1-1.1l-1-0.4l-1.1,1l-2-2.1l-2.1,0.3l-5-1.8l-0.4,3.4l-1.3,1.5
		l0.2,1l-0.2,0.7l-3.4,3v1.6l-0.9,0.7l-4.2-0.1l-0.6,0.9l1,0.9l-0.3,0.8l-3.4-0.4l-1.7,1.5l-2.8,0.4l-1.7,0.8l-0.4,1.3l-1.3-0.1
		l-1.3,1.9h-1l-2.3,3.3l-0.1,1.4l0.3,1.1l-0.7,0.8l1.1,1.4l-0.8,1l-0.9-1.1h-2.4l-1.9,1.5l0.1,2l-2.6,1l-0.4-0.5l0.6-0.7l-0.8-0.9
		l-1.3,0.6l-4.2-2.7l-2.6-0.4l-1.6-1.5l-0.9-0.3l-3.2,1.3l-0.4,1l-1.9-0.7L18.9,216.7z"/>
	<path class="st8" d="M120.9,255.9l2.4,0.6l0.9,1l-1,2l0.6,0.5l5.7,1.6l1.3-1.1l1.2-3.3h1.2l-0.3,2.5l3.8,1.3l1.4-0.8l1.8,1.8
		l4.6,1.7l2.3,0.9l0.6,2.1l3.3,2.2l1.4-0.2l1.4-1.9l3.3,0.1l0.2-2l2.1-1.7l1.4-0.1l-0.4-1.2l1.6-1l4.1,0.8l3,0.2l1.8,1.5l0.5-0.9
		l-1.5-1.2l0.8-0.8l2,1.9l1.1-1l2.7,0.5l1.2-2.4l1.1-1.4l-0.3-2.4l0.5-2.3l-0.3-6l0.9-3.4l-1-2l-1.1-0.2l-0.1-1.6l-2.3-0.7l2-1.6
		l-3.7-3.1h-3.2l-1.7-2.3l-2-0.1l-3.2,1l-0.6-1.2h-2.2l-1.4-1.1l-1.7,0.4l-0.9-0.9l2.9-3l1.4-1.8l-1-0.6l-1.6,0.9l-0.5-0.3l0.8-1.6
		l-1.9-1.1l-0.4-1.5l-1.7-0.3v1.7l-1.1,0.9l-3.2,0.5l-2.6-0.9l-1.3-1.9l-1,0.3l-1.5-0.6l-1.1-0.3l-1.3,1l-1.5-1.7v-1.5l0.9-2.5
		l-1.4-4.6l-4.6-0.3l-0.9,1.1l-1.5-0.9l-1.3,1.2l-3.5-1h-2.4l-5.1-2.9l-5-0.8l-0.9,0.8l0.5,2.1l-0.5,0.3l1.5,2.2l-1.1,2l1.6,2.4
		l2.3,0.2l1.1,0.8l-0.3,1.4l0.1,3.3l2.9,3.1l2,0.3l1.7,1.7l0.3,1.3l-2.7,2.5l-2.8-1.1l-0.1,2.6H119l-0.3,1.8l2.5,2.8l-0.8,0.5
		l0.5,1.8l2.1,0.2l2.1,0.4l0.7,2l-1.6,2.2l1.3,2.1l-1,1.1l-0.3,2.4h-1.5l-1.1,3.4L120.9,255.9z"/>
	<text transform="matrix(1 0 0 1 107.1947 250.3991)" class="st1 st2">Fenchuganj</text>
	<g>
		<text transform="matrix(1 0 0 1 13.6618 263.6029)" class="st1 st2">Balaganj</text>
	</g>
	<g>
		<text transform="matrix(1 0 0 1 48.569 222.2443)" class="st1 st2">Osmani Nagar</text>
	</g>
	<g>
		<circle class="st3" cx="87.1" cy="240.9" r="13.4"/>
		<text transform="matrix(1 0 0 1 81.0964 248.2222)" class="st1 st4">3</text>
	</g>
	<g>
		<text transform="matrix(1 0 0 1 81.7002 186.0302)" class="st1 st2">Dakshin Surma</text>
	</g>
</g>
<g id="sylhet-2">
	<path class="st9" d="M43.7,135.3l-2-1.1l-2.1,1l-3.9-0.4l-4.9-2.5l-0.7-3.1l-0.9-1.9l-2.4-0.8l-2.6-0.1l-0.7-0.6l0.2-0.5l1.9,0.4
		l0.2-1l-2.7-0.6l-1,1l0.2,1.2l0.8,2.1l1.7,0.9l-0.7,1.1l-0.2,1.2l-1.2,0.2l0.2,1l0.7,1.3l-1,1.1l0.4,1l2.1-0.6l1.6,2.1l0.1,2
		l-1.7,0.3l-4.1-0.2l-0.4,0.9l0.7,0.6l5.1-0.1l0.2,1.1l-0.5,1.3l-0.4,0.9l-1.1-0.1l0.2,1.5l-3.9-0.2L20,147l2,0.6l0.1,2.4l0.3,1.8
		l0.9,1.2l2.5,0.5l2-0.9l0.6,0.7v3.4l0.5,0.3l-0.4,1.2l-1.9,0.2l-0.1,1.8l-0.2,1.1l-1.2,0.6l-2.8-1.2l0.7-1.8l-1-1.7l0.4-0.8
		l-0.6-0.6l-1.2,1l-1.6-0.4l-0.9,1l0.2,0.5l1.1,0.1l0.2,1.1l-0.3,1.8l-0.5,1.3l0.4,1.3l-0.6,0.3l-1.6,0.1l-2.1,1.5l-0.5-0.5
		l-2.5,2.2l-1.4,1.6l0.3,1.4l0.9-0.8l0.7,0.5l-0.4,3.3l0.7,0.5l1-0.9l0.2,2.6l0.5,3.2l-1.6,0.9l-0.1-0.7l-0.2-3.3l-1.7-1.2l0.3,2.8
		l0.6,0.7v2.9l0.8,0.6v1.2l0.9,0.8l0.3,2l-0.6,0.2l-0.4-1.6l-0.9,0.1l0.4,3.6l1.8,0.2l0.8-1.2l1,0.1v1.4h1.4l0.5-0.6l0.7,0.7L19,190
		l-0.5,1.7l-0.1,2.4l1.9,1L20,196l-2.1-0.4v1l1.5,1.6l-0.2,0.8l-0.9,0.3l-1.5-1.3l-0.8,0.9l-3.5-1.6L12,197l-1.1-1.9l-0.9,0.6
		l0.7,1.5l-1.4,1.4l-0.9,0.2l-0.8,1.4l-0.8-0.1l0.1-0.9L6,198.4l-0.6,1.2l-1.6,0.1l-0.3,0.9l-1.2,0.1v0.9l1.1,0.5l4.5-0.9
		c0,0,0.8,1.4,0.8,1.5s-0.8,3.8-0.8,3.8l0.8,0.6l1.7-0.4l1.2-1.4l0.5,1.1l1.3-0.3v-0.7l2.3,1.5l-0.4,0.8l0.7,0.4l1.4-0.3l0.3,0.8
		l-0.7,1l0.1,1.4l0.7,0.1l1.7-0.2l0.7,1.4v1.4l-1.9,0.2l0.3,2.9l2,0.9l0.4-1l3.2-1.3l0.9,0.3l1.6,1.5l2.7,0.4l4.2,2.6l1.4-0.6
		l0.7,0.8l-0.5,0.7l0.4,0.5l2.5-0.9l-0.1-2.1l1.9-1.4h2.4l0.9,1.1l0.8-1l-1.2-1.4l0.7-0.8l-0.3-1.1l0.1-1.4l2.3-3.2h1l1.3-1.9
		l1.3,0.1l0.4-1.3l1.7-0.8l2.8-0.5l1.7-1.4l3.4,0.4l0.2-0.8l-1-0.9l0.6-0.9h4.2l0.9-0.7v-1.6l3.4-2.9l0.2-0.8l-0.2-1l1.2-1.5
		l0.3-3.4l-1.1-1.9l1.3-3.9l-0.1-3.7l0.6-1l1.7,0.3l0.9-0.8l-0.9-1.7l0.3-1.2l2-0.8l0.3-2.2l1.8-2.6l0.7-4.3l-1.7-0.6l-0.9-1.8
		l0.3-1.6l2,0.1l0.7-2.6l-1.3-0.5l-0.6-1.3l1-1.1l0.8-3l-0.6-0.8l-0.9-0.1l-1.3,4.2l-1.5,0.7l-0.6-1.2l0.8-0.6l0.5-1.4l-1.3-3.9
		l1.3-0.7l0.1-2l-0.9-2.2l-1,0.1l-0.5-0.5l0.5-1l2.4,0.1l0.3-1.6l-1.2-2.3l-2.2-0.2l-0.2,1.5l-1,1.4l-1.9,0.2l-0.5-1.4l-1.5-1.4
		l0.7-1l1.8-0.5l0.5-1.5l-2-2.5l-2.4-1l-2.8,1.1l-1.9,4.6l-0.5,4.9l-1.9,1.9l-1.9-0.2l-1.4-2.3l0.6-1.8l1.3-2l-3.3-0.2l-3.1,2
		l-3.5,1.4l-2.9-0.6l-0.3-1.3l1.3-2.2l-0.3-2.6L43.7,135.3z"/>
	<g>
		<text transform="matrix(1 0 0 1 33.9722 162.9004)" class="st1 st2">Bishwanath</text>
	</g>
	<g>
		<circle class="st3" cx="39.1" cy="184.9" r="13.4"/>
		<text transform="matrix(1 0 0 1 33.0964 192.2222)" class="st1 st4">2</text>
	</g>
</g>
</svg>
