<?xml version="1.0" encoding="utf-8"?>
<!-- Generator: Adobe Illustrator 25.2.1, SVG Export Plug-In . SVG Version: 6.00 Build 0)  -->
<svg version="1.1" id="Layer_1" xmlns="http://www.w3.org/2000/svg" xmlns:xlink="http://www.w3.org/1999/xlink" x="0px" y="0px"
	 viewBox="0 0 400 578" style="enable-background:new 0 0 400 578;" xml:space="preserve">
<style type="text/css">
	.st0{fill:#9BB6EA;stroke:#FFFFFF;stroke-width:0.5;stroke-miterlimit:10;}
	.st1{font-family:'TimesNewRomanPSMT';}
	.st2{font-size:16px;}
	.st3{fill:#FFFFFF;}
	.st4{font-size:24.672px;}
	.st5{fill:#ABBEED;stroke:#FFFFFF;stroke-width:0.5;stroke-miterlimit:10;}
	.st6{fill:#C5CFED;stroke:#FFFFFF;stroke-width:1.033;}
	.st7{fill:#8BAFE8;stroke:#FFFFFF;stroke-width:0.5;stroke-miterlimit:10;}
</style>
<g id="habiganj-1">
	<path class="st0" d="M197.7,23.1l1.1-1.8l-1-3.7l2.3-2.1l2,1.5l1.1-0.4l2.6-4.5l1.5-2.4L209,9l2,1l2.7-0.5l0.7,1.3l-1.8,4.4
		l-0.3,2.5l0.7,2l1.7,0.6l0.2-1.2l-0.3-2.9l0.7-1l1.6-0.2l3.1,3.3l0.4,4l2.4,4.4l1.1,1.6v5.2l1,1.1l2-0.5l0.2-3.9l0.4-5.7l2.4-2.7
		l3.6-0.3l2.6-0.2l2.6-1.8l1.7-0.4l0.7,1.2l-1,3.5l-0.8,2.2l0.5,1.6l1.4-1l3.8-5.3l3.5-3.6l2.7-0.1l1.9,3.2l2-0.2l-0.3-4.3l1.9-0.8
		l3.8,4.9l1.8,1.3l0.9-0.3v-3.5l1.6-0.1l7.5,3.4l5.1,1.1l2.6-0.1l2.1-1.4l2,0.6v3.2l0.8,2.1l1.5-0.1l0.2-2.7l2-1.1l3.7,0.9l1.5,2.3
		l-1,4.9l0.1,2.6l0.8,1.2l1.5-0.3l1.2-3.1l1.9-0.5l1.5-3.3l0.5-4.9l2.1-3.8l1.9,0.2l1,6l1.7,2.4l1.8,0.4l1.1-1.4l-0.6-2.6l1.1-1.4
		l2.8,2.2l1.8,2.5l3.6,1.9l2.4,0.8l0.3,3.6l-0.2,2.3l1.6,2.4l1.8-0.7l-0.2-6.5l-2.6-6.2l-3.5-0.4l-1.9-3l0.6-1.9l5.3-1.8l1.5-3.2
		l2.7-0.3l2.2,1.9l-0.1,2.8l-0.8,3.2l0.5,2.6l3,1.9l2.7,0.5l0.8-1.5l-2.2-2.9l1.1-1.6l6.2-3.4l3.5-0.1l4,1.8l1.2-0.7l0.1-2.9
		l1.6-0.7l2.7,4.7l3.3,4.1l1.3,2.4l0.8,2.5l1.5,1.4l2.5-0.6l1.6-2.2l-1-3.6l-2.2-3.4l0.6-2.3l5.3-2.6l4.1,0.7l2.6-0.3l2.9-2.2
		l2.9-0.8l1.6,1.2l-1,1.8l-3.3,2.7l-3.1,6.2l-1.4,4.5l-2.1,1.9l-2.3,0.5l-0.2,1.5l0.9,2l-1.3,3.9l1.6,1.9L371,41l-0.6,3.2l-1.2,0.9
		l-0.7,1.9l-1.1,0.5l-1-0.3l-5.3,5.2l0.9,1l1.7,0.1l0.9,2.2l2.2,0.2l2.1,1.4l5.1,0.4l1.7-2l2.3,0.1l2.4,1.6l2,1.5l0.8,2.9l1.5,5
		l-1.4,2l1.9,2.4l-0.1,2.8l-1.9,3.1l1.1,1.1l-1.7,4.1l-0.7,2.6l-1.6-0.2l-3.9-2.1l-5.2-0.5l-2.5,0.5l-2.3,1.8l-3.3-1.2l-2.1-0.5
		l-1.1,1l0.5,1.8l2.7,1.7l-0.3,0.9l-2.4,0.2l-1.6-0.7l-1-5.7l-4.3-4.1L352,78l0.5,1.9l-4.8,5.1l-2.6,3.9l-0.1,1.4l1,1l5.7-3.2
		l3.5-0.7l3.5,2.1l0.6,1.9l-3,2.3l-0.8,2.2l2,2h1.4l1-1.4l1.3,1.2l-1.1,1.6l0.9,2.8l0.6,4.1l2.3,0.7l3.9-1l1.9,0.2L369,108l-1.3,1.2
		l0.6,2.2L367,113l0.9,1.4l2.4-1.3l0.5,3.9l1.9,1.9l0.9-1l1.1,0.4v2.3l1.9,0.5l0.1,1.6l-2.4,1.3l-1.1-0.8l-1.5,1.2l0.6,0.9l-2,1
		l-6.3-3.7l-1.9,1.2l-0.2,1.7l1.3,3.5l2,0.6l0.2,2.6l-1.5,1.6l0.7,1.5l-0.7,1.9l-2.2,0.4l-0.5-1.1L360,137l0.3,2.3
		c0,0,3,3.7,2.9,3.7s-2.1,0.9-2.1,0.9l-2.6,0.2l-1.5,1.4l-4.6-1l-1.1,1.5l2.3,2.3l-0.9,2l-3.3,4.2l-2.2,2.9l0.3,1.8l1.6,1.4
		l-0.5,2.3l-3.7,2.8l1.2,1.6l-0.1,3.5l-1.5,1.7l-0.1,3.9l0.9,2.4l-0.1,2.6l0.6,0.7l-0.1,1.9l0.8,0.9c0,0,0.1,4,0.1,3.9
		s-1.6,2.6-1.6,2.6l-1,6.7l-0.9,3.9l-1,3.3l0.7,2.6l-3.4,5.8l-0.9,1.8l-1.4-0.5l-0.8-1.9l-1.7-0.1l-1.7-3.2l-3.2,0.3l-5.5-1.7
		l-5.4,0.5l-2.7-1.2l-2.6,0.4l-2.1,1.2l-1.2-0.8l-1.8-2.6l-2.5,0.4l-1.7-0.9l1.3-1l0.1-1.3l-1.2-2.7l2-2.8l2.1-1.9l-2.5-1l2.2-2.8
		l-0.3-1.1l-1.6-0.7l0.3-3.2l-1.1-0.5l-1.2,1.3l-2.5-2.3l-0.4-1.3l-0.9-1l-3.4,4.1l-1.2-1.1l-1.3-1.6l-2.3,2.2l-2.1,1.8l-1.5,0.2
		l-2.6-1.3l-0.9,0.8l-1.9-0.8l-2.7-6.5l-2.3-1.3l-3.4-0.6l-2.6-0.5l-2,2.1l-2.4,0.2l-1.9,3.4l-0.9,3.1l-2,1.5l-2.6,4.8l0.5,1.9
		l-1.3,2.4l-16.4-4l-5.2,0.8l-3.8,0.8l-0.7-1.3l1.7-4.4l3.6-3.4l3.5-5.1l0.6-4.5l1.1-1.3l4.5-2.8l-0.4-1.5l-5.7,1.8h-3.1l-0.1-1.9
		l1.6-0.6l3,0.6l1.6-2.3l-4.4-2.8l1.3-2.1l2.9,0.1l3.4-5.2l-1-2.4l-3.3-0.4l-3.1,1.8l-0.8-1l-0.2-1.9l-1.8-0.8l-0.1-3.5l1.4-2.1
		l2.1-0.4l3,4.1l2.9,2l2.3-0.6l0.1-1.9l-1.5-2l-2.3-2.5l0.6-1.8l3.1-1.5l1-1.9l-0.3-2.9l0.6-1.8l6.7-2.2l3.1-2.6l0.4-1.5l-7.1-5.7
		l1.1-1.7l3.4-0.1l1.2-3.9l-0.3-2l-2.8-0.1l-3.7-1l-4.3,0.7l-7.5-0.8L238,120l-2,0.3l-4.4-2.5l-0.7-2.1l2.8-1.9l-2.2-3l-1.2-8.5
		l-1.9-1.7v-2.9l2.2-1.5l-0.9-4.9l0.5-3.2l-1.1-3.6l-1.8,0.2l-1.7-1.9l-1.9,1.1l-1.6-0.3l-1.9-2.2l0.6-3.6l-0.3-5.2l-2-2.9l-2.4,1.1
		l-2.1-1.3l4-4.1l-1-3.3l0.6-1l-0.5-1l-0.2-1.9l-1-2.8l0.6-1.5l-0.3-3l-1.2-6.5l-1-2.4l-9.1-2.9l-3-0.1l-5-2.4l-3.2-2.3l-2.9,2.6
		l-1.1-0.6l0.4-2.1l0.9-1.9h1.7l1.1-2.2h2.3l2.4-2.9l0.6-2.2L197.7,23.1z"/>
	<path class="st0" d="M342.9,202.5l2.1-0.9h1.9l1.9,2l1,2.4l-0.2,2.7l-1.9,1.9l1.4,2.1l-0.5,3.6l2.4,2.8l0.2,1.7l-13-0.5l-1.1,1.5
		l0.9,8.1l0.1,7.4l0.3,6.3l0.7,3.3l-1,5.4l-0.4,8.4l1,3.6l2.8,0.2l6.8-0.1l1.8-2.7l1.4-0.6l2.4,0.9l0.2,1.6l-2.7,1.3v4.7l3.2,4.6
		l2,0.9l1.6,4l0.9,5.9l-0.2,3.2l0.5,1.6l0.2,9.7l0.3,6.5l-2.1,3.2l-1.9,3.9l0.2,2.8l-3.8,3.8l-3.5,3.9l-1.1,3.8l-2.4,2.2l-3.8,0.6
		l-16.7-1.4l-2.2,0.1c-0.1,0-4.7,1.9-4.7,1.9l-4.4,0.4l-2.3,1.9l-4.5-0.5l-2.3-2.1l-1.8,0.1l-0.6,2.8l-1.9-0.1l-2.3-1.7l-2,2
		l-2.5-0.5l-1.6,1.6l-3.3,1.1l-2.7-0.3l-0.1,5.8l2,3.4l-0.1,3.5l-0.4,2.5l-2.1,0.8l-5-3.3l-0.9-2.6l0.5-3.1l-0.7-1.6l-2.7-0.3
		l-1.1-0.9l-1-2.1l-1.7,0.1l-1.3,1.2l0.4,2.9h2l1.4,1.2l-0.5,2.2l-2.5,1.1l-2-1l-1.5,1.1l-2.2-3.8l-3-2.8l-2,0.5l-0.6,2.4l-1.5,0.9
		l-1.6-0.2l-0.2-3.6l-2.2-3.8l0.5-2.5l1.6-3.3l-2.3-7.5l0.2-2.4l2-0.2l0.8-0.9l-1.2-2.8l0.8-2.8l-2.5-1.2l-2-3.1l-4.5-1.6l-0.2-1.5
		l1.3-1.5l-4-4.5v-1.5l-2.8-4.6l0.1-8.4l0.7-1.9l2.4-0.9l1.8-0.7c0,0,0.1-3.1,0.1-3.2s-0.4-1.7-0.4-1.7l0.7-1l1.6,0.7l1.6-2.3
		l1.1-0.9l-1.8-2.8l0.4-2l2.1-4.4l0.2-3.1l-0.4-3.6l-3.3-3l-0.4-2.2l0.2-1.6l-1.3-1.5l-0.1-5.8l-2.3-1.7l-2.5,0.1l-3.8-6l0.5-1.7
		l1.8-5.4l2.1,0.2l4.3-2.8l0.1-3.5l2,0.3l0.7-1.1l-1.2-2.8l2.6-3.4l-1.3-2.4l3.1-3.9l0.3-3.3l2.7-1.2l3.2,1.6l1.6-0.3l1.6,2l0.7-0.8
		l-0.4-2.3l0.2-4.2l-3.9-2.5l0.2-1.4l1.2-2.3l-0.5-1.9l2.6-4.9l2-1.5l0.9-3.1l1.9-3.4l2.4-0.2l2-2.1l6,1.1l2.3,1.3l2.6,6.4l1.9,0.9
		l0.9-0.7l2.5,1.3l1.6-0.3l4.4-4l1.3,1.7l1.2,1l3.4-4.1l0.9,1l0.4,1.3l2.5,2.3l1.2-1.3l1.1,0.5l-0.4,3.2l1.6,0.7l0.3,1.2l-2.2,2.7
		l2.4,1.1l-2.1,1.9l-2,2.8l1.2,2.7l-0.1,1.3l-1.2,1l1.6,0.9l2.4-0.4l1.8,2.6l1.2,0.8l2.1-1.2l2.6-0.3l2.7,1.3l5.5-0.5l5.4,1.7
		l3.2-0.3l1.7,3.3l1.6,0.1l0.8,1.9l1.4,0.5l4.3-7.6l-0.7-2.6L342.9,202.5z"/>
	<g>
		<text transform="matrix(1 0 0 1 258.1353 93.3986)" class="st1 st2">Nabiganj</text>
	</g>
	<g>
		<g>
			<text transform="matrix(1 0 0 1 271.1358 265.9124)" class="st1 st2">Bahubal</text>
		</g>
	</g>
	<g>
		<circle class="st3" cx="311.2" cy="125.9" r="13.4"/>
		<text transform="matrix(1 0 0 1 305.263 133.2222)" class="st1 st4">1</text>
	</g>
</g>
<g id="habiganj-2">
	<polygon class="st5" points="26.6,161.5 30.9,159.8 33.4,163.5 33.7,165.7 36.3,166.1 42.4,162 53.5,150.1 57.5,144.4 60.9,138.2 
		65.7,124.7 70.2,106.5 73.6,101.2 80.4,98.6 85.2,97.5 90.7,94.2 94.6,91.8 94.5,77.4 96.8,74.7 98.6,72.1 100.2,72 101.2,73.3 
		100.9,78.4 107.1,82.5 110.9,82.2 116,77.7 118.1,70.1 118,67.3 116,64.1 116.4,60.9 120.9,58.9 123.8,57.2 123.4,54.3 121.6,50.6 
		121.7,46.1 119.4,40.9 119.1,35 120.4,31.9 123.3,31.5 125.9,33.1 127.3,37.7 129.7,37.8 134.9,33.2 138.2,30.8 142.3,28.5 
		145.2,22.7 146.9,24.8 147.9,24.9 145.9,28.9 143.6,30.9 145.8,35.9 146.8,39.9 148.9,40.5 150.5,39.6 156.5,40.6 159.4,40.3 
		163.8,41.8 163.9,42.5 162.2,44.3 165.9,46.6 165.6,48.1 156.7,56.2 157.2,60.7 159,60.6 164.3,57.8 167.2,58.2 175.7,61.7 
		178.8,65.7 178.7,68 176.4,70.5 177.3,71.9 175.4,73.2 173.1,71.9 171.6,76.2 169.6,79.4 169.2,81.9 168,83.4 166.1,81.5 
		163.8,83.8 161.7,84.3 158.9,82.8 156.2,83.6 155.4,87.2 158.5,90.2 163.4,91.6 166.5,94 167.2,95.3 163.5,98.5 164.5,99.9 
		164,101.1 165.8,102.5 166.7,106.5 165.5,108.9 163.9,109.4 162,112 161.5,116.4 158.6,122.3 155.7,124.4 151.2,123.8 146.2,117.5 
		144.2,119.2 141.4,118 139.6,121 137,121.2 135.4,119.4 132.9,119.2 131.4,120.5 130,120.1 128.9,118.1 127.7,118.3 127,120.5 
		123.6,123.2 124.6,128 125.5,132 129.6,132.6 134,131.2 134.5,133.7 134.3,135.5 135.5,137.4 137.7,137.3 137.4,144.7 136.3,146 
		138.2,149.1 137,150.4 134.8,149 134,151 131.8,150.5 131.7,153.3 130.2,154.3 130.8,158.2 128.7,162 128,163.2 125.7,161.6 
		124.9,157.5 123.2,155.7 121.6,156.7 122,162.5 123.4,166.1 126.7,166.5 126.8,168.5 125,172.1 126.4,173.7 131,173.6 132.1,175.2 
		130.9,175.6 129.1,174.7 127,176.1 122.7,176.3 120.2,178.8 117.1,178.7 115.4,181.1 111.9,181.7 105.8,179.2 104.2,175.9 
		106.4,174.3 105.4,173 103.8,174.3 101.9,173.4 102.1,169.3 103,167.3 102.1,165.9 99.2,166.9 98.2,165.6 97.8,158.9 96.1,158 
		95,159.4 96.2,166.6 97.4,168.9 97.6,171.3 95.7,172.4 85.9,172.4 83.2,172.9 82.1,172.4 82.2,170.6 85.1,166.9 84.1,164.9 
		81.2,165.6 78.7,168.3 73,168.5 71.6,169.6 64.6,169 62,170.3 64.7,171.8 62.9,173.6 64,176.4 67.2,178.9 66.5,180.4 62.1,179.8 
		59.3,179.1 55.5,175.9 52.1,179.9 51.1,183.6 51.6,186.3 50.5,188.1 45,189.3 41.2,189.9 39.1,185.7 40.5,181.7 43.6,178.4 
		47.9,177.8 47.9,175.8 44.3,174.9 35.9,174.8 31.9,173.2 27.7,173.7 22.2,176.4 17.5,180.8 15,180.1 14.3,177 19.5,169.5 	"/>
	<path class="st5" d="M147.7,25l0.8-2.5l1.8-0.8l1.5,0.8l0.6,5l0.6,1.7h1.6l4.3-6.7l2.7-3.7l-0.8-3.2l-2.8-0.5l-3.5-0.8l-1.8-1.9
		l1.9-1.9l4.4-0.7h7.1h5.1l2.5-1.8l3.8-1.7l2.8,0.7l5.7,3.2l-0.2,1.8l-3.1,1.6l2.6,3l-0.5,2.4l-0.8,1.9l1.7,0.9l3-1.9l2.3-0.2
		l0.4,1.5l-0.9,1.4l1.6,0.7l3.1-0.5l2.2,0.2l1.6,2.1l-0.6,2.2l-2.4,2.9h-2.4l-1,2.2h-1.7l-0.9,1.9l-0.5,2.1l1,0.6l3-2.6l3.2,2.3
		l5,2.4l3,0.1L214,42l1.4,1.7l1.2,6.7l0.3,2.8l-0.6,1.5l1,2.8l0.2,1.8l0.5,1.1l-0.7,1l1,3.2l-4,4.1l2.1,1.3l2.5-1.1l2,2.9l0.3,5.3
		l-0.5,3.5l1.9,2.2l1.6,0.3l1.9-1l1.7,1.9l1.8-0.2l1.1,3.6l-0.5,3.2l0.9,4.9L229,97l0.1,2.9l1.8,1.6l1.2,8.4l2.2,3l-2.8,1.9l0.7,2
		l4.3,2.5l2-0.3l3.7-3.6l7.5,0.8l4.3-0.7l3.7,0.9l2.8,0.2l0.3,2l-1.2,3.9l-3.5,0.1l-1.1,1.7l4.5,3.9l2.6,1.9l-0.4,1.6
		c0,0-3,2.6-3.1,2.5c-0.1,0-6.7,2.2-6.7,2.2l-0.6,1.8l0.3,3l-1,1.9l-3,1.5l-0.6,1.9l2.3,2.5l1.4,2v1.8l-2.3,0.6l-2.9-2l-3.1-4
		l-2.1,0.3l-1.4,2.2l0.1,3.5l1.8,0.9l0.2,1.9l0.9,0.9l3.1-1.8l3.2,0.5l1,2.4l-3.4,5.2l-2.9-0.1l-1.2,2.2l4.4,2.7l-1.6,2.3l-3.1-0.7
		l-1.6,0.7l0.1,1.8h3.1l5.7-1.8l0.3,1.5l-4.5,2.9l-1.1,1.3l-0.6,4.5l-3.6,5.1l-3.5,3.4l-1.7,4.3l0.6,1.3l3.7-0.9l1.6,1.5l-0.8,2.6
		l-2.1,1.3l-1.9,4.9l-3.7,2.8l0.1,2.2l1.4,0.8l3.8-1l1.7,3l-3.4,4.5l-1.9,0.7L231,216l-1.3-2.9l-3.4-2.4l-1.8,2l0.2,2l2.7,3.3
		l4.7,2.3l3.8,3.8l1.9,1.2l-1.2,1.7l-4.1,0.5l-2.3,2.1l-1.3-0.2l-1.7-3.4l-3.7-2l-4.4-0.7l-0.8,1.1l1.2,1.8l1.8,0.9l0.3,1.3
		l-2.8,2.6l-4,2.1l-0.6,1.9l-0.1,1.7l-1.2,0.6l-1.3-1.6l-0.4-2.1l-2-0.3c0,0-1.4,3.3-1.5,3.3s-2.1-0.2-2.1-0.2l-4.4-0.6l-2-2.4
		l-2.2,1.4l-4,1l-1.4,0.6v0.6l1.5,1l-0.5,1.4l-0.8,0.6l-2.3-3.3l-1.1,0.6l0.4,2.5l1.8,3.1v2.1c0,0-1.2,1.1-1.3,1.1s-4.5-1.6-4.5-1.6
		l-5.1-4.4l-1.2,0.4l-2.3-4.1l-1.4,0.3l-0.4,2.2l-1.4,0.5l-2.1-0.3l-0.1,1.3l0.9,0.6l4.9,0.5l2.8,1.8l1.2,1.2l0.2,1.6l-1.9,0.3
		l-3.4-0.7l-1.2,1.2l-10.7-3.5l-4.3,0.9l-1.9,1.8l-4.4-0.9l-5.5,1.5l-3.3,3.1l-1,4l2.5,4.5l2.3,3l-0.5,1.7l-1.9,0.8l-2-0.7l-5.3-4.2
		l-1.8,0.3L133,263l-2.2,0.7l-5.4,1.2l-6-0.6l-3.5-1.5l-1.1,1.9l0.8,3l-1.3,2l-1.9,0.4l-7.4-0.9l-2.3-1.5l-1.4,1.1l0.1,2.8l-1.3,2
		l-4.7,2.5l-3,0.6l-1.9-1.1l0.8-3.7l-2.4-1.7l-0.7-1.1l-2.5,0.1l-1.5-1.8l-3.7,0.4l-1,0.2l-0.5-2.1l-0.7-2l4-2L81,260l0.6-1.5
		l-2.8-0.5c0,0-0.5-2.9-0.5-3s1.7-2,1.7-2l6.4,3.5l1.4-1.4l1.4-2.1l-2.2-2l-1.5-2.6l-2.8-0.8l-0.4-1.4l0.6-1.2l-3.5-1.7l0.3-1l1.1-1
		l-1.8-3.6l-0.1-1.3l-2.1-1l-2.1-2.9l-2.4-0.4l-2.4,1.8h-2.4l-3.4-2.9l-1.6-0.1l-1.1,1.4l2.5,3.4L63,237l-1.8,0.4l-2.3-0.7l-0.4-1.3
		l1-0.7l0.3-4.2l2.4-4.4l1-4.2l-1.6-3.6l0.4-1.9l-2.7-3.2l1.2-1.1l3-1.2l5.7,0.1l4.8,3.6l2.6,2.3l1.4-0.4l1-1.4l-0.9-4.3l-2.6-5
		v-8.4l0.5-3.6l-2.2-6.3l-0.3-2.5l-2.8-4.5l-0.3-2.2l-2-2.5l-0.7-1.7l-2.2-2.4l-1.1,0.1l-2.5-1.4l2.6-1.4l6.9,0.6l1.4-1.1l5.7-0.2
		l2.5-2.7l2.9-0.6l1,2l-2.9,3.7l-0.1,1.8L83,173l2.7-0.5h9.7l1.9-1.1l-0.1-2.4l-1.3-2.2l-1.2-7.3l1.1-1.4l1.7,0.9l0.4,6.7l1,1.3
		l2.9-1l0.9,1.4l-0.9,2l-0.1,4.1l1.9,0.9l1.6-1.3l0.9,1.3L104,176l1.6,3.3l6,2.5l3.5-0.7l1.8-2.3h3l2.5-2.5l4.3-0.2l2.1-1.4l1.9,0.9
		l1.2-0.5l-1.1-1.5l-4.7,0.1L125,172l1.8-3.6l-0.1-2l-3.3-0.4l-1.4-3.6l-0.3-5.8l1.6-0.9l1.8,1.8l0.8,4l2.3,1.6l2.8-5l-0.6-3.9
		l1.5-0.9l0.1-2.8l2.2,0.5l0.8-2l2.2,1.4l1.3-1.3l-2-3.2l1.1-1.2l0.3-7.4l-2.2,0.1l-1.2-1.9l0.2-1.8l-0.5-2.4l-4.4,1.4l-4.1-0.6
		l-1.9-8.9l3.4-2.7l0.7-2.2l1.3-0.2l1.1,2.1l1.4,0.4l1.5-1.3l2.4,0.2l1.7,1.8l2.5-0.1l1.8-3.1l2.8,1.2l2-1.7l5,6.2l4.5,0.7l3-2.1
		l2.8-5.9l0.5-4.4l1.9-2.5l1.7-0.5l1.1-2.4l-0.9-4.1l-1.8-1.3l0.5-1.2l-1-1.3l3.6-3.2l-0.6-1.4l-3.1-2.3l-5-1.5l-3.1-3l0.8-3.6
		L159,83l2.8,1.4l2-0.4l2.4-2.3l1.9,1.9l1.2-1.5l0.4-2.6l2-3.2L173,72l2.4,1.2l1.9-1.2l-0.8-1.4l2.3-2.6l0.1-2.3l-3.1-3.9l-8.5-3.6
		l-2.9-0.4l-5.2,2.8l-1.9,0.1l-0.5-4.5l8.9-8.1l0.2-1.5l-3.6-2.2l1.7-1.8l-0.1-0.7l-4.4-1.4l-2.8,0.3l-6-1l-1.6,0.9L147,40l-0.9-4
		l-2.2-5l2.3-1.9l1.8-3.7L147.7,25z"/>
	<g>
		<g>
			<g>
				<text transform="matrix(1 0 0 1 84.8024 110.9124)" class="st1 st2">Ajmiriganj</text>
			</g>
		</g>
	</g>
	<g>
		<g>
			<text transform="matrix(1 0 0 1 152.1358 148.1624)" class="st1 st2">Baniachong</text>
		</g>
	</g>
	<g>
		<circle class="st3" cx="175.7" cy="181.6" r="13.4"/>
		<text transform="matrix(1 0 0 1 169.763 188.8889)" class="st1 st4">2</text>
	</g>
</g>
<g id="habiganj-3">
	<polygon class="st6" points="130.3,263.9 132.2,266.1 129.8,266.6 131.5,268.8 137.8,275.7 139.7,275.4 141.9,274.8 144.4,277.6 
		146.7,277.2 153,274.1 154.2,275 154.7,278.3 152.7,281.8 153.3,283 150.8,285.3 152.6,287.4 153.8,289.6 153.6,294.3 154.7,296.3 
		154.4,301.5 152,305.3 150.4,310.2 151.5,311.8 149.5,317.6 150.5,319.4 150,324.7 152.3,326.6 152.2,334.8 150.3,341.2 
		157.8,342.9 159,346.9 160.5,347.6 162,346.6 164.6,347.4 165.3,348.9 167.6,347.4 171.5,347.5 173.8,347.4 176,349 177.5,348 
		176.9,345.8 178.9,346.1 177.8,351.5 180,353.5 182.5,353.4 184.3,343 189.4,342.1 191.4,346.1 197.2,351.1 199.1,355.7 
		203.7,359.8 211,356.7 214.7,357.8 216.3,355.9 221.6,356.3 223.6,357.4 226.9,357.3 229.7,353.5 229.4,351.9 226.9,350.1 
		227.1,348.5 228.4,348.3 230.7,349.4 234.1,346.3 240.9,344.8 242.6,343.3 243.2,340.9 242.8,338 244.7,337.1 250.3,340.5 
		251.9,339.1 252.1,336.2 254.9,335.7 255.3,333.2 256.9,329.9 254.6,322.4 254.8,320.1 256.8,319.9 257.6,319 256.3,316.2 
		257.1,313.4 254.6,312.2 252.6,309.1 248.2,307.6 248,306.1 249.4,304.5 245.3,300 245.3,298.5 242.5,294 242.6,285.6 243.3,283.7 
		247.5,282.1 247.5,278.9 247.1,277.3 247.8,276.3 249.3,277 251,274.6 252,273.7 250.2,271 250.7,269 252.8,264.5 253,261.4 
		252.6,257.8 249.3,254.8 248.9,252.5 249.1,251 247.9,249.6 247.8,243.8 245.5,242.1 242.9,242.2 239.2,236.2 241.6,229.2 
		243.6,229.4 247.9,226.5 247.9,223 249.9,223.4 250.7,222.2 249.4,219.5 252,216.1 250.8,213.7 253.8,209.8 254.2,206.5 
		256.9,205.2 260,206.8 261.7,206.6 263.3,208.6 264,207.7 263.6,205.4 263.8,201.2 260,198.7 260.1,197.4 243.6,193.5 238.6,194.3 
		240,195.6 239.2,198.1 237.1,199.5 235.2,204.4 231.5,207.2 231.6,209.4 233,210.2 236.8,209.1 238.6,212.2 235.2,216.7 
		233.3,217.4 231.1,216.2 229.8,213.3 226.4,210.9 224.6,212.9 224.8,214.9 227.5,218.2 232.2,220.4 236,224.3 238,225.5 
		236.8,227.2 232.7,227.7 230.3,229.8 229,229.6 227.3,226.1 223.6,224.1 219.2,223.4 218.4,224.5 219.6,226.3 221.4,227.1 
		221.7,228.4 219,231 215,233.2 214.3,235.1 214.2,236.7 212.9,237.4 211.6,235.7 211.3,233.6 209.2,233.3 207.7,236.6 205.2,236.4 
		201.2,235.9 199.2,233.4 197.1,234.9 193.1,235.8 191.7,236.4 191.8,237 193.2,238 192.7,239.4 191.9,240 189.6,236.7 188.5,237.4 
		188.9,239.8 190.7,243 190.8,245 189.5,246.1 185,244.6 179.8,240.1 178.6,240.6 176.3,236.5 174.9,236.8 174.4,238.9 173.1,239.4 
		171,239.1 170.9,240.4 171.8,241 176.8,241.5 179.6,243.4 180.8,244.5 180.9,246.1 179.1,246.4 175.7,245.8 174.4,246.9 
		163.7,243.4 159.5,244.3 157.5,246.2 153.2,245.2 147.7,246.7 144.4,249.8 143.4,253.8 145.9,258.4 148.2,261.4 147.7,263.1 
		145.8,263.9 143.8,263.2 138.5,259 136.7,259.3 133,263 	"/>
	<path class="st6" d="M150.3,341.1l-2.5,2.6L139,345l-4.2,1l-5.8-3.4l-5,0.7l-3.7,5.4l-3.2,3.1l-0.3,1.8l-3.2,3.4l-0.2,2.6l-2.3,1.6
		l0.8,3.2l-4,4.4l0.1,2.7h2.1l1.3,2.2l1,0.1l-0.3,2.3l-3.5,1l-1.2-1.3l-1.1,1.7l-1.8-0.7l-3,1.8l-0.3-3.5l-1.6,2.6l-1.6,1.1
		l-2.3-1.9l-10.2-1.3l-3.3-1l-1.2-2.1l-2.7-0.2l-2,1.8l-1.1-0.9l0.4-2.1H74l-0.9,1l-3.1-1.8l-2.3-2.6l-2.4,4.2l-3.2-1l2.5-2.5
		l-0.9-1.4l-4.1,2.6l-3.6-2.4l-2.8,2.2l-2-1.8l-1.8-1.8l-4.1,0.2l-2.8-3.7l-5.2-4l-4.8-6.7l-1.9-4.2l4.5-3l6.3-5.3l3.8-4.6l1.2-5.6
		l-0.7-3.9l-2.6-2.1l-7.9,1.6l-7.6,4.4l-4.5,1.3l-5.2,0.3l-1-1.7l3.7-10.3l2.9-4.7l0.5-5.9l4.1-5.6l6.1-2.1l5.8-0.1l6.8,0.9
		l12.6,3.6l8.7,1.8l4.8,0.3l2.2-2.9l-0.2-5.1l-5.1-12l-4.5-9l-7.9-7.2l0.7-3.5l4.9-3.7l3.6,1.4l4.7,1.2l4.3-2.8l2.3-0.5l2.4-2.8
		l0.6-0.1l1.5,2.2l-4,2l0.8,2.2l0.4,1.9l3.3-0.4l1.4-0.1l1.6,1.8l2.5-0.1l0.7,1.1l2.4,1.8l-0.8,3.7l1.9,1.1l2.9-0.6l4.7-2.5l1.3-2.1
		l-0.1-2.8l1.4-1.1l2.3,1.5l7.4,0.9l1.9-0.3l1.3-2l-0.8-3l1.1-1.8l3.5,1.5l6,0.6l4.9-1.1l1.9,2.2l-2.4,0.6l8,9.1l4.1-0.9l2.6,2.8
		l2.3-0.5l6.3-3.1l1.2,0.9l0.4,3.4l-2,3.5l0.5,1.2l-2.5,2.4l1.9,2.1l1.1,2.1l-0.2,4.7l1.1,2l-0.4,5.2l-2.4,3.8l-1.6,4.9l1.1,1.6
		l-2,5.8l1,1.8l-0.5,5.3l2.2,1.9l-0.1,8.2l-1.7,6.2L150.3,341.1z"/>
	<g>
		<g>
			<text transform="matrix(1 0 0 1 177.9691 275.329)" class="st1 st2">Habiganj</text>
		</g>
	</g>
	<g>
		<g>
			<text transform="matrix(1 0 0 1 82.2191 325.2457)" class="st1 st2">Lakhai</text>
		</g>
	</g>
	<g>
		<g>
			<text transform="matrix(1 0 0 1 163.8441 329.5165)" class="st1 st2">Shayesaganj</text>
		</g>
	</g>
	<g>
		<circle class="st3" cx="208.4" cy="297.9" r="13.4"/>
		<text transform="matrix(1 0 0 1 202.4297 305.2222)" class="st1 st4">3</text>
	</g>
</g>
<g id="habiganj-4">
	<path class="st7" d="M140,344.8l0.4,2.1l2.6,0.8l0.6,2.1l-0.3,0.9l0.7,2.1l-0.1,2.7l2.9,1.9l-0.9,5.6l-3,2.4l-0.8,2.4l1.4,3.4
		l-1.6,1.3l-4.7-1.7l-1.3,4.2l-3.9-0.7l-1.7,1.5l0.7,2.3l-1.9,2.8l-2.4-1.6l-1.6-1.9l-1.2,1.4l0.4,5.4l-2.2,1.9l-2.7-2.2l-1.5-2.6
		l-2.8,0.3l-0.7,2.4l-0.2,3.8l-6.2,5.9l0.1,3.5l2.2,0.6l2.9,2.5l3.6-0.2l6.5-3.2l0.3-3l1.5-0.1l3.5,2.9l1.3-0.7l-0.1-2.8l4.3,0.2
		l0.9,1.1l0.9,10.3l-0.1,3.6l-1.1,1.2l-1.1-1l-1.5-4.6l-2.4-0.5l-6.8,3.6l-7.1,0.3l-2.8,3.7l-3.8,0.3l-1.8,6.3l0.8,4.7l-0.6,7.7
		l-1.2,1.3l-3.5-2.1l-0.7,1v6.1l-2.1,1.6l-2.7,1l0.2,2.2l2.6,2.2l4-1.4l0.9,1.7l0.5,8.8l-0.3,3.3l0.8,1.1h2.3l2,1.1l3.5-0.6l2.5,2.6
		l1,0.7l2.2,0.7l-0.3,1.4l-1.4,1.5l-1.3-1.2l-1.8-2.1l-1.1,0.5l0.6,2.1l0.8,2.6l-1.3,1.1l-1.7-1.7l-2.2,0.2c0,0-0.9,0.5-0.9,0.4
		s-3-1.2-3-1.2l-1.6,0.9l-0.8,5.1l0.1,5.7l-2,3.8l0.9,0.9l3.8-1.8l1,1.1l1.2,3.3l1.6,0.1l1.2-1.5l0.4-2.6l1.9,0.9l4.1-0.8l2.4,0.5
		l0.9,2.5l-0.7,1.6l-2.2,1.9l-0.8,5.6l-3.2,3.4v3.3l2.3,2l-0.3,1.5l-1.5,0.6l-0.5,2.2l0.6,1.7l3.2-1.1l2.4,0.3l2.8,1.6l4.1,1.3
		l1.7,1.8l-0.4,4.4l0.1,4l1.5,1l1.2-0.1l2.7,2l0.6,4.8l0.6,3l-1.6,3.1l-2.5-0.5l-2,0.8L129,535l0.9,0.3l2.4,0.1l-0.6,4.6l-1.8,5
		l-1.9-1.7l-0.9,1.4l0.1,1.6l-0.3,0.4l-2.6,0.4l-1.6,4.7l1.1,3.5l2.6-0.7l3.5,3.2l5.6,3.9l2.5,0.1l4.2-2.3l2.5,0.2l4,1.1l2.1,0.8
		l2.4,2.7l2.4,4l2.5,0.1l2.7-1.2l3.2,1.1l1.2,0.6l4.3-2.6l1.2-1.3l2.9,3.3l5.3,4l2.7,1.8l2.8,0.1l-0.1-5l-0.3-1.3l-0.8-1.2l-1.1-2.8
		l0.3-1.8l0.8-1.8l-2-3.8l-1.1-5.4l4.5-5.6l3.4-5.3l4-7.1l1.5-4.9l2.5-7.7l-0.1-5.6l-2.2-5l-7.6-11.2l-5.3-10.2l-1-7.1l-0.2-9.8
		l0.1-2.1l3.7-0.5l12.3-0.8l2.7-1.2l3.5,0.7l2.9-1.4l4.5,0.3l1.6,1l4,0.1l2.3,0.9l2.6-1.2l6.2-13.7l-0.7-1.4l-11.7-5.8l-6.2-4.5
		l-1.7-3l-0.2-9.7l1.5-3.9l-1.2-2l-6.8,1l-12.1-1.1l-1.8-4.5l1.5-0.3l-3.1-5l-0.2-5.1l-3.5-0.2v-4.5l-2.1-2l-3.3-0.9l-0.4-1.5l0.2-2
		l-4.1-0.5l-1.8-1.8l2.5-4.5l-0.4-2.9l1.7-3.1l2.2-5l7.7-20.1l2.2-6.4l-1.5-0.8l-0.1,0.7l-2.5,0.1l-2.3-2l1.1-5.5l-2-0.3l0.6,2.2
		l-1.4,1l-2.2-1.6l-2.5,0.2l-3.7-0.1l-2.3,1.4l-0.7-1.6l-2.6-0.7l-1.5,1l-1.5-0.7l-1.2-4.1l-7.6-1.7l-2.4,2.6l-7.5,1.1L140,344.8z"
		/>
	<path class="st7" d="M217.7,468.8l1.2,4.1l1.3,2.3l3.3-0.3l0.6-1.1l2.8-0.1l1.3,3.6l2.3-0.1l2.9-2.5l3.1,2.1l2.3,1.4l4.2,0.1
		l3.9-2.5l1.3,0.4l1.3-1.7l1.9,1.6l3.4,0.6l3.8,1.6l3.4-0.5l2.5,0.4l1.1,1l-1.2,3.1l3.6,3.1l3.7,0.5l7.2,0.4l7.6,2.1l8,2.7l8.4,2.6
		l3,0.3l7.1-1.6l4.6,1.1h4.3l1.5-2.3l2.6-0.4l2,3.2l2.6,1.4l5.2-1l1.4-2.7l0.3-3.3l2.7-1.6l0.9-0.8l0.1-1.6l-2.8-1.7l-2-3.3l1-1.4
		l4.1-1.5c0,0,3,0.6,3.1,0.6s3.4,2.7,3.4,2.7l3.3,0.1l2.8-2.1l2.7,0.1l4.8-3.2l2.5-2l3.9-0.4l1.7-2l-0.4-2.8l2.8-3.7l-0.5-5.3
		l-1.7-7.5l-3-6l0.4-2.9l4.2-7.1l3.9-6.3l-0.7-5.3l-1.2-4.1l1.2-5.1l-4.8-2.7l-1.3-4.2l1.6-5l-1-1.3h-1.8l-0.8-1.8l-0.1-3.7
		l-1.3-0.8l-3.7,0.1l-0.1-1.6l1.2-3.5l-2-4.6l-2.5-0.3l-2-3.6l0.6-1.8l-1.7-1.7l-1.8-6.8l-3.1-3.1l1.5-5.6l-1-2.6l-0.1-2.8l-2.2-2.4
		l0.4-3.1l3.4-1l0.4-5l-2.1-2.9l0.5-4.5l-1.1-3.9l0.9-2.8l-0.6-3.1l-2.2-0.8l-2.4,2.3l-4,0.5l-6-0.5l-10.7-0.9l-2.2,0.1l-4.7,1.8
		l-4.5,0.4l-2.3,2l-4.5-0.5l-2.3-2.1l-1.8,0.1l-0.7,2.8l-1.9-0.1l-2.3-1.7l-2,2L293,333l-1.5,1.6l-3.3,1.1l-2.7-0.3l-0.2,5.8l2,3.5
		v3.5l-0.4,2.4l-2.1,0.7l-5.1-3.3l-0.9-2.6l0.5-3.1l-0.7-1.6l-2.7-0.3l-1.1-0.9l-1-2.1l-1.7,0.1l-1.3,1.3l0.4,2.9l2-0.1l1.4,1.3
		l-0.4,2.2l-2.5,1.1l-2-1l-1.5,1.1l-2.3-3.8l-3-2.8l-2,0.5l-0.6,2.4l-1.5,0.9l-1.6-0.2l-0.2-3.7l-2.3-3.8l-2.6,0.6l-0.2,2.9
		l-1.6,1.3l-5.7-3.5l-1.8,0.9l0.4,3l-0.7,2.4l-1.6,1.5l-6.8,1.4l-3.4,3.1l-2.3-1.1l-1.4,0.2l-0.1,1.7l2.5,1.8l0.3,1.6l-2.9,3.8h-3.2
		l-2.1-1.1l-5.3-0.4l-1.5,1.9l-3.8-1.1l-7.2,3.2l-4.6-4.1l-1.9-4.7l-5.9-5l-1.9-4l-5.1,1l-1.6,9.7l1.5,0.7l-10.4,27.8l-1.6,3.7
		l-1.7,3.1l0.4,2.8l-2.4,4.5l1.8,1.9l4.1,0.5l-0.2,2l0.5,1.5l3.3,0.8l2.1,2.1v4.5l3.5,0.3l0.2,5.1l3,5l-1.4,0.4l1.7,4.4l12.1,1.1
		l6.8-1l1.2,2l-1.5,3.9l0.2,9.7l1.7,3l6.3,4.6l11.6,5.7l0.7,1.4L220,468l-1.9,0.9L217.7,468.8z"/>
	<g>
		<g>
			<text transform="matrix(1 0 0 1 256.7191 392.5165)" class="st1 st2">Chunarughat</text>
		</g>
	</g>
	<g>
		<g>
			<text transform="matrix(1 0 0 1 127.0524 453.8499)" class="st1 st2">Madhabpur</text>
		</g>
	</g>
	<g>
		<circle class="st3" cx="298.1" cy="421.6" r="13.4"/>
		<text transform="matrix(1 0 0 1 292.0964 428.8889)" class="st1 st4">4</text>
	</g>
</g>
</svg>
