<?xml version="1.0" encoding="utf-8"?>
<!-- Generator: Adobe Illustrator 25.2.1, SVG Export Plug-In . SVG Version: 6.00 Build 0)  -->
<svg version="1.1" id="Layer_1" xmlns="http://www.w3.org/2000/svg" xmlns:xlink="http://www.w3.org/1999/xlink" x="0px" y="0px"
	 viewBox="0 0 400 442" style="enable-background:new 0 0 400 442;" xml:space="preserve">
<style type="text/css">
	.st0{fill:#9BB6EA;stroke:#FFFFFF;stroke-width:0.5;stroke-miterlimit:10;}
	.st1{fill:none;stroke:#FFFFFF;stroke-width:0.25;stroke-miterlimit:10;}
	.st2{font-family:'TimesNewRomanPSMT';}
	.st3{font-size:16px;}
	.st4{fill:#FFFFFF;}
	.st5{font-size:24.672px;}
	.st6{fill:#C5CFED;stroke:#FFFFFF;stroke-width:1.033;}
	.st7{fill:#ABBEED;stroke:#FFFFFF;stroke-width:0.5;stroke-miterlimit:10;}
	.st8{fill:#7CA7E5;stroke:#FFFFFF;stroke-width:0.5;stroke-miterlimit:10;}
</style>
<g id="moulvibazar-1">
	<g>
		<polygon class="st0" points="249.1,121.4 251.5,117.6 250.9,104.3 252,99.5 250.7,96.8 250.8,94.8 247.4,94.5 247,93.3 
			251.7,91.5 254.8,87.3 256,87.7 256,91 258.5,94.2 260,93.6 262.6,90.7 263.2,88.6 265.6,86.3 264.4,82.3 264.9,78.5 263.5,75.5 
			265.5,73.8 267.3,75.7 267.2,80.9 268.6,81.7 273.4,81.1 274.6,78.8 276.6,77.7 275.3,75.5 275.8,73.2 277.9,72.5 278.4,68.8 
			277.5,65.7 278.3,62.8 275.2,62 274.1,54.7 274.5,51.5 282.3,52 285.8,56.9 288.1,57.1 290.5,55.5 292.4,55.7 294.3,51.3 
			296.8,50.3 301,53.7 304.4,52.2 307.6,52.2 310,50.3 315.7,50.3 317.5,48.9 322.4,48.8 325.3,46.3 328.7,46.4 331.4,48.1 
			335.1,48.3 337.2,49.8 340.4,48.3 340.4,41.1 338.3,39.1 337.7,31.5 338.7,27.9 342.2,26.7 344.9,27 347.9,26.5 347.7,23.3 
			350.5,22.1 354.6,19.7 356.7,17.5 361.3,16.9 363.3,18.5 365.7,18.2 366.5,16.5 363.2,13 362.4,11.7 363.1,10.4 368.9,8 
			369.8,8.6 368.4,10.6 369.3,11.1 371.7,11 375.2,11.4 380,11.5 381.6,13.1 381.9,17.1 383.3,20 382.5,21.3 383.3,23 382.3,25.7 
			382.8,28.1 382.2,30.4 385.4,31.4 385.5,35.1 387.2,36.2 389.3,36.3 390.2,38.7 389.4,42.8 388.3,44.6 386.6,44.3 386.9,48 
			386.6,50.7 390.4,52.4 390.5,54.4 389.3,57 386.5,59.2 386.4,63.8 388.6,65.5 393.9,67.3 394.4,68.9 392.5,72 389.2,78.2 
			385.3,83.5 384.8,86.3 382.2,90.4 379.3,95.8 376.6,96.6 375.2,99.5 375.9,101.2 373.2,104.5 374.3,106.2 372.6,112 371.6,114.8 
			369.8,117 371,125.5 368,135.1 368.3,140.1 366.7,143 366.9,145.3 363.9,153.4 363.6,158 362.3,164.3 362.8,166.4 362,169.8 
			354.2,173.9 348.8,174.4 342.1,177.9 335.9,175.5 336.1,179.2 331.5,178.6 328.1,179.7 324.4,174.4 317.7,172.9 319.1,171.1 
			314.7,165.6 309.2,165.1 306.1,166.6 304,161.3 299,155.6 299.6,150.8 298.5,143.6 300.6,133.4 297,132.2 296.2,130.3 
			294.3,129.4 292.1,131.4 288.8,131.1 285.6,132.4 283.6,130.8 280.6,125.8 273.8,123.4 273.8,120.6 275.6,117.8 275.3,112.9 
			272.7,112.3 270.5,114.6 270.2,116.3 266.9,120.1 267,124.1 264.4,126.6 264.8,127.6 263.6,128.3 263.5,130.3 257.8,132.6 
			255.2,137 255,138.8 253.8,139.5 251,135.9 248.1,135.7 246.9,134.2 246.4,127.4 247.8,125.2 249.1,121.7 		"/>
		<polyline class="st1" points="286.6,132 287.9,128.2 289,124.6 290.5,124.7 291.3,121.9 293.7,122.2 294.5,119.1 291.2,118.9 
			291.6,116.8 295.4,114 295.9,111.8 294.7,110.6 296,107.6 299,108.8 300.8,108.8 301,107.6 299.6,106.1 299.4,102.5 297.9,99.6 
			299.5,97.9 303.3,99.3 305.2,97 307.3,97.4 310.4,99.6 312.5,98.4 318.9,98.6 319.5,99.7 318.1,100.6 318.6,103.3 321.4,104.7 
			321.4,108.5 319.3,111.6 320.3,112.8 328.5,113.6 330.9,115.6 329.9,119 330.6,120 329.8,122.8 331.7,123.6 334,121.6 
			344.8,121.6 351.2,122.7 355.1,119.9 353.8,116.2 355,112.8 352.9,109.5 353.6,105.8 355.1,102.8 362.3,108 367.9,106.9 
			374,107.6 		"/>
		<g>
			<text transform="matrix(1 0 0 1 293.6615 78.9245)" class="st2 st3">Barlekha</text>
		</g>
	</g>
	<g>
		<text transform="matrix(1 0 0 1 303.6615 153.0495)" class="st2 st3">Juri</text>
	</g>
	<g>
		<circle class="st4" cx="336.9" cy="108.1" r="13.4"/>
		<text transform="matrix(1 0 0 1 330.9297 115.3889)" class="st2 st5">1</text>
	</g>
</g>
<g id="moulvibazar-2">
	<polygon class="st6" points="215.5,129.5 216.4,129.5 218.3,130.4 219.9,128 224,127 224.8,124.9 227.1,123.2 228.7,123.5 
		229.4,122.7 228.6,121.1 231,120 231.8,121.3 233.8,120.7 234.9,121.7 239.1,121.7 241.4,123.3 242.2,122.6 240.5,120.6 
		242.2,120.3 243.9,121.6 249.3,121.3 247.8,125.3 246.3,127.5 246.9,134.2 248.1,135.7 251.1,135.9 253.8,139.5 255,138.9 
		255.3,137 257.8,132.6 263.5,130.4 263.6,128.3 264.8,127.6 264.4,126.6 267,124.1 266.9,120.1 270.2,116.3 270.5,114.6 
		272.7,112.3 275.3,113 275.5,117.9 273.8,120.6 273.8,123.4 277.1,124.6 280.7,125.9 283.6,130.9 285.6,132.3 287,131.8 
		288.8,131.1 292.1,131.4 294.3,129.4 296.1,130.3 297.1,132.2 300.6,133.4 298.6,143.6 299.6,150.8 299,155.6 304,161.3 
		306.1,166.6 309.2,165.1 314.7,165.7 319.1,171.1 317.6,172.9 324.4,174.5 328.1,179.7 331.5,178.7 336.1,179.3 335.8,175.4 
		342.2,177.9 348.7,174.4 354.2,173.9 362.1,169.7 361.5,212.1 360.4,213.6 349,209.8 337.8,201 329,195.8 326.3,193.5 325,195.6 
		321.7,197.9 320.7,199.5 321,203.6 321.8,204.2 320,206.1 322,209.2 321.4,210.8 319.1,211.5 318.3,215.8 319.5,218 319.4,218.8 
		318.2,219.4 318.3,220.9 319.7,221.8 319.6,226 321.6,228.9 321.7,230.4 320.5,230.5 320.8,232.5 322.3,232.3 322.6,233.5 
		321,234.2 322.6,235.8 322.7,238.8 324,239.9 323.3,242.8 326.1,247.9 326.1,251.5 327.7,253.8 327.5,257 328.4,258.4 325.9,263.4 
		320.4,259.2 317.7,261.6 315,261.3 312,259.3 310.6,260.2 310.6,263 308.9,265.5 309.3,270.1 304.4,277.2 301.4,281.4 301.9,283.1 
		303.3,284.3 303,286.2 300.5,287.8 298.6,286.6 297.3,288.2 293.9,286.4 292,286.3 291.1,287.9 291.6,289 290.4,290.7 289,290.6 
		288.5,292.7 285.6,292.9 278.4,289.6 259.7,289.4 249.1,286.6 247.2,284.9 247.4,282.9 245.4,283.1 239.4,286.1 236.9,284.6 
		237.3,282.4 233,278.3 231.5,279 232.1,281.7 231.1,282.4 230.2,281.4 227.7,285.2 228.3,287.2 227.4,289.3 224.9,288.1 
		219.1,284.2 217,285.1 216.1,286.8 217.2,288.2 218.8,287.2 219.3,288.3 218.1,290.5 220.4,292.8 222.3,291.8 222.9,295.1 
		226.3,298.4 224.8,300 223.1,299 222.7,300.3 233.6,313.5 234.2,315.8 232.2,316.6 233.2,320.5 231,322 225.2,321.3 223.9,318.5 
		221.7,317.8 218.9,311.8 218.9,309.6 215.9,307.2 217.7,305.7 214.4,304.9 211.6,302.1 209.3,303 203.2,307.1 203.1,310.5 
		201.1,310.2 199.4,311.5 195.2,313 193.5,314.4 191.9,314.2 191.8,310.1 194.4,308.3 195.4,305.4 194.9,302.5 196.4,295.2 
		196.8,293.3 193.8,290.6 194.1,289.1 196,286.5 197.8,280.8 197.8,277.9 192.8,277.5 191.5,275.9 192,273.3 190.6,270 188.5,269.9 
		187.4,266.9 187.5,265 190.9,264.8 189.9,258.3 187,257.8 188.6,254.1 184.4,248.8 181.5,246.8 181.7,242.2 180,239.8 180.5,238.6 
		183,240.4 185.9,238.8 187.9,238.8 188.4,237.1 185.8,235.8 185.4,233.4 187.2,230 189.3,230.5 191.5,227.8 193.5,227.3 
		193.6,224.6 192,224.5 191.9,222.8 190.4,222.7 190.4,220.5 191.4,219.8 197,219.5 198.3,220.4 199.3,220.3 199.5,217.4 
		197.5,214.8 199.6,212.2 199.4,210 196.1,209.8 197.1,206 195.8,204.4 197,203.3 201.7,202.5 201.7,200.5 203.4,199.1 203.7,196.7 
		210.5,195.8 210.5,192.6 207.7,192 204.5,193.4 202.2,193 201.9,188.7 205.9,185.2 206.8,183 204.3,182.5 197.8,182.9 195.7,178.3 
		198.5,172.3 199.5,166.5 198.9,164.1 199,161.9 203.4,161.3 204.3,161 203.7,159 205.9,154.1 207.8,153.9 209.2,152.1 205.3,147.2 
		205.4,140.1 206.1,137.1 209.7,137.8 210.4,139.2 213.9,139.6 216.1,133.7 215.6,129.8 	"/>
	<path class="st1" d="M264.7,127.6l3.2,1l1.2,3.2l2.5,1.6v2.9c0,0-8.3,9.8-8.3,9.6s-0.5,10-0.5,10l-1.3,5.3l-3.7-1.3l-0.4-3.4
		l-1.9-1.1l-0.2,5.4l-0.6,1.8l-1.4,2.1l0.2,3.9l3.1,0.9l4-1.5l5,1.8l0.9,2l1.3-0.4l3.2,0.9l1.1-0.7l1.1,0.7l1.4,1.9l1.9,0.1l1.6-1.4
		l1.8,0.4l1.9,1.8l2.2,0.2l4.5,3.7l2.4-0.5l2.7,2.9l2.9,0.4l1.2-3.4l3.4-1.6l1.8,3.7l-0.2,5.6l-1.1,2.6l-2.3,0.9l-0.5,2.4l-1.1,0.8
		l1.4,1.8l-0.6,0.9l-2.9-0.4l-5.2,4.3l-4.8,7.1l-1.7,1.1l-0.5,12l0.7,4l-0.3,13.2l-1.4,4.4l1.9,2.3l1.7-0.1l4.7,6.1l2.6,11.3
		l2.1,7.8l-0.8,5l0.1,4.6l1.1,3l-1.9,5.2"/>
	<g>
		<text transform="matrix(1 0 0 1 225 203.8145)" class="st2 st3">Kulaura</text>
	</g>
	<g>
		<circle class="st4" cx="276.4" cy="233.6" r="13.4"/>
		<text transform="matrix(1 0 0 1 270.4297 240.8889)" class="st2 st5">2</text>
	</g>
</g>
<g id="moulvibazar-3">
	<polygon class="st7" points="44.5,161.1 46.4,159.7 47.4,152.5 46.2,146.1 44.5,140.8 45.2,138.8 49.5,137.5 49.1,136.3 
		50.1,135.9 51.5,137.5 52.7,135.1 54.2,134.7 56.2,138.3 56.4,140.8 58.9,145.3 57.3,148.2 57.9,150.7 64,152.1 73.3,158 76.5,158 
		81.2,159.1 84.5,157.2 86.2,161.3 88.8,161.3 88.8,162.5 87.2,163.6 91.7,163.8 93.3,165.6 92.3,166.7 93.6,170.1 90.9,174.7 
		94.2,175.3 94.4,173.6 97.4,174.7 97.9,171.8 101.1,173.6 99.5,176.7 100.5,178.1 100.1,182.4 102.2,186.9 105.9,187 107.5,189.2 
		113.2,189.4 114.7,193.9 120,193.9 121,196.4 123.1,198.6 122.9,204.6 124.5,209.5 128.6,208.9 126.3,211.8 125.2,216 130.9,217.1 
		131.6,219.7 129.7,221.9 130.9,222.9 134,219.6 134.5,218.3 136,218.3 135.6,221.6 134.8,225.8 136.5,225.9 136.7,228.2 
		138.4,229.8 140,229.5 141.1,231.6 139.3,232.8 140.5,239.3 140,240.8 134.5,236.1 132.5,237 134,240.8 131.9,242.4 130.6,240.4 
		128.2,241.2 127.6,244 126.2,243.9 125.8,246 124.2,245.5 125.4,239.7 122.7,239.4 121.2,237.4 118.4,238.2 116,237.5 115,244.8 
		115.7,250.3 119.8,250.1 120.2,260 117,260 115.4,257.9 113,259.3 115.7,261.4 117.9,265 116.7,274.2 110.5,274.9 109,274.1 
		108.4,271.4 104,272 104.1,273.8 97.6,274.6 97.1,275.7 89.8,275.3 83.5,275.1 82.6,276.2 76,276.7 73.6,273 71.5,272.2 
		65.2,273.6 64.2,276 60.2,274.5 61.9,269.3 60.3,268.4 59.4,270.5 55.9,274.3 51.3,274.1 49,272 43.5,274.5 39.8,274.7 36.4,269.4 
		36.9,267.9 41.8,267.8 43,266.4 40.9,263.4 39.2,261.9 38.9,257.5 37.3,256.9 34.9,257.1 34.3,255.5 35.3,254.5 34.2,252.5 
		31.5,252.4 29.8,249.2 32.7,243.6 32.3,241.5 30.1,241.5 29.9,238 25.8,236.9 23.4,236.8 22.2,234.4 20.3,233.5 18.5,234.6 
		18,228.2 19.3,225.4 19.2,222.3 21.2,220.7 21.3,218.6 20,217.2 24.6,209.9 22.9,208.7 23.6,207 28.5,207.1 31.4,205.6 30.6,203.2 
		29,202.5 30,200.2 33.5,199 33.3,194.9 31.8,194.8 30.7,191.6 32.7,190.2 35.1,190.3 36.8,192.6 40.6,190.9 41.4,186.8 40.1,185.7 
		39.3,186.9 37.8,186 36.7,182.8 34.5,182.1 35.7,177.5 34.8,176.7 31.4,177.9 29.3,174.5 29.2,171.1 27.1,170.8 24.8,170.4 
		25.5,168.1 28.1,167 24.2,163 20.9,165 18.8,167.4 16.6,166.5 17,162.3 21.3,158.8 22.8,155.9 24.4,156.4 27.5,159.8 32.6,160.9 
		38.7,159.2 42,159.1 	"/>
	<polygon class="st7" points="84.4,157.2 87,155.9 93.2,156.9 95.6,149.9 102.2,145.3 105.5,144.4 106.2,141.9 106.3,139.2 
		109.3,138.9 111.2,140.2 113.1,138.3 111,133.4 112.3,129.7 118.6,127.2 120.6,128.6 121.7,133 125.6,131 134.8,123.7 140,121.9 
		145.2,122.9 147.9,125.5 149.3,128 157.7,122.9 157.7,119.2 159.4,118.6 164.7,120.9 167.7,118.4 170,119.1 172.4,126.9 175.9,126 
		179.7,121.7 179.7,115 181.9,114.6 184.5,115.9 184.1,119.4 190.4,121.6 192.6,120.7 193.7,115.7 195.4,115.6 195.8,119 
		200.4,120.5 201.8,119.7 205.2,122.4 209.1,123 213.1,125.1 213.6,127.5 215.5,129.5 216.1,133.8 214,139.6 210.4,139.3 
		209.7,137.9 206.1,137.1 205.4,140 205.4,147.2 209.3,152.1 207.8,153.9 205.8,154.1 203.7,159.1 204.3,161 203.5,161.4 199,161.9 
		198.9,164.1 199.5,166.5 198.5,172.3 195.7,178.3 197.8,182.9 204.3,182.5 206.8,183 205.9,185.2 201.8,188.7 202.3,193 
		204.5,193.4 207.7,192 210.5,192.6 210.5,195.8 203.6,196.7 203.4,199.1 201.7,200.5 201.8,202.5 197,203.3 195.7,204.4 197.1,206 
		196.1,209.8 199.4,210.1 199.5,212.2 197.5,214.8 199.4,217.4 199.3,220.3 198.3,220.4 197,219.6 191.4,219.8 190.5,220.5 
		190.4,222.7 191.9,222.8 192,224.6 193.6,224.6 193.5,227.4 191.4,227.8 189.4,230.5 187.2,230 185.3,233.4 185.8,235.8 
		188.5,237.1 187.9,238.9 185.9,238.8 183,240.5 180.5,238.6 180,239.8 181.7,242.2 181.6,246.8 179.5,247.2 179.3,250.3 
		176.2,253.4 173.3,253.1 171.1,254 167.3,249.6 165.6,249.6 165.5,248.3 167.6,247.9 166.3,245.3 167.4,242.2 160.3,242.6 
		159,243.2 147.7,242.1 140.1,240.3 140.4,239.3 139.4,232.8 141.1,231.6 140,229.4 138.4,229.8 136.7,228.2 136.5,225.9 
		134.8,225.8 135.6,221.5 136,218.2 134.4,218.2 134,219.6 130.9,222.9 129.7,221.9 131.5,219.7 130.8,217 125.3,216 126.3,211.9 
		128.6,208.9 124.5,209.5 122.9,204.6 123.1,198.5 121,196.5 119.9,193.8 114.7,193.9 113.1,189.3 107.5,189.2 105.9,187 
		102.2,186.9 100.1,182.4 100.5,178.1 99.5,176.7 101,173.6 98,171.9 97.4,174.7 94.4,173.6 94.2,175.3 91,174.8 93.6,170.1 
		92.3,166.7 93.3,165.6 91.7,163.8 87.2,163.6 88.8,162.4 88.8,161.2 86.3,161.3 84.7,157.6 	"/>
	<g>
		<text transform="matrix(1 0 0 1 126.0781 176.8828)" class="st2 st3">Rajnagar</text>
	</g>
	<g>
		<text transform="matrix(1 0 0 1 36.4948 228.7578)" class="st2 st3">Moulvibazar</text>
	</g>
	<g>
		<circle class="st4" cx="153.9" cy="202.6" r="13.4"/>
		<text transform="matrix(1 0 0 1 147.9297 209.8889)" class="st2 st5">3</text>
	</g>
</g>
<g id="moulvibazar-4">
	<path class="st8" d="M18.6,234.5l1.2,2.8l-2,5.4l-0.2,4.8l-0.5,2.1l-1.4,1.8l0.7,1.7l1.3-0.9l1.7,0.1l2.2,3.4l-0.2,1.1l-2,2.4
		l0.8,0.9l1,0.5l-1,2l2,3.5l-0.4,1.4l-3.7-0.9h-6.2l-0.5,1.4l0.6,1.1l-0.2,9.7l1.4,9.4l-1,7.3l0.8,4.4l1.2,0.6l6.5,0.2l0.8-2.2h2.8
		l0.2,1.8l-2,0.8l0.6,4l1.5,2.8l1.7,1.5l1.8,6.2l0.7,9.1l0.1,5.1l-0.7,3.2l-2,3.6l-0.7,3.9l-5.7,6.2l-0.5,1.3l1.6,4.4l-0.2,8.1
		l1.8,2.6l-0.2,2.5l-0.7,0.7l-1.4-0.3l-1,1.6l0.2,1.7l1.5,1.2l0.4,3.4l1.1,1l-1.4,2.7l-0.5,1.6L21,380l1.7,0.6l2,6.2L26,388l0.2,2.5
		l0.9,1.5l2.3,0.9l0.8,4.1l-1.2,1.6l1,1l2.9,0.1l0.6,0.8l0.1,3.3l2.4,1.5l-0.6,4.9l2,3.4l2.2,0.6l0.9-1.7l1.6,0.3l2.1,1.5l1.9-2
		l0.3-4.1l0.1-5.4l-3.1-0.6v-2.6l-0.8-5.3l-2.1-3.3v-3.6l2.4-0.1l2-3.2l0.8-2l3-0.9l0.5-2.7l1.2,0.2l0.7,3.5l-0.8,7l1,4.7l3.9,4.5
		l2.5,5.1l0.6,7.4l0.8,3.9l2,5.6l4,3.1h2.4l1.7-2.1l1.9,0.2l2,5.2l5.4,0.9l3.5,0.8l0.8,2.6l3,2.1l3.2-0.4l2.3,0.3l0.4,1.4l1.7,0.1
		l9.3-0.2l0.3-2.5l-1.8-8.1l-2.5-17.1L94.1,374l-0.9-3.8l1.2-0.7l7.4,5.7l13.4,8.2l2.8-2.5l2.9-8.2c0,0-1.6-3.6-1.5-3.6l1.1-5.3
		l-2-1.2l-2-2.3l-4.7,4.8l-1.1,0.5l-1.8-0.4l-1.6,2.4l-1.4,0.4l-0.9-1l1.9-3l3.1-0.3l1.9-3.2l-1.1-2.2l0.5-2.8l2-0.3l3.8,0.8
		l0.7-1.6l3-0.1l-1-4.8l1.3-9.1l-0.9-4.4l-2.9-2.4l-8.5,0.4l-1.8-1l1.1-5.8l1.4-3.1l-0.3-1.1l-2.4-0.2l0.2-3.7l4-1.6l4.2,0.3
		l-0.7-16.1l-0.8-0.5l-5.6,1l-0.8-2.8l2.4-3.5l3.1,1.9l4.5,2l2.1-1.3h2l0.5-1.4l0.1-2.6l1.4-2.7l-0.6-1.9l-5.1-2.8l-0.6-0.6l0.7-1.5
		l1.7,1l1.5-1.1l-4.4-9.6v-1.4l-6.1,0.8L109,274l-0.6-2.8L104,272l0.2,1.6l-6.5,0.9l-0.5,1.1l-7.2-0.5l-6.3-0.2l-0.9,1.2l-6.6,0.5
		l-2.4-3.7l-2-0.8l-6.3,1.4l-1.1,2.4l-3.9-1.5l1.6-5.2l-1.6-0.9l-0.9,2.1l-3.5,3.8l-4.6-0.2l-2.5-2l-5.5,2.5l-3.7,0.2l-3.4-5.4
		l0.5-1.5h4.9l1.3-1.4l-2.1-3l-1.8-1.5l-0.3-4.5l-1.6-0.6L35,257l-0.7-1.6l1-1l-1-2l-2.7-0.1l-1.6-3.2l2.8-5.7l-0.4-2.1h-2.2
		l-0.2-3.5l-4.1-1.1h-2.4l-1.2-2.5l-1.9-0.9l-1.4,1L18.6,234.5z"/>
	<polygon class="st8" points="115.6,383.1 119.6,386.6 128.5,386 130.9,388.7 132.7,391.2 136.6,392.7 138.9,390.6 141.2,389.9 
		142.5,387.3 145.2,387 146,385.4 145.3,382.5 148.6,381.5 150.5,383 148.5,384.1 148.9,385.7 151.4,385 151.7,385.8 149.6,386.9 
		151.5,388.4 152.9,388.3 155.6,390.4 155.2,391.4 152.4,390.2 152.2,391.5 153.5,393 151.8,393.2 152.4,396.5 150.4,397.5 
		148.8,396.5 148.2,397.5 151.1,401.9 150,403.8 153,408.7 154.1,408.6 156.2,408.2 157.5,409.6 158.9,408 160.1,408.9 161.3,411.6 
		163.4,411.6 165.7,413.1 166,415 167.1,415.2 166.1,417 166.4,419.8 168.1,422.1 167,424.5 168.9,426.3 168.8,429.9 170.5,430.7 
		173.4,434.7 175.2,434.8 175.6,436 177.9,434.8 179.5,434.1 182.2,435.6 184.1,434.2 184.6,431 186.8,429.8 186.7,426.7 
		188.7,424.4 188.3,419.3 189,417.6 187.2,415.5 189.3,407.9 191.5,399.8 202.8,356.1 190.4,314.3 191.9,314.1 191.9,310.1 
		194.4,308.3 195.4,305.4 194.9,302.6 196.9,293.3 193.8,290.6 194.1,289.1 196,286.5 197.8,280.8 197.8,277.9 192.8,277.5 
		191.5,275.9 192,273.3 190.6,270 188.5,269.8 187.4,266.9 187.5,265 191,264.7 189.8,258.3 187,257.8 188.6,254.1 184.4,248.8 
		181.5,246.7 179.5,247.2 179.3,250.3 176.2,253.4 173.3,253.1 171.1,254.1 167.3,249.5 165.6,249.6 165.5,248.2 167.6,247.9 
		166.4,245.2 167.4,242.2 160.3,242.5 158.9,243.2 147.7,242 140.1,240.2 140,240.7 134.4,236.1 132.6,237 134,240.8 131.9,242.4 
		130.6,240.4 128.2,241.2 127.6,244 126.2,243.9 125.8,245.8 124.2,245.5 125.3,239.8 122.8,239.4 121.2,237.3 118.4,238.2 
		116,237.5 115,244.7 115.7,250.3 119.8,250.1 120.2,259.9 117,260 115.3,257.8 113.1,259.3 115.8,261.4 117.9,265 116.6,274.2 
		116.6,275.4 121,285.1 119.5,286.2 117.7,285.2 117,286.8 117.6,287.4 122.7,290.2 123.3,292 122,294.7 121.8,297.3 121.3,298.7 
		119.4,298.7 117.3,300 112.8,298 109.7,296.2 107.3,299.6 108.1,302.4 113.6,301.4 114.5,301.9 115.2,318 111,317.7 107,319.4 
		106.9,323 109.2,323.2 109.5,324.3 108.1,327.5 107,333.3 108.8,334.2 117.4,333.8 120.2,336.2 121.1,340.6 119.8,349.7 
		120.7,354.4 117.7,354.5 117,356 113.2,355.2 111.2,355.5 110.7,358.3 111.8,360.5 109.9,363.7 106.8,364 105,367.1 105.8,368.1 
		107.3,367.7 108.9,365.3 110.7,365.7 111.8,365.2 116.6,360.4 118.5,362.7 120.6,363.9 119.5,369.2 120.9,372.7 118.1,380.9 
		115.9,383 	"/>
	<g>
		<text transform="matrix(1 0 0 1 118.6614 319.5078)" class="st2 st3">Kamolganj</text>
	</g>
	<g>
		<text transform="matrix(1 0 0 1 31.7864 315.6328)" class="st2 st3">Sreemangal</text>
	</g>
	<g>
		<circle class="st4" cx="90.1" cy="341.4" r="13.4"/>
		<text transform="matrix(1 0 0 1 84.0964 348.7222)" class="st2 st5">4</text>
	</g>
</g>
</svg>
