<?xml version="1.0" encoding="utf-8"?>
<!-- Generator: Adobe Illustrator 25.2.1, SVG Export Plug-In . SVG Version: 6.00 Build 0)  -->
<svg version="1.1" id="Layer_1" xmlns="http://www.w3.org/2000/svg" xmlns:xlink="http://www.w3.org/1999/xlink" x="0px" y="0px"
	 viewBox="0 0 390.5 429" style="enable-background:new 0 0 390.5 429;" xml:space="preserve">
<style type="text/css">
	.st0{fill:#C5CFED;stroke:#FFFFFF;stroke-width:0.5;stroke-miterlimit:10;}
	.st1{fill:#232323;}
	.st2{font-family:'TimesNewRomanPSMT';}
	.st3{font-size:16px;}
	.st4{fill:#FFFFFF;}
	.st5{font-size:24.672px;}
	.st6{fill:#ABBEED;stroke:#FFFFFF;stroke-width:0.5;stroke-miterlimit:10;}
	.st7{fill:#9BB6EA;stroke:#FFFFFF;stroke-width:0.5;stroke-miterlimit:10;}
	.st8{fill:#8BAFE8;stroke:#FFFFFF;stroke-width:0.5;stroke-miterlimit:10;}
	.st9{fill:#7CA7E5;stroke:#FFFFFF;stroke-width:0.5;stroke-miterlimit:10;}
	.st10{fill:#6899E0;stroke:#FFFFFF;stroke-width:0.5;stroke-miterlimit:10;}
</style>
<g id="brahmanbaria-1">
	<polygon class="st0" points="189.5,59.5 193.4,54.3 199,44.7 207.1,41.6 219.6,41.2 225.6,42.1 230.2,44.4 232.2,42.7 231.6,38.9 
		224.7,33.8 223.7,30.9 226.8,24.1 235.6,22.9 240.1,23.6 255,21.8 265.7,18.9 268.4,15.9 270.1,12.2 276.2,10.3 282.5,6 285.2,8.7 
		285,12 287.2,12.8 290.5,18.3 293.4,19.1 294.6,22.7 298.5,23.6 300.6,23.1 302.6,25.7 305.2,23.8 306.9,25.7 311.2,24.2 
		310.9,26.8 313.1,27.1 314.2,25.4 317.4,28.5 318.9,26.3 326.7,30.4 332.3,30.8 335.1,32.4 340.3,33 344.3,33 345.8,31.5 347,33.4 
		348.7,31.3 351.8,32.8 352.7,31.2 349.4,28.8 349.3,24.4 351.4,23.3 351.6,22.2 350.3,20.1 354.7,14.1 356.7,9.8 362.4,3.7 
		366.2,3.7 373.4,5.9 376,8.9 376.2,12.5 378.5,15.1 378.2,20.1 375.6,21.9 375,25 375.6,27.9 373.8,29.1 370.6,27.7 369.6,28.2 
		369.4,30.2 365.6,30.1 364.8,34.3 362.7,35.3 361.2,33 359.5,33.3 359,38.8 357.4,39.9 353.7,36.7 350.4,36.8 350,42.2 344.4,47.9 
		345.9,50.3 350.8,52.9 359.3,49.4 358.3,47.3 359.8,46.8 363.5,49.2 363.9,46.8 368.4,46.2 369,49.6 369.7,51.8 369.4,59 
		368.5,60.3 365.9,54.9 362.1,55.4 359.8,57.3 354.2,58.8 352.8,58.4 350.5,58.7 350.2,61.8 345.8,61.9 345.4,71.5 345.4,77.9 
		343.1,79 340.8,77.3 339.5,80.5 341.2,83.1 340.4,84.6 337.4,84.7 336.5,86.1 337.1,88.8 342.8,88.7 342.8,95 344.2,96.3 
		343.4,100.4 346.7,101.1 353.1,102.3 355.1,104.3 354.8,107.2 353.1,106.9 351.4,104.5 350,105.2 351.6,109.3 349.9,109.8 
		342,108.6 340.8,121.2 338.1,121.7 338,123.4 339.2,124.2 339,127.6 337.7,129.1 336.5,128.7 332.2,133.8 331.2,133.2 330.7,131.2 
		328.9,130.8 327.6,120 322.6,115 313.1,112.2 308.5,113.3 305.3,110 302.5,112 296.8,111.9 296.1,117.8 301,121.5 295.8,124.1 
		295.2,126.9 292.5,128.1 282.6,122.9 280.5,123.3 278.8,122.5 278.8,119.4 277.5,114.6 275.2,112.8 274.8,105.8 267.8,101.3 
		263.2,96.7 264.2,93 263,90.6 258.6,89.8 254.4,91.3 250.3,89.1 248.1,90 243.6,87.8 243.5,86.2 242.4,83.7 246.2,75.7 248.3,75.4 
		248.2,72.5 249.9,71.1 247.1,69.6 244.9,71.3 240.8,71.7 239.1,70.4 233.1,70.7 233,68.7 231.3,66.7 229,66.6 228.3,64.8 
		225.4,63.4 224.4,66.1 223,66.7 221.8,65 222.9,62.7 221,62.4 219.4,63.4 220.1,70.5 221.3,73.8 219.5,76.2 217.7,73.8 215.8,74.7 
		211.3,71.7 210.5,68.3 208,66.2 203.5,67.7 201.6,67.2 201.8,62.7 199.6,62 195.9,63.1 192.9,62.7 189.8,59.6 	"/>
	<text transform="matrix(1 0 0 1 242.387 48.9056)" class="st1 st2 st3">Nasirnagar</text>
	<g>
		<circle class="st4" cx="309.4" cy="67.9" r="13.4"/>
		<text transform="matrix(1 0 0 1 303.4297 75.2222)" class="st2 st5">1</text>
	</g>
</g>
<g id="brahmanbaria-2">
	<polygon class="st6" points="201.4,138.2 208.4,129.3 210.2,123.8 206.7,113.9 201.2,107.6 192.3,101.7 179.1,96 173.1,90.8 
		166,81.1 166.4,75.4 173.4,70.1 182.2,65 187.6,61.3 189.4,59.3 193,62.8 195.9,63.1 199.6,62 201.9,62.8 201.6,67.1 203.5,67.6 
		208,66.3 210.5,68.3 211.3,71.7 215.8,74.7 217.8,73.9 219.5,76.2 221.3,73.8 220.1,70.6 219.3,63.4 221,62.4 223,62.7 221.8,65 
		222.9,66.7 224.3,66.1 225.4,63.3 228.2,64.9 229,66.6 231.4,66.7 233,68.7 233.1,70.7 239.1,70.4 240.8,71.7 244.9,71.3 
		247.1,69.6 250,71.1 248.2,72.5 248.4,75.4 246.2,75.7 242.4,83.7 243.5,86.3 243.6,87.8 248.1,90.1 250.3,89.1 254.3,91.3 
		258.6,89.9 263,90.7 264.1,93 263.2,96.7 267.8,101.3 274.8,105.9 275.2,112.8 277.4,114.6 278.8,119.5 278.8,122.5 280.6,123.4 
		282.6,122.9 292.5,128 295.2,127 295.8,124.1 301.1,121.5 296.1,117.8 296.8,111.9 302.5,111.9 305.3,110 308.6,113.2 313.2,112.2 
		322.7,115.1 327.6,120 329,130.9 326.7,131.1 325,129.6 323.6,130.8 323.9,136.1 320.7,141.7 313.5,147.2 315,150.4 314,152.2 
		312.4,151.8 304.3,157.6 302.9,155.6 300.4,156.6 298,160.5 294.8,160.5 292.7,164.1 290.1,164.6 289.9,166.4 292.5,167.2 
		292.2,171.6 287.8,181.5 285.6,186.8 283.9,188.8 283,188 283.3,184.7 282.8,177.6 284.3,174 283.8,172.7 282,173.3 278.5,168.1 
		275.1,163.9 275.3,161.5 273.7,161 274.4,155.8 272.4,150.7 263.6,149.9 258.5,151.6 253.3,150.2 252.4,148.9 249.8,149.4 
		247.6,148.6 245.9,151 246,153.1 244.1,153.9 242.6,156.3 241.3,154 238.2,152.2 232.9,153.8 230.7,156.3 229.6,155.6 227.2,157.6 
		227.2,159.7 220.2,159 219.1,156.2 219.1,151.3 220.1,148.7 218.5,144.1 214.4,143.4 214.6,146 211.5,146.5 207.4,141 204.3,140.7 
			"/>
	<polygon class="st6" points="201.4,138.2 197.5,141.4 192.3,143.6 190.1,146.6 181.4,150.4 181.7,154.9 188.3,159.2 189.5,161.9 
		191.7,163 194.8,167.2 197.9,165 198.8,161.1 206.6,157.3 211,159.7 215.8,159 216.7,157.1 215.9,153.5 219.1,154.2 219.2,151.2 
		220.1,148.7 218.5,144 214.4,143.3 214.6,145.9 211.5,146.5 207.4,141 204.2,140.7 	"/>
	<polygon class="st6" points="181.4,150.5 176.2,154.2 168.9,159.8 166.2,165.3 159.8,173.2 154.9,185.1 155.6,187.6 157.5,190.9 
		158.6,203.4 163.6,205.4 167.4,209.4 171.5,209.3 174.7,207 185.7,206.4 185.6,201.4 187.2,200.3 197.2,201.3 198.3,199.7 
		199.5,189.6 202.9,188 204.7,188.1 206.1,189.4 207.5,188.4 203.6,182.9 203.6,176.3 215,174.7 216,172.6 215.8,170.1 214.8,168.2 
		215.4,166.3 217.4,165.4 217.9,160.9 215.8,158.9 211,159.7 206.6,157.3 198.8,161.1 197.9,164.9 194.9,167.1 191.7,162.9 
		189.5,161.9 188.3,159.1 181.7,154.9 	"/>
	<text transform="matrix(1 0 0 1 234.637 128.4889)" class="st1 st2 st3">Sarail</text>
	<text transform="matrix(1 0 0 1 138.0536 182.2389)" class="st1 st2 st3">Ashuganj</text>
	<g>
		<circle class="st4" cx="225.4" cy="98.6" r="13.4"/>
		<text transform="matrix(1 0 0 1 219.4297 105.8889)" class="st2 st5">2</text>
	</g>
</g>
<g id="brahmanbaria-3">
	<polygon class="st7" points="236.1,279.4 240.2,278.3 243.3,279.4 255.4,278.1 262.1,279.1 265.8,282.7 268.1,287.8 270,290.2 
		272.2,290.5 275.7,288.5 274.4,283.2 276.2,278.8 276.6,274.3 280.5,273.7 284.6,275.8 284.4,281.2 281.8,284.2 283,287.6 
		287.7,289.6 291.8,288.6 297.6,281.7 301.8,275 298.9,267 302,261 304.6,259.8 305.7,256.2 305.1,253.2 306.7,251.4 308.9,253.2 
		311.4,250.5 316.9,253.2 322.5,252.2 325,249.8 326.5,246.3 327.7,246.5 328.9,245.1 326,239.8 323.6,237.9 320,236.4 319.7,235.2 
		324.6,235.7 332.8,237 335.9,238.4 340.7,237.5 344.7,238 346.5,239.7 347.7,238.7 346,230.3 344.4,227.5 340.5,224.5 343.5,216.6 
		345.4,210.5 350.3,204 353.2,198.4 354.9,199 354.1,202 355,203.3 354.6,207.2 356.7,208.6 362.2,205 361.5,202.9 365.3,194.4 
		364.2,190.9 366.1,188.2 363.5,186.9 360.8,186.9 360.6,183 363.2,182.5 364.5,179.8 364.5,177.9 366.6,178 366.6,176.3 
		368.4,174.1 368.8,169.9 366.3,169.7 366.2,167.7 370.4,167.9 371.8,166 370.8,164.4 371.1,158.8 366.1,156 366.2,148 360.7,145.7 
		360.1,144.3 357.1,144.2 355.7,145.3 353.3,143.3 355.6,140.6 353.6,139.3 353.5,135.9 356.5,132.5 356.9,129.4 359.6,125.2 
		359.4,121.9 355.7,121.5 353.5,123 351.7,122.2 350.3,124.6 347.3,121.7 343.5,122 343.3,120.5 340.8,121.1 338.1,121.7 338,123.3 
		339.3,124.2 339,127.5 337.7,129.1 336.5,128.6 332.3,133.9 331.2,133.2 330.7,131.2 328.9,130.8 326.6,131 325,129.6 323.6,130.8 
		323.9,136.1 320.7,141.7 313.5,147.2 314.9,150.3 314,152.2 312.4,151.7 304.3,157.5 302.9,155.7 300.4,156.6 298,160.5 
		294.8,160.5 292.7,164.1 290.1,164.6 289.8,166.4 292.5,167.2 292.2,171.7 285.6,186.8 283.9,188.8 283,188 283.3,184.6 
		282.8,177.5 284.3,174 283.8,172.7 282,173.3 278,167.6 275.1,163.9 275.3,161.5 273.7,160.9 274.4,155.8 272.4,150.7 263.5,149.8 
		258.4,151.5 253.2,150.2 252.4,148.9 249.7,149.4 247.6,148.6 245.9,151 246,153 244,153.9 242.6,156.2 241.3,153.9 238.2,152.1 
		232.8,153.8 230.8,156.4 229.5,155.5 227.2,157.6 227.2,159.7 220.2,159 219.1,156.2 219,154.1 216,153.5 216.6,157.2 215.9,158.9 
		217.9,160.9 217.5,165.4 215.4,166.3 214.8,168.2 215.7,170.1 216,172.5 215,174.7 203.7,176.4 203.6,182.8 207.4,188.4 206,189.3 
		205.2,189.9 204.6,192.7 208.9,200.4 208.4,203.1 209.3,206.1 207.8,215.6 209.5,217.7 209,220 210.4,220.7 216,219.3 220.4,216.3 
		224.6,217.1 227.2,221 228.2,226.2 226.9,237.4 224.9,245.5 222.6,250.4 222.5,257.2 226.2,268.6 229.4,273.5 	"/>
	<text transform="matrix(1 0 0 1 249.7203 202.9055)" class="st1 st2 st3">Brahmanbaria</text>
	<g>
		<circle class="st4" cx="294.7" cy="224.7" r="13.4"/>
		<text transform="matrix(1 0 0 1 289.7631 232.0555)" class="st2 st5">3</text>
	</g>
</g>
<g id="brahmanbaria-5">
	<path class="st8" d="M216,219.3l-5.7,1.5l-1.4-0.8l0.5-2.3l-1.6-2.1l1.5-9.5l-1-3l0.4-2.7l-4.3-7.7l0.6-2.8l0.8-0.5l-1.3-1.3
		l-1.7-0.1l-3.5,1.6l-1.2,10.1l-1.1,1.6l-10-0.9l-1.6,1.1l0.1,5.1l-11,0.5l-3.2,2.4l-4.1,0.1l-3.7-4l-5-2.1l-0.1,3l-3.2,2.5
		l-2.7-0.1l-5.9,6.5l-1.1,3.1l-0.3,15.2l-3.3,4.9l-3.5,1.1l-6.5,6.2l-1.6,4.4l-5.1,16.6l-5.5,7.6l-4.6,3.2l-4.6,0.4l-6.1-2.4
		l-7.2-4.4l-9.3-3.4l-11.7,6.7l-1.7,2.7l-1.2,0.3l0.2,2.4l2.6,1.3l2.3,5.7l2.6,0.7l0.5,1.3l-3.2,1.6l2.1,10.2l-5,1.8L76,306l2.2,0.6
		l5.5-4.9l3.4-4.2l7.3,0.1l0.7,1.5l-2.6,10.2l0.7,1.2l0.4,3.5l5,1.6l3.7-2.2l2.4,0.7l0.3,4.9l3.3,10l-2,2l-5,1l-1.6,2.7l2.8,5.3
		l1.1,10.7l0.3,3.8c0,0,5.8-2.8,5.8-3s0.3-2.4,0.3-2.4l4-0.1l1-4l6.6-2l1.7,1.1l-1,1.6l2.3,0.2l4.5-2.5l3.8-1.8l2.8,0.3l5.8-2.8
		l1.5-1.5l1.4,0.2l1.3,2.3l5.9-0.7l-0.1-4.3l8.3-2.6l12.7-1.1l14.2-4.4l2.6,0.2l5.7-3.1l3-0.2l0.9,2.3l1.5,1l-1-5.7l3.6-3.2l2.7,1.9
		l4.8,0.1l1.9-2.1l2.8-0.5l2.3-3.2l6.4-1.2l2.4-4.6l0.9-3.7l-3,0.2l-5.9-4.2l0.3-2.9l-2.1-2.6l1.1-3.5l4.3,1.6l2.1-1.6l2.4,0.1
		l2.2-2.1l-0.5-2.6l1.5-0.2l1.8,2.2l0.9-0.5v-2.4l4.2-7.3l-7-6l-3.2-4.9l-3.6-11.3v-6.8l2.4-5l2-8l1.3-11.2l-1-5.3l-2.7-3.9
		l-4.1-0.7L216,219.3z"/>
	<text transform="matrix(1 0 0 1 143.5536 257.9055)" class="st1 st2 st3">Nabinagar</text>
	<g>
		<circle class="st4" cx="151.1" cy="284.4" r="13.4"/>
		<text transform="matrix(1 0 0 1 145.0964 291.7222)" class="st2 st5">5</text>
	</g>
</g>
<g id="brahmanbaria-4">
	<polygon class="st9" points="328.3,245.7 328.6,248.4 326.6,251.3 321.6,254.2 317.2,255.7 317.8,269.2 321.1,270.4 322.9,273.4 
		323.6,277.8 328.4,285.7 332.8,295.9 332.4,299.1 328.7,302.1 322.4,312.6 319.6,315.5 319.6,318.2 318.9,320.8 314.4,328.8 
		313.3,330.8 310.7,329.9 308.2,332.4 306.3,331 305.8,328.6 302.9,328.2 300.8,325.7 302.1,321.4 300.9,320.7 299.8,322 298,319.7 
		291.1,321.5 287.5,321.7 286.4,325.6 284.1,326.4 283,325 284.7,321.5 285.1,314.7 287.3,309 285.4,307.4 280.1,312.1 277.9,308.8 
		275.5,309.7 275.4,314.2 273.2,311.1 273.1,314.3 270.6,312.3 268,314.7 263.2,313.9 256.3,309.1 253.9,309.8 251.6,314.4 
		249.3,314 248.3,315.7 246.8,314.8 248,311 248.2,305.2 247,304.4 247.5,301.2 250.9,297.9 251.4,292.8 253.8,292.4 255.3,294.7 
		256.8,292.3 259.5,292.3 258.9,286.6 262.8,279.7 265.8,282.7 268.1,287.8 270,290.2 272.2,290.5 275.8,288.5 274.4,283.2 
		276.3,278.8 276.6,274.3 280.4,273.7 284.6,275.8 284.4,281.2 281.8,284.2 283,287.6 287.6,289.6 291.8,288.6 297.7,281.6 
		301.8,275 298.9,267 302,261 304.6,259.8 305.6,256.3 305.1,253.2 306.7,251.4 308.9,253.2 311.4,250.5 316.9,253.2 322.5,252.2 
		325,249.7 326.5,246.3 327.7,246.5 	"/>
	<path class="st9" d="M232.2,289l-0.9,0.5l-1.8-2.2l-1.5,0.2l0.5,2.6l-2.2,2.1L224,292l-2.1,1.6l-4.3-1.6l-1.1,3.5l2.1,2.6l-0.3,2.9
		l5.9,4.2l3-0.2l-0.9,3.7l-2.4,4.6l-6.4,1.2l-2.3,3.2l-2.8,0.5l-1.9,2.1l-4.8-0.1l-2.7-1.9l-3.6,3.2l1,5.4l0.3-0.1l0.9,2.2l-1.3,1
		l-3-2.5l-0.1,1.5l2.6,3.5l-1.8,5.4l0.7,2l0.6,0.1l2.2-3.6l1.9,3.3l0.3,3.3l-0.1,2.3l-1.4,0.9l-0.9-1.8l-1.6,0.8l1.2,3h1.8l1.7-3.5
		l2.5-1.4l0.7,1.9l-2.1,2.3l0.4,0.7l4.8-0.2l0.8,1.5l-2.3,3.2l1.2,1l2.9-3.3l2.3,0.3l-1.9,4.6l-0.2,2.6l-1.4,1.2v1l1.3,1.4l1.9-1.4
		l2.4,1l-1.4,2.3l2.7,0.4l-0.1,4.6l1.6,0.2l0.8-2.2l2.8-0.4l-0.2,2.8l-2.7,2.2l2.8,2.6l0.5-1.9l0.3,0.2c0.7,0.4,1.4,0.9,1.8,1.1
		c0.1-0.4,0.4-1.1,0.8-2.5l0.1-0.3l1.6,0.9l-2,5.1l1.9,2.6l3.3,0.1l1.9-2.5l1.4,0.8l-0.3,2.5l4.6,0.5l2-1.7l1.5,1.6l-0.5,1.7
		l-4.5,2.4l0.7,0.7l1.7-0.8l1.5,2.4l-2.7,0.7l1.7,1.4l1.9-0.7l0.2,3.2l-2.6,1.3l0.6,1.1l2.6-0.2l1.2,3.3l1.1-0.3l-0.1-2.7l2.8-0.3
		l1.3,1.8l-2,1.5l0.9,3.6l2.7-0.3l3.4,4l-0.8,2.4l-2.7,2.8l0.8,1.2l2.2-0.3l-0.6,2.4l2.6,0.1l0.6,1.7l3.9-0.1l1.8,1.1l0.5-2l3.5,0.1
		l6.4-2.3l3.3,4.6l2-0.3l2.4,4.6l2.6,0.3l1.8-1.3l4.8,1.7l3.6,0.2l1.7,1.4l-1.2,4.1l0.8,0.9l4.4-0.1v-2.9l2.2,0.1l0.6-2.5l-1.5-1.2
		l0.8-1.7l-0.9-2.7v-0.1l0.6-6.5l1-2.9l-0.4-3l1.9-2.2l-2.3-1l-4.3-4.1l-2.6,1.6h-0.1l-10.6-0.1l-12.5,0.6l-1.3-5.8l-0.4-4.7
		l-1.5-4.9V383l2.2-7.2l1.5-8.7l0.5-3.7l6.3-6.8h0.1l10.2,1.3l3.4-2.1h0.1l12.2,1.3l5.5,9l1.1-0.5l0.4-3.7l3.3-5.7l-0.8-3.7l3.6-5.5
		l-0.2-11.7l-0.9-4.2l-1.6-2.1l-0.7,1.3l-0.5,1l0,0l0,0l-2.6-0.9l-0.8,0.8l-1.8,1.8l-2.2-1.5l-0.5-2.4l-2.7-0.4l-2.3-2.6l1.3-4.2
		l-0.8-0.5l-1.1,1.5l0,0l0,0l-0.4-0.5l-1.5-2l-6.8,1.8l0,0h-0.1l-3.3,0.2L288,324l-0.7,2.3l-1.6,0.5l-1,0.4l0,0l0,0l-1.2-1.6
		l-0.1-0.1l1.1-2.3l0.6-1.3l0.1-2.4l0.3-4.5l0.6-1.5l1.5-4.1l-1.1-1l-0.4-0.3l-5,4.4l-0.4,0.3l0,0l0,0l-0.2-0.4l-2-3l-2,0.7
		l-0.1,5.1l-2.2-3.1l-0.1,3l-2.7-2.2l-2.5,2.3l-5-0.9l-6.8-4.7l-2.2,0.7l-2.3,4.7l-2.4-0.5l-1,1.8l-1.9-1.1l1.3-4l0.2-5.7l-1.3-0.8
		l0.6-3.4l3.3-3.3l0.6-5.2l2.7-0.4l1.4,2.1l1.3-2.2l2.6-0.1l-0.6-5.5l4-6.9l-0.5-0.5l-6.8-0.9l-12,1.3l-3.1-1.1l-3.8,1l-4.2,7.3
		L232.2,289z"/>
	<text transform="matrix(1 0 0 1 266.637 304.2389)" class="st1 st2 st3">Akhaura</text>
	<text transform="matrix(1 0 0 1 216.3453 342.4472)" class="st1 st2 st3">Kasba</text>
	<g>
		<circle class="st4" cx="275.3" cy="336.1" r="13.4"/>
		<text transform="matrix(1 0 0 1 269.3464 343.4722)" class="st2 st5">4</text>
	</g>
</g>
<g id="brahmanbaria-6">
	<polygon class="st10" points="104.1,354.5 105.8,360.7 105.5,366.3 103.3,372.3 95.6,377.9 92.8,375.1 88.4,375.8 83.8,373 
		79.7,373.6 75.1,374.3 74.2,376.1 70.4,372.5 70.2,370.1 67.8,368 63.3,368.3 59.6,365.4 55,359 51.2,359.1 51,361.9 48.1,362.5 
		45,366.2 39.8,366.8 40,373.2 36.6,380.9 37.2,385.8 41.4,388.4 44.5,392.4 43.4,398.4 39.3,402.1 33.7,401.7 31.3,397.8 30.6,392 
		28.4,390.3 25.1,391.8 20.9,395.2 16.1,396.7 14,389.3 13.8,388.6 6.1,380.6 3.7,376.2 2.6,364.9 4.2,358.8 8.8,351.1 16.3,339.8 
		28.9,324.1 31.8,313.8 30.6,304.6 26.8,297 25,288.9 26.9,282.1 31.5,277.8 39.2,277.9 55.3,277.8 66,279.2 73.7,277.7 73.8,280 
		76.5,281.3 78.8,287 81.4,287.7 81.9,289 78.7,290.6 80.7,300.8 75.8,302.7 76.3,306 78.4,306.6 84,301.8 87.4,297.6 94.5,297.7 
		95.4,299.2 92.8,309.5 93.5,310.6 93.9,314 98.8,315.6 102.6,313.5 105.1,314.2 105,319 108.3,329 106.3,331 101.3,332.1 
		99.7,334.8 102.5,340.2 103.9,354.1 	"/>
	<text transform="matrix(1 0 0 1 20.8453 340.6139)" class="st1 st2 st3">Bancharampur</text>
	<g>
		<circle class="st4" cx="57.4" cy="304.4" r="13.4"/>
		<text transform="matrix(1 0 0 1 51.4297 311.7222)" class="st2 st5">6</text>
	</g>
</g>
</svg>
