<?xml version="1.0" encoding="utf-8"?>
<!-- Generator: Adobe Illustrator 25.2.1, SVG Export Plug-In . SVG Version: 6.00 Build 0)  -->
<svg version="1.1" id="Layer_1" xmlns="http://www.w3.org/2000/svg" xmlns:xlink="http://www.w3.org/1999/xlink" x="0px" y="0px"
	 viewBox="0 0 381.3 497.7" style="enable-background:new 0 0 381.3 497.7;" xml:space="preserve">
<style type="text/css">
	.st0{fill:#ABBEED;stroke:#FFFFFF;stroke-width:0.5;stroke-miterlimit:10;}
	.st1{fill:#232323;}
	.st2{font-family:'TimesNewRomanPSMT';}
	.st3{font-size:16px;}
	.st4{fill:#FFFFFF;}
	.st5{font-size:24.672px;}
	.st6{fill:#CFDDFF;stroke:#FFFFFF;stroke-width:0.5;stroke-miterlimit:10;}
	.st7{fill:#6ECDEA;stroke:#FFFFFF;stroke-width:0.5;stroke-miterlimit:10;}
	.st8{fill:#8AEEFF;stroke:#FFFFFF;stroke-width:0.5;stroke-miterlimit:10;}
	.st9{fill:#68ABDD;stroke:#FFFFFF;stroke-width:0.5;stroke-miterlimit:10;}
	.st10{fill:#8BAFE8;stroke:#FFFFFF;stroke-width:0.25;stroke-miterlimit:10;}
	.st11{fill:#7CA7E5;stroke:#FFFFFF;stroke-width:0.5;stroke-miterlimit:10;}
	.st12{fill:#7AD2F4;stroke:#FFFFFF;stroke-width:0.5;stroke-miterlimit:10;}
	.st13{fill:#5BBFD6;stroke:#FFFFFF;stroke-width:0.5;stroke-miterlimit:10;}
	.st14{fill:#C5CFED;stroke:#FFFFFF;stroke-width:0.5;stroke-miterlimit:10;}
	.st15{fill:#6899E0;stroke:#FFFFFF;stroke-width:0.5;stroke-miterlimit:10;}
	.st16{fill:#4897D8;stroke:#FFFFFF;stroke-width:0.5;stroke-miterlimit:10;}
	.st17{fill:#2377DB;stroke:#FFFFFF;stroke-width:0.5;stroke-miterlimit:10;}
	.st18{fill:#4B90E2;stroke:#FFFFFF;stroke-width:0.5;stroke-miterlimit:10;}
	.st19{font-size:20px;}
</style>
<g id="chattogram-1">
	<polygon class="st0" points="112.7,134.7 112.7,134.8 117,138.8 119.2,138.7 119.2,138.7 121.8,144.8 125.4,142.8 125.5,142.8 
		128.3,143.4 128.9,141.4 125.4,141.3 125.4,141.3 123.3,136.8 123.4,136.8 127.4,135.6 127.5,135.6 129.1,137.9 134.5,136.7 
		134.8,134.6 134.8,134.6 138.6,132.9 140.3,130.2 140.3,130.2 142.6,130.1 140.6,123.4 137.5,119 131.4,107.2 126.4,94.7 
		126.4,94.7 129.5,90.1 131.8,91.5 132.3,89 127.5,78.6 126.7,72.6 126.7,72.6 129.7,68.8 128.5,61.9 128.5,61.9 132.2,49.1 
		130.8,45.5 131.9,43.1 127.8,36 127.8,36 128.5,32.8 125.4,30.6 125.4,30.6 126.5,27.7 127,23 125.1,22 126.7,20.3 123.3,20.2 
		123.3,20.1 123.6,18 120.5,19.7 121.4,15.9 121.5,16 126.3,17.6 125.8,15.7 122.9,14.2 123,11.3 120.6,10.7 120.6,10.7 120.5,9 
		117.4,11 116.7,8.5 110.8,14.2 107.1,17.4 107.5,20.7 107.5,20.8 105.7,21.8 105.6,21.7 104.2,17.6 100.6,18.9 100.6,18.8 
		99.1,16.1 97.4,17.1 98.4,19.7 98.3,19.7 95.7,22.9 95.7,22.9 91.3,19.9 89.8,22.1 91,24.5 94.5,24.2 94.5,24.3 95.8,29 95.8,29.1 
		91.9,30.3 93.9,34.4 93.8,34.4 89.7,38.2 89.7,38.2 86.6,37.5 86,40.5 86,40.5 83,41.6 83,41.6 78.5,38.9 69.9,39.9 63.2,40.2 
		59.4,43.8 59.6,48.1 65.1,50.6 69.9,49.8 71.3,53.7 71.3,53.7 67.5,58.2 67.3,66 66,70.6 66,73.5 60.6,78 58.6,83.6 59.1,88.2 
		62.7,94.6 64.8,115.7 71.9,128.2 82.1,148.2 97.9,141.9 97.9,141.9 98,142.1 98.9,141.2 	"/>
	<g>
		<text transform="matrix(1 0 0 1 57.1791 97.7314)" class="st1 st2 st3">Mirsharai</text>
	</g>
	<g>
		<circle class="st4" cx="101.9" cy="68.4" r="13.4"/>
		<text transform="matrix(1 0 0 1 95.9297 75.7222)" class="st2 st5">1</text>
	</g>
</g>
<g id="chattogram-3">
	<polygon class="st6" points="79,147.5 61.4,134.7 48.7,129.5 32.8,126.2 23.8,124.5 21.8,134.9 18.1,146.5 9.1,156.9 4.6,164.9 
		4.2,170.7 9.3,178 14.6,191.8 26.7,208 32.8,217.3 42.5,239.5 48.9,256.5 52.5,263.3 71,279 89,284 105.3,283.8 132.2,271.6 
		135.6,263.7 141,258.1 138.9,242.4 132.6,224.7 127.8,214.2 106.5,194.4 100.3,181.3 91.2,168.1 81,148.7 	"/>
	<g>
		<text transform="matrix(1 0 0 1 35.1791 192.3981)" class="st1 st2 st3">Sandwip</text>
	</g>
	<g>
		<circle class="st4" cx="84.1" cy="221.6" r="13.4"/>
		<text transform="matrix(1 0 0 1 78.1797 228.8889)" class="st2 st5">3</text>
	</g>
</g>
<g id="chattogram-16">
	<polygon class="st7" points="304.1,465.5 304.5,462 302.9,459 300.3,457.3 300.3,457.3 299.7,453.5 298,452.6 298,452.6 
		294.3,445.8 294.3,445.8 294.7,437.9 292,435.7 290.8,432.8 290.8,432.8 291,429.6 288.2,428.4 288.2,428.4 286.7,425.9 
		286.1,421.6 285.3,421.5 285.3,421.4 283.8,416.9 281,416.5 281,416.5 281.7,411.4 280.2,410.2 280.2,410.2 279.7,405.7 
		276.8,405.3 276.7,405.2 276.2,404.1 276.2,404.1 279,403 279.2,401 279.2,401 280.9,398.9 277.1,399.1 274.6,401.3 274.5,401.3 
		270.1,400.7 270.1,400.6 268.1,389.2 268.1,389.2 269.5,386.3 269.5,386.3 273.3,386.2 274.5,384.7 273.4,383.2 273.5,383.2 
		275.8,382.8 275.8,382.8 278.6,384.9 281.8,389.8 284.2,390.2 285,387.2 281.4,381.4 281,378.2 278.7,377.5 276.4,379.9 
		276.4,379.9 275,378.6 275,378.5 276.4,376.2 275.3,373.5 271.9,370.3 268.5,372.3 268.5,372.2 266.8,369.1 266.8,369.1 
		268.3,368.2 268.2,365.9 265.7,364.4 265.7,364.4 267.7,361.2 262.7,361.4 262.7,361.4 262.7,357.5 253.5,353.9 252.9,358.7 
		249.2,363.9 249.1,363.9 241.4,362.9 238.1,363.8 238.5,368 243.4,371.8 243.4,371.8 243.6,374.6 243.6,374.6 241.6,377.3 
		236.1,376.9 236.1,376.9 233.7,372.3 230.4,369.4 227.1,370.7 226.4,378 228.2,379.3 231.5,383.7 231.5,383.7 231,390.4 
		231.5,396.9 235.4,404.7 237.3,415.3 237.3,415.3 236.3,424.5 233.4,431.3 236.7,440.8 239,445.7 240.1,452 245.5,458.4 
		247.3,457.7 247.3,457.7 249.4,462.1 249.4,462.1 249.1,470.8 252.9,479.3 254.3,493.6 257.3,494.5 258.5,492.2 256.5,487.9 
		256.6,487.9 258.7,484.4 261.3,484.5 263.2,485.4 266.3,483.8 266.5,480.3 266.6,480.3 269.2,482.8 270.7,478.8 270.8,478.8 
		272.8,479.6 272.8,479.7 271.8,483.1 274.1,483.9 276.8,480.8 275.1,478.8 275.1,478.8 277.1,476.7 277.1,473.8 277.1,473.8 
		278.9,473.4 278.9,473.4 281.8,475 287.9,471.7 291.6,471.7 291.6,471.7 293.9,474.5 300.7,472.6 300.8,472.6 302.7,473.8 
		304.3,471.6 303.3,470.1 303.3,470.1 305.5,468.5 304.1,465.6 	"/>
	<g>
		<text transform="matrix(1 0 0 1 202.7002 417.5996)" class="st1 st2 st3">Banshkhali</text>
	</g>
	<g>
		<circle class="st4" cx="275.1" cy="448.4" r="13.4"/>
		<text transform="matrix(1 0 0 1 262.0964 455.7222)" class="st2 st5">16</text>
	</g>
</g>
<g id="chattogram-13">
	<polygon class="st8" points="262.8,357.1 262.8,357.4 262.8,357.4 264.6,353.8 263.9,353.9 263.9,353.8 264.7,353.7 264.7,353.6 
		265.3,348.6 265.3,348.6 269.6,349.6 270,347.1 267,345.4 267,345.4 267.8,343.2 267.8,343.2 270.1,341.3 269.3,337.3 269.3,337.3 
		272.7,333.9 272.7,333.8 272,333.5 272,333.4 272.7,333.7 273.2,330 273.2,330 274.5,328.3 273.7,326.9 270.4,327.7 270.4,327.6 
		270.8,324.1 262.9,325.2 262.9,325.1 262.4,320.6 253.3,322.5 253.5,324.4 252.1,325 252.1,325 249.9,322.2 248.3,324.5 
		248.3,324.5 244.3,324 244.3,324 243.9,323 244,323 245.1,320.8 241,320.2 237.1,318.3 235.6,319.3 235.1,322.4 236.6,323.9 
		236.6,323.9 235.2,324.7 234.9,327.5 232.5,326.1 228.2,327.4 228.2,327.3 223.1,324.3 220.9,322.6 219.4,322.8 219.4,323.3 
		219.4,323.3 211.5,331.6 208.8,336.1 207.8,345.8 209.2,353.1 210.8,360.8 215.6,368.7 219.7,379.2 223.3,384.3 225.9,384.9 
		227.3,383.8 226.1,381 226.1,381 226.3,378 225.5,377.4 225.5,377.3 226.3,377.9 227,370.6 227,370.6 230.4,369.2 230.4,369.3 
		233.8,372.2 236.2,376.8 241.6,377.2 243.5,374.6 243.3,371.8 238.4,368 238,363.7 238,363.7 241.3,362.8 241.4,362.8 249.1,363.8 
		252.8,358.7 253.4,353.7 253.5,353.8 262.7,357.4 262.7,357.1 	"/>
	<g>
		<text transform="matrix(1 0 0 1 212.6374 340.6064)" class="st1 st2 st3">Anwara</text>
	</g>
	<g>
		<circle class="st4" cx="232.8" cy="358.1" r="13.4"/>
		<text transform="matrix(1 0 0 1 219.8464 365.4722)" class="st2 st5">13</text>
	</g>
</g>
<g id="chattogram-12">
	<polygon class="st9" points="280.8,334.9 280.8,334.9 283.6,335.7 287.7,334.1 286.9,331.2 286.9,331.2 290.9,329.2 291.1,324.5 
		291.1,324.5 293,324.8 293.4,323.9 290.9,322.1 290.9,322.1 291.2,320.5 291.3,320.5 295.1,320.1 295.1,320.1 299.5,321.4 
		299.5,321.5 298.3,323.7 302.3,324.9 304.4,323.9 304.4,323.9 307,326.1 307,326.1 305.8,329.2 315.6,327.8 317.5,322.8 
		317.6,322.8 319.6,323.7 322.4,321.2 326.9,320.1 326.9,320.1 330,321.7 331.7,320.6 331.2,315.4 328.6,315.6 328.6,315.5 
		323.6,307.3 323.6,307.3 326.1,305.4 325.4,302.2 325.4,302.1 327.8,297.5 326.6,296.7 326.6,296.6 326.8,294.7 323.3,293.4 
		323.3,293.4 323.6,288.5 320.8,285.9 320.8,285.9 320.2,282.9 318,283 316.2,284.7 313,284.7 310.4,286.3 310.4,286.3 304.5,285.8 
		300.1,283.1 300.1,283.1 299.6,280.5 298.2,280.4 298.2,280.4 297.6,274.5 287.6,279.8 274.3,280.7 274.3,280.7 269,279 
		263.7,282.6 263.7,282.6 257.8,282 255.1,283.3 255.1,283.3 251.5,283.1 243.8,283.6 239.9,284.8 239.9,284.8 235.9,282.8 
		232.8,283.5 232.8,283.8 232.8,283.8 227.6,290.3 220.6,293.3 212.6,295 206,300.8 205.5,308.7 206.1,309.1 207.9,311.6 
		211.6,313.6 217.5,314.4 217.5,314.4 219.7,317.3 219.7,317.4 219.5,322.7 220.9,322.5 220.9,322.6 223.2,324.2 228.2,327.2 
		232.5,326 232.5,326 234.8,327.4 235.1,324.6 235.1,324.6 236.5,323.9 235,322.4 235,322.4 235.5,319.2 235.5,319.2 237.1,318.2 
		237.1,318.2 241,320.1 245.2,320.8 245.2,320.8 244.1,323.1 244.4,323.9 248.2,324.4 249.8,322 249.9,322.1 252.1,324.9 
		253.4,324.3 253.1,322.4 253.2,322.4 262.5,320.5 262.5,320.5 263,325.1 270.9,324 270.9,324.1 270.6,327.5 273.8,326.8 
		273.8,326.8 274.6,328.3 274.6,328.4 273.3,330 272.8,333.7 278,335.8 	"/>
	<g>
		<g>
			<text transform="matrix(1 0 0 1 272.0541 307.6898)" class="st1 st2 st3">Patiya</text>
		</g>
	</g>
	<g>
		
			<ellipse transform="matrix(0.1602 -0.9871 0.9871 0.1602 -90.8804 502.383)" class="st4" cx="249.8" cy="304.6" rx="13.4" ry="13.4"/>
		<text transform="matrix(1 0 0 1 236.8464 311.9722)" class="st2 st5">12</text>
	</g>
</g>
<g id="chattogram-4">
	<g>
		<polygon class="st10" points="193.7,235.7 191.6,235.3 191.6,235.2 192.6,232.9 185.8,226.2 185.3,223.6 188.2,223.7 190.8,221.3 
			190.2,217.5 186.4,216 187,210.1 184.6,207.9 183.4,203 180.3,200.6 177.5,193.8 175.4,195.4 173.2,194.8 173.1,194.8 
			171.4,187.8 168.2,184.2 168.2,184.1 167.4,178.5 166.1,180.2 166,180.2 164.2,179.8 164.3,175.6 161.8,167.8 159.2,161.5 
			156.7,159.1 156,157.9 155.1,157.9 155.1,157.8 155.9,157.8 154.3,155.3 155.3,154 151.9,147.5 147.9,139.4 143.9,130.1 
			142.8,130.2 143.1,131.2 143,131.3 142.7,130.2 140.3,130.3 138.7,132.9 134.9,134.6 134.6,136.7 134.5,136.8 129.1,138 
			127.4,135.7 123.5,136.8 125.4,141.3 129,141.3 128.3,143.5 125.5,142.9 121.8,144.9 119.1,138.8 116.9,138.9 112.7,134.9 
			98.9,141.3 98.1,142.1 109.4,151.8 117.9,162.1 123.6,165.3 135.4,179 144.6,189.6 155.4,206 159.8,209.3 161.8,214.7 166.3,220 
			172.5,232.4 174.7,238.4 175,241 178.3,245.2 178.3,246.6 178.9,247.6 194.3,242.1 		"/>
		<g>
			<text transform="matrix(1 0 0 1 85.5125 157.3147)" class="st1 st2 st3">Sitakunda</text>
		</g>
	</g>
	<g>
		<circle class="st4" cx="147.5" cy="175.6" r="13.4"/>
		<text transform="matrix(1 0 0 1 141.513 182.9722)" class="st2 st5">4</text>
	</g>
</g>
<g id="chattogram-5">
	<polygon class="st11" points="227.7,234.8 227.7,234.8 227.9,232.3 228,232.3 232.1,232.7 232.1,232.8 232,237.1 233.8,237.6 
		234.7,230.7 229.9,230 227.1,231.2 227,231.2 226.1,230 229.1,227.3 229.1,227.3 232.3,226.8 232.3,226.8 236.9,230 238,228.6 
		235,226.6 235,226.6 236.6,221.1 235.2,220.1 231.9,223.1 231.9,223.1 230.6,221.6 230.6,221.6 234.7,216.9 232.4,216.2 
		232.5,216.1 233.7,214.1 235.9,214 235.7,212.2 232.9,212.8 230.5,214.9 228.3,213.5 222.9,215 222.9,215 221.1,213.3 221.1,213.2 
		222.3,210.8 222.3,210.8 224.4,210.4 222.8,208.6 220.8,208.6 220.9,208.5 223.4,206.3 223.4,206.3 225.9,206.7 225.4,205 
		221.1,204.5 221.1,204.5 218.5,201.6 218.6,201.5 220.1,200.5 220.1,200.5 221.4,202.2 222.3,200.5 219.6,196.7 221.8,195.1 
		220.4,193.4 220.4,193.4 221.1,191.4 220,190.9 221.8,188.3 219.7,185.9 218,185.6 218,185.6 217.1,183.2 215.2,183.9 214.4,181.7 
		210.8,177.9 208.9,178.2 208.9,178.1 210.4,170.3 207,165.2 203.9,162 200.3,159 198.2,154.3 196.2,156.5 196.1,156.5 193.9,156 
		191.8,161.5 188.1,168.1 188.1,168.1 184.1,169.9 184.1,169.8 180.3,167.2 175.4,163.5 173.9,165.7 170.5,165.4 170.4,165.4 
		165.9,160.5 164.7,158.2 161.8,157.6 156.1,157.9 156.8,159 159.3,161.4 161.9,167.7 164.4,175.6 164.4,175.6 164.3,179.8 
		166,180.1 167.4,178.2 167.4,178.4 168.3,184.1 171.5,187.8 173.2,194.7 175.4,195.3 177.5,193.6 177.6,193.7 180.4,200.6 
		183.5,203 183.5,203 184.6,207.8 187.1,210.1 187.1,210.1 186.5,215.9 190.3,217.4 190.3,217.4 190.9,221.3 190.9,221.3 
		188.2,223.8 188.2,223.8 185.4,223.7 185.9,226.1 192.8,232.9 192.7,232.9 191.7,235.2 193.8,235.7 193.8,235.7 194.4,242.1 
		197.3,246.3 197.3,246.4 197.7,251.7 202.8,262.2 202.8,262.2 200.8,263.9 202.6,266 206,267.3 209.7,264.7 209.9,262.3 
		209.9,262.2 212.7,261.8 215.6,257.3 221.5,253.2 221.5,253.2 222.7,254.5 222.7,254.5 222.6,257 227.9,255.6 227.7,258.7 
		231.6,257.3 231.6,257.3 233.6,257.6 235.4,256 233.8,252 233.8,252 236.2,244.5 236.1,244.5 231.9,241.9 	"/>
	<g>
		<text transform="matrix(1 0 0 1 154.0958 200.6481)" class="st1 st2 st3">Hathazari</text>
	</g>
	<g>
		<circle class="st4" cx="208" cy="219.6" r="13.4"/>
		<text transform="matrix(1 0 0 1 202.013 226.9722)" class="st2 st5">5</text>
	</g>
</g>
<g id="chattogram-14">
	<path class="st12" d="M345.4,346.8l-1.6-4.7l-2.8-1.2l-3.2,2.2l-0.4,3.3l3.4,3.1l1.7,5.8l0,0l-1.1,1.6l0,0l-4-3.7l-2.4,1.3
		l-0.9,6.1l1.7,7.2l2.7,6.2h-0.1l-2.4,0.9l0,0l-2.2-1.4l0,0l-2.6-6.2l-1.7-5.2l-11-1.6l-8.1,4.5l-1.5,4.8l0,0
		c-0.6,0.2-1.2,0.5-1.2,0.6l0,0l0,0l0,0c0,0-0.1-0.1-1.2-1.9l0,0l0,0l1.2-6.5l-2.5-0.9l0,0l-1.4-4.4l-2.9,1.6l0,0l-2.5-0.7l0.3,4.1
		l0,0l-1.5,1.5l1.4,3l0,0l-2.3,2.7l0,0c-1.6,0.5-4.1,1.3-4.4,1.4l0,0c0,0-0.1,0-5.8-2.6l0,0l0,0l-0.7-2l-3.7-1.4l0,0l-0.2-2.9
		l-1.2-1.2l-2.5-5.5l-2.9-1.8l-2.3,0.6l0,0l-1.6-0.8l-3.6,0.9l-2.2,0.2l-1.9,3.7l0,0l0,0v3.8l5.1-0.2l-0.1,0.1l-2,3.2l2.5,1.5l0,0
		l0.1,2.3l0,0l-1.4,0.9l1.6,3l3.3-1.9l0,0l3.5,3.2l1.1,2.8l0,0l-1.3,2.3l1.3,1.2l2.3-2.4l0,0l2.4,0.7l0,0l0.4,3.2l3.6,5.8l0,0
		l-0.9,3.1l0,0l-2.5-0.3l0,0l-3.2-5l-2.8-2l-2.2,0.4l1,1.5l0,0l-1.3,1.5l0,0l-3.8,0.1l-1.3,2.8l1.9,11.3l4.4,0.6l2.6-2.2l0,0l4-0.2
		l-1.8,2.3l-0.2,2l0,0l-2.8,1.1l0.5,1l3,0.5l0,0l0.5,4.5l1.4,1.3l0,0l-0.7,5l2.8,0.4l0,0l1.5,4.5l0.7,0.1V421h0.1v0.3l2.2,0.3l0.8-2
		l0,0l2,1l4-2.2l0,0l2.4,1.7l3.1-2.6l0,0l3.1,0.6l3.7-3.4v0.1l2.4,4.4l3,1.3l0,0l1.2,2.4v3.7l5.6-1.5v-1.2l-2.2-1.5l0,0l-0.1-5.1
		l-2.9-1.6l0,0l2-2.7l0,0h1.7l0,0l1.7,1.2l3.9-3.4l1.7,0.3l0.8-2.7l0,0l1.8-1.1l-0.6-2.6l0,0l3.4-1.2l0.2-1.8l-2-1.6h0.1l3.4-2.4
		l-1-2l1.3-0.8l0,0l3.2,2.6l0,0l0.5,1.5l3,0.5l2.9-2.1l0,0l3.4,4.7l4.8,0.3l1.9-2l-2.6-1.3l0,0l4.1-5.5l-8.7-1.7l0,0l-1.2-2.2l0,0
		l2.4-1.6l0,0l2,1.4l2.4-1.1l-0.4-1.9l0,0l5.3-1.7l1.3-5.4l-5-3l0,0l-0.5-3.1l0,0l4.6-4.1l-0.1-2.7l-3.5-0.4l0,0l-0.5-5.4l-3-2.6
		l0,0l3.6-4.1l-0.3-3.4l-2.3-4.7l-2.3,0.1l0,0l-0.1-0.3L345.4,346.8L345.4,346.8z"/>
	<g>
		<text transform="matrix(1 0 0 1 291.3875 387.3148)" class="st1 st2 st3">Satkania</text>
	</g>
	<path class="st12" d="M344,296.2l-4.2-1.2l-6.3,3.3l-3.9,0.4l0,0l-1.7-1.2l-2.4,4.6l0.7,3.2l0,0l-2.5,1.9l4.9,8.1l2.6-0.1l0,0
		l0.5,5.3l0,0l-1.8,1.2l0,0l-3.1-1.6l-4.4,1.1l-2.9,2.5l0,0l-2-0.8l-1.9,4.9l0,0l-10,1.4l1.2-3.2l-2.5-2.1l-2.1,1l0,0l-4.2-1.2v-0.1
		l1.2-2.2l-4.2-1.3l-3.8,0.3l-0.3,1.5l2.4,1.8l0,0l-0.5,1l0,0l-1.8-0.3l-0.2,4.6l0,0l-3.9,2l0.8,2.9l0,0l-4.1,1.7l0,0l-2.9-0.9
		l-2.8,0.9l0,0l-5.2-2v0.1l0,0l-3.4,3.4l0.8,4l-2.3,1.9l-0.7,2.1l3,1.7l0,0l-0.5,2.6h-0.1l-4.2-1l-0.5,5l0,0l2.1-0.2l3.7-0.9
		l1.6,0.8l2.3-0.6l3,1.8l0,0l2.5,5.6l1.2,1.2l0,0l0.2,2.9l3.7,1.4l0,0l0.7,2c2.2,1,5.5,2.5,5.7,2.6c0.2-0.1,1-0.4,4.4-1.4l2.3-2.7
		l-1.4-3l0,0l1.5-1.5l-0.3-4.2h0.1l2.6,0.7l2.9-1.6v0.1l1.5,4.5l2.5,0.9l0,0l-1.2,6.5c0.4,0.6,1,1.7,1.1,1.8
		c0.1-0.1,0.4-0.2,1.2-0.6l1.5-4.8l0,0l8.1-4.5l0,0l11.1,1.6l0,0l1.7,5.2l2.6,6.1l2.1,1.4l2.3-0.8l-2.6-6.1l-1.7-7.3l0,0l0.9-6.1
		l0,0l2.5-1.3l0,0l3.9,3.7l1.1-1.5l-1.7-5.8l-3.4-3.1l0,0l0.4-3.4l0,0l3.3-2.3l0,0l2.9,1.2l0,0l1.6,4.7l2.6-1l-3.4-9.9l0,0l0.5-2.9
		l-2.4-2.5l0,0l1.6-7.5l-1.4-1.6l0.8-2.8l-3.1-3.4l0,0l1.4-6.9l-0.8-2.7l4.6-4.6l0.5-5.5L344,296.2L344,296.2z"/>
	<g>
		<text transform="matrix(1 0 0 1 290.3042 339.2731)" class="st1 st2 st3">Chandanaish</text>
	</g>
	<g>
		<circle class="st4" cx="317.1" cy="357.4" r="13.4"/>
		<text transform="matrix(1 0 0 1 304.0964 364.7222)" class="st2 st5">14</text>
	</g>
</g>
<g id="chattogram-15">
	<polygon class="st13" points="351,402.8 346.1,402.5 346,402.5 342.7,397.7 339.8,399.8 339.8,399.8 336.7,399.2 336.7,399.2 
		336.2,397.7 333.1,395.2 331.9,395.9 332.8,397.9 332.8,398 329.4,400.3 331.3,401.9 331.3,401.9 331.1,403.8 331.1,403.8 
		327.7,405 328.3,407.5 328.3,407.6 326.5,408.7 325.6,411.5 323.9,411.2 320,414.6 320,414.6 318.3,413.4 316.6,413.4 314.7,416 
		317.5,417.6 317.5,417.6 317.6,422.7 319.8,424.2 319.8,424.2 319.8,425.5 319.8,425.5 314,427 314,426.9 314.1,423.1 312.9,420.8 
		309.9,419.5 309.9,419.4 307.5,415.1 303.9,418.5 303.9,418.5 300.8,417.9 297.7,420.6 295.2,418.8 291.2,421 291.2,420.9 
		289.2,420 288.4,421.9 288.4,421.9 286.2,421.6 286.8,425.8 288.3,428.3 291.1,429.5 291.1,429.6 290.9,432.8 292.1,435.6 
		294.8,437.8 294.8,437.8 294.4,445.8 298,452.6 299.8,453.4 299.8,453.5 300.4,457.3 303,458.9 303,458.9 304.7,462 304.7,462 
		304.2,465.5 304.2,465.5 307,464.2 307.1,464.2 308.7,466.3 311.3,463.5 313.7,470.8 317.7,464.6 317.7,464.6 319.7,463.7 
		319.7,463.7 321.2,465 324.2,462.1 325.6,464.2 327.3,462.5 327.3,462.6 329.1,464 331.5,462.9 331.7,459.9 331.7,459.9 337,458.7 
		336.9,458.8 334.7,461.6 335.8,463.4 335.8,463.5 333.4,466 337.3,470 340.9,472.9 343.3,470.7 343.4,470.8 346.6,470.9 348,469.4 
		349.5,470.1 355.4,468 355.4,468.1 356.9,469.7 360.3,468.2 359.7,465.7 358.1,466.1 358.1,466.1 355.2,462.3 356.7,459.6 
		354.1,459.3 353.9,455.7 352.8,455.3 353,453.5 356.2,452.5 356.3,452.5 360,454.5 365.6,451.1 367.9,450.5 366.1,449.3 
		367.4,445.8 367.5,445.8 371.3,444.3 372.4,441.7 372.4,441.7 374.4,442.1 375.7,439.9 372.6,438.4 372.7,438.3 374.3,436.5 
		370.8,433.9 370.8,433.9 370.4,429.7 372.8,429.6 376,427.9 375.4,426.3 370.3,426.5 370.3,426.4 370.4,421.9 366.6,422.1 
		366.9,420 362.3,418.2 359.9,421 359.9,420.9 358,414.8 353.6,412.1 353.6,412.1 357.3,408.5 357.2,406.5 357.3,406.5 359.3,405.8 
		359.8,402.8 353.2,400.9 352.9,400.7 	"/>
	<g>
		<text transform="matrix(1 0 0 1 304.0967 444.6064)" class="st1 st2 st3">Lohagara</text>
	</g>
	<g>
		<circle class="st4" cx="340.1" cy="417.6" r="13.4"/>
		<text transform="matrix(1 0 0 1 327.0964 424.9722)" class="st2 st5">15</text>
	</g>
</g>
<g id="chattogram-2">
	<path class="st14" d="M128.7,32.8l-0.8,3.2l4.1,7.1l0,0l-1.1,2.4l1.4,3.6l0,0l-3.7,12.8l1.3,6.9l0,0l-3,3.7l0.7,6l4.8,10.4
		l-0.6,2.7l-2.3-1.4l-3,4.5l5,12.4l6.1,11.7l3.1,4.5l2.1,6.7l1.2-0.1l0,0l4.1,9.3l4,8.2l3.4,6.6l-1,1.3l1.6,2.5l5.8-0.3l0,0l2.9,0.6
		l0,0l1.2,2.4l4.5,4.8l3.4,0.3l1.5-2.2l5,3.7l3.8,2.6l4-1.7l3.6-6.6l2.2-5.6l2.3,0.5l2.1-2.2v0.1l2.2,4.7l3.6,3l3,3.1l3.4,5.1l0,0
		l-1.4,7.8l1.8-0.3l0,0l3.6,3.8l0.9,2.1l1.9-0.6l0,0l0.9,2.3l1.7,0.3l0,0l2,2.3l0,0l0,0l3.6-1.9l1.4-3.7l0,0l2.4-1.9v0.1l-0.3,8.6
		l4-1.7l0.7-9.3l1.8-5.7l3.3-0.9l0.5-2.4l0,0l1.3-0.9l-0.6-2.9l0,0l1.5-0.7v0.1l0.8,2.2l1.7-1.3l-0.8-4.7l0,0l2.2-1l2.2,1.3l1.9-1.6
		v-1.6l-1.9-1.5h0.1l2.1-1.6l-0.3-4.1l-2.6,0.5v-0.1l0.4-4.9l0,0l3.1-1.6L250,141l0,0l2.5-1.3l0.8,4.3l3.9-0.3l3.2-3.4l-2.6-3.4
		l-3.1-0.3l0,0l-1.3-2.4l0,0l1.6-4.9l-2.7-3.2l-3.7,1.5l0,0l-1.8-1.3l-5,4.1v-0.1c-0.6-1.1-1.5-2.9-1.6-3c-0.2,0-3.3,0-3.5,0h-0.1
		l0,0l0,0c-0.1-0.4-2.4-7-3.3-9.6l0,0l0,0l3.3-9.8l0.7-3.9h0.1l3.6,1.2l1.4-1.6l-3.7-0.9l0.6-2.8l-4.7-2.1l-3.3,1l-1.8,2.6l-3.4,2.4
		l-1.4-3l0,0l2.7-3.1l-2.2-3.7l-2,3l0,0l-4.9-4.9l-1.5,3.6l0,0l-2.1-0.7l0,0l0.8-4.2l0,0l2.2-1.4l-1-1.1h-5.1l0,0l-2.1-1.5l-4.1,0.9
		l-2.3,5.3l-1.8,1.9l0.3,3.7l0,0l-2.2,0.5l0.3-3l-2.7-1.9l0,0l2-2l-2-1.9l-1.9,1.3l0,0c-1-1.5-2.6-3.7-2.7-3.8c0,0-0.1,0-0.6-3.1
		c-0.2-1.4-0.5-2.8-0.5-3l-1.8-0.6l0,0l-1.8-5.6l0,0l0.5-4.2l-2.6-2l0,0l-1.9-5.4l0,0l1.5-2.7l-4.1-4.9l0,0l0.2-2.3l-4.7-0.4
		l-1.1,1.3l-2.9-2.2l0.5-1.3l-5.5-4.2l3.6-7.2l-1.1-4.9l0,0l1.4-8.8l0,0l2-2l-1.8-1.5l0,0l-0.7-3.3l0,0l1.9-1.8l-2.2-0.8l0,0
		l-2.4-4.9l0,0l0.8-1.6l-1.6-6.1l-1.8,0.4l-0.3,2.5l-0.1-0.1L162,3.2l-3.3,0.5l-2.9,3.7l0,0l-2.6,1.1l0,0l-1.7-3.3l-1.9,3.5l0,0
		l-2.8-1.8l-3.7,0.3l0.6,1.7h-1.8l0,0L140,4.4l-2.1,0.8l0.9,3.5l0,0l-2.8,1.6l-2.3,5.7l0,0l-3-0.6l-0.8,1.6l1.5,1.7l0,0l-1.6,1.6
		l0.7,2.7l0,0l-3.8,4.9l-1,2.6L128.7,32.8z"/>
	<g>
		<text transform="matrix(1 0 0 1 153.6998 124.6479)" class="st1 st2 st3">Fatikchhari</text>
	</g>
	<g>
		<circle class="st4" cx="167.1" cy="93.9" r="13.4"/>
		<text transform="matrix(1 0 0 1 161.1797 101.2222)" class="st2 st5">2</text>
	</g>
</g>
<g id="chattogram-6">
	<path class="st15" d="M257,144l-4,0.3l-0.7-4.3l-2.4,1.2l0.5,3.6l-3.1,1.6l-0.4,4.8l2.6-0.5v0.1l0.3,4.2l-2.1,1.6l1.9,1.5l0,0v1.6
		l0,0l-2,1.7l0,0l-2.2-1.3l-2.1,1l0.8,4.7l0,0l-1.8,1.4v-0.1l-0.8-2.3l-1.4,0.7l0.6,2.9l0,0l-1.3,0.9l-0.5,2.4l0,0l-3.2,0.8
		l-1.8,5.6l-0.7,9.3l0,0l-4.2,1.8v-0.1l0.3-8.6l-2.3,1.8l-1.4,3.7l0,0l-3.6,1.9l0,0l0.7,0.8l-0.1,0.1l-0.7-0.8l-1.6,2.5l1,0.4
		l-0.7,2.1l1.4,1.8l0,0l-2.2,1.5l2.7,3.8l-1,2l-1.3-1.8l-1.4,1l2.5,2.8l4.3,0.5l0,0l0.5,1.9H226l-2.5-0.4l-2.4,2.1h1.8l0,0l1.8,1.9
		l-2.3,0.5l-1.2,2.3l1.7,1.7l5.4-1.5l0,0l2.1,1.4l2.4-2.1l0,0l2.9-0.6v0.1l0.2,2l-2.3,0.1l-1.2,1.9l2.3,0.7v0.1l-4.1,4.7l1.2,1.3
		l3.2-3l0,0l1.5,1.1l0,0l-1.5,5.5l3,2l0,0l-1.1,1.5l0,0l-4.7-3.2l-3.1,0.5l-2.9,2.7l0.8,1.1l2.8-1.2l0,0l4.9,0.7l0,0l-1,7h-0.1
		l-1.9-0.4l0,0l0.2-4.4l-4-0.4l-0.3,2.4l4.2,7.1l3.8,2.3l-0.1-0.1l0.1-0.1l0.4,0.4l0.2,0.1l0,0l0,0l1.9,1.8l0,0l1,6.5l1.8,2.1
		l0.2-0.5h0.1l-0.2,0.6l0.2,0.3l6-4.4l8.5-3l9.7-0.3l0,0l6.3,1.8l-1.2-1.3l0,0l0.5-7.7l0,0l4.4-2l0,0l3.1,1.3l2-1.9l-1.6-1.8l0,0
		l0.2-2.2l-4-4.3l1.6-1l-1.2-4.9l0,0l1.3-5.9l-1-0.2l-1.4,1.2l0,0l-2.4-2.1l0,0l1.7-4.6l0.8-1l-0.1-4.5l-3,0.1l0.1-0.1l1.5-2.3
		l-1-4.7c-0.1-0.5-1-5.2-1-5.3c0-0.2-1.3-4.9-1.7-6.7L268,182l-3.8-9.9l-4.2-4.4l0,0l1.7-1.8l-3.1-6.2l0,0l1.2-0.9l-1-2.6l0,0
		l0.8-5.2l-2.4-3.5l0,0l0.8-2.3l2.9-3.5l-0.9-1.2L257,144L257,144z"/>
	<g>
		<text transform="matrix(1 0 0 1 232.6375 205.9397)" class="st1 st2 st3">Raozan</text>
	</g>
	<g>
		<circle class="st4" cx="251.5" cy="180.1" r="13.4"/>
		<text transform="matrix(1 0 0 1 245.513 187.4722)" class="st2 st5">6</text>
	</g>
</g>
<g id="chattogram-7">
	<polygon class="st16" points="277,228.7 277,228.7 275.5,229.6 279.5,233.9 279.5,233.9 279.2,236.1 280.9,237.9 280.9,238 
		278.8,239.9 278.7,239.9 275.6,238.6 271.3,240.6 270.7,248.2 272,249.5 272.1,249.6 272.1,249.6 272.6,250.1 279.4,252.2 
		285.3,251.4 294,244.4 294,244.4 295.5,246.4 293.4,249.2 295.9,250.7 295.9,250.8 293.4,254.5 296.8,254.8 296.7,256.9 
		299.5,257.5 299.5,257.5 300.6,260.7 300.6,260.7 300.3,265.9 304.6,271.4 309.2,271.9 310.9,271.4 310.6,268.9 310.7,269.1 
		315.1,274.8 315.1,274.9 315,276.7 318.1,279.6 318.1,279.6 318,282.8 318.3,282.5 318.4,282.6 318.1,282.9 320.3,282.8 
		320.3,282.9 320.9,285.8 323.7,288.5 323.7,288.5 323.4,293.4 326.9,294.6 326.9,294.6 326.7,296.6 327.9,297.4 328.1,297 
		328.2,297.1 328,297.5 329.6,298.7 333.5,298.3 339.8,294.9 339.8,295 344,296.1 346.4,295.3 346.5,294.3 346.5,294.3 348.2,294 
		350.3,285.8 348.2,281.6 344.5,283.1 346.9,276.6 346.6,275.2 340.9,275.3 340.9,275.2 340.5,272.8 344,272.9 342,269.2 
		342.1,269.2 344.2,267.3 339.9,266.3 335.7,268.1 335.7,268 330.7,257 328.2,257.9 328.2,257.9 326.2,253.5 326.2,253.4 334,246.4 
		332.8,244.1 332.8,244 337,243.5 337.7,240.7 337.7,240.7 341.6,240.5 342.4,238.2 344.4,238.2 342.6,235.8 342.6,235.8 
		343.5,231.9 338.3,228.5 338.4,228.4 340.8,225.3 338.9,222.1 338.9,222.1 340.6,219.6 338.3,217.7 338.3,217.6 338.2,214.1 
		334.1,206.7 334.1,206.7 336.1,205.4 331.7,196.9 329.6,198.9 329.6,198.8 328.2,192.3 330.3,190.9 328.3,185.5 326,187 
		325.3,185.2 325.3,185.2 328.2,182.3 323,175.1 320,175.1 320,175.1 317.1,170.8 315.1,171.5 315.2,171.4 318,164 312.7,164.6 
		312.7,164.6 312.6,161.8 307.1,164.1 306,162.7 302.9,165.7 302.9,165.6 302.6,163.5 300.8,164.3 300.8,164.2 301.2,159.5 
		297.4,161.4 296.3,165.4 296.2,165.3 294.6,164.3 289.1,167.5 286.8,176.2 289.8,178.3 289.8,178.3 290.3,181.8 292.4,181.2 
		290.8,183.4 290.9,190 294,192.5 293.9,192.5 292.7,193.8 293.2,196.7 295.4,197.3 295.4,197.4 296.3,200.7 296.3,200.8 
		292.2,202.3 291.8,205 294.3,207.3 291.5,208.4 292.4,212.1 292.4,212.1 287.5,212.3 286.6,216.5 286.6,216.5 283.3,218.8 
		283.3,218.8 277.1,217.8 275.8,223.7 	"/>
	<polygon class="st16" points="314.9,276.8 314.9,276.8 315,274.9 310.7,269.3 311,271.5 311,271.5 309.2,272 309.2,272 
		304.5,271.5 304.5,271.5 300.2,266 300.2,266 300.5,260.7 299.4,257.6 296.6,256.9 296.6,256.9 296.7,254.9 293.2,254.6 
		293.2,254.5 295.8,250.8 293.2,249.2 293.2,249.2 295.4,246.4 294,244.5 285.3,251.5 279.3,252.3 279.3,252.3 272.5,250.2 
		272.5,250.2 272,249.6 265.6,247.8 255.9,248 247.4,251 241.3,255.5 241.3,255.4 241.1,255.2 239.5,260.3 235.7,265.2 236.5,268.7 
		236.5,268.8 234.1,272.1 232.8,283.4 235.9,282.7 235.9,282.7 239.9,284.7 243.8,283.5 251.5,283 255.1,283.2 257.8,281.9 
		257.8,281.9 263.7,282.5 269,278.9 269,278.9 274.3,280.6 287.6,279.7 297.7,274.3 297.7,274.4 298.3,280.3 299.7,280.4 
		300.2,283.1 304.5,285.7 310.4,286.2 313,284.6 316.1,284.6 317.9,282.9 318,279.6 	"/>
	<g>
		<text transform="matrix(1 0 0 1 279.0537 232.1763)" class="st1 st2 st3">Rangunia</text>
		<g>
			<text transform="matrix(1 0 0 1 256.2551 267.3)" class="st1 st2 st3">Boalkhali</text>
		</g>
	</g>
	<g>
		<circle class="st4" cx="312.3" cy="203.6" r="13.4"/>
		<text transform="matrix(1 0 0 1 306.3464 210.9722)" class="st2 st5">7</text>
	</g>
</g>
<g id="chattogram-8">
	<polygon class="st17" points="236.3,264.2 239.4,260.2 241,255.1 239.1,252.9 239.1,252.8 238.1,246.4 236.3,244.6 233.9,252 
		235.6,256 235.5,256 233.6,257.7 231.6,257.4 228.9,258.4 229.1,261.5 	"/>
	<g>
		<circle class="st4" cx="238" cy="238.6" r="13.4"/>
		<text transform="matrix(1 0 0 1 232.0797 245.9036)" class="st2 st5">8</text>
	</g>
</g>
<g id="chattogram-11">
	<polygon class="st18" points="219.6,279.7 218.3,276.2 211,273.6 208.9,265.5 206.1,267.4 206,267.4 202.5,266.1 200.8,264 
		199.9,264.7 197.4,266.2 195.6,267 195.1,269.6 191.3,270.7 188.2,273 183.4,274.4 183.9,277 187.6,288 196.6,300.4 205.2,308.6 
		205.4,308.7 205.9,300.8 212.6,294.9 220.6,293.3 227.5,290.3 232.2,284.4 226.3,282.6 	"/>
	<g>
		<circle class="st4" cx="200.1" cy="285" r="13.4"/>
		<text transform="matrix(1 0 0 1 189.2 291.835)" class="st2 st19">11</text>
	</g>
</g>
<g id="chattogram-9">
	<polygon class="st18" points="236.3,264.2 229.1,261.5 228.9,258.4 227.6,258.8 227.8,255.8 222.5,257.1 222.6,254.5 221.4,253.3 
		215.6,257.4 212.7,261.9 210,262.3 209.8,264.7 209.8,264.8 208.9,265.5 211,273.6 218.3,276.2 219.6,279.7 226.3,282.6 
		232.2,284.4 232.7,283.8 232.7,283.5 232.5,283.6 232.5,283.5 232.7,283.4 234,272.1 236.4,268.7 235.5,265.2 235.6,265.1 	"/>
	<g>
		<circle class="st4" cx="227.1" cy="272.6" r="13.4"/>
		<text transform="matrix(1 0 0 1 223.2 279.4183)" class="st2 st19">9</text>
	</g>
</g>
<g id="chattogram-10">
	<polygon class="st18" points="200.8,263.8 202.7,262.2 197.6,251.7 197.2,246.4 194.3,242.1 194.3,242.1 178.9,247.6 181.7,252.5 
		181.7,252.6 181.3,259.1 182.5,270.5 183.3,274.3 188.2,272.9 191.3,270.6 195,269.5 195.5,266.9 197.3,266.1 199.8,264.7 
		200.7,263.9 200.2,263.3 200.3,263.2 	"/>
	<g>
		<circle class="st4" cx="193.1" cy="252.8" r="13.4"/>
		<text transform="matrix(1 0 0 1 182.2 259.6683)" class="st2 st19">10</text>
	</g>
</g>
<g>
	<text transform="matrix(1 0 0 1 117.6538 305.1502)" class="st1 st2 st3">Chattogram</text>
</g>
</svg>
