<?xml version="1.0" encoding="utf-8"?>
<!-- Generator: Adobe Illustrator 25.2.1, SVG Export Plug-In . SVG Version: 6.00 Build 0)  -->
<svg version="1.1" id="Layer_1" xmlns="http://www.w3.org/2000/svg" xmlns:xlink="http://www.w3.org/1999/xlink" x="0px" y="0px"
	 viewBox="0 0 310 580" style="enable-background:new 0 0 310 580;" xml:space="preserve">
<style type="text/css">
	.st0{fill:#C5CFED;stroke:#FFFFFF;stroke-width:0.5;}
	.st1{fill:#232323;}
	.st2{font-family:'TimesNewRomanPSMT';}
	.st3{font-size:16px;}
	.st4{fill:#9BB6EA;stroke:#FFFFFF;stroke-width:0.5;stroke-miterlimit:10;}
	.st5{fill:#8BAFE8;stroke:#FFFFFF;stroke-width:0.5;stroke-miterlimit:10;}
	.st6{fill:#6899E0;stroke:#FFFFFF;stroke-width:0.5;stroke-miterlimit:10;}
	.st7{fill:#72ACF2;stroke:#FFFFFF;stroke-width:0.5;stroke-miterlimit:10;}
	.st8{fill:#DCE5FF;stroke:#FFFFFF;stroke-width:0.5;}
	.st9{fill:#7CA7E5;stroke:#FFFFFF;stroke-width:0.5;stroke-miterlimit:10;}
	.st10{fill:#ABBEED;stroke:#FFFFFF;stroke-width:0.5;stroke-miterlimit:10;}
	.st11{fill:#69B4FF;stroke:#FFFFFF;stroke-width:0.5;stroke-miterlimit:10;}
	.st12{fill:#D0D6EC;stroke:#FFFFFF;stroke-width:0.5;}
</style>
<g id="rangamati">
	<polyline class="st0" points="167.9,206 169.4,204.1 169.8,199.6 173.2,193 173.3,193.1 183.2,202.9 187.1,205.6 188.3,204.3 
		187,203 183.2,198.9 180.1,196.4 182.8,190.4 179.5,188.2 179.5,188.2 182.2,181.5 180.4,180.3 180.4,180.3 180.3,172.9 
		178.5,172.3 178.5,172.2 179.1,161.1 177,158.3 190.6,157.8 191.8,155.9 189.9,155.3 189.9,155.2 190.2,152.2 188,150.6 188,144.1 
		185.8,143.8 187,137.7 183.8,133.4 182.2,134.5 182.2,134.5 180.2,133 180.3,133 183.5,129.7 185.4,124.4 185.1,121.2 182,119 
		180.4,120.3 180.4,120.3 178.7,118.5 181.3,116.6 180.8,115.8 177.7,116.4 179.2,113.3 177.6,113.3 177.6,113.2 177.2,110.6 
		177.3,110.6 179.3,109.2 178.9,106.9 176.5,106.9 176.5,106.9 176.2,102 174.6,99.9 171.4,101.7 171.4,101.6 170.4,96.8 
		170.5,96.8 171.9,95.1 171.6,91.3 168.4,90.4 170.2,87.7 167.9,85.9 167.9,85.8 168.3,77.9 166.3,77 166.3,76.9 167.6,73.8 
		166.8,71.2 164.8,72 164.8,72 165.3,65 164.4,59.8 162.6,53.9 161.1,55.8 158.9,53.6 158.9,53.6 158.4,47.7 161.5,46.3 159.7,43.9 
		156.5,44 156.4,44 154.8,39.7 154.8,39.7 159.7,28.5 158.7,23.9 155.8,19.3 152.9,16.9 146.6,17.8 144.5,19.7 146.4,26.2 
		146.4,26.3 143.4,28.7 144,32.9 144,32.9 142.3,37.8 142.3,37.8 138.4,38.9 138.4,38.9 136.1,32.7 136.1,32.6 138.9,29.1 
		136.4,23.5 131.1,21.4 130,22.6 130,22.6 128.1,22 128.8,19.7 126.4,18.2 126.4,18.2 127.3,14 124.3,13 122.8,14.7 122.7,14.7 
		120.8,14.4 115.7,22.2 111,27.8 109.1,28.6 109.7,30.6 108.4,32.1 108.4,32.1 103.8,31.3 102.3,39.4 105.5,40.9 105.5,40.9 
		107.7,45.5 115.5,66 117.9,79.7 120.4,92.5 120.4,97.7 120.4,97.8 116.1,101.2 100.7,111.2 99.8,113.9 115.2,123.8 119.2,127.2 
		119.2,127.2 118.5,132 121.7,155.6 126.3,168.9 126.8,174 137.4,193.8 137.3,193.8 137.1,193.9 138.2,194.3 138.2,194.3 
		144.7,208.3 148.5,214.2 148.5,214.2 148.9,223.6 151.1,226.2 156.8,222.1 161.6,220.1 160.6,208.3 160.6,208.3 165.4,209.1 
		167.8,206.1 	"/>
	<text transform="matrix(1 0 0 1 131.3185 151.1364)" class="st1 st2 st3">Baghaichari</text>
	<polygon class="st4" points="172.1,320.8 174,313.9 177.2,316.4 184.2,315.3 189.9,311.1 190.8,308.6 194.3,307.2 197.7,308.6 
		202.1,308.6 205.3,318.6 211.7,300.4 214.6,297.2 214,295.9 212.8,290.6 211.7,283.6 207.9,278.5 209.3,274.3 209.7,267 
		206.6,266.5 206.7,266.5 208,263.3 205.2,261.4 205.2,261.4 206.3,257.2 204.9,256.5 201.5,260.3 202,258.7 197.5,254.4 
		197.5,254.4 198.7,250.9 197.3,250.1 196,252.2 194,250.9 192.8,253.4 191.6,251.3 191.6,251.2 193,248.7 190.7,247.2 187.1,248.5 
		187.1,248.5 184.9,245.8 184.9,245.8 186.1,233.6 186.1,233.5 187.9,232.4 187.8,225 186.5,223.4 186.5,223.4 187.2,217.6 
		189.6,210.1 186.8,205.9 186.9,205.9 187,205.7 183.1,203 173.2,193.2 169.9,199.6 169.4,204.1 169.4,204.1 167.8,206.1 
		168.3,214.2 170,222.4 173,227.7 174.1,229.9 174.1,229.9 174,231.8 170.7,243.3 171,248.3 168.2,248.7 166.9,253.7 168,260.9 
		172.6,268.9 174.2,271.9 172.6,273.4 172.6,273.4 164.2,271.4 160.7,274.7 155.5,276.4 155.4,276.4 153.9,271.8 150.8,270.8 
		146.8,276.5 141.9,278.9 138.9,279.6 139.3,280.5 142.3,291.4 144.9,299.3 146.7,302.5 147.7,308.9 150.8,312.2 150.8,312.2 
		149.6,318.5 152,320.4 154.3,319.8 154.3,319.8 162,325 172,329.1 172.9,323.1 	"/>
	<text transform="matrix(1 0 0 1 167.1935 292.2196)" class="st1 st2 st3">Barkal</text>
	<polygon class="st5" points="252.7,465.8 249.4,465 249.4,465 249.4,458.6 248.4,454.7 246.5,450.3 246.5,450.3 248.2,445 
		246.6,444.1 246.6,444.1 247.4,441 243.9,437.7 245.2,435.4 243.9,431.9 243.9,431.9 245.8,427.9 244.1,426.9 244.1,426.9 
		244,422.1 243.3,418.2 241.2,414.9 241.2,414.9 242.3,412.7 239.4,408.8 240.8,406.4 238.2,405 238.3,402.1 237.8,398.7 
		236.1,398.5 236.1,398.5 237.5,392.1 235.7,385.2 232.6,372.6 232.6,372.6 234.9,369 231.1,358.1 227,353.7 227.7,350 230.8,349.4 
		230.7,343.7 228.3,340.1 229.3,338.4 227.5,335.8 229.1,334.5 229.1,332.9 227.4,332.1 227.4,332.1 226.7,325.4 227.9,324.2 
		223.5,310.7 223.5,310.7 224.6,307.3 222.7,303.2 217,299.8 213.1,299.8 214.8,297.7 214.6,297.2 211.7,300.4 205.3,318.6 
		202.1,308.6 197.7,308.6 194.3,307.2 190.8,308.6 189.9,311.1 184.2,315.3 177.2,316.4 174,313.9 172.1,320.8 172.9,323.1 
		172,329.1 173.3,329.6 173.3,329.7 174.4,336.1 179.2,339.5 179.2,339.5 179,343.9 181.9,347.5 186.3,355.8 186.3,355.8 
		186.1,358.5 191,369.7 191.3,370.1 191.3,370.3 196.3,377.9 196.6,381.4 196.6,381.4 196,383.5 200.3,390.4 205.4,403 211.1,408.4 
		216.7,410.5 222.4,410.3 227.3,407 227.3,407.1 228.3,413.8 229.3,414.6 229.3,414.6 230.6,423 232.2,425.6 234.6,434.9 
		234.6,434.9 234.1,437.8 236.4,441 236.4,441.1 235.9,444.9 236.8,449.3 238.5,450 237.2,453.4 239.3,454.8 239.4,454.8 
		241.5,462.1 241.5,462.1 238.5,464.5 237.8,465.7 239.2,470 241.3,470.8 241.3,470.8 244.1,475 244.3,474.7 244.3,474.8 
		248.5,475.5 248.5,475.5 248.1,478.9 249.7,480.4 252.1,479.8 253.4,476.3 	"/>
	<text transform="matrix(1 0 0 1 188.7841 350.1633)" class="st1 st2 st3">Juraichari</text>
	<polyline class="st6" points="138.8,279.6 136.3,274.6 136.2,274.5 129.4,276.9 125.8,279.8 123.7,283.8 124.1,288.1 124.1,288.1 
		122.3,291 122.3,291 119.7,292.1 120,295.4 118.4,296.7 118.4,296.6 115.7,295.3 112.5,297.2 104.1,305.7 101.4,306.7 98.7,306.7 
		88.5,309.8 87,311.3 91.7,315.8 98.5,318.3 103.5,321.8 106.1,323.3 108.7,327.1 113.5,327.1 113.5,327.1 115.8,330.5 118.4,335.8 
		120.1,340.6 121.3,346 123.1,349.3 126.9,356.4 131.2,364.9 132,365.8 132,369.3 134,369.9 136.2,372.1 138.9,370.6 139,370.6 
		144.3,370.7 144.3,370.7 147.9,373.4 149.7,372.5 149.7,372.6 151.7,373.9 154.2,372.9 154.3,372.9 156.5,374.2 159.5,371.3 
		159.6,371.3 163.1,372.4 164.3,370.7 161.7,368.1 162.5,366.1 162.6,366.1 164.6,366.2 165,363.5 165.1,363.5 170.2,360.8 
		172.6,359.6 172.6,359.6 179.4,362.5 183.5,367.6 186.4,369.2 191.2,370.1 191,369.8 186.1,358.5 186.1,358.5 186.3,355.8 
		181.9,347.6 179,343.9 179.1,339.5 174.4,336.1 174.4,336.1 173.3,329.7 162,325.1 154.4,319.9 152.1,320.5 152,320.5 149.6,318.5 
		149.6,318.5 150.8,312.3 147.7,308.9 147.7,308.9 146.7,302.5 144.9,299.4 142.3,291.4 139.3,280.6 138.9,279.7 	"/>
	<text transform="matrix(1 0 0 1 123.735 330.8104)" class="st1 st2 st3">Rangamati</text>
	<polygon class="st7" points="239.2,470 239.2,470 237.8,465.7 237.8,465.7 238.5,464.4 241.5,462 239.3,454.9 237.2,453.4 
		238.4,450.1 236.8,449.4 236.8,449.4 235.9,444.9 235.9,444.9 236.4,441.1 234.1,437.8 234.1,437.8 234.6,434.9 232.2,425.6 
		230.6,423.1 229.3,414.6 228.3,413.9 228.3,413.9 227.3,407.2 222.5,410.3 222.5,410.3 216.8,410.6 216.7,410.6 211.2,408.5 
		205.4,403 200.3,390.4 196,383.5 196,383.5 196.6,381.4 196.3,377.9 191.3,370.2 186.4,369.3 183.5,367.6 179.3,362.5 172.6,359.7 
		170.3,360.9 165.1,363.6 164.7,366.3 168.6,370.1 168.6,370.2 169.1,372.4 171.1,374.8 171.1,379.7 168.3,382.3 165.9,388.2 
		167.4,389.8 167.4,389.8 167.4,389.8 169.5,392.1 174.9,396.5 174.9,396.5 176.6,405.5 179,406.5 178.9,406.6 177.8,409.1 
		180.4,413.7 183,414.8 186.4,418.5 186.4,418.5 185.5,419.9 189.7,420.9 192.6,420 192.6,420.1 194.7,421.4 194.7,421.4 
		198.7,430.4 204.9,438.6 207.1,439.6 210,441.9 212.4,442.1 212.5,442.1 217.2,450.9 217.2,450.9 216.6,454.5 218.1,456.8 
		219.4,456.8 220.8,457.7 220.8,457.7 222.3,465.3 222.2,465.3 221.8,468 225.7,472.2 225.7,472.3 225.8,478.9 227.3,483.2 
		227.3,483.2 225.6,486 226.6,490.4 225.7,493.4 229.4,496 229.4,496 229.3,499.9 231.1,501 231.1,501.1 230.5,508.4 233.6,512.8 
		234.4,517.4 237.6,520.7 239.1,524.3 241.2,525.3 241.2,525.3 242.9,531.3 246.9,535 246.9,535 247,538.9 252.1,547 252.1,547 
		252,552.9 256,558.4 257.5,557.6 258.1,555.6 258.2,555.6 261.4,555.1 259.9,544.8 256.9,537.5 255.6,532.9 254.8,526.2 
		252.5,521.7 252.5,521.7 254.3,520.7 254.5,517.3 250.6,513.1 251.6,507.5 249.2,504.3 249.2,504.3 250.9,501.3 251.1,498.4 
		248.7,497.1 248.7,497.1 248.1,494.8 248.1,494.8 248.2,492.4 245.9,489.8 243.6,481 240.1,479.6 240.8,476.4 240.8,476.4 
		243.1,476.3 244.1,475.1 241.3,470.9 	"/>
	<text transform="matrix(1 0 0 1 196.9459 424.6143)" class="st1 st2 st3">Belaichari</text>
	<polygon class="st8" points="169,372.4 168.5,370.2 164.6,366.4 164.6,366.3 162.6,366.2 161.9,368.1 164.5,370.7 164.4,370.7 
		163.1,372.5 163.1,372.5 159.6,371.4 156.5,374.3 156.5,374.3 154.2,373 151.7,374 151.7,374 149.7,372.6 147.9,373.5 147.8,373.5 
		144.3,370.8 139,370.7 136.2,372.2 134,369.9 131.9,369.3 131.9,365.8 131.2,364.9 126.8,356.5 123.1,349.3 121.3,346.1 
		113.6,349.7 114.9,352.4 113.2,353.9 113.7,355.6 115.4,354.4 115.4,354.5 116.1,357.9 116.1,357.9 114.7,358.2 115.9,363.3 
		118.6,362.4 118.6,362.4 120.1,367.4 120.1,367.4 119.4,368.7 121.4,373 123.3,382.1 123.3,382.1 121.8,384 125,385.6 125,385.6 
		125.4,389.3 125.4,389.3 123.2,391.5 123.2,391.5 121.4,391.2 120.8,393.2 118.4,393.2 119.5,395.2 124.4,401 130.6,402.1 
		134.9,403.4 140,409.1 146,413.2 148.3,412.3 148.7,409.6 150.9,405.3 155.4,400.3 163,395.6 167.2,389.8 165.8,388.2 165.8,388.2 
		168.2,382.2 171,379.7 171,374.9 	"/>
	<text transform="matrix(1 0 0 1 114.3436 386.3344)" class="st1 st2 st3">Kaptai</text>
	<polygon class="st9" points="98.7,306.6 101.4,306.6 104,305.6 112.4,297.1 115.7,295.2 118.4,296.5 119.9,295.3 119.6,292 
		119.6,292 122.2,290.9 124,288.1 123.6,283.8 123.6,283.8 125.7,279.7 129.4,276.8 136.2,274.4 129.5,263.5 121.2,246.6 
		119.8,237.4 116.2,239.1 102.8,251.4 99.9,257.2 97.2,258.8 97.1,258.8 92.9,257.6 86.5,256.2 85.2,256.4 83.5,262.3 83.4,262.2 
		81.2,260.6 79.5,262 80.6,265.1 78.3,265.3 77.2,267.2 80.6,270.2 80.6,270.2 81.1,274.7 80.4,284.6 82.4,286.6 82.4,286.6 
		82.6,290.4 84.3,291.5 84.3,291.5 85.1,303.6 85,303.6 88.8,309.6 	"/>
	<text transform="matrix(1 0 0 1 44.2106 279.4427)" class="st1 st2 st3">Naniarchar</text>
	<polygon class="st10" points="129.6,263.4 136.4,274.5 138.9,279.5 141.9,278.8 146.9,276.4 150.9,270.7 150.9,270.7 154.1,271.7 
		154.1,271.7 155.6,276.3 160.7,274.6 164.2,271.2 164.3,271.3 172.7,273.3 174.2,271.9 172.6,268.9 168,260.9 166.9,253.7 
		166.9,253.7 168.2,248.6 171,248.3 170.7,243.3 170.7,243.3 174,231.8 174.1,229.9 173,227.7 170,222.5 168.3,214.2 167.8,206.2 
		165.5,209.2 165.4,209.2 160.7,208.4 161.8,220.1 161.7,220.2 156.8,222.2 151.1,226.3 148.8,223.6 148.8,223.6 148.4,214.3 
		144.7,208.4 138.1,194.4 136.8,193.9 132.4,193.9 123.6,196.3 112,199.7 108.5,200.8 108.7,202.4 112.7,212.2 118.8,225.8 
		120.2,237.2 120.2,237.2 119.9,237.3 121.2,246.5 	"/>
	<text transform="matrix(1 0 0 1 127.1517 245.1364)" class="st1 st2 st3">Langadu</text>
	<polygon class="st11" points="182.9,414.8 180.3,413.8 180.3,413.8 177.7,409.1 177.7,409.1 178.8,406.6 176.5,405.5 176.5,405.5 
		174.8,396.5 169.4,392.2 167.3,389.9 163,395.7 155.5,400.3 150.9,405.3 148.8,409.6 148.4,412.3 148.4,412.3 146,413.4 146,413.3 
		140,409.2 134.9,403.5 130.6,402.2 124.4,401.1 124.3,401.1 119.7,395.6 119.7,395.7 119.7,395.7 114.3,399.4 115.8,402.9 
		117.4,402.3 117.4,402.3 120.6,409.4 124.3,407.7 124.3,407.7 126.3,409.6 126.3,409.6 125.1,411.1 125.9,412.6 123.7,412.8 
		123.9,414.3 127.7,414.3 127.4,416.7 133.1,415.6 139.7,416 139.7,416.1 142.5,418.1 144.7,422 146.2,427 148.2,427.5 151.7,425.5 
		156.7,421.7 164.1,417.6 171.6,416.7 171.6,416.7 173.7,417.7 179.7,420.5 185.1,419.8 185.1,419.8 185.3,419.9 186.3,418.5 	"/>
	<text transform="matrix(1 0 0 1 111.2694 422.5115)" class="st1 st2 st3">Rajashali</text>
	<polygon class="st12" points="120,340.6 118.3,335.8 115.7,330.6 113.4,327.2 108.7,327.2 108.7,327.1 106.1,323.3 103.4,321.8 
		98.4,318.4 91.6,315.9 86.8,311.3 86.9,311.3 88.3,309.9 84.5,303.8 76.4,306 74,307.4 72.6,313.7 72.6,313.7 66.2,315.3 
		67.3,319.1 67.3,319.1 65.7,321.1 69.1,322.3 69.1,322.3 71.4,325.5 71.4,325.5 68.3,328 69.7,332.7 69.8,337.7 73.1,345.2 
		76.5,353.7 78.9,364.7 78.9,364.7 78.3,368.2 80.1,370.2 80.1,370.2 78.1,375.3 79.4,376.4 83.4,375.9 83.4,375.9 85.2,376.9 
		88.1,375.7 89.2,372.1 89.2,372.1 91.6,372.4 92.1,371.6 90.8,370.2 90.8,370.2 93,369.2 90.9,366.4 90.9,366.4 94,365.3 
		94.7,364.1 92.2,361.4 92.2,361.4 92.6,359.4 91,357.1 91,357 91.4,351.6 90.1,351 90.1,351 88.4,347.1 88.4,347.1 89.4,342.8 
		89.4,342.8 92.2,340.2 94.6,341.1 96.5,337.1 97.8,337.3 97.3,339.3 98.7,339.4 98.1,340.6 98.5,341.7 104.7,338.7 104.7,338.8 
		108.9,340.2 108.9,340.2 106.7,345 109.5,347.2 112.8,348.2 112.8,348.2 113.4,349.3 121.1,345.7 	"/>
	<text transform="matrix(1 0 0 1 46.8087 337.379)" class="st1 st2 st3">Kawkhali</text>
</g>
</svg>
