<?xml version="1.0" encoding="utf-8"?>
<!-- Generator: Adobe Illustrator 25.2.1, SVG Export Plug-In . SVG Version: 6.00 Build 0)  -->
<svg version="1.1" id="Layer_1" xmlns="http://www.w3.org/2000/svg" xmlns:xlink="http://www.w3.org/1999/xlink" x="0px" y="0px"
	 viewBox="0 0 400 440.7" style="enable-background:new 0 0 400 440.7;" xml:space="preserve">
<style type="text/css">
	.st0{fill:#C5CFED;stroke:#FCFCFC;stroke-width:0.5;stroke-miterlimit:10;}
	.st1{fill:#232323;}
	.st2{font-family:'TimesNewRomanPSMT';}
	.st3{font-size:16px;}
	.st4{fill:#FFFFFF;}
	.st5{font-size:24.672px;}
	.st6{fill:#8BAFE8;stroke:#FCFCFC;stroke-width:0.5;stroke-miterlimit:10;}
	.st7{fill:#7CA7E5;stroke:#FCFCFC;stroke-width:0.5;stroke-miterlimit:10;}
	.st8{fill:#9BB6EA;stroke:#FCFCFC;stroke-width:0.5;stroke-miterlimit:10;}
	.st9{fill:#ABBEED;stroke:#FCFCFC;stroke-width:0.5;stroke-miterlimit:10;}
</style>
<g id="chandpur-2">
	<path class="st0" d="M178.2,90L178.2,90l-3,8.4l2.3,3.4l2.6-0.1l0,0l2.7,1.9l0,0l0.3,5l0,0l-1.6,1l-3.1,9.4l0,0l-2.2,0.9l0,0
		l-3.9-7.1l-4-0.5l-6.5,2.1l-2.6,4.4l2.1,2.9l0,0v6.1l2,1.9l3.6-0.7l0,0l3.9,1.3l0,0l-3.5,6.2l-6,4.5l0,0l-6.9-0.2l0,0l-0.8-2.1l0,0
		l7.3-4.2l0.3-2.8l-4.1-5.3l-8.8-4.7l-8.4,0.4l-1.5,3.4l9.3,6.6l0,0l0.7,2.7l0,0l-5.6,4.6l0,0l-2.4-1.4l0,0l-2-4.5l-6.8-4.9l-3.9,2
		l1.9,4.1l0,0l-8,5.2l0,0l-3.5-2.8l-2.7,0.7l1.6,5.1l0,0c-0.8,0.4-2.8,1.4-2.9,1.5c0,0.1,0.3,0.5,1.8,4.5c0.9,2.2,1.7,4.5,1.7,4.5
		l0,0l0,0l-4.5,4.5l-3,4.7l0,0l-0.8-0.3v2.4l5.8,2.2l2.3-1.8l0,0l7.3,2.6l0,0l-3,6l3.3,6.4l3.5,0.2l0,0l1.1,2.5l0,0l-1.9,3.7l3,7.4
		l3.8-0.2l2.6-2.3l0,0l1.8,1.4l0,0l-1.6,5.3l2.2,2.1l5.7-6.2l0,0l1.5,2.2l0,0l0.4,6.1l3.2-0.4l0,0l1.7,3.7l2.5,2l5.2,0.6l0,0
		l1.5,1.4l1.8-1.4l0,0l5.4,1.5l0,0v6.3l5.9,3.1l2.6,3.3h2.2l0.6-2l2.5,0.3l0,0l-0.3,1.7l0,0l-2.3,2.2l5.2,0.3l0,0l1.2,2h5.2l0,0
		l1.2,2.5l0,0l-1.3,7.7l7.3,1.1l4.3,1.1l2.2-0.4l0,0l1.4,3.8v3.1l0,0l-5.5,3.6h0.1v-0.1l0,0l0.9-0.1l0,0l-0.9,0.1v0.1l3.5,0.9l0,0
		l0.4,1.8l2.1,0.6l0,0l1.4,3.7l2.2,1.1l1.6-1.9l-2.3-2.5l0,0l2.5-5l0,0l4.1-0.8v-4.5l-1.9-3.5l-9.6-0.9l-4.7-1.4l0,0l0.6-9.1
		l-2.5-1.4l-3.3,0.7l0,0l-1.3-2.4l-4,0.1l0,0l-1.5-1.2l0,0l3.2-3.1l-1.3-5.4l0.2-14.7L187,198l-6.3,0.8l0,0l-3-5.2l-2.2,2.5h-2.3
		l0,0l-2.3-5l-2.2-1.2l0,0l3.3-6l-1.3-6l0,0l2.5-2.1l0,0l2.2,3.9l2.8-2.8l0,0c0.3,0.2,2,1,2.1,1.1c0.1-0.1,1.5-2.4,2.2-3.6l-3.6-5.9
		l0,0l1.3-2.5l-2.7-4.4l0,0l0.5-2.5l0,0l5.8,3.5l1.3-0.8l-2.2-2l0,0l0.4-1.7l0,0l2.8,0.2l0,0l2.5,2.1l2.6-2.1l0,0l2.2-0.4l0,0
		l1.1,1.7l2.7-2l0,0l3,4.9h4.3l0,0l1.4,2.3L222,165l1.2-3.1l0,0l2.4,0.2l1.9-2.6l-0.1-0.2l-1.7,0.1l0,0l1.7-0.1L225,156l0,0
		l-0.1-8.5l5.6,2.5l-2.3-7.5l-3.9-3.2l0,0l-2.8-7.6l-0.4-6l-2.6-8.8l-6.5-8l0,0l0.2-1.4l0,0c0.2-0.1,3.7-0.2,4-0.2l0.7-7.7l-5.1-9.2
		l-3-12.4l0,0l2.9-4.2v-3l-2.2-1.6l-2.8,1.8l0,0l-0.9-2.1l0,0l5.2-1.1l0.2-0.9l-1.5-1.4l-2.4,1.9l0,0l-4.3-1.1l0,0l0.9-3.4l-3.4-0.3
		l0,0l0.4-2.2l-1.3-0.6l-2,2.7l0,0l-1.4-4.5l-2.5,1l1.5,4.5l0,0l-1.6,2.5l-0.2,4.5l0,0l-3.2,4.5l0,0l-3.2-1.1l-1.1,2.2l2.5,2.4l0,0
		l0.4,1.6l0,0l-4.9,1.5l0.2,4.4l0,0l-4.2,1.2l0,0l-0.2-0.8l-2,0.8L178.2,90z"/>
	<path class="st0" d="M45.4,156l9.9,2.3l10-0.4l0,0l7.1,6.6l5.4,6.6L79,177l9.8-2.9l2.6-9l3.1-4.4l0,0l8.1-1.1l0,0l6.9,2.5v-1l0,0
		v1.1l0.8,0.3l3-4.7l4.5-4.5c-1.2-3.1-3.4-8.9-3.5-9l0,0c0,0,0,0,1.5-0.8c0.7-0.3,1.4-0.7,1.4-0.7l-1.6-5.1l0,0l2.7-0.7l0,0l3.5,2.8
		l7.9-5.2l-1.9-4.1l0,0l4-2l0,0l6.8,4.9l0,0l2,4.5l2.3,1.4l5.6-4.6l-0.7-2.7l-9.4-6.6l0,0l1.5-3.4l0,0l8.4-0.4l0,0l8.8,4.7l4.1,5.3
		l0,0l-0.3,2.8l0,0l-7.3,4.2l0.8,2.1l6.9,0.2l6-4.5l3.4-6.2l-3.9-1.3l-3.6,0.7l0,0l-2-1.9l0,0v-6.1l-2.1-2.9l0,0l2.6-4.4l0,0
		l6.5-2.1l0,0l4,0.5l3.9,7.1l2.2-0.8l3.1-9.4l0,0l1.6-1l-0.3-4.9l-2.7-1.9l-2.6,0.1l0,0l-2.4-3.4l0,0l3-8.4l-0.6-3.1l0,0l2-0.9
		l-1-4.4l-4.5-3.9l-8.1-2.9l-0.9,2.3l3.5,9.2l-1.5,0.4l0,0l-2.7-2.5l0,0l0.2-4.6l-2.4-3l-10.3-5.9l-3.6-0.3l0,0l-1.3-6.9l0,0l1.7-6
		l-0.6-4.9l-5.1-5.8l-4.3-6.7L135,28l-3.2-1.8l0,0l-2.5-5.8l-8.1,1.7l0,0l-5.9-1.2l-7.3-3.1L98.3,12l-6-1.8l-7,1.5L81,18.5l0,0
		l-9.4,3l0,0l-5.2-1.3l0,0l-3.8-5.3L57.7,15l-4.1,2.8l0,0l-5.2-0.9h-5.8l0.7,9l4.8,0.7l0,0l0.8,3.2l0,0l-2.2,7.9l0,0l-2.9,0.4
		l0.3,9.5L42.9,58l-6.4,10.4l-6.7,8.8l-8.1,11l-8.5,15.3l0.4,13l6.6,21.3l6.9,15.3l0.4,0.8l2.7-0.2L45.4,156z"/>
	<text transform="matrix(1 0 0 1 114.0903 147.8809)" class="st1 st2 st3">Matlab South</text>
	<text transform="matrix(1 0 0 1 45.8383 100.3759)" class="st1 st2 st3">Matlab North</text>
	<g>
		<circle class="st4" cx="87.6" cy="68.7" r="13.4"/>
		<text transform="matrix(1 0 0 1 81.5964 76.0555)" class="st2 st5">2</text>
	</g>
</g>
<g id="chandpur-3">
	<polygon class="st6" points="130.8,377.8 126,372.1 126,372.1 129,369.6 129.8,364.4 124.4,361.2 124.4,361.2 122.8,356.4 
		122.7,352.8 122.7,352.8 126.8,353.1 129.3,350.4 127.4,348.4 127.4,348.4 126.4,340.4 129.6,338.8 127.9,332.2 127.9,332.2 
		128.1,327.4 125,325.9 123.4,327.2 116.5,326 113.1,329.4 113.1,329.4 111.6,329.6 112,334.3 112,334.4 110.8,334.6 110.8,334.6 
		109.4,333.9 106.6,335.8 106.6,335.8 99.5,335.2 97.6,336.7 97.6,336.7 95.8,336.3 86.7,331.2 83,330.4 83,330.4 79.9,327.6 
		70.5,323.7 62.2,320.6 57.8,318.1 54.9,320.8 54.9,320.8 52.4,320.9 52.3,323 52.3,323 50.4,324.8 52.2,329.5 53.7,332.9 
		53.7,332.9 52.5,334.3 52.5,334.3 50,334.2 50,334.2 47.9,331.8 46.5,332.2 47.6,335.8 47.6,335.8 47,337.1 46.9,337.1 46.1,336.9 
		38.8,331.8 35.7,328.4 35.7,328.4 35.6,324.5 34.2,321.9 34.2,321.9 34.4,319.9 34.4,319.9 37.4,319.7 38.4,318.6 36.7,315.9 
		36.7,315.9 36.4,311.2 33.8,307 33.2,300.8 26.4,299.3 24,300.4 20.3,308.8 18.9,318.1 17.1,320.9 5.3,332.5 3,338.6 4.1,348.8 
		9,363.1 10.8,370.4 11.5,387.7 16.2,398.2 24.9,406.1 37.5,412.5 42,413.2 46.2,416.2 70.4,428.4 80.9,434.3 108.9,427.6 
		111.6,425.7 117.1,424.8 118.6,423.1 114.6,420.3 108.1,418.5 107.5,416.4 107.6,416.4 112.8,414.8 114.9,412 112.3,401.2 
		109.6,399 109.6,399 109.4,397.1 109.4,397.1 113.7,394 113.7,394 117.6,393.9 126.5,389 128.9,386.7 128.9,386.7 132.5,387.7 
		133.1,384.2 	"/>
	<polygon class="st6" points="36.4,311.2 36.7,315.9 38.4,318.6 38.4,318.6 37.4,319.7 37.4,319.7 34.4,319.9 34.2,321.9 
		35.6,324.5 35.7,328.4 38.8,331.8 46.1,336.8 46.9,337.1 47.6,335.8 46.5,332.2 46.5,332.2 47.9,331.8 47.9,331.8 50,334.1 
		52.5,334.2 53.7,332.9 52.2,329.5 50.4,324.8 50.4,324.8 52.3,323 52.4,320.8 52.4,320.8 54.9,320.8 57.8,318.1 57.8,318.1 
		62.2,320.6 70.5,323.7 79.9,327.6 83,330.4 86.7,331.1 95.8,336.3 97.5,336.7 99.5,335.2 99.5,335.2 106.6,335.8 109.4,333.9 
		109.5,333.9 110.8,334.6 112,334.3 111.6,329.5 111.6,329.5 113.1,329.4 116.5,326 116.5,326 123.4,327.2 125,325.9 128.1,327.4 
		128.1,326.5 128.1,326.5 128.1,327.4 129,327.8 129.7,327.1 128.1,325.3 128.1,325.3 128.2,324.3 130.9,326.3 132.2,325.4 
		130.6,323.8 130.7,323.8 131.4,319.9 131.4,319.9 134.1,318.1 134.6,314 134.6,314 137,313.6 137.1,311.1 137.1,311.1 139.4,309 
		138.3,306.2 138.3,306.2 139.3,300.1 136.9,297 136.9,297 138.2,296.8 138.3,292.8 137.2,292.1 133.3,292.3 132.9,291.1 
		132.9,291.1 135.3,289.6 135.2,286.8 135.2,286.8 136.1,286.8 136.7,283.9 136.8,283.9 140,285.1 141,284.1 139.8,281.6 
		139.8,281.6 140.2,280.2 140.2,280.2 142.5,279.8 141,278.1 137.9,277.8 137.9,277.8 137.7,276.7 137.7,276.7 140,276 140.2,274.8 
		141.6,271.6 144.5,266.7 147.6,263.9 147.6,263.9 149.9,263.8 149.9,263.8 150.5,266.1 153.7,266.4 153.9,262 151.7,259.4 
		153.5,256 150.9,255.8 150.9,255.8 150,253.6 150,253.6 152.7,251.5 156.6,246.7 161,243.2 161,243.2 162.6,243.1 162.6,243.1 
		163.8,244.5 163.8,244.5 161.8,248.3 164.3,249.8 166.5,248 166.5,248 171.4,254.3 172.8,254.8 175.2,248.2 176.6,244.1 
		178.1,242.3 178.1,242.3 180.6,244.1 180.6,244.1 180.7,248.2 180.7,248.2 179.1,251.7 178.9,254.1 180.5,254.2 182.3,251.2 
		182.3,251.2 184.1,251 184.1,251 185.1,252.5 185.2,255.5 187.2,255.5 189.7,249.2 189.7,249.2 191.5,248.3 191.5,248.3 
		192.7,249.4 192.7,249.4 190.9,255.6 192,256.2 194.8,250.7 194.8,250.7 200.1,252.7 200.7,249.3 200.5,249.2 200.5,249.2 
		206,245.6 206,242.6 204.6,238.8 202.4,239.2 202.4,239.2 198.1,238.1 190.8,237 190.8,237 192.1,229.3 190.9,226.8 185.8,226.7 
		185.8,226.7 184.6,224.7 179.3,224.4 179.3,224.4 181.7,222.2 182,220.5 179.5,220.3 178.9,222.3 178.9,222.3 176.8,222.3 
		176.7,222.3 174.2,219 168.3,215.9 168.3,215.9 168.3,209.6 162.9,208.1 161.1,209.5 161.1,209.5 159.6,208.1 154.4,207.5 
		154.4,207.5 151.9,205.5 150.2,201.8 147,202.2 147,202.2 146.6,196.1 145.2,193.9 139.5,200.1 139.5,200.1 137.3,197.9 
		137.3,197.9 138.9,192.7 137.1,191.2 134.6,193.5 134.6,193.5 130.7,193.7 130.7,193.7 127.7,186.4 127.7,186.4 129.6,182.7 
		128.6,180.2 125.1,180 125.1,180 121.8,173.6 121.8,173.6 124.8,167.5 117.5,164.9 115.2,166.8 115.2,166.8 109.4,164.6 
		109.4,162.1 102.5,159.6 94.5,160.7 91.4,165.1 88.7,174.1 88.7,174.1 78.9,177 78.9,177 77.7,171.1 72.4,164.5 65.3,157.9 
		55.3,158.3 55.3,158.3 45.4,156 30.2,153.6 27.5,153.8 30.5,159.3 39.7,177.2 46,191.3 51,211.2 55.4,234.7 59,253.1 59.4,265 
		59.4,265 56.6,272.3 54.1,276.4 55.4,278.4 55.4,278.4 54.9,282.5 60.2,284.8 60.2,284.8 60,288.7 54,287.3 53.8,290.7 53.8,290.7 
		52.5,291 52.5,291 51.1,288.5 51.1,288.5 53,284.4 51.1,283.1 49.6,285.6 49.6,285.6 47.1,285.8 46,288.7 47.2,294 47.2,294 
		43.8,298 45.3,300 45.3,300 44.4,301.8 44.4,301.8 34.2,301 33.2,300.8 33.8,307 	"/>
	<text transform="matrix(1 0 0 1 38.7999 371.7208)" class="st1 st2 st3">Haimchar</text>
	<text transform="matrix(1 0 0 1 64.1746 219.0515)" class="st1 st2 st3">Chandpur</text>
	<g>
		<circle class="st4" cx="111.4" cy="250.7" r="13.4"/>
		<text transform="matrix(1 0 0 1 105.4297 258.0555)" class="st2 st5">3</text>
	</g>
</g>
<g id="chandpur-4">
	<path class="st7" d="M262.7,288.6L262.7,288.6l0.5-3.8l-2.7-1.9l-3.3-0.4l0,0l-1.3-3.8l-3,1.4l0,0l-2.4-3.1l-2.7,1.7l0,0l-0.8-6.2
		l-1.9,0.8l0,0l-3.4-2.2l0,0l0.9-5.1l-2.4-0.6l0,0l-0.7-1.1v0.1l0,0l-2.6-1.4l0,0l-0.8-4.5l-0.8-5l-7,0.1l-0.4,3.3l0,0l-6.1-2.5
		l-2.5,5.6l0,0l-4.6-1.7l0,0l-2.8-3.1l-1.6,1.9l0,0l-2.2-1.1l0,0l-1.4-3.7l-2.1-0.6l0,0l-0.4-1.8l-3.5-0.9l-0.5,3.4l0,0l-5.3-2
		l-2.8,5.5l0,0l-1.1-0.7l0,0l1.8-6.1l-1.2-1.1l-1.8,0.9l-2.5,6.4l0,0h-2l0,0l-0.1-3.1l-1-1.4l-1.8,0.1l-1.8,3.1l0,0l-1.6-0.1l0,0
		l0.3-2.4l1.5-3.5l-0.1-4.1l-2.5-1.7l-1.5,1.8l-1.3,4.1l-2.4,6.7l0,0l-1.4-0.6l-4.9-6.2l-2.1,1.7l0,0l-2.5-1.5l0,0l2-3.7l-1.2-1.4
		l-1.6,0.1l-4.4,3.5l-3.9,4.8l-2.7,2.1l0.9,2.2l2.6,0.3l0,0l-1.7,3.4l2.1,2.6l0,0l-0.2,4.4l0,0l-3.2-0.3l0,0l-0.7-2.3l-2.2,0.1
		l-3.1,2.8l-2.9,4.8l-1.4,3.2l-0.1,1.2l0,0l-2.3,0.8l0.2,1l3.1,0.3l0,0l1.5,1.8l-2.4,0.4l-0.4,1.4l1.3,2.4l0,0l-1,1l0,0l-3.3-1.2
		l-0.7,2.9l0,0h-0.9l0.1,2.8l0,0l-2.4,1.5l0.4,1.1l3.9-0.2l0,0l1.1,0.8l0,0l-0.1,4l0,0l-1.3,0.1l2.4,3.1l0,0l-1.1,6.2l1.2,2.8
		l-2.4,2.1l-0.1,2.5l0,0l-2.4,0.4l-0.4,4.1l0,0l-2.8,1.8l-0.7,3.9l1.6,1.6l0,0l-1.4,0.9l0,0l-2.6-2l-0.1,1l1.6,1.8l0,0l-0.7,0.7l0,0
		l-0.9-0.4l-0.2,4.8l1.7,6.6l0,0l-3.2,1.6l1,8l1.9,2.1l0,0l-2.6,2.7l0,0l-4.1-0.3l0.2,3.6l1.6,4.7l5.4,3.3l0,0l-0.8,5.2l0,0
		l-3.1,2.5l4.9,5.7l2.3,6.5l0,0l-0.6,3.5l0.4,0.1l10.4,2.6l0,0l5,6l2.7,1.9l6.6,7.4l2.7,0.6l5.8-5.3v-2.5l0,0l3.3-0.5l1.8-1.7
		l-1.6-0.8l0,0l0.4-1.8l0,0l2.8,0.3l2-2.5l0,0l2.4-0.4l1.8-1.8c-1.2-0.4-3.4-1-3.8-1l0,0l0,0l0,0l0,0c0,0,0,0-0.2-1.2
		c-0.1-0.6-0.1-1.2-0.1-1.2l0,0l0,0l3.1-2.4l3.7-0.9l3.8-3.9l4.2-1.5l4.6-2.3l0,0l1.8,1.4l9.4-0.3l2.1-0.8l-0.8-1.9l-2.4,0.8l0,0
		l-0.5-0.7l0,0l1.9-2.5l-1.8-2.1l0,0l2.8-4.7l0.4-7.4l0.5-9.7l0,0l2.6-2.9l-1.2-3l0,0l1.7-1.7l0,0l10.9-0.1l3.6-2.4l0.1-4.7l1.1-2.7
		l0,0l4.7-0.3l0.9-1.7l0,0l5.9-2.2l-0.2-4l0,0l2.8-1.8l-0.3-2.2l0,0l3.5-0.2l4.3-3.2l0.5-2.6l-3-2.6l0,0v-7.6l0,0l3.8-0.9l4.3-0.1
		l2.8-3.6l0,0l5.9-0.9l3-0.9l0,0h0.1l-0.3-4L262.7,288.6z"/>
	<text transform="matrix(1 0 0 1 164.6322 300.7213)" class="st1 st2 st3">Faridgonj</text>
	<g>
		<circle class="st4" cx="176.4" cy="330.1" r="13.4"/>
		<text transform="matrix(1 0 0 1 170.4297 337.3889)" class="st2 st5">4</text>
	</g>
</g>
<g id="chandpur-5">
	<path class="st8" d="M383.4,231.9l-3.7,0.9l0,0l-3.1-0.7l0,0l-0.6-6.8l-5.5-1l-4,2.4l0,0l-3.1-6l-1.4-0.6l0,0l-1.4-2.5l-3.7-2.8
		l-4,2.4l0,0l-8.7-1l0,0l-1.2-4.6l-5.2-2l0,0l-1.6-3.2l-6-3.4l-3.3,3.2l0,0l-3.4-1.6l-2.6,1.9l0,0l-2.4-1.9l-2.8,0.5l0,0l-0.4-6.5
		l-2-1.9l-3.9-1.1l-3.2,1.5c0,0,0,0.1,0,0.3l1.2,0.2l0,0l-1.2-0.2c0,0.7,0.1,2.3,0.1,2.5c0.1,0.2-1.3,2.5-1.5,2.8l-0.4,2.2l1.5,2
		l0,0l0.1,4.6l0,0l-2.3,2.5l-0.2,8.2l0,0l-2.6,2.3l0,0l-7-0.4l-2.5,5.6l0,0l-3.4,1.1l-0.1,2.9l0,0l-1.5,1l0,0l-2.8-1.2l-2.7,3l0,0
		l-2.3-1.4l-1.9,1.1l-1.3,2.1l3.4,4.7l2.8,0.9l10.1-0.4l0,0l12.4,11l10.2,5l7-3.5l0,0l1.3,1.3l0,0l-3.6,2.5l0.7,3l3.1,2.3l0,0
		l-2.7,2.2l0,0l-6.4-0.1l-0.7,4.1l0,0l-5,0.2l-4.8,2.4l-0.4,7.2l0,0l-2.9,3.2l-0.1,5.7l0,0l-2.5,0.9l1.5,4.5l0,0l-0.4,10.3l0.4,5.7
		l0.7,0.4l4.4,0.6l1.9-3.6l0,0l2.2,0.4l0,0l0.2,3.5l0,0l-3,1.5l1.8,1.9l7.2-1l0,0l5,2.5l2-0.9l0,0l3.4,2.1l1.3-0.9l0,0l4.2,0.9
		l5.9-1.9l5.7,0.1l0,0l-0.6,2.5l1.6,2.1l2.7-0.2l0,0l0.6,2.1l0,0l-2.2,1.4l1.9,3.2l2.6,1.6l2.1-2.3l1.6,0.4l3.3-2.3l0,0l4.3,0.5
		l2.8-4.3l0,0l3.2-0.9l0,0l3.1,1.6l4.5-0.4l1.4-1.7l0,0l4.2-0.1l3.1-1.4l-0.1-5l0,0l1.9-2.4l-0.6-3.7l-2.7-0.1l0,0l-1.8-1.3l0,0
		l1.1-4.5v-5.2l-3.2-1.6l0,0l0.9-5.9l-4.1-4.2l3,0.3l0.8-2l0,0l4.4-0.8l1.1-1.7l-3.5-1.7l0,0l0.4-2.9l0,0l5.3-0.3l3-1.3l0.7-2.6
		l-2.1-0.4l-0.5,1.9l0,0l-2.5-0.3l0,0l0.7-3.5l-1.3-3.5l0,0l1.9-2.5l-0.1-2.5l0.5-3.1l0,0l4.5-0.2l3.7-2.2l2.6-5l0.3-7.8l-4-2.9l0,0
		l-0.4-4.4l0,0l1.6-1.2l0.3-2l-1.5-2.1l-6.7-1.5L383.4,231.9L383.4,231.9z"/>
	<path class="st8" d="M298.6,295.2l-1.5-4.5l2.5-0.9l0.1-5.7l0,0l2.9-3.2l0.4-7.2l0,0l4.9-2.4l5-0.2l0.7-4.1l0,0l6.4,0.1l2.7-2.1
		l-3-2.3l0,0l-0.8-3l0,0l3.6-2.5l-1.2-1.3l-7,3.5l0,0l-10.2-5l-12.4-11l-10.1,0.4l0,0l-2.8-0.9l0,0l-3.4-4.8l0,0l1.3-2.1l1.9-1.1
		l0,0l2.3,1.4l2.7-3l0,0l2.8,1.2l1.5-1l0.1-2.9l0,0l3.4-1.1l2.5-5.6l0,0l7,0.4l2.6-2.3l0.2-8.2l0,0l2.3-2.5l-0.1-4.6l-1.5-2l0,0
		l0.4-2.2c0.4-0.7,1.5-2.7,1.5-2.8s-0.1-1.8-0.1-2.5l-3.7-0.6l-8.1,2.3l0,0l-1.4-1.6l0,0l-0.2-4.3h-4.5l0,0l-0.6-7.6l-10-0.5
		l-0.1,2.7l0,0l-1.5,0.5l0,0l-1.5-1.8l0,0l-0.1-4.6l-3.3-1l0,0l-0.3-4.5l-5.4,0.2l0,0l-0.9-1.3l-1.8,1.7l0,0h-5.7l0,0l-0.2-2.7
		l-3.2,0.5l-0.3,1.4l0,0l-4.5-1.8l-2.7-3.1l-4-10.2l-4,0.2l-1.8,2.2l0,0l-2.3-0.9l0,0l-0.7-3.3l-6.2,0.5l0.1,0.2l0,0l-1.9,2.6l0,0
		l-2.4-0.2l-1,2.8l0,0l-16.3-0.2l0,0l-1.4-2.3H200l0,0l-3-4.9l-2.7,2l0,0l-1.1-1.7l-2.2,0.4l-2.6,2.1l-2.5-2.1l-2.8-0.2l-0.4,1.6
		l2.3,2l-1.3,0.8l0,0l-5.8-3.5l-0.5,2.5l2.7,4.4l0,0l-1.3,2.5l3.6,5.9l0,0c0,0-0.5,0.9-1.1,1.8c-1,1.8-1.1,1.8-1.1,1.8l0,0l0,0l0,0
		c0-0.1-1.3-0.7-2.1-1.1l-2.8,2.8l0,0l-2.2-3.9l-2.5,2l1.3,6l0,0l-3.3,6l2.2,1.1l0,0l2.3,5h2.3l2.2-2.5l0,0l3,5.2l6.3-0.8l0,0
		l3.3,2.3l0,0l-0.2,14.7l1.3,5.4l0,0l-3.2,3.1l1.5,1.2l4-0.1l0,0l1.3,2.4l3.2-0.7l0,0l2.5,1.4l0,0l-0.6,9.1l4.7,1.4l9.6,0.9l0,0
		l1.9,3.5l0,0v4.5l0,0l-4.1,0.8l-2.5,5l2.2,2.5l0.4-0.5l0,0l-0.4,0.5l2.8,3.1l4.5,1.7l2.5-5.6l0,0l6.1,2.5l0.4-3.3l0,0l7-0.1l0,0
		l0.8,5l0.8,4.4l2.6,1.4v-0.1l-0.7-1.1l0,0l0.7,1.1l0.4-3.8l0,0l1.5,0.5l0,0l1,3.8l2.8-0.6l1-4.3l0,0l1.8,1.3l0,0l-1.8-1.3l-1,4.3
		l0,0l-2.9,0.6l0,0l-1-3.8l-1.5-0.5l-0.4,3.8l0.7,1.1l2.4,0.6l0,0l-0.9,5.1l3.4,2.2l1.9-0.8l0,0l0.8,6.2l2.7-1.7l0,0l2.4,3.1l3-1.4
		l0,0l1.3,3.8l3.3,0.4l2.6,1.9l0.1-0.8l0,0l-0.1,0.8l0.1,0.1l2.2-0.6l0,0l2.7,1.5l0,0l-1.2,1.2l2.1,1.5l2.6-1.9l0,0l3.2,0.9l0,0
		l-2.3,6.6l3.6,2.6l0,0l-0.3,3.3l0.4,0.2l4.3,0.7v2.7l2.6,0.7l1.5-1.4l0,0l6.2-0.2l0,0l1.5,3.3l5.4,4.5l0.8,0.5l-0.4-5.7
		L298.6,295.2z"/>
	<text transform="matrix(1 0 0 1 213.0565 208.1333)" class="st1 st2 st3">Haziganj</text>
	<text transform="matrix(1 0 0 1 320.5568 250.6341)" class="st1 st2 st3">Shahrasi</text>
	<g>
		<circle class="st4" cx="288.1" cy="229.7" r="13.4"/>
		<text transform="matrix(1 0 0 1 282.0964 237.0555)" class="st2 st5">5</text>
	</g>
</g>
<g id="chandpur-1">
	<path class="st9" d="M211.6,73.6l-2.9,4.2l3,12.3l5.1,9.2l0,0l-0.7,7.7l0,0c0,0-3.7,0.1-4,0.2l-0.2,1.4l6.5,8l2.6,8.8l0.4,6
		l2.8,7.6l3.9,3.2l0,0l2.4,7.6l0,0l-5.6-2.5l0.1,8.5l2.4,3.3l6.2-0.5l0,0l0.7,3.3l2.3,0.8l1.8-2.2l0,0l4-0.2l0,0l4,10.2l2.7,3.1
		l4.5,1.8l0.3-1.4l0,0l3.2-0.5l0,0l0.2,2.7h5.7l1.8-1.7l0,0l1,1.3l5.4-0.2l0,0l0.3,4.5l3.3,1l0,0l0.1,4.6l1.5,1.8l1.5-0.5l0.1-2.7
		l0,0l10,0.5l0,0l0.6,7.6h4.5l0,0l0.2,4.3l1.4,1.6l8.1-2.3l0,0l3.7,0.6c0-0.2,0-0.3,0-0.3l0,0l0,0l3.2-1.5l0,0l3.9,1.1l0,0l2,1.9
		l0,0l0.4,6.5l2.8-0.5l0,0l2.4,1.9l2.6-1.9l0,0l3.4,1.6l3.3-3.2l0,0l6,3.4l0,0l1.6,3.2l5.2,2l0,0l1.2,4.6l8.7,1l4-2.4l0,0l3.7,2.8
		l1.4,2.5l1.4,0.6l0,0l3,6l4-2.4l0,0l5.5,1l0,0l0.6,6.8l3,0.7l3.7-0.9l1.9-3.2l-0.3-0.1l0,0l1.1-5.9l-1.6-3.1l0,0l0.3-7l-2.7-2.2
		l0,0l-0.1-2.2l-1.7-0.7l-2.6,3.8l0,0l-0.9-6.4l-2.1-0.2l0,0l-2.3-8.2l-2.6-6.8l-4.1,0.2l-3.7,4.6l-2.1-0.5l0,0l-0.5-5.1l0,0l1.2-2
		l-1.2-2.8l-2.4,0.8l0,0l-2-2.4l0,0l1-5.9l-1.3-6.9l-2.7-4.7l-2.7-1.6h-2.9l0,0l-3-2.8l0,0l-0.9-4.5l-2.9-4.3l0,0l2.4-2.6l-0.5-1.5
		l-3-5.9c-0.5,0-1.4,0-1.5,0.1c0,0.1-0.2,0.4-1.7,2.7c-0.8,1.3-1.7,2.7-1.7,2.7l0,0l0,0l-2.3,0.7l0,0l-1.7-3.6l-7.9-0.1l0,0
		l-1.6-1.7l0,0l1.2-3.8l-0.7-3.7l-1.6-1.6l-1.5-4.2l3.1,0.5l1.7-2.2l-3-3.7l0,0l0.8-3.4l-2.9-3.9l-4-4.5l-2.6-0.5l0,0l-2.4-3
		l-4.6,1.5l0,0l-0.6-3.5l0,0l2.3-1l0.2-1.4l-3.5,0.1l0,0l-1.6-1.7l-4.8,0.7l0,0l-2.6-1.5l0,0l1.8-2.7l-0.5-6.3l-2.3-2.1l-2.5,1.9
		l-1.8,0.6l0,0l-2.1-7.2L283.3,74l-0.5-4.6l-1.4-2.2l-1.3-8.3l-2.5-1.5l0,0l-1.9-5.3l-5,0.6l-6.9,0.1l0,0l-0.1-2.6l-2.3-2.3
		l-4.3-0.1l-0.7,1l0,0l-1.6-0.3l0,0l0.4-4.1l0,0l1.7-2l-2.4-2.6l-2.2-3.6l-2.8-0.7l-2.2,2.3l0,0l-2.7-1.2l-3.3,2l0.2,4.7l0,0
		l-3.5,1.2l0,0l-3.3-1.4l-5.4,0.7l0.4,8.2l2.3,4.7l-2.4,1.5l-5,0.3l0.3,3.1l0,0l-2.2,0.3l0,0l-0.4-2.6l-2.8-1.7l-3.4,0.2l-1.7,1.5
		l0.5,4l0,0l-3.2,6.8l0,0l-0.4-0.3L211.6,73.6L211.6,73.6z"/>
	<text transform="matrix(1 0 0 1 241.4304 118.2144)" class="st1 st2 st3">Kachua</text>
	<g>
		<circle class="st4" cx="289.6" cy="141.7" r="13.4"/>
		<text transform="matrix(1 0 0 1 283.5964 149.0555)" class="st2 st5">1</text>
	</g>
</g>
</svg>
