<?xml version="1.0" encoding="utf-8"?>
<!-- Generator: Adobe Illustrator 25.2.1, SVG Export Plug-In . SVG Version: 6.00 Build 0)  -->
<svg version="1.1" id="Layer_1" xmlns="http://www.w3.org/2000/svg" xmlns:xlink="http://www.w3.org/1999/xlink" x="0px" y="0px"
	 viewBox="0 0 262 571" style="enable-background:new 0 0 262 571;" xml:space="preserve">
<style type="text/css">
	.st0{fill:#9BB6EA;stroke:#FFFFFF;stroke-width:0.5;stroke-miterlimit:10;}
	.st1{fill:#232323;}
	.st2{font-family:'TimesNewRomanPSMT';}
	.st3{font-size:16px;}
	.st4{fill:#8BAFE8;stroke:#FFFFFF;stroke-width:0.5;stroke-miterlimit:10;}
	.st5{fill:#7CA7E5;stroke:#FFFFFF;stroke-width:0.5;stroke-miterlimit:10;}
	.st6{fill:#6899E0;stroke:#FFFFFF;stroke-width:0.5;stroke-miterlimit:10;}
	.st7{fill:#C5CFED;stroke:#FFFFFF;stroke-width:0.5;stroke-miterlimit:10;}
	.st8{fill:#ABBEED;stroke:#FFFFFF;stroke-width:0.5;stroke-miterlimit:10;}
	.st9{fill:#7BC7FF;stroke:#FFFFFF;stroke-width:0.5;stroke-miterlimit:10;}
	.st10{fill:#A9DEFF;stroke:#FFFFFF;stroke-width:0.5;stroke-miterlimit:10;}
</style>
<g id="khagrachari">
	<polygon class="st0" points="38.8,394.2 41.1,392.9 41.1,392.9 47.2,398.7 50.8,399.6 50.8,399.6 51.8,402.2 51.8,402.3 
		50.9,405.5 55.4,414 57.5,412.9 56.1,410.4 56.1,410.4 59.2,409.5 62.2,406.6 62.3,406.6 63.9,407.3 63.9,407.4 63.8,411.2 
		69.5,416.4 69.5,416.4 68.1,419.4 71.7,418.6 74.4,422.5 76.9,419.9 76.9,419.9 79,424 81.6,423.5 81.4,421.1 81.4,421 88.3,414.4 
		88.3,414.4 93.3,417 94.8,415.5 94.8,415.5 97.9,417.3 106,414.3 107.8,411.6 107.8,411.6 109.7,411.3 111.4,412.9 119.4,409.7 
		119.4,409.7 124.4,411.7 126.1,410.8 125.8,408.3 125.9,408.3 131.4,406.9 138.1,401.5 137.9,399.8 136.7,391.8 134.8,383.5 
		132,376.8 131.9,376 131.3,376.1 131.3,376.1 124.4,352 123.1,332.8 119.5,323.1 106.6,305 99.5,292.5 99.5,292.5 99.8,287.5 
		99.8,287.5 102.4,284.7 102.2,280.5 102.3,280.5 102.4,280.3 100.9,278.7 98,279.5 93.8,279.6 93.8,279.6 92.5,276.8 88.1,277 
		86.6,280.7 86.6,280.7 75.9,270 68.8,256.8 67,235.8 63.7,218 59.9,211.4 56.5,212.4 56.5,212.4 53.7,211.3 53.8,211.3 57.7,204.4 
		56.7,189.5 53.1,189.1 51.1,191.1 50.9,197.1 50.9,197.1 48.7,198.2 45.2,193.3 40.1,190.8 37.6,192 41.2,202.5 42.4,210.7 
		42.4,210.7 37.3,213.8 36.3,216.9 38.6,222.5 38.6,222.6 26.7,230.9 15.7,239.1 16.6,241.9 26.4,241.6 27.5,246.3 27.5,246.3 
		24.3,250.9 26.5,256.9 29.1,259.8 32.1,259.3 32.1,259.3 33,262.2 33,262.2 32.1,266.4 34,266.5 35.9,269.6 33.2,272 34.3,275.2 
		36.6,273.3 38.1,281.5 40.8,281.9 40.8,281.9 41.2,291 41.2,291 39.2,293.3 42.4,297.9 44.7,298.3 44.7,298.3 45.1,302.2 
		45.1,302.2 42.8,302.8 43.4,305 48.1,306.7 48.1,306.7 49.6,315.6 49.6,315.6 48.7,319.8 52.7,325.1 52.6,325.1 49.2,331 
		52.5,331.8 52.9,336.7 52.9,336.8 51.5,339 54.2,340.6 54.2,340.6 54.8,347.2 54.7,347.2 52.5,349.9 55.7,351 57.7,349.1 
		57.7,349.1 63.8,353.5 63.7,353.6 59.5,355.5 54.5,363.1 49.1,368.7 49.1,368.7 44.3,369.9 44.3,369.9 42.4,369.7 42.4,369.6 
		44,366.5 41,364.9 39.5,367.2 39.5,367.1 38.6,364.6 33.7,365.6 32.3,367.6 36.2,370.7 35,372.6 38.2,381.5 38.2,381.5 38.2,384.1 
		36.1,382.9 35.3,384.3 36.3,386.6 36.3,386.6 35.3,388.4 35.3,388.4 34.4,388.3 35,392.3 	"/>
	<g>
		<text transform="matrix(1 0 0 1 50.2849 381.8978)" class="st1 st2 st3">Matiranga</text>
	</g>
	<polygon class="st4" points="159.3,370.1 132,376 132.1,376.7 134.8,383.5 136.8,391.8 138,399.8 138.2,401.4 139.1,400.8 
		139.1,400.9 138.3,401.6 139.2,407.3 141.9,414.8 141.9,414.8 139.6,419.6 135.9,423.5 137.2,426.4 137.2,426.4 136.8,430.6 
		134.1,435.6 127.9,437.5 127.9,437.5 119,435.5 114.9,434.3 115.6,437.1 115.4,440.7 115.4,440.7 112.2,442.4 112,446.9 112,446.9 
		109.4,447.2 109.3,451.5 109.3,451.5 105.1,455.5 102.2,459.4 102.2,459.4 102.5,462.9 105.9,468.1 105.9,468.1 105.5,471.5 
		113.2,465.3 126.8,462.6 137.6,462.3 137.6,462.3 138.5,462.9 138.5,462.8 138.6,462.8 140.4,462.3 140.5,462.3 143.6,464.9 
		146.1,456.2 146.1,456.2 148.9,453.8 148.9,453.8 164.7,458 170.7,458.2 176,453.3 177.9,448.5 184.6,440.1 202.1,425.4 
		210.1,419.1 210.4,411.2 204.7,390.6 196,371.2 189.9,354.8 177.5,359.1 	"/>
	<g>
		<text transform="matrix(1 0 0 1 150.5792 398.6037)" class="st1 st2 st3">Mahalchari</text>
	</g>
	<path class="st5" d="M24.4,463.6L24.4,463.6l3.6,1.6l5.1,2.4l4.4-7l3.2-7.7l0,0l9.2-5.1l6.2-4.1l0,0l4.5,1.7L63,448l3.7,1.7l0,0
		l0.7,3.9l4,1.3l4.3-1.9l8.7-9.2l0,0l2.6,0.3l0,0l2.4,4.9l0.7,5.2l5.3,4.1l4.7,1.4l2-0.4v-0.2h0.1v0.1l2.9-3.9l4.2-4.1v-4.3l2.6-0.4
		l0.2-4.4l0,0l3.1-1.7l0.2-3.5l-0.7-3h0.1l4.2,1.2l8.9,1.9l6.1-1.8l2.7-5l0.4-4.2l-1.4-2.9l0,0l3.7-3.9l2.3-4.7l-2.8-7.5l-0.9-5.7
		l-6.7,5.3l-5.5,1.4l0.3,2.5l-1.8,0.9l0,0l-5-2l-8,3.2l0,0l-1.7-1.6l-1.8,0.3l-1.7,2.7l0,0l-8.2,3.1l0,0l-3-1.7l-1.5,1.4l0,0l-5-2.5
		l-6.8,6.6l0.2,2.5l0,0l-2.7,0.6l-2.1-4.1l-2.5,2.7v-0.1l-2.7-4l-3.7,0.8v-0.1l1.4-3l-5.6-5.2l0,0v-3.8l-1.5-0.7l-3,2.9l0,0l-3,0.8
		l1.4,2.5l-2.3,1.2l-4.6-8.7l0.9-3.3l-1-2.6l-3.6-0.8l0,0l-6-5.8l-2.3,1.3l0,0l-3.9-2l0,0l-0.6-4l-2.1-0.2v-0.1l1.4-3.8l-1.4-4.1
		h-2.2c0.1,0.6,1,6.2,1.1,6.6v0.1c-0.2,0.3-2.8,0.5-3.3,0.5l-0.4,4.4h-0.1l-2.5-0.9l-2.3,0.6l0.8,3.1l0,0l-10.2,9.9l0,0l-2.3-0.4
		l-5.4,7.4l1.8,10.3l2.6,5.5l2-0.1l0,0l0.7,2.3l-2.1,0.7l0.4,5.2H13v2.2l0,0l-2.4,0.4l-2.9,10.7l2,5l0,0L6,461.8l1.4,4.5l4.5,2.5
		l0,0l-0.4,2.4l2.7,1.5l5.7-0.1l3-7.4L24.4,463.6z"/>
	<g>
		<text transform="matrix(1 0 0 1 25.5791 438.8097)" class="st1 st2 st3">Ramgarh</text>
	</g>
	<polygon class="st6" points="126.8,462.7 113.3,465.4 105.4,471.7 105.4,471.6 105.8,468.1 102.4,462.9 102.1,459.5 100.1,459.9 
		100.1,459.9 95.7,458.5 95.8,459.8 99.4,466.9 99.4,466.9 98.7,474.7 98.7,474.8 92.2,483.5 91.2,491.6 91.2,491.6 86.4,494.3 
		82.7,505.4 79.5,509.7 77.5,517.9 79.4,518.9 79.3,520.3 79.3,520.3 77.5,520.6 77.4,522.5 80.3,526.4 80.3,526.4 75.9,532.6 
		78.2,534.1 79.8,531.9 79.9,531.9 81.3,532.8 86.3,527.5 86.3,527.5 93.8,529.2 93.8,529.2 93.1,532.1 97.6,534.6 95.7,536.7 
		95.6,536.7 91.7,535.1 86.5,553.1 91.5,565 95.6,564.3 95.6,564.3 96.8,566.5 100,566.5 103.7,562.2 103.7,562.2 106,564.9 
		110,561.5 110,561.5 112.6,563 123.4,559.7 126.2,547.9 126.3,547.8 142.1,542 146.1,537.6 145.5,519.7 142.1,517.2 142.1,517.2 
		140.5,513 140.5,512.9 141.8,510.1 137.6,506.4 137.6,506.4 139,492.9 138.7,479.7 135,478.2 135,478.2 132.9,473.9 132.9,473.9 
		134.4,470.5 134.4,470.5 137.7,471.2 139.1,468.4 135.8,466.5 135.8,466.5 138.4,463 137.5,462.4 	"/>
	<g>
		<text transform="matrix(1 0 0 1 94.1135 517.6772)" class="st1 st2 st3">Laxmichari</text>
	</g>
	<polygon class="st7" points="132.5,163.2 140.5,195.5 143.8,217.3 149.4,238.4 150.7,251.8 151.1,251.5 151.1,251.6 150.7,251.9 
		150.8,253.3 155.5,274.4 161.1,289.5 173.2,311.5 181.9,329.7 188.5,351 188.5,351 198.7,348.2 214.4,342.7 235.4,337.1 
		235.4,337.1 243,337.8 238,328.4 224.4,306.8 220.9,288.2 212.9,265.4 211.8,242.5 208.5,227.7 208.1,215.3 202.6,209.3 
		188.4,201.5 176.2,194.2 176.1,194.2 173.8,189.3 173.8,189.3 176.1,186.2 188.3,178.7 199.3,170.2 210.7,164.2 212.1,159.4 
		211.5,153.1 208.1,138.7 205.5,120.1 202.3,105.5 195.4,84.4 190.3,71.6 183.5,56.9 180.2,55.3 180,56.7 180,56.7 174,56.5 
		173,57.8 171.2,57.8 171.2,57.8 169.2,55.8 165.4,55.2 163.1,57.3 163.1,57.3 159.6,56.4 159.6,56.3 159.4,54.3 156.2,52.2 
		153.7,50.4 152.3,51.7 151,51.2 151,51.1 151.7,48.7 149.7,47.5 147.2,50.2 147.1,50.1 144,48 144,48 143.2,44.2 140.1,44.1 
		140.1,44 133.5,23.9 130.4,15.9 127.6,10.5 123.7,13.1 123,10.9 120,9.9 116.5,11.2 117.7,14.8 115.1,14.8 114.9,17.2 117.2,18.7 
		113.8,21 115.6,25.3 115.6,25.3 115.1,29.1 119.1,29.9 119.1,29.9 119.4,33.1 119.3,33.1 111,32.2 110.6,34.8 110.6,34.8 
		106.9,36.6 110.8,46.2 110.8,46.2 110.1,51.9 112.8,54.7 112.8,54.7 113.4,61.6 113.4,61.6 111,64.3 117,77 117.1,83.5 
		120.2,100.3 120.2,100.4 119.2,104.5 123.7,117.5 123.7,117.5 119.2,120.2 119.2,123.6 122.2,125.9 125.9,129.7 125.9,129.7 
		127.3,135.1 127.3,135.1 123.3,136 124.6,143 124.9,151 127,152.6 	"/>
	<text transform="matrix(1 0 0 1 138.1157 154.5964)" class="st1 st2 st3">Dighinala</text>
	<polygon class="st8" points="67.1,235.8 68.9,256.8 76,269.9 86.6,280.6 88.1,276.9 88.1,276.9 92.6,276.7 92.6,276.7 93.9,279.5 
		97.9,279.4 100.9,278.6 101,278.6 102.5,280.2 104.4,277.9 103.4,273.6 103.4,273.6 106.8,270.7 106.8,270.7 110.8,272.9 
		116.8,265.2 116.8,265.2 132.3,263.1 147.4,254.4 150.6,251.9 149.3,238.4 143.7,217.3 140.4,195.5 132.4,163.3 126.9,152.6 
		124.9,151.1 125,153.1 125,153.1 124.7,154.4 124.7,154.4 122,155.9 119.1,154.5 115.1,160.8 112.2,163.3 112.1,163.3 105.6,161.1 
		102,163.3 90.2,172 82.3,180.9 69.9,187.6 64.1,192.7 64.4,201.8 63.4,210.4 63.3,210.4 60,211.4 63.7,217.9 	"/>
	<text transform="matrix(1 0 0 1 76.9161 219.4934)" class="st1 st2 st3">Panchari</text>
	<polygon class="st9" points="188.5,351.3 181.8,329.8 173.1,311.5 161,289.5 155.4,274.4 150.7,253.3 150.6,252 147.4,254.5 
		132.3,263.2 116.9,265.3 110.8,273 106.8,270.8 103.5,273.7 104.5,277.9 102.5,280.3 103.2,281 103.1,281.1 102.5,280.4 
		102.3,280.5 102.5,284.7 102.5,284.7 99.9,287.6 99.6,292.5 106.6,304.9 119.6,323 123.2,332.8 124.5,352 131.4,376 131.9,375.9 
		131.9,375.8 132,375.8 132,375.9 159.3,370 177.5,359 189.8,354.7 188.6,351.4 	"/>
	<g>
		<text transform="matrix(1 0 0 1 128.7115 338.3978)" class="st1 st2 st3">Khagrachari</text>
	</g>
	<polygon class="st10" points="79.2,520.2 79.3,518.9 77.4,517.9 77.4,517.9 79.5,509.7 82.6,505.3 86.4,494.2 86.4,494.2 
		91.1,491.5 92.1,483.5 92.1,483.4 98.6,474.7 99.3,466.9 95.7,459.8 95.6,458.5 95.4,458.4 90,454.2 90,454.2 89.3,449.1 
		86.9,444.2 84.4,443.9 75.7,453 71.6,455 71.5,455 67.5,453.7 67.5,453.7 66.8,449.7 63.1,448 60.7,445.5 56.2,443.8 50.1,447.9 
		40.9,453 37.7,460.7 33.2,467.7 33.2,467.7 28,465.2 24.4,463.7 23,465.4 20,472.8 23.1,474.8 23.1,474.9 23.3,477.3 27.4,480.7 
		27.4,480.7 26.9,487 28.2,493.2 31.1,492 31.2,492 32.4,493.5 32.4,493.5 30.6,495.5 37.1,515.1 41.4,519.4 43.9,519.3 43.9,519.3 
		43.2,522.2 45.8,524.6 45.2,527.8 48.8,526.1 47.6,521.8 47.7,521.8 50,522.2 54.2,513.1 54.2,513.2 62,516.2 67.7,514.4 
		67.7,514.4 68.4,516.2 68.4,516.2 65,518.4 64.3,523.2 67.2,524 68.2,519.9 68.3,520 72.7,524.9 75.3,526 77.2,522.2 77.3,522.3 
		77.3,522.3 77.4,520.5 	"/>
	<g>
		<text transform="matrix(1 0 0 1 31.04 485.8432)" class="st1 st2 st3">Manikchari</text>
	</g>
</g>
</svg>
