<?xml version="1.0" encoding="utf-8"?>
<!-- Generator: Adobe Illustrator 25.2.1, SVG Export Plug-In . SVG Version: 6.00 Build 0)  -->
<svg version="1.1" id="Layer_1" xmlns="http://www.w3.org/2000/svg" xmlns:xlink="http://www.w3.org/1999/xlink" x="0px" y="0px"
	 viewBox="0 0 305 504.7" style="enable-background:new 0 0 305 504.7;" xml:space="preserve">
<style type="text/css">
	.st0{fill:#9BB6EA;stroke:#FFFFFF;stroke-width:0.5;stroke-miterlimit:10;}
	.st1{fill:#232323;}
	.st2{font-family:'TimesNewRomanPSMT';}
	.st3{font-size:16px;}
	.st4{fill:#FFFFFF;}
	.st5{font-size:26.2374px;}
	.st6{fill:#C5CFED;stroke:#FFFFFF;stroke-width:0.5;stroke-miterlimit:10;}
	.st7{fill:#ABBEED;stroke:#FFFFFF;stroke-width:0.5;stroke-miterlimit:10;}
</style>
<g id="lakshmipur-4">
	<polygon class="st0" points="237.6,336.1 234.7,334.9 228.2,330.7 225.9,329.9 222.3,332.3 222.3,332.2 216,329.3 216,329.3 
		215.1,323.6 213.7,324.5 213.7,326.5 213.7,326.5 210.2,328.8 207.2,329.6 207.2,329.6 203.5,328 198.7,330.8 194.4,338.5 
		194.4,338.5 189.8,338.4 188.9,342.1 185.3,341.5 183.1,344.2 180.6,343.6 180.6,343.6 180,341.4 179,341.1 176.4,343.6 
		176.4,343.6 168.5,344.2 158.6,348.1 149.9,354.9 142.4,358.6 135.3,359.1 135.3,359.1 130.5,357.9 117.3,350.3 102.6,345.6 
		100.7,345.8 102.6,358.1 104.1,368.4 107.8,377.1 112.5,382.7 119.6,387.6 128.9,392.3 134.6,399.7 142.4,408.8 153.6,421.4 
		161.5,428.9 170.9,437 180.2,445.9 187.3,454.3 193.4,463.8 196.9,470.8 202,477.5 208.3,488.1 211.9,494.6 213.5,496.9 
		220.4,492.4 235.1,483.4 244.8,476.6 250.6,473.3 250.6,473.3 254.3,475.7 262.3,478 278.1,480 286.5,480.2 293.6,477.4 
		298.9,472.2 300.3,468.4 299.4,463.8 296.5,455.1 292.1,449.5 289.2,442 285.8,436.4 285.8,436.4 286.5,434.1 286,420.7 284.4,416 
		284.4,416 285.1,414.5 284.3,412.5 284.3,412.4 285.7,406 284.6,402.3 282.4,389.7 279,382.6 272.9,375 266.8,370.6 259.9,366.1 
		259.9,366.1 264.3,362.2 263.5,356 258.2,343.6 255.5,340.9 242.5,337.5 239.5,335.4 237.7,336.1 	"/>
	<polygon class="st0" points="102.7,345.5 117.4,350.2 130.6,357.8 135.3,359 142.4,358.5 149.8,354.8 158.6,348 168.4,344.1 
		176.4,343.5 179,341 179,341 180.1,341.3 180.1,341.3 180.6,343.5 183.1,344.1 185.3,341.4 185.3,341.4 188.8,342 189.7,338.3 
		194.3,338.4 198.6,330.7 198.6,330.7 203.5,327.9 203.6,327.9 207.2,329.5 210.1,328.8 213.6,326.5 213.6,324.4 213.6,324.4 
		215.2,323.4 216.1,329.3 222.3,332.1 225.9,329.8 225.9,329.8 228.2,330.6 234.7,334.8 237.7,336 239.4,335.3 239.1,335.1 
		239.1,335.1 238.9,322.6 239.6,308.9 235.5,306 227.5,300 222.5,293.8 218.1,297.4 218.1,297.4 214.2,296.6 206.9,302.9 
		206.8,302.8 205,298.7 202,292.5 202,292.5 202.6,281 199.5,278.9 192.4,275.1 184.9,271.7 176.8,264.5 176.9,264.5 177.3,264.4 
		170.9,260.6 160.4,254.2 151.2,248.1 138.3,239.8 128.6,233 123.2,228.7 120.2,229 116.8,236.5 111.3,241.3 112.5,246.5 
		112.5,246.5 109.8,256.9 105.1,269.6 100.2,285.4 93.7,301.1 93.8,301.4 95.5,311.9 97.4,322.7 98.1,335.4 100.7,345.6 
		100.7,345.7 102.6,345.5 	"/>
	<text transform="matrix(1 0 0 1 114.223 292.8958)" class="st1 st2 st3">Kamalnagar</text>
	<text transform="matrix(1 0 0 1 188.3063 378.7292)" class="st1 st2 st3">Ramgati</text>
	<g>
		<ellipse class="st4" cx="173.4" cy="319" rx="14.4" ry="14.3"/>
		<text transform="matrix(1.014 0 0 1 166.9941 326.7881)" class="st2 st5">4</text>
	</g>
</g>
<g id="lakshmipur-1">
	<polygon class="st6" points="114.2,79.5 116.1,82 118.2,81.6 118.2,81.6 129,89 131.1,88.7 131.2,91.8 134.2,91.7 135.1,95.2 
		135.8,95 135.8,95.1 135.2,95.3 135.3,95.6 137.6,96.9 140.3,95.4 140.3,95.4 143,97.6 143,97.6 142.9,99.3 146.7,102.2 
		146.7,102.2 144.5,108 145.9,110.8 147.8,111.4 151.1,109.8 151.1,109.8 154.9,112.2 154.9,112.2 154.8,114.4 153.2,115.5 
		153.8,118.6 157.7,119.6 160.6,118.1 160.6,118.1 162.7,118.5 164.3,116.7 163.2,110.6 165.9,110.3 165.9,110.3 170.8,113.2 
		173.3,112.3 172.8,109.5 172.9,109.5 173.6,108.9 173.6,109 175,109.3 175.4,108 175.4,107.9 177.1,107 177.7,103.3 177.7,103.3 
		180.4,102.7 180.2,100.8 180.2,100.8 180.9,99.9 180.9,99.9 186.9,104 187.8,103.2 186.5,101.9 187.2,100.4 185.1,99.6 186.1,97.9 
		186.1,97.9 188.8,98.7 189.4,97.5 189.4,97.5 194.1,100 194.8,98.4 194,97.2 194,97.2 194,94.4 192.5,93.8 191.9,95.7 190.8,95.5 
		190.8,95.5 189.4,90.6 189.4,90.6 190,88.5 188.5,86.4 186.4,85.5 183.6,84.9 183.6,84.9 182.7,81.4 181.2,76.8 181.3,76.8 
		185.5,76.3 185.5,76.3 187.6,76.8 187.6,76.8 190.4,80.8 192.3,80.5 192.3,80.5 193.8,81.5 194.7,81.3 194.9,78.5 192.1,76.2 
		192.1,76.2 193,74.3 189,72.5 189,72.5 189.6,71.1 189.6,71.1 191.8,72.4 192.7,71.7 193,70.2 193,70.2 196,69.1 196,69.1 
		198.3,70.6 198.2,70.7 197,72 197.8,72.7 199,72.5 200,70.4 200.1,70.4 202.2,70.1 202.2,66.8 202,63.1 202.1,63.1 203,62.6 
		203.1,62.6 205.3,65.8 206.4,66.1 206.4,66.2 207.7,67.8 208.9,67.8 209.8,66 211.2,66.9 211.9,66.7 211.9,62.8 211.8,58.2 
		209.3,58 209.2,58 208.7,54.8 211.4,53.5 211.6,50.9 214.4,50.7 214.2,48.5 214.6,46.8 214.6,46.8 217.6,47.6 217.9,42.5 
		216.8,41.8 216.9,41.7 218,40.7 216,37.8 216.1,37.8 219.1,37 218.9,34.8 218.9,34.8 220.6,33.3 221.6,34.2 223.8,34.3 223.9,33.1 
		222.6,32.2 222.6,32.2 223,28.9 222,28 220.2,28.6 220.2,28.5 220.1,26.1 218.4,24.1 212.1,25 208.9,26.2 208.9,26.2 207.6,25 
		205.1,26.9 205.1,26.9 203.6,26.6 204.3,25.4 203.4,24.3 197.9,24.7 197.9,24.7 196.8,24.1 197.5,23.4 196.9,22.7 192.2,23.5 
		190.2,23.8 190.2,23.7 188.6,22.4 188.6,22.3 190.9,20.2 191,16.6 188.8,16.8 187.8,19.9 187.8,19.9 185.2,20.5 185.2,20.5 
		182.2,20 182.9,17.4 182.7,16.3 180.1,14.3 177.8,12.1 175.4,8.3 174.1,10.1 171.6,8.7 170.4,10.5 170.4,10.5 168.2,9.9 167.5,7.6 
		162.8,6.9 160.7,8.4 160.7,8.4 157.8,7.6 152.4,9.7 151.9,11.9 150.2,10.9 149.7,12.2 149.6,12.1 147,11.2 144.6,12.9 145.6,15.2 
		144.2,15.8 145.1,19.3 147.4,20 147.4,20.1 147.4,21.8 145.2,22.4 145,23.8 144.9,23.8 139.8,26 139.7,27.8 138.3,28.2 138.3,31.1 
		138.3,31.2 136.2,33.3 136.2,33.3 132.5,33.6 132.2,35.1 132.2,35.1 127.6,35.2 126.1,37.1 126.2,42.3 126.1,42.3 123,43.4 
		117.9,43.4 112.6,43.6 110.5,44.6 112.8,47.3 111.9,49 109.7,48.7 110.7,51.6 108.9,54.5 109.6,58.3 109.6,58.3 107.7,61.6 
		109.1,63.9 109.1,63.9 107.4,67.9 107.8,74.2 107.7,74.2 109.8,76.2 	"/>
	<text transform="matrix(1 0 0 1 147.1396 41.0625)" class="st1 st2 st3">Ramganj</text>
	<g>
		<ellipse class="st4" cx="163.4" cy="64" rx="14.4" ry="14.3"/>
		<text transform="matrix(1.014 0 0 1 156.9941 71.7881)" class="st2 st5">1</text>
	</g>
</g>
<g id="lakshmipur-2">
	<path class="st6" d="M65,196.4L65,196.4l3.6,0.3l10.4-7.6l4.8-2.8l0,0l5.2,1.1l1.4-4.1l-0.5-1.5c-5-2.8-5-2.9-5-3s1.6-9.6,1.8-10.7
		l-1.1-2.2l-3.4,0.7l0,0l-1.8-1.9l-2.1-5.4l-2.7,1.3l0,0l-5.1-5.6l0.6-1.1l3.2,0.6l3-4.9l-1.4-1.6l0,0l1.1-3.3l2.2,0.6l3.5,3.2
		l0.9,1.5l1.9-2.8l-1.7-2.7l-0.2-2.3l-2.2-2.4l0,0l1.2-1.6l0,0l2,1.3l4,3.2l3.3-2.4l2.4-5l0,0h1.8l0,0l0.5,1.7l4.1-1.6l0,0l3.2,1
		l5.4-0.5v-2.6l0,0l3.5-2.6l4.9-6.2l3.6-11.8l1.8-4.1l5.6-5.7l0,0l3.4-0.3l0.9-1.9l0.4-4.8l0,0l1.5-0.6l-0.9-3.5l-3,0.1l0,0l-0.2-3
		l-2,0.3l0,0L118,81.8l-2.2,0.5l0,0l-1.8-2.6l-4.5-3.2l-2.1-2.1l-9.1,0.2l-5.9-0.9l-2.6,4.1l0,0l-2.5-0.3L85.8,81l0,0l-3.7-0.6
		l-2.2,2.7l3.7,2.4l-1,1.5l0,0l-2.2-0.1l-13.5,13l0,0l-12-10.3l-11.4-5.9h-7.7L28,90.1l0,0l-3.7,0.2l-4,3.1l4.8,11.8l0,0l-2,3.7l0,0
		l-3.4,0.7l-0.3,2.7l6.2,1.3l0,0l1.8,3.8h-0.1l-5.8,1l-0.8,5.5l-6.2,9.8l-5.9,10.4L5,148.6l9.9,13.1l10.4,7l7.9,10.8l6.3,15.8
		l6.6,14.8l3.3-1.1L65,196.4z"/>
	<text transform="matrix(1 0 0 1 45.973 121.1459)" class="st1 st2 st3">Raipur</text>
	<g>
		<ellipse class="st4" cx="52.4" cy="149.8" rx="14.4" ry="14.3"/>
		<text transform="matrix(1.014 0 0 1 45.9941 157.6211)" class="st2 st5">2</text>
	</g>
</g>
<g id="lakshmipur-3">
	<path class="st7" d="M105,269.5l4.7-12.7l2.7-10.4l-1.2-5.2l0,0l5.6-4.8l3.4-7.5l0,0l3.1-0.3l0,0l5.4,4.3l9.7,6.8l12.9,8.3l9.2,6.2
		l10.5,6.4l6.5,3.9l5-0.7l5.2,0.4l1.8-2l0,0l10,1.4l0.8-0.4l1.7-3.8l-0.1-3.8l0,0l2.4-2.9l0,0l1.4-0.4l4-1.8l-0.1-1.6l-1.4-1.4l0,0
		l1.8-3.4l1.1,0.6l0,0l-0.6,1.9l1,0.4l1.5-1.4l-0.8-1.7l-0.2-4.4l0,0l1.3-3.9l-2.5-1l0,0l-1.3-2.6l0,0l1.9-5.5l1.9,0.1l-0.2,2
		l0.6,0.7l4-1l0,0l3.6,1.6l0.2-1.1l-2-1.2l0,0v-1.2l0,0l5.2-1l2.3-0.5l0,0l2.5,1.5l0.8-0.1l-0.4-1.5l0,0l2.3-0.6l-0.3-2.1l0,0
		l3.2-2.2l0,0l3.4,0.8l1.3-2.8l2-1.7l-1.1-5.5l-1.7-2.1l-0.5-2.4l0,0l1-4.2l0,0l3.3-0.6l0.3-3.2l-3.6-0.4l0,0l-2.2-2.7l-0.1-1.6l0,0
		l3.6-2.8l-0.8-1l-2.8,1.3l-1.2-1.3l0,0l1.9-1.6l1.6-2.9l1.4-6.1h0.1l1.6,0.7l1-2l-1.9-0.4l0,0l-0.2-1.4l2.2-0.9v-1.9h-3l0,0
		l-0.1-1.3l2.1-0.9l3.9-3.1l-0.1-2.9l2-0.4l0.7-1.5l-1.9-0.5l0.7-1l-1-2.1h0.1l2.9-0.7l-0.4-2.8l-3,1.2l0,0l-0.9-1.8l1.8-0.5
		l0.3-1.9l-0.3-5.6l0,0l1.5-2l0.1-2.2l-1.3-0.2l-2.2-1.1l-2.8-0.7l-2.1,1.4l-0.1,4.6H239l0,0l-2.5-3l-3.1-2.5l0,0l-0.4-2.9l-0.7-1.2
		l-2.3,0.6l-1,3.1l0,0l-2.5,0.6l0,0l-4.6-2.6l-0.4-3.3l-3.8,0.2l0,0l-1.9-0.6l-0.9-5.5l-2.8-1.8l-2,1.5l0.7,1.6l-1.6-0.1l1.6,2.9
		l0,0l-1.8,1.2v-0.1l-0.4-1.8l-2.7,0.6l-1.8,2.8l-1.3-0.7l0,0c0,0,0.1-1.4,0.2-2.9c0.1-2,0.1-2.6,0.2-2.8c-0.4-0.1-3.3-0.8-4.8-1.2
		l0,0l0,0l0.4-2.2l-2-4.8l-3.6,0.9l0,0l-1-2.1h0.1l2.6-1l-0.8-3l-1.2-0.2l-0.6,1.4h-1.4l0,0l-0.8-1.6l-1-0.4l-0.3,1.9l-2.4-2.2
		l-2.8,0.1l-1.1,2l-2,1l0,0l-3.8-2l0,0l-0.1-6.8l-2.1,0.1v-0.1l0.3-0.8l-1.3-0.4l-0.6,0.5l0.4,2.9l0,0l-2.6,0.9l0,0l-4.9-2.9
		l-2.6,0.3l1.1,6.1l0,0l-1.6,1.9l0,0l-2.1-0.5l-2.9,1.5l0,0l-4-1l0,0l-0.5-3.2l0,0l1.6-1v-2.1l-3.7-2.3l-3.3,1.6l0,0l-1.9-0.7l0,0
		l-1.5-2.8l0,0l2.2-5.8l-3.8-2.9l0,0v-1.7l-2.6-2.1l-2.7,1.5l-2.4-1.3l-0.1-0.4l-1.5,0.5l-0.4,4.8l-0.9,1.9l0,0l-3.4,0.3l-5.6,5.7
		l-1.8,4l-3.6,11.8l-4.9,6.2l-3.4,2.6v2.6l0,0l-5.5,0.5l0,0l-3.2-1l-4.2,1.6l0,0l-0.6-1.7h-1.7l-2.4,4.9l-3.4,2.5l0,0l-4-3.2
		l-1.9-1.2l-1.2,1.5l2.2,2.4l0,0l0.2,2.3l1.7,2.8l-2,3l-1-1.6l-3.5-3.2l-2.1-0.6l-1.1,3.2l1.4,1.6l0,0l-3,5l0,0L71,154l-0.5,1l5,5.5
		l2.8-1.3v0.1l2.1,5.4l1.8,1.9l3.5-0.7l0,0l1.1,2.2l0,0c-0.6,3.6-1.8,10.3-1.8,10.7c0.2,0.2,3.1,1.8,5,2.9l0,0l0,0l0.5,1.6l0,0
		l-1.4,4.2l-5.3-1.1l-4.7,2.8l-10.4,7.6l0,0l-3.6-0.2l-15.5,12.5l-3.3,1.1l0.2,0.4l-2.8,2.7l2.4,3l5.4,12.1l2.3,7.9l1.7,16.6
		l2.1,12.9l2.3,8.8l13.9,8.3l18.4,12l0,0l1.4,6.2l6.4-15.5L105,269.5z"/>
	<text transform="matrix(1 0 0 1 123.973 160.8125)" class="st1 st2 st3">Lakshmipur</text>
	<g>
		<ellipse class="st4" cx="191.1" cy="201.3" rx="14.4" ry="14.3"/>
		<text transform="matrix(1.014 0 0 1 184.6611 209.1211)" class="st2 st5">3</text>
	</g>
</g>
</svg>
