<?xml version="1.0" encoding="UTF-8"?>
<svg enable-background="new 0 0 1530.7 2138" version="1.1" viewBox="0 0 1530.7 2138" xml:space="preserve" xmlns="http://www.w3.org/2000/svg">
<style type="text/css">
	.st0{display:none;}
	.st1{display:inline;fill:#CA936A;stroke:#FFFF00;stroke-width:3.0012;stroke-opacity:6.274510e-02;}
	.st2{display:inline;fill:#FBFED1;stroke:#FFFF00;stroke-width:3.0012;stroke-opacity:6.274510e-02;}
	
		.st3{display:inline;fill-rule:evenodd;clip-rule:evenodd;fill:#F7D3AA;stroke:#000000;stroke-width:1.25;stroke-linecap:round;stroke-linejoin:round;}
	.st4{display:inline;fill:#9EC7F3;stroke:#FFFF00;stroke-width:5.7786;stroke-opacity:6.274510e-02;}
	.st5{display:inline;fill:#F7D3AA;stroke:#FFFF00;stroke-width:3.6635;stroke-opacity:6.274510e-02;}
	.st6{display:inline;}
	.st7{fill-rule:evenodd;clip-rule:evenodd;fill:#F7D3AA;stroke:#CB9369;stroke-opacity:0;}
	.st8{fill-rule:evenodd;clip-rule:evenodd;fill:#F7D3AA;}
	.st9{display:inline;fill-rule:evenodd;clip-rule:evenodd;fill:#F7D3AA;stroke:#CB9369;stroke-width:0.9878;stroke-opacity:0;}
	.st10{display:inline;fill:#F7D3AA;stroke:#FFFF00;stroke-width:3.2288;stroke-opacity:6.274510e-02;}
	.st11{display:inline;fill:#F7D3AA;stroke:#CB9369;stroke-width:3.0012;stroke-opacity:0;}
	.st12{display:inline;fill:#F7D3AA;stroke:#CB9369;stroke-width:3.458;stroke-opacity:0;}
	.st13{display:inline;fill-rule:evenodd;clip-rule:evenodd;fill:#E7D3BB;}
	.st14{display:inline;fill:#9EC7F3;stroke:#FFFF00;stroke-width:2.9959;stroke-opacity:6.274510e-02;}
	.st15{display:inline;fill:#9EC7F3;stroke:#FFFF00;stroke-width:3.5139;stroke-opacity:6.274510e-02;}
	.st16{display:inline;fill-rule:evenodd;clip-rule:evenodd;fill:#F7D3AA;stroke:#000000;stroke-width:3;}
	.st17{display:inline;fill:none;stroke:#580F0F;stroke-width:3.125;stroke-opacity:0.9922;stroke-dasharray:25,6.25,3.125,6.25;}
	.st18{display:inline;fill-rule:evenodd;clip-rule:evenodd;}
	.st19{font-family:'Arial-BoldMT';}
	.st20{font-size:29.0354px;}
	.st21{fill-rule:evenodd;clip-rule:evenodd;fill:#AAB0C8;stroke:#FFFFFF;stroke-width:0.9638;}
	.st22{fill-rule:evenodd;clip-rule:evenodd;fill:#B5D07B;stroke:#FFFFFF;stroke-width:0.9638;}
	
		.st23{fill-rule:evenodd;clip-rule:evenodd;fill:#B5D07B;stroke:#FFFFFF;stroke-width:0.9638;stroke-linecap:round;stroke-linejoin:round;}
	.st24{fill-rule:evenodd;clip-rule:evenodd;fill:#578E86;stroke:#FFFFFF;stroke-width:0.9638;}
	.st25{fill-rule:evenodd;clip-rule:evenodd;fill:#D8E27A;stroke:#FFFFFF;stroke-width:0.9638;}
	.st26{fill-rule:evenodd;clip-rule:evenodd;fill:#E58F8D;stroke:#FFFFFF;stroke-width:0.9638;}
	.st27{fill-rule:evenodd;clip-rule:evenodd;fill:#CFC27B;stroke:#FFFFFF;stroke-width:0.9638;}
	.st28{fill-rule:evenodd;clip-rule:evenodd;fill:#CFC27B;}
	.st29{fill-rule:evenodd;clip-rule:evenodd;fill:#9DD1AB;stroke:#FFFFFF;stroke-width:0.9638;}
	.st30{fill-rule:evenodd;clip-rule:evenodd;fill:#D1A6C2;stroke:#FFFFFF;stroke-width:0.683;}
	.st31{fill-rule:evenodd;clip-rule:evenodd;fill:#D1A6C2;stroke:#FFFFFF;stroke-width:0.9638;}
	.st32{fill-rule:evenodd;clip-rule:evenodd;fill:#D1A6C2;stroke:#FFFFFF;stroke-width:1.2047;stroke-opacity:0.9934;}
	.st33{stroke:#585858;stroke-width:3.855;stroke-miterlimit:4.3509;}
	.st34{font-size:35.9781px;}
	.st35{fill-rule:evenodd;clip-rule:evenodd;fill:#3F3F3F;}
	.st36{fill:#585858;stroke:#585858;stroke-width:3.0525;stroke-miterlimit:4.4552;}
	.st37{fill:#6A6C69;}
	.st38{font-size:46.2601px;}
	.st39{display:inline;fill:#6A6C69;}
</style>

<g class="st0">
	
		<rect class="st1" x="127.4" y="1645.2" width="88.6" height="137.1">
	</rect>
	
		<rect class="st2" x="504.4" y="403.7" width="67.1" height="124.3">
	</rect>
	
		<rect class="st2" x="910.1" y="575.1" width="162.9" height="307.1">
	</rect>
	
		<rect class="st2" x="430.3" y="1131.9" width="177.8" height="185.9">
	</rect>
	
		<rect class="st3" x="-6.1" y="-11.6" width="1535.4" height="2149.6">
	</rect>
	
		<rect class="st4" x="-12.8" y="1218.1" width="1532.7" height="922.5">
	</rect>
	
		<rect class="st5" x="-13" y="4" width="335.9" height="1655">
	</rect>
	
		<g class="st6">
		<path class="st7" d="m-16.2 1798.6c0.7-9.3 21.8-17.6 28.3-26.3 4.8-6.3 8.2-18.7 10.1-28.3 3.1-15.7 8.1-25.6 8.1-42.4 0-13 3.6-25.1 8.1-36.4 5.3-13.3 17.4-24.5 26.3-36.4 11.2-15 29.3-23 44.4-34.3 17.3-12.9 37.8-28.7 48.5-46.5 16.8-28.1 53.2-23.1 78.8-12.1 2.6 1.1 5.4 1.3 8.1 2 4.1 1 14.9 27.7 16.2 30.3 4.2 8.5 13.8 6.1 24.2 6.1 10 0 10-10.5 8.1-18.2-1.8-7.2 15.6-3.3 22.2 0 4.6 2.3 8.4 16.9 10.1 20.2 3.7 7.4-5.1 12.1-8.1 18.2-3.7 7.5 2 14.1 4 22.2 2.4 9.6 6.7 11.6 4 22.2-2.1 8.3-6.2 14.2-14.1 18.2-10.6 5.3-8.9 9.2-2 16.2 6.2 6.2 3.6 17.9 2 24.2-1.8 7.1-1.3 13.1 0 18.2"/>
		<path class="st8" d="m313.1 1542c10.1 15.2 18.2 21.2 18.2 21.2l7.1 13.1 6.1 13.1-16.2 5.1-4 16.2 1 9.1 8.1 15.2 6.1 13.1-15.2 23.2-4 11.1 8.1 18.2-5.1 21.2 15.2 16.2v24.2l-9.1 12.1-24.2 4-7.1-59.6-11.1-140.4 26.1-36.3z"/>
	</g>
	
		<path class="st9" d="m309.1 1709.7v64.7c0 14.9-23.7-10.7-23.7-28.3 0-26.4-7.9-44.3-7.9-8.1 0 25 0.2 36.6 11.8 48.5 3.7 3.7-36.2 3.3-43.4-4-4-4.1-3.1-53-3.9-56.6-4.4-18.1 4-40.2 0-56.6-7.5-30.7-15.8 8.6-15.8 24.2 0 23.5 3.9 34.4 3.9 56.6 0 20.9 4.4 34.7 0 52.5-5.9 24.1-47.9-6.3-51.3-8.1-24.4-12.5-35.4-8-15.8 12.1 10.6 10.9-32.8-1.3-43.4-12.1-11.6-11.9-2.2-47.6 0-56.6 4.8-19.8 0-47.9 0-68.7 0-3.8-31.5-8-15.8 24.2 9 18.4-2.1 46.6-11.8 56.6-13 13.3 7 30.5 11.8 40.4 11.4 23.3-6.9 39.4-15.8 48.5-17.9 18.4-53.6-16.9-59.1-28.3-6.1-12.4-22.4 16.8-35.5 20.2-17.5 4.5-3.9-32.9-3.9-44.4"/>
	
		<rect class="st10" x="-14" y="1641.6" width="88.3" height="159.1">
	</rect>
	
		<rect class="st11" x="991.6" y="1155.1" width="525.7" height="194.3">
	</rect>
	
		<rect class="st12" x="1420.4" y="1143.9" width="99.5" height="996.7">
	</rect>
	
		<path class="st13" d="m1527.1 1620.9-18.6 7.1-5.7 7.1 4.3 17.1 5.7 22.9 5.7 14.3-11.4 15.7 2.9 17.1-4.3 15.7-1.4 21.4 1.4 27.1 7.1 35.7 1.4 20 4.3 31.4 8.6 15.7 5.7 10-11.4 2.9-14.3 12.9-8.6-1.4-12.9-25.7 1.4-14.3-5.7-4.3-5.7 8.6-20 1.4-12.9-8.6-4.3-12.9-2.9-11.4-11.4-11.4-12.9 22.9-8.6-4.3-7.1 10-5.7 14.3-15.7 1.4v10l7.1 34.3-10 14.3 10 21.4 17.1 20-5.7 14.3 8.6 25.7 5.7 15.7-4.3 7.1 10 17.1v12.9l4.3 12.9 2.9 8.6-5.7 18.6 10 27.1 41.4 5.7 57.1-1.4 14.3-7.1 4.3-88.6-2.9-367.1-11.2-59.9z"/>
	
		<polygon class="st14" points="1029.3 1082.9 755.2 1384.8 266.7 967.4 540.8 665.5">
	</polygon>
	
		<rect class="st15" x="240.4" y="519.7" width="462.3" height="635.2">
	</rect>
	
		<path class="st16" d="m1398.8 2130.5c-1.3-5.3 0.6-7.4-4-12-6.3-6.3 1.1-7 6-7 1.8 0-1.9 18.6-2 19z"/>
</g>
<g class="st0">
	
		<path class="st17" d="m385.4 1775.8-9-14.2 12.6-12.4-7.2-12.4-1.8-19.5h-19.8l-9-24.8-7.2-15.9-3.6-31.9-14.4-28.3 1.8-17.7 19.8-7.1-7.2-14.2-9-17.7-10.8-8.8-9-21.2v-15.9l-1.8-12.4 7.2-12.4-9-23-14.4-19.5 9-15.9-14.4-12.4 10.8-15.9-12.6-21.2 18-31.9-12.6-8.8-9-14.2 1.8-8.8-16.2-14.2 3.6-23 3.6-10.6-7.2-12.4 16.2-14.2 10.8-10.6 18-12.4-7.2-7.1-10.8 7.1-9-8.8-10.8-3.5-21.6-8.8-1.8 10.6h-9l-16.2-7.1-5.4-10.6-7.2-10.6 12.6-14.2 7.2-12.4 1.8-21.2h9l-7.2-14.2-25.2-17.7-10.8-12.4-7.2-10.6h-12.6v-14.2l-10.8-3.5 9-14.2-10.8-5.3 10.8-15.9-7.2-10.6 12.6-8.8-3.6-24.8 5.4-7.1 10.8 8.8 19.8-12.4 12.6-7.1-3.6-15.9-5.4-17.7 7.2-14.2-14.4-10.6-5.4-28.3 5.4-8.8 9-8.8v-15.9l-7.2-15.9-5.4-8.8-10.8 8.8-21.6 1.8-10.8-8.8-7.2 7.1-24.9-21.4-25.2-10.6-21.6-19.5-28.6-8.9-16.2 1.8-9-12.4-19.8-17.7 1.8-8.8-7.2-12.4-12.6-12.4-7.2-15.9 9-7.1 3.6-21.2 12.6-3.5v-7.1l21.6-17.7-1.8-15.9-12.6-8.8 16.2-12.4 10.8 1.8 10.8-5.3v14l10.8 10.6 14.4 8.8 10.8-8.8-9-3.5 5.4-14.2h18l7.2-14.2 3.6-10.6 9-3.5-9-10.6 9-12.4-3.6-14.2 9-7.1-5.4-8.8 12.6-14.2 18 8.8 10.8 5.3 7.2-8.8h16.2l19.8-5.3 21.6 10.6 10.8 3.5 12.6-14.2 21.6 15.9 10.8-1.8v-10.6l7.2-19.5 14.4-5.3 1.8-10.6-25.2-3.5h-9l-3.6-12.4-5.4 7.1-16.5-15.8-5.4-17.7 5.4-15.9-9-12.4v-14.2l-7.2 7.1-7.2-8.8v15.9h-7.2l-12.6 8.8h-14.4l-3.6-8.8-10.8 3.5-5.4-7.1-14.4 3.5-5.4-3.5-14.3-14.1 1.8-8.8-14.4-1.8-7.2-12.4 3.6-3.5v-14.2h-12.6l-12.6-14.2-3.6-8.8-10.8-1.8-5.4-12.4-14.3-5.3v-12.4l-18 12.4-7.2-7.1-9 8.8-7.2-3.5-14.4-15.9 3.6-10.6-7.2-5.3v-17.7l10.8-5.3v-12.4l18-12.4 3.6-10.6-7.2-10.6 7.2-23 12.6-3.5 3.6-12.4h10.8l18-5.3 14.4-10.6-9-10.6 9-17.7h10.8l14.4-15.9 9-8.8 9 7.1 9-3.5-9-10.6-1.9-14.4-5.4-8.8-14.3 3.5-7.2-7.1-9-3.5-7.2 12.4-7.2-3.5-1.8-16 12.6-14.2v-14.1l18-19.5 3.6 19.5v14.2h18l1.8 10.6 10.8-1.8-1.8 10.6h12.6l5.4 8.8 12.6-7.1 3.6 12.4 18 15.9 9-1.8 1.8 19.5 16.2-1.8v17.7h16.2l3.6 8.8-1.8 10.6 18 12.4 1.8-12.4 3.6-14.2 14.4 3.5 10.8 19.5 12.6-5.3 14.4 3.5 5.4-8.8-7.2-8.8-7.2-7.1-10.8 3.5-1.8-8.8 3.6-7.1-5.4-7.1-5.4 5.3-16.2-7.1-5.4-15.9 14.4-12.4 10.8-7.1 7.2 12.4 18 7.1 21.6 3.5 1.8 7.1-10.8 3.5 9 5.3-7.2 5.3 23.4 5.3-3.6 8.8-14.4-1.8v7.1l14.4 15.9 1.8 10.6-3.6 8.8 9 15.9 27 8.8 7.2 12.4-9 3.5 23.4 8.8 10.8 12.4 18 3.5 10.8-17.7 5.4 10.6 7.2 7.1h18l7.2 5.3-1.8 8.8 9 3.5 9-10.6-9-5.3 1.8-12.4 14.4-7.1 10.8-1.8-6-20.5-9 12.4-1.8-14.2-5.4-12.4 14.4-12.4 7.2-15.9 14.4 5.3-3.6 15.9 5.4 10.6 14.4-7.1 7.2 12.4 7.2 10.6 5.4 8.8-9 7.1 14.4 12.4v12.5h14.4l-10.8 10.6 19.8 12.4-7.2 8.8-7.2 3.5-3.6 15.9-5.4 3.5 10.8 23-7.2 3.5-3.6 10.6 9 5.3-3.6 5.3 14.4 12.4-7.2 15.9 5.4 17.7-9 8.8 1.8 28.3-7.2 14.2-1.8 14.2-3.6 8.8 7.2 7.1-1.8 8.8 16.2 12.4 5.4-7.1 18-5.3 16.2 8.8 19.8 12.4 19.8 10.6 28.8 5.3 16.2 7.1 12.6 3.5 18-3.5 3.6 15.9 18-3.5 12.6 3.5s3.6-8.8 19.8-8.8 25.2 0 25.2 0h12.6l10.8-5.3 9 7.1v3.5l30.5-9.2 15.3 7.5 40.7 2.5 25.4-12.5h63.6l20.3-7.5 22.9 17.5 12.7-7.5 22.9 10 20.3 7.5 12.7-7.5 12.7-5 15.3 7.5 15.3 5 10.2-10 15.3-5 30.5 5 33-5h17.8l22.9-2.5 7.6-5 17.8 15 17.8 7.5 10.2 15 20.3 5 12.7-5 2.5 10 30.5 17.5-2.5 15 20.3 5v18l-2.5 15h-30.5l-10.2 5-15.3-2.5-15.3 7.5 10.2 15-17.8 30-7.6 20-7.6 12.5 2.5 15-10.2 12.5-12.7 2.5-5.1 10 2.5 15 10.2 17.5-12.7 10-22.9 7.5-17.8-7.5-7.6 5 10.2 15-10.2-2.5h-10.2l-5.1 12.5 2.5 20-5.1 17.5-12.7 15-10.2-7.5-10.2-10-17.8-7.5-5.1 10 7.6 17.5-10.2 5-12.7-7.5-7.6-12.5-15.3-7.5 2.5 20-5.1 20-17.8 12.5-17.8-5-12.7-5-20.3-7.5-15.3 2.5 10.2 20-5.1 17.5-12.7 7.5-12.7-5s-12.7 5-17.8 15-10.2 20-10.2 20l7.6 15-7.6 7.5-2.5 27.5-15.3-2.5-5.1 12.5 4 5.4 8.1 4 3.1 10.6-5.6 9-10.1 13 25.9 45.5 7.6 27.5 10.2 17.5 5.1 22.5 5.1 12.5v35l10.2 20 7.6 12.5 15.3-2.5-7.6-15-2.5-27.5 2.5-25 17.8 5 20.3 22.5v20l2.5 17.5 5.1 25 10.2 20 15.3-10 5.1 7.5 17.8-10h12.7l20.3-27.5-0.4-3.5 8.1-0.9 3.6-8.8-0.9-11.5-1.8-10.6v-8.8l-6.3-11.5-7.2-12.4 8.1-23.9 16.2-26.5 21.6-15.9 14.4 7.1-0.9-20.4 7.2-10.6-14.4-66.4 9.9-12.4h7.2l16.2 31.8 14.4-2.7 6.3-10.6 11.7-12.4 10.8-8.8h10.8l6.3 9.7 6.3 17.7 4.5-10.6 7.2-12.4 7.2 3.5 4.5 4.4-4.5 5.3-3.6 8.8 3.6 14.2 3.6 10.6 4.5 7.1 1.8 23.9v18.6l13.5 16.8 9 16.8-5.4 8.8 6.3 7.1 4.5 8-1.8 5.3-14.4 10.6 0.9 7.1 0.9 19.5 1.8 19.5 4.5 7.1 6.3 9.7-4.5 27.4-1.8 13.3 6.3 12.4 3.6 6.2 14.4 8 7.2 4.4-4.5 7.1 2.7 21.2 4.5 16.8 14.4 12.4 1.8 19.5 4.5 19.5v6.2l-8.1 4.4 9 19.5 9.9 58.4 0.9 20.4 10.8 38.9v20.4l-8.1-2.7-6.3-4.4 4.5 13.3 10.8 43.4 4.5 20.4 5.4 15.9-9 16.8v18.6l-2.7 13.3-0.9 23.9v18.6l1.8 16.8 6.3 25.7 1.8 12.4 2.7 19.5 0.9 17.7 10.8 19.5 3.6 8-9.9 3.5-15.3 14.2-5.4-2.7-13.5-29.2 2.7-12.4-7.2-4.4-9 8.8-9 0.9-11.7-1.8-8.1-6.2-8.1-25.7-6.3-8.8-5.4-2.7-14.4 22.1-9-4.4-9 10.6-4.5 14.2-11.7 3.5-4.5 8.8 5.4 20.4 2.7 16.2-12.6 13.9 11.7 18.6 11 11.9 7 12-9 13.3 9.9 20.9 4.5 15.4-2.7 11.5 9.2 14.3 2.5 20.2 4.5 9.7 2.7 5.1"/>
</g>
<g class="st0">
	<path class="st18" d="m19.9 236.3z"/>
	<path class="st18" d="m324.9 137.5z"/>
	<path class="st18" d="m483.7 353.9z"/>
	<path class="st18" d="m303.3 630.5z"/>
	<path class="st18" d="m99.9 770.7z"/>
	<path class="st18" d="m266.4 895.8z"/>
	<path class="st18" d="m280.4 887z"/>
	<path class="st18" d="m552.4 1015.9z"/>
	<path class="st18" d="m1058.2 740.6z"/>
	<path class="st18" d="m797.6 1083.5z"/>
	<path class="st18" d="m1288.2 1403.9z"/>
	<path class="st18" d="m1270.4 1388.8z"/>
	<text class="st6 st19 st20" transform="matrix(.9299 0 0 1 729.64 1022.9)">Dhaka</text>
	<text class="st6 st19 st20" transform="matrix(.9299 0 0 1 979.39 1161.6)">Comilla</text>
	<text class="st6 st19 st20" transform="matrix(.9299 0 0 1 730.82 1115.9)">Munshiganj</text>
	<text class="st6 st19 st20" transform="matrix(.9299 0 0 1 703.46 702.56)">Mymensingh</text>
	<text class="st6 st19 st20" transform="matrix(.9299 0 0 1 1283.3 626.21)">Sylhet</text>
	<text class="st6 st19 st20" transform="matrix(.9299 0 0 1 1257.1 1231.8)">Khagrachari</text>
	<text class="st6 st19 st20" transform="matrix(.9299 0 0 1 873.64 1491.3)">Bhola</text>
	<text class="st6 st19 st20" transform="matrix(.9299 0 0 1 652.19 1602.5)">Borguna</text>
	<text class="st6 st19 st20" transform="matrix(.9299 0 0 1 320.77 1391.4)">Shatkhira</text>
	<text class="st6 st19 st20" transform="matrix(.9299 0 0 1 571.07 1275)">Gopalganj</text>
	<text class="st6 st19 st20" transform="matrix(.9299 0 0 1 421.64 1145.3)">Magura</text>
	<text class="st6 st19 st20" transform="matrix(.9299 0 0 1 217.62 1083.7)">Chuadanga</text>
	<text class="st6 st19 st20" transform="matrix(.9299 0 0 1 423.62 925.38)">Pabna</text>
	<text class="st6 st19 st20" transform="matrix(.9299 0 0 1 155.05 763.66)">Rajshahi</text>
	<text class="st6 st19 st20" transform="matrix(.9299 0 0 1 443.05 485.38)">Gaibandha</text>
	<text class="st6 st19 st20" transform="matrix(.9299 0 0 1 369.05 237.09)">Lalmonirhat</text>
	<text class="st6 st19 st20" transform="matrix(.9299 0 0 1 1349.1 1373.7)">Rangamati</text>
	<text class="st6 st19 st20" transform="matrix(.9299 0 0 1 1274.8 1727.4)">Cox's Bazar</text>
	<text class="st6 st19 st20" transform="matrix(.9299 0 0 1 981.05 1336.5)">Noakhali</text>
	<text class="st6 st19 st20" transform="matrix(.9299 0 0 1 877.91 1199.7)">Chandpur</text>
	<text class="st6 st19 st20" transform="matrix(.9299 0 0 1 755.05 1567.7)">Patuakhali</text>
	<text class="st6 st19 st20" transform="matrix(.9299 0 0 1 431.84 1483.9)">Khulna</text>
	<text class="st6 st19 st20" transform="matrix(.9299 0 0 1 629.83 1391)">Pirojpur</text>
	<text class="st6 st19 st20" transform="matrix(.9299 0 0 1 650.04 1239.4)">Madaripur</text>
	<text class="st6 st19 st20" transform="matrix(.9299 0 0 1 326.79 1116.2)">Jhinaidaha</text>
	<text class="st6 st19 st20" transform="matrix(.9299 0 0 1 181.45 1025.3)">Meherpur</text>
	<text class="st6 st19 st20" transform="matrix(.9299 0 0 1 580.57 987.84)">Manikganj</text>
	<text class="st6 st19 st20" transform="matrix(.9299 0 0 1 772.19 902.52)">Gazipur</text>
	<text class="st6 st19 st20" transform="matrix(.9299 0 0 1 932.88 999.03)">Brahmanbaria</text>
	<text class="st6 st19 st20" transform="matrix(.9299 0 0 1 307.11 803.04)">Nator</text>
	<text class="st6 st19 st20" transform="matrix(.9299 0 0 1 1086.5 619.66)">Sunamganj</text>
	<text class="st6 st19 st20" transform="matrix(.9299 0 0 1 568.5 642.87)">Jamalpur</text>
	<text class="st6 st19 st20" transform="matrix(.9299 0 0 1 316.48 552.81)">Jaipurhat</text>
	<text class="st6 st19 st20" transform="matrix(.9299 0 0 1 251.62 260.52)">Nilfamari</text>
	<text class="st6 st19 st20" transform="matrix(.9299 0 0 1 44.46 239.66)">Thakurgaon</text>
	<text class="st6 st19 st20" transform="matrix(.9299 0 0 1 1092.2 812.52)">Habiganj</text>
	<text class="st6 st19 st20" transform="matrix(.9299 0 0 1 94.717 145.03)">Panchagarh</text>
	<text class="st6 st19 st20" transform="matrix(.9299 0 0 1 861.96 643.21)">Netrokona</text>
	<text class="st6 st19 st20" transform="matrix(.9299 0 0 1 597.08 813.46)">Tangail</text>
	<text class="st6 st19 st20" transform="matrix(.9299 0 0 1 1227.9 1528.3)">Chittagong</text>
	<text class="st6 st19 st20" transform="matrix(.9299 0 0 1 761.33 1351.1)">Barisal</text>
	<text class="st6 st19 st20" transform="matrix(.9299 0 0 1 487.04 1248.2)">Narail</text>
	<text class="st6 st19 st20" transform="matrix(.9299 0 0 1 875.61 939.66)">Narsingdi</text>
	<text class="st6 st19 st20" transform="matrix(.9299 0 0 1 469.9 1039.7)">Rajbari</text>
	<text class="st6 st19 st20" transform="matrix(.9299 0 0 1 24.185 685.38)">Nawabganj</text>
	<text class="st6 st19 st20" transform="matrix(.9299 0 0 1 427.04 639.66)">Bogra</text>
	<text class="st6 st19 st20" transform="matrix(.9299 0 0 1 189.9 351.09)">Dinajpur</text>
	<text class="st6 st19 st20" transform="matrix(.9299 0 0 1 501.33 325.38)">Kurigram</text>
	<text class="st6 st19 st20" transform="matrix(.9299 0 0 1 1228.7 767.16)">Maulvibazar</text>
	<text class="st6 st19 st20" transform="matrix(.9299 0 0 1 1405.8 1692.9)">Bandarban</text>
	<text class="st6 st19 st20" transform="matrix(.9299 0 0 1 1093 1298.6)">Feni</text>
	<text class="st6 st19 st20" transform="matrix(.9299 0 0 1 879.53 1310)">Lakshmipur</text>
	<text class="st6 st19 st20" transform="matrix(.9299 0 0 1 694.38 1424.3)">Jhalokati</text>
	<text class="st6 st19 st20" transform="matrix(.9299 0 0 1 528.15 1445.3)">Bagerhat</text>
	<text class="st6 st19 st20" transform="matrix(.9299 0 0 1 350.37 1247.3)">Jessore</text>
	<text class="st6 st19 st20" transform="matrix(.9299 0 0 1 287.92 992.56)">Kushtia</text>
	<text class="st6 st19 st20" transform="matrix(.9299 0 0 1 734.94 1213.4)">Shariatpur</text>
	<text class="st6 st19 st20" transform="matrix(.9299 0 0 1 572.6 1126.1)">Faridpur</text>
	<text class="st6 st19 st20" transform="matrix(.9299 0 0 1 798.99 1053.6)">Narayanganj</text>
	<text class="st6 st19 st20" transform="matrix(.9299 0 0 1 887.43 799.42)">Kishoreganj</text>
	<text class="st6 st19 st20" transform="matrix(.9299 0 0 1 422.96 789.44)">Sirajganj</text>
	<text class="st6 st19 st20" transform="matrix(.9299 0 0 1 188.67 624.3)">Naogaon</text>
	<text class="st6 st19 st20" transform="matrix(.9299 0 0 1 623.59 560.11)">Sherpur</text>
	<text class="st6 st19 st20" transform="matrix(.9299 0 0 1 354.96 350.01)">Rangpur</text>
</g>

	
		
			
			
				<path class="st21" d="m133.4 787.2 3.7-8.5-8.6-10.9 1.3-15.7-7.3-8.5 1.3-9.6 24.5-7.2 14.7-7.2-1.3-9.6 23.2 1.3 3.7-3.7-3.7-6.1-6.2 3.7-8.6-4.8 15.9-8.5 18.4 6.1 1.3 9.6 7.3 2.4 7.3-8.5 6.2 4.8-1.3 13.3 11 4.8 27-14.5-1.3-2.4 13.5 4.8 7.3 6.1 9.8-1.3 8.6 8.5 9.8-3.7v12l1.3 6.1 9.8 4.8h6.2v7.2l-2.4 6.1-13.5 1.3-7.3 6.1h4.9l7.3 7.2-11 8.5 1.3 6.1 1.3 32.6-12.2 8.5-2.4 3.7 6.2 12 9.8-2.4 1.3 7.2 2.4 6.1 3.7 3.7-15.9 6.1-4.9 4.8 6.2 4.8-7.3 3.7 4.9 3.7-4.9 3.7 13.5 2.4 2.4 4.8-9.8 2.4-1.3 4.8h-12.2l-17.2-7.2-11-9.6-4.9-2.4-8.6-2.4v-4.8l9.8-2.4 1.3-25.3-8.6-18.1-9.8-1.3-4.9 7.2-18.4-1.3-11-6.1-8.6 7.2-11.4-6.3-11-10.9-4.9 1.3-1.3-6.1-11-2.4-12.3-6-11.1-15.8z"/>
			
				<path class="st22" d="m266.9 151.6 6.2-6.1 6.2 1.3 6.2 4.8-4.9 13.3 7.3 2.4 6.2 7.2 7.3-1.3-1.3-8.5-6.2-3.7 7.3-8.5 13.5 1.3 6.2 8.5 4.9 6.1 3.7 6.1 2.4-3.7h11l2.4 2.4 7.3-3.7v8.5l1.3 14.5 8.6 6.1 8.6 4.8 2.4 6.1-1.3 7.2-2.4 18.1 3.7 12 2.4 13.3 9.8 8.5 11 7.2 8.6 7.2-3.7 9.6-3.7 8.5-3.7 4.8-7.3-8.5-12.2 10.9 1.3 13.3-9.8-9.6-6.2 12-19.6-4.8-13.5 3.7 4.9 12-6.2 7.2-3.7 6.1-11-1.3-9.8-8.5h-6.2v-13.3l-9.8-2.4v-28.7l-4.9-6.1-4.9-8.5-13.5-3.7 1.3-6.1-3.7-2.4v-9.6l-1.3-3.7 4.9-6.1-3.7 6.1 7.3-10.9 7.3-3.7v-20.5l3.7-7.2v-4.8l-1.3-16.9 3.7-7.2-13.5-14.5 0.4-16.6z"/>
			
				<path class="st23" d="m133.4 99.7-2.4-8.5-2.4-6.1 6.2-8.5 4.9-10.9 4.9-14.5 9.8-14.5 2.4 15.7 1.3 8.5 9.8 9.6 9.8-2.4 2.4 8.5 9.8 2.4 1.3 7.2 9.8 3.7 1.3 4.8 9.8 2.4 6.2-7.2 3.7 9.6 4.9 6.1 7.3 4.8 2.4 4.8 6.2-2.4 3.7 3.7-3.7 8.5 3.7 3.7 4.9 3.7v2.4l9.8-1.3v4.8l2.4 4.8h-15.9l1.3 10.9-11 2.4-1.3 4.8 9.8-1.3 8.6-3.7 8.6-7.2 6.2 4.8-1.3 10.9 4.9 8.5 6.2 8.5-2.4 8.5v22.9l-3.7 9.6 2.4 12-6.2 8.5-8.6 12-9.8-2.4-13.5-1.3-4.9-9.6-6.2-4.8 7.3-13.3-4.9-9.6-6.2-7.2-9.8-3.7-4.9-4.8-3.7-7.2-6.2 2.4s-1.5-1.3-4.9-2.4c-3.4-1.3-8.6-2.4-8.6-2.4l-6.2-2.4-6.2 4.8-9.8-2.4-8.6-3.7-7.3 4.8-1.3 6.1s-4-0.6-8.6-2.4-9.8-4.8-9.8-4.8l-2.4-3.7 8.6-4.8 4.9-6.1-3.7-7.2v-17l13.5-1.3 4.9-4.8 4.9-7.2 11-3.7 2.4-8.5 6.2 9.6 6.2-3.7 4.9-8.5-4.9-6.1-4.9-7.2v-8.5l-8.6-7.2-11 2.4-6.2-9.6-5.9 5.2-7.3-1.3-6.3 10z"/>
			
				<path class="st22" d="m68.5 330.1-6.2-10.9-7.3-9.6 4.9-10.9-12.2-2.4 3.7-19.3 8.6-6-1.3-7.2 4.9-9.6 14.7-9.6 4.9-13.3-11-6.1 6.2-10.9 2.4-10.9 13.5-4.8v-12l18.4 2.4 13.5-3.7 18.4 12 3.7-9.6 12.5-2.6 10.8 3.8 9.8-1.3 24.5 6.1 9.8 10.9 8.6 3.7 12.2 14.5-8.6 12 2.4 8.5-6.2 6.1-2.4 9.6h-8.6l-6.2-9.6-3.7 7.2h-7.3l-3.7 13.3 4.9 4.8-6.2 1.3-7.3 12-2.4 7.2-3.7 7.2 4.9 6.1-7.3 1.3h-4.9v-6.1l-15.9 1.3v9.6h-6.2l-1.3 12 7.3 3.7-4.9 4.8v10.9l6.2 3.7 7.3 6.1-1.3 8.5-8.6 1.3-7.3-7.2-6.2-3.7v-4.8l-8.6-8.5h-7.3l-2.4-8.5-13.5-7.2 1.3-6.1-1.3-3.7-11 3.7-7.3 6.1-6.2-7.2c0.2-0.5-14.5 11.6-14.5 11.6z"/>
			
				<path class="st22" d="m350.2 155.2-3.7-9.6-9.8 7.2-4.9-7.2 7.3-6.1-3.7-6.1-6.2-1.3-3.7 3.7-12.2-6.1-2.4-10.9 12.2-18.1 11-3.7v7.2l3.7 2.4 11 3.7 7.3 7.2 15.9-1.3 3.7 8.5-7.3 1.3 6.2 7.2-6.2 7.2h14.7l4.9 8.5-1.3 3.7h-7.3l-7.3-7.2v10.9l6.2 7.2 9.8 10.9 1.3 7.2-3.7 3.7 11 21.7 19.6 3.7 9.8 9.6 1.3 7.2-4.9 2.4 1.3 2.4 8.6 1.3 9.8 4.8 8.6 9.6 15.9 3.7 7.3-13.3 4.9 1.3 1.3 6.1 6.2 2.4 4.9 4.8 4.9-3.7-2.4 22.9 9.8 1.3 13.5 14.5 2.4-1.3v7.2h11l1.3 3.7-11 14.5-6.2 1.3 1.3 14.5-13.5 9.6-3.7-1.3-1.3-10.9-3.7 1.3-2.4 6.1-9.8-1.3-7.3-2.4-1.3 2.4-24.5-14.5s6.2-7.2 0-8.5-12.2-4.8-12.2-4.8v-8.5l-7.3 1.3-11-8.5-12.2-4.8-7.3-8.5-15.7-5.1-7.5-11.8-6.2-27.8 3.7-18.1v-7.2l-19.6-12 1.3-24.1 9.8-3.7-6.2-8.5-7.8-1.1z"/>
			
				<path class="st22" d="m230.2 240.8-6.2 6.1-2.4 9.6-8.6 2.4-7.3-10.9-2.4 8.5h-8.6l-3.7 13.3 6.2 3.7v3.7l-7.3-1.3-11 24.1 3.7 6.1-2.4 3.7-9.8 1.3-1.3-7.2-3.7 2.4-13.5-2.4 2.4 12-6.2-2.4-1.3 10.9 6.2 3.7-3.7 8.5 1.3 8.5 12.2 9.6v9.6l4.9 3.7-1.3 10.9-4.9 2.4v9.6l7.3 4.8h11v9.6l8.6 6.1 3.7 8.5 14.7 1.3 8.6-2.4 2.4 6.1 11 1.3v4.8l17.2 2.4 4.9-4.8 6.2-3.7s14.7 6.1 11 1.3-3.7-13.3-3.7-13.3l7.3 7.2 7.3-7.2v12l6.2 2.4 4.9 10.9-4.9 12-6.2 3.7 7.3 3.7 1.3 9.6 15.9 15.7 3.7-6.1 3.7 4.8v4.8l30.6 2.4 3.7 4.8-1.2 8.4 13.5 7.2 12.2-2.4 6.2 9.6 17.1-2.4 36.7 8.5 9.8-4.8v-9.1l-9.8-10.9-1.3-10.9-13.4-10.8 2.4-4.8-3.7-2.4h-6.2l-1.3-7.2h-11l-7.2-8.6 3.7-2.4-12.2-7.2-8.6-33.7-4.9-12-18.4-3.7-8.6-19.3-17.2-10.9-2.4-16.9-13.5-3.7-4.9-4.8-7.3-1.3 3.7-13.3h-12.2l-1.3-28.9-9.8-16.9-11-2.4-3.7-9.6v-10.9l-20.8-3.7-8.4-10.6z"/>
			
				<path class="st22" d="m429.9 496.5v-9.6l-15.9-10.9 3.7-6.1-9.8-2.4v-4.8l-12.2-1.3-9.8-8.5 6.2-1.3-15.9-8.5-9.8-44.6-19.6-4.8-8.6-19.3-14.7-8.5-4.9-19.3 12.2-12-3.7-12 13.5-3.7 20.8 3.7 3.7-9.6 12.2 9.6-1.3-14.5 12.2-12 4.9 9.6 14.7-21.7 18.4 12h8.6v8.5l13.5 4.8 4.9 10.9 19.6 12 2.4-4.8 14.7 7.2 3.7 3.7-1.3 3.7 11 2.4 3.7 4.8-11 4.8 9.8 3.7 3.7 4.8v8.5l-3.7 2.4v6.1l7.3 3.7 1.3 3.7-4.9 3.7-9.8 7.2 3.7 6.1-6.2 3.7-3.7-6.1-7.3-2.4-1.3 3.7-9.8-1.3-4.9 6.1 12.2 10.9-1.3 8.5 7.3 4.8-8.6 10.9-8.6 1.3-8.6 9.6-12.2 22.9v2.4l3.7 6.1-6.2 2.4 13.5 9.6-31.5-0.5z"/>
			
				<path class="st22" d="m508.2 369.8v-8.5l-11-9.6 11-1.3-7.3-7.2h-8.6l-3.7-10.9 8.6-7.2v8.5l6.2 4.8 11-9.6 1.3-15.7 15.9-13.3-1.3-4.8-11-1.3v-8.5l-4.9 3.7-12.3-16.9h-9.8l3.7-21.7h17.2l2.4 4.8-1.3 6.1 7.3 7.2 2.4-4.8 6.2-2.4v-6.1l-6.2-1.3-1.3-10.9 13.5-9.6h11v-6.1l-3.7-2.4-1.3-9.6-3.7 1.3-2.4 4.8-2.4 3.7-4.9-2.4 4.9-8.5-4.8-9.6v-6.1h4.9l7.3-8.5 2.4-6.1-1.3-7.2 3.7-3.7h11l7.3 6.1-4.9 4.8-1.3 6.1-1.3 2.4 3.7 7.2 4.9-3.7h13.7l3.7 10.9 12.2 20.5-4.9 2.4v7.2l7.3 2.4 6.2 18.1h12.2l-12.2 10.9 12.2 3.7 8.6 3.7v3.7l-6.2 6.1-11 9.6 1.3 13.3-6.2 8.5 9.8 17-7.3 7.2v7.2l6.2 1.3-2.4 9.6 11 8.5v31.4l-6.2 12-1.3 19.3-2.4 10.9-3.7 3.7-1.3 13.3-6.2-3.7-8.6-4.8v7.2l4.9 3.7-11 8.5-4.9-1.3v-4.8l-2.4 2.4-9.8-1.3v-6.1l4.9-2.4-4.9-1.3v-6.1l3.7-9.6-14.7-3.7 8.6-3.7-4.9-7.2v-4.8l-11-9.6h-8.6l-2.4 6.1-3.7-9.6-14.7-7.2-4.9-13.3-6.2-6.1 0.4-9.7z"/>
			
				<path class="st22" d="m407.8 515.9 20.8 7.2 9.8-4.8 2.4-8.5-9.8-13.3 28.1 1.3-11-10.9 8.6-1.3-6.2-9.6 17.2-26.5 6.2-7.2 6.2 2.4 9.8-13.3-8.6-4.8 1.3-10.9-11-8.5 3.7-6.1 9.8-3.7 9.8 2.4 1.3 9.6 9.8-4.8-6.2-8.5 14.7-8.5 9.8 13.3 8.6 6.1 4.9 10.9 3.7-7.2h7.3l9.8 8.5v4.8l6.2 6.1-12.2 6.1 18.4 3.7-3.7 3.7v10.9l2.4 2.4-3.7 1.3v6.1l9.8 1.3 4.9-4.8v6.1l3.7 2.4v19.3l6.2 13.3 1.3 8.5-8.6 12-6.2-1.3-8.6 7.2-1.3 10.9-8.6 12-7.3 8.5v6.1l3.7 6.1 4.9 1.3-6.2 3.7-2.4 7.2-2.4-4.8-13.5-1.3-11 3.7-2.4 6.1h-6l-2.4-4.8-18.4-3.7-4.9-6.1-3.7-1.3-3.7 4.8-6.2-3.7-3.7-1.3-2.4 4.8-9.8-1.3-3.7-12h-4.9l-3.7-3.7-13.5-1.3-4.9 6.1-7.3-6.1v-3.7l-9.8-13.3h-3.7l-4.9-6.1-2.4-6.1 5.8-13.1z"/>
			
				<path class="st21" d="m345.3 637.7-1.3-21.7 2.4-2.4 1.3-26.6-7.3-7.2h-6.2l-2.4 4.8h-4.9l-4.9-9.6v-6.1l3.7-1.3 1.3-18.1-7.3-1.3 3.7-2.4-4.9-9.6 6.2-6.1-1.3-8.5 2.4-16.9 14.7-4.8 4.9 1.3 11 8.5 13.5-2.4 6.2 8.5 17.2-2.4 13.5 4.8-4.9 9.6 6.2 9.6 6.2 4.8 8.6 12-1.3 3.7 11 7.2v4.8l-7.3 6.1-4.9 2.4 4.9 7.2-7.3 2.4 2.4 4.8-7.3-3.7-6.3 17h-4.9v9.6l3.7 3.7-1.3 4.8-6.2-1.3v-3.7h-13.5l-1.3-8.5-8.6-3.7-1.3 16.9h-3.7l1.3 4.8 7.3 4.8v3.7l-11 7.2-3.7 2.4-6.2-4.8-6.2 7.2v-4.8h-6.2v4.8l-2.4-3.7h-8.6v-7.2l11.3-0.6z"/>
			
				<path class="st21" d="m333.1 647.3v-8.5l12.2-1.3-2.4-21.7 4.9-1.3-1.3-25.3-7.3-12h-2.4l-4.9 6.1-6.2 1.3-6.2-10.9v-4.8h4.9l3.7-19.3h-13.5l7.3-2.4-7.3-9.6 4.9-6.1-9.8-1.3h-4.9l-15.9-9.6-3.7 8.5-8.6 6.1h-2.4l-6.2-7.2-6.2 3.7-14.7-8.5-8.6-2.4-2.4 4.8-23.2-1.3-6.2 12h-6.2v-7.2l-3.7-3.7-3.7 4.8-4.9-6.1h-7.3l-6.2-4.8-2.4 4.8-8.6 3.7-1.3 9.6 9.8 4.8v3.7l-8.6 3.7v16.9l2.4 3.7-6.2-1.3-1.3 10.9 6.2 4.8-4.9 6.1-6.2 3.7v7.1l-6.2 1.3v4.8h8.6l7.3 7.2 1.7 13.2h3.7v-4.8l1.3-4.8h4.9l8.6 8.5v4.8l-8.6 14.5-6.2 2.4-9.8 1.3-1.3 3.7-11-2.4-3.7 7.2 8.6 4.8 4.9-2.4h14.7l-4.9 7.2 6.2 2.4 12.2 1.3 3.7 7.2-6.2 1.3-6.2-2.4h-4.9l-1.3 3.7 8.6 2.4 7.3 3.7 1.3 3.7 6.2 3.7 13.5 3.7v8.5l6.2 2.4 7.3-9.6 6.2 8.5-1.3 13.3 4.9 4.8 1.3-2.4h6.2l7.3-3.7 17.2-12h4.9l1.3 4.8 8.6-1.3 6.2 7.2 2.4-2.4h8.6l7.3 8.5 1.3-2.4 7.3-1.3 3.7 4.8v12l6.2 4.8 6.2 1.3 13.5 1.3v7.2l2.4 2.4h4.9l1.3-3.7v4.8h7.3l2.4 7.2 4.9-6.1 3.7 1.3 8.6-7.2v-12l-3.9-2.7v-8.5l9.8-14.5 3.7-6.1-1.3-10.9 2.4-9.6-6.2 4.8-13.5 1.3 1.3-10.9-8.6-14.5h-2.4l-9.8 9.6-3.7-1.3-11 9.6-1.3-26.5-4.9-2.4 7.6-9.8z"/>
			<path class="st21" d="m186.1 689.5-7.3-6.1-8.6-2.4 1.3-4.8 17.2 3.7-3.7-7.2h-11l-11-4.8 6.2-7.2-11-2.4-4.9 4.8-9.8-4.8 2.4-8.5 9.8 3.7 2.4-4.8 13.5 1.3 3.7-4.8 9.8-15.7-12.2-12-3.7 10.9-7.3 1.3 2.4-12-7.3-8.5-7.3-1.3-3.7 8.5-14.7-1.3-2.4 9.6h-3.7l-1.3 4.8h8.6v6.1l-4.9 7.2-2.4-7.2-6.2 6.1-2.4-6.1-7.3-4.8-3.7 7.2 3.7-12-12.3-8.8 1.3-7.2-8.6-1.3-1.3 3.7h-9.8l-9.8 6.1-1.3 6.1 6.2 6.1 2.4 16.9-22.1 14.4 2.4 9.6-7.3-1.3-3.7 3.7-1.3 9.6-1.3 8.5-1.3 6.1-6.2-1.3-6.2 3.7 3.7 3.7 6.2 4.8-1.3 4.8 13.5 8.5-1.3 7.2 7.3 7.2-3.7 10.9 4.9 9.6 6.2 7.2h8.6l7.3 7.2 4.9 6.1 8.6-1.3 30.6 9.6h12.2v-6.1h-1.3l-6.2-9.6v-16.9l-6.2-7.2v-10.9l14.7-7.2 9.8-1.3 13.5-8.5-1.3-9.6h25.7l2.4-2.4-4.9-3.7-4.9 2.4-8.6-4.8 16.6-10.8z"/>
			<path class="st21" d="m331.8 683.5-1.3-25.3-4.9-3.7 9.8-8.5h7.3l3.7 8.5 1.3-8.5h3.7v7.2l8.6-10.9 6.2 6.1 14.7-12-12.2-12 6.2 2.4 1.3-18.1 7.3 3.7 1.3 7.2 13.5 1.3v4.8h9.8l-1.3-7.2-6.2-3.7v-7.2l6.2 1.3 7.3-19.3 8.6 4.8-3.7-7.4h8.6l-6.2-8.5 12.2-7.2 1.3-8.5-4.9-1.3 4.9-4.8 13.5 2.4 8.6 4.8 2.4 10.9 11 2.4 2.4-6.1 11 6.1 3.7-7.2 9.8 9.6 14.7 2.4 6.2 6.1h4.9l3.7-8.5 20.8-2.4 3.7 6.1 3.7 1.3-3.7 9.6h4.9l2.4 8.5-4.9 7.2 4.9 3.7-2.4 6.1 4.9 7.2 1.3 8.5-6.2 1.3v10.9l9.8 10.9h8.6l3.7 6.1-2.4 3.7h-17.2l-2.4 3.7v7.2h-2.4v8.5l-12.2 16.9-8.6-8.5-6.2 3.7-4.9-4.8v6.1l-4.9 4.8-1.3 9.6 4.9 2.4-2.4 6.1 1.3 2.4 7.3-1.3 7.3 6.1-4.9 6.1 8.6 4.8-4.9 6.1h-7.3l-1.3 4.8-7.3-2.4-4.9-7.2-1.3 6.1h-7.3l-3.7-4.8-9.8 4.8-8.6 1.3-9.8-6.1-24.5 1.3v-6.1l-6.2-8.5h-3.7l-7.3-7.2-9.8-1.3-4.9 3.7 2.4 9.6-1.3 3.7-13.5-10.9v-4.8l4.9-3.7-2.4-6.1-7.3 6.1-3.7-3.7-6.2 13.3-8.6-16.9 6.2-7.2-1.3-18.1-6.2 6.1-12.2-1.3 1.3-6.1-11-18.1-8.6 9.6-3.7-4.8-12.3 10.2z"/>
			<path class="st21" d="m300 899.3v-6.1l12.2-1.3-2.4-6.1-15.9-2.4 4.9-4.8-4.9-2.4 7.3-3.7-4.9-7.2 19.6-7.2-6.2-9.6v-7.1l-12.2 1.3-4.9-12 15.9-10.9-2.4-38.6 12.2-8.5-8.6-8.5h-7.3l11-7.2 12.2 2.4 4.9-9.6-1.3-4.8h8.6l-1.3 6.1 7.3 6.1 9.8 1.3 8.6 1.3 11-7.2 1.3-13.3h-4.9v-10.9l9.8-12 8.6 14.5 4.9-12 4.9 2.4 7.3-7.2 3.7 4.8-7.3 8.5 14.7 10.9 1.3-4.8-4.9-6.1 6.2-6.1 11 2.4 14.6 12.2 3.7 8.5 3.7 3.7-20.8 27.3-12.2 14.5 7.3 3.7 2.4 7.2 6.2 3.7 1.3 22.9-9.8 9.6v6.1l-6.2-1.3-11 21.7-8.6 4.8h-7.4l-3.7 8.5-11 8.5-22.1 4.8-4.9-4.8-3.7-1.3-4.9 8.5v8.5l-14.7-1.3-12.2-3.7-4.9 6.1-10.9-2.8z"/>
			<path class="st21" d="m434.7 823.4v-18.1l-6.2-4.8v-4.8l-8.6-7.2 33.1-39.8-2.4-4.8h22.1l8.6 7.2h8.6l11-6.1 9.8 4.8 2.4-8.5 4.9 9.6 8.6 2.4v-6.1h6.2l6.2-4.8-9.8-6.1 4.9-4.8-8.6-7.2-7.3 1.3-2.4-1.3 6.2-6.1-6.2-3.7 3.7-13.3v-8.5l6.2 6.1 7.3-2.4 7.3 7.2 15.9-16.9-2.4-7.2 2.4-12 14.7 1.3 4.9 6.1 3.7 3.7 2.4-4.8h3.7l6.2 6.1 3.7 1.3 1.3 7.2-7.3 1.3-1.3 3.7 7.3 6.1v18.1l-2.4 9.6h-7.3l6.2 7.2 1.3 8.5-6.2 3.7-1.3 7.2-4.9-1.3-6.2 7.2 6.2 8.5v9.6l-8.6 6.1-3.7 6.1 17.2 18.1-7.3 7.2 1.3 4.8 8.6 6.1 6.2 9.6-2.4 35 3.7 4.8-3.7 3.7v4.8l3.7 1.3 4.9 4.8v3.7l3.7 3.7-1.3 14.5-8.6 16.9-15.9 6.1h-8.6l-9.8-12-14.7-10.9h-11l-15.9-13.3-12.2-2.4-1.3-6.1 6.2-2.4 1.3-8.5-4.9-2.4 3.7-2.4v-4.8l-4.9-6.1-3.7 2.4-11 2.4-3.7-2.4v-8.5l4.9-2.4s0-7.2-4.9-7.2h-6.2l-3.7 6.1h-2.4l-2.4-7.2v-10l-11-7.2-10.2-2.8-17.6-3.6z"/>
			<path class="st21" d="m342.8 901.7v-8.5l4.9-8.5 6.2 6.1 24.5-4.8 12.2-9.6 2.4-9.6 7.3 2.4 11-6.1 7.3-21.7 7.3 3.7 1.3-9.6 9.8-9.6 25.7 6.1 8.6 3.7v12l3.7 7.2 8.6-4.8 7.3 2.4-4.9 3.7v9.6l4.9 3.7h11l4.9-6.1 4.9 8.5-7.3 6.1h6.2v7.2l-7.3 3.7 2.4 8.5 11 1.3 15.9 13.3 11-1.3 15.9 13.3 8.6 12-12.2 2.4v7.2l-4.9 1.3 1.3 10.9 6.2 7.2 9.8-2.4 4.9 14.5h-4.9l-9.8-10.9 3.7 14.5 14.7 2.4 11 7.2-11 3.7-6.2 3.7-14.7-1.3-14.7-6.1-17.2 4.8-11 4.8-29.4-18.1-4.9-12-14.7-15.7h-6.2l4.9 12-6.2 7.2-13.5-2.4-8.6-12-12.2-13.3-4.9-2.4h-17.2l-7.3-4.8h-13.5l-7.3-1.3-9.8 8.5v-6.1l-9.8-3.7-4.9-9.6 2.4-15.7-7.2-8.8z"/>
		
		
			
			
				<path class="st24" d="m551.1 559.2 17.2-18.1-1.3-10.9 8.6-9.6 8.6 1.3 7.3-9.6-1.3-12-6.2-10.9v-20.5l12.2-8.5-6.2-3.7v-8.5l13.5 9.6-3.5 19.2 7.3 7.2-1.3 9.6 8.6 6.1h8.6l6.2-8.5 11 2.4 7.3-1.3v18.5l-2.4 2.4-7.3-4.8-3.7 16.9-7.3 7.2 3.7 8.5 9.8-1.3-1.3 6.1-4.9 6.1-1.3 9.6 11 8.5-1.3 7.2-8.6 4.8 1.3 4.8h-6.2v6.1l6.2 12 1.3 7.2 7.3-1.3 6.2 7.2-2.4 7.2 8.6 3.7 28.1 7.2 2.4 8.5 15.9-13.3 23.2 10.9-1.3 14.5-11 12-8.6-1.3h-19.6l-11 2.4-18.4 21.7-6.2-8.5-2.4-3.7-8.6-3.7v7.2l-9.8 6.1-4.9-3.7-3.7 7.2 3.7 7.2 7.3 4.8-2.4 4.8-3.7-1.3-4.9 10.9h-6.2v8.5l-7.3 2.4v13.3l-6.2 2.4-9.8-1.3v-10.3l-7.3-6.1 9.8-1.3 3.7-25.3-9.8-10.9 7.3-1.3 1.3-8.5-11-7.2-4.9-1.3-2.4 4.8-7.3-8.5h3.7l2.4-6.1-1.3-6.1-8.6 1.3-9.8-10.9-1.3-9.6 6.2-1.3-1.3-10.9-4.9-6.1 1.3-6.1-4.8-4.6 4.9-4.8v-10.1h-8.6l7.3-8.5-6.2-3.7 3.7-8.5-2-13.2z"/>
			
				<path class="st25" d="m594 928.2 9.8-15.7-1.3-14.5-4.9-10.9-7.3-2.4v-4.7l3.7-3.7-3.7-4.8 2.4-14.5 1.3-21.7-17.2-18.1 8.6-10.9-17.2-15.7 11-12 2.4-14.5-8.6-7.2 8.6-6.1 3.7 2.4 6.2-9.6 11 3.7 1.3-6.1 4.9-8.5 3.7-6.1 2.4-6.1 4.9-3.7 6.2-8.5 6.2 1.3v-4.8l-8.6-7.2-1.3-6.1 1.3-6.1 3.7 4.8 12.2-7.2 1.3-7.2 7.3 3.7 9.8 13.3 14.7-21.7 12.2-4.8 7.3 3.7 1.3 10.9h11v20.5l9.8 14.5v6.1l-6.2 8.5-1.3 7.2 8.6 19.3 25.7 15.7-6.2 2.4-3.7 8.5 11 19.3 1.3 8.5-3.7 6.1 8.6 21.7 8.6 3.7 6.2 2.4 2.4 3.7-9.8 4.8v10.9l-7.3 2.4-6.2 4.8-4.9 13.3 1.3 18.1-8.6 1.3-4.9-4.8-1.3 6.1h-3.7l1.3 8.5-13.5 13.3-9.8 6.1h-3.7l-11-7.2-7.3 7.2h-3.7l-7.3-4.8v8.5l-6.2 6.1-2.4-9.6-4.9-2.4-11 12-7.3 2.4-6.2 6.1-3.7-7.2-4.9 8.5h-7.3l-7.3-6.1-2.4 3.7-4.9-7.2-2.5-15.6z"/>
			
				<path class="st25" d="m592.7 929.5-19.6 6.1-12.2 1.3 1.3 12 11 13.3 14.7 13.3 1.3 7.2 4.9 6.1-1.3 12 13.5 18.1 14.7 9.6 14.7 3.7 6.2 7.2h-13.5l9.8 9.6 6.2-3.7 6.2 12 22.1 6.1 7.3-6.1v-13.3l15.9-2.4 11-4.8 28.1 4.8-7.3-20.5 12.2-13.3-24.5-4.8-8.6-10.9-6.2-13.3-8.6-4.8-6.2-15.7-12.2-6.1 9.8-8.5-23.2-1.3-2.2-9.4-6.2-2.4-12.2 12-3.7-2.4-8.6 9.6-3.7-6.1-4.9 10.9-7.3-2.4-6.2-4.8-3.7 4.8-4.9-7.2-3.9-15.5z"/>
			
				<path class="st25" d="m672.3 1063.4 6.2-7.2v-12l20.8-2.4 7.3-4.8 27 6.1-6.2-21.7 12.2-10.9-20.8-6.1-6.2-1.3-12.2-22.9-9.8-4.8-3.7-15.7-13.5-8.5 9.8-7.2-20.8-2.4 1.3-6.1v-7.2l9.8 7.2 11-8.5 14.7 7.2 11-4.8 7.3 12 9.8-4.8 9.8-2.4 3.7 6.1 6.2-18.1 11 16.9-9.8 8.5 8.6 2.4 18.4 2.4 1.3 22.9 9.8-2.4 6.2 6.1h8.6l6.2-4.8h6.2l1.3 9.6v8.5l-2.4 7.2 11 31.3 4.9 4.8-4.9 2.4-20.8 9.6 8.6 14.5-3.7 13.3-11-9.6-3.7 6.1-3.7 15.7-8.6-2.4 4.9-14.5-11-6.1-6.2-7.2-18.4-3.7-7.3 10.9-1.3 6.1-1.3 16.9-6.2 7.2-8.6-4.8-1.3 9.6-3.7 6.1-12.2-6.1-1.3-10.9-3.7-12-9.8-6.1-20.8-7.2z"/>
			<path class="st25" d="m498.8 1074.9 7.8 1.7 0.9 6 5.2 2.6 7.8-4.2-8.7-5.1 3.5-4.2 13 5.1 1.7-5.1 4.3 0.9 2.6 10.2 6.9 0.9 13.9-13.7 2.6 14.5 12.1 1.7 2.6-6.8 3.5 6 7.8 0.9 3.5-6-10.4-5.1v-19.7l8.7 3.4 1.7-6h12.2l0.9-6h2.6l6.9 1.7 2.6 6.8 25.2 5.1 8.7 10.2h6.9l4.3 10.2 26.9 4.2 15.6 11.1 7.8 13.7 0.9 16.2h-6.9l-0.9 12.8-6.9 6 9.5 6-4.3 11.1-5.2 16.2-6.1-2.6-9.5-6-4.3 12-4.3-0.9-0.9-6h-5.2l-6.1-9.3-7.8-0.9 6.1 7.7-6.9 0.9-9.5 6-0.9-9.3h-7.8l-5.2 4.2-4.3-6.8-7.8-0.9-14.7 14.5-19.9 0.9-1.7 5.1 7.8 4.2-0.9 4.2-2.6 4.2-11.3 9.3h-8.7l-4.3-5.1h-13l-4.3-7.7 8.7-9.3-11.3-2.6-2.6-9.3v-16.1l-6.1-4.2 5.2-5.1 13.9 10.2-5.2-9.3-9.5-14.5 0.9-12h-2.6l-4.3-7.7-6.9-6-20.8-0.9-0.9-3.4 5.2-4.2h6.1l0.9-3.4-9.5-8.5-4.9-14.7z"/>
			<path class="st25" d="m597.5 1289 0.9-5.1-12.1-6.8-6.1-15.3-17.3-17.1 12.1 0.9 6.9-17.1 1.7-9.3-8.7-3.4-10.4 7.7-1.7-1.7 2.6-7.7v-4.2h5.2l15.6-10.2 1.7-7.7-8.7-5.1 1.7-6 16.5 0.9 16.5-13.7 7.8 0.9 6.1 5.1 5.2-4.2 6.1 0.9 1.7 9.3 7.8-5.1 9.5-0.9-5.2-9.3 5.2 0.9 6.9 10.2h4.3l2.6 6.8h3.5l3.5 12.8-4.3 14.5-11.3 6s3.5 7.7 0 7.7-11.3 0-11.3 0l-5.2 18.8 10.4 6 4.3-7.7 6.1-3.4 11.3 6.8 4.3 4.2 9.5-8.5 11.3 6-4.3 3.4-0.9 8.5 11.3 3.4-4.3 1.7v11.1h-9.5l-3.5 7.7-10.4 4.2v7.7l-3.5 0.9v4.2l-6.9 5.1-3.5 13.7-3.5 5.1-0.9 3.4-8.7 1.7h-12.1l-1.7 9.3h-2.6l-9.5-6-13.9 0.9-12.1-6.8-1.7-6 7.8-6.8-13-8.5 0.9-14.8z"/>
			
				<path class="st25" d="m448.2 1000.6v-15.6l-6.2-4.8 7.3-3.7 17.2 1.3 9.8 1.3 6.2 7.2v8.5l2.4 8.5 18.4 10.9-4.9-13.3 9.8-1.3 2.4 6.1 6.2 3.7 17.2-10.9 6.2 3.7-1.3 6.1 6.2 7.2v-9.6l27-1.3 13.5 2.4 8.6 10.9 1.3 13.3-11-8.5-8.6-10.9h-29.4l-1.3 4.8h24.5l12.2 8.5 15.9 12 6.2 4.8 4.9 2.4-6.2 2.4-1.3 6.1h-12.2l-1.3 6.1-8.6-2.4v16.9l9.8 6.1-2.4 6.1h-8.6l-2.4-6.1-2.4 6.1-12.2-1.3-2.4-14.5-14.7 13.2h-6.2l-2.4-10.9h-4.9l-2.4 4.8-12.2-6.1-2.4 4.8 7.3 4.8-7.3 3.7-4.9-1.3v-6.1l-9.8-1.3-4.9-13.3-12.2-8.5-1.3-7.2-17.2-1.3-2.4 3.7-14.7-13.3-2.4-7.2-3.7-7.2 8.6-8.5v-12.1h-0.4z"/>
			<path class="st25" d="m803.7 1271.1-17.3 5.1-10.4 6.8-3.5 8.5-11.9-8.9-9-11.7 5.2-10.2 6.9-10.2-10.3-10.1-8.7-15.3-12.1-8.5-5.2-22.2 15.6-12 12.1-22.2 10.4-15.3 17.3 1.7 15.6 12 6.9 12h26l5.2 12 1.7 12 5.2 18.8-6.9 15.3-10.2 7.7 6.6 10.3-22.5 5.8-6.7 18.6z"/>
			
				<path class="st25" d="m704.1 1124.8 15.9 1.3 9.8 8.5 11 4.8 24.5 7.2-4.9 8.5-17.2 27.8-15.9 10.9 3.7 21.7 14.7 10.9 7.3 16.9 12.2 8.5-13.5 18.1 9.8 8.5 3.7 7.2-6.2 4.8h-13.5l-14.7-3.7 1.3-15.7 1.3-14.5-6.2-2.4-3.7 6.1h-15.9l-9.8-6.1v-4.8l6.2-2.4-11-7.2-9.8 8.5-12.2-9.6h-7.3l-7.3 9.6-11-7.2 7.3-18.1 14.7 1.3-2.4-7.2 11-6.1 3.7-15.7-6.2-10.9 6.2-12 17.2 7.2 6.2-25.3-4.9-9.6 6.2-4.8-0.3-15z"/>
			<path class="st25" d="m824.2 1250.3-9.8 1.4-6.2 11.4 4.9 9.9 13.5-1.4 9.8 11.4 4.9-7-2.4-12.7-4.9-8.5-9.8-4.5z"/>
			<path class="st25" d="m701.7 931.9 19.6-16.9-2.4-9.6h4.9v-7.2l7.3 7.2 7.3-1.3-1.3-20.5 3.7-13.3 17.2-7.2-2.4-10.9 11-4.8-3.7-3.7 7.3-2.4 8.6-1.3 3.7-7.2 7.3 8.5 7.3-1.3 4.9 3.7 3.7-20.5 12.2-1.3 3.7 4.8 14.7 6.1v6.1l9.8 9.6h11l2.4-3.7h9.8l13.5 8.5 7.3 3.7-7.3 4.8 1.3 10.9 4.9 9.6-3.7 8.5-1.3 7.2 7.3 7.2-13.5 2.4-4.9-4.8-3.7 3.7 4.9 2.4 2.4 22.9-6.2 14.5-6.2 1.3 3.7 6.1-7.3 12-9.8 7.2-6.2-4.8-12.2-14.5-1.3 6.1-7.3-1.3-9.8 20.5-6.2-4.8-4.9 3.7-9.8 2.4-7.3-7.2-9.8 2.4v-24.1h-16.8l-9.8-3.7 8.6-9.6-6.2-9.6-3.7-1.3-7.3 13.3-3.7-7.2-9.8 4.8-8.6 4.8-16.9-10.9z"/>
			<path class="st24" d="m685.8 644.9-1.3-8.5-19.6-4.8-17.2-6.1 2.4-7.2-6.2-7.2-6.2 1.3-1.3-7.2-6.2-8.5-3.7-9.6 8.6 1.3v-6.1l7.3-4.8 1.3-6.1-8.6-7.2-2.4-8.5 6.2-7.2 1.3-9.6-9.8 1.3-3.7-7.2 9.8-7.2 2.4-16.9 4.9 6.1 4.9-4.8v-18.1l8.6 7.2 12.2 7.2 6.2 3.7 15.9 6.1 13.5 3.7 18.4 2.4 13.5 6.1h8.6l3.7 6.1v10.9l1.3 13.3-2.4 8.5 14.7 7.2-4.9 8.5-12.2-2.4-8.6 12 7.3 6.1-4.9 7.2 3.7 9.6 8.6 4.8-4.9 2.4-7.3-2.4 1.3 6.1 6.2 4.8-6.2 12-15.9-1.3-9.8-4.8-13.5-6.1-16 13.9z"/>
			<path class="st24" d="m759.3 843.8-11-4.8-9.8-20.5 4.9-4.8v-12l-12.2-18.1 2.4-8.5 8.6-2.4-18.4-9.6-7.3-7.2-9.8-16.9 1.3-7.2 7.3-8.5v-6.1l-11-15.7 1.3-20.5-11-1.3-3.7-9.6 12.2-2.4 11 2.4 11-13.3v-12l6.2-3.7 8.6 2.4 8.6-10.9-8.6-6.1v-7.2l7.3 2.4 7.3-1.3-9.8-4.8-4.9-10.9 4.9-7.2-6.2-6.1 8.6-12 12.2 4.8 4.9-9.6-9.8-3.7-4.9-6.1v-30.2l-1.3-4.8 6.2-1.3 6.2 4.8h11l3.7 7.2 25.7 4.8 12.2-4.8 14.7-6.1 15.9 2.4 6.2-3.7 9.8 4.8 8.6-7.2 6.2 3.7-2.4 6.1-6.2 16.9-1.3 9.6-6.2 4.8 9.8 10.9-1.3 7.3-8.5 1.8-4.9 7.2-2.4 9.6-4.9 1.3-4.9-13.3-3.7 4.8-7.3-2.4-3.7 2.4 9.8 7.2 2.4 9.6-2.4 7.2h2.4l6.2 12h8.6l-1.3 13.3 6.2 4.8-3.7 4.8h8.6l8.6 7.2 12.2 2.4 4.9-3.7 11 3.7-2.4 7.2-6.2-1.3 2.4 8.5 4.9 2.4 2.4 2.4-6.2 7.2-1.3 12 9.8 8.5 8.6 4.8 2.4 15.7 7.3-4.8 1.3 4.8 9.8 6.1 2.4 4.8-7.3 12-8.6 8.5-8.6-3.7-4.9-8.5-7.3 14.5-4.9-9.6-7.3 13.3-9.8 1.3-8.6-7.2h-11l-3.7 9.6 11 8.5 12.2 7.2-1.3 15.7-6.2 4.8-1.3 10.9 6.2 13.3 3.7 7.2-8.6-2.4-11 4.8h-12.2l-9.8-7.2 1.3-7.2-17.2-6.1-1.3-4.8-12.2-1.3-4.9 19.3-4.9-2.4-6.2 2.4-7.3-8.5-3.7 7.2-20.4 4z"/>
			
				<path class="st25" d="m889.1 858.4-13.5-12-3.7-13.3-2.4-7.2-1.3-9.6 8.6-4.8 1.3-15.7-24.5-16.9 3.7-4.8v-6.1l9.8 1.3 9.8 8.5 8.6-1.3 8.6-12 6.2 6.1 4.9-12 9.8 8.5 11-4.8 8.6-12 6.2-9.6 27-4.8-17.2 2.4 13.5-2.4h15.9l8.6 2.4 12.2-8.5 12.2 2.4 4.9 8.5 13.5-8.5 7.3-6.1h13.5l-2.4 9.6 11 12v8.5l-3.7 6.1-1.3 3.7-17.2 9.6 9.8 2.4 2.4-3.7 8.6 2.4 4.9 9.6-1.3 6.1-8.6 4.8 12.2 8.5 2.4 7.2-8.6 1.3-3.7 4.8 6.2 4.8v7.2l-8.6 2.4-14.7 1.3-3.7 6.1 7.3 3.7 2.4 4.8-6.2 3.7-29.4 7.4-3.7 9.6-15.9-1.3-12.2 12v3.7l7.3 8.5 9.8 2.4 2.4 8.5-2.4 6.1-6.2 4.8s7.3 3.7-1.3 6.1-11 3.7-11 3.7l-6.2-6.1-3.7-8.5-11 1.3-7.3-8.5h-9.8l-1.3-9.6 7.3-6.1-14.7-3.7-3.7-9.6-8.6-1.3-6.2-12-7.3-7.2-3.7 1.3-2.4 2.4-9.1 1.5z"/>
			<path class="st24" d="m934.5 744.9-9.8-3.7-1.3-8.5-8.6 3.7-2.4-12-11-6.1-6.2-8.5-1.3-12 8.6-8.5-11-6.1v-7.2l4.9 1.3 4.9-7.2-13.5-4.8-2.4 4.8h-12.2l-8.6-8.5h-11l4.9-6.1-4.9-4.8v-12l-8.6-1.3-4.9-13.3h-3.7l1.3-4.8-1.3-10.9-11-7.2h13.5l2.4-6.1 4.9 14.5h6.2l2.4-10.9 3.7-6.1h6.2l4.9-9.6-11.2-10.4 7.3-3.7-2.4-7.2 4.9-8.5 6.2-14.5 9.8 1.3 3.7 3.7 20.8-13.3 7.3 10.9 31.8 1.3 3.7-3.7 9.8 4.8 15.9-13.3 1.3 6.1-3.7 1.3-1.3 22.9 4.9 4.8-2.5 2.3-7.3 1.3-2.4 6.1 9.7 2.3-4.9 6.1-1.3 12 6.2 10.9v16.9l14.7 3.7 9.8 9.6 23.2 1.3 6.2 9.6v10.9l4.9 9.6 4.9-9.6 6.2-1.3 4.9 8.5-3.7 9.6-8.6 2.4v12l6.2 3.7 7.3 1.3 9.8 3.7 4.9 6.1 3.7 4.8-7.3 8.5-9.8 7.2-13.2 1-20.8 13.3-3.7-6.1-14.7-3.7-11 7.2-8.6-1.3-17.2 1.3h-14.9l-14.6 8.2z"/>
			
				<path class="st25" d="m851.2 974.1 12.2-10.9 4.9-7.2-4.9-8.5h7.3l4.9-13.3v-13.3l-2.4-12-6.2-3.7 4.9-3.7 6.2 7.2 11-2.4h3.7l-7.3-8.5 3.7-15.7-3.7-8.5v-12l4.9-4.8 7.3 1.3 8.6-7.2 11 18.1 8.6 3.7 6.2 9.6 12.2 4.8 1.3 3.7-7.3 3.7 6.2 7.2-8.6 2.4 13.5-1.3 7.3 8.5 11-3.7 2.4 12 7.3 3.7-2.4 3.7-7.3 12 3.7 10.9-6.2 2.4-7.3 19.3-4.9 3.7-2.4 6.1-1.3 2.4-15.9-1.3-8.6 3.7h-7.3v-2.4l-8.6-1.3-3.7 2.4-1.3 15.7-7.3 12-11-9.6-1.3-6.1-2.4 8.5-9.8-2.4-3.7-3.7 7.3-3.7-3.7-8.5-8.6 3.7-2.4 6.1-3.7-7.2 8.6-12-14.7-3.6z"/>
			<path class="st25" d="m809.5 1062.1-11-16.9 28.1-9.6-14.7-35 3.7-8.5v-10.9l8.6-22.9 7.3 2.4 1.3-6.1 14.7 18.1 17.2 7.2-8.6 8.5 2.4 7.2 13.5-8.5 4.9 6.1-8.6 8.5 12.2 3.7 14.7 4.8-1.3 4.8-3.7 10.9-8.6 7.2-2.4 10.9-8.6-2.4h-6.2l-2.4 8.5v12l-15.9 7.2-6.2 6.1-6.2 7.2-9.8-1.3v-7.2l-8.6 6.1-7.3-6.1 1.5-12z"/>
			<path class="st25" d="m718.8 1109 5.2-18.8 10.4 5.1 6.9-8.5v-15.3l8.7-18.8 17.3 5.1 17.3 12-5.2 17.1 10.4 1.7 5.2-18.8 20.8 13.7 17.3 3.4 3.5 8.5 6.9 5.1v12l-1.7 10.2-8.7 13.7-3.5 13.7-12.1-13.7h-22.6l-17.3-5.1h-13.9l-15.6-3.4-29.3-18.9z"/>
			<path class="st25" d="m786.3 1138.1 31.2 6.8-3.5 17.1-27.7-23.9z"/>
			<path class="st25" d="m839.6 1086.5 2.6 5.6 4.3 7.2 2.1 13.2 16.9-7.2 16-4.2-7.3-13.7-7.8-13.2-15.6 0.9-11.2 11.4z"/>
		
		
			
			<path class="st26" d="m1052.1 735.3v-9.6l17.2-14.5-7.3-12-15.9-4.8-8.6-4.8 2.4-10.9 7.3-3.7 3.7-8.5-4.9-8.5-3.7-2.4-8.6 12-4.9-8.5 1.3-9.6-7.3-10.9-20.8-2.4-8.6-10.9-17.2-2.4v-15.7l-4.9-10.9v-13l6.2-6.1-12.2-3.7 2.4-4.8 12.2-1.3-6.2-7.2 2.4-22.9 2.4-6.1 19.6-3.7h13.5l17.2 3.7 33.1-6.1 30.6 15.7 4.9-6.1 14.7 4.8 15.9 9.6h11l4.9-4.8 8.6 2.4 18.4-9.6v9.6l6.2 1.3 3.7 7.2 18.4-4.8 7.3 1.3-2.4 7.2 9.8 8.5 1.3 10.9-6.2 7.2v3.7l13.5 13.3-1.3 4.8-3.7 1.3v3.7l7.3 3.7v9.6l-7.3 14.5v3.7l7.3 9.6-12.2 2.4-6.2 7.2 7.3 15.7-7.3 2.4 7.3 10.9-11 21.7-18.4-2.4-1.3 6.1 3.7 3.7-4.9 3.7-4.9-6.1h-9.8l-15.9-3.7-4.9 4.8 4.9 4.8-8.6 7.2-17.2-13.3-1.3-7.2-9.8-1.3-11 9.6-11 6.1 1.3 9.6-2.4 6.1-7.3-4.8-11 9.6-9.8 2.4-11-13.3z"/>
			<path class="st26" d="m1201.4 713.6 13.5-22.9-8.6-10.9 7.3-1.3-6.2-16.9 8.6-7.2h9.8l-9.8-12 8.6-14.5 1.3-12-9.8-6.1 6.2-6.1-12.2-14.5v-4.8l4.9-4.8v-12l-9.8-8.5 1.3-6.1-7.3-6.1 3.7-6.1h3.7l11 3.7 7.3-8.5 36.7 1.3 22.1-3.7 8.6 7.2 7.3-9.6h19.6l13.5 4.8 11 13.3 4.9-1.3 4.9 3.7 4.9-2.4 8.6 4.8v6.1l6.2 1.3 14.7 7.2 9.8 2.4 3.7-3.7h4.9v9.6l13.5 3.7 12.2 7.2-2.4 7.2 4.9 10.9 11 3.7-4.9 6.1 11 1.3 4.9 7.2-1.3 18.1h-4.9l-4.9-2.4-7.3 7.2-14.7-1.3-20.8-3.7-12.2 3.7-9.8 6.1 8.6 9.6-1.3 8.5-11 20.5h-8.6l-18.4 2.4-4.9-9.6h-6.2l-1.3 8.5-4.9 15.7-12.2 9.6-6.2 2.4-14.7 3.7-6.2-4.8-7.3 4.8-8.6-1.3-3.7-6.1-8.6 4.8-6.2-6.1-7.3 8.5-9.8 13.3-19.8 1.6-3.7-8.5-12.2-1.3 4.9-7.2-9.6-7.4z"/>
			
				<path class="st26" d="m1039.8 852.3 7.3-2.4-4.9-7.2-4.9-2.4 2.4-7.2 14.7 1.3 8.6-3.7v-8.5l-4.9-6.1 8.6-2.4-1.3-7.2-8.6-9.6 4.9-6.1 1.3-8.5-2.4-4.8-6.2-3.7-7.3 3.7-8.6-3.7 17.2-6.1 6.2-16.9 12.2-8.5 8.6-8.5 8.6 9.6 3.7-7.2-3.7-8.5 8.6-12 15.9-4.8h6.2l8.6 7.2 9.8 14.5 6.2-9.6v-3.7l6.2-4.8 4.9 2.4 19.6-2.4 4.9 10.9 6.2-2.4-4.9-6.1v-6.1l15.9 2.4 14.7 3.7-7.3 10.9 12.2 1.3 2.4 6.1-8.6 9.6-8.6-6.1-7.3-1.3-3.7 2.4 7.3 12 7.3 4.8h-7.3l-8.6 6.1-2.4 19.3-2.4 35 7.3 20.5-7.3 20.5-4.9 3.7v3.7l6.2 4.8v4.8l-4.9 2.4v25.3l-15.9 9.6-17.2 2.4-11-8.5h-13.5l-12.2-6.1h-11l-2.4 7.2 7.3 9.6-2.4 8.5-6.2 8.5-3.7 12-18.4-4.8v-8.5l3.7-2.4-2.4-9.6-9.8-20.5 12.2-3.7-9.8-4.8v-14.5l13.5 3.7v-7.2l-11-4.8 17.2-12v-7.2l-11-2.4-11 19.3-9.8-7.2-18.9-7z"/>
			<path class="st26" d="m1185.5 860.8 8.6-22.9-8.6-19.3 6.2-55.5 7.3-4.8 13.5 1.3-9.8-4.8-12.2-14.5 6.2-3.7 8.6 1.3 8.6 8.5 7.3-9.6 18.4 1.3 19.6-24.1 6.2 6.1 7.3-3.7 3.7 6.1 12.2 1.3 4.9-4.8 4.9 4.8 17.2-3.7 17.2-9.6 6.2-25.3h6.2l3.7 9.6 17.2-3.7h12.2l-2.4 8.5-3.7 8.5-8.6 15.7-3.7 21.7-18.4 12-2.4 21.7 6.2 8.5v7.2l-8.6 16.9h-15.9l-24.5-3.7-9.8 2.4 9.8 8.5 2.4 9.6-6.2 2.4-2.4-6.1-1.3-4.8-7.3-1.3-8.6 8.5 4.9 4.8v26.5l-6.2 7.2-2.4 24.1h-8.6l-6.2-13.3-9.8-8.5 4.9-4.8-9.8 2.4h-11l-3.7-7.2-7.3 1.3h1.3v22.9l4.9 7.2-6.2 4.8-6.2-2.4-3.7-6.1-11-7.2-11.3-18.2z"/>
		
		
			
			<path class="st27" d="m914.8 1045.2-14.7-6.1v-3.7l-12.2-9.6 3.7-9.6 11-13.3 1.3-16.9 8.6-4.8 3.7 4.8h11l3.7-3.7 20.8 2.4v-8.5l7.3-2.4 4.9-20.5 9.8-2.4-6.2-10.9 11-15.7 13.5-6.1-1.3-4.8 7.3-7.2-2.4-12-7.3-1.3-7.3-13.3 9.8-12 17.2 2.4 6.2-9.6 20.8-7.2 20.8 6.1 11 7.2 13.5-19.3 9.8 2.4v7.2l-15.9 10.9 9.8 6.1v6.1l-12.2-3.7-1.3 14.5 7.3 4.8-8.6 2.4 6.2 19.3 6.2 8.5v3.7l-4.9 2.4v13.3l-13.5 6.1 4.9 12-9.8 2.4-7.3 14.5 7.3 8.5 1.3 6.1-6.2 4.8-2.4 9.6 4.9 9.6-7.3 9.6-4.9-3.7h-8.6l-6.2 4.8 1.3 14.5 6.2 2.4 3.7-4.8 3.7 2.4v15.7h-4.9l-8.6-7.2-2.4 3.7-9.8-9.6v-9.6h-4.9l-1.3-4.8-9.8-2.4 6.2-4.8-13.5-10.9-19.6-1.3-8.6 7.2h-14.7l-6.2 1.3 2.4 9.6-11 2.4-13.5-9.6-7.3 4.8 1.3 3.7 3.7 3.7-6.5 9.4z"/>
			<path class="st27" d="m871.3 1060-1.3 11.5 7.3 9.3 2.1 5.6 4.7-0.9 6.5-9.8 7.3-12.3-3.5-9 0.4-10.2-7-8.2-7.3 13.8-11.7-3-0.4 9 2.9 4.2z"/>
			
				<path class="st27" d="m889.4 1088.1 10.8-19.7 3.9-6-5.2-8.5 1.7-14.5 13.9 6 6.1-9-3-5.1-0.9-3.9 5.6-3.4 14.3 9.3 10.8-3-1.3-9 6.5-1.7 14.3 0.4 7.8-7.2 18.6 1.3-3-0.9 10.8 6 6.5 5.6-5.2 4.2 9.1 3 1.7 4.2h4.7l-0.9 9.3 9.9 9.3 2.1 4.2-0.4 11.1 3 7.2 9.9 10.2-0.4 6.8 6.1 2.1-3 2.6 0.4 5.1 12.5 9.8 13 41.8 1.1 7.2-1.5 5.2 0.9 4.2 8.7 4.7-3.5 3-0.4 3.9 3 6.4 2.6 3.4-0.9 4.2 1.7 32.9 4.3 5.6 4.7 9.3-1.3 10.7-9.5 5.6-12.1-6.4-10.4 0.4-15.6-2.1-7.8-5.1-7.8-0.4-9.1 5.1-3-2.1h-8.7l-11.3-5.6-5.6-9.8-0.4 0.9-6.9-0.4-4.7-6.8 8.2-2.1 5.2-7.2-0.9-14.9 5.6-9.3-6.5-6-1.3-9.3-7.8-9.3-3.5-7.7-13-9.3-1.7-8.5-9.1-6-3.5-16.7-17.3-4.4-12.5 10.7-4.7-3-4.7 9.8h-5.2l-11.7-6.4v-8.3h-0.4l-5.6-6-8.2-8.1 6.9-3.9-0.4-8.1 4.9-7.6z"/>
			
				<path class="st27" d="m857.3 1276.8-12.2-20.5-4.9-12 6.2-16.9 8.6-14.5 11-12 3.7-12-4.9-9.6v-8.5l-8.6-4.8-8.6-2.4v-8.5l-7.3-3.7 6.2-12 2.4-12 1.3-9.6 12.2-3.7 8.6-3.7 7.3-1.3 13.5 12 1.3 8.5 13.5 6.1 6.2-8.5 4.9 4.8 12.2-15.7 20.8 6.1 2.4 15.7 11 7.2 1.3 10.9 12.2 10.9 11 14.5-1.3 8.5 9.8 8.5-7.3 7.2 1.3 15.7-3.7 8.5h-8.6l-4.9 2.4-7.3-4.8-13.5 1.3-6.2-9.6h-6.2l-7.3 3.7-3.7 12-2.4 8.5-17.2 6.1h-6.2l-12.2 7.2h-2.4l-3.7-7.2h-3.7l-3.7 4.8-1.3 12v6.1l-7.3 8.5-12.3-4.2z"/>
			<path class="st27" d="m867.1 1279.2 3.7 12 15.9 6.1 2.4 9.6 4.9 9.6 15.9 13.3 6.2 22.9 11 25.3 4.9 19.3 22.1 21.7 7.3 13.3 17.2 6.1 19.6-14.5-3.7-16.9-13.5-21.7 1.3-7.2-19.6-28.9-1.3-19.3 12.2-6.1 3.7-14.5v-20.5l-12.2-8.5-14.7-6.1-1.3-4.8 9.8-3.7-4.9-8.5 6.2 1.3 12.2-27.8-7.3-3.7h-12.2l-4.9-9.6-13.5 2.4-7.3 24.1-19.6 6.1-2.4-2.4-15.9 8.5-4.9-7.2h-3.7l-3.7 3.7v22.9l-9.9 3.7z"/>
			<path class="st27" d="m963.9 1327.4 9.8-12 4.9-19.3-9.8-12-17.2-12 2.4-12 14.7-26.5 19.6 7.2 19.6 16.9 19.6-7.2 12.2 2.4 27 7.2 2.4 9.6-2.4 12v9.6l-7.3 21.7 22.1-2.4h12.2l-9.8 14.5v12l4.9 16.9-14.7-7.2-14.7 4.8-27-2.4-14.7-9.6-7.3 9.6s-7.3 7.2-17.2 2.4c-9.8-4.8-26.9-21.8-29.3-24.2z"/>
			<path class="st27" d="m988.4 1380.5h27l12.2 14.5 9.8 16.9-7.3 14.5-17.2 7.2-12.2-2.4-2.4-21.7-9.9-29z"/>
			<path class="st27" d="m1030 1366.1 31.8 2.4 14.7 12-2.4 14.5-22.1-9.6-22-19.3z"/>
			<path class="st27" d="m1074.1 1438.5-24.5-7.2v-31.3l19.6 9.6 7.3 12-2.4 16.9z"/>
			<path class="st27" d="m983.4 1450.5 31.8 2.4 9.8 21.7 2.4 19.3 9.8 12-2.4 26.5-4.9 26.5-17.2 12-14.7 16.9-7.3-2.4 2.4-24.1 2.4-26.5 2.4-24.1-2.4-24.1-12.1-36.1z"/>
			<path class="st27" d="m1089.4 1349.5-6.9-10.2 1.7-10.2 10.4-18.8-12.1 1.7-15.6-3.4-5.2 5.1 3.5-13.7-1.7-12 3.5-10.2-5.2-20.4 19.1 5.1 10.4-8.5 10.4 3.4 6.9-6.8-5.2-15.3-3.5-10.2v-10.2l3.5-13.7 1.7-12 15.6 3.4 10.4 17.1 10.4 20.4 3.5 15.3v13.7l12.1 17.1-1.7 12 13.9 5.1-19.1 1.7 1.7 18.8h-13.9l-10.4 6.8-5.2 15.3-12.1 17.1v12l-6.9-3.4v-8.5l-14-3.6z"/>
			<path class="st27" d="m1077.3 1361.5 15.6 5.1 3.5 12-5.2 1.7-13.9-18.8z"/>
			<path class="st27" d="m1087.7 1395.6 10.4 18.8 6.9 10.2v6.8l-3.5 1.7-3.5 17.1 5.2 18.8 15.6 17.1 10.4 5.1v10.2l1.7 3.4h13.9l8.7-10.2 3.5-10.2v-10.2l-3.5-10.2-27.8-46.1-1.7-10.2-36.3-12.1z"/>
			<path class="st27" d="m1236.7 1547.4-10.4-6.8-3.5-20.4-1.7-18.8v-6.8l-12.1-18.8-8.7-23.9-13.9-12-10.4-15.3-6.9-13.7v-5.1l-6.9-8.5-8.7-6.8-26-18.8 5.2-8.5-12-11.9 1.7-10.2 5.2-20.4 17.3-6.8h6.9l1.7-17.1h13.9l12.1 3.4 6.9-8.5 20.8-5.1 10.4 5.1 3.5 10.2-6.9 12 8.7 12 8.7 17.1 8.7 15.3 6.9 12v-13.7h13.9l6.9 5.1v15.3l12.1 1.7 3.5 17.1 1.7 18.8 5.2 13.7-1.7 12 12.1 8.5 3.5-8.5 1.7-8.5-5.2-6.8 1.7-15.3 13.9-5.1 13.9 15.3 12.1 29 3.5 20.4-12.1 22.2 19.1 13.7-3.5 13.7-1.7 8.5 5.2 20.4 1.7 8.5v8.5l5.2 8.5-3.5 10.2 3.5 17.1 10.4 20.4-5.2 10.2-5.2 6.8 5.2 12-12.1 3.4-10.4-3.4 3.5-10.2h-15.6l-10.4 10.2-19.1 3.4-10.4 10.2-17.3 10.2-3.5-13.7 8.7-12-13.9-12v-15.3l-10.4-13.7-3.5-23.9-8.7-8.5-5.3-27.3z"/>
			
				<path class="st27" d="m1282.3 1387.8 17.2-21.7v-16.9l7.3-24.1 34.3-24.1-9.8-45.9 24.5-12-4.9-21.7-12.2-31.3 4.9-19.3-17.2-16.9 24.5-28.9-29.4-65.1-14.7 2.4-17.2-28.9h-7.3l-9.8 9.6 9.8 41 4.9 26.5-7.3 9.6v14.5l-14.7-4.8-17.2 14.5-17.2 28.9-7.3 21.7 12.2 21.7 2.1 30.6-3 7.8-9 0.3v7.2l-19.6 24.1 14.7 12-4.9 9.6 2.4 9.6 14.7 31.3 14.7 19.3 2.4-9.6 17.2 2.4 2.4 14.5 12.5 12.1z"/>
			<path class="st27" d="m1368.1 1674.8-9.8 12-17.2-7.2-4.9-9.6-14.7-21.7 7.3-9.6h12.2l4.9 9.6 17.2 2.4v-9.6l7.3-19.3-7.3-12-4.9-24.1-2.4-12-4.9-24.1-4.9-16.9 4.9-24.1 14.7 4.8 14.7-7.2h24.5l14.7 9.6 22.1 12 12.2 26.5 12.2 33.7-4.9 9.6 14.7 31.3 14.7 41 2.4 12-2.4 26.5v16.9l-2.4 19.3 2.4 24.1 7.3 26.5 2.4 26.5 2.4 21.7 12.2 21.7-12.2 4.8-12.2 14.5-7.3-4.8-2.4-12-7.3-16.9 2.4-9.6-7.3-2.4-7.3 4.8-12.2 2.4-14.7-4.8-2.4-9.6-9.8-24.1-7.3-4.8-9.8 12-4.9 9.6-9.8-2.4-12.2 21.7-7.3 2.4-7.3 9.6 2.4 19.3-7.3 16.9-2.4-24.1-7.3-19.3-2.4-9.6 14.7-16.9 9.8 9.6 7.3-14.5-9.8-19.3-9.8-16.9 4.9-9.6-12.2-12-4.9-14.5-7.3-19.3 12.2-12h19.6v-14.5h12.2v-7.2l-15.1-16.8z"/>
			<path class="st27" d="m1284.7 1411.9-4.9-24.1 12.2-14.5 9.8-16.9 2.4-28.9 36.7-26.5-2.4-14.5-4.9-26.5 22.1-16.9-4.9-19.3-7.3-31.3v-16.9l-17.2-24.1 22.1-28.9-9.8-24.1-17.2-43.4 4.9-7.2 19.6-19.3h12.2l7.3 12 4.9 19.3 4.9-16.9 4.9-9.6 12.2 4.8-7.3 16.9 4.9 16.9 4.9 12 4.9 43.4 12.2 16.9 7.3 14.5-4.9 9.6 7.3 7.2 2.4 9.6-17.2 12 2.4 19.3 2.4 16.9 2.4 12 9.8 12-7.3 38.6 9.8 19.3 19.6 9.6-4.9 12 7.3 28.9 14.7 14.5 2.4 19.3 4.9 24.1-7.3 4.8 7.3 24.1 4.9 28.9 4.9 24.1v14.5l9.8 38.6v21.7l-12.2-4.8 7.3 26.5 9.8 38.6 7.3 24.1-9.8 16.9-4.9-12-7.3-21.7-7.3-24.1-12.2-24.1 2.4-7.2-4.9-19.3-9.8-33.7-9.8-9.6-24.5-16.9-31.8-7.2-22.1 9.6-14.7-12-9.8-14.5 7.3-19.3-2.4-19.3-12.2-24.1-14.7-21.7-7.3 2.4-9.8 14.5 7.3 19.3-4.9 9.6-9.8-12-4.4-26.5z"/>
			<path class="st27" d="m1235.7 1653.1 24.5-4.8 4.9 24.1-7.3 21.7-14.7 24.1 2.4-16.9 2.4-33.7-12.2-14.5z"/>
			
				<path class="st27" d="m1270.1 1674.8 27-14.5 12.2-9.6 12.2-2.4 17.2 28.9 19.6 9.6 7.3-2.4 4.9-12 12.2 16.9v7.2h-12.2l-2.4 16.9h-22.1l-9.8 12 9.8 24.1 19.6 19.3-7.3 12 12.2 19.3 9.8 12-4.9 16.9h-9.8l-2.4-9.6-17.2 19.3 4.9 21.7 15.6 17.8 2.4 12-11.8 14 10.7 19.3 18.1 22.6-10.7 13.5 12.1 19.3 5 15.3-4.7 9.5 7 15.6 9.8 24.1-2.4 12-7.3-7.2-9.8-26.5-12.2-14.5-9.8-16.9-7.3-16.9v-14.5l-41.6-48.3-4.9-38.6v-16.9l-7.3-16.9-14.7-19.3-2.4-9.6 12.2-14.5 2.4-16.9 4.9-14.5 4.9-21.7-2.4-26.5-9.8 21.7-12.2-7.2 9.8 16.9 7.3 19.3-12.2 24.1 2.4 2.4-24.5-2.4 2.4 12h-14.7l-2.4-12 7.3-21.7 4.9-19.3-12.2-9.6 17.3-64.6z"/>
			<path class="st28" d="m1281.2 1721.6 24.5-4.8 4.9 24.1-7.3 21.7-14.7 24.1 2.4-16.9 2.4-33.7-12.2-14.5z"/>
		
		
			
			
				<path class="st29" d="m630.7 1567.5-2.4-18.1-7.3-9.6 1.3-18.1 9.8-16.9-2.4-10.9v-16.9l8.6-9.6h4.9l-6.2-6.1-14.7-22.9 17.2 9.6 11 9.6-1.3-10.9-4.9-13.3 6.2-8.5-6.2-16.9v-18l-4.9-4.8-17.2-2.4-1.3-13.3 19.6-7.2v-20.5l-1.3-4.8 2.4-3.7 1.3-8.5 18.4 2.4 6.2-8.5h1.3l8.6 10.9-1.3 12h6.2l7.3 10.9h7.3l2.4 7.2 18.4 3.7 8.6 2.4-1.3 6.1-4.9 1.3v6.1l-8.6 6.1-2.4 9.6-13.5 8.5 7.3 7.2v9.6l-12.2 2.4v24.1l19.6 3.7 2.4 2.4-2.4 6.1-12.2 12-7.3-6.1-6.2 3.7-7.3-3.7 1.3 14.5-7.3 10.9 1.3 9.6 7.3-3.7 2.4 14.5-3.7 7.2-3.7 16.9-8.6 15.7-8.6 1.3-14.7 15.7h-12.3z"/>
			<path class="st29" d="m679.7 1496.3-6.2 4.8-2.4-9.6 8.6-10.9-3.7-18.1 7.3 7.2 8.6-4.8 4.9 4.8 14.7-9.6 1.3-7.2-19.6-6.1-1.3-22.9 12.2-3.7v-8.5l-8.6-9.6 13.5-7.2 1.3-9.6 11-6.1-1.3-3.7 6.2-2.4 1.3-6.1-8.6-4.8 8.6-7.2 4.9-2.4 2.4 7.2h7.3l4.9-2.4 9.8 10.9-3.7 4.8-1.3 6.1 2.4 3.7h7.3l3.7 6.1 20.8 3.7 1.3 4.8-6.2 1.3-3.7 6.1 13.5 2.4 1.3 6.1-11 2.4s2.4 7.2-2.4 7.2c-4.9 0-9.8-4.8-9.8-4.8l-3.7 4.8-7.3-1.3-3.7 7.2-2.4 7.2-8.6 3.7-13.5 8.5-8.6 6.1-1.3 8.5-2.4 14.5-9.8 6.1-4.9 10.9-6.2 7.2-16.9-5.3z"/>
			<path class="st29" d="m721.3 1451.7 15.9-8.5 15.9-7.2 4.9-13.3h7.3l2.4-3.7 14.7 3.7 2.4-8.5h8.6l-1.3-7.2-14.7-2.4 3.7-7.2 6.2 1.3-1.3-6.1-19.6-2.4-4.9-6.1-9.8-1.3 1.3-7.2 4.9-3.7-11-13.3h-8.6l-4.9-6.1-15.9 9.6-19.6-3.7-1.3-4.8h-4.9l-7.3-12h-8.6l1.3-12-7.3-9.6v-14.5l11-12 1.3-6.1 11-6.1 2.4-6.1 11-1.3v-14.5l14.7 1.3 4.9-7.2 6.2 2.4-1.3 28.9 17.2 7.2 9.8-2.4 6.2-3.7 7.3 4.8 3.7-8.5 14.7-7.2 17.2 3.7 17.2 9.6 12.2 10.9 29.4 12.2 11 9.6 7.3 16.9-7.3 8.5-12.2 6.1-20.8 14.5-11 10.9-1.3 8.5-14.7 2.4 8.6 13.3-3.7 9.6 1.3 10.9 4.9 7.2-14.7 1.4-13.5 7.2v8.5l-2.4 8.5-8.6-2.4-7.3-1.3-15.9-7.2-8.6 4.8-1.3 6.1-14.7 6.1-1.3-10.9-18.4 1.1z"/>
			<path class="st29" d="m724 1450.1 17.3 1.7-1.7 8.5 17.3-5.1v-3.4l10.4-6.8 12.1 5.1-3.5 13.7-12.1 1.7-12.1 17.1 5.2 13.7-3.5 10.2-17.3 3.4-6.9 12-1.7 13.7 5.2 6.8 15.6-15.3 8.7-3.4 6.9 3.4 29.5 1.7 1.7 12-17.3 17.1-5.2 10.2 12.1 6.8v10.2l-12.1 20.4-10.4 12v25.5l-17.3 20.4 1.7 18.8-15.6 5.1-13.9 8.5-15.6-3.4-12.1-10.2-22.6-5.1 5.2-8.5-6.9-8.5s-6.9-18.8 1.7-18.8 20.8-6.8 20.8-6.8l-12.1-5.1-12.1-1.7 1.7-17.1 8.7-10.2-5.2-8.5-5.2 12-8.7 1.7-1.7 12 5.2 5.1-8.7 10.2-13.9-22.2-3.5-17.1v-23.9l17.3-8.5 8.7-10.2 6.9 3.4 12.1-25.5 5.2-13.7-3.5-15.3 17.3 1.7 12.1-15.3 10.4-6.8 1.7-13.7 3.7-15.7z"/>
			<path class="st29" d="m779.4 1591.7 3.5-17.1-12.1-6.8 19.1-20.4 5.2-5.1-3.5-13.7-26 1.7-8.7-5.1-24.3 13.7-3.5-8.5 1.7-17.1 22.6-5.1 3.5-10.2-6.9-15.3 13.9-15.3 10.4-1.7 5.2-13.7 15.6 1.7 5.2-15.3 24.3-6.8 1.7-12 12.1 12 10.4 13.7-1.8 16.9 13.9 5.1 8.7 27.3-12.1 6.8v15.3l-10.5 20.3-6.9 18.8-3.5 10.2 3.5 23.9-31.2 10.2-29.5-8.4z"/>
			<path class="st29" d="m784.6 1600.3 17.3 8.5 8.7 8.5 1.7 13.7-5.2 15.3-8.7 12-19.1-8.5-5.2 12-5.2 17.1-12.1 5.1 3.5-18.8 6.9-13.7v-15.5l6.9-13.7 10.5-22z"/>
			<path class="st29" d="m819.2 1608.8 15.6-10.2 5.2 10.2-1.7 12-10.4 12-8.7 8.5v-18.8-13.7z"/>
			<path class="st29" d="m838.3 1637.8-15.6 15.3-5.2 15.3 13.9 6.8 10.4-12-3.5-12v-13.4z"/>
			<path class="st29" d="m843.5 1578.1 15.6-17.1 13.9-20.4 1.7-30.7-1.7-22.2-13.8-37.6v-18.8l-12.1-10.2-12.1-13.7 1.7-15.3 10.3-17.1 15.6-8.5 6.9-8.5 24.3-1.7 5.2 18.8 10.4 37.5 17.3 20.4 12.1 15.3 6.9 10.2-1.7 18.8-5.2 5.1v22.2l-6.8 15.4-3.5 12-3.5 15.3v27.3l-12.1 8.5-6.9 13.7-20.8 6.8-1.7 10.2-10.4 5.1-13.9 8.5s-5.2-1.7-5.2-8.5-5.2-15.3-5.2-15.3l8.7-12-14-13.5z"/>
			<path class="st29" d="m853.9 1649.7 8.7-12 10.4 13.7-6.9 6.8-12.2-8.5z"/>
			<path class="st29" d="m966.5 1497.9-6.9 22.2-8.7 25.5v23.9l17.3 18.8v-44.3l8.7-22.2 1.7-12-12.1-11.9z"/>
			<path class="st29" d="m879.9 1624.2-5.2 13.7h17.3l-12.1-13.7z"/>
		
		
			
			<path class="st30" d="m378.9 1752.3c0-2.4-7.6-2.5-5.8-9.6 0.4-1.5 9.8-0.8 5.8 9.6z"/>
			<path class="st31" d="m440.8 1697.7-2.4 21.7 13.5 8.5 3.7-13.3-14.8-16.9z"/>
			
				<path class="st31" d="m242.4 878.8h13.5l12.2 10.9 17.2 9.6 13.5 1.3 13.5 2.4 4.9-8.5 9.8 6.1h15.9l7.3 13.3-2.4 10.9 3.7 10.9 4.9 1.3 6.2 1.3v7.2l11 4.8 3.7 9.6 4.9-6.1 6.2 3.7 7.3 8.5 17.2-1.3-12.2-10.9 14.7-3.7 13.5 9.6-9.8 3.7 1.3 7.2 11 8.5 7.3 4.8 7.3-1.3 4.9 2.4-1.3 10.9-1.3 16.9-8.6 9.6 2.4 6.1h-8.6l-14.7-9.6-3.7-1.3-2.4 7.2h-11l-6.2 8.5-7.3-2.4-9.8 8.5-1.3-10.9h-7.3l1.3-7.2-8.6-2.4-1.3 4.8 6.2 8.5-8.6 2.4-0.7 8.2-9.1 3.9v-15.7l-1.3-10.9-4.9-6.1-4.9 3.7-6.2 8.5-6.2-14.5-9.7-2.6 6.2-7.2-11-2.4-8.6-6.1 4.9-4.8v-4.8l-7.3 1.3-4.9-3.7 8.6-4.8-3.7-9.6-4.9-6.1-8.6 4.8-3.7-12-3.7-4.8h-3.7v9.6l-13.2-14.5h7.3l4.9-2.4-7.3-7.2-6.2 1.3-3.7 2.4-1.3-7.2 8.6-2.4-11-6.1 7.3-3.7-14.7-10.9-3.7-29z"/>
			
				<path class="st31" d="m260.8 945.2 14.7 15.7 1.3-12 7.3 7.2v7.2l3.7 4.8 7.3-7.2 8.6 13.3-11 7.2 7.3 6.1 7.3-2.4 2.4 4.8-8.6 3.7v2.4l-1.3 7.2-6.2-3.7-4.9 7.2 1.3 10.9-11 1.3 0.3 22.9-10.1 10.5-9.4 1.5-6.5 4.8-4.9-1.3-15.9 13.3-2.4 3.7-17.7 0.9 1.8-13-8.6-2.4-2.4-4.8 6.2-3.7 2.4-8.5-6.2-2.4 1.3-13.3 6.2-6.1-8.6-12 6.2 2.4 7.3-7.2v-2.4l-3.7-3.7 1.3-13.3-2.4-2.4 7.3-3.7 6.2 2.4v7.2l4.2-5.3 7.4-0.4 12.8-13.6 8-0.9 2.8-7.2-2.1-9.9 1-5.8z"/>
			
				<path class="st31" d="m227.8 1074.3 20.8-15.7 6.2 1.3 4.9-6.1 10.2-2.2 8.5-10 0.9-22.7 9.7-1.3-2.4-10.7 7.3-6.1 6.2 4.8 2.5-10.9 6.1 6.1 14.2 1.3-8 7.2 9.8 3.7 2.6 5.6 7.2 8.9 2.4-6.1 6.2-6.1 4.9 6.1 1.3 27.4-0.2 16-3.7 13.3-3.2 4.2-7.9 1.8v3.7l4.9 3.7-1.3 6.1-13.5-2.4-7.3 2.4 5.7 1.3 4 8.3-1.3 16.9-6.2 2.4 7.1 4 2.7 5.6-13.2 10.1-11.3 0.4-1.3 11.2h-8.3l-7-5.5-7.7 3.1h-11l-3.7-3.7v-14.7l3.7-10.9 7.3 2.4-1-8 2.9-7.1-3.2-3.2-6.2-1 5.3 5.2-9 6.8-4.9-4.8 1.3-4.8-4.2-3.9-9.3-4.6-15.9-12 3.7-8.5-8.3-8.3z"/>
			
				<path class="st31" d="m266.9 1152.6 14.7 3.7 7.3-4.8 4.9 6.1 9.8 1.3 1.3-13.3 8.6 1.3 15.9-9.6-1.3-6.1-9.8-6.1 4.9-2.4 2.4-16.9-3.7-6.1-6.2-3.7 7.3-3.7 14.7 6.1 1.3-6.1-4.9-6.1-1.3-3.7h7.3l9.8-16.9-1.3-19.3 8.6-3.7 3.7-8.5h6.2v-4.8l-6.2-7.2 1.3-4.8 7.3 3.7v6.1l7.3 2.4 1.3 7.2h4.9l4.9-7.2 8.6 3.7 6.2-8.5h11l3.7-7.2 14.7 10.3 9.8 1.7 1.3 4.8 17.2 14.5 1.3 7.2-2.4 3.7h-3.7l-2.4 4.8 3.7 3.7 1.3 4.8-3.7 1.3v7.2l4.9 2.4-1.3 2.4h-6.1l-6.2 9.6 1.3 13.3-1.3 13.3-3.7 6.1-4.9 4.8-6.2-1.3-7.3 14.5-1.3 8.5 4.9 1.3-4.9 3.7v6.1l-6.2 6.1-4.9-4.8-2.4 3.7 3.7 9.6-8.6 3.7-20.8 3.7-6.2-14.5h-9.8l-4.9-10.9 7.3-4.8-12.2-4.8-4.9-3.7-3.7 3.7 7.3 9.6h-12.1l-9.8 4.8 7.3 7.2 7.3 3.7-9.8 1.3-15.9-4.8-3.7 1.3 7.3 4.8-3.7 8.5-3.7 6.1-1.3 6.1h-20.8l-12.2-6.1v8.5l-12.2-1.3-2.4-6.1-9.8-1.3-6.2-3.7v-6.1l-7.3-4.8v-6.1l2.4-4.8 9.8-2.4-1.3-6.1 8.9-8.9z"/>
			<path class="st31" d="m428.6 1157.4-6.2-3.7v-6.1l8.6-14.5 6.2 1.3 9.8-12v-14.4l-1.3-12 3.7-9.6h8.6l2.4-3.7-6.2-1.3v-8.5h3.7v-4.8l-4.9-4.8 1.3-4.8 6.2 2.4 2.4-4.8-1.3-7.2 1.3-3.7 15.9 1.3 2.4 6.1 12.2 9.6 3.7 12 4.9 6.1v8.5l4.9 6.1 4.9 2.4v4.8h-6.2l-4.9 3.7 1.3 3.7h18.4l9.8 6.1 2.4 8.5h3.7v13.3l8.6 13.3 2.4 7.2-11-7.2-4.9 4.8 6.2 2.4v15.7h-14.7l-6.2 10.9-6.2 2.4-8.6-10.9-4.9 2.4-7.3 9.6-4.9 2.4h-2.4l-6.2-7.2-3.7 1.3-7.3-8.5h-1.3l-2.4 2.4h-6.2l-6.2-4.8-1.3-7.2-7.3 1.3-11.9-10.3z"/>
			
				<path class="st31" d="m317.1 1198.4 9.8-16.9-9.8-8.5h7.3l12.2 6.1h13.5l-15.9-12 6.2-4.8 17.2 1.3-8.6-9.6 3.7-6.1 2.4 4.8 14.7 4.8-6.2 4.8 3.7 9.6 11 1.3 4.9 14.5 14.7-2.4 15.9-3.7-4.9-9.6 1.3-4.8 6.2 4.8 7.3-6.1-2.4-7.2 4.9-2.4 15.9 10.9 6.2-1.3 1.3 6.1 7.3 7.2 6.2 1.3 3.7-4.8 6.2 8.5 11 3.7-3.7 6.1 6.2 3.7-3.7 3.7 1.3 14.5-3.7 4.8 2.4 10.9-11 1.3v3.7l6.2 2.4 1.3 4.8-3.7 1.3 1.3 8.5 11-7.2h3.7l-1.3 12 7.3 2.4v2.4h11l2.4 3.7-2.4 8.5 7.3 12s6.2 8.5 1.3 8.5h-7.3l-8.6-2.4-3.7-3.7-6.2-14.5-3.7-3.7-8.6 6.1 2.4 8.5-7.3 10.9-15.9 7.2-1.3 6.1 4.9 6.1-1.3 15.7-1.3 4.8-13.5-6.1v-6.1l-4.9-1.3-1.3 3.7-11 9.6-7.3-1.3-11 6.1h-7.3l-8.6-6.1-1.3 1.3-4.9-3.7-1.3-6.1 7.3-1.3-8.6-10.9 7.3 1.3 1.3-3.7-4.9-8.5-9.8-6.1-1.3 7.2h-19l-8-6.1-6.2-3.7 4.9 11.5-4.9 4.8-18.4-2.4-4.9-5.4-6.2 3.7h-4.9l3.7-7.2-14.7-6.1 2.4-21.7 7.3-2.4-3.7-6.1v-6.1l-4.9-3.7 9.8-15.7 12.2-4.8-1.3-9.6 12.2-8.5 4.9 3.7 3.7-7.2-4.9-2.4-1.3-6.1-11 8.5-6.2-3.7-1.7-9.9z"/>
			<path class="st31" d="m483.7 1198.4-6.2-8.5 9.8-1.3 9.8-9.6 3.7-3.7 7.3 10.9 8.6-3.7 6.2-8.5h13.5l3.7 9.6h9.8l1.3 2.4-8.6 9.6 3.7 7.2h13.5l6.2 7.2v4.8l-3.7 6.1 3.7 1.3 8.6-6.1 9.8 1.3-1.3 8.5-3.7 8.5-4.9 9.6h-6.2l-9.8-2.4 15.9 13.3 4.9 7.2 4.9 12 13.5 8.5v6.1l-3.7 1.3-11 2.4-28.1-10.9-9.8 10.9-15.9-8.5-4.9 7.2h-3.7l-13.5-15.7 4.9-7.2-3.7-7.2-12.2-1.3-6.2-6.1 2.4-9.6-4.9-1.3-11 10.9 2.4-9.6-1.3-7.2-7.3-2.4 13.5-2.4-2.4-10.9 4.9-4.8-2.5-17.9z"/>
			
				<path class="st31" d="m342.8 1293.7 8.6 10.9-6.2 7.2-7.3-4.8-9.8 1.3-4.9-4.8-11 6.1 2.4 9.6 7.3 8.5 3.7-6.1 4.9 2.4-1.3 6.1 4.9 2.4-1.3 7.2-7.3 7.2 4.9 4.8-4.9 1.3-1.3 10.9-7.3-3.7 2.4 10.9 9.8 13.3-11 20.5 12.2 8.5-2.4 7.2-2.4 9.6 11 8.5-2.4 10.9 7.3 12 1.3 13.3 4.9 3.7-11 3.7 1.3 7.2 4.9 3.7-4.9 20.5 12.2 1.3 2.4 9.6-9.8-2.4v6.1l7.3 8.5 7.3 1.3v10.9l8.6 7.2 1.3 15.7 11-2.4-8.6 12h-11l-1.3 9.6 3.7 12 11 19.3-3.7 2.4-1.3 28.9 8.6 10.9 1.3 15.7 1.3 8.5 14.7 7.2 11-4.8 7.3 14.5-2.4 6.1 7.3 7.2-4.9 10.9-11 12 14.7 6.1 14.7-3.7-2.4-6.1h8.6l1.3-7.2-6.2-3.7 4.9-7.2v-24.1l-4.9-2.4 10.4-8.5 8-22.9 7.3-7.2-3.7-10.9-9.8-18.1-9.8-19.3-3.7-8.5 8.6-8.5h-20.8l12.2-16.9 6.2-13.3 4.9-30.2-12.2-19.3v-6.1l7.3-6.1-12.2-8.5 1.3-22.9 11-6.1-11-20.5 1.3-27.8 7.3-8.5 6.2 10.9 7.3-9.6-2.4-6.1-7.3-1.3-4.9-4.8 4.9-9.6 2.4 4.8 6.2 2.4 2.4-8.5 6.2-3.7-1.3-6.1-11-18.1-12.2-6.1-6.2-10.9-2.4-3.7-9.8 7.2-8.6 1.3-7.3-7.2-3.7 2.4-4.9-10.9 7.3-2.4-11-10.9 9.8 2.4-4.9-14.5-7.3-4.8-1.3 8.5h-19.6l-17.3-10.5z"/>
			
				<path class="st31" d="m452.5 1380-4.2 1.8-1.8 9.1-6.2-3-2.4-6.6-6.7 10.9 4.9 5.4 8 0.6 3.1 7.2-7.3 9.6-6.2-10.2-8 7.2-0.6 25.9 11.7 22.9-11.7 6.1-1.3 22.4 11.7 9.1-6.7 4.2-0.6 6.6 12.8 20.5-5.5 28.9-17.2 30.7 20.2-0.6-8 8.5 21.4 45.2 4.9 12 8 2.4 0.6 7.8-12.8 2.4-9.8 16.3 5.5 4.8 3.7 10.9h5.5l1.8 9.6 3.7 12 15.3 1.3 9.2-13.9 4.9-3 4.9-9.1-2.4-5.4-3.1-7.2-11.7-7.2 9.2-4.8 16.6-16.9 1.3-13.3 0.6-15h4.9l8.6-31.3 0.6-24.8-5.5-22.9 16.6-16.3 3.7-7.8 5.5-1.3 7.3-12v-15l-11-32-6.2-3v-14.5l-8.6-18.1-2.4-20.5 4.9-11.5 9.8-9.6 6.2-21.1 4.9-4.2 4.2 3 9.2-9.1 4.2-8.5-1.8-9.6-3.7-3.7v-7.8l12.8-0.6 8-6.6 4.9-25.3-28.1-9.6-12.2 10.9-14.1-8.5-6.2 7.8-6.2 3.7-14.1-1.8-5.5-3.7-9.8-18.7-9.2 3.7 3.1 9.6-9.2 10.9-15.3 7.2-1.8 4.8 4.9 5.4-1.3 23.5-14.1-6.6 1.3-6.1-5.5-2.4-0.6 4.2-11 9.6-8-1.3 8.6 14.5 12.2 5.4 9.2 15.7 0.5 9.8z"/>
			<path class="st31" d="m583.7 1293.2 13.9-5.1-1.7 15.3 13.9 5.1-8.7 8.5 1.7 8.5 12.1 8.5 15.6-5.1 10.4 12 1.7 23.9-12.1 5.1-6.9 3.4-1.7 12h17.3l3.5 3.4v18.8l6.9 17.1-5.2 8.5 6.9 22.2-13.9-6.8-10.4-5.1-3.5 3.4 19.1 13.7v5.1h-5.2l-8.7 10.2v22.2l-10.4 17.1-3.5 10.2-1.7 20.4 10.4 15.3 3.5 18.8-13.9 18.8 5.2 12-1.7 22.2 6.9 18.8v10.2h-6.9v10.2l-24.3 15.3-8.7-6.8-20.8-1.7-12.1 3.4 22.6 17.1-5.2 10.2h-19.1l-13.9-3.4 8.7 17.1-12.1 3.4-13.9-5.1 5.2-12-10.4-15.3v-14.2l-1.7-13.7 3.5-27.3-3.5-15.3 8.7-23.9 1.7-29-6.9-25.5 20.8-17.1 12.1-8.5 3.5-27.3-13.9-27.3-5.2-5.1v-12l-8.7-17-3.5-22.2 15.6-25.5 6.9-20.4h10.4l12.1-13.7v-12l-6.9-5.1v-10.2l19.1 1.7 5.2-13.7 1.8-16.7z"/>
			<path class="st32" d="m386.2 1721.3-10.4-1.7-6.9-15.3-10.4-6.8 5.2-22.2-10.4-18.8 5.2-10.2 6.9 15.3 6.9 17.1v12l15.6 12-1.7 18.6z"/>
		
		
			<path class="st33" d="m804.4 656.9c0 7.9-6.4 14.3-14.3 14.3s-14.3-6.4-14.3-14.3 6.4-14.3 14.3-14.3 14.3 6.4 14.3 14.3z"/>
		<text class="st19 st34" transform="matrix(.9299 0 0 1 802.05 707.66)">Mymensingh</text>
	
	
		<path class="st35" d="m496.5 1485.4c0 3.2-2.4 5.9-5.4 5.9s-5.4-2.6-5.4-5.9 2.4-5.9 5.4-5.9c2.9 0 5.4 2.6 5.4 5.9z"/>
	
		<path class="st35" d="m806 1355.3c0 3.2-2.4 5.9-5.4 5.9s-5.4-2.6-5.4-5.9 2.4-5.9 5.4-5.9 5.4 2.6 5.4 5.9z"/>
	
		<path class="st35" d="m1236.8 1481.4c0 3.2-2.4 5.9-5.4 5.9s-5.4-2.6-5.4-5.9 2.4-5.9 5.4-5.9c3 0.1 5.4 2.8 5.4 5.9z"/>
	
		<path class="st35" d="m1307.5 657.6c0 3.2-2.4 5.9-5.4 5.9s-5.4-2.6-5.4-5.9 2.4-5.9 5.4-5.9 5.4 2.6 5.4 5.9z"/>
	
		<path class="st35" d="m227.2 787.3c0 3.2-2.4 5.9-5.4 5.9s-5.4-2.6-5.4-5.9 2.4-5.9 5.4-5.9c3.1 0.1 5.4 2.8 5.4 5.9z"/>
	
		<path class="st36" d="m803.7 1044.5c0 8-6.6 14.6-14.6 14.6s-14.6-6.6-14.6-14.6 6.6-14.6 14.6-14.6 14.6 6.6 14.6 14.6z"/>
	
		<path d="m804.5 1066.5-16-12.4-15.9 12.5 6.8-19-16.9-11.3 20.2 0.7 5.5-19.5 5.6 19.5 20.2-0.8-16.8 11.4 7.3 18.9z"/>
	
		<path class="st33" d="m236.1 789.3c0 7.9-6.4 14.3-14.2 14.3-7.9 0-14.3-6.4-14.3-14.2 0-7.9 6.4-14.3 14.2-14.3 7.9 0 14.2 6.3 14.3 14.2z"/>
	
		<path class="st33" d="m504.8 1484.4c0 7.9-6.4 14.3-14.2 14.3-7.9 0-14.3-6.4-14.3-14.2 0-7.9 6.4-14.3 14.2-14.3 7.9 0 14.2 6.3 14.3 14.2v0z"/>
	
		<path class="st33" d="m1316.7 654.9c0 7.9-6.4 14.3-14.2 14.3-7.9 0-14.3-6.4-14.3-14.2 0-7.9 6.4-14.3 14.2-14.3 7.9 0 14.3 6.3 14.3 14.2z"/>
	
		<path class="st33" d="m1248.6 1480.5c0 7.9-6.4 14.3-14.2 14.3-7.9 0-14.3-6.4-14.3-14.2 0-7.9 6.4-14.3 14.2-14.3 7.9-0.1 14.3 6.3 14.3 14.2z"/>
	
		<path class="st33" d="m814.4 1353.9c0 7.9-6.4 14.3-14.2 14.3-7.9 0-14.3-6.4-14.3-14.2 0-7.9 6.4-14.3 14.2-14.3 7.9 0 14.3 6.3 14.3 14.2z"/>
	
		<path class="st33" d="m450.5 348.3c0 7.9-6.4 14.3-14.3 14.3s-14.3-6.4-14.3-14.3 6.4-14.3 14.3-14.3 14.3 6.5 14.3 14.3z"/>
	<text class="st19 st34" transform="matrix(.9299 0 0 1 1258.8 1518.2)">Chittagong</text>
	<text class="st19 st34" transform="matrix(.9299 0 0 1 675.27 1348.8)">Barisal</text>
	<text class="st19 st34" transform="matrix(.9299 0 0 1 512.62 1471.5)">Khulna</text>
	<text class="st19 st34" transform="matrix(.9299 0 0 1 662.9 1058.7)">Dhaka</text>
	<text class="st19 st34" transform="matrix(.9299 0 0 1 249.57 786.15)">Rajshahi</text>
	<text class="st19 st34" transform="matrix(.9299 0 0 1 1186.6 642.04)">Sylhet</text>
	<text class="st19 st34" transform="matrix(.9299 0 0 1 281.87 380.83)">Rangpur</text>
	
		
			<text class="st37 st19 st38" transform="translate(693.33 916.47)">DHAKA</text>
			<text class="st37 st19 st38" transform="translate(676.95 974.29)">DIVISION</text>
			<text class="st37 st19 st38" transform="translate(1104.6 711.62)">SYLHET</text>
			<text class="st37 st19 st38" transform="translate(1095.2 769.45)">DIVISION</text>
			<text class="st37 st19 st38" transform="translate(248.13 645.74)">RAJSHAHI</text>
			<text class="st37 st19 st38" transform="translate(263.32 703.57)">DIVISION</text>
			<text class="st37 st19 st38" transform="translate(364.04 1292.7)">KHULNA</text>
			<text class="st37 st19 st38" transform="translate(360.51 1350.5)">DIVISION</text>
			<text class="st37 st19 st38" transform="translate(682.68 1456.5)">BARISAL</text>
			<text class="st37 st19 st38" transform="translate(683.83 1514.3)">DIVISION</text>
			<text class="st37 st19 st38" transform="translate(1149.7 1358)">CHITTAGONG</text>
			<text class="st37 st19 st38" transform="translate(1197.2 1415.8)">DIVISION</text>
			<text class="st37 st19 st38" transform="translate(175.8 257.22)">RANGPUR</text>
			<text class="st37 st19 st38" transform="translate(189.8 315.04)">DIVISION</text>
			<text class="st37 st19 st38" transform="translate(608.99 580.23)">MYMENSINGH</text>
			<text class="st37 st19 st38" transform="translate(661.55 638.05)">DIVISION</text>
		
		<g class="st0">
			<text class="st39 st19 st38" transform="translate(750.28 802.74)"></text>
			<text class="st39 st19 st38" transform="translate(1103.7 711.62)"></text>
			<text class="st39 st19 st38" transform="translate(282.15 583.61)"></text>
			<text class="st39 st19 st38" transform="translate(368.55 1292.7)"></text>
			<text class="st39 st19 st38" transform="translate(672.64 1456.5)"></text>
			<text class="st39 st19 st38" transform="translate(1164.9 1358)"></text>
		</g>
	

</svg>
