<?xml version="1.0" encoding="utf-8"?>
<!-- Generator: Adobe Illustrator 25.2.1, SVG Export Plug-In . SVG Version: 6.00 Build 0)  -->
<svg version="1.1" id="Layer_1" xmlns="http://www.w3.org/2000/svg" xmlns:xlink="http://www.w3.org/1999/xlink" x="0px" y="0px"
	 viewBox="0 0 393 405" style="enable-background:new 0 0 393 405;" xml:space="preserve">
<style type="text/css">
	.st0{fill:#6EADEA;stroke:#FFFFFF;stroke-width:0.5;stroke-miterlimit:10;}
	.st1{font-family:'TimesNewRomanPSMT';}
	.st2{font-size:16px;}
	.st3{fill:#FFFFFF;}
	.st4{font-size:24.672px;}
	.st5{fill:#639CE0;stroke:#FFFFFF;stroke-width:0.5;stroke-miterlimit:10;}
	.st6{fill:#83C7FF;stroke:#FFFFFF;stroke-width:0.5;stroke-miterlimit:10;}
</style>
<g id="thakurgaon-1">
	<path class="st0" d="M161.1,156.6l-2.7-9.6l-1-11.7l3.7-8.4l3.7,1l2-4.7c0,0,2.7,0,2.5-0.2s0.4-7.2,0.4-7.2v-6.5l1.6-0.4l-2.5-3.9
		l-1.4-4.5l-1.2-4.5l1-0.6l3.5,1l4.5-2.3l2-6.1l6.5-1l0.8-2.9l2.7-0.6l4.5,0.4v-1.4l-5.1-0.8l0.6-1.6L191,76l5.7-5.1l1.8-2.7
		l-0.8-1.4l-7.2,2l-4.3-0.8l1.4-6.3l-2.7-1.8L181,60l-1.8-2l5.1-5.7l8.2-8.2l0.8-7.4l4.3-2.5l6.1-8.4l2.9-3.1l5.1,0.6l2.5-2l0.8-3.9
		l-0.4-6.1l1.4-1.4l7,1.2l3.1,1.6l1.8,1.8l5.3-1l-1.6-1.8L230.7,8l5.3,0.6l2.3,2l3.5-1.4l5.3,2.7l-1.6,1.6l1.2,0.8l3.1-2.3l4.9,1.4
		l3.9-0.8L263,14v2.7l6,0.3l0.6-1.6l-1.4-1.2l0.2-1.6l1.2-0.6l1.6,1.6l1.6,0.6l0.8-1.4l-2.5-1.4l-0.6-1.8l3.5-0.2l4.3-1L288.8,9
		l4.7-0.6l5.3,2.7l4.3,0.2l1.2,5.1l0.6,6.1l0.8,4.1l2,0.2l2.7-2.3l1.8,0.6l2,2.7l1.4-0.6l0.4-3.9l4.1-2.5l2.3-1.2l0.6,1.2l-0.4,2.9
		l-2,1.6l0.8,1.6l2.7,1h3.1l2.7,1.4l2.5,0.4l0.2,0.8l-2.3,3.5l0.6,2.9l2.5,2.3l1,1.4l-2,1.4l0.8,1.2l2.7-0.6l1.6,1.6l-0.6,2l2.3,2
		l1.4-0.6l3.1,1.8l3.1,4.5l3.7-0.2l5.5-0.4l5.3,3.7l8.8,7.2l0.4,3.1l3.1,3.3l3.9,7.6l2.5,2.3l0.8,3.7l2.5,1.8l-0.2,6.5l1.4,0.2v-1.4
		l1,0.2l0.4,7.4l-1.4,1.8l-1.8,0.8l-3.1,0.6L379,106l1.6,1.8l-3.3,2.7l1,2.5l-3.3,1l-0.8,2.5l-2.9,1l-4.5-5.7l-0.6,0.8l2.3,4.1
		l-2.9-0.6l-4.3,4.1l-1.6,1.2l1.6,2.5l-0.8,4.5l2,3.5l-0.4,1.8l-5.7,1.8l-2.9,0.4l-2.9,4.1l1.6,1.4l-1.8,1.2h-1l-1.2,1.4l-5.1-0.4
		L338,143l-2.5-1l-0.8-3.1l-3.5-0.8l-5.9-1.2l0.6,2.3l6.1,0.6l0.8,1.2l-1.6,0.6h-1.4l-1.8-1l-0.4,1.6l-1.4,0.4l-0.2-1.4l-1.2-0.4
		l-1.2,2.9l2,0.8l-0.8,1.2l-2-0.2l-2.7-1.6l-0.8,2.9l-2,5.9l1.6,1.6l-0.4,3.7l-1-0.4l-1.8,1.6l0.8,2.7l-3.5,0.2l-3.1,0.6l-1,3.5v4.9
		l-0.2,3.5l1.2,1.8l1.2,4.1l2,1.2l1.6,1.6l0.2,4.9l-1.6,3.5l1.4,1.6l-1.2,0.8l-3.3-1.2l-3.9,0.4l-1.6-0.4l-1.4,3.5l-1,1.2l-0.2,2.3
		l-0.8,0.6l-2.3-0.6l-1.6,3.3c0,0,0,2.3-0.2,2.3s-2.5,1.8-2.5,1.8l1.8,1.2l0.2,5.3l-0.6,2.7l-1.6,1l-0.6-1l0.6-1.4l-0.6-1.8l0.4-1.8
		h-2.9l-0.8-1l-1,0.4l-2.7-0.6l-0.6,2.5l3.1,0.6h2.9l-1,2.3l-0.6,1.2l-4.7-1l-2.7,0.6l-3.1-0.8l-4.9,5.5l-1.6,0.6h-2.3l-0.6,1.8
		l-1.8-1l-1.6-1.6h-3.1l-2,0.6l-3.3-1.2l-0.2,4.5l-2.7,3.5l-1.4,1l-1.6-0.8l-0.4-8.8l2-5.3l2.9-3.1L253,207l-1.2,1.4l-1.6-1.8
		l0.2-3.1l0.6-2.5l-2.5,1l-0.2-1.2l3.1-2.3l1.2-0.2l0.6-1.6l3.9-3.7v-2.5l-6.8-0.4l-1.2-1.6l-4.7,3.9l-2.9-2.5l-1-2.7l-1.2-2.9
		l-3.9-0.4l-1.8-1.4l-0.8,1.8l-2.9-0.6l-3.1,0.8l-3.1,0.6l-3.1,5.7l-3.1,1.4l-2.3-1l-1.8,0.2l1.4-4.5l0.2-1.8l-1.2-0.6l-1.6,4.1
		l-1.4-0.8V186l-1.6-0.8l1.2-2.7l2-1.2l-2.5-3.9l-4.7-3.1l-2-1.8l-2.7,1.8l-3.5,5.1l-2.9-4.7l-5.5-1.4l-2-0.6l-0.4-2.9l-3.5,0.6
		l-2.9-1.8l1-3.9l-0.4-1l-2.7-0.2l-0.2-4.7l-4.1-1.4l-2-0.6l-0.4,1.4l-1.6,2.7l-5.9-0.2L161.1,156.6z"/>
	<g>
		<text transform="matrix(1 0 0 1 232.3066 125.5259)" class="st1 st2">Thakurgaon</text>
	</g>
	<g>
		<circle class="st3" cx="271.1" cy="89.9" r="13.4"/>
		<text transform="matrix(1 0 0 1 265.0964 97.2222)" class="st1 st4">1</text>
	</g>
</g>
<g id="thakurgaon-3">
	<path class="st5" d="M290.5,216.6l1.2,6.8l-0.6,4.3l-2.3,1.4l-2.5-0.4l-1.8-2l-2.3,1.6h-2.9l-3.7,0.6l-1.6,1.8l0.4,4.1l1.8,4.3
		l0.4,1.4l-1.2,0.8l-1.6-1.8l-1.8-0.6l-0.4,1.4l1.2,1.4l2.3,1.4l1.8-0.4l1.6-0.8v1.6l-1.2,1v2.3l0.2,2.7c0,0-0.6,0.8-0.2,1.4
		c0.4,0.6,1.4,2.3,1.4,2.3l-1.6,2.3l0.6,1l-0.6,1.2l-2.5-0.6l0.2,2l-2.3,0.6L270,260l-3.1-1l-1.8-3.9l0.2-3.9l-3.3-0.8l-0.2,4.7
		l-0.6,5.5l-1.6,0.8l-2-1l-0.2,1.8l-1.8,0.6l-0.8-2.7l-4.1-0.6l-0.2-3.1l-0.4-3.9l-4.5-0.8l-0.8,1.6l1,2.9L245,257l-1.6-1.2l-1,0.2
		l-1.8-3.1H236l-2.7,0.2l-0.4,1.4l3.1,2.9l2.3,3.3l-0.6,2.7l-2.3,1l-3.5-4.7l-1.4-0.6l-2.3,0.2l-0.2-1l0.6-2l-1.8-1.8l-2.3,1.6
		l-1,4.5l0.2,3.5l-2,5.3l-0.2,4.7l-2,1.8l-3.5-0.2l-2.9-0.8l-1.4,1v4.9l1,2.3l-0.6,3.9l1.6,5.9l1,3.5l-0.2,2.3l-1.8,0.8l-1.2,0.2
		l0.2,1l2,1.4l-1.6,6.1l-0.6,1L209,309l0.8,2l0.2,2.9l1.6,2.3v8.4l1,4.1l-1,3.1l1.8,1.6l-1.2,3.7l0.6,1.6l2.7,2.3l0.2,2.7l-1.4,1.8
		l2.5,3.1l3.1,0.8l0.2,2.7l0.6,4.9h5.7l-0.4-3.1l2.9,0.2l-1.2-3.5l2-0.2l2.9,2.5l0.6,3.1l1.2-0.2l0.6-1l4.9,1.4l-2.5,4.5l0.6,1.8
		l2.7-0.2l2.3-0.6l0.8,3.5l-4.3,1.2l-4.1,1.2l-1.2,2.3l1.2,2.5l4.3-1.4l3.5,0.2l1.6,2.3l-1.2,3.1l-2.5,1.2l0.6,2l2.3,2.5l1.2,2.7
		l-1.4,2.5l-1.6-2h-2.5l-0.8,3.7l-2,3.1l0.2,2.7l2.9,0.8l-1.6,2.3l-2,1.6l-3.3-0.2l-1.8,1.8l-2.5-0.6l-3.3-2h-5.1l-1.4-3.3l3.1-3.9
		l0.4-3.1l-3.3-1.2l-5.3,2.3l-1.6-1.2v-2.5l1.4-3.3l-4.1-1l-3.3-1.4l-5.5-0.2l-1.4-3.9l0.8-3.9l-0.6-1.6l2.9-1.6v-4.1l-2.9,0.8
		l-3.1-0.8l-1.4-2.9l-3.9-0.4l1.2-3.9l-3.3-1l-3.5-0.4l-3.3-0.2l-1.2-2.5l-0.6-2l-3.3,0.6l-3.5-1.4l-3.3-0.6l-3.1-0.6l-1.2-5.3
		l-0.8-5.3l-9-4.5l-2.5-2l-1.6-2.7l-5.1-2l0.6-3.5l-2.3-1.2l-4.3-0.6l-1.8,0.4l-6.1-5.9l2-3.9l0.8-6.8l-1-7l-5.7-3.9l-2-1.4l2.7-1.6
		l1.6-4.9l-1.4-2l0.2-2.9L129,279l-1.8,2.5l-2.7,0.6l-0.8-5.7l-0.2-2.5l2.7-5.3l3.9-1.8l4.3,0.8l3.9-1l2-1.8l3.5,1l3.3-1.4l2.5-5.3
		v-2.7l1.4-0.2l5.3,1.8l1.4,0.6l0.6-1v-1.4l1.2-3.3l1.6,0.4l0.2-2.7l-0.8-1l2.5-3.9l0.6-3.3l1.2-1.4l0.6-2.7l2.3-0.2l1.4,1.2
		l0.6-0.4l-0.2-4.5l-0.8-2.5l1.2-0.4l0.6-1.4l2.9,0.4l1-2.3l-1.4-3.7l-0.8-3.1l1.4-3.7l-2.3-4.7l0.4-2.3l-0.6-0.8l0.6-3.1l2.9-2.7
		l0.8-4.3l-1-1.6l1.2-0.2l0.8-2.5l-0.4-1.2l0.6-8l-1-1.6l0.8-0.8l1.8,1l1.4-0.6l2-0.2l2.5-0.8l0.6-2.3l1.4-0.6l0.4-1.2l-0.4-2.5
		l0.6-4.1l7.4,2l2.9,4.5l3.5-5.1l2.7-1.6l2,1.8l4.7,3.1l2.3,3.7l-1.8,1.6l-1,2.5l1.2,0.8l0.2,1.8l1.4,0.8l1.6-3.9l1.2,0.4l-0.2,1.8
		l-1.4,4.5l1.8-0.2l2.3,0.8l3.1-1.4l3.1-5.5l6.1-1.4l2.9,0.6l0.8-1.6l1.8,1.2l3.7,0.4l2.5,5.3l2.7,2.7l4.9-3.9l1.2,1.6l6.5,0.4
		l0.2,2.5l-3.7,3.7l-0.8,1.6l-1.2,0.2l-3.1,2.3l0.2,1.2l2.5-0.8l-0.6,2l-0.2,3.3l1.6,1.8l1.2-1.4l4.1,4.3l-2.7,3.1l-2,5.3l0.4,8.8
		l1.6,0.8l1.4-1l2.7-3.5l0.2-4.3l3.3,1l2-0.6h3.1l1.6,1.6l1.8,0.8l0.8-1.6h2l1.6-0.6l4.9-5.5l3.1,0.8l2.7-0.6L290.5,216.6z"/>
	<g>
		<text transform="matrix(1 0 0 1 193.8457 238.9375)" class="st1 st2">Pirganj</text>
	</g>
	<g>
		<circle class="st3" cx="175.1" cy="283.9" r="13.4"/>
		<text transform="matrix(1 0 0 1 169.0964 291.2222)" class="st1 st4">3</text>
	</g>
</g>
<g id="thakurgaon-2">
	<path class="st6" d="M202.9,26.9l-4.5-3.1l-4.3,0.8l-5.5-2.7v-3.1l-4.7-1.4l-1.4,2.5l-3.3-0.2l-2.7,2.5l-1.6-0.8l3.7-4.9l-3.9-3.3
		l-2-3.5L167.9,7L162,7.6l-2.5,2l-1-1.6l-1.6,1l-0.6,2l-2.5-0.6l-2.3-0.4l0.8-1.6h-2l-2,2.9l-0.6-1.6l-1.8,1l-0.4,2.7l-2.7,0.2
		l-2.5,4.5l-4.5,1.4l-4.7-2.3l-4.5,1.4l-4.7-1.2l-5.9,2.9l-3.5,1.8l1.8,4.3l-2.9,3.7l-2.5-1l-2.3,0.8l2,1.8l-3.9,2.3l-3.1-0.2
		l-1.2-3.5l-2.7,2.3l2.9,3.7L96.1,39l-5.9,0.6l-1-3.9L87,36.9l0.2,2.5l-2,1v1.4l2.7,1.2l-1,2l-3.3-2.7L79.2,44l-2,2.3l-3.1,3.3
		l2,3.7l-2.3,5.9l-1.6,1.4v2.3l3.5,2.7l-4.5,5.3l1.2,2.5l-1.6,2.9l-4.7,0.4l-1.6,1.8L64.3,81l1,1l-3.5,2.5v3.9l2,2.5l2.3-0.4V93
		l-3.5,1.6L61,98.1l2.7,1.6l3.7-3.5l2-1v3.3l2,2.7l6.5,1.6l0.4,1.8l-0.8,2.7l2.5,1.6l-2.9,3.3l-3.1,0.4l0.8,7l0.2,2.7
		c0,0-1.6,0.2-1.4,0.2s-0.8-1.8-0.8-1.8l-2.5-0.2l-1.4,3.1l3.1,2.7l0.2,2l-2.5,1.2l0.6,3.7l3.1,0.8l2.9-0.4l1.6-0.6l2.7-1.4l1.6-2
		l5.1-1.2l3.1-1l0.4-2.3l-0.8-2l3.3-2l1.2-2.7l1.8,2.7l2.5-2.5l0.4-2.7l3.5-1l1.6,2.9l2.7-0.6l0.2-3.3l2.9,1.8l1.6-0.2l1.4,2.9
		l-2.3,2l0.4,5.3l2,1.8l4.9,2.5l-1,4.3l-3.5,4.1l0.6,2l3.9,3.3l2.3,1.2l2-1.8l4.5,0.2l2.5,1.8l4.1-4.3l2.7,1.6l1.2,1.4l-1.4,4.9
		l-2.7,3.5l0.2,3.5l-1.6,1.8c0,0,2.7,4.3,2.7,4.5s1.8,2.7,1.8,2.7h5.7l4.3-1.2l1.8,1.2l2.7-3.3l-0.4-3.9l4.3-2.3l6.3,1.4l-3.1-10
		l-0.8-11.3l3.7-8.4l3.7,1l2-4.7l2.3-0.2l0.8-7.4v-6.3l1.2-0.6l-2.3-3.7l-2.7-9l0.8-0.4l3.7,0.8l4.7-2.3l2-6.3l6.5-1l0.6-2.7
		l2.7-0.6L192,84l-0.2-1.4l-5.1-0.8l0.6-1.6l4.1-4.5l5.3-4.5l1.6-2.9l-0.6-1.4l-7.4,2l-3.9-0.8l1-6.3l-2.7-1.8l-3.7,0l-1.6-2
		l5.7-6.5l7.4-7.4l0.8-7.4l4.5-2.5L202.9,26.9z"/>
	<path class="st6" d="M45.3,157.4l1-1.6l3.7,2.7l1.6-0.4l1.4-2.7c0,0,0-4.3-0.2-4.5s-2.7-3.5-2.7-3.5l1.2-2l4.1,1.2l0.8-1.4
		l-0.4-1.6l2.9-1.2l4.3,0.8l2.3,0.4l2.7-3.1l5.9,0.4l2.9-0.2l1.6-1.8l0.2-3.3l-1.8-2l3.5-1.6l2.3-2.7l4.9-1l3.1-1l0.2-2.5l-0.6-2
		l3.3-1.6l1.2-2.7l1.8,2.5l2.5-2.5l0.4-2.7l3.5-1l1.6,2.7l2.5-0.4l0.4-3.3l2.9,1.6l1.6-0.2l1.4,3.1l-2.3,2l0.4,5.1l2,1.8l4.9,2.5
		l-1,4.5l-3.5,4.1l0.6,2l3.9,3.3l2.3,1.2l2.3-1.8l4.1,0.2l2.7,1.8l4.1-4.3l2.7,1.6l1.2,1.4l-1.4,4.9l-2.7,3.5l0.2,3.3l-1.4,2
		l2.5,4.5l2,2.7h5.5l4.3-1.2l1.8,1.2l2.7-3.5l-0.4-3.7l4.3-2.3l6.1,1.2l2.5,4.5h5.9l1.6-2.7l0.4-1.6l6.1,2.3l0.2,4.7l2.5,0.2l0.6,1
		l-1,3.9l2.9,1.8l3.5-0.6l0.4,2.9l-0.4,4.1l0.6,2.5l-0.8,1.4l-1.4,0.4l-0.4,2.3L182,184l-2.5,0.2l-1,1l-2-1.2l-0.6,0.8l1,1.6l-0.8,8
		l0.4,1.4l-0.8,2.3h-1.2l1,1.8l-0.8,4.5l-3.1,2.5l-0.4,3.3l0.6,0.6l-0.2,2.3l2,4.9l-1.4,3.5l0.8,3.1l1.4,3.9l-1,2l-2.9-0.4l-0.6,1.4
		l-1.2,0.4l0.8,2.7l0.2,4.5l-0.6,0.2l-1.2-1.2l-2.5,0.4l-0.6,2.5l-1.2,1.4l-0.6,3.3l-2.3,4.1l0.6,0.8l-0.2,2.7l-1.4-0.4l-1.4,3.3
		v1.6l-0.6,1l-1.4-0.8l-3.1-1l-2-0.8l-1.6,0.2v2.9l-2.5,5.1L144,266l-3.5-1.4l-2.3,2l-3.9,1l-4.5-0.8l-3.9,2l-2.5,5.1l0.2,2.9
		l0.8,5.1l2.7-0.2l1.8-2.7l1.2,2.9v3.1l1.2,2l-1.6,5.1l-3.3,1.4h-5.1l-2.3,3.3l-2.5-1.8l-3.3-1l-0.4-1.2l1.4-1.4l-1.4-1.8l2.9-1.2
		l1.4-1l-2-1.4v-2.7l-2-0.2l0.2-1.8l-3.1-3.1l1.2-2.3l-0.2-2.3l-1.6,0.2l-2.5,3.3l-1.8,1.2H102l-2,1l-3.7-0.4l-2.9,2.9l-1.4-1.2
		l1.4-1.2l-3.3-4.3l-1.4-1.2l-1.8-0.2l0.6-6.1l-2.5-0.2l1.2-1.8l-0.8-1.2l-2.3,1.4l-2.3-0.6l2.3-3.9l0.6-2.7l-2.9-2l3.3-3.1
		l-1.6-2.3l0.4-1l1.8,1.4l-1.2-3.5l3.3-1.6l3.5-1.6l1-4.3l-3.3-0.2l-3.5-0.4l-2.3-3.5l-0.4-1.4l1.6-1.4c0,0,0-3.9,0.2-4.1
		c0.2-0.2,1.6-3.1,1.6-3.1l0.6-3.5l-3.7-1l-2.9,0.2l-1.4-0.8l-2.9-4.5l1.2-5.1l2.9-0.4l1.6-2.3l4.1,0.6l2-1.2l2.7-5.5l-2-3.3
		l-3.7-2.7l-1.2-5.1l-1.4-4.7v-2.3L79,182l-2.7,0.8l-0.6,4.1l-2.7,2.5l-3.1-1l-3.5-1.4l-0.2-3.7l1.6-5.9l0.8-4.7l-2.5-3.5l2.3-4.3
		l-2-1.4l-3.3-1.2l-5.5,0.4l-5.3-0.6l-3.3-2L45.3,157.4z"/>
	<path class="st6" d="M45.3,157.4l-3.1,2.9L42,163l2.3,1.8l-1.8,3.1l-1.4,1l-0.4,2.3l1.4,1.2l-2.5,3.1h-1.8l-1.4,0.6l-1,2.5l1.2,1.4
		l2.9,0.6l-0.4,1.6l-2.9,1.4l-2,0.6l-1.8-0.2l-0.4,2.9l2.7,3.5l2.5,2.3v2.7l-2,2.3l-1.6,0.8l-2-0.2l-0.6,0.8l-0.6,3.7l-0.6,2.5
		l-0.6,0.6l-3.3,0.2l-2.7-1.8l-2.9,0.4l-2.9,3.3l-1.4,2.9l-0.2,2.3l-1.8,3.1l-1.4,2.9l1.2,1.2l2-1l0.6,2l1.8,0.2l-0.2,2.7l-1.8,1
		l-1,2.9l2,1.4v1h-1.4v2.5l2,0.8h3.1l2,2.7l-0.2,2.7l-1.2,2l-2.3,2.9l1.2,2l-0.4,0.6l-2,0.2c0,0,0,2.3,0,2.5s0.8,1,0.8,1l2.9-1.4
		l1.2,1.6v2.3l-0.8,3.1l-0.4,1.6c0,0,1.8,1.2,2,0.6s1-3.1,1-3.1l0.8-2.7l2-0.2l1.2,0.2c0,0-0.4,2.9-0.2,3.1c0.2,0.2-1,1.8-1,1.8
		l0.2,2.3l2,2.3l-0.8,2.7l-2,3.7l-2,0.8l-3.7,0.4l-0.2,2l1.2,1.6l3.3-0.2l1,1.8l-1.8,4.3c0,0-2,0-2.3,0c-0.2,0-1.4,1.4-1.4,1.4
		l0.4,2.3l1.8,0.4l2.3,3.5h2l-0.4,1.8l-2,2l1.6,1.8l2.9-0.4l4.3,2.3l-2.5,2.7l-1.4,4.5l0.2,2.5l2.5,0.8l5.1,0.4h7.6l3.1,2.5l1.6,1.6
		c0,0-0.2,3.5-0.2,3.7s-1.8,3.5-1.8,3.5l-0.2,1.4l1.2,0.6l2.3-1.6l1.2,0.2l-1.2,2.5l1,2l4.1-1.4l2.7-3.7l0.6-3.5l3.5-1.6l4.5,3.1
		l1.2-0.8l0.2-2.3l2-3.3l1.6,1l0.8-1l-1-1.4l2-0.4v-2.3l0.8-1.2l5.1-0.4l3.1,4.1l2.7,1.8v3.3c0,0,3.7,2.3,3.9,2.3
		c0.2,0,2.3-0.4,2.3-0.4l1-3.3l0.6-2.3l0.4-1.6l2.7-1.6l2,0.2l2.7,2.5l2.3-2l1.8,2.7l1.8-1l-1.4-2.3c0,0,1.6-2.3,1.8-2.5
		c0.2-0.2,3.3-2.5,3.3-2.5l0.8-1.6l1.6-1.8l-0.6-0.6l-1.8,0.2l-0.6-1.2l1.8-1.4l-1.4-1.2l0.2-1.6l2.5-0.8l2-0.6l1.6-1.2l-2-1.4v-2.7
		l-1.8-0.2l-0.2-1.8l-2.7-3.1l1-2.3l-0.4-2.3l-1.4,0.2l-2.5,3.3l-1.8,1.2h-3.7l-1.6,0.8l-3.9-0.2l-2.9,2.9l-1.4-1.2l1.2-1.2
		l-3.1-4.3l-1.4-1.2l-1.8-0.2l0.6-6.1l-2.3-0.2l1-1.8l-0.8-1.2l-2,1.4l-2.5-0.6l2.3-3.9l0.6-2.7l-2.7-2l2.9-3.1l-1.4-2.3l0.4-1
		l1.8,1.4l-1-3.5l6.5-3.3l0.8-4.3l-3.1-0.2l-3.5-0.4l-2.3-3.7l-0.4-1l1.6-1.6l0.2-4.1l1.6-3.1l0.6-3.5l-3.7-1l-2.9,0.2l-1.2-0.6
		l-2.9-4.7l1-4.9l2.7-0.6l1.8-2.5l3.9,0.8l2.3-1.2l2.5-5.5l-2-3.3l-3.5-2.7l-2.7-9.8v-2l-2.5-2.9l-2.3,0.8l-0.8,3.9l-2.7,2.5l-6.5-2
		l-0.2-3.9l1.6-5.9l0.8-4.7l-2.3-3.3l1.8-4.5l-1.6-1.4l-3.5-1.2l-5.3,0.4l-5.3-0.6L45.3,157.4z"/>
	<g>
		<text transform="matrix(1 0 0 1 96.1177 80.4761)" class="st1 st2">Baliadangi</text>
	</g>
	<g>
		<text transform="matrix(1 0 0 1 89.2729 222.3604)" class="st1 st2">Ranisankail</text>
	</g>
	<g>
		<text transform="matrix(1 0 0 1 26.9116 240.4053)" class="st1 st2">Haripur</text>
	</g>
	<g>
		<circle class="st3" cx="107.1" cy="175.9" r="13.4"/>
		<text transform="matrix(1 0 0 1 101.0964 183.2222)" class="st1 st4">2</text>
	</g>
</g>
</svg>
