<?xml version="1.0" encoding="utf-8"?>
<!-- Generator: Adobe Illustrator 25.2.1, SVG Export Plug-In . SVG Version: 6.00 Build 0)  -->
<svg version="1.1" id="Layer_1" xmlns="http://www.w3.org/2000/svg" xmlns:xlink="http://www.w3.org/1999/xlink" x="0px" y="0px"
	 viewBox="0 0 323 507" style="enable-background:new 0 0 323 507;" xml:space="preserve">
<style type="text/css">
	.st0{fill:#ABBEED;stroke:#FFFFFF;stroke-width:0.5;stroke-miterlimit:10;}
	.st1{font-family:'TimesNewRomanPSMT';}
	.st2{font-size:16px;}
	.st3{fill:#FFFFFF;}
	.st4{font-size:24.672px;}
	.st5{fill:#9BB6EA;stroke:#FFFFFF;stroke-width:0.5;stroke-miterlimit:10;}
	.st6{fill:#C5CFED;stroke:#FFFFFF;stroke-width:1.033;}
	.st7{fill:#8BAFE8;stroke:#FFFFFF;stroke-width:0.5;stroke-miterlimit:10;}
</style>
<g id="nilphamari-1">
	<polygon class="st0" points="29.8,71.2 26.2,51.2 31.4,41.7 31.8,33.2 32.2,27 27.3,22.3 28.6,16.1 32.9,17.4 40.3,15.7 44.8,14.4 
		52.5,10.7 55.5,9 62.4,12.4 66.9,16.9 73.3,21.6 72.8,24.9 69,27.4 68.4,36 67.1,38.3 71.1,41.1 70.7,46.2 68.4,48.4 69.2,56.5 
		73,55.4 77.3,58.6 76.5,60.6 77.7,62 80.5,60.5 81.8,62.1 79.5,65.1 81.2,69.1 88.7,71.9 88.4,75.9 92.5,76 100.9,73.4 104.9,76.8 
		112.2,75.1 116.2,76 117.1,78.7 111.3,83.9 111.8,86.8 118.8,92.4 119.7,98.8 118.2,105 120.1,111.7 120.5,117.7 122.7,122.8 
		128.2,126.8 132.7,129.8 133.8,143.3 132.5,157.4 128.9,170.9 126.9,171.3 123.3,169.6 121.6,170.7 121.8,182.7 119.7,184.6 
		116.4,192.1 116.9,198.3 108.7,202.7 108.8,206.4 112.8,210.2 110.5,214.1 109.6,220.7 111.3,222.8 111.1,224.3 107.7,226.9 
		104.9,225.2 103.8,222.8 102.1,223.5 101.9,227.3 100.6,230.5 95.7,231.2 87.2,233.5 86.5,235.5 89.3,237.6 93.4,237.4 94.9,239.1 
		94.4,240.6 90.1,241 85.2,242.3 81.4,241.2 78.6,238 76,238 75.4,242.1 76.3,245.9 74.8,247.9 71.6,247.2 67.7,244.7 65.4,239.9 
		61.5,238.2 58.3,235.4 52.9,235 47.6,229.3 44.8,225.8 37.1,226.7 37.3,225.8 39.5,223.1 39.3,220.7 42.1,216 38,212.2 39.5,209.1 
		32.4,204 28.4,202.9 25.1,197.8 25.8,197 29.8,197.8 33.7,194 38.4,183.5 38.2,180.7 43.1,176.4 46.8,170.2 48.7,168.8 49.5,161 
		44.6,159.8 45.2,151.2 45,147.8 46.5,146.9 45.2,142.7 45.2,139.7 40.6,133.3 42.7,121.5 38.8,120.8 39.1,118.7 44.2,118.7 
		46.3,115.9 53,111.2 53.4,106.3 55.3,104 55.3,99 50.4,98.6 49.9,97.6 50.8,93.9 54.7,93.3 54.4,86.6 48.3,76.4 42.9,71.3 
		39.1,69.3 31.1,72.5 	"/>
	<polygon class="st0" points="116.3,76.5 117.6,74.6 116.8,70.1 118.1,67.3 117.2,66 114.2,68.8 112.5,67.9 112.7,64.3 107.2,59.2 
		105.4,54 105.4,46.8 107.4,43.6 105,39.3 109.5,37.6 109.7,32.6 118,27.3 147.8,26.5 155.5,30.7 162.1,42.3 166.4,49.1 176.8,66.7 
		184.5,69.8 190.8,68.2 199.3,65.4 225.6,65.1 227.3,67.1 225.8,69.8 231.6,78.4 237.6,79 241.9,85.7 239.5,88.7 238,96.6 
		238.9,98.9 235.4,103.6 231.8,103.9 227.7,106.4 227.1,109.2 229,110 231,108.5 235.7,110.7 237.6,118.8 243.8,126.9 246.8,127.4 
		246.8,125 249.6,123.3 256.2,129.5 263.7,130.4 269.4,129.1 277.4,135.5 279.7,142.1 285.7,147.7 287.8,153 286.8,160.7 
		290.4,171.6 289.3,175.9 284.8,177.8 281.4,175.3 281.4,188.5 281,197.5 278.9,198.2 270.9,197.1 266.2,198.4 266.4,202.2 
		259.8,203.7 254.5,200.1 252.6,204.4 249.3,205.2 244.2,203.5 242.7,199.6 234.4,196.7 227.5,199.6 223.7,203.5 227.7,208.4 
		228.6,213.3 226.5,215.3 216.2,210.8 204.2,206 191.6,195.8 171.7,188.5 160.6,186 146.5,182.7 132,175 127.3,173.6 127.2,171.2 
		129,170.8 132.6,157.3 133.9,143.2 132.8,129.7 122.8,122.7 120.6,117.7 120,111.8 118.1,104.9 119.6,98.5 118.7,92.3 111.6,86.8 
		111.4,83.7 117,78.8 	"/>
	<text transform="matrix(1 0 0 1 71.5542 155.3091)" class="st1 st2">Domar</text>
	<text transform="matrix(1 0 0 1 174.2773 115.9575)" class="st1 st2">Dimla</text>
	<g>
		<circle class="st3" cx="164.1" cy="144.9" r="13.4"/>
		<text transform="matrix(1 0 0 1 158.0964 152.2222)" class="st1 st4">1</text>
	</g>
</g>
<g id="nilphamari-2">
	<path class="st5" d="M37,226.6l-5.6,5.3l-4.1,5.1l0.9,5.6l-1.3,1.5l-0.6-3.8l-2.1,1.3L25,248l1.7,3.2l-1.3,2.3l-2.8,0.4l-3.4-3.4
		l-4.9,1.5l-0.4,1.5l-0.2,2.6L8.6,260l-1.7,3.2l1.9,8.3l4.5,5.8l2.3,9.8v3l-2.4,2.6l-0.4,7.7l1.1,1.9l2.8,4.9l0.2,10.1l-2.1,3.2
		l-2.6,1.9l0.9,3l4.7,1.1l3,3.9c0,0,1.7-0.2,1.7-0.4c0-0.2,0-5.1,0-5.1l4.5-0.8l1.9,1.9l5.3,0.8l4.1-1.9l4.9,5.1l6.2,0.2l7.1,7
		l1.3,3.9l-2.6,6.4l0.4,2.8l2.8,9.4l4.3,7l3.8,8.3l2.4,10.7l1.5,2.4l-0.4,4.3l4.3,0.8l1.5,3l-0.9,7l-3.2,3.8l3,6.2l0.6,5.8l-0.8,9.8
		l0.4,2.3l2.8,0.9l5.8-2.1l5.3,2.3l0.2,3.2l-0.9,2.6l1.1,1.1l3.6-5.4l0.2-1.3l3.8,2.8l1.7-0.6l0.6-5.4l4.9-1.5l1.3,2.3l5.3-1.1
		l1.3,1.5l7-6l-1.9-6.2l5.1-10.5l8.1-0.8l0.9-3l5.1-0.4l5.1,2.3l0.4,3.4l4.1-1.1l0.9-2.3l-0.8-3.2l-3-0.4l0.6-2.4l6.6,0.4l4.5,0.2
		L154,394l0.2-3.4l2.1-0.9l6.2,3.6l4.1,2.8l3.4,1.9l1.1-0.6l-0.8-3.4l3.2-1.5l4.1,2.6l1.3-0.8l-3.2-5.3l-4.1-6.2l2.6-2.6l0.8-3.2
		l1.1-0.9l-2.3-1.7l0.9-7.5l2.1-3.2l3.4-15.8l2.3-9.4v-5.6l2.4-2.6l3,1.3l1.1-5.1l1.9-1.1l3.8-0.4l-0.4-1.3l-3-0.6l-0.8-0.9l2.4-0.9
		l-0.2-1.1l-3.8-0.2v-4.1l0.6-4.7l-4.3-3.6l-0.2-1.9l-4.3-3.6l-2.6,0.8l-3-3.4l-5.8,3.9l1.7,5.6l-1.5,0.9l-2.3-4.5l-2.8,0.2
		l-1.1-2.4l-1.3-5.6l-1.7,0.4l-3-0.8l-5.1-7.7l-8.1-3.2l-0.6-1.7l2.1-4.1l-3.9-3.8l-5.8-3.8l-2.6,0.4l-3.9,1.5l-3.2-1.5l-1.5-6.2
		l0.6-5.6l1.5-2.3l-0.4-1.1l-4.7,1.1l-4.5-5.6l2.1-6.8l3-2.1l-0.8-1.7l-3.9,2.1l-3.2-3.6L114,240l6.2-2.3l0.9-3l-0.4-4.5l-4.5-1.9
		l-3.6,2.6L108,230l-0.8-3.2l-2.4-1.7l-1.1-2.4l-1.5,0.8L102,227l-1.3,3.4l-4.9,0.9l-8.5,1.9l-0.9,2.4l3,1.9l3.8-0.2l1.7,1.7
		l-0.6,1.7l-4.3,0.2l-4.7,1.5l-3.9-1.3l-2.8-3.2h-2.4l-0.6,3.9l0.8,3.9l-1.3,2.3l-3.4-0.9l-3.9-2.3l-2.1-5.1l-4.1-1.7l-3-2.6
		l-5.4-0.6l-5.6-6l-2.6-3.2L37,226.6z"/>
	<text transform="matrix(1 0 0 1 44.855 290.332)" class="st1 st2">Nilphamari</text>
	<g>
		<circle class="st3" cx="90.1" cy="317.9" r="13.4"/>
		<text transform="matrix(1 0 0 1 84.0964 325.2222)" class="st1 st4">2</text>
	</g>
</g>
<g id="nilphamari-3">
	<path class="st6" d="M107.2,226.8l0.6,3.2l4.5,1.1l3.8-2.8l4.5,1.9l0.4,4.5l-0.9,3l-6.2,2.3l0.2,1.5l3.2,3.6l4.3-2.1l0.6,1.7
		l-3.2,2.1l-1.9,6.8l4.5,5.4l4.7-0.9l0.2,1.3l-1.5,2.3l-0.4,5.6l1.5,6l3.2,1.7l4.1-1.7l2.4-0.2l5.8,3.8l4.1,3.4l-2.4,4.5l0.9,1.5
		l7.9,3.2l5.1,7.7l2.8,0.8l1.9-0.6c0,0,1.3,5.4,1.3,5.6s1.3,2.6,1.3,2.6l2.6-0.4l2.4,4.7c0,0,1.7-0.8,1.5-0.9
		c-0.2-0.2-1.9-5.6-1.9-5.6l5.8-3.9l3,3.4l2.6-0.8l4.3,3.8l8.8,1.9l4.3-0.9l3.9,2.3l0.9-1.3l-1.5-3.2l-0.8-4.9l1.9-0.8l3.2,4.1
		l3.8-0.4l1.3-2.3l0.2-5.4l-3-5.4l-1.9-1.5l1.3-2.1l2.1,0.6l3.8,7.1l1.7,1.1l0.4-1.9l3.4-1.5l0.9,1.3l-2.1,1.5l0.4,6l6.8,0.2l2.3-3
		l-0.4-2.1l1.7-1.3l1.9,4.9l3.9-2.1l3.6,0.6l-0.4,4.9l3.9,3.4l10.3,2.6l6-0.6l5.4,5.1l3.6,0.4l3.2-3.2l2.4,1.7c0,0,7-0.8,7-0.9
		s7-4.7,7-4.7l3.8,0.2l5.3-1.5l3.6-2.3c0,0,3.4,0.6,3.6,0.6s4.7,4.3,4.7,4.3l3-0.4l3-2.8l1.9,0.4l2.1,1.3l4.1-0.8l0.4-1.1l-6.2-3.9
		l-5.8-6.6l-4.9-5.1l-2.3-4.7l-5.3-6.2l0.4-3l-3-8.6l-1.5-3.6l-2.3-3.2l-1.7-6.6l2.1,1.1l0.8-1.3l-7.3-7.7l2.1-2.8l-1.9-3.2l0.6-5.4
		l-2.4-4.1l-0.9-7l2.3-1.5v-2.8l-1.5-3.9l5.3-4.9l-7.3-9.6l-0.2-1.5l-1.5,0.6l-8.1-1.1l-4.7,1.3l0.2,3.6l-6.6,1.9l-5.3-3.6l-1.9,4.1
		l-3.6,0.8l-5.1-1.7l-1.5-3.9l-8.1-2.8l-6.8,2.8l-3.9,3.9l3.8,4.9l0.9,4.9l-1.9,2.1l-22.2-9.4L191.5,196l-20.3-7l-24.6-5.8L132,175
		l-4.9-1.3v-2.3l-3.8-1.7l-1.7,1.1v11.6l-2.1,2.1l-3.2,7.5l0.4,6.2l-8.3,4.3l0.2,3.8l3.9,3.8l-2.1,3.9l-1.1,6.6l1.9,2.1l-0.2,1.5
		l-3.4,2.6L107.2,226.8L107.2,226.8z"/>
	<text transform="matrix(1 0 0 1 174.2988 233.3921)" class="st1 st2">Jaldhaka</text>
	<g>
		<circle class="st3" cx="152.1" cy="229.9" r="13.4"/>
		<text transform="matrix(1 0 0 1 146.0964 237.2222)" class="st1 st4">3</text>
	</g>
</g>
<g id="nilphamari-4">
	<polygon class="st7" points="176,389.7 171.5,382.7 174.1,380.2 175,376.8 176,376 173.9,374.3 174.7,366.6 176.9,363.5 
		182.4,338.4 182.5,332.7 184.8,330.2 187.7,331.4 188.9,326.5 191,325.2 194.4,324.7 194,323.5 191.2,323 190.6,322 192.9,321.1 
		192.5,320.2 189,319.8 189,315.7 189.3,311 185.2,307.3 185.1,305.6 193.7,307.6 198.2,306.6 201.9,308.7 203.1,307.6 201.4,304.4 
		200.8,299.5 202.7,298.8 205.7,302.9 209.4,302.3 210.9,300.3 211.1,294.8 207.9,289.4 206.2,287.9 207.6,285.8 209.8,286.4 
		213.2,293.3 214.9,294.4 215.6,292.7 218.8,291.4 219.6,292.6 217.7,294.1 218.1,299.9 224.7,300.3 227.1,297.3 226.7,295.2 
		228.4,294.1 230.3,298.8 234.2,296.7 237.8,297.3 237.4,302.1 241.4,305.5 251.9,308.1 257.7,307.6 263,312.7 266.9,313 270.1,310 
		272.4,311.5 279.1,310.8 286.5,305.9 290,306.1 295.3,304.4 297.2,307.6 297,311 293.2,319 291,325.4 290,327.7 288.2,329.2 
		285.3,328.1 284,329.4 288,332 291.2,331.4 291.5,332.4 288.5,336.9 291.5,337.3 290.6,343.7 289.3,345.3 290,347.2 291.7,347.6 
		289.5,353 287,354.5 289.3,361.1 292.8,361.3 294.7,363.8 294.9,366.4 297,367.1 297.9,370.7 302.1,370.1 301.1,373 290.4,379.5 
		289.8,383.5 290.8,387 289.7,388.9 285.9,390.2 285.7,393.8 289.1,397.4 288.9,400.2 285.1,402.6 280.1,402.6 278.4,406.8 
		279.1,414.5 279.5,417.5 281.6,419.4 280.6,421.4 278.2,419.9 275.2,421.6 273.5,420.5 275.2,417.7 272.4,416.4 268.2,413.3 
		267.1,414.5 261.3,413.7 257.5,413.7 252.8,416.5 251.9,419.5 247.2,424.6 246.1,428.2 244.4,430.8 241.8,432.1 240.8,431.2 
		242.1,428 239.7,428.2 234.4,426.9 231.2,428.2 221.5,428.6 219.6,427.8 216.6,429.9 213.8,426.7 214.1,424.2 212.4,423.9 
		211.1,425.6 208.3,425.2 205.5,427.8 204,426.3 206.2,424.2 203.2,422.7 201.2,416.5 201.4,414.3 196.9,414.1 196.1,411.5 
		198,410.3 203.1,410.2 204.6,408.7 202.9,404.1 200.6,401.7 200.8,397.6 194.8,395.1 196.1,393.4 195.3,391.9 193.5,393.2 
		189.2,391.2 182,390.4 177.3,389.1 	"/>
	<polygon class="st7" points="88.8,438.1 88.8,451.1 90,452.4 92.8,452 93.9,454.3 92,455.8 93.9,460.3 95.8,462.9 99.4,463.3 
		103.5,467.6 107.1,466.7 113.8,467.1 114.4,469.7 116.1,469.1 116.6,466.9 118.1,466.5 119.5,470.3 120,477.8 122.5,478.3 
		122.6,479.5 120.4,482.1 121,484 123.8,485.7 123,490 121.7,493 122.6,494.7 125.3,494.1 125.8,497.7 132.4,497.9 137.7,498.3 
		140.9,496.9 140.5,495.6 137.3,493.6 134.5,494.9 132.4,493.9 133.9,491.1 134.7,488.3 136.5,487.4 138.6,488.1 137.7,491.9 
		142.2,494.3 144.6,493.8 144.3,492.1 148.2,492.1 149.5,494.1 150.3,497.5 151.2,497.7 152.3,495.3 153.3,497.3 155.3,496.9 
		155.7,498.1 154.6,499 156.5,500.9 158.2,499.8 160,500.3 158.7,497.5 159.3,496.2 160.8,496.4 161.2,500.3 163,500.5 166,496.6 
		166.2,494.5 168.3,492.8 168.7,495.8 172.1,496.4 173.9,495.4 173.7,493 173.7,488.9 173,485.9 171.3,485.9 171.7,483.4 
		166.8,483.6 165.7,482.1 166.4,477.2 165.1,475.9 162.7,475.2 163,473.7 165.9,474 167,473.1 167.2,471.2 165.7,470.3 167.2,464.6 
		169.4,462.8 175.6,462.4 177.5,460.3 178.1,458.2 179.4,457.7 179.6,455.8 175.8,455.2 175.6,453.4 178.4,452 178.1,449.4 
		175.4,448.5 175.8,445.7 174.7,442.1 173.4,441.7 170.4,444 168.3,443.4 167.5,441.7 164.5,441.7 165.5,438.3 170.4,435 
		172.8,436.5 175.2,435.3 175.1,432.9 176.8,432.9 178.3,434.6 181.6,433.3 185.8,435.7 188.2,437.6 193.1,438 198.4,438 
		198.9,435.3 201.9,433.1 205.1,434 209.1,433.4 210.4,434.8 213.2,434.8 214.7,433.4 213.4,432.3 213.9,431 216,431.9 216.8,429.7 
		213.9,426.5 214.1,424.1 212.4,423.9 210.9,425.4 208.3,425.2 205.5,427.8 203.8,426.1 206.2,424.1 203.4,422.7 201.2,416.4 
		201.4,414.3 196.9,414.1 196.3,411.5 198,410.3 203.1,410.2 204.4,408.7 202.9,404.1 200.6,401.7 200.6,397.6 194.8,395.1 
		196.1,393.4 195.3,392.1 193.5,393.2 189.2,391.2 182,390.4 177.1,389.1 175.8,389.7 178.6,393.9 177.7,394.8 173.2,392.5 
		170.5,393.7 170.7,397 169.7,397.7 161.7,393.1 156.1,389.7 154,390.6 153.6,394 154.2,399.8 143.1,399.6 142.6,402.1 145.6,402.5 
		146.5,405.5 145.7,407.8 141.2,409 140.7,405.6 135.8,403.4 131,403.8 129.8,406.8 121.9,407.5 117,417.9 118.7,424.2 111.8,430.3 
		110.3,428.8 105.4,429.9 103.7,427.6 99,429.3 98.4,434.4 96.7,435 93,432.7 92.7,433.8 89.4,438.7 	"/>
	<text transform="matrix(1 0 0 1 198.6758 356.3711)" class="st1 st2">Kishorganj</text>
	<g>
		<text transform="matrix(1 0 0 1 130.5601 424.4805)" class="st1 st2">Syedpur</text>
	</g>
	<g>
		<circle class="st3" cx="237.1" cy="379.9" r="13.4"/>
		<text transform="matrix(1 0 0 1 231.0964 387.2222)" class="st1 st4">4</text>
	</g>
</g>
</svg>
