<?xml version="1.0" encoding="utf-8"?>
<!-- Generator: Adobe Illustrator 25.2.1, SVG Export Plug-In . SVG Version: 6.00 Build 0)  -->
<svg version="1.1" id="Layer_1" xmlns="http://www.w3.org/2000/svg" xmlns:xlink="http://www.w3.org/1999/xlink" x="0px" y="0px"
	 viewBox="0 0 246 457" style="enable-background:new 0 0 246 457;" xml:space="preserve">
<style type="text/css">
	.st0{fill:#ABBEED;stroke:#FFFFFF;stroke-width:0.5;stroke-miterlimit:10;}
	.st1{font-family:'TimesNewRomanPSMT';}
	.st2{font-size:11.6625px;}
	.st3{fill:#FFFFFF;}
	.st4{font-size:24.672px;}
	.st5{fill:#C5CFED;stroke:#FFFFFF;stroke-width:1.033;}
	.st6{fill:#9BB6EA;stroke:#FFFFFF;stroke-width:0.5;stroke-miterlimit:10;}
	.st7{fill:#8BAFE8;stroke:#FFFFFF;stroke-width:0.5;stroke-miterlimit:10;}
</style>
<g id="kurigram-1">
	<g id="upa-bhurungamari">
		<path class="st0" d="M176.2,100.1l1-0.9l-0.5-2.4l-1.2-0.5l0.9-1.7l-0.9-1.9l0.9-1.9l-1.4-0.7l-1.5,1.5l-0.7-1.5l2.4-3.6v-2.2
			l-1.9-0.7l-3.9,4.3l-0.9-0.9l0.7-4.4l1.9-2.6l-0.2-0.7l-2,0.2l0.3-1.4l1.7-0.5l-1.7-2.9l-2.2-0.3l-1.2,1.2l-2.2,0.3l-1-1.9
			l-2.4-0.7l-3.4,0.9l-0.2-2.4l2.6-2.6l2.2-3.8l0.3-3.4l-2.2-3.2l-3.4-1.2l-0.5-4.6l-1.9-3.6l-2.6-1.9l-4.6,0.5l-5.1,0.7l-1.9-0.3
			l-0.2-4.3l-1.4-1.5l-1.2-0.3l-2,3.1l0.5,1.9l-0.2,1.5l-3.2,2.9l-1.4-0.7v-2.4l-3.2-2l-4.1-0.3l-1.9-2.4l2.4-2.2l4.3,1l3.1-2
			l0.2-1.2l-4.8-1.4l-2.7-4.3l-1.5-3.6l0.9-2.2l-0.3-1.2l-2.7,0.5l-2-1l0.2-3.2l1.2-1.7l3.2,1.4l1.7-0.3l2.6-2.4l-0.7-1.2l-3.1,2.6
			l-2.6-3.2l-0.2-3.6l1.9,1.4h3.4l0.2-1.2l-2.7-0.5l1.4-1.4l-0.9-2.4l-1.2,1.7l-1-1.5l0.2-3.2l-0.5-1L120,7.3l-0.3,2.2l-2.4,1.5
			l-0.2,1.9l0.7,0.9l-0.7,1.2l0.2,1.4l-1.2,0.2l-1.5-0.7l-2.2,1l-3.2-0.3c0,0-2.9-1.5-2.9-1.7s-1.7-1.7-1.7-1.7h-1.5l-1.5-2.4
			l-1.5,0.9l-0.2,1.9l0.3,2.6l0.9,1.2l-1.7,2.2l0.2,2h2l0.7,2.9l0.3,2.2L103,27l0.3,1.9l2.2,1l1,1.7l-0.9,1.4l-0.3,1.7l-1.9-0.5
			l-2.2-1.4c0,0-1.2-1.5-1.2-1.7s0.7-1.5,0.7-1.5l-1.5-1h-1.4l-1.2,1.9L99,31l-0.2,0.9h-2.6L96,34.5l2,1.2l2,0.9l0.2,1L97.9,37
			l-1.7,1.4l-0.3,1.2l-0.3,1.9h-1.9L94,37h-2.6l-1.2,1.2l-1-0.9l-1.7-0.9c0,0-1,1-0.9,1s0.9,1.4,1,1.4c0.2,0,1.5,0.3,1.5,0.3
			L88,40.6l0.3,1.7l0.7,1.4l1.5-1.2l1.5,0.2l-0.2,1.5h-2l-0.3,2L88,46.4l0.2,1.7l1,0.5l-2,2.9c0,0-1-1-0.9-1.2c0.2-0.2,0.9-2,0.9-2
			l-1.4-0.7L85,49l-1.4-1.2l-0.2-1.2l-2.7,0.3l-2,1.5l0.7,1l2-0.3l1,2.4l-0.5,1.7v2.2L81.2,57l0.7,1.2l0.5,0.2l-1,2l1.5,1.9l1.4,1.9
			l1.4-0.9l1.4,2l-0.9,1l-1.4-0.7l-0.7,1c0,0,1,2.7,1.2,2.9c0.2,0.2,1.4,0.3,1.4,0.3l1.4-3.6l0.9-2.4l1.4,3.2l1.7,0.9
			c0,0,1.9-0.3,1.9-0.7c0-0.3,0.2-2.9,0.2-2.9l1.5-1.2l1.2,1.5l0.5,3.1l-0.2,2.6l-3.1,2l-3.6,1.9l-2.2-0.9L86,74.7L85.3,74l-0.5-1.9
			l-1.9-0.9c0,0-1.2,1.2-1,1.2s1.7,1.7,1.7,1.7l-0.5,2h-1.5h-1.2l0.3,1.9l4.3,2.7l1.2,1l0.5,2.6l1.9,0.2L88,80.9l0.9-0.9l0.9,1.2
			l1.5,0.2V80l-1.7-2.7l0.7-1.2l1,0.2l1.5,2.2c0,0,1.5-1.2,1.5-1.4c0-0.2,0.3-2.7,0.3-2.7l1.7-0.7l1.5,1.9l0.2,1.7l2.2,1.2l-2,1.4
			l0.5,2l2.9,0.9l0.2,0.9l-1.5,0.7l0.2,1.5L99,86.6l0.2,1.5l1.9,3.6l2.9,1.5l3.4,3.6l0.7-1.5l3.6,2.4l1.4,2.9l1.4-1.7l3.1,1.5v3.9
			l1.5,2.6l-2.2,3.1v1.7l3.6,0.3l0.9-2.6l2.4,1.7l-0.3-2.2l3.6-3.6l4.1-1.5l0.7,2.6l2,0.5l-0.2,3.9l-0.7,3.4l3.2-0.2l1.7-1.7
			l-0.9-2.6l2.4-0.5l1.2,3.8l-0.7,2.4h2.9l3.4-4.3l6.1,0.3l2.6-0.2l0.2-2.4l3.1,0.2l0.9-6.8l2.7-1.2l1.9,2.6l-0.9,3.9l-2.4,3.6
			l0.5,2.4l2.7-0.2l1.7-2.2l1.5-2.6l2.2-1.5l2.9-1.7v-1.5l-1.5-0.3l0.3-2.4L176.2,100.1z M109.5,39.6l-0.5,2.2l-1.9,0.3l-1.4,3.4
			c0,0-4.3-1.2-4.3-1.4s-0.3-2.9-0.3-2.9L97.9,41l3.1-2.7l1.2-1.4l0.7-1.5l2.6,1l2.7-0.5l2.2,1.7L109.5,39.6z"/>
		<g>
			<text transform="matrix(1 0 0 1 101.6074 75.9434)" class="st1 st2">Bhurungamari</text>
		</g>
	</g>
	<g id="upa-nageswari">
		<path class="st0" d="M192.6,205.5l1.4-3.2l-0.2-5.3l2.6-4.1l3.1-3.4l1-3.8l2.6-2.4l1.7-2l1.4-2.9l2.4-2l3.2-3.6l1.9-2.4l0.5-2.9
			l1.5-3.8l2.4-4.1v-1.2l-1.5-1l-4.3,0.5l-4.6,1.4l-4.3,0.2l-2.4-0.2l-2,2l-2.6-0.2c0,0-0.5-0.3-0.5-0.5s1-1.7,1-1.7h-5.5l-2-0.9
			l0.7-4.3l1.4-0.3l6.1,2.6h1.7l0.5-1l-0.7-2.6l-0.3-2.2l-1.7-2l-1.7-0.7l1.9-2.6l1.9-0.3l3.2,1.5l2.7-0.3l6.5-2.4l0.2-3.1l-2.2-0.9
			l-2.2-1.2l-5.5-2.6L200,133v-3l-3.4-4.8l-2.2-1.9l-2.2,0.3l-0.7,4.3l1.7,4.9v2.6l1.4,2.2l-0.9,1.9l-4.4-0.5l-3.2-3.2l-1.2-3.1
			l1.7-0.9l-0.3-3.4l1-4.6l-2.4-4.3l0.7-3.2l-1.5-2.7l-0.2-4.3l-1.4-1.2l-2-1.7l-1.4,1.5l-0.5,4.4L176,118l-2.4,2.9l-1.5,0.5
			l-1.2-1.4l1.2-0.7c0,0,2-2.4,2-2.7s1.5-2.7,1.5-2.7l2-3.9v-1.4l-2.7-0.9l-1.4,0.9l-0.2,3.4h-1.7l-0.2-2.7l-2.7-0.5l-1.5,2.4
			l-1.4,0.7l-0.9-0.9l-1.5,2.2l-2.9,0.2l-0.5-2.2l2.4-3.6l0.9-4.1l-1.7-2.6c0,0-3.1,1-3.1,1.2s-0.7,6.8-0.7,6.8l-3.1-0.2l-0.2,2.4
			l-2.4,0.2l-6.5-0.3l-3.1,4.3h-3.1l0.7-2.6l-1.2-3.6l-2.6,0.5l1.2,2.6l-2,1.9l-3.1,0.2l0.7-3.4l0.3-4.1l-2.2-0.3l-0.7-2.7l-4.3,1.5
			l-3.4,3.8l0.3,2l-2.2-1.7l-1,2.6l-3.8-0.2l0.3-1.9l2-2.9l-1.5-2.7v-3.9l-2.9-1.5l-1.5,1.9l-1.2-2.9l-3.6-2.4l-2.4,3.8h-3.9
			l-4.1-0.5l-2,3.4l-2.7,0.9l-2.2-3.1l-3.1-2.9l-1,1.2l3.2,3.4l0.3,2.7l-2.7,1l-3.4,2.6H81l-0.3,1.7l1,2.7l2.2,2l4.1,2.9l2,0.5
			l0.7,9.7l0.9,6.7l0.3,2.7l-0.9,1.7l-0.3,1.9l1.9,0.3l1.2,1.9l1,2.7l2-0.7l1,1.9l-1,1.2l-3.9-0.5l-0.9,1l2.4,0.9
			c0,0,1.4,6.3,1.4,6.7c0,0.3,2.4,4.8,2.4,4.8l3.6,2l1.5,1.7l2.9,0.9l2.9,2.6l-2.2,1.7l1.4,3.9l-2.9,1.4l-3.2-0.2l-0.5,1.4l2.6,1.4
			l1.4,3.9l2.6-0.3l2.7,1.7l0.7-3.9l2.4-1.9l0.9-2h2l-1.5,5.3l1.4,0.9l1.5-1.5l0.7-2.9l3.1,2.6l1,2.9l1.5,2.2v1.4l-1.4,1l-1.9-0.7
			l-3.2,2.9l0.3,1.9l3.4,4.9l2.6,0.2l3.1-2.7l0.9-2.6l-0.2-2.9l0.9-1.9l3.6-1.2l1,1.2l-3.4,4.3l0.5,0.9l5.8-0.2l5.6,1.2l0.5,4.3
			l2.9,0.9l1.5,2l4.4,1.2l4.4,3.8l1,3.2l2.9-0.2l2.2,1l6.3-1.7l3.4,1.5l5.5-3.8h4.6l4.8,1.2L192.6,205.5z"/>
		<g>
			<text transform="matrix(1 0 0 1 113.7246 148.7021)" class="st1 st2">Nageshwari</text>
		</g>
	</g>
	<g>
		<circle class="st3" cx="132.1" cy="106.9" r="13.4"/>
		<text transform="matrix(1 0 0 1 126.0964 114.2222)" class="st1 st4">1</text>
	</g>
</g>
<g id="kurigram-2">
	<g id="upa-fulbari">
		<polyline class="st5" points="75.6,193.1 78.3,193.4 79.7,192.6 84.3,188.8 85.6,183.7 88,178.9 89.7,178.8 92.1,180.3 
			91.4,185.2 88.9,189.2 88.9,195.3 89.9,195.8 94.5,193.9 103,190.9 106.4,188.7 106.6,187 100.8,187.8 99.8,186.3 105.8,181.2 
			104.1,177.1 101.7,175.9 102.4,174.5 105.4,174.7 108.1,173.3 107,169.6 109,167.7 106.1,165.1 103.4,164.3 101.8,162.4 
			98.3,160.5 95.9,155.7 94.5,149.1 92.1,148.2 93,147.2 96.9,147.7 97.9,146.4 96.9,144.7 95,145.3 93.8,142.6 92.6,140.7 
			90.8,140.4 91.1,138.3 91.9,136.6 90.8,127.1 90.1,117.7 88,117.2 83.9,114.3 81.7,112.2 79.8,111.2 78.6,109.9 77.6,110.5 
			76.3,112.8 75.9,114 77.1,115.7 76.6,117.4 74.2,116.2 73.5,117.9 74.4,120.6 75.2,123 75.2,124.9 74,125.2 74.2,126.6 
			75.2,126.9 75.9,130.2 76.6,131.2 77.1,133.4 75.9,135.4 76.4,137.5 77.4,139.7 76.9,142.8 76.1,142.8 75.2,141.1 73.5,141.4 
			72.8,139.5 71.3,140.6 71.6,141.4 73.5,144 73.2,146 71.6,146.9 68.8,146.9 68.2,145.7 68.8,142.6 68.8,140.7 67.2,140.7 
			66.4,141.9 66,144.3 64.3,145.8 63.8,146.7 63.6,148.6 61.4,148.4 58.9,147.2 56.3,146.4 54.6,144 55.1,141.1 56.5,138.9 
			53.9,138 53.6,135.8 54.3,134.8 54.9,133.2 57.5,132 60.1,130.2 59.5,129 58,129.8 56.5,127.3 55.4,125.9 53.1,126.7 53.4,127.4 
			55.4,127.4 54.6,129.1 52.5,128.3 49.6,127.6 47.8,126.6 46.7,125.2 44,126.4 42.5,128.6 39.2,129 36.9,128.5 33.8,128.8 
			30.5,129.5 27.1,131.2 28,132.2 28.2,134.9 24.9,137.5 23.9,140.2 23.7,143.5 24.7,145.2 26.1,146 26.5,148.1 28.5,149.8 
			32.3,149.6 34.3,148.1 35.5,146.2 36.5,146.2 36.7,147.4 35.3,148.7 37.2,149.8 37.7,151.6 39.4,152.8 40.4,155.4 40.6,158.1 
			42.1,160.9 42,163.2 40.8,164.4 40.8,165.6 42.1,165.8 43.7,168.2 44.5,169 44.2,172.5 44.5,174.3 46.7,174.8 50.2,174.7 
			50.8,177.7 51,180.6 53.4,182.9 56.3,183.9 58.2,187.1 59,188.3 61.6,188.5 63.5,189.9 64.8,189.2 67,190.4 69.9,189.9 
			71.5,188.3 73.2,188.5 75.6,193.1 		"/>
		<text transform="matrix(1 0 0 1 56.9668 167.6831)" class="st1 st2">Phulbari</text>
	</g>
	<g id="upa-kurigram">
		<path class="st5" d="M93.5,252.4l-2.9-1l0.3-2.6l-0.2-1.5l-1.7,0.3l-0.5-0.5l1.5-1.5l-1.5-1.7l-2.7,2l-2.7-0.3l-2.2-3.1l1.5-2.7
			l1.5-2.4l-0.7-6.3l-4.3,0.2l-3.1-3.4l-1.4-1.4l2.4-3.1l-0.7-1.7h-3.4l-0.7-3.1l1.2-4.3l-3.6-3.2l-0.2-3.2l1.9-0.3L73,211l1.4-0.3
			l0.7-5.8l2.7-2.2l0.2-1.5l-1.4-0.7l-0.2-3.8l3.6-3.1l-0.5-0.9l4.8-3.9l1.4-5.1l2.4-4.8l1.7-0.2l2.6,1.7l-1,4.9l-2.4,3.8v6.3
			l1.2,0.5l4.4-2l8.4-3.1l3.6-2.2l0.2-1.7l-6,0.9l-0.9-1.5l3.9-3.2l2.4-2.2h2.2l2.7,1.9l0.5-4.1l2.6-1.9l0.7-2h2l-1.5,5.3l1.4,1
			l1.5-1.7l0.5-2.9l3.4,2.6l0.9,3.1l1.5,1.9v1.5l-1.4,1l-1.7-0.9l-3.6,2.9l0.5,2l3.4,4.9h2.6l3.1-2.6l0.9-2.6l-0.2-2.9l0.9-2l3.6-1
			l1,1.2l-3.4,4.3l0.5,0.9l5.8-0.2l5.6,1.2l0.5,4.3l3.1,0.9l1.4,2.2l4.4,1l1.5,1.7l2.9,2l0.9,3.2l3.1-0.2l2.2,1l6.3-1.7
			c0,0,3.6,1.7,3.4,1.7c-0.2,0,5.3-3.8,5.3-3.8l4.8-0.2l4.8,1.2h6l1.2,4.8l-3.1,6.1l-7,8.4l-1.7-0.9l-0.9,1.7l0.3,4.3l-1.2,3.4
			l-2.9,2.9l-1.4,2.4l-0.3,2l-4.1,3.4l0.2,3.1l-0.7,1.5l-2.6,0.7l-2.7,1.4l-5.3-0.5l-2.4,1.4l-4.6-1.7l-3.4-0.2l-1-1.9l-0.3-1.4
			l-3.4,1.2l-2-1l-1.9-2.7l-3.1-1l-4.1,1.9l-2.9-0.3l-1.2,1.2l-4.3,1l-2.6,1l-0.7,3.1l0.9,2.2l-0.2,2.2l-0.9,1.7l-0.2,2l-1.2-0.5
			l-3.1,0.2l-0.2,1.9l-3.2,0.3l-2.7-1.5l-0.9-1.4l-4.1-1l-0.3-3.1l-1.4-0.9l-1.5,0.7l-1.5-0.5l-0.5,1.9l-1.9-0.7l-3.2,0.3l0.3-1.9
			l3.6-0.7l-0.2-1.7l-4.9,1L93.5,252.4z"/>
		<text transform="matrix(1 0 0 1 112.9121 224.3516)" class="st1 st2">Kurigram</text>
	</g>
	<g id="upa-rajarhat">
		<path class="st5" d="M41.8,273.4l-4.3,1.7l-4.6-0.2l-3.8-6.3l1.5-1.2l4.9-0.5l1-6.5l-1.7-2.4l-1.4-1.9l-2,0.9l-1.9-2.2l-2.4,1.2
			l-1-3.6l-2.9-7l-3.4-5.1l-1.4-1.2l-1.7,0.7l-0.7-1.7c0,0,1.4-2.7,1.4-2.9s0-3.4,0-3.4l-0.9-1.5l0.2-2.9l2.6-1.5l1.9,2.4l1.5-0.2
			l-1.2-2.4l-1.9-2l-1-1.4l-2.9,2.4H14l-0.9-2.9l4.9-2.9l2.7-0.2l1.2-1.2l2.9-0.9l2.6-3.8l1.7-0.2l0.7,2.4v2.2l-0.2,2.2l2.4,2.2
			l-1.2,1.9l4.1,0.9l-2,1.4l1.2,0.7l1.4-0.7l1.4,1.9l2.4,0.5l1.4-1.2l4.8,1.7l-0.2-3.1l0.5-1.5l-0.9-1.2l-0.2-2.4l1.5-0.3l1.2,2.7
			l0.7,1.4l2.2,0.2l2.2-2.4l0.5-3.9l0.5-4.4V211l-0.9-2l-0.2-5.1l-1.4-2.7l2.2-1.9l4.4,1.7l2.2,2l2.7-0.9c0,0,0.9-2.2,0.9-2.4
			s-0.3-4.9-0.3-4.9l2.7-1.4l2.9,0.5l0.5-2c0,0,2.6,0,2.6-0.2s0.2-1.9,0.2-1.9l1.4-0.3l2,3.6l2.7,0.3l1.4-0.7l0.3,1l-3.6,2.9
			l0.2,3.8l1.2,0.7v1.4l-2.7,2.4l-0.7,5.8L73,211l-1.7-3.4l-1.5,0.3v3.2l3.4,3.2l-1,4.1l0.7,3.1l3.4,0.2l0.7,1.5l-2.4,3.2l4.4,4.8
			l4.3-0.2l0.7,6.1l-2.9,5.3l1.9,2.9l2.9,0.5l2.7-2l1.5,1.5l-1.5,1.9l0.3,0.3l1.9-0.3l0.2,1.5l-0.2,2.6l2.4,0.9l-1.9,0.2l-0.7,0.9
			l0.5,0.9l2.6-0.2l0.2,0.7l-1.5,0.7L96,258l-0.7,1.2l-0.2,1.5l-2.6,1.2h-1.7v3.1l-1.4,0.3l-4.6,0.2l-3.4-2l-1.7-0.2l-0.2,1l1.5,2.2
			l-0.7,2.7l-0.9,1.2l-0.9-1.2l-2.2,0.9h-0.9l-1-1.2l-1.2,0.2l0.5,1.9l-2.2,2.6l-0.9,2.6l-1.2-0.3l-2.7-2.2l-1.2,1.2l-0.2,1.2
			l-3.9-0.3l-0.9-3.9l-1.5,0.7l-0.3,1l-1.5-0.3V270H56v2.9l-4.8,0.2l-0.7-0.7l-1.7,0.3l-0.9-4.3l-1.2,0.5l-1,1.7l-0.5,2.2l-1.5,0.5
			L41.8,273.4L41.8,273.4z"/>
		<text transform="matrix(1 0 0 1 34.7871 247.2012)" class="st1 st2">Rajarhat</text>
	</g>
	<g>
		<circle class="st3" cx="96.1" cy="210.9" r="13.4"/>
		<text transform="matrix(1 0 0 1 90.0964 218.2222)" class="st1 st4">2</text>
	</g>
</g>
<g id="kurigram-3">
	<path class="st6" d="M97.9,355.6l0.9-1.5l-0.5-1.5l2.4-5.5l2.7-1.7l3.1-0.7l1.7-2.6l1.2-4.1l-1-2.4l-3.2,2.6l-2.2-2.9l1.4-2.9
		l2.9-0.7l1.2-2.9l0.2-4.1l3.4-2.4l0.5-2l-2.2-0.9l-1-2.9l3.1-2.9l0.9,1.2l-1.2,1.7l2.9,1l3.8-2l-0.5-1.7l0.3-1.5l3.8-1l-1-2.4
		l1.2-1.4h2.7l3.9-2.2l3.2,0.2l0.7,2.6l5.8,1.7v3.2l4.9,7l5.1,4.3l2.2,3.1l1-1.2l-0.9-3.2l10.2-7.3l4.1-0.5l-0.5-0.9l0.5-9l-2.2-3.6
		l8.2-11.8l1.2-0.3l0.9,1.7l-2.2,3.2l2,1.7l3.6-1.4l1.5,7.5l2.2,1.5l1.2-11.1l6-14l3.4-2l1-1.2l-1.5-4.3l-1.5-2.6l0.7-5.3l3.4-4.3
		l2.4-3.8l-0.9-3.8l-0.5-5.1l-2.4-4.1l-0.5-3.4l-1.7-4.6l-0.7-4.3l-2.4-2.9l-1.9-1l-1.4-0.3l0.3-1.5l-1.7-0.7l-0.9,1.5l0.3,4.6
		l-1.2,3.2l-2.9,2.9l-1.4,2.4l-0.3,2l-2.4,1.9l-1.7,1.5l0.2,3.2l-0.7,1.4l-2.6,0.7l-2.7,1.4l-3.1-0.3l-2.2-0.2l-2.6,1.5l-1.4-0.5
		l-3.1-1.4l-3.4-0.2l-1-1.9l-0.2-1.5l-3.6,1.4l-2-1l-1.7-2.7l-3.2-1c0,0-3.9,1.9-4.1,1.9s-2.7-0.3-2.7-0.3l-1.4,1.2l-4.3,1l-2.6,1
		l-0.7,3.1l0.9,2.2l-0.2,2.2l-0.9,1.7l-0.2,2.4l-1.2-0.9l-3.2,0.2l0.2,2l-3.4,0.2l-2.7-1.5l-0.7-1.5l-4.4-0.9v-3.1l-1.4-0.9
		l-1.5,0.5l-1.7-0.5l-0.5,2l-1.9-0.9l-3.2,0.3l0.3-1.9l3.6-0.5l-0.2-1.9l-5.1,1l-1.5,1.5h-2.4l-0.7,0.9c0,0,0.3,0.9,0.5,0.9
		s2.6-0.2,2.6-0.2l0.2,0.9l-1.7,0.5l3.8,2.6l-0.7,1l-0.2,1.9l-2.7,1h-1.5v3.2l-1.4,0.2h-2.7l-2.2,0.2l-3.1-2l-1.9-0.2v1l1.4,2.4
		l-0.5,2.6l-0.9,1.4l-0.7-1.5l-2.2,0.9l-1.2,0.2l-0.9-1.4l-1.4,0.3l0.9,2l-2.4,2.4l-0.9,2.6l-1.2-0.3l-2.7-2.2l-1.2,1l-0.2,1.5
		l-4.1-0.5l-0.3-2.6l-0.3-1.4l-1.5,0.5L59,273l-1.5-0.3l-0.2-2.9H56v3.1h-4.8l-0.5-0.7l-1.9,0.2l-0.9-4.1l-1.2,0.5l-1,1.7l-0.5,2.2
		l-1.5,0.5h-2v2.2l2.6,3.9l-0.7,4.6l0.7,4.4l0.2,2.7l1.7-0.3l0.3,2.9l-1.7,4.4l-1.2,4.6l-0.2,2.4l0.7,0.5l1.7-0.9l0.2,1.7l-0.5,2.4
		l1,2l-0.3,1.2h1.4l1.5-2.4l1.7,1.4l0.5-3.4l1.9,0.2l-0.7,3.6l2.4,2.4l3.2,1.5l1.7,2.6l1,2.7l-1.2,5.1l-0.3,3.1l1.4,1.9l-0.9,1
		l-2.7-1.2l-1,3.8l-2.7-0.3l0.7,4.3l1.7,2.9l5.6,1.7L66,343l3.4,0.5c0,0,2.7,5.6,2.9,5.6c0.2,0,4.4,6.1,4.4,6.1l2,2.7l3.4-0.5
		l4.4-3.6l1-1.9l3.2-0.5l3.6,1.9L97.9,355.6z"/>
	<g>
		<text transform="matrix(1 0 0 1 68.8906 300.2754)" class="st1 st2">Ulipur</text>
	</g>
	<g>
		<circle class="st3" cx="134.1" cy="277.9" r="13.4"/>
		<text transform="matrix(1 0 0 1 128.0964 285.2222)" class="st1 st4">3</text>
	</g>
</g>
<g id="kurigram-4">
	<polygon class="st7" points="193.1,417.7 190.2,407.7 191,403.1 188,400.5 186.6,396.4 184.7,397.1 184.2,404.8 180.6,406 
		177.2,404.8 176.9,399.8 175.2,395.4 175,392 171.8,380.9 171.9,376.4 171.1,373.9 172.6,369.8 178.8,367.1 179.8,362.6 
		173.6,360.4 168,359.2 171.6,349.7 176.2,340.3 177.1,334.7 172.1,326.6 168.9,323.1 168.5,318.6 164.9,314.2 165.5,305 
		163.1,301.6 171.4,289.6 172.8,289.5 173.5,291.3 171.1,294.4 173.3,296.1 176.9,294.9 178.4,302.4 180.6,303.8 181.7,292.9 
		186.9,280.4 187.8,278.5 191.2,276.7 193.8,278.4 197.4,278.4 200.3,280.1 199.7,285.4 197.9,288.6 200.6,293 204,296.1 
		204.5,301.2 207.8,304.6 209.6,304.5 212.9,312.8 215.4,322.7 215.4,332.1 211.9,341.8 212.7,345.4 211.2,350.2 209,357.7 
		209,364.7 202.6,367.4 202.1,369.1 205,375.9 206.4,379.5 204,386.7 203.2,390.6 200.9,392.5 201.3,398.4 202.6,402.5 202.1,406.3 
		198.7,410.4 196,415.2 	"/>
	<text transform="matrix(1 0 0 1 172.3262 322.3516)" class="st1 st2">Rowmari</text>
	<path class="st7" d="M132.4,410.4l3.9,1.7l0.5,2l3.6,0.5V412l3.6-1.9l2.4,2l1.7-1.5l0.5-3.2l3.1,1.4l0.9-1l-2.4-2.2l1.7-1.9
		l-5.1-1.4l0.9-2l6.1,2.2l3.2-4.1l0.5-3.1l-2.2-2.9l-3.1,0.5l-2.7-4.1l1.9-1.4l-0.5-2l-2.9-1l3.4-4.3l3.1,1.4l4.9-3.8l4.1,3.8
		l3.4-1.2l2.9,1.7l2-1.2l3.2,10.9l0.2,3.8l1.7,4.3l0.3,4.9l3.2,1.2l3.8-1l0.3-7.7l2-0.9l1.4,4.1l3.1,2.7l-0.9,4.3l3.1,10.1l-1.7,6.1
		l-1.5,6.7c0,0-1.4,2.2-1.4,1.9c0-0.3-6.8-2-6.8-2l-9.6-3.9l-2.7-2.4l-8.2-2.4v2.7l2.4,0.7l1.4,2.6l-0.9,3.4l3.6,1.7l1,4.4l-1.5,6.5
		l-0.5,3.1l-5.1,2l-8.9,0.9l-2.6,2.2l-1.7-0.3l2.7-6l-0.3-1.2l-3.6-1.4l0.9-3.9l-3.4,1.9l-8.4,0.3l-4.1,0.7l-2.9,0.5l-2.9-4.4
		l0.3-0.9l3.9-1.2l-0.7-2.2l1-2.2l-1.5-3.6l-4.6,2.7l-1.2-2l4.6-5.8l2.6-7.3L132.4,410.4z"/>
	<text transform="matrix(1 0 0 1 149.8984 418.4004)" class="st1 st2">Rajibpur</text>
	<path class="st7" d="M132.9,410.6l3.4,1.4l0.5,2.4l3.6,0.3l0.2-2.4l3.4-2l2.6,2l1.7-1.7l0.3-2.9l3.1,1.2l0.9-1l-2.4-2.2l1.7-1.9
		l-5.1-1.4l0.9-1.9l6.1,2l3.2-4.1l0.5-3.1l-2.4-2.9l-2.9,0.5l-2.7-4.1l1.7-1.2l-0.5-2.4l-2.6-0.9l3.2-4.4l2.9,1.4l5.1-3.4l4.1,3.4
		l3.4-1l2.9,1.7l2-1.2l0.2-4.4l-0.9-2.6l1.5-4.1l6.1-2.7l1-4.4l-6.3-2.2l-5.5-1.2l3.6-9.6l4.6-9.2l0.9-6l-4.9-8l-3.2-3.4l-0.3-4.3
		l-2.9-3.8l-4.4,0.5l-8,5.6l-2,1.7l0.9,3.2l-1,1.2l-2.4-3.2l-4.9-4.1l-4.9-7v-3.2l-5.8-1.7l-0.7-2.6l-3.2-0.2l-3.9,2.2h-2.7
		l-1.2,1.4l1.2,2.4l-3.9,1l-0.3,1.5l0.5,1.7l-3.6,2l-3.1-1l1.2-1.7l-0.9-1.4l-3.1,3.1l1,2.9l2.2,0.9l-0.5,2l-3.4,2.4l-0.2,4.1
		l-1,2.9l-3.1,0.7l-1.4,2.9l2.2,2.9l3.2-2.7l1,2.6l-1.2,4.1l-1.7,2.6l-3.1,0.7l-2.9,1.7l-0.9,2.4l-1.4,3.2l0.5,1.5l-0.9,1.5l2.9,3.8
		l3.4,4.3l5.8,2.7l2.7,1.9l3.4,2.9l5.6-0.2l4.6-1.5l2.9,2.7l-2.6,1.4l-0.7,2.4l-2.9,0.5l-2,3.4l0.7,3.1l5.3,3.8l2.4,3.2l-0.9,2.9
		l-4.6,0.5l-4.4-0.7l-3.6,1l-0.2,2.6l7.3,6c0,0-1.5,2.9-1.7,3.1s-0.2,1.9-0.2,1.9l1.4,0.3l1-1.7l3.4,0.2l1.7-1.7l3.6,0.2l0.9,2.2
		L132.9,410.6z"/>
	<text transform="matrix(1 0 0 1 119.918 346.0215)" class="st1 st2">Chilmari</text>
	<g>
		<circle class="st3" cx="145.1" cy="365.9" r="13.4"/>
		<text transform="matrix(1 0 0 1 139.0964 373.2222)" class="st1 st4">4</text>
	</g>
</g>
</svg>
