<?xml version="1.0" encoding="utf-8"?>
<!-- Generator: Adobe Illustrator 25.2.1, SVG Export Plug-In . SVG Version: 6.00 Build 0)  -->
<svg version="1.1" id="Layer_1" xmlns="http://www.w3.org/2000/svg" xmlns:xlink="http://www.w3.org/1999/xlink" x="0px" y="0px"
	 viewBox="0 0 306 454" style="enable-background:new 0 0 306 454;" xml:space="preserve">
<style type="text/css">
	.st0{fill:#ABBEED;stroke:#FFFFFF;stroke-width:0.5;stroke-miterlimit:10;}
	.st1{font-family:'TimesNewRomanPSMT';}
	.st2{font-size:16px;}
	.st3{fill:#FFFFFF;}
	.st4{font-size:24.672px;}
	.st5{fill:#8BAFE8;stroke:#FFFFFF;stroke-width:0.5;stroke-miterlimit:10;}
</style>
<g id="panchagarh_2">
	<polyline class="st0" points="135.3,135.1 136.4,138.2 134.3,140.3 137.1,142.4 136,144.1 135.7,149.3 139.5,151.1 134,154.9 
		132.6,152.8 128.4,153.1 126.7,156.3 128.1,158 128.4,163.5 127,166 124.9,164.9 121.1,167.3 117,162.1 121.8,159 121.1,157.3 
		118.4,158.3 116.6,158.3 115.6,155.2 118.7,152.4 117.7,150.4 113.2,149.3 113.2,146.6 117.3,145.9 112.5,137.9 111.8,134.1 
		107.3,134.1 106.6,131.7 110.4,126.5 105.2,125.4 92.7,122 78.9,122.7 74,117.1 70.6,118.2 71.3,122.3 69.2,123.7 60.2,111.9 
		61.2,108.8 57.4,108.1 51.2,112.6 38.7,105.7 33.2,107.8 32.5,115 33.2,130.3 25.9,136.2 23.1,124.7 22.1,120.2 18.3,119.5 
		16.5,113 13.4,110.2 14.5,100.5 22.1,93.2 26.6,85.3 26.6,78.3 31.4,74.2 31.1,65.5 38.4,54.1 39.4,43.3 43.2,28.1 48.8,25.3 
		56.7,25.3 58.1,23.3 57.4,20.8 50.8,20.8 50.1,17 56,11.5 57.1,7 64.3,2.1 68.8,2.8 68.1,11.5 70.6,31.9 70.9,49.2 76.5,61.7 
		81.3,67.6 84.1,67.2 84.4,71.7 87.5,73.8 93.1,72.8 95.2,64.8 108.3,67.6 110.4,69.7 109,73.8 110.1,77.3 113.9,74.5 115.6,91.8 
		119.4,90.1 122.9,85.3 125.6,85.6 127.4,90.8 132.9,90.1 135.7,93.6 132.2,99.5 136,102.9 135.7,108.1 129.8,110.9 129.8,116.4 
		134.3,118.2 139.1,117.1 143,121.6 142.3,127.9 138.1,127.9 137.8,124 134.6,123.4 132.6,126.5 134,130.3 131.5,132.7 124.9,135.1 
		124.9,137.2 128.4,138.2 135,135.1 	"/>
	<path class="st0" d="M135.9,107.9l-5.9,2.8v5.5l4.2,1.7l4.8-1l4.2,4.8l-0.7,5.9l-4.5,0.3l-0.3-4.2l-3.1-0.7l-2.1,3.5l1.4,3.5
		l-2.1,2.4l-6.9,2.4v2.1l3.5,1l6.9-3.1l1,3.1l-1.7,2.1l2.4,2.1l-1,2.1l-0.3,4.8l4.2,2.1l-5.5,3.5l-1.4-2.1l-4.5,0.7l-1.7,3.1
		l1.7,1.7v5.2l-1,2.8v2.1l-3.8,1.7l0.3,1.4l2.8,3.5v2.8l1.7,1.7l3.8-3.1l1.4,0.3l-0.3,1l-3.1,3.8l-1.7,2.8v2.8l2.4,2.8h1.7l2.8-3.5
		h1.4l-0.3,2.4l-2.8,4.5l-3.8,1.4l1,2.1l3.8-1l0.3,3.1l-3.8,1v1.7l1.4,2.4l-1.4,1l-2.8-1.4l-4.8,2.8l-1-1l2.8-6.9v-2.1l-2.1-0.3
		l-2.8,2.8h-4.5l-3.5-1l-1.4,1.4l2.4,3.8v2.1l-2.1,1.4l-3.1-1l-2.4-2.4l-3.5,2.8l-3.8,0.7l-3.8-2.1l-5.5,3.5l-1,4.5l-4.2,0.7
		l-1.4,2.8l0.3,2.8l-4.2,0.7l-1.4,4.5l4.2,7.6h1.4l2.4-3.5l5.2,2.1l1.7-0.7l4.2,2.4l2.1,5.2l4.8,2.1l6.9,1l1,3.8l-2.1,3.8l-4.8,6.9
		l-0.7,1.7l3.1,4.5l2.4,1l2.1-3.1l1.7-0.3l0.3,1l-0.3,2.1l3.8,0.3l1.7,1l1,3.1l5.5-1.7l1.7-2.4l2.4,0.7l6.9-1l3.1-0.7l-0.3-1
		l-5.9-3.5l-0.7-2.1l0.7-1h2.4l0.3-3.5l-0.7-2.4l-1.7-0.7l0.3-1.4h3.1l4.2,3.5l1.7,0.3l1-1.7l1-2.4l3.1-1l1-1l3.5,1.4
		c0,0,3.1,1,3.1,0.7s0.7-2.1,0.7-2.1l-2.8-2.8l1.4-0.7l2.8,1l1.4-2.8l4.2-2.8l0.7-3.1l3.8-0.7l2.8,2.1l2.1,1l1.7-2.1l0.7-4.2
		l3.5-1.7l3.5,2.4l-0.7,4.5l-1.4,3.8l1.4,0.7l3.5-3.1l5.5,0.7l3.8-0.7l6.2-2.1l3.5-2.1l1.7-2.8l2.4-1.4l1.7,2.1l-0.3,3.1l-0.3,1.7
		l1.7,0.7l1.4-2.1h3.5l3.5-1.4l-2.4-1.7l-0.7-1.4l1-1l2.4,2.4l2.1-1l3.1-0.7l0.7,2.4l-2.1,1.4l-2.1,2.1l0.3,2.8l-1.7,5.2l1,0.7h4.5
		l1.7,1.7l3.8,0.3l4.2,2.4l3.1,3.1l1.4,0.7l1.7-3.1l-3.1-1.7l-1.7-2.8v-2.1l-3.5-1l0.3-2.8l3.5-1v-2.4l-3.5-0.7l-2.1,0.3l-0.3-1
		l1-2.1v-2.1l4.5-1l4.5-1l1-3.1l3.1-0.7l0.7,1.7l-2.1,1.4l-0.7,1.7l1.7,0.3l-0.3,1.4l-2.1,0.7l1.7,3.1l2.8,0.3l3.8-0.7l6.9-1.4
		l2.4,2.1l4.8-2.4l1.4-1.4l-0.7-2.4l2.8,0.3l6.9,0.7l1-1.7l1-4.5l-1.4-1l-4.8,3.1l-2.4-0.3l1-3.1l5.2-3.5l-1-4.8l2.4-0.3l-1.4-3.8
		l-3.1-0.3l-3.1-3.5l-1,2.1l1.7,2.4l-1,1l-1.7-0.7l-1,1.4l-2.1,2.4l-7.6-1l-0.7,2.8v2.4l-2.8,2.1l-1.4,1.4l-1.7-1.7
		c0,0-0.7-1.7-0.3-2.1c0.3-0.3,2.1-1.7,2.1-1.7l-0.7-1.4l-1.7,0.7l-1.7,0.3l-0.3-2.4h-2.8l0.3-2.4l2.4-0.7v-5.2l-1-0.3l-2.8-1.4
		v-2.4h1.7l1-1l-1-0.7l-3.5-0.3l-1-5.5l-1-3.1l-2.8-1.4l0.7-3.8l3.8,0.7l3.5-1.4l4.8-0.7l0.7-1.7l-0.7-1.4l-2.1,0.3l-4.8,2.1
		l-2.1-1.4l0.3-2.8l1.4-2.1l-1-1l-2.4,1.7l-3.8,0.3l-3.1-1L229,172l3.5-0.7l1-2.1c0,0,1.7,0.7,2.1,0.7c0.3,0,4.8-1,4.8-1l-2.8-2.8
		l1.4-3.1l-2.1-2.1l-3.5,4.5H229l-2.4-0.7l-3.5-3.5l-3.8-2.1h-3.1l-2.1-3.1l2.8-1.7l-2.1-4.2l-5.5-0.7L202,147l-2.8-1.7v-2.4l1-1
		l2.4-0.3v-3.5c0,0-1.4-5.9-1.7-6.2s-1-9.7-1-9.7l-1-2.1l-8-0.3h-8.3l-0.7,2.1l-0.7,12.1l-2.1,1.4l-4.2-1l-1.7-3.8
		c0,0-5.2-0.3-5.5-0.3s-6.2-1.4-6.2-1.4l-2.1-4.2l-1.4-4.8l-2.4-4.8v-1l1.4-3.1l-3.1-1.4l-3.8,1.4l-4.2-1l-3.1,1.7l-2.1,1l-2.8-1
		L135.9,107.9z"/>
	<path class="st0" d="M105.7,203.2l-2.1-2.8l-3.5-0.3l-4.8-1l-2.1-3.8l0.3-4.5l0.3-3.8h-2.1l-0.7,3.1l-2.8,1.4l-1.4,3.5l-3.8,4.8
		l-1.7,4.5l-1.7,5.9l-0.7,3.5l-2.4,1.7H71h-5.5l-2.4-1.4l-5.2,5.2l-0.3,1.7H60l-0.3,2.4l1.7,0.7h4.5l-0.3,5.2l-8-1h-4.5l-6.2,2.8
		l-6.9,5.5l-6.6,4.5l-6.6,8.3l-4.2,4.8l-0.7,8.3l1.4,0.7l-1,10l0.7,4.2l4.8,1.7l1,1.7l-3.1,2.4l-0.3,2.4l0.7,1.4l-3.5,2.4l0.3,4.8
		l-3.5,1l-6.9,3.5L9,300l-4.8,4l0.7,3.8c0,0,1.7,2.8,1.7,3.1s2.8,5.2,2.8,5.2l-0.3,1.4L7.7,321l2.1,0.7l3.8-2.4H16l2.4-1.7l2.4,1.4
		l1.4,3.8l3.5,1.4l6.9,0.3l0.3,1.7H35l0.7-2.1l2.8-1.4l4.2,0.7l2.4-6.2l-1-1.4l0.3-5.2H52l3.5,2.4l2.4,2.1l5.2-1.4l-0.7-1.7
		l-3.1-3.5l1.4-0.7l6.2,2.8l2.8-0.7l3.5,0.3l2.4,2.1v1.4h1.7L79,312l5.5,1.7l2.8-0.7l3.8,1.4l0.7,2.4l5.9-0.7l-2.1-2.4l1.7-1.4
		l2.4,2.1l1.7-1l-3.5-3.5l4.2-0.3h6.2l11.1-0.3l5.9,2.4l4.2,0.3l2.1,4.5l-1,3.8l1.4,5.9l3.1,0.3l1.4-1.7h1.7l1.7,2.8l2.4-1l-0.3-2.8
		l6.2-3.8l0.3,3.5l-1.4,2.8l1,2.1h4.8l3.5-9.4l-8.7-9.7l1-1.7v-6.2l1.4-1l-0.7-3.8l-4.8-4.2l-5.9,3.1l-10.7,0.3l-1.7-1.4l-1.7-5.5
		l-3.5-0.7l-2.8,1.7l-7.6,0.7l-5.9-0.7l-1.4-3.8l0.7-2.4l-3.1-2.8l-1.7-9.4l-1.4-9l6.6-8.7l6.6-10l-1-3.8l-6.9-1l-4.8-2.1l-2.1-5.2
		l-4.2-2.4l-1.7,0.7l-5.2-2.1l-2.4,3.5h-1.4l-4.2-7.6l1.4-4.5l4.2-0.7l-0.3-2.8l1.4-2.8l4.2-0.7l1-4.5l5.5-3.5l3.8,2.1l3.8-0.7
		L105.7,203.2z"/>
	<g>
		<text transform="matrix(1 0 0 1 145.249 198.4067)" class="st1 st2">Panchagarh</text>
	</g>
	<g>
		<text transform="matrix(1 0 0 1 53.1108 98.0708)" class="st1 st2">Tetulia</text>
	</g>
	<g>
		<text transform="matrix(1 0 0 1 42.6221 274.8311)" class="st1 st2">Atwari</text>
	</g>
	<g>
		<circle class="st3" cx="159.1" cy="153.9" r="13.4"/>
		<text transform="matrix(1 0 0 1 153.0964 161.2222)" class="st1 st4">2</text>
	</g>
</g>
<g id="panchagarh_1">
	<polygon class="st5" points="237.3,186.9 238.4,185.5 241.1,187.9 244.6,188.6 244.3,191.1 241.1,191.8 242.2,192.8 246.3,191.4 
		248.4,192.4 249.1,193.5 246,194.9 246,195.9 249.1,194.9 249.5,196.3 247.4,197.3 247.7,198.3 249.1,198.3 249.5,200.8 
		258.1,200.8 258.1,208 256,209.1 255.7,210.5 255,213.2 255,215.7 252.2,217.7 250.8,219.1 249.1,217.4 248.8,215.7 250.8,213.6 
		250.2,212.2 248.4,212.9 246.7,213.2 246.3,210.8 243.6,210.8 243.9,208.4 246.3,207.7 246.3,202.5 242.5,200.8 242.5,198.3 
		244.3,198.3 245.3,197.3 244.3,196.6 240.8,196.3 239.8,190.4 238.7,187.6 	"/>
	<polyline class="st5" points="240.1,245.8 241.5,243.4 240.1,242 241.5,238.5 243.9,234 246.7,231.9 243.9,231.6 242.2,228.5 
		244.3,227.8 244.6,226.4 242.9,226 243.6,224.3 245.6,222.9 245,221.2 241.8,221.9 240.8,225 231.8,227.1 231.8,229.2 230.8,231.2 
		231.1,232.3 233.2,231.9 236.6,232.6 236.6,235 233.2,236.1 232.8,238.9 236.3,239.9 236.3,242 238,244.7 240.1,245.8 	"/>
	<g id="upa-ran-panchagarh_2">
		<path class="st5" d="M152.8,328.2l0.1,0.1l3.7,2.3l0.7,1.4l-0.3,5.9l4.2,6.2l8.3,7.6l3.5,3.5h2.4l6.6,0.7l10.4,9.7l1,4.2l6.2,10
			l2.8,0.7l-0.7,1.7l0.7,3.1l3.1,0.3l-1,2.4v5.5h2.8l0.3,4.5l3.8,0.3l4.8-5.2v-5.2l4.2-3.5l0.7-8l2.1-0.7v-3.8l-3.1-0.3l-3.8-2.1
			l1-3.8h2.8l-0.3-2.4l-6.6-5.9l-2.1-0.3l-0.3-3.8h3.5l2.4,2.4l3.1-0.7l3.1-5.5l-2.1-1.7l-3.1,2.1l-1.4-3.5l1-3.1l-1.7-3.8l2.8-3.5
			l-3.5-8.7l5.2-9l0.7-2.8l4.2-9.7l5.5-1l6.2,1.7l2.4-1L236,305l-1.4-1l0.3-4.8l-2.1-5.2l2.1-1.4l1-4.8h-3.8l-1-2.1l2.4-3.1
			l-1.7-2.8l-7.3-0.3l-3.1-2.1V276l2.4-0.3l1.4-3.5l4.5-0.3l3.5,2.4l2.1,6.2l0.3,2.4l-1.4,2.1l1,1.4l2.4-1.7l2.1,1.7l-0.7,4.2l1,4.8
			l3.5,2.1l8.7-1.7l0.7-1.4l-1.4-4.5l1-1l3.8-0.3l-0.7-9.7l-1.4-5.5l3.5-4.2l1-3.5l2.1-1l1.4,3.1l2.8-1c0,0,1.7-3.8,1.7-4.2
			s1-4.5,1-4.5l4.5,2.1l1,6.9l2.8,1l1-4.2l2.4-5.2l1.7-1l1.7-3.8l-1-2.8H279l-0.7,2.4l-1.4,0.3l-0.7-2.4h-1.4l-1.4,2.4l-3.5,2.4
			l-3.1,1l-0.3-1.7l3.1-1.7l2.8-3.5l1-3.5l2.8-1.7l0.3-6.9l-3.1,0.3l-1,2.1l1.7,3.8l-1,1l-5.5-2.1l-2.4-0.3v2.8l-1.7,1l-1.7-2.4
			l-3.1,0.7l1,4.2v2.4l-4.8,2.1l-5.2-0.3l-6.2,2.4l-1.7,1l-0.3,6.2l-4.2,4.2l-3.8,2.8l-1-3.1l-6.6,0.7l0.3-2.4l2.8-0.7l-0.3-2.8
			l-2.8-1.4l0.7-5.9l-1.7-3.8l2.4-3.5L227,243l-1.7-1.7h-4.5l-1-0.7l1.7-5.2l-0.3-2.8l2.1-2.1l2.1-1.4l-0.7-2.4l-3.1,0.7l-2.1,1
			l-2.4-2.4l-1,1l0.7,1.4l2.1,1.7l-3.1,1.4h-3.5l-1.4,2.1l-1.7-0.7l0.3-2.1l0.3-2.8l-1.7-2.1l-2.4,1.4l-1.7,2.8l-3.5,2.1l-6.2,2.1
			l-3.8,0.7l-5.5-0.7l-3.5,3.1l-1.4-0.7l1.4-3.8l0.7-4.5l-3.5-2.4l-3.5,1.7l-0.7,4.2l-1.7,2.1l-2.1-1l-2.8-2.1l-3.8,0.7l-0.7,2.8
			l-4.2,3.1l-1.4,2.8l-2.8-1l-1,0.7l2.4,2.8l-0.7,2.4l-6.6-2.4l-1,1l-3.1,1l-1,2.4l-1,1.7l-1.7-0.3l-4.2-3.5H134l-0.3,1.4l1.7,0.7
			l0.7,2.4l-0.3,3.5h-2.4l-0.7,1l0.7,2.1l5.9,3.5l0.3,1l-3.5,0.7l-6.6,1l-2.4-0.7l-1.7,2.4l-5.5,1.7l-1-3.1l-1.7-1l-3.8-0.3l0.3-2.1
			l-0.3-1l-1.7,0.3l-2.1,3.1l-2.4-1l-3.1-4.5l0.3-1h-0.3l-5.5,7.3l3.1,18l3.1,3.1l-0.7,2.4l1.4,3.8l6.2,0.7l7.3-0.7l2.8-1.7l3.5,0.7
			l1.7,5.5l1.7,1.4l10.7-0.3l5.9-3.1l4.8,4.2l0.7,3.8l-1.4,1v6.2l-1,1.7l8.7,9.7"/>
		<polygon class="st5" points="241.8,256.9 238.4,256.5 236.3,253.1 235.6,250.3 239.1,250.3 239.1,249.2 238,248.9 234.9,245.8 
			230.8,243.4 226.9,243 227.3,247.2 224.9,250.5 226.6,254.4 226,260.5 228.7,261.7 228.9,264.4 226.3,265.2 225.9,267.6 
			232.4,267 233.4,269.8 237.3,267.3 241.5,263.1 		"/>
		<path class="st5" d="M205.1,264.5L202,270l4.8,5.5c0,0,3.8,1.4,4.2,1s2.1-2.8,1.7-3.5s-3.1-3.8-3.5-4.5S205.1,264.5,205.1,264.5z"
			/>
		<polygon class="st5" points="210,263.1 214.1,260 217.9,258.6 219.7,260 217.6,262.1 213.1,264.5 211,266.2 209.3,264.5 		"/>
		<polygon class="st5" points="239.1,305.7 242.2,307.1 244.3,305.7 249.1,306 253.6,309.9 254.7,311.9 254.7,313.7 252.6,313.3 
			251.2,311.9 249.8,313 251.9,314.7 251.5,317.1 249.1,317.5 248.1,320.9 248.1,324.1 251.9,326.5 253.6,326.5 255.3,329.9 
			257.1,329.2 255.7,324.1 256.7,323 263.3,327.5 264.4,327.2 264.4,324.1 263.3,322.3 265,319.9 264,315.4 261.6,317.1 
			259.5,317.1 258.8,314.7 257.1,312.6 258.8,311.9 258.5,306.4 256.7,306.4 256.7,304.7 258.1,302.9 256.4,297.7 257.8,292.2 
			256.3,288.2 252.6,288.7 251.5,289.9 252.9,294.3 252.1,295.8 243.6,297.4 240.1,295.3 239.1,290.5 239.8,286.3 237.7,284.6 
			235.3,286.3 234.2,284.9 235.6,282.8 235.1,280.3 233.1,274.1 229.7,271.8 225.2,272.1 223.8,275.6 221.4,276 221.4,277.3 
			224.5,279.4 231.8,279.7 233.5,282.5 231.1,285.6 232.1,287.7 235.8,287.7 234.8,292.7 232.8,293.9 234.9,299.1 234.6,304 
			236,305 		"/>
		<polyline class="st5" points="274.4,238.2 276.1,232.3 277.9,227.8 283.7,228.5 284.8,234 285.8,238.9 285.5,244 288.2,248.2 
			289.3,249.6 289.3,255.8 287.9,258.6 287.9,263.1 284.1,270 284.4,275.2 286.5,280.4 286.2,286.6 285,287 284.1,294.4 
			281.7,299.8 287.9,309.5 293.4,317.5 291.4,323 290.4,330.1 279.9,331.7 278.9,336.7 280.3,346.6 277.2,346.9 276.8,348.3 
			280.3,351.8 284.4,353.1 286.1,358.8 284.4,362.5 286.2,363.9 288.8,359.4 292.1,360.5 297.9,361.5 302.1,362.2 302.1,368 
			296.6,375 292.4,379.5 291.7,383.3 288.2,390.6 284.8,393 282,393 281.7,394.7 286.2,398.9 293.1,403 293.1,406.8 294.8,408.2 
			292.4,416.2 287.9,419.3 283.7,425.2 283.4,429.7 281.3,429.7 282.7,434.9 282,437.7 278.9,439 274,436.6 271.6,439.7 
			267.1,443.2 261.6,443.2 257.4,449.4 254,450.1 245.3,450.8 243.9,448.7 243.6,444.6 230.4,444.6 226.6,446 223.1,444.9 
			218.3,436.3 211.7,427.3 212.1,425.5 209.6,422.4 201.3,419.3 197.5,412.4 201.3,408.9 203.7,405.8 202,399.9 207.6,396.8 
			207.6,398.2 211.6,398.5 216.2,393.3 216.2,388.1 220.4,384.7 221.1,376.7 223.1,376 223.3,372.4 220,371.8 216.2,369.8 
			217.2,366 220,366 219.7,363.5 213.1,357.6 211,357.3 210.7,353.5 214.1,353.5 216.6,355.9 219.7,355.2 222.8,349.7 220.7,348 
			217.6,350 216.3,346.4 217.2,343.4 215.5,339.6 218.3,336.2 214.8,327.5 220,318.8 220.9,315.8 224.9,306 230.4,305 236.6,306.7 
			239.1,305.7 242.2,307.1 244.3,305.7 249.1,306 253.6,309.9 254.7,311.9 254.7,313.7 252.6,313.3 251.2,312 249.8,313 
			251.9,314.7 251.5,317 249.2,317.5 248.1,320.9 248.1,324.2 251.9,326.5 253.6,326.5 255.3,329.9 257.1,329.2 255.8,324.1 
			256.8,323.1 263.3,327.5 264.4,327.2 264.4,324.2 263.3,322.3 265,319.9 263.9,315.5 261.7,317.1 259.5,317.1 258.8,314.7 
			257.1,312.7 258.8,311.9 258.5,306.4 256.7,306.4 256.7,304.7 258.1,302.8 256.4,297.7 257.8,292.2 256.2,288.1 255.7,278.7 
			254.3,273.1 257.8,269 258.8,265.5 260.9,264.6 262.3,267.6 265,266.6 266.8,262.4 267.8,257.9 272.3,260 273.4,266.9 
			276.1,267.9 277.2,263.8 279.6,258.7 281.4,257.5 283.1,253.8 282,251 279.2,251 278.6,253.4 277.2,253.7 276.4,251.4 
			275.1,251.3 273.6,253.8 270.2,256.2 267.1,257.2 266.8,255.5 269.9,253.7 272.6,250.4 273.7,246.8 276.5,245.1 276.8,238.2 
			274.3,238.5 274.4,238.2 		"/>
		<g>
			<text transform="matrix(1 0 0 1 163.4941 289.8672)" class="st1 st2">Boda</text>
		</g>
		<g>
			<text transform="matrix(1 0 0 1 228.665 379.0137)" class="st1 st2">Debiganj</text>
		</g>
	</g>
	<g>
		<circle class="st3" cx="186.1" cy="310.9" r="13.4"/>
		<text transform="matrix(1 0 0 1 180.0964 318.2222)" class="st1 st4">1</text>
	</g>
</g>
</svg>
