<?xml version="1.0" encoding="utf-8"?>
<!-- Generator: Adobe Illustrator 25.2.1, SVG Export Plug-In . SVG Version: 6.00 Build 0)  -->
<svg version="1.1" id="Layer_1" xmlns="http://www.w3.org/2000/svg" xmlns:xlink="http://www.w3.org/1999/xlink" x="0px" y="0px"
	 viewBox="0 0 332 403" style="enable-background:new 0 0 332 403;" xml:space="preserve">
<style type="text/css">
	.st0{fill:#C5CFED;stroke:#FFFFFF;stroke-width:1.033;}
	.st1{font-family:'TimesNewRomanPSMT';}
	.st2{font-size:13.9612px;}
	.st3{fill:#FFFFFF;}
	.st4{font-size:24.672px;}
	.st5{fill:#9BB6EA;stroke:#FFFFFF;stroke-width:0.5;stroke-miterlimit:10;}
	.st6{fill:#ABBEED;stroke:#FFFFFF;stroke-width:0.5;stroke-miterlimit:10;}
</style>
<g id="Chapainawabganj-1">
	<path class="st0" d="M1.6,217.4l0.3-1.7l2.6-2.9l0.7-1.6l6.3-6.8l7.4-6.9l6.4-7.3l3.7-4.5l1.9-0.4l1.4,0.8l1.3-3.3l2.2-2.1
		c0,0,1.5-1.5,1.5-1.6s2.4-5.6,2.4-5.6l2.3-7.9l2-2.9c0,0-0.2-1.4-1.1-2.1c-0.9-0.7-2.9-3.4-2.9-3.4l1.4-1.7l2.7-3.6l1.5-1.6
		l-2.8-1.4l-0.3-1.3l0.8-1.4l-1.5-2.2l2.1-2.3l0.8,0.2l1.5,2.1l1.4,0.8l0.9-0.6l3.3-5.4l3.3-3.4l2.5,0.9l4.3,2l3.3,0.1l1.1-1.7
		l0.1-4.1l-1.4-0.9l0.5-7.3l0.7-2.8l3-6.2l1-2.3l1.8-1l2.2-2.5l1.4-0.5l0.6,2.2l2.5,5.3l2.3,3l2.8,0.5l2-0.2L84,114l0.5-5.7
		l-0.3-5.4l-1.6-2.7l0.1-2.1l2.1-0.8l0.9,2.2l3.1,0.5l0.5-0.9L89,96.3l1.1-2.4l1.8-0.7v-3.1l0.6-2.7h1.2l1.5,0.7l1.5,0.5l2.8-0.7
		l2.3,1.5l2.8-1v-2.5l-0.9-2.8l0.5-0.8l3-1l5.2-0.6l4.6,1.6l2.4-0.3l2.9-2.3l2.8-2.7l1.9-0.2l0.6,1.4l-0.8,1.9l0.8,1.3l0.9-0.1
		l0.5-1.7l0.8-0.2l1.2,1.3l-0.1,1.1l-1.6,0.5l-0.3,1l0.2,1.8v2.2l1.1,1.3l1.8-0.8l2.6,1.2l0.8,0.6l-0.4,2.6l-0.9,2.6l-1.9,1l0.1,1.5
		l1.2,1.5v3.6l1,1.3l1.2,0.2l1.7-1h0.5l0.6,1.7l0.4,2.2l-0.3,0.7l-1.5,0.9l-2.2-0.1l-1.3,0.3l-0.3,1.3l1.6,0.8l1.2,0.5l-0.1,1.6
		l2.3-0.2l2-0.3l1.5,1.2l0.4,1.6l2.3,1.2l1.5,0.1l0.9,2.4l1.7,0.6l0.8,1.6c0,0,0.9,1.7,1,1.7s1.6,0.6,1.6,0.6l-0.5,2.1l-0.1,2.6
		l1.2,1.7l0.1,1.7l-4.2,5.8l-2.4,3.2l-0.3,2.1l-0.5,1.7l-1.3,0.3l-1.7-0.1l-1.6,1l-1.2,0.9l0.3,0.7l1.3-0.2l1.5,0.9l1.2-0.6l2.3,0.4
		l0.4,1.4l1.7,1.5l5.3,0.3l5.3,0.1l2.7,1.3l3-0.7l2.6,0.4l1.9,1l2,4.4l1.9,3.7l-0.6,1.7l2.4,4.7l4.1,3.6l2.4,4.3l0.8,1.7l-1.3,3
		l-3.7,4.9l-1.2,1.1l-15.4,12.3l-2.9,3.2l-0.3,3.3l3.6,4.7l6.4,3.1l5.1,0.2l12.3-7.5l2.6,0.5l2.8,2.9l0.5,6.7l-1.6,4.2l-1.8,1
		l-2.8-1.6l-10.8,3.3l-1.5,1l-2-0.6l-1.8,0.1l-0.7-1.2l-1.3,2l-2.2,0.7l-2.1-2.1l-0.6,1l0.5,2.1l-1.3,2.3l-2.2,0.8l-1.8,2.4
		l-1.9-1.9l-1.5-1.9h-2l-0.3,3.1l-0.5,2.3l0.5,0.9l1.8-1.5l0.2,2.8l1.5,2.1l-4.4,3.6l-1.2,2.5l1.5,3l2.6,2.8L152,250l-2-1.1l-5-3.8
		l-1.4-0.1l-2.2,0.7l-2.1,0.7l-0.8,1l1.8,1.3l2-0.3v2.5l0.7,1l-1.6,3l-2.3-1.2l-1.2-1.6l-1.4,0.5l-1.3,4.9l-3.4,1.8l-4.8-4.7
		l-1.6-3.6l-3.8-1l-3.6,1.3l5.5,4.1l-0.5,0.7l-3.8-2.8l-0.2,1.6l3,2.5l1.6-0.5l1.5,0.8l-0.5,0.7l-2,0.7l-1.1,1.3l3.8,2.9l-0.6,1.2
		l-1-0.2l-1.8-1l-1.5,0.5l-0.2,2l1.8,1.8l2-0.8l2.6,1.6l1.6,2l-0.8,3.1l-0.5,1.3l1,1.6l2.3-0.6l2.1-4.4l1.6,1l3.4-1l7.4,5.4
		l-2.3,6.7l1.1,1.5l-0.8,2l-1.8,0.5l-0.7-1l0.2-2l-1-1.1V282l-5.4-3.3l-1.6,0.2l-0.2,1.3l6.1,3.5l-0.8,2.1L135,285h-1.8l-1.2,1
		l-2.4,0.3l-4.8-3l-4.4-1.6l-0.7-1l0.8-1.6l-2.5-0.7l-2.1-1.8l-3.1,2.6l-4.4-3.4l-4.9,3.1l-3.4-2.1l-4.1,3.6l-2.8-3.1l-2.6-1.1
		l-1.1,1.5l-0.7,1.5l-14.1-1.5l-2.1,1.3l1,5.6l0.5,2.3l-0.5,1.6l-4.1-1.3l-6.9-2.5h-6.9l-3.3,0.5l-1.2-1l-0.8-2.6l-4.2-8.2l-3.6-5.3
		l-1.7-2.2l-0.6-2.3L32,251.2l-8.4-13.9l-0.3-2.3l-1.3-1.6l-6.4-2.7l-2.2-1.7l-2.2-3.6l-5.1-4l-3.7-3L1.6,217.4z"/>
	<g>
		<text transform="matrix(1 0 0 1 81.9609 203.4004)" class="st1 st2">Shibganj</text>
	</g>
	<g>
		<circle class="st3" cx="99.4" cy="168.8" r="13.4"/>
		<text transform="matrix(1 0 0 1 93.4581 176.0736)" class="st1 st4">1</text>
	</g>
</g>
<g id="Chapainawabganj-3">
	<polygon class="st5" points="183,400 201.7,386.7 209.2,377.5 202,371.5 196.1,359.4 192.2,351 192.3,343 195.8,334.6 195.9,331.5 
		197.2,328.9 196.4,315.9 194.3,308.7 192.2,302.8 189.5,295.4 189.9,294 191.3,294.8 194.1,294.8 194.3,294 192.8,292.3 
		193.6,289.9 196.9,289.5 200.4,291.8 202.8,289.4 205.1,288.9 206.1,285.4 207.7,285.1 210.7,280.8 209.9,279.4 212,277.2 
		215.8,278.4 218.1,278.9 220.2,277.6 222.2,275.3 225.6,272.8 225.8,269.2 227.2,268.2 229.7,266.6 231.2,267.1 231.5,269.2 
		234,270 234.3,271.8 234.3,274.1 235.3,274.1 235.9,272.8 235.1,269.7 236.1,267.4 238.9,266.7 240.2,268.1 242,267.6 244.1,269 
		248.4,270.4 250.5,269.4 251.7,266.6 252.6,266.6 253.5,267.4 254.6,267.4 254.6,266.3 254,264.5 256.7,264.1 259.4,263 
		261.2,263.5 262.2,261.7 266.3,258.9 270.4,258.2 271,257.6 269,254.6 268.9,250.5 268.7,247.1 268.9,245.4 265.8,242.5 
		265.3,240.7 262.8,240.2 261.3,238.4 257.6,240.4 254.8,239.5 251.8,234.5 250.7,234.5 249.7,235.9 245.3,232.7 243.3,232 
		242.7,233 244.5,237.1 245.6,239.5 245.3,241.3 243.6,241 241,237.6 239.4,236.6 237.2,237.1 234.6,240.7 233.3,240.5 233.3,236.3 
		232.3,235.8 230,236.6 225.4,236.1 225.4,235.3 227.4,233.8 226.6,232.7 223.3,235.4 221.8,236.9 220.9,236.3 221.2,230.9 
		220.5,229.7 221.3,227.7 224.8,227.9 225.6,226.6 224.3,224.1 224.9,221.2 224.3,219.2 221.5,219 220.4,219.9 219.4,217.9 
		220.4,215.9 218.7,214.6 219.7,211.8 218.6,210.7 216.6,210.7 215.1,212 211.2,210 209,205.4 205.4,202.2 201.7,201.5 198.4,202.5 
		196.1,202.2 195.1,201 196.3,199.2 196.4,197.7 195.3,197.2 192.8,198.2 191.3,197.6 190,195.6 188.1,194.5 188.6,192 187.7,191.3 
		186.8,190.7 187.6,189.1 184,187.4 181,188.7 178.6,188.4 175.9,186.1 169.2,191.2 160.5,198.4 157.6,201.7 157.3,205 160.9,209.7 
		167.3,212.8 172.3,213 179.7,208.4 184.6,205.4 187.3,205.9 190,208.9 190.5,215.6 188.9,219.9 187.1,220.9 184.3,219.2 
		180.5,220.4 173.5,222.5 172,223.5 170,222.8 168.2,223 167.6,221.8 166.3,223.8 164.1,224.5 162,222.3 161.4,223.3 161.8,225.4 
		160.5,227.7 158.4,228.6 156.6,231 154.6,229 153.2,227.2 151.2,227.2 150.9,230.4 150.4,232.7 150.9,233.6 152.7,232.2 
		152.8,234.9 154.3,237.1 149.9,240.7 148.7,243.1 150.2,246.1 152.8,248.9 152,250 150,248.9 145.1,245.1 143.7,244.9 139.4,246.4 
		138.6,247.4 140.4,248.7 142.3,248.4 142.3,250.8 143,251.8 141.4,254.8 139.1,253.6 137.9,252 136.4,252.5 135.8,255.1 
		135.1,257.4 131.7,259.2 126.9,254.5 125.3,250.8 121.5,249.9 117.9,251.2 123.5,255.3 123,255.9 119.2,253.1 119.1,254.8 
		122,257.2 123.7,256.7 125.1,257.6 124.6,258.2 122.7,258.9 121.5,260.2 123.8,262 125.3,263.1 124.6,264.3 123.7,264.1 
		121.9,263.1 120.4,263.6 120.2,265.6 122,267.4 124,266.6 126.6,268.2 128.2,270.2 127.4,273.3 126.9,274.6 127.9,276.3 
		130.2,275.6 132.3,271.2 134,272.2 137.4,271.2 144.8,276.6 142.5,283.3 143.7,284.8 142.8,286.7 141,287.2 140.4,286.2 
		140.5,284.3 139.6,283.1 139.6,282 134.1,278.7 132.5,278.9 132.3,280.2 137.3,283 138.4,283.6 137.6,285.8 135,284.9 133.2,284.9 
		132,285.9 129.6,286.2 124.8,283.3 120.4,281.7 119.7,280.7 120.5,279 118.1,278.4 116,276.6 112.8,279.2 108.4,275.8 103.5,278.9 
		100.1,276.7 96,280.3 93.2,277.2 90.5,276.1 89.4,277.6 88.7,279 81,278.1 74.6,277.6 72.5,278.9 73.5,284.4 74,286.7 73.5,288.4 
		69.2,287.1 62.5,284.6 55.6,284.6 52.4,285.1 51.2,284.1 50.6,285.8 52.2,289 55.8,297.1 68.3,310.8 79.4,322.5 84.3,329.4 
		89.7,334.1 107.4,343.9 117.3,361.6 131.4,370.5 146.3,371.6 167.6,379.5 176.1,390.2 	"/>
	<g>
		<text transform="matrix(1 0 0 1 84.0903 310.2793)" class="st1 st2">Chapainawabganj</text>
	</g>
	<g>
		<circle class="st3" cx="174.4" cy="271.8" r="13.4"/>
		<text transform="matrix(1 0 0 1 168.4581 279.0736)" class="st1 st4">3</text>
	</g>
</g>
<g id="Chapainawabganj_2">
	<path class="st6" d="M148.7,119.3l1.3-2.6l1.4,0.1l2-2.3l1.8-1.4l-0.4-1.5l0.9-1.5l0.1-2.2l0.8-2.6l0.1-2.1h-0.9l-1.2,0.6l-1.5-0.7
		l-0.7-3.3v-5.7l-1.3-3.4l-0.2-3l-1.3-2l-0.9-2.6l1.2-2.2l1.7,0.6l4,3.9l2.8,5.7l1.3,4.3l4.5,0.8l1.3-1.2l1-4.5l1.1-6.8L169,81
		l-0.1-1.5l-2.9-2.6l-1.1-2.5l1.8-4.6l1.9-3.1l2.4-6.1l0.2-9.6l-0.1-9l-1.9-4.5l-4.9-4.8l-5.7-6.9l-6.8-5.5l-1.5-3.9l-3.4-5.3
		L142.5,9l-8.1,0.7l-6.2,2.3l-4.6,1.8l-3.1,1.9l-1.2-0.8l-1.2-1l-4.8,4.9l-1.6-0.3l-2-1.2l-2,0.3l-2.6,2.6l-1,2.9l-1.3,0.8l-1.5-0.7
		l-0.8,0.8l0.2,2.8L99,28.7l-3.4,0.8l-2.7-0.8l-0.4-2.3l-1.7-0.2L87.4,27l-0.5,1.2l0.6,12.4l0.5,1.9l0.6,0.8l1.6-0.5l1.9,0.9
		l2.4,2.4l3.2,4.1l0.9,1.2L98,52.7l-0.9,0.4L97,54.2l1.1,0.3c0,0,1.1,0,1.2,0s2.6-0.4,2.6-0.4l0.1,1.6l0.5,1.5l1.2,0.4l1.8-1.2
		L107,58l0.4,1.1l-0.6,1.1c0,0,0,1.5-0.1,1.5s-1.2-0.1-1.2-0.1l-0.7-1.4l-1.2,0.4h-1.9l-1.7-2.1h-1.1l-2.6,4.1l-0.1,1.3l1.7,1.6
		l3.2,1.2l1.4,0.3l1,1.6l-0.4,1l-2.1,1.1l-0.7,0.8l0.2,1.3l2.6,4.1l2.8,2.4l4.4,0.6l1.9,0.6l4.6,1.6l2.3-0.3l2.9-2.4l2.8-2.7
		l1.9-0.2l0.6,1.4l-0.8,1.9l0.8,1.3l0.9-0.1l0.5-1.7l0.8-0.2l1.2,1.3l-0.1,1.1l-1.5,0.6l-0.3,1l0.2,1.8v2.2l1.2,1.3l1.8-0.8l2.6,1.2
		l0.8,0.6L135,92l-0.9,2.6l-2,1l0.1,1.5l1.2,1.5l-0.1,3.6l1,1.3l1.2,0.2l1.7-1h0.5l0.6,1.6l0.4,2.1l-0.3,0.7l-1.5,0.9l-2.2-0.1
		l-1.3,0.3l-0.3,1.3l1.6,0.8l1.1,0.4v1.6l2.3-0.1l2-0.3l1.5,1.2l0.4,1.6l2.3,1.2l1.4,0.1l0.9,2.4l1.7,0.6L148.7,119.3z"/>
	<path class="st6" d="M172.6,162l1.6,1.4l3.7-2.2l1.4,0.1l5.8-4.3l2.7-1.3l1.7,0.3l0.5,2.6l2.9,3.3l0.9,0.4l1.4-0.4l1.3,0.9l2.8-0.8
		l5.6,2.3l1.5,0.4l3.2,2.7l1.1,0.3l0.7,1l1.1,0.2l1.5-0.8l2-3.8l-0.2-1.5l-0.2-4l0.7-1.8l-0.5-1.4l-3-2l-1.3-2.4c0,0-0.8-1-0.8-1.1
		s0.3-2.8,0.3-2.8l-1.3-0.4l-1.6-0.8l1.1-6.5l1.8-3.2l0.5-2.1l-0.8-1.8l1.5-3l-0.2-2.1l0.7-1.7l0.7,0.2l1.1,1.3l1-0.1l1.6-1.5
		l1.8-0.3l1.8-1.2l1.5-0.2l1.6,0.8l1.1-0.4l2.2-2.2l1.6-0.6l1.4,0.5l1.1,3l0.5,1.3l0.9-0.1l2.6-2.5l1.8-1.3l1.8,0.2l1.6,2h1.1
		l2.2-2.7l0.5-0.8l1.1,0.1l1.6,0.1l1.8-1.1l0.8-1.3l-0.3-1.5l0.3-1.6l-1.7-1.2l-0.9-1.6l0.7-2.1l-0.2-2.2l0.6-2.7l-0.8-2.2l0.2-2.4
		l0.7-0.3l0.7,0.6l0.2,2.3l0.9,0.8l1.3-0.2l2.3-1l1.2,0.3l0.5,1.3h1.1l2.3-2.3l0.1-1.6l-1.2-1.6l-1.8-0.9l0.1-0.9l0.7-0.1l2.3,0.4
		l1.6-0.1l1-1.5l-0.3-3.8l0.2-2.4l1.1-0.8h2l1.3,0.5l0.8,1.8l0.1,1.9l0.5,0.4l0.7-0.5l1.1-1.9l1.1-0.5l1.8,0.3l0.8,1l-0.2,2.6
		l0.4,0.9l1.3,0.4l1.7,0.3l1.4,1l1.3,0.2l1.3-0.7l2.4-4l1-0.3l3.2,0.6l2.8,1.2l2.1,0.3l1-0.8v-2.1l-3-3L289,88l-1.3-0.8l-2.8-0.2
		l-0.2-0.7l1.8-3.5l1.3-0.8l2.6,0.6L294,85l2.6,2.2l2.1,4l1.9,2.7l1.5,0.9l1.7-0.5l1.4-2.5l-0.5-3.1l-0.1-4.8l0.2-2.3l1.4-1.9l2.4-1
		l1.6-1.9l2.3-2l0.7-2.4l0.3-2.7l1-1.9l1.6-1.2l0.1-1.2l-1.2-2l-0.9-1.8l-0.5-4.2l-0.8-2.9l0.1-2.7l0.7-2l1.8-1.1l2.9-0.6l1.3-0.5
		v-0.7l-0.8-1l0.4-2.3l0.2-1.4l-1.1-2.5l0.4-2.3L318,35l-1.7-2.3l-2.3-1.5l-2.2-0.6l-2-1.2l-2.4-2.1l-1.1-1.1l-1.9-0.2l-3.1,1.4
		l-3.2,1.8l-2.7,0.8l-1.5,0.3l-0.5,0.8l-0.6,2.3l0.5,0.8l1.4,0.3l2.5,1.7l0.1,1l-1.6,2.4l-1.5,0.7l-2.5,0.1l-1.8-1.4l-3.4-0.9
		l-1.6-0.5l-1.2-1.5l-1.2-3.4l-2.8-1.4l-0.1-0.6l0.3-0.8l0.7-0.5l-0.5-5.3l0.4-4.2l0.9-2.8l1.2-1.5l0.6-2.3V11L281,8l-3.2-2.1
		L274.5,5h-2.2l0.2-0.9H272l-1.2,0.8l-2.5,1.7L266.8,7l-1.4-0.7l-2,0.2L261.6,8l-2.3,0.8l-1,0.1l-2.1-1.1l-0.3,0.9l-0.5,2.2l0.8,1.2
		l1.8,0.4l0.8,2.4l0.5,2.5l1.3,1.7l-0.4,0.9l-1.3,1l-1.3,0.2l-0.7,1.9l-0.4,1.3l-0.9,0.7h-1.3l-0.5-0.7l-0.8-0.9l-0.5,0.3l-0.1,1
		h-0.7l-1-0.7l-0.6,1v0.8l-1.3,0.5l-2-0.4l-2.2-1.3l-2.7-1c0,0-1.8-0.8-2.1-0.9c-0.2-0.1-3.2-1-3.2-1l0.1-0.7l1.3-0.5l-0.2-0.7
		l-1.9-0.1l-0.1-0.8l1.5-1.7l-0.5-1.1l-0.8,0.2l-1,1.2l-1-0.5l-0.7-1l-1.2,1.1L233,19l0.3,0.7l-0.4,0.8h-1.5l-1.2,1l-0.6,2.4l-1,0.5
		l-0.8-1.3l-1.1-1l-0.8,0.7c0,0-1.6,0.9-1.8,0.9s-2.2-0.1-2.2-0.1l-1.5,2.5l-2.2,7.1c0,0-0.7,2-0.7,1.9s-1-1.2-1-1.2l-0.6,0.6
		l0.9,2.7l-0.4,2l0.1,1.5l-0.4,0.8l-2.5-1.4l-0.8,0.1l-0.2,1.7l-1.1-0.5l-0.8-0.8l-0.9,0.8l-0.1,2.2L211,46l0.4,3.7l0.6,1.8l1.8-0.4
		l1-0.7l1.7,0.8l-0.8,4.2l0.3,0.8h1.2l2.2-1.6l3.1,0.6l1.1,2.3l-0.9,2.4l-0.7,1.6l-0.8,1.3l-0.3,2.3l-2.1,2.8l-0.9,1.7l-1.6,0.1
		l-0.7,2.3l-1.1,1.4l-1.5,1.5l-2.9-1.2l-2-2l-0.3-2.6l-1-3.1l-1.1-0.5l-1.7,1.8l-1.1,0.2l-1.9,1.4l-2.1,1.4l-1.2,1.4l-1.2,2.4
		l-1.3,0.3l-0.5-0.8l-0.4-2l-1.8-3.7l0.4-1.4l1.3-0.5c0,0,0.6-1.5,0.6-1.6s-0.1-0.9-0.1-0.9l-1.3,0.6l-0.6,0.9l-0.4-1.5l-1-1.3
		l-3.2-0.8l-2.2,0.9l-0.7,1.1h-1.1l-0.3-1.8l-2.7-0.9l-0.9,1.6l-1.2-0.2l0.1-2.2c0,0-0.9-0.8-0.8-0.9c0.2-0.1,0.8-1.4,0.8-1.4
		l-0.3-2l-2.7,0.5l-2.2,1.2l-0.7,2.8V62l-1.1,1c0,0-0.2,4.3-0.1,4.3c0.1,0-0.4,1.9-0.4,1.9l-1.8,0.5l-2.4-0.5l-0.6-0.4l-0.4,0.8
		l-1.8,4.6l1.1,2.5l2.9,2.6l0.1,1.5l-1.4,2.7l-2,11.5l-1.3,1.2l-4.5-0.8l-1.3-4.3l-2.8-5.7l-4-3.9l-1.7-0.6l-1.2,2.2l0.9,2.6l1.3,2
		l0.2,2.9l1.3,3.5v5.7l0.7,3.3l1.5,0.7l1.2-0.6h0.9v2.1l-0.9,2.6l-0.1,2.3l-0.9,1.5l0.4,1.5l-1.8,1.4l-2,2.3h-1.4l-1.3,2.6l1.6,3.2
		l1.6,0.6l-0.5,2.2l-0.1,2.6l1.2,1.8l0.1,1.7l-6.6,9.1l-0.3,2.1l-0.5,1.7l-1.3,0.3l-1.7-0.1l-1.7,1.1l-1.1,0.8l0.3,0.7l1.3-0.2
		l1.5,0.9l1.2-0.6l2.3,0.4l0.4,1.4l1.7,1.5l10.6,0.4l2.7,1.3l3-0.7l2.6,0.4l1.9,1l3.8,8.1L172.6,162z"/>
	<path class="st6" d="M268.8,246.2l1.9-0.3l2.2,0.8c0,0,2-1,2-1.1l1-3.3l0.3-3.9l-1.1-1.7l-2-0.1l-2.7-1.1l-0.9-1.3l1.1-1.5l1.6-0.3
		l2.4,0.3l1-0.7l1.4,0.6l1.1,0.7l0.6-0.6l0.8-3.6l-0.2-2.7l-0.4-3.4l0.8-1.7l2.4-0.7l1.8,1.2l2.9,2.5l2.5,0.8l3,0.3l1.4,2.2l2.2,0.9
		l3-1l0.2-1.7l0.6-0.6l2.5,1.8l1.7,1l0.8-0.1l0.6-1.6l0.7-0.6l1,0.9l1.8,0.6l2.6-0.1l1.4,1.5h1.6l1-0.4l0.2-2.4l-0.3-0.8l-1.7-0.1
		l-0.5-0.4l0.4-0.8l1.9-1.5l1.3-2.1h1.1l1.2,1.2l1,0.6l1.8,0.1l0.6-0.9L322,219v-2.8l0.7-0.5l1.6,1l2.6,1.3h1.2v-0.9l-0.1-2l0.6-2
		l-0.2-2.2l-0.7-0.5l-1.2,0.3l-1.4,0.1l-1.8-0.9l-1.6,1.8l-0.9,1h-2.1l-2.7-0.1h-1l-0.3,0.8l-0.4,1.4l-0.6,0.4h-2l-2.5-2l-1.3,0.1
		l-0.9,0.8l-0.1,1.6l-1,1.9l-0.7,1.6c0,0-0.5,1.3-0.6,1.2c-0.1,0-1.4,0-1.4,0l-3.5-1.9l-4.1-1.9l-3-1.6l-0.8-0.9l0.2-1.5l2.2-3.6
		l1-0.5l1.3,0.2l1.9,0.8l2.4-0.8h1.8l2.3,1.6l2.6,0.9l1.1,0.4l2.1-1.7l0.3-1.6l0.1-1.4l2.7-1.2l0.6-1.2v-3.3l0.5-3.5l-0.2-1.5
		c0,0-1-1.2-1.1-1.2c0-0.1,0.2-2.4,0.2-2.4l1.4-0.6l1.4,0.1l1.4-1l1.9-0.2l1-1.7l0.2-3.8l0.6-1.1h2.3l1-0.7l0.2-1.9l0.6-4.4l0.9-1.4
		l1.4-0.5l-0.2-0.8l-1.8-0.9l-1.6-0.1l-2.1-1.1l-2-1.8L320,170l-0.9,0.6h-0.9l-2-0.5l-1.1,0.7l-1.1,2l-3.5,0.2l-2.9-0.5l-2-1.6
		l-1.4,0.7l-0.7-0.6l-1.2,0.5v2.5l-0.5,0.3l-3.9-0.8l-1.3-0.1l-0.5-0.9l0.7-4.1c0,0,0.1-1.7,0.4-1.8s1.1-1.7,1.1-1.7l0.2-3.5
		l-1.6-1.2h-3.1l-1.1-0.5l-0.2-1l1.9-2.6l0.3-1.3l-0.2-1.4l1.5-0.4l1,0.4l1.1-0.4l0.9-0.4l2.5,1.7l0.9,0.8l2.2-0.7l0.5,0.5l-0.5,2.4
		l0.8,1.5l-1.1,2.2l0.2,1.1l1.2,1.2l1.1,0.1l1.2-0.3l2,2.1l1.2,1l0.9-0.1l0.9-2.2l1.7-0.4l0.8-1l-0.1-2.3l-1-1.6l-0.2-1.2l0.6-1
		l1.7-1.1l0.2-2.6l0.7-1.4l0.1-2.6l1-1l0.2-0.4l-0.3-0.4l-1.1,0.2l-0.9-0.6l-0.5,0.2l-1.5,1.6l-1-1l-1.4-0.6l-1.8-1.1l-1.5-1.2H308
		l-0.6,0.9l-0.8,2.3l-0.2,1.9l-1.4,1.9l-1.7-0.3l-2-1.1l0.2-1.9l-0.4-0.9L297,147l-3.1-1.1l-0.5-1.1l0.9-2.1l-0.6-1l-1.2-0.1
		l-0.2-1.7l-1.1,0.2l-0.7,1l-0.9-0.1l-0.8-0.2l-1.4,1.1h-1.5l-1-1.5l-1-0.1l-0.7,0.5l-0.7-1l-1,0.4l-0.5-0.6l-1.4,0.4l-0.6,1l-0.3,2
		h-0.8l-0.9-0.3l-0.3,0.7l0.4,0.7L277,145l-0.9,0.4l-3,0.3l-2,0.5l-2.8,0.2l-1.7-0.1l-1.5-1.2v-1.5l1.3-1.5c0,0,1.9-0.5,2-0.6
		s1.4-1.7,1.4-1.7l0.3-1.1l-0.2-1.5l0.2-0.6l1.7-1.3l0.6-0.1l1,1l0.6-0.1l0.5-0.4l1.2,0.9l0.9,0.3l0.3-0.5l0.2-1l0.4,0.2l0.7,1.4
		h0.5l0.2-0.6l-0.1-1.8l0.2-2.1l-1.5-2v-1.4l1.2-3.2l0.5-2.5l0.2-1.6l0.6-1h1.4l1.2,2.4l0.8,0.2l1.2-1.9l0.4-1.4l-0.6-2.3l0.1-2.7
		l1.3-1.9l0.4-2.2l-0.6-1.7l-1-0.3l-1.5,1.1l-0.8,0.4h-1l-1,0.3l-0.5,0.9l-0.4,2.2l-0.6,0.9l-1.4-0.1l-2.4-0.8l-1.6-0.7v-1.9
		l-0.5-1.6l-1-0.5l-1.3,0.2l-1.3,1.2h-2.8l-1-0.3l-2-0.2l-0.4-0.8l1-1.7l0.7-1.5l0.5-1.7l2,0.3l1.3-0.1l0.2-1l-0.9-2.7v-1.5
		l-0.1-1.1l-0.7-1.1l-0.4-1.2l-1.4,0.6l-2.2,0.2l-0.8,0.9l0.3,0.6h2.8l0.4,1.5l-0.7,1.7l-1.5,1.5l-1.3-0.7l-1.8-0.4l-1.1,1.3l-1.3,2
		l0.4,1.4l-1.2,2.1l-2.1,0.8l-0.9,1.5c0,0-1.3,1.1-1.5,1.1s-2.5,0.5-2.5,0.5l-1.6-1.4l-1.3-0.7l-0.7,2l0.9,1.6l1.7,1.2l-0.3,1.6
		l0.3,1.5l-0.8,1.3l-1.8,1.2l-1.7-0.1l-1.1-0.1l-0.5,0.8l-2.1,2.7h-1.1l-1.7-2l-1.7-0.1l-1.9,1.3l-2.6,2.5l-0.9,0.1l-1.3-3.4
		l-0.3-0.9l-1.4-0.5l-1.6,0.6l-2.2,2.2l-1.1,0.4l-1.6-0.9l-1.5,0.2l-1.8,1.2l-1.8,0.3l-1.6,1.5l-1,0.1l-1.1-1.3l-0.7-0.2l-0.7,1.6
		l0.2,2.1l-1.5,3l0.8,1.8l-0.5,2.1l-1.8,3.2l-1.1,6.5l1.6,0.8l1.3,0.4l-0.3,2.8l0.8,1.1l1.3,2.4l3,2l0.6,1.3l-0.7,1.8l0.2,4l0.2,1.5
		l-2,3.7l-1.5,0.8l-1.1-0.2l-0.7-1l-1.1-0.3l-3.2-2.7l-1.5-0.4l-5.6-2.4l-2.8,0.8l-1.3-0.9l-1.4,0.4l-0.9-0.4l-2.9-3.3l-0.5-2.6
		l-1.7-0.4l-2.7,1.3l-5.8,4.3l-1.4-0.1l-3.7,2.2l-1.6-1.4l-0.3,0.8l2.4,4.7l4.1,3.6l2.5,4.5l0.7,1.5l-1.3,2.9l-3.7,5l-1.1,1l2.6,2.3
		l2.4,0.3l3-1.3l3.6,1.6l-0.8,1.6l1,0.7l0.8,0.6l-0.5,2.5l2,1.1l1.3,2l1.5,0.7l2.5-1l1.1,0.5l-0.2,1.5l-1.2,1.8l1,1.1l2.3,0.3l3.3-1
		l3.8,0.7l3.6,3.3l2.1,4.6l4,2l1.5-1.3h2l1.1,1.1l-1,2.8l1.6,1.3l-1,2l1,2l1.1-0.8l2.8,0.2l0.7,1.9l-0.7,3l1.3,2.5l-0.8,1.3
		l-3.4-0.2l-0.8,2l0.7,1.1l-0.3,5.4l1,0.7l1.5-1.5l3.3-2.8l0.8,1.1l-2,1.5v0.8l4.6,0.5l2.3-0.8l1,0.5v4.3l1.3,0.2l2.6-3.6l2.1-0.5
		l1.6,1l2.6,3.4l1.6,0.3l0.3-1.8l-3-6.5l0.7-1l2,0.7l4.4,3.3l1-1.5h1.1l2.9,5.1l2.8,0.8l3.8-2l1.5,1.8l2.5,0.5l0.5,1.8l3.1,3
		L268.8,246.2z"/>
	<g>
		<text transform="matrix(1 0 0 1 109.834 52.2388)" class="st1 st2">Bholahat</text>
	</g>
	<g>
		<text transform="matrix(1 0 0 1 173.792 99.0796)" class="st1 st2">Gomosapur</text>
	</g>
	<g>
		<text transform="matrix(1 0 0 1 233.0137 181.6221)" class="st1 st2">Nachol</text>
	</g>
	<g>
		<circle class="st3" cx="254.4" cy="65.8" r="13.4"/>
		<text transform="matrix(1 0 0 1 248.4581 73.0736)" class="st1 st4">2</text>
	</g>
</g>
</svg>
