<?xml version="1.0" encoding="utf-8"?>
<!-- Generator: Adobe Illustrator 25.2.1, SVG Export Plug-In . SVG Version: 6.00 Build 0)  -->
<svg version="1.1" id="Layer_1" xmlns="http://www.w3.org/2000/svg" xmlns:xlink="http://www.w3.org/1999/xlink" x="0px" y="0px"
	 viewBox="0 0 380.5 366.5" style="enable-background:new 0 0 380.5 366.5;" xml:space="preserve">
<style type="text/css">
	.st0{fill:#6899E0;stroke:#FFFFFF;stroke-width:0.5;stroke-miterlimit:10;}
	.st1{font-family:'TimesNewRomanPSMT';}
	.st2{font-size:16px;}
	.st3{fill:#FFFFFF;}
	.st4{font-size:24.672px;}
	.st5{fill:#7CA7E5;stroke:#FFFFFF;stroke-width:0.5;stroke-miterlimit:10;}
	.st6{fill:#ABBEED;stroke:#FFFFFF;stroke-width:0.5;stroke-miterlimit:10;}
	.st7{fill:#C5CFED;stroke:#FFFFFF;stroke-width:1.033;}
	.st8{fill:#8BAFE8;stroke:#FFFFFF;stroke-width:0.5;stroke-miterlimit:10;}
	.st9{fill:#9BB6EA;stroke:#FFFFFF;stroke-width:0.5;stroke-miterlimit:10;}
</style>
<g id="rajshahi-6">
	<polygon class="st0" points="307.2,359.6 314.5,366.5 319.2,365.6 320.1,362.8 322.9,358.4 328.8,359.6 333.2,347.8 337.8,347.6 
		339.7,346.7 339.5,345.1 336.7,346.2 334.1,345.5 335.1,343.5 335.1,340.4 333.4,340.2 328.1,340.9 327.3,338.9 324.2,338.2 
		320.8,338.6 320.3,340 316.6,338.4 317.5,335.9 319,333.6 322,332.8 323.5,329.9 323.5,328.2 320.1,326.6 321.2,324.3 323.5,324.5 
		325.4,318.5 325.1,316 322,315.1 322.8,312.6 321.2,311.7 322.4,310.7 324,311 324.5,306.1 322.4,305.7 322.4,301.2 324.3,298.9 
		324.9,295.1 327,294.8 326.3,300.4 327.2,301.3 328.2,301 328.8,300.3 329.8,300.3 330.9,301.3 333.4,299 335.8,299.4 339,297.3 
		337.4,294.6 337.8,292.9 339.2,292.5 341.3,294.4 343.1,294.4 346.1,292 347.7,290.9 347.7,288.3 349.1,284.9 347.5,282.6 
		343.8,282.1 341.5,275.4 339.9,274 340.8,264.2 341.3,262.5 339.4,261.8 333.4,260.7 329.8,261.4 326.6,260.5 326.8,256.8 
		325.2,252.1 322.8,248.5 319.8,248 316.4,251.2 317.6,260.5 315.7,266.9 313.4,268.5 308.6,267.6 305.1,267.9 302.3,271.1 
		302.4,273.8 306.9,273.8 305.8,276.4 307.2,278.7 306.2,287.6 303,288.3 301.9,292.3 300.7,293.9 298.4,293.6 296.8,296.2 
		298,299.9 297.3,300.8 294,299.6 291.1,296.6 288.5,296.2 287.3,292.3 285.8,292.9 285.1,296 280.4,297.8 275.6,297.8 268.9,295.7 
		262.5,293 260.6,294.6 260.2,297.3 258.3,298 254.9,296.9 252.3,299.4 248,300.1 247.3,316 247.5,318.1 250,318.6 253.3,327.1 
		261.6,339.8 271,349.7 279,356.4 293.1,362.3 304.2,361.7 	"/>
	<path class="st0" d="M316.9,255.6l-3.2-0.2c0,0,1.1-3.7,0.7-4.1c-0.4-0.4-4.2-3.4-4.2-3.4l-0.4-3.7l1.2-3l1.2,0.2
		c0,0-1.4-4.4-1.6-4.6c-0.2-0.2-1.2-3.2-1.2-3.2L306,232l-0.7-3.9l-0.7-2.1l-2.3-0.4l-1.8,0.7l-1.6-0.4l-0.4-2.3l-2.5,1.1l-0.9,4.1
		l0.2,2.6l-2.6-0.7l-3-1.1l-2.5,0.7l-1.1,3l-1.8,0.4l-1.6-1.2l-2.6-0.7l-0.2-2.6l0.2-3.4l-1.6-1.1h-1.1l-2.5-3.9V216l0.2-3.5
		l-0.9-0.9l-1.6,0.2v2.8l-0.5,1.9l-1.6,0.7l-0.7,2.8l-1.1,0.4l-0.9-1.6l0.5-1.8l-0.4-1.4h-1.4l-0.5,1.8l-0.7,1.4l-2.8-0.2l-2.3,1.1
		l-1.8-0.5l-1.9-1.9l-3.4,0.2l-1.9,1.6l0.7,1.2l4.1,1.1l1.9,0.9l-0.9,1.9l-1.9,0.5l-0.4,1.8l1.1,3.4l-1.2,1.6l-1.2,0.4l-0.4,2.6
		l-1.8,1.9l-1.4-0.4l0.5-2.6l-0.7-0.4l-1.4,2.3L247,236l-1.4-0.9l-0.5-1.6l-2.8-0.7l-1.2-0.7l0.4-1.1l1.1-1.6l-0.5-0.7l-1.6,1.2
		l-1.1-0.7l-1.9-2.5l-1.1,1.8l-0.9,0.7l-0.9-0.9v-3.7l-2.1,0.7l-0.9-1.4l-3.9,0.9l-3.2-0.9l-3.4,0.2l-6-4.4l-3-0.9l-1.4,0.9
		l-0.4,2.5l1.2,0.2l-0.9,4.4l2.3,0.5l-1.6,3.5l2.5,13.4l1.4,3l6.4-0.9l7.6,1.2l5.8,3.9l6.2,5.3l4.6,7.4l3.9,10.1l0.2,5.8l1.4,3
		l-1.9,10.2l-0.9,6.7l3.7-0.5l3-2.6l3.2,1.1l1.9-0.7l0.4-2.6l1.9-1.4l6,2.3l6.9,2.3h4.9l4.8-1.8l0.7-3.2l1.4-0.5l1.2,3.9l2.6,0.5
		l2.8,2.8l3.2,1.2l0.9-0.9l-1.2-3.7l1.6-2.6l2.3,0.2l1.2-1.4l1.1-4.1l3-0.7l1.2-8.8l-1.4-2.3l0.9-2.5l-4.1-0.2l-0.4-2.8l2.8-3
		l3.7-0.4l4.6,0.9l2.3-1.6l1.9-6.5L316.9,255.6z"/>
	<g>
		<text transform="matrix(1 0 0 1 247.3398 256.999)" class="st1 st2">Charghat</text>
	</g>
	<g>
		<text transform="matrix(1 0 0 1 272.4238 327.3506)" class="st1 st2">Bagha</text>
	</g>
	<g>
		<circle class="st3" cx="296.8" cy="287.2" r="13.4"/>
		<text transform="matrix(1 0 0 1 290.8748 294.4903)" class="st1 st4">6</text>
	</g>
</g>
<g id="rajshahi-5">
	<polygon class="st5" points="309,233.5 310.2,230.2 313.7,228.7 314.5,223.1 317.5,220.4 318.3,218.1 321.2,218.7 321.5,220.8 
		322.9,220.4 323.8,221.5 325.1,221.1 324.2,219.4 327,218.8 328.1,216.9 330.3,219.6 331.8,219.2 331.8,218 333.9,217.8 
		334.6,219.2 335.3,219 336.9,211.1 337.1,208.6 335.1,207.4 333.9,206 336.2,201.4 338.3,195.9 338.8,193.1 340.6,192.9 
		339.4,190.6 337.8,190.1 338.7,188.8 340.2,184.6 339.7,181.6 338.7,180.3 338.5,173.8 337.8,172.8 338.3,170.8 340.8,167.5 
		340.4,166.4 335.8,163.4 335.8,161.8 336.9,160.4 338.7,160.4 339.4,157.9 338.3,156.5 337.2,152.8 336,151.7 336,150.1 
		337.4,148.9 337.2,145.6 337.4,144.5 339.4,144.5 340.9,145.9 342,144.5 342.4,140.3 343.2,138 344.7,137.6 345.2,139.2 
		346.1,139.2 346.8,136.7 348.2,134.1 349.8,133.2 352.4,135 353.7,135.3 354.2,134.4 352.6,133.2 353.7,131.6 354.2,129.7 
		355.4,129.3 355.8,127.2 355.3,125.1 353,124.9 350.8,127.5 348,127.7 347,127.2 344.5,127.9 339.9,129.5 338.5,129.1 339.7,124.9 
		338.5,123.1 334.2,122.9 332.5,124.7 332.8,126.3 330.3,128.6 326.8,129.1 324,128.6 323.6,125.9 322.8,124.7 321.3,125.1 
		318.3,128.1 314.8,128.1 312.9,130.2 312.3,133.4 311.3,134.1 307.9,137.8 308.3,142.7 310.9,142.9 311.3,146.3 312.3,147 
		312,148.6 310.2,151.2 305.8,153.9 306.7,156.7 310.6,157.4 310.6,159.7 312.5,159.7 317.1,159.7 318.3,162.3 318,164.8 316.8,166 
		316.4,169.8 315.9,170.1 312.9,169.9 312.9,171.7 310.9,172.6 308.1,171.5 306,174.5 304.2,173.3 302.8,169.9 301.2,169.9 
		300.7,171.3 293.4,171 291.5,171.9 289.9,174.9 286.2,172.6 285,173.3 285.5,174.7 283.7,178.4 284.4,181.6 287.4,183.3 
		288.8,186.4 286.9,190.2 284.6,193.4 282.5,193.6 281.8,192.7 276.5,192.5 275.4,194.1 276.8,195.2 276.1,195.9 270.8,195.2 
		269.2,196.1 268,198.2 266.1,198 266.6,195.9 267.1,195 266.6,193.9 264.5,195.5 262.4,194.8 262.9,192 262.5,189.4 261.3,189.4 
		260.2,189.9 257.9,189 255.6,190.6 254.6,193.4 252.8,193.8 250.7,193.4 249.6,195.7 251.4,197.8 251.4,199.4 250.5,200 
		245.2,199.6 245.2,201.2 247.5,202.4 246.8,206 244.9,206.5 243.6,204.2 240.3,201.2 237.8,199.8 237.6,198.2 234.1,198.4 
		232.9,200.5 231.8,202.8 230.7,204.9 232.9,205.2 234.1,207 233.4,208.6 231.8,209.3 229.9,207.9 228.8,209.3 229.5,211.1 
		230.6,211.8 229.3,213.9 229.7,220.6 231.6,219.7 231.6,224.1 232.3,225.4 234.4,224.7 234.6,228.4 235.5,229.1 236.4,228.4 
		237.3,226.8 239.4,229.3 240.3,230 241.9,228.7 242.4,229.4 241.3,231 241,232.1 242.2,232.8 245,233.5 245.6,234.9 246.8,236 
		248.8,235.5 250,233.2 250.7,233.5 250.3,236.2 251.6,236.5 253.3,234.6 253.9,231.9 254.9,231.6 256.2,230 255.1,226.6 255.5,225 
		257.4,224.3 258.3,222.4 256.2,221.5 252.5,220.4 251.6,219.2 253.5,217.6 257.1,217.4 258.8,219.4 260.6,219.9 262.9,218.8 
		265.7,219 266.4,217.4 266.8,215.8 268.4,215.8 268.7,217.3 268.2,219 269.1,220.6 270.3,220.1 270.8,217.4 272.4,216.7 
		273.1,214.6 272.9,211.8 274.7,211.8 275.4,212.7 275.2,221 277.7,224.9 278.8,224.9 280.4,225.9 280.2,229.3 280.4,231.9 
		282.8,232.6 284.4,233.9 286.4,233.3 287.4,230.5 289.9,229.8 295.4,231.6 295.4,228.7 296.4,224.7 298.6,223.8 299.3,225.9 
		300.7,226.4 302.4,225.7 304.7,226.1 305.4,228.2 306.2,231.9 	"/>
	<polyline class="st5" points="236.4,119.1 238.2,120.3 242.2,119.8 245.6,120.5 247.9,124 246.6,130.5 248.6,131.4 255.8,129.7 
		256.7,126.5 256.3,121.4 257.4,120.5 256.5,116.9 257.4,115 258.8,115.2 260.9,116.9 263.6,116.2 267.7,117.8 269.1,116.6 
		271.5,117.3 276,115.4 278.8,115.9 278.6,118.7 284.4,121 286,118.7 290.8,116.6 295.4,116.9 297.9,120.5 302.4,121.4 302.8,123.7 
		306.3,123.8 309.3,126.3 314.6,128.1 312.9,130.2 312.3,133.2 311.3,133.9 307.9,137.6 308.4,142.7 310.7,142.9 311.3,146.3 
		312.2,147 311.8,148.7 310,151.4 305.6,154 306.7,156.5 310.2,157.4 310.6,159.7 317.1,159.7 318.3,162.3 318,164.8 316.6,166.2 
		316.2,169.8 312.9,169.9 312.7,171.5 311.1,172.6 308.1,171.5 306,174.5 304.2,173.5 302.6,169.9 301.4,169.9 300.7,171.2 
		293.6,171 291.5,171.9 289.9,174.9 286.2,172.8 285,173.3 285.3,174.7 283.7,178.2 284.4,181.6 287.4,183.3 288.8,186.4 
		286.9,190.4 284.6,193.4 282.7,193.6 281.8,192.7 276.5,192.5 275.6,194.1 276.7,195.2 276,196.1 270.8,195.2 269.2,196.1 
		268,198.2 266.1,198 266.6,195.9 267.1,195 266.6,194.1 264.5,195.5 262.4,194.8 262.9,192 262.5,189.4 261.3,189.4 260.2,189.7 
		257.9,189.2 255.6,190.6 254.6,193.2 253,193.8 250.7,193.4 249.6,195.7 251.4,197.8 251.4,199.2 250.5,200 245.4,199.6 245.2,201 
		247.3,202.4 246.8,206 244.7,206.5 243.5,204.2 240.5,201.2 237.8,199.8 237.4,198.4 234.6,198.4 235.9,194.3 236.7,193.1 
		236.2,191.1 233.7,191.7 230.7,189.9 231.3,187.6 233.9,186.4 233.2,179.5 229,179.6 225.6,174.2 228.3,172.6 227.9,169.8 
		224.4,168.5 222.8,165.9 218.2,165.5 213.4,165.9 211.7,167.5 210.4,166.9 210.4,164.8 213.1,162 214.8,152.6 217.1,149.4 
		217.8,144 217,139.9 216.3,136.2 217,132.7 218.9,133.2 220.3,135.5 219.3,137.6 220.1,138.5 222.6,136.2 223.3,131.2 222.1,130 
		218.7,130 217.3,128.2 223.7,126.7 227,127 231.4,123.1 232,121.2 233.9,121.4 236.6,119.1 	"/>
	<g>
		<text transform="matrix(1 0 0 1 238.5156 156.332)" class="st1 st2">Durgapur</text>
	</g>
	<g>
		<text transform="matrix(1 0 0 1 289.0234 202.542)" class="st1 st2">Puthia</text>
	</g>
	<g>
		<circle class="st3" cx="261.1" cy="181.9" r="13.4"/>
		<text transform="matrix(1 0 0 1 255.1247 189.2403)" class="st1 st4">5</text>
	</g>
</g>
<g id="rajshahi-1">
	<path class="st6" d="M101.6,215.8l-4.6-2.1l-6.7-5.7l-8.3-3.9l-4.2-0.7l-7.4,3.5c0,0-7.2,2.5-7.4,2.5s-10.2,0.2-10.2,0.2l-8.7-0.4
		l-8.8-0.7l-9.4-5.1l-11.1-10.1l-9.4-8.7l-1.4-2l0.7-0.9l13.6-9.2l6.2-5.3l1.8-1.8l-0.4-1.8l-6.7-5.7L14,147.3l-2.6-5.5l0.2-6
		l2.6-7.4l1.4-8.5l-0.5-9.9l-4.9-11.8L9.1,95l0.7-1.2l1.8,1.1h1.9l-1.4-2.3l1.4-2.5l3.5,0.7l2.5,1.6c0,0,3.4-3.5,3.4-3.7
		s3.7-6,3.7-6l0.4-1.8l1.6-1.1l2.6,1.2l4.4-1.2l3.4-3l0.7-4.6l2.6-1.1h1.9l2.5,2.8l0.5,3.4h1.4v-5.8l1.2-0.7l4.6,0.9l3.7,1.8
		l2.1,0.4l1.1-2.5h3.4l1.9,2.5l3.7,4.6l3.5-1.6l3.9-3l4.4,1.8l1.4-2.1l2.1,0.5l-0.9,3.7l3,1.9l3.9-3.5l0.9,0.2l0.5,1.8l3.7,1.1
		l-0.2,2.5H94l-0.4,3.5l2.1-0.5l1.9,1.8l2.1,2.5l1.9,0.4l4.6,4.2c0,0,4.9,4.1,4.9,4.2c0,0.2,4.6,4.2,4.6,4.2l2.6-1.4l2.8,2.8
		l4.9,0.7l0.4,2.1l1.4-0.4l0.5-2.6l3.5,1.6l3.2-3.7l4.2,1.4l0.2,1.8l-3.2,7.4l1.1,1.8l0.7,3.2l1.6,0.2l1.6-3.5l1.6,0.2l4.8,3.5
		l0.2,2.3l-1.9,2.3l-1.8-0.4l-0.9,5.5h-1.1l-1.6-0.9l-3.5,0.9l1.2,3l-0.9,2.5l3.7,3.4l-0.2,3l-2.6-0.2l-1.2,1.8l-1.1,1.9l-1.2-0.4
		l-1.1-1.1l-1.6,1.4l-2.1-1.2l-2.6-2.3l0.5-6.4l-1.6-0.5h-1.4l-1.4,1.6l-0.7,3.5l1.4,6.7l1.4,2.3l5.1,2.6l0.2,1.4l-0.9,1.2l-4.1-0.9
		h-2.6l-0.2,0.9l1.1,1.9l1.9,0.5l0.2,1.4l-0.7,1.9l0.9,0.9l3,0.5l3.4-2.5h2.1l2.5,2.1l0.2,1.9l-1.9,1.1l0.2,3.7l1.4,3.4l-0.5,6.7
		l-1.1,0.7h-3l-1.2,0.7l-0.4,1.9l-3.2-2.6l-1.1,2.1l0.4,5.5l1.2,1.8l0.5,4.1l1.8,3.2l-0.9,3l-1.9,0.4l-2.5,0.4l-0.5,1.2l1.2,2.5
		l-1.9,4.4h-2.8l-1.9-1.8l-8.1-3l-2.1,0.9l-2.5,4.9l-0.4,1.8l1.4,1.9l-0.5,1.9l-4.4,1.9L101.6,215.8"/>
	<polygon class="st6" points="64.5,71.4 63.3,69.8 64.2,69.1 66,69.4 68.4,68.2 70.4,67.8 73,64.8 76.9,64 78.1,64 78.5,63.1 
		76.4,61.5 75.7,57.2 76,53.7 77.8,53 79.6,54.1 81.5,52.5 82.4,47.5 81,45.4 78.3,45.8 76.7,44 77.6,42.2 82.2,42.2 84,42.9 
		84.9,40.5 85,37.3 84.3,34.8 85.4,32.5 87.5,32.2 91.7,35.3 95.3,36.2 96.7,36.8 96.9,38.3 99.3,39.2 101.6,38.3 101.6,36.9 
		102.9,36.4 105.9,39.2 107.3,36.6 108.5,36.8 109.4,37.8 112.6,38.2 113.8,39.6 115.8,39.4 115.8,37.3 113.3,35.7 116.8,32.2 
		119.3,33.6 121.1,33.9 121.4,32.9 121.4,28.8 122.6,29 126,30.6 126.5,27.4 126.5,24.4 122.8,23.9 120.5,26 116.3,25.8 115.2,26.5 
		114.3,28.1 111.9,27.9 109.9,26.3 108.7,26.9 108.9,28.5 107.1,31.6 105.9,32.9 102.2,31.1 99.7,29 97.2,28.6 96,26.9 98.1,23 
		100.9,22.8 104.1,22.1 106.4,23.2 109.8,24.7 111.5,24 111.5,20.7 113.1,20.3 114.7,18.6 115.1,13.4 113.8,11.1 114.5,8 116.3,8.1 
		119.3,7.1 119.8,4.6 120.7,1.8 122.6,1.3 125.3,3 128.5,4.1 131.7,8.7 132.9,9.6 134.8,8.7 137.1,10.1 139.4,11.7 141.5,10.6 
		143.3,11.1 144.6,13.1 146.3,12.9 147.4,11.3 150.4,11 156,12.2 158.7,14.7 159.7,16.6 163.6,16.4 164,17.3 161.3,21.6 159.4,24 
		161.7,26.2 164.5,26 166.8,23 170,21.4 171.6,16.3 171.9,14.7 174.6,15.4 177.4,14.5 179.3,12.9 182.5,13.6 185.7,13.8 187.3,15.6 
		188,18.4 190.1,20 190.6,25.6 189.9,30 192.6,32 191.7,33.6 191.2,36.6 190.5,37.1 191.5,40.1 191.7,42.6 190.6,43.1 189.4,43.6 
		188.2,46.1 190.6,52.7 192.6,53.9 194.5,52.8 195.2,53.5 193.6,55.1 191.5,56 189.8,55.8 188.5,58.5 191,64 191.2,67 190.3,68 
		188.4,67.5 185.3,65.5 182.3,64.3 179.5,62.5 178.8,61.5 178.6,59.5 177.8,58.8 176.9,59.4 176.7,62 175.6,62.2 175.6,64.1 
		172.8,67.3 170.3,69.3 170.7,70.8 172.3,71.9 172.5,75.1 171.7,77.9 172.3,81.4 171.7,82.9 170,83 169.6,84.8 168.9,86.7 
		167.5,87.4 168,89.2 169.3,91 171.4,92.4 171.6,95.2 173.7,96.1 173.3,97.2 171.9,98.4 169.6,102.5 167.5,105.3 167,108.5 
		165.2,109.5 163.8,111.6 162.4,111.6 161,111.8 160.6,113.9 161.3,115.5 160.1,117.3 160.1,118.4 161.2,119.2 160.3,121.4 
		157.4,122.4 157.6,123.5 160.4,124.4 162.7,126.3 162.9,129.3 162.7,131.8 162,136.2 161,136.7 160.4,138.8 158.5,140.8 154.8,141 
		153.7,139.9 152.1,136.7 149.5,137.4 149,138.7 150.6,141.1 150.4,142.2 149.1,142 147.7,141.5 143.3,145.2 142.3,144.7 
		141.4,141.5 142.6,140.4 142.8,139 141.2,138.5 141.4,135.5 137.7,132.1 138.5,129.7 137.3,126.7 140.8,125.8 142.3,126.7 
		143.5,126.7 144.4,121.4 146.1,121.5 148.1,119.2 147.9,116.9 143.3,113.4 141.5,113.2 140,116.8 138.4,116.6 137.7,113.4 
		136.6,111.6 139.8,104.4 139.6,102.6 135.4,101 132.2,104.8 128.7,103.2 128.1,105.8 126.7,106.2 126.4,104 121.4,103.3 
		118.6,100.7 115.9,101.8 111.5,98 111.2,97.5 101.8,89.4 99.9,88.9 97.7,86.2 95.8,84.6 93.7,85.2 94,81.6 96.5,81.6 96.9,79.1 
		93.2,78.1 92.6,76.3 91.7,76.1 87.9,79.7 85,77.7 85.6,74 83.8,73.5 82.2,75.6 78,73.8 73.9,77 70.5,78.4 	"/>
	<g>
		<text transform="matrix(1 0 0 1 111.8032 64.7354)" class="st1 st2">Tanore</text>
	</g>
	<g>
		<text transform="matrix(1 0 0 1 45.4634 145.5518)" class="st1 st2">Godagari</text>
	</g>
	<g>
		<circle class="st3" cx="77.9" cy="111.8" r="13.4"/>
		<text transform="matrix(1 0 0 1 71.9581 119.0736)" class="st1 st4">1</text>
	</g>
</g>
<g id="rajshahi-2">
	<path class="st7" d="M211.5,249.9h2.6l1.4-1.4l-0.7-1.8l-1.2-2.6l-2.1-13.1l1.4-3.7l-2.5-0.7l0.9-4.2l-0.9-0.2l0.2-2.5l1.2-0.9
		l3,0.7l6.2,4.4h3.4l3,0.9l4.2-0.9v-4.1l-1.8,0.5l-0.7-6.5l1.2-2.1l-0.9-0.7l-0.5-1.9l0.9-1.2l1.9,1.2l1.6-0.5l0.7-1.6l-1.2-1.8
		l-2.1-0.4l3.4-6.4l0.5-0.5l1.2-3.7l0.9-1.2l-0.5-1.9l-2.3,0.5l-3.2-1.8l0.5-2.3l2.6-1.2l-0.7-6.9l-4.1,0.2l-3.5-5.5l2.5-1.6
		l-0.2-2.8l-3.5-1.2l-1.6-2.6l-4.6-0.4l-4.8,0.4l-1.8,1.6l-1.2-0.5v-2l2.6-3l1.8-9.4l2.3-3.2l0.7-5.5l-1.6-7.8l0.9-3.5l1.6,0.5
		l1.4,2.1l-0.7,2.3l0.7,0.9l2.5-2.3l0.7-4.9L222,130h-3.4l-1.4-1.8l-1.1,0.2l-3.7,2.5l-1.4,1.8l-4.4,3.9l-4.4,1.2l-2.3,2.1v4.8
		l-0.4,4.1l-2.3,1.2l-2.5-1.2l-5.1-4.6l-2.5-0.2l-2.1,0.5l-1.4-1.1l-1.2,0.4l0.2,1.4l-3.9,0.5l-0.5-1.9v-1.6l-2.1-0.7l-1.4,1.2
		l-1.9-0.4l-4.2-1.6l-1.9,0.7l-3-0.7l-1.6-4.6l-1.1,0.5l-0.5,2.1l-1.9,1.9l-3.7,0.2l-1.1-1.1l-1.6-3.2l-2.6,0.7l-0.5,1.2l1.6,2.5
		l-0.2,1.1l-1.2-0.2l-1.4-0.5l-4.4,3.7l-1.1-0.5l-0.9-3.2l1.2-1.1l0.2-1.4l-1.2-0.5l-3-0.2l-1.2,1.8l-1.1,1.9l-1.2-0.4l-1.1-1.2
		c0,0-1.4,1.6-1.6,1.6c-0.2,0-2.1-1.2-2.1-1.2l-2.5-2.3l0.2-3.9l0.2-2.5l-1.4-0.5h-1.6l-1.4,1.6l-0.7,3.5l0.5,2.8l0.9,3.9l1.4,2.3
		l5.1,2.6l0.2,1.4l-0.9,1.2l-4.1-0.9l-2.6-0.2l-0.2,1.1l1.1,1.9l1.9,0.5l0.2,1.4l-0.7,1.9l0.9,0.9l3,0.5l3.2-2.5h2.3l2.5,2.1
		l0.2,1.9l-1.9,1.1l0.2,3.7l1.4,3.5l-0.5,6.7l-1.1,0.5H133l-1.1,0.7l-0.4,1.9l-3.2-2.6l-1.1,2.1l0.4,5.5l1.2,1.8l0.5,4.2l1.8,3
		l-0.9,3l-1.8,0.4l-2.6,0.2l-0.5,1.4l1.2,2.5l-1.9,4.4h-2.8l-1.8-1.8l-8.3-3l-2.1,0.9l-2.5,4.9l-0.4,1.8l1.4,1.9l-0.5,1.9l-4.6,1.9
		l-1.2,3.2l0.7,2.1l4.8,3.5l6.2,2.5l3.5,0.4l6,6.9l2.8,0.5l6.7-0.9l2.1,1.2l13.1,27.7l0.9,0.9l0.9-1.1l0.5-3.2l4.8-12.2l2.1-2.6
		l4.6,0.4l4.8,0.9l0.7,1.8l-0.2,3.4l1.8,2.1l3.5,1.1l4.9,0.9l1.1-2.6l4.1,0.2l4.4-0.7l1.4,1.1l1.2,4.2l1.1,0.5l5.5-0.9l3.2-1.8h1.8
		l0.5,3l2.1,0.2l2.1-4.2l1.8-1.2L211.5,249.9"/>
	<g>
		<text transform="matrix(1 0 0 1 161.3306 179.2822)" class="st1 st2">Paba</text>
	</g>
	<g>
		<circle class="st3" cx="173.9" cy="203.3" r="13.4"/>
		<text transform="matrix(1 0 0 1 167.9581 210.5736)" class="st1 st4">2</text>
	</g>
</g>
<g id="rajshahi-4">
	<path class="st8" d="M219.5,52l3-3l3,1l-0.7,1.8l1.8,0.1l0.8-1.7l1.1,2l-2.4,2.5l3.5,2.1l-0.1-3.6l5.2,1.8c0,0,0.7-2.3,0.5-2.4
		s-5.9-5.1-5.9-5.1l0.5-2.1l2.9-0.3l1.6-4.1l-0.1-2.5l-2.2-0.2l-0.7-2.6L233,33l5.1-0.1l0.4-2l4.1-0.6l0.5,4.7l2.5,0.3l1.1-3.3
		l3.8,1.7c0,0,1.7-1.4,1.5-1.5s-0.3-4-0.3-4l3.5-7.4l5,2.9l-1.2,1.2l4.7,5.1l7.9,1.9l2.3-3.5l7.1-3.9l0.5-2.4l4.2-2.4l3.3,2l1.1,7.6
		l5.4,1.1L295,35l-1.6,5.2l8.8,3.3l2.2-0.9l1-3.6l8.2,0.2l7.9,1.9l-0.6,2.6h1.9l-0.3,3.4l2.9,1l2.3-0.8l1,6l3.2,0.7l0.8-1.7
		l-1.9-2.8l3.9-0.4l2.5,3.3l4.3-3.6l2.9,1.5l3.8-1.3l0.9,6.4l4.5,6.1l0.3,2l1.2-1.3l1.8,2.6l-1.2,3.7l2.2,1.4v6.5l4,2.7l0.1,4.1
		l2.6,0.5l0.3-2.4l3.5,2.8l5.2,4.4l3.1-3.3l1.8,0.8l-1.4,6.9l1.7,0.4l-0.6,11.2l-9,1.8l-2,5.8l-3.7,0.1l-1.3-1.8
		c0,0-2.1,0.3-2.2,0.1s-5.3-3.3-5.3-3.3l-1,1.7l-3.8,0.1l-2.4,2.6l-3.7-0.2l-3.3,1.8l1.8,5.4l-0.9,0.5l-2.3-1.8h-2.9v-2.5l-2.6,3.4
		l1.5,2.5l-3.2,1l1.3,2l-0.7,0.8l0.2,1.7l-2.3,2.3l-3.6,0.4l-3-0.5l-0.4-2.6l-1.1-1.3l-1.2,0.4l-3.2,3l-3.6-0.1l-5.2-1.8l-3.2-2.3
		l-3.3-0.2L302,121l-4.5-0.7l-2.5-3.6l-4.5-0.4l-4.9,2.3l-1.5,2l-5.6-2.3l-0.1-2.6l-2.9-0.6l-4,1.9l-3-0.8l-1.5,1.5l-4.1-1.7
		l-2.2,0.5l-2.2-1.6l-1.4,0.1l-0.6,1.8l0.7,3.4l-0.9,1.1l0.2,4.8l-0.9,3.4l-7.4,1.7l-1.8-1.1l1.3-6.5l-2.2-3.5l-4.3-0.6l-2.9,0.5
		l-1.3-4l-1.4-2.7l1-3.6l-0.9-1.6h-2.3l-0.4-0.7l1-4.8l1.1-0.8l1.3-2.2v-3.8l-2.1-1.3l-0.7,1.1l-1.2,0.3l-5-3.4l0.4-2l2.5-2l0.2-2.3
		l-3-3.4l-2.8-1.8l1.5-2.4l-1.1-2.6l-1.9-2l-1.9-2.3l-3.9,0.6l-1.9-2.7l0.6-3l2.3-2l1.6-1.1l-0.8-2.8l1-6.8L219.5,52z"/>
	<g>
		<text transform="matrix(1 0 0 1 267.6665 93.3335)" class="st1 st2">Bagmara</text>
	</g>
	<g>
		<circle class="st3" cx="294.9" cy="64.8" r="13.4"/>
		<text transform="matrix(1 0 0 1 288.9581 72.0736)" class="st1 st4">4</text>
	</g>
</g>
<g id="rajshahi-3">
	<polygon class="st9" points="162,136 163.6,140.8 166.5,141.5 168.6,140.8 172.8,142.4 174.8,142.7 176.2,141.5 178.5,142.2 
		178.3,143.6 178.6,145.7 182.7,145.4 182.5,143.8 183.9,143.4 185.2,144.5 187.3,144 189.8,144 194.9,148.7 197.4,150 199.7,148.7 
		200,144.7 199.8,139.9 202.3,137.8 206.7,136.5 211.1,132.7 212.5,130.9 216.3,128.4 217.8,128.2 223.7,126.7 226.9,127 
		231.4,123.1 232,121.2 233.9,121.4 236.6,119.2 238.3,120.1 237.1,116.2 235.7,113.6 236.6,110.1 235.7,108.3 233.2,108.1 
		232.9,107.6 233.9,102.8 235.2,101.8 236.2,99.8 236.6,95.9 234.1,94.3 233.6,95.4 232.2,95.9 227.6,92.6 227.7,90.4 230,88.5 
		230.4,86.2 227.6,83 224.7,81.1 226.1,78.6 225.3,76 223.1,74.2 221.4,71.9 217.5,72.3 215.4,69.6 215.9,66.8 218.4,64.7 
		219.6,64.3 220,63.4 219.3,61 220,54.2 219.6,52.1 217.5,53.2 213.6,52.7 212.4,54.1 211,54.2 209.4,56.5 207.4,56.7 206.2,58.5 
		204.4,58 203.9,54.1 202.3,53.2 201.2,54.9 200.9,57.6 200.4,59.7 197.4,61.8 194.4,61.5 192.6,59.5 191.5,55.8 189.8,55.8 
		188.4,58.5 189.8,61.5 191,64 191.2,67.1 190.3,68 188.5,67.5 185.3,65.5 182.3,64.3 179.5,62.5 178.8,61.7 178.6,59.5 177.9,58.8 
		176.9,59.2 176.7,62 175.6,62.2 175.6,64.1 172.8,67.3 170.3,69.3 170.7,70.8 172.3,71.9 172.5,75.3 171.7,77.9 172.3,81.6 
		171.7,82.9 169.8,83 169.6,84.8 168.9,86.7 167.5,87.4 168,89.2 169.3,91 171.4,92.4 171.6,95.2 173.7,96.1 173.3,97.2 171.9,98.4 
		169.6,102.5 167.5,105.3 167,108.5 165.2,109.5 163.8,111.6 162.4,111.6 160.8,111.8 160.6,113.9 161.3,115.5 160.1,117.3 
		160.1,118.4 161.2,119.2 160.3,121.5 157.4,122.4 157.6,123.7 160.4,124.4 162.7,126.3 162.9,129.1 162.7,131.8 	"/>
	<g>
		<text transform="matrix(1 0 0 1 174.5747 102.46)" class="st1 st2">Mohonpur</text>
	</g>
	<g>
		<circle class="st3" cx="191.2" cy="122.8" r="13.4"/>
		<text transform="matrix(1 0 0 1 185.2081 130.0736)" class="st1 st4">3</text>
	</g>
</g>
</svg>
