<?xml version="1.0" encoding="utf-8"?>
<!-- Generator: Adobe Illustrator 25.2.1, SVG Export Plug-In . SVG Version: 6.00 Build 0)  -->
<svg version="1.1" id="dist-gopalganj" xmlns="http://www.w3.org/2000/svg" xmlns:xlink="http://www.w3.org/1999/xlink" x="0px"
	 y="0px" viewBox="0 0 400 455" style="enable-background:new 0 0 400 455;" xml:space="preserve">
<style type="text/css">
	.st0{fill:#9BB6EA;stroke:#FFFFFF;stroke-width:0.5;stroke-miterlimit:10;}
	.st1{font-family:'TimesNewRomanPSMT';}
	.st2{font-size:16px;}
	.st3{fill:#FFFFFF;}
	.st4{font-size:24.672px;}
	.st5{fill:#ABBEED;stroke:#FFFFFF;stroke-width:0.5;stroke-miterlimit:10;}
	.st6{fill:#7CA7E5;stroke:#FFFFFF;stroke-width:0.5;stroke-miterlimit:10;}
</style>
<g id="gopalganj-1">
	<polygon class="st0" points="108.5,47.3 116,38.4 117.6,33.2 127.7,26.4 132.3,16.7 135.8,14.5 139,16.1 139.4,23.7 146.5,30.1 
		149.1,29.9 150.7,27.9 152,22.6 156,21.5 165.2,22.7 166.9,25.8 165.7,30.1 170.6,38.9 173.2,38.4 174.6,32.2 178.4,28.4 
		194.1,19.4 199.2,19.6 201.1,25.2 206.9,25.4 209.8,29.4 202.7,35.5 203.2,39.2 199.3,44.2 201.6,47.7 208.6,50.4 214.3,50.1 
		216.6,48 215.8,41.9 221.3,37.7 233.3,38.2 237,39.9 239.1,34.2 245,32.3 247.4,24.9 240.1,19.1 239.3,23 235.8,23.7 233.5,20.8 
		233.9,11.4 235.8,5.2 239.4,3.6 243,7.9 243.2,10.4 253.4,14 256.9,16.8 259.4,21.5 259.6,28.4 263.9,28.7 270.7,34.9 277.5,34.8 
		284.4,38.3 289.6,34.7 292.9,34.9 293.1,40.6 288,47.5 280.4,52.6 279.7,55.6 286,59.4 289.3,62.6 291.4,69 294.9,68.7 296.3,67.4 
		297.6,68.2 296.6,75.9 294.3,79.5 297.8,80.9 299.4,87.2 302.7,87.1 302.6,89.8 295.6,96 296.5,99.1 299.1,99.7 297.2,104.2 
		295.1,104.8 296.1,110.3 291.7,119.4 285.7,113.8 284.2,115.8 284.8,118.3 282.4,121.1 279.1,120.9 275.7,126.3 274.9,131 
		271.8,130.5 267.6,128.1 263.8,129.5 264.7,134.7 261.7,136 261.8,145.8 258.8,147.9 257.3,157.3 258.6,159.8 258.4,162.3 
		256.1,162.3 253,155.6 246.9,156.4 243.3,150.5 249.6,139.1 248.8,137.3 240.2,146.7 236.2,147.9 235.7,152.7 223.1,159.3 
		222.6,161.6 215.7,161.9 215.7,169 211.7,167 210.1,167.2 209.7,171.2 205.4,170.7 201.2,167.9 201,166.1 194.7,162.5 188.3,162.2 
		190,153.6 188.7,147.9 187.5,148.2 187.4,150.1 183.5,149.9 182,157.2 173.1,156.8 169.3,159.3 160.1,143.4 155.6,142.9 155,145.4 
		149.8,145 147.4,138.8 148.6,135.3 147.8,127.1 144.7,124.1 143.8,111.6 138.4,105.1 135.1,104.7 129.9,99.7 129.7,93.8 
		132.6,93.2 132.5,91.1 128.9,90.4 128.5,88.7 131.9,82.7 130.7,80 127.1,79.1 127.3,82.9 123.4,82 123.8,78.1 120.3,71.2 
		118.2,71.1 117,68.3 113.3,66.7 113.1,62.1 110.8,61.3 109.9,54.9 	"/>
	<g>
		<text transform="matrix(1 0 0 1 184.0476 96.9441)" class="st1 st2">Muksudpur</text>
	</g>
	<g>
		<circle class="st3" cx="171" cy="71.5" r="13.4"/>
		<text transform="matrix(1 0 0 1 165.0378 78.7425)" class="st1 st4">1</text>
	</g>
</g>
<g id="gopalganj-2">
	<path class="st5" d="M183.5,209.6l16.6-1.6c0,0,5.5-10,5.2-10.1s6.9-2.1,6.9-2.1l-2.1-13.3l6.3-11l-1-2.5l-3.8-2l-1.6,0.2l-0.4,3.9
		l-4.3-0.4l-4.2-2.8l-0.2-1.8l-6.2-3.8l-6.2-0.2l1.6-8.6l-1.4-5.6l-1.2,0.3l-0.2,1.7l-3.8-0.1c0,0-1.4,7.3-1.5,7.3l-8.9-0.4
		l-3.8,2.5l-9.2-15.9l-4.5-0.5l-0.6,2.5l-5.1-0.3l-2.6-6.3l1.3-3.5l-0.8-8.2l-3.1-3l-0.9-12.4l-5.4-6.6l-3.4-0.3l-5.2-5l-0.2-5.8
		l2.9-0.7l-0.1-2l-3.7-0.8l-0.4-1.7l3.4-6l-1.1-2.6l-3.7-0.9l0.2,3.8l-3.9-0.9l0.4-3.9l-3.6-7l-2-0.1l-1.2-2.8l-3.7-1.5l-0.2-4.6
		l-2.2-0.8l-2.4-13.9l-4-1.7l-7.9,1.8l3.7,5.4L99,53.8l-2.5-2.3l-1.1,1.3l1.8,2.5c0,0-1.4,3.7-1.4,3.6c0-0.1-2.6-3.4-2.6-3.4h-3.6
		l-3.4,3.4l2.6,3.1l-4.6,0.7l1.2,4.5l-5.3,1.3l-5.7-12.2l-3.9,1.4l-0.8,3.4l2.1,1.4l-0.2,3l-3.3,1.1l-2.5-2l0.1-2.3l1.4-1.6l-3.8-4
		L56,53.2l-0.8,1.7l6.4,3.6l-0.8,1.1L58.5,59v1.2l1.8,1.2l-1.1,4.3l3.3,2.1l6.4,2.1l5.6,8.6l-5.4,5.1l-0.9,5c0,0-2.7,3.7-2.9,3.8
		s-6.8,1.7-6.8,1.7l-1.4,1.5L57,97.9l2,2.7l-0.9,3l-7.7,3.8l-5.5,0.9l-0.5,2l2.3,3.9l-1.1,3.2l-4.9,1.8l-3.9,2.1l-5.4,8l-2,2
		l-8.5,5.4l-1.8,3.5l-2.2,5.9l-0.6,8.8l-1.7,2.9l0.2,4.6l9.6,16.3l4.3,0.9l1.8-1.9l0.7-3L40,167l14.7-8l11.9-2.9l11.3,0.5l6.8,5.1
		l0.6,3.3l-2,3.1L62.4,169l-4.3,4.2l-1.2,4.3l-0.2,5.9l7.7,8.7l1.1,3.6l-0.6,11h7l0.8,3h1.5l0.7-3l12.9-0.8l1.7-2.7l8.7-1.1l1.1,3.2
		l-1.1,5.5l2.7,0.8l1.3,7.1l-2.3,9.9l0.7,7l-2.5,0.4l0.2,2.8l2.7,0.2l0.3,6.2l4,0.2l2.8,4.5l7.7,0.2l1.5-5.5l2.2,0.1l5.9,2.5
		l2.5-4.7l6.7-3.9l-0.8-2.3l0.4-9.1l2.7-2.7l2.4,0.2l0.3,4.2l2.7-0.1l0.6-2.5l3.6-2.8l-0.1-9.8l7.1-1l2.9-3.9l2.7,2.2l0.2,3.2
		l12.3-0.2l7.7-2.4L183.5,209.6z"/>
	<g>
		<text transform="matrix(1 0 0 1 101.7144 168.9441)" class="st1 st2">Kashiani</text>
	</g>
	<path class="st5" d="M46.7,216.7l9.5-6.8l8.8-3.4l7,0.3l0.8,2.9l1.4-0.1l0.9-2.9l12.8-0.9l1.6-2.6l8.7-1.2l1.1,3.1l-1,5.5l2.6,0.8
		l1.3,7.1l-2.2,9.8l0.6,7l-2.5,0.5l0.2,2.8l2.6,0.2l0.3,6.1l4,0.3l2.8,4.5l7.6,0.2l1.6-5.4l2.2,0.1l5.8,2.5l2.6-4.6l6.7-4l-0.9-2.3
		l0.5-9.1l2.7-2.7l2.3,0.2l0.3,4.2h2.6l0.6-2.5l3.6-2.8v-9.8l7.1-1l2.9-3.9l2.7,2.1l0.3,3.2l12.3-0.1l7.9-2.4l4.1-1.9L200,208
		l5.4-10.1l6.7-2.1l-1.9-13.3l6.3-11.1l-0.9-2.3l0.2-1.2v-6l6.7-0.3l0.6-2.3l12.6-6.6l0.6-4.8l3.9-1.2l8.6-9.3l0.9,1.8l-6.4,11.3
		l3.6,6l6.1-0.9l3.1,6.6l-2.7,0.4l-0.8,5.1l-2.4,1.8l-0.3,6.8l-3.2,4.2L236,179l-0.6,3.8l-4.3,0.5l-0.9,4.5l1.4,1.1l-0.2,6.5
		l-2.5,1.3l-0.6,3.7l2.3,0.5l-0.6,3.2c0,0-1.6,2-1.6,2.3s0.2,6.2,0.2,6.2l-3.2-0.1l-0.7,6.2l12.1,1.9l10.6,1.1l3.4,3.6l-1,5
		l-0.5,20.7l-2.2,4.1l1.1,20.5l-2.6,2.1l-0.8,15.6l-0.3,7.6l-2.7,6.6l-4.2,2l-10-0.4l-2.5,1.6l-1.6,5.5l-8.9,0.5l-3.3,4.3l1.4,5.8
		l-0.9,1.2l-7.5,0.1l-6-2.5l-1-2.4l-6.2-0.7l-2.1-2.2l-3,0.7l-0.1,4.4l-11.3,11.5l-0.1,3.1l8.1-0.3l4.2,1.4l4.8,4.3l5.2,1.6l0.4,6.7
		l-8.3-0.3l-4.1,6.2l-8.2-0.7l-2.5-3.6l-5.5-4l-5,3.1l-0.1,3.3l-9.7-0.1l-10.7-3.3l-2.5,1.6L140,375l-0.2,7.8l5.6,6.9l-0.5,5.9
		l-11-12.5l-8.6-5.6l-5.9-0.1l-5.7-3.5l4.8-11.4l-0.1-9.2l-3.9-6.5l-6.9-5.7l-0.2-9.7c0,0,4.5-4,4.5-4.2c-0.1-0.2-0.9-2.3-0.9-2.3
		l-11.9-5l-13.3-2l-5.2-4.4l-2.8-8.7l-1-11.9l-7.7-15.5l-5.2-0.3l-6.5-0.7l-3-3.9l1-4.5c0,0,5.9-7.6,6-7.7c0.2-0.1,0.2-2.8,0.2-2.8
		l-4.5-4.5L35,242.7l-11.6-9l-11.7-12.9l-2.5-10.1L10,207l5.3-3.7l5.2,1.1l8.2,5.3l1.8,10l4.2,2.7l6-1.2L46.7,216.7z"/>
	<g>
		<text transform="matrix(1 0 0 1 151.2144 261.6108)" class="st1 st2">Gopalganj</text>
	</g>
	<g>
		<circle class="st3" cx="135" cy="196" r="13.4"/>
		<text transform="matrix(1 0 0 1 129.0378 203.2425)" class="st1 st4">2</text>
	</g>
</g>
<g id="gopalganj-3">
	<path class="st6" d="M250.8,225.3l2.1-0.4l9,0.5l2.9-1.1l2.1-4.5l2.2-7.7l0.5-5.4l2.1-1.8l1.9,2.4l4.4-3.5l8-4.2l2.3,0.4l1,2.8
		L288,205v3.1l4.3,0.6l10.3,2.5l10.6,3.7v2.2l-2.6,1.7l-0.4,8.9l2.3,1.7l4.6-0.2l4.6-6.6l5.4-6.3l4.5-0.4l2.3,1.3l3.8-1.2l4.6-5.9
		l1.9,0.6L342,216l-0.4,6.5h12.8l6.7-2l1.1-2.8l3.5,0.5l0.2,4.3c0,0,2.4,0.9,2.5,0.9s5.8-0.1,5.8-0.1l-0.2,3.4l-3.4,0.5l-4,4.5
		l0.1,7l-0.1,4.8l-1.8,4.6l1.7,8.1l6.7,0.5l0.4-3.4l2.9,0.2l3.5,4.5l4.9,0.8l-0.6,2.2l-3.8,0.2l-2.4,3.9l-6.6-2.2l-4.5,0.4l0.3,11.2
		l4.2,8.3l0.2,6.8l-1.4,2.9l5.9,6.7l2.7-0.6l2.8-6.4l5.2-9l-2-2.7l0.6-2.7l9.1,0.4l-0.5,4.3l-4.8,0.3l-3.3,7l-5,9.7l2,2l-1.8,8.7
		l-0.3,7.2l-26-1.4l-3.1,7.3l-2.4,5.5l-0.2,2.7l-2.5,0.6l-2,4.2l1.1,2.5l-1.6,0.7l-3.6-2.1l-1.7,2.7l-0.2,3.7l-5.1,7.1l-2.3-0.9
		l-2.7-2.4l-4.1-0.4l-0.9,9.1l1.8,1.3l-0.2,4.2l-1.4,1.3l-0.3,5.3l3.6,3.5l-2.4,4.3l-0.4,5.9l-16.7-1.9l-2.8,0.6v3l0.5,2.7l-1.9,10
		l-4.2,9.1l-3.9,4.4l2.1,1.8l-0.7,5.2l-3.2,1.6l-0.6,3.8l1.8,0.9l-3,4.6l0.1,4.6l0.7,0.9l-0.3,3.2l-4.1,3.1H275l-2.4,1.1l-5.6-0.2
		l-0.6,3.4l-6.1,2.8l-7.8-0.2l-1.6-3.1l0.5-3.7l3.8-2.9l-1.6-4.8l-7.9-5.7l-0.7-2.9l-4.2-1.5l0.6-2.3l2.6-4.2l-2.5-2.2l0.6-3.5
		l5.6-10.4l6.8-2.7l0.1-18.3l-5.9,0.3l-5.7,8.8l-6.7,7l-1.2,2.2l-3-2.5l-1.1,1.1l-3.9-5.8l-4.7,0.7l-0.4-10.8l-3.9-0.8L216,372
		l8.5-8.4l0.2-4.2l3-1.3l0.9-5.9l4.1-8.8l-7-4.6l0.2-3.9l-2.1-0.9l-0.2-3.8l-5.9-3l-5.2-0.4l-1.3-5.9l3.2-4.3l8.8-0.5l1.7-5.5
		l2.4-1.5l9.9,0.4l4.3-2l2.8-6.7l1.1-23.1l2.6-2.1l-1-20.5l2.2-4.2l0.5-20.8L250.8,225.3z"/>
	<path class="st6" d="M144.7,395.4l10.9,7.7l11.8,4.5l-0.5,3c0,0-2.5,4-2.6,3.8s-8,0.3-8,0.3l-3.5,2.5l0.5,2.6l6,2.5l14.4-0.3
		l13,5.1l14.5,0.1l5.2-1.4l5.6,1.8l-0.1,4l-0.1,9.5l11.5,5.5l5.5,2.5l2-0.8l-4.4-5l-0.1-2.1l2.4-0.1l0.7,1.9l3.1,1l7.5,7.8l9.5,0.1
		l2.7-5.1l-2-3.2l0.6-3.7l3.7-2.9l-1.6-4.8l-7.9-5.7l-0.7-2.9l-4.2-1.5l0.6-2.2l2.5-4.2l-2.4-2.2l0.6-3.5l5.6-10.4l6.8-2.7l0.2-18.3
		l-5.9,0.3l-5.7,8.8l-6.7,7l-1.2,2.1l-2.9-2.3l-1.1,1l-3.9-5.8l-4.6,0.7l-0.4-10.8l-3.9-0.9L216,372l8.6-8.4l0.2-4.2l3.1-1.3
		l0.9-5.9l4.1-8.8l-6.9-4.5l0.1-4l-2.1-0.8l-0.2-3.8l-6-2.9l-5.1-0.4l-0.9,1.1l-7.5,0.1l-6-2.5l-1-2.4l-6.3-0.7l-2.2-2.2L186,321
		l-0.1,4.3l-11.3,11.6l-0.1,3.1l8.1-0.3l4.2,1.4l4.7,4.3l5.2,1.6l0.4,6.6l-8.3-0.2l-4.1,6.1l-8.2-0.7l-2.4-3.6l-5.6-4l-4.9,3
		l-0.1,3.2h-9.7l-10.7-3.4l-2.5,1.6l-0.9,26.9l5.6,7L145,395L144.7,395.4z"/>
	<g>
		<text transform="matrix(1 0 0 1 281.2144 286.9441)" class="st1 st2">Kotalipara</text>
	</g>
	<g>
		<text transform="matrix(1 0 0 1 147.7561 377.4025)" class="st1 st2">Tungipara</text>
	</g>
	<g>
		<circle class="st3" cx="274" cy="308" r="13.4"/>
		<text transform="matrix(1 0 0 1 268.0378 315.2425)" class="st1 st4">3</text>
	</g>
</g>
</svg>
