<?xml version="1.0" encoding="utf-8"?>
<!-- Generator: Adobe Illustrator 25.2.1, SVG Export Plug-In . SVG Version: 6.00 Build 0)  -->
<svg version="1.1" id="Layer_1" xmlns="http://www.w3.org/2000/svg" xmlns:xlink="http://www.w3.org/1999/xlink" x="0px" y="0px"
	 viewBox="0 0 358 478" style="enable-background:new 0 0 358 478;" xml:space="preserve">
<style type="text/css">
	.st0{fill:#ABBEED;stroke:#FFFFFF;stroke-width:0.5;stroke-miterlimit:10;}
	.st1{font-family:'TimesNewRomanPSMT';}
	.st2{font-size:16px;}
	.st3{fill:#FFFFFF;}
	.st4{font-size:24.672px;}
	.st5{fill:#9BB6EA;stroke:#FFFFFF;stroke-width:0.5;stroke-miterlimit:10;}
	.st6{fill:#8BAFE8;stroke:#FFFFFF;stroke-width:0.5;stroke-miterlimit:10;}
</style>
<g id="madaripur-1">
	<polygon class="st0" points="124.3,173.8 126,177.6 127.8,181.4 130.9,182.4 132.5,185.5 132.4,188.7 130.2,193 130.8,193.6 
		134.8,193 136.4,193.8 140.1,189.8 140.4,188.3 139.5,184.6 140.2,183.1 142.6,182.8 150,182.5 155,180.6 161.6,179.9 166.5,180.1 
		167,183.1 170.6,192 168.5,194.7 162.4,200 160.8,201.8 160.9,204.5 162.7,204.4 169.5,199.8 173.5,197 176.3,197.9 180,200.7 
		180.9,203.2 185.4,205 189.7,211.4 191.5,211.6 192.3,208.6 196.7,205.4 199.2,204.1 200.4,205.4 199.9,210.8 200.8,215 
		204.3,216.6 205.6,219 208.8,218.8 210.4,217.7 210.8,215.8 212.8,214.4 215.2,208.9 216.4,202.6 218.7,202.4 222.7,203.8 
		225.5,208 228.3,211.6 231.3,213 232.5,212.6 233.2,210.2 237.6,209.5 239.9,206.6 242.9,207.2 249.4,205.6 250.5,205.8 
		251.8,204.3 253.8,199.1 253.9,195 256.4,189.6 258.2,188.9 256.8,183.8 258.4,181.9 256.6,180.8 257.5,178.3 260.8,176.5 
		261.4,167.8 261.8,162.5 259,158.3 258.2,154.3 250.9,153.5 250.1,151.6 248.2,150.7 247.8,148.8 254.7,146.2 261.6,141.9 
		263.8,138.9 264.5,134.2 263.8,133.7 262.2,135 261,134.5 260.4,128.8 257,129.4 252,128.4 250.9,126.4 251.2,122.8 253.9,119.6 
		254.1,116.2 261.2,110.2 262,108.7 266.1,109 268,107.9 271.1,107.9 274.2,106.9 276.6,108.3 278,107.3 273.4,101.6 265.2,97.9 
		261.2,97.4 258.9,95 251.7,94.3 246,94.8 245.6,92.8 243.8,92.6 241.8,90.9 242.5,82.7 241.1,81.5 241.2,79.4 244.8,78.1 
		247.7,78.6 249,76.1 253.4,75.6 256.2,74.2 258.1,70.3 256.6,68.3 256.9,66.9 259.4,66.1 262.1,64.6 266.5,64.1 270.9,65.2 
		271.3,66.5 273.1,66.2 275.9,65.3 282.8,65.3 283,62.9 281.6,61.7 281.7,59.4 284.3,59 288.8,51.7 289,49.9 291,49.1 290.9,47.9 
		288.1,46.7 279.6,41 273.6,37.9 266.6,34.9 263.5,33.8 260.2,30.5 245.7,22.4 239.5,20 227.1,12.9 220.4,9.2 215.5,7.1 208.2,2.1 
		204.4,4.1 202.9,7 200.2,9.1 197.5,9.3 195.1,8.2 193,9.7 192.7,13 191.5,16.5 190.3,23 187.7,26.7 186.7,30.1 184.8,29.8 
		179.5,25.9 174.3,21.3 173,21.8 172.2,24.8 169.6,28.7 163.1,32.4 156.5,35.6 149.4,36 147.2,38.4 147.5,40.3 145,44 146.1,46.6 
		146,48.2 144.5,50.5 147.6,53.3 147.5,54.3 146.6,55.1 148.7,57 148.2,59.4 145.1,63.1 138,68.9 133.5,73.6 136.4,74.6 138.2,74.1 
		141.1,74.6 142.5,74.2 146,75.4 147.6,74.7 149,74.7 149,75.6 143.3,81.1 137.3,85.7 139.8,88.8 139.5,89.9 136.9,91.8 138.1,94.2 
		136.7,94.5 137.2,96.9 136.1,99 137.5,101.5 140.1,101.6 141,103.1 138.4,105.5 136.8,105.2 136.7,107.2 134.7,108.7 135.8,110.1 
		134.3,113 132.5,118.3 134.5,120.8 134,127 130.1,131.7 129.7,134.2 131.8,135 132.8,136.6 135.3,134.7 136.7,136 135.4,137.7 
		137,138.9 137.6,140.4 140.7,140.6 141.8,142 141.3,144.6 144.2,149.4 142.8,151 140,151.3 139.4,154.2 136.2,154.9 136.2,161.5 
		136.5,167.5 135.1,170.7 131.7,172 131.4,174.1 126.2,174.1 	"/>
	<g>
		<text transform="matrix(1 0 0 1 165.0834 99.667)" class="st1 st2">Shibchar</text>
	</g>
	<g id="dist-gopalganj-1_5_">
		<g>
			<circle class="st3" cx="211.5" cy="140.5" r="13.4"/>
			<text transform="matrix(1 0 0 1 204.5378 147.7425)" class="st1 st4">1</text>
		</g>
	</g>
</g>
<g id="madaripur-2">
	<path class="st5" d="M127.4,333.6l-2.2,1.1l-0.8,3.4l-4.7,2.3l-7.1-1.2l-3.2,2l-0.7,3.5l-3.4,1.4l-1.8,4.6l-2.3,1.3l-5.6-0.1
		l-1.3-4.4l1.1-7.1l2.2-0.1l-0.7-2.4l-15.2-5l-9.4-1.3l0.6-5.9l-2.7-3c0,0-11.8,6.1-11.5,5.8c0.4-0.2-3.7-0.7-3.7-0.7l-1.4,5.2
		l-4.7,13.2l-2.7,1l-6.3-0.2l-2.6,0.5l-4.7-0.7l-0.4-2.2l-3.1-0.8l-1.8,0.6l-4.6-1.3l-1.2,0.8l-3.1-1.8l-9.2-1l-1-1.5l0.7-1.2
		l-0.6-1.2l0.8-3l2.6,0.4l0.8-6.4l1.5-3.3l-1.5-3.1l0.2-3.2l1.5-1.1l1.8-0.2l-1-2.7l0.2-3.9l-1.3-2l0.6-2l1.7-0.6l2.3,0.4l0.4-1.3
		l-0.3-2.5l1.1-0.8l3.9,1.2l4.5,0.2l1.2,0.7l4.2-4.8l0.1-6.4l1-1.4l1.5-0.5l0.9-5.1l4.1-0.4l1.8-2.7l-1.2-1.4l-0.2-3.7l-0.8-1.9
		l0.5-3l5.3-4l0.1-3.2l-1.6-6l1-1.1h1.8l0.5-3.6l-0.8-1.5l2-1.7l2.6,1.1l1.5-1.4l1.3,0.2l2,1.6l1.6-0.8l3.8-7.6l5.8-3.1l1-0.9
		l-0.3-2.2l1.6-0.1l5,2.3l3-5.2l0.3-2.4l1.7,0.1l0.2-1.2l-2-2l-0.4-2.4l3-3.3c0,0-0.5-4.7-0.5-4.9s1.7-3.4,1.8-3.6
		c0-0.2,4.8-3.9,4.8-3.9l-1.5-1.9l-1.8-0.4l-2.6-7.1l-1.9-0.6l1-2.2l-0.7-3.8l1.8-3.1l-0.8-4.3l0.6-5.7l-0.4-2.9l0.1-5.8l3.2-5
		l3.2-3l0.6-10.3l-1.9-12.7L88,141l1.8,0.2l5.4,3.8l10.1,11.2l7,9.2l4.3,8.7c0,0,1.5,0.8,1.5,0.6s4.3-3.6,4.3-3.6l1.6,0.2l0.7,2.7
		l3.1,7.5l3.1,1l1.6,3.1l-0.1,3.2l-2.2,4.3l0.6,0.6l4-0.6l1.7,0.9l4.2,4.9l-0.3,2.9l-3.7,1.4l-2.7-0.4l-2.5,1.1l0.1,1.5l7.2,6.3
		l1,1.7l-0.3,2.5l-3.4,1.9l1.5,2.6l2.8,1.2l0.5-3.1l1.9-0.5l4.8,2.5l3.1,4.9l-0.1,5.5l-4.2,3.5l1.5,1.3l2.4,4.5l1.1,0.3l5.2-2.1
		l2,3.4l2.4,2.5l-2.6,1.9l-2.2-1.4l-12.1,6.4l-1.5,3.5l-1.2-2.1l-3.5,2.6l1.4,4.7l0.5,15.3l-0.8,1.2l-0.3,3.3l-3,1.1l-2.1,3.8
		l0.6,2.2l5.4,6.5l2,0.5l2-1l1.9-1.3l0.1,1.5l-2.2,3l-2,1.3l-0.7,1.2l0.6,2.5l-0.7,2.7l0.4,5.4l-3,2l-2.2,1l-2.9-0.8L131,311
		l-1.2,1.2L129,316l1,1.6v3l-1.3,1.2l-0.8,1.4v5.8l-1,3.4L127.4,333.6z"/>
	<g>
		<text transform="matrix(1 0 0 1 93.75 240.917)" class="st1 st2">Rajoir</text>
	</g>
	<g id="dist-gopalganj-1_2_">
		<g>
			<circle class="st3" cx="100.2" cy="277.1" r="13.4"/>
			<text transform="matrix(1 0 0 1 93.2044 284.4091)" class="st1 st4">2</text>
		</g>
	</g>
</g>
<g id="madaripur-3">
	<path class="st6" d="M250.3,205.8l0.2,2.1l-1.8,1l-0.8,2.7l2.1,1.8l2.8,0.5l4.7,7.5l1.3,2.6l-0.7,10.9l0.1,2.8l3.3-0.8l1.9-2.7
		l1.6,0.2l-1.7,9.1l-0.5,5.3l3.1,4.1l2.3,3.6l6,0.7l3.5,0.1l1.4,1.8l2.7,7.1l2.6,3.6l1.5-3.4l6,2l2.5,4l-1.6,4.1v5.5l2.8,5.9
		l2.3,2.4l-0.2,3l-1.1,1.3l-2,0.3l-2.6,2.7l-4.5,7l-4.1,1.5l-1-0.7l-0.3-1.2l-3.4-0.4l-4.1,0.3l0.7,1.5l5.6,2.6l-1.8,3l-0.8,2.9
		L273,309l-1.6,4.1l-1.5,2.6l-4.7-0.3l-1.3,0.9l0.9,2.8l-0.1,4.8l-2.1,1.5l-0.1,1.5l3.1,2.2l2.2,0.6l1.3,2.1l-1.7,3.1l-1.1,1.8h-3.8
		l-1,0.8l-4.3-0.1l-2.4,1.7l-0.9,2.1l-1.2,1.2l0.4,2.2l-7.8,5.5l-2.9-1.9l-1.9,0.3l-1.6-3l2.5-5l-1.4-1.1l-2.6,1l-5.9-0.2l-2.3,1.8
		c0,0-1.3-1-1.2-1s1-2,1-2l-0.5-1.2l-1,0.4l-0.7-3.9l-3.6,1.7l-4.3-0.9l-0.6-1.3l1.5-1.5l-0.6-3.4L217,326l0.3-2.4l-1.5-2.2
		l-2.1,0.3l-1.7,3.2l-0.1,1.7l-3.6,0.7l-0.6-1.9l-1.4,0.7l-6.3-0.3l-0.7-1.6l-0.3-3.7l-2.8-1.3l-3,1.5l-1.9,3.3l0.8,3.9l-1,1.4
		l-2.2-0.2l-5.6,1.9l-0.2,1.5l2.7,2.8l2,2.1l0.3,5.5l-1.6,1l-4.5-0.5l-3.9-2.2l-5.4,0.1l-6.9,0.7l-5.6,0.3l-1.1,4.5l-4.7-0.4h-4.2
		l-0.7-1.2l0.1-2l-1.6-1.7l-1.7,0.3l-1.3,1.7l-6,1.7l-5.2,0.6L127,346l-1.6-1.4l0.2-3.9l1.3-4.5l0.5-2.3l-0.4-1.1l1-3.4v-5.7
		l0.8-1.4l1.3-1.3v-3l-1-1.6l0.6-3.3l1.3-1.2l1.9,0.2l2.9,0.8l2.2-1.1l3-1.9l-0.3-5.5l0.7-2.6l-0.6-2.5l0.7-1.2l1.9-1.3l2.3-3
		l-0.1-1.6l-1.9,1.3l-1.9,0.9l-2-0.5l-5.4-6.5l-0.6-2.2l2.1-3.8l3-1.1l0.3-3.2l0.9-1.3l-0.5-15.3l-1.4-4.8l3.6-2.7l1.1,2.2l1.5-3.6
		l12.1-6.4l2.2,1.4l2.7-1.9l-2.5-2.7l-2-3.4c0,0-5.3,2.2-5.2,2.1s-1.1-0.3-1.1-0.3l-2.4-4.5l-1.5-1.3l4.2-3.5l0.1-5.5l-3.1-4.9
		l-4.8-2.5l-1.9,0.5l-0.5,3.2l-2.8-1.2l-1.5-2.7l3.5-1.9l0.3-2.5l-0.9-1.7l-4.3-3.7l-2.9-2.5v-1.5l2.5-1.1l2.8,0.3l3.7-1.4l0.3-2.9
		l-4.3-5l3.7-4l0.3-1.5l-0.9-3.7l0.7-1.4l2.4-0.4l7.4-0.2l5-2l6.6-0.6l4.9,0.2l0.4,3l3.6,8.9l-2.2,2.7l-6.1,5.2l-1.6,1.8l0.2,2.6
		l1.8-0.1l10.9-7.3l2.8,0.8l3.7,2.8l0.9,2.5l4.5,1.8l4.3,6.3l1.8,0.3l0.8-3l4.4-3.2l2.5-1.3l1.2,1.2l-0.4,5.5l0.8,4.1l3.5,1.6
		l1.4,2.4l3.1-0.2l1.6-1.1l0.4-1.9l2-1.5l2.4-5.5l1.2-6.3l2.3-0.2l4,1.4l5.5,7.8l3,1.4l1.2-0.3l0.8-2.4l4.4-0.7l2.3-3l3,0.7l6.5-1.7
		L250.3,205.8z"/>
	<path class="st6" d="M159,346.6l0.2,1.2l-1.3,1.8H155l-0.3,3.3h-2.1l-1.2,1.5l-0.6,5.4l0.4,3.5l-1,7l-0.5,6.8l2.5,1.9l3.1,0.6
		l2.4-1l0.6-1.9l2,0.1l4.4,3.9l4.2,1l0.2,1.7h-2.7l-2.9,3.6l-2.9,0.3l-4.7-2.5l-3.6,0.2l-0.9,2.5l2.3,11.9l2.9,6.5l0.2,1.2l-1.5,2.9
		l0.3,3.9l3.5,7.9l2.6,1.1l3.3-1l2.2-6.3l4.6-9.2l-1.7-2.5l1-2.4l1.3-0.2l1-3l4.1-1.4l9.3,0.8l1.3-0.3l2.5-4.2l0.3-6.4l2.2-1
		l1.9-3.4l3.1,0.6l2.1,1.2l2,0.3l2.4,1.4l3,0.1l1.3,2.6l3.9-0.4l2.3,3.3l6,1.3l1.3-1.1l1.5,0.2l1.1,2.9l1.3-0.4l3.1-6.5l0.7-2.8
		l2.8-2.3l4.3-1.6l2.5,1.6l5.2,9.2l3.8,5.9l4.4,2.1l2.7,3.1l0.4,3.1l-0.3,4.7l-3.4,9.7l1,15l-1.4,6l-2.3,7.2l0.9,11.2l2.3,5.8
		l4.3,6.1l2.1-0.2l2.2-4.3l2.3-2.2l3.5-1.5l4.8,1.1l2,1.7l0.1,2.5l-1.9,4.6l1.6,0.9l6.4-5.4l6.9-3.5l4.1-0.9l5.9,1.3l1.9-0.2
		l3.1,1.1l1.2-1.7l2.2,0.3l5.3-1.5l3.7-0.1l1.7-1.1h2l3.7-0.5l2.6-2.5l5-7.7c0,0,2.6-7.5,2.7-7.5c0-0.1-0.3-9.1-0.3-9.1l-0.4-5.2
		l-2.5-4.6l-7.6-9.2l-0.2-11.9l-1.2-5.8l2.1-2.9l6.2-2.4l1.2,0.4l3.9-1.7l5.7,1.8l2.4-0.9l2.2,2.2l3.2-0.4l2.1-1.8l-1.9-2.7
		l-4.3-1.9l-0.1-3.3l-3.6-0.6l-1.5-3l1.5-1.6l4-4.1l0.6-3.2l0.1-2.7l2.4-4.3l1.3-3.8l2.1-2.4l0.2-4.1l0.8-1.3l-0.1-4.5l-1.9-0.3
		l-0.1-2.5l1.4-3.1l-0.1-4.1l-2.4-0.2l-1.6-1.8v-3.3l1.2-1.7l-0.4-5l3.8-3.6l1.3-2.5l-0.6-2.8l-1.2-0.2l-0.6,1.1l-3.7-0.2l-3.4-0.9
		l-2.6,3.3l0.3,1.8l-0.8,0.4l-1.4-0.7l-2.9-3.2l-4.5,0.1l-2.9,1.8l-2.8-0.1l-1.7-1.9l-2.6,0.2l-0.7,1.2l-3.5,1.8l-1.8-0.3l-0.1-1.3
		l0.4-4l-1.4-1.9l-0.1-3l-3.7,0.2l-4.2,0.9l-1.3-1.1l-1.6,0.4l-1.5-1.4v-3l-1.3-3l-0.7-6l1-0.8l-1.7-1.6l0.1-2.8l-0.4-0.7l-1.1,1.3
		l-2,0.3l-2.6,2.7l-4.5,7l-4.1,1.5l-1-0.8l-0.2-1.2l-3.4-0.4l-4,0.4l0.7,1.5l5.5,2.6l-1.7,3l-0.8,2.9l-5.4-5.1l-1.5,4l-1.6,2.6
		l-4.8-0.3l-1.3,1l0.9,2.8l-0.1,4.8l-2.1,1.5l-0.2,1.5l3,2.2l2.2,0.6l1.3,2.1l-2.8,4.9h-3.8l-1,0.9l-4.3-0.2l-2.4,1.8l-0.9,2
		l-1.2,1.1l0.4,2.3l-7.7,5.5l-3-1.9l-1.8,0.3l-1.6-3l2.5-5l-1.4-1.1l-2.6,1l-5.9-0.2l-2.3,1.8l-1.2-1l0.9-2.1l-0.5-1.2l-1,0.3
		l-0.8-3.9l-3.6,1.7l-4.4-0.9l-0.5-1.3l1.5-1.5l-0.6-3.5l-2.2-2.9l0.3-2.3l-1.5-2.2l-2.1,0.3l-1.7,3.2l-0.2,1.7l-3.6,0.7l-0.6-1.9
		l-1.4,0.7l-6.3-0.3l-0.7-1.6l-0.3-3.8l-2.8-1.2l-3.1,1.6l-1.9,3.2l0.8,3.9l-1,1.4l-2.2-0.2l-5.5,1.9l-0.2,1.5l4.7,4.8l0.3,5.5
		l-1.6,1l-4.5-0.5l-3.9-2.3l-5.3,0.1l-7,0.8l-5.6,0.3L159,346.6z"/>
	<g>
		<text transform="matrix(1 0 0 1 191.5834 302.917)" class="st1 st2">Madaripur</text>
	</g>
	<g>
		<text transform="matrix(1 0 0 1 267.75 378.5005)" class="st1 st2">Kalkini</text>
	</g>
	<g id="dist-gopalganj-1_1_">
		<g>
			<circle class="st3" cx="207.2" cy="268.8" r="13.4"/>
			<text transform="matrix(1 0 0 1 200.2044 276.0758)" class="st1 st4">3</text>
		</g>
	</g>
</g>
</svg>
