<?xml version="1.0" encoding="utf-8"?>
<!-- Generator: Adobe Illustrator 25.2.1, SVG Export Plug-In . SVG Version: 6.00 Build 0)  -->
<svg version="1.1" id="Layer_1" xmlns="http://www.w3.org/2000/svg" xmlns:xlink="http://www.w3.org/1999/xlink" x="0px" y="0px"
	 viewBox="0 0 400 306" style="enable-background:new 0 0 400 306;" xml:space="preserve">
<style type="text/css">
	.st0{fill:#8BAFE8;stroke:#FFFFFF;stroke-width:0.5;stroke-miterlimit:10;}
	.st1{font-family:'TimesNewRomanPSMT';}
	.st2{font-size:16px;}
	.st3{fill:#FFFFFF;}
	.st4{font-size:24.672px;}
	.st5{fill:#7CA7E5;stroke:#FFFFFF;stroke-width:0.5;stroke-miterlimit:10;}
	.st6{fill:#ABBEED;stroke:#FFFFFF;stroke-width:0.5;stroke-miterlimit:10;}
</style>
<g id="manikganj-1">
	<polygon class="st0" points="24.1,92.7 17.4,90.2 17.2,88.5 16.5,86.8 17.3,84.4 16.4,83.6 15.2,84.6 12.9,84.7 10,83.4 9.6,81 
		10.7,79.3 10.4,75.3 8.8,73.8 9.6,72.5 11.3,72.8 13.1,70.4 15.2,70.5 14.9,65 14.8,59.5 14.8,55.5 14.4,39.7 15.8,34.7 19.7,29.2 
		24.5,24.8 31.6,19.3 38,15 45.4,10.9 50.1,9.4 54.6,9.1 62.9,9 65.9,8.5 73.1,4.5 75.7,1.9 76.8,1.9 78.2,7.4 78.9,10.4 78,12.1 
		78.1,19.1 73.5,27.1 72.7,31.1 70,34.4 71,34.9 72.7,34.3 73.6,35.2 71.7,37.7 66.4,40.7 64.6,42.1 63.5,44 67.7,45.6 70.6,47.1 
		72.4,46.8 73.5,44.9 75.7,44.1 76.9,42.6 77.2,39 79.4,36.8 83.5,37.7 82.5,42.8 83,43.6 86.7,42.7 92.2,44.1 90.8,47.5 94.5,48.7 
		95.7,47.6 96.2,44.1 97,43.6 98.8,44.2 99.7,43.4 99.5,41.6 101,40.7 104.8,41.4 105.9,44.1 108.4,43.2 112.5,44.3 114.1,45.3 
		113.7,47.1 115.7,48.1 115,51.4 117,52.6 118.3,52 118.8,49.9 121.9,49.4 121.6,52 123.3,52.2 123.6,53 123.6,55 125.1,54.9 
		127.3,53.4 130.1,53.1 131.8,51.1 134,50.4 134.7,49.6 133.1,48.1 131.7,45.2 132.2,44.5 133.3,45.4 134.6,43.1 134.9,40.6 
		132.8,38.8 132.7,34.7 133.7,33.9 135.8,35.3 137.3,34.3 137.5,31.7 140.8,32.1 139.7,37.7 140,39.3 142.3,39.7 142.5,40.6 
		140.8,43.1 141.2,46 142.7,47.1 142.8,49 144.3,50.2 150.7,50.6 152,49.3 151.6,47.7 149.1,47.4 148.2,45.4 149.1,43.2 152.3,41.9 
		152.6,41.1 151.1,39.5 151.7,38.4 153.6,39 156.2,38.6 158.1,37.3 159.5,37.4 160,36.4 158.4,34.2 159,33.2 159.8,32.8 160,29.9 
		161,29.5 162.1,30.2 161.9,32.7 162.5,33 165.1,32.7 164.2,34 165.1,34.6 166.8,33.7 167.8,33.6 170.6,35.6 170.3,37.8 168.2,39.5 
		168.4,40.8 170.9,40.1 173,40.7 174.6,40.5 175.2,41.2 174.3,43.4 174.8,44.4 178.2,44.3 179.5,45.2 181.3,44.2 180.8,40.8 
		182.3,40.1 184.2,41.2 185.8,40.2 187.1,38.9 188.7,39.1 190.3,40.3 190,41.6 187.5,44.3 186.6,46.1 186.4,49 187.5,50.9 
		185.9,54.1 187.7,56.8 187.8,62.7 187.1,63 185.1,62.6 183.7,63.5 184.6,67.3 186.1,68.4 186.3,70.5 188.7,69.7 189.5,70.4 
		189.4,71.3 187.9,71.4 186.7,72.7 186.8,73.9 188.7,77.1 188.6,79.1 186.2,79.3 184,80.8 181.1,80.2 178,82.2 177,81.8 177,78.8 
		175.4,78.2 170.6,81.3 168.4,81.4 164.3,79.1 162.8,77.7 161,79.1 160.3,78.5 160.2,77.1 158,78.1 155.3,76.1 151.7,76.9 151,76.2 
		151.5,75.1 150.4,72.3 146.7,71.7 137.1,71.5 135,72 134.4,73.6 133.5,76.2 132.9,76.9 131.2,76.2 126.5,73.2 123.8,74.6 122,74.1 
		121,76.4 118.7,79.7 115,84.9 114.4,91.2 114.9,92.6 114.4,93 112.7,92.8 112.4,96 113,96.8 114.8,96.9 115.4,97.5 114.5,101.9 
		113,104.4 110.4,105 109,105.9 105.7,105.7 104.9,104.9 102.4,104.4 101.6,102.6 101.7,101.2 98.2,98 98.5,97.2 97.4,97.1 
		96.4,98.4 89.7,97.2 88.8,97.9 88.5,100 86.9,101.3 84.6,99.7 83.2,100.2 81.9,100.2 81.3,101.2 79.8,100.1 78.4,102.1 76.4,102.5 
		74.8,101.1 76.3,99.1 79.5,97 79,95 76.6,93.7 75.3,94.5 75.1,97.3 74.2,98 71.3,94.3 69.3,95.3 68.6,97 69,99 67.9,99.8 
		66.4,99.4 64.5,101.4 63.4,100.8 63.9,99.8 62.6,99 60.6,100.2 55.9,100 50.6,98.4 48.9,97.7 46.7,98.6 42.5,98.5 41.1,96.9 
		39.1,96.3 27.8,96.7 25.9,94 	"/>
	<polygon class="st0" points="18.7,90.7 19.3,93.5 20.3,95.5 20.6,99 21.5,100 21.3,101 19.4,102.6 20.9,104.5 22.4,105 23,107.4 
		20.1,108.9 19.5,112.9 21.4,116.6 18.5,120.5 17.4,121.8 18.5,126.5 19,126.8 19.8,125.7 20.2,121.5 23.1,118.8 24.2,119.4 
		24,123.3 24.9,126.4 28.5,132.1 32.3,136.9 36.3,141.6 38.7,144.2 39.9,146.1 41.6,146.7 42.7,148.4 42.6,151.2 43.3,153.2 
		45.9,151.4 48.3,149.8 51.3,149 58.1,148.3 62.5,147.8 64.7,147.4 67.6,150.5 69.3,154 69.4,160.2 70.4,163.9 70.4,171.7 70,174 
		71,177 72.1,179.2 72.3,180.9 74.8,183.9 76.7,186.2 80.9,190.4 84.4,193.1 87.1,195.9 91.6,198.7 95.2,201.3 97.2,202.7 
		99.1,205.6 101.8,209.4 103.7,213.7 105,215.7 105.9,219.3 108.2,224.2 110.5,228.4 111.3,228.5 115.5,223.7 121,217.4 
		124.7,212.6 126.4,211.9 130.2,207.9 133.2,207.3 133.4,206.4 132.4,205.4 132.4,203 131.2,202.5 127.7,202.7 125,203.9 
		123.7,202.7 123.4,199.8 122,198.3 121.3,194.8 121.9,190.4 126,188.2 126.9,186.4 131.3,184.8 135.7,182.6 140.3,178.9 
		142.6,176.9 146.4,176.8 149,178.4 151.1,181.2 152.2,181.2 154.8,178.2 159.1,177.9 163.4,178 164.7,177.3 169,177.7 172.5,176.5 
		172.7,174.2 176.3,172.8 176.6,171.8 174.6,171 172.9,167.8 173.4,164.9 171.9,164.1 171.8,162 174.8,158.1 174.3,157.3 
		172.4,157.5 169.7,162 168.1,160.9 167.2,158.7 163.5,155.3 164.2,153.5 166.5,151.3 167.4,151.1 166.9,149.1 167.4,147.9 
		165.7,147.6 162.3,148.6 159.5,150.6 157.5,149.9 157.2,148 154.6,148 153.6,149.3 152.7,148.7 152.5,144.7 151.3,143.1 
		152.6,142.1 151.2,141.1 148.9,142.5 148.8,139.9 147.8,139.2 146.3,139.1 147.8,136.8 147.3,132.8 150.6,129.9 150.5,129.2 
		148.4,125.8 148.3,124.3 146,125.5 144.6,124.8 142.3,122.2 140.3,123.5 139.4,126.4 137.5,128.3 135.6,128.4 134.8,128.9 
		134,131.4 133.1,131.6 131.3,129.6 128.2,131 127.7,133.6 127,134.3 126.2,133.8 126.3,130.5 123.5,131.7 122.2,133.6 121.5,135.4 
		122,136.8 120.9,137.8 119.4,138 118,140.1 115.8,138.9 114.7,139.3 112.5,137.9 107.7,141.2 106.9,140.5 107.6,139.8 101.8,139.8 
		100,138.1 100.2,135.2 101.7,131.7 104.3,128.4 104.1,127.6 105.2,126.5 104.6,126 103.4,127 98.5,124.7 97.7,123.9 98,121.5 
		97.5,119.4 98.1,117.7 97,115.7 97.9,114.3 100.2,115.8 101.2,114.2 99.1,110.8 100.3,108.9 101.6,109.5 101.8,108.3 100.5,107.2 
		101.7,104.7 102.4,104.4 101.6,102.6 101.7,101.2 98.2,98 98.5,97.2 97.4,97.1 96.4,98.4 89.7,97.2 88.8,97.9 88.4,100 86.9,101.3 
		84.6,99.7 83.2,100.2 81.9,100.2 81.3,101.2 79.8,100.2 78.4,102.1 76.4,102.5 74.8,101.1 76.3,99.1 79.5,97 78.9,94.9 76.6,93.7 
		75.3,94.5 75.1,97.3 74.2,98 71.2,94.2 69.3,95.3 68.6,97 69,99 67.9,99.8 66.5,99.4 64.5,101.4 63.4,100.8 63.9,99.8 62.6,99 
		60.6,100.2 55.9,100 50.6,98.4 48.9,97.7 46.7,98.6 42.5,98.5 41.1,96.9 39.1,96.3 35.7,96.4 27.8,96.7 25.9,94 24.1,92.7 19,90.8 
			"/>
	<path class="st0" d="M184.9,94.7l2.8-2.5l1.5-1.1l-0.3-4l-1.3-1.7l-1.8,1.1l-0.4-0.9l0.5-1.8l-1.8-3.1l-2.9-0.5l-3.1,2l-1.1-0.4v-3
		l-1.7-0.6l-4.7,3.1l-2.2,0.1l-4.1-2.3l-1.5-1.4l-1.7,1.4l-0.7-0.6l-0.1-1.3l-2.3,0.9l-2.6-2l-3.6,0.8l-0.8-0.7l0.5-1l-1.1-2.9
		l-3.7-0.6l-9.6-0.2L135,72l-1.5,4.1l-0.6,0.7l-1.8-0.7l-4.6-3l-2.7,1.4L122,74l-1,2.2l-4.4,6.3l-1.6,2.3l-0.6,6.2l0.5,1.4l-0.5,0.4
		l-1.6-0.2l-0.3,3.2l0.6,0.8l1.9,0.1l0.5,0.6l-0.8,4.3l-1.5,2.5l-2.7,0.7l-1.4,0.9l-3.3-0.2l-0.8-0.9l-2.6-0.5l-0.7,0.3l-1.1,2.5
		l1.2,1l-0.2,1.2l-1.3-0.5l-1.2,1.9l2.1,3.3l-0.9,1.6l-2.4-1.5l-0.9,1.3l1.1,2.1l-0.5,1.7l0.6,2.1l-0.4,2.3l0.8,0.9l5,2.3l1.2-1
		l0.5,0.5l-1.1,1.2l0.2,0.8l-2.5,3.3l-1.6,3.4l-0.1,2.9l1.7,1.8h5.7l-0.6,0.7l0.8,0.7l4.7-3.2l2.2,1.3l1.1-0.4l2.1,1.2l1.4-2.1
		l1.6-0.2l1.1-1l-0.6-1.3l0.7-1.9l1.4-1.9l2.8-1.2l-0.1,3.3l0.8,0.5l0.7-0.7l0.6-2.7l3.1-1.4l1.8,2l0.9-0.2l0.8-2.4l0.8-0.5l1.9-0.1
		l1.9-1.9l0.9-3l2-1.3l2.3,2.6l1.4,0.7l2.3-1.1l0.1,1.5l2.1,3.4v0.6l-3.3,3l0.5,3.9l-1.5,2.3l1.4,0.1l1.1,0.7l0.1,2.6l2.3-1.4l1.4,1
		l-1.3,1.1l1.1,1.6l0.2,4l0.9,0.6l1.1-1.3h2.5l0.4,1.9l1.9,0.7l2.9-2.1l3.3-1l1.7,0.3l-0.4,1.1l0.5,2l-0.9,0.2l-2.3,2.2l-0.7,1.8
		l3.7,3.4l0.9,2.3l1.6,1l2.6-4.5l1.9-0.2l0.5,0.8l-3,3.9l0.1,2.1l1.5,0.8l-0.5,2.9l1.7,3.2l2,0.7l-0.2,1l-3.6,1.4l-0.3,2.3l1.3-0.1
		l2.4,1.5l2.6-1h0.9l0.5,0.9l-0.3,1.6l2-0.1l1.2-1.5l1.2,0.2l3.1,1.9l1.6,0.9l-1.1,1.2L186,183h-1.6l1.3,1.7l2.6-1l1,1.7l2-0.3
		l2.2,2l1.5-0.3l1.3-1.8l2-0.5l1.2,0.8l1.4,1.6l3.3,0.5l2.5-1.5l2,0.2l2.2,1.1l0.7-2l3.5-3.2l-1.7-2v-2.3l0.9-2l0.1-5.9l-1.6-0.8
		l0.1-2.2l-0.8-0.7l-3.2,1h-7.3l-2.7-0.6l-1.2-1.4l2.3-2.6l0.1-7.7l0.7-0.2l0.9,0.4l2.4-1.1l0.1-1.4l-2.7-1l-0.5-1l0.2-0.7l1.4,0.4
		l0.6-0.8l-2-0.6l-0.1-1.1l1.9-1.8l1.6-0.5l1.7-0.8l0.2-0.7l-1.2-0.1L204,145l-4.8,0.3l-3.1-0.6l-1-1.1l0.2-4.1l0.8-4.7l1.8-0.6
		l0.5-0.8l-1.4-3.6l0.2-2.4l-1-0.4l-0.7,1.2l-1.3-0.7l0.3-1.4l-1.1-0.9l-1.6,0.6l-1.8-3.1l0.3-6.7l2.7-2.4l-1.7-4.7l-0.4-5.5
		l-0.9-1.9l-1-5l-1.5-0.5l-1.6,0.9l-1-0.9V94.7z"/>
	<g>
		<text transform="matrix(1 0 0 1 112.2148 67.1729)" class="st1 st2">Daulatpur</text>
	</g>
	<g>
		<text transform="matrix(1 0 0 1 135.6731 108.6312)" class="st1 st2">Gior</text>
	</g>
	<g>
		<text transform="matrix(1 0 0 1 81.6316 157.3812)" class="st1 st2">Shibaloy</text>
	</g>
	<g id="dist-gopalganj-1_1_">
		<g>
			<circle class="st3" cx="82.9" cy="77" r="13.4"/>
			<text transform="matrix(1 0 0 1 76.8711 84.2425)" class="st1 st4">1</text>
		</g>
	</g>
</g>
<g id="manikganj-2">
	<path class="st5" d="M280.8,93.6l2.2-0.4l2.5,3l2.8,2.2l-0.3,2.2l2.5,0.3l2,1.7l2.1-0.2l0.9,2.2l2.8,1.2l0.4,2.3l3.7,7.9l1.8,4.2
		l2.8,2.7l3.4,1.5l0.3,1.5h-2.8l-1.8,8.4l-1.1,1l1.9,5.5l-1.6,0.7l-2.9-3.3l-0.9,1.5l0.1,2.5l-0.9,0.8l-2.2-2.1l-6.7,5.6l-3.7,3
		l-2.5,3l-4.5,1.2l-3.2,1.3c-0.1,0-6,0.5-6,0.5l-1.3,3.9l1.5,2.4l-0.6,3.1l2,1.3l-3.1,4.6l-1.9,0.1l0.3,2.1l-1.8,2l-1.1-0.4
		l-0.5,3.5l-1.1,1.5l0.6,1.3l1.6,0.4v1.7l-0.9,1.6l-2,0.3l-0.8,3.4l-1.5,0.8l-2.1,0.1l0.1,8.3l1,1.3l3-0.8l7.7-1l0.9,2.7l2.1-0.4
		l0.4,0.6l-0.3,1.8l1.1,1.2l-0.1,2l1.8,2.3l-0.6,1.1l-2.9-0.3l4.2,3.1l-0.5,2.6l1.1,1.4l-0.4,7l-1,5.4l-1.7,2.4l2.7,1.2l2.5,0.4
		l2.6-1.3l0.3,0.5l-2.8,2.6l-0.2,5.3l-1.1-0.3l0.2-1.6l-1.7,0.7l-1.5-1.1v-1.4l-3.5-0.3l-0.3-1.7l-1.3-0.4l-1,1l-3.1-0.7l-1.7,0.8
		l-2.7-1.7l-2.7,1.5l0.5,2.4c0,0-0.3,2.5-0.2,2.5l-1.2,2v1.1l-3.9,2.2l-1.9-1l-3.5-1.7l-4.4-0.7l-2.1-0.7l-0.2-1.7l0.7-1.2l-0.1-2.8
		l1.4-0.5l2.8,0.5l4.4-1.8l1.1-1.1l0.1-1.5l-3.2-3.6l-3-2.2l-3.8-1.9l-0.9-2.9l-3.7-4.7l-2.7-0.3l-3.4-1.5l-1.6-1.7v-1.1l1.9-1.3
		l2.6-4l-0.6-3l-1.6-3.3l-2.9-2l-1.3,0.8l-2.7,2.8l-1.8-0.3l-1.5,0.8l-2.4-1.1l-1.1-1.8l-1-2.5l-3.2-1.3l-2.3-1.1l-0.5-2.6l-1.3-2.2
		l0.8-2l3.5-3.2l-1.6-2v-2.4l0.9-1.9l0.1-5.9l-1.6-0.8l0.1-2.2l-0.9-0.7l-3.2,1H202l-2.7-0.6l-1.2-1.3l2.3-2.6l0.1-7.7l0.7-0.2
		l0.9,0.4l2.4-1.1l0.1-1.4l-2.7-1l-0.5-1l0.2-0.6l1.4,0.4l0.6-0.8l-2-0.6l-0.1-1.1l1.9-1.8l1.5-0.5l1.7-0.8l0.2-0.7l-1.1-0.1
		l-1.3,1.2l-4.8,0.3l-3.1-0.7l-1-1.1l0.2-4.1l0.8-4.6l1.8-0.6l0.5-0.8l-1.4-3.6l0.2-2.5l-1-0.4l-0.7,1.1l-1.4-0.6l0.3-1.4l-1.2-0.9
		l-1.5,0.6l-1.8-3.1l0.4-6.7l2.7-2.4l-1.8-4.7l-0.4-5.5l-0.9-1.9l-1-5l-1.5-0.5l-1.5,0.9l-1-0.9l-0.2-2.2l2.7-2.5l1.6-1.1l2.3-0.6
		l1.4,1.3l2.7,0.1l1.2-3.5l2,0.7l0.7,2l5.8,0.1l2.8-2.2l1.3,1.1l-0.3,0.8l2.2,1.3l0.7-0.6l-1.4-2.2l0.7-4.7l3.1,0.7l1.2,1.7L219,86
		l-0.2-1.8l1.2-0.3l1.3,2.2l4.8,3.9l0.4,1.8l1.5,0.9V95l1.6,1.2l0.2,1.1l0.8,0.6l2.1-0.4h2l7.5,1.8l6.6,3.2l2.5,0.3l1.9,0.5h4.2
		l3.9,1.5l0.2,3l-0.8,1.3l-2.4,2.9l0.3,0.5l7.9-0.9l2.3-1.1l1.8,0.4l1.5-0.9l2.8,0.5l0.6-2l-1.3-2.8l0.5-1.3l3.6-0.2l2.6-4.7
		l0.1-5.7L280.8,93.6z"/>
	<path class="st5" d="M309.5,125.8l0.5,2.1l0.9,0.8l0.9,0.1l1.8,1.7l1.8,2.8l2.2,3.2l6.2,7.5l1.6,2.9l1.2,1.9l-0.4,1.4l3.3,3.1
		l2.6-0.4l4,1.1l1.3,2.2l6.1-0.8l2-2.1l4.9-1.2l3-1.6l5.3-0.3l4-1.7l2.6,2.1l2.6-2.4l4.3-1.1l2.3,0.2l4.4,2.7l6.7,2.1l2.5,1.2
		l2.3-2.6l-0.3-1l1.1-1.4l0.8,2.1l-0.5,8.7l0.7,5.6l0.9,4.6l-1.2,3.1l-1.3,10l-2.3,11.1l-2-1.2l-1.2,1.4l-4.9,7.5l-2,3.6
		c0,0-1.4,5.3-1.4,5.2s-2,3.1-2,3.1l-0.8,4.3l1.4,2l0.3,1.5l2.3,2.1h2l5,1.3l2.4,1.3l1.3,1.8l5.1,3.6l4,3.9l1.6,3l-0.1,1.2l-2.3,0.2
		l-3.2,0.6l-5.1-0.6l-6.7,3.2l-4,1.1l-2.2-0.2l-2.2-1.9l-1.8-0.4l-2-4.7l-2.6-3.4l-2.7-0.6l-2.5,2.1l-3-0.5l-4.1,1.5l-0.9,0.6
		l-0.2,2.2h-1.2l-0.7-3.5l-2.6,0.1l-1.3-0.6l-1-1.4l-3.4-1.5l-4-0.3l-3.3,1.7l-2.7-0.3l-1.4-1.3l-1.3-4.8l1.8-2.7l-1.5-3.2l-0.3-1.9
		l-0.6-2.3l-1-0.5l-2.2,1.4l-1.1-0.3l-0.1-1l-1.5-1l-3.2,2.4l-1.3-0.7l-2.2,0.8l-0.9,2.5l-2.5,2.9l-1.8,3l-3.1-0.2l-2.8,5.8
		l-1.8,2.2l0.1,3.3l-1.8,2.2l-3.8-0.2l-2.9-0.8l-0.1-4.1l1.4-3.3l-4.6-1.3l-3.2,0.2l-4.2,1.6l-2.1-1l-0.7,0.3l-0.2-0.3l-2.6,1.3
		l-2.5-0.5l-2.5-1.2l1.7-2.4l0.9-5.4l0.4-7l-1.1-1.4l0.5-2.6l-4-3.1l2.8,0.2l0.6-1.1l-1.8-2.3l0.1-2l-1.1-1.2l0.3-1.8l-0.3-0.5
		l-2.1,0.4l-0.9-2.7l-7.6,1l-3,0.8l-1-1.3v-8.3l2.1-0.1l1.5-0.8l0.8-3.4l2-0.3l1-1.6v-1.7l-1.6-0.4l-0.6-1.3l1.1-1.5l0.6-3.4l1,0.4
		l2-1.7l-0.3-2.1l1.9-0.1l3.1-4.6l-1.9-1.3l0.5-3.1l-1.5-2.4l1.3-4l6-0.5l3.2-1.3l4.5-1.2l2.5-3l7.4-6.1l2.9-2.5l2.2,2.1l0.9-0.7
		l-0.2-2.6l0.9-1.5l2.9,3.2l1.5-0.7l-1.9-5.5l1.1-1l1.5-7.1l0.3-1.2L309.5,125.8z"/>
	<path class="st5" d="M252.6,242.8l0.5,3.5l-0.5,0.4l-1.7,0.8l0.6,2.7l-2,1.3l0.9,1.2l0.3,1.2h1.5l-0.1,1l-2.8-0.2l-0.8,1.1v0.6
		l1,1.3v1.4l-1.7,2.6v1.2l1.3-0.1l0.1,0.5l-0.9,1.9l-0.7-0.7c0,0-0.6,2.1-0.6,2l-1.8-0.9l-1.1,1.2l0.2,2.3l-1.9,2.9l-2-0.2l-1.8-1.4
		l-2.2,3.7l0.5,0.9l0.6,2.4l0.5,1v3.9c0,0-0.8,2.7-0.8,2.6s-0.9,2-0.9,2l-3.5,2.9l-1.1,0.4l-1.2,0.7l-0.7-0.1l-1.3,1.5l-0.1,4
		l0.7,1.4l0.2,6.6l-5.5-0.5l-1.3,0.5l-3.5-0.7l-1.3,0.4l-4-0.2l-2.4,0.7l-2.2-0.2l-3.4-1.3l-10.1-4.4l-7.1-2.5l-3.9-0.9l-7.1-2.8
		l-4.4-1.6l-2.3-1.4l-1.7-3.7l-3.1-5.6l-4.8-5.4l-3.7-4.7l-4.3-4.9l-7.7-7.4l-7-5.7l-7.6-4.2l-3.3-1.2l-2.2-0.9l-5.4-5l-3.8-3.6
		l-2-2.9l-3.4-4.9v-1.1l0.3,0.1l4.7-5.5l3.7-4.2l3.4-4.2l1.6-2l1.7-0.7l3.8-4l2.9-0.6l0.3-0.9l-1.1-1v-2.4l-1.2-0.6l-3.5,0.3
		l-2.6,1.2l-1.4-1.2l-0.3-2.9l-1.3-1.5l-0.7-3.5l0.6-4.4l4.2-2.1l0.9-1.8l4.4-1.6l4.3-2.2l3.2-2.5l1.7-1.3l2-1.9l3.9-0.1l2.6,1.6
		l2.1,2.8h1l2.7-3l4.4-0.2h4.2l1.4-0.7l4.3,0.3l3.5-1.2h1.2l2.4,1.5l2.6-1h0.9l0.6,0.8l-0.3,1.6l2-0.1l1.3-1.5l1.2,0.2l3.5,2.1
		l1.2,0.6l-1.1,1.3l-1.7,1.5h-1.5l1.1,1.6l2.6-1l1.1,1.7l2-0.3l2.2,2l1.5-0.3l1.3-1.8l2-0.5l1.2,0.8l1.4,1.6l3.3,0.5l2.6-1.5l2,0.2
		l2.1,1.1l1.2,2.1l0.5,2.6l5.6,2.4l1,2.5l1.1,1.8l2.4,1.1l1.4-0.8l1.8,0.2l2.7-2.8l1.3-0.8l2.9,2l1.7,3.3l0.6,2.9l-1.3,2l-1.3,2
		l-1.9,1.3v1.1l1.6,1.7l3.4,1.5l2.7,0.4l3.7,4.7l0.9,2.8l3.8,2l3,2.2l3.2,3.6l-0.1,1.5l-1.1,1.1l-4.4,1.8l-2.8-0.5l-1.4,0.5v2.8
		l-0.7,1.2l0.2,1.7l2.1,0.7l4.3,0.7l3.3,1.7L252.6,242.8z"/>
	<g>
		<text transform="matrix(1 0 0 1 212.2148 140.5478)" class="st1 st2">Manikganj</text>
	</g>
	<g>
		<text transform="matrix(1 0 0 1 313.2151 181.2145)" class="st1 st2">Singair</text>
	</g>
	<g>
		<text transform="matrix(1 0 0 1 149.5483 213.9645)" class="st1 st2">Harirampur</text>
	</g>
	<g id="dist-gopalganj-1_2_">
		<g>
			<circle class="st3" cx="247.5" cy="165.6" r="13.4"/>
			<text transform="matrix(1 0 0 1 240.5378 172.9091)" class="st1 st4">2</text>
		</g>
	</g>
</g>
<g id="manikganj-3">
	<polygon class="st6" points="166.5,33.8 166.2,32.1 169.2,28.4 171,29.3 171.8,29 171.9,27.7 177.9,25.5 180.1,25.1 180.8,25.7 
		181.5,24.6 182.5,24.3 182.6,25.7 178.9,29.2 177.7,30.6 178.6,31.9 180.6,32 181.6,29.2 182.9,26.8 185.8,25.1 188.1,26.5 
		189.4,26 189.2,23.8 186.9,23 185.5,21.6 183.5,21 183.3,19.7 185.7,18.3 185.5,15.9 187.4,16 188.1,17.3 189.4,16.8 189.2,13.7 
		189.7,12 189.2,9.8 190.7,7.6 191.3,9.3 192.4,10.4 192.3,11.4 191.1,12.1 192.1,13 194.6,13.4 194.4,15.4 196.3,16.3 196.9,18.8 
		199.7,19.4 202.9,18.2 202.9,16.1 203.6,15.5 203.3,12.3 203.6,6.7 205.6,6.3 206.5,7.6 207.6,7.3 207.5,4.8 205.9,4.4 205.7,2.8 
		206.7,2.3 208.4,3.7 212,5.4 211.9,8.4 211.5,10.3 214.9,13.3 215.1,16.6 214.1,17 210.2,15.8 209.1,16.5 209.1,20.6 209.9,21.5 
		214.2,22.1 215.8,21.1 217,21.3 217,23.7 217.9,25.8 219.7,26.1 219.7,27.3 218.3,28.9 219.1,29.6 220.1,28.3 222.2,27.6 224,28.1 
		224.8,29 229.2,29.1 230.8,27.8 228.7,22.1 229.5,21.2 230.6,21.6 232.5,24.3 233.4,24 232,20.3 232.7,19.5 234.7,19.3 236.7,22.3 
		238.1,21.8 238.3,19.8 237.2,18.8 237.5,17.9 239.7,18.1 240.3,21.4 239.6,22.4 240,24.8 242.2,26.6 244.9,26.6 244.9,24.7 
		246.9,24.3 250.9,25.4 252.3,25 253.1,26.1 254.6,26.1 254.5,28.1 252.9,29.8 255.6,32.2 258.2,31.1 258.5,28.8 260.9,28.2 
		263.3,28.8 263.1,29.6 259,35.1 259.1,36.3 257.2,37.8 254.1,38.1 253.6,39.7 251.6,40.8 250.3,43.2 250.5,45.3 252.5,47 
		254.6,47.6 254,49.1 251.3,49.3 248.3,48.5 248,49.7 250.1,50.2 251.8,50.5 254.4,52.2 254.9,53.9 255,57.1 257.5,59.2 263.7,57.9 
		267.4,59.5 272.6,58.7 272.3,57.1 273.3,55.6 275,57.1 274.4,59.3 274.2,61.4 271.2,63.6 268.4,63.1 267,63.7 266.3,65.6 267.1,67 
		268.3,66.9 269.8,69.4 269.9,72.7 269.2,74.3 270.3,77.2 268.1,80.1 266.6,80.1 267.5,82.4 269.1,84.2 271.2,84.1 274.4,82.6 
		275.7,82.9 275.7,84.5 272.7,87.8 267.8,89.8 267.5,92.2 269.4,96.6 273.2,98.9 274.4,99.1 277.9,97.5 278.5,94.2 280.9,93.5 
		280.9,99.4 278.3,104.1 274.7,104.4 274.1,105.6 275.5,108.4 275,110.4 272.1,109.9 270.6,110.8 268.8,110.4 266.5,111.6 
		258.5,112.5 258.2,112 260.6,109.1 261.4,107.8 261.2,104.8 257.3,103.3 253.2,103.3 251.3,102.8 248.8,102.4 242.2,99.2 
		239.8,98.7 234.8,97.5 232.7,97.4 230.7,97.9 229.8,97.3 229.6,96.2 228,95 227.8,93.2 226.2,92.4 225.8,90.6 221.1,86.7 
		219.8,84.4 218.6,84.8 218.8,86.6 215.7,87.1 214.5,85.4 211.3,84.7 210.6,89.3 212.1,91.5 211.3,92.1 209,90.8 209.4,90 
		208.1,88.9 205.4,91.1 199.5,91 198.8,89 196.8,88.4 195.6,91.9 192.8,91.8 191.5,90.5 189.2,91.2 188.8,87 187.5,85.4 185.7,86.4 
		185.2,85.6 185.7,83.8 184,80.7 186.2,79.3 188.6,79.1 188.7,77 186.8,73.9 186.7,72.8 187.9,71.4 189.4,71.2 189.5,70.4 
		188.6,69.7 186.3,70.5 186.1,68.3 184.6,67.3 183.7,63.5 185,62.6 187.1,63 187.8,62.7 187.7,56.8 185.9,54.1 187.5,50.9 186.4,49 
		186.6,46.1 187.6,44.3 190,41.6 190.3,40.3 188.7,39.1 187.1,39 185.8,40.2 184.2,41.1 182.3,40.1 180.8,40.8 181.3,44.2 
		179.5,45.2 178.1,44.3 174.8,44.4 174.3,43.4 175.2,41.2 174.5,40.5 172.9,40.7 170.9,40.1 168.4,40.8 168.2,39.5 170.4,37.8 
		170.6,35.6 167.7,33.6 	"/>
	<g>
		<text transform="matrix(1 0 0 1 198.7983 48.8812)" class="st1 st2">Saturia</text>
	</g>
	<g id="dist-gopalganj-1_3_">
		<g>
			<circle class="st3" cx="233.2" cy="69.3" r="13.4"/>
			<text transform="matrix(1 0 0 1 226.2044 76.5758)" class="st1 st4">3</text>
		</g>
	</g>
</g>
</svg>
