<?xml version="1.0" encoding="utf-8"?>
<!-- Generator: Adobe Illustrator 25.2.1, SVG Export Plug-In . SVG Version: 6.00 Build 0)  -->
<svg version="1.1" id="Layer_1" xmlns="http://www.w3.org/2000/svg" xmlns:xlink="http://www.w3.org/1999/xlink" x="0px" y="0px"
	 viewBox="0 0 351 422.2" style="enable-background:new 0 0 351 422.2;" xml:space="preserve">
<style type="text/css">
	.st0{fill:#ABBEED;stroke:#FFFFFF;stroke-width:0.5;stroke-miterlimit:10;}
	.st1{font-family:'TimesNewRomanPSMT';}
	.st2{font-size:16px;}
	.st3{fill:#FFFFFF;}
	.st4{font-size:24.672px;}
	.st5{fill:#C5CFED;stroke:#FFFFFF;stroke-width:1.033;}
	.st6{fill:#8BAFE8;stroke:#FFFFFF;stroke-width:0.5;stroke-miterlimit:10;}
</style>
<g id="shariatpur-1">
	<polygon class="st0" points="52.3,20.2 53.6,19.4 53.7,17.5 52.3,15.7 52.5,13.4 55.4,13.2 58.2,6.6 59.4,5.5 60.3,7.4 62,8.7 
		62.6,9.9 64.7,9.6 68.4,5.8 72.7,3.3 75.6,3.2 78.4,2.1 79.5,3.1 79.4,5.2 81.5,6.5 82.3,8 83.8,8.5 84.3,7.9 87.5,9.8 91.7,13 
		93.8,15.2 96.4,15.1 97.9,16.1 98.4,15.5 98,13.6 95.5,12.2 95.6,11.7 99,10.7 99.4,9.9 100.1,10.1 102.8,11.1 107.5,11.7 
		111.2,12.5 114.5,13.5 119.6,14 124.5,15.1 130.2,16.8 133.3,17.9 136.4,20.4 140.3,23.4 148.1,27.7 156.9,32.5 162.2,33.6 
		167.3,34.2 169.9,34.2 178.2,30 184,27.5 185.5,27.2 189.9,26.6 191.9,26.9 191.7,27.7 191.6,30.2 193.3,33 193.4,34.8 191.2,36 
		190,37.3 188.6,37.6 187.6,36.2 186.5,36.2 184.6,37.2 184.3,41.5 183.4,42.5 180.9,43 178.4,45.2 175.8,46.7 174.1,48.7 174,49.9 
		176.1,51.8 178.8,53.8 179.9,55.3 179.6,57.5 178,61.7 176.7,66.8 175,73.6 173.1,79.6 173.2,80.6 174.8,81.6 176.5,81.8 
		187.5,84.7 190.3,85.5 198.7,89.8 200.6,91 200.9,92.3 199.3,94 197.6,97.2 196.2,98.7 193.9,102.7 190.8,107.3 186.4,112.7 
		183.6,117.2 181.1,120.2 180.8,120.9 179.7,121.8 177.2,120.4 175.4,117.6 174.6,116.2 173.8,116.2 172.2,117.4 170.6,117.3 
		162.8,114.2 161.8,113.8 160.1,113.9 158.8,116.1 157.4,121.6 156.7,123.5 153.3,124.5 152.6,126.2 153.3,127.1 152.7,128 
		151.7,128.1 150.1,129.8 148,129.9 146,132.2 144.9,132.4 144,131.9 140.5,131.6 134.4,131.9 133.5,130.3 132.6,126.3 130.3,123.8 
		127.8,122.7 123.2,125 122,125.6 118.1,125.1 115.3,124.2 113.9,124.3 109.3,127 103.9,129 101.4,128.6 99.9,129.1 99.3,130.5 
		99.4,133.4 98.4,134 97.8,135.2 97.7,136.3 96.8,136.7 95.1,136.8 92.3,136.9 89.7,139 88.7,141.5 87.7,143.2 88.3,145.3 
		87.2,146.8 86.6,146.7 85,144.9 84.4,145.3 82.6,146.5 81.3,145.7 81.1,144.3 79.8,143.9 77.3,143.5 75.8,144.4 74.4,146.5 
		73.3,146.7 72.6,145.7 72.6,142.9 70.8,142.8 69.4,144.1 69,148.1 68.9,150.4 67.8,151.4 64.2,152.2 61.7,153.5 59.7,155.3 
		52.2,158 45.9,158.8 42.2,159.2 41.5,158.5 40.7,159.2 38.8,159.2 36.3,157.7 33.6,158 31.4,160.7 29.5,164.8 28.5,167.7 
		26.5,168.8 25.1,168.1 23.9,168 22,170 20.8,172.9 19.6,173.1 15.1,170.4 15.5,166.1 16.8,164.9 17.1,163.9 19.3,161.8 20.2,155.8 
		23.2,151.9 23.4,150.2 22.7,148 22.9,144.8 23.6,143.5 23.5,141 24.1,138.6 23.8,132.3 24.7,128.9 23.7,126.3 21.4,122.9 
		20.3,119.2 15,118.3 11.9,117.6 11.5,115.9 9.6,114.9 9.1,113.3 10.7,111.6 15.5,109.9 19.5,107.4 23,105.1 24.4,104.4 26,102.9 
		26.9,101.1 27.1,98.2 27.7,96.7 27.2,95.7 26.2,95.8 24.9,96.6 23.4,96.4 23.7,94.1 23.1,92.2 23.5,90.3 22.1,90.1 19.7,90.6 
		15.8,90.2 13,88.5 12.6,85.7 13.6,82.3 16,79.5 15.8,76.3 18.7,73.8 21,71.5 24.5,68.2 25.2,67.4 29.4,67.9 31.6,66.8 37.9,65.3 
		41.8,65.1 41.5,64.2 38.1,60.7 33.8,57.3 29.4,56 24.6,54.5 22.5,53.5 21.7,52.1 17.1,51.5 15.4,51.8 13.6,51.2 6.7,51.6 7,49.4 
		5.7,49.1 4.6,49.3 4,48 2.3,47.3 1.9,45.5 2.8,42.3 2.5,40 2.8,38.7 2.4,36.9 1.2,36.2 1.2,34.9 2.9,33.6 5.2,32.9 8.8,33 10,30.7 
		13.7,30.4 16.5,28.9 18.7,27.6 20.5,24.4 18.8,21.6 18.9,20.3 21.3,19.4 24.1,17.7 28,17.6 30,16.7 34.7,17.6 35,18.9 36.6,18.1 
		38.7,18.3 41.6,20.3 44.8,20.1 47.1,19.6 50.5,19.7 	"/>
	<polygon class="st0" points="20.6,172.9 22.8,174.2 24.8,178.4 25,180 28.1,183.6 27.6,191.6 27,196 28,197.9 29.1,198 31.8,197.4 
		34.3,195.1 36.2,194.4 36.3,195.7 34.1,198.1 33.3,202.4 33,209.3 33,211.4 39.1,217.4 40.4,218.8 44.3,219.6 49.5,219.5 
		51.4,220.3 53.4,226.5 55.9,231.5 57.9,233.5 59,233.2 59.5,230 60.5,229.6 63.5,230.8 67.2,231.9 67,234.7 68.5,235.8 67.7,239.1 
		67.5,244.3 67.2,248 69.2,249 69.8,251.1 72.4,253.5 73.3,255.2 72.9,258.8 71.9,260.2 70,261.3 70.4,262.6 71.6,263.2 72.1,264.6 
		73.3,265.9 73.2,270 73.5,273.9 75.1,276.6 75.7,281.3 77.2,282.1 78.5,282.1 79.5,283.6 82.6,283.1 84.6,283.2 88.2,281.8 
		90.1,282.1 90.4,285.4 91.5,287.7 91.4,288.8 90.3,290.9 90.6,293 91.7,293.2 95.8,292.2 98,289.5 99.5,289.4 104.4,292.6 
		107.2,291.5 109.1,290 114.4,290.5 115.2,292.1 117.5,292.1 118.8,293.7 119.8,293.4 120.1,290.6 123.7,287.8 127,289.3 129,289.2 
		130.6,288.6 133.1,288.7 135,287.3 137.8,284.9 142.4,280 143.9,276 143.5,275 141.9,274.4 138.8,276 137.5,276.1 136.8,274.9 
		137.3,273.5 137.6,270.7 139.2,270.1 140.3,269.1 143.5,269.6 145.5,268.3 145.1,267.1 144.4,266.8 144.4,265.3 144.9,263.5 
		144.3,262.2 144.9,260.3 148.5,258.3 151.7,258.3 152.2,255 152.2,252.4 152.9,252.1 152.9,251.2 151.6,250.6 151.5,248.7 
		150,247.4 150.9,244.1 149.9,239.2 157,229.8 163.2,221.7 164.2,221.9 164.4,220.2 164.5,216 168.5,215.6 168.8,209.7 167.9,206.8 
		166.4,205.1 164.1,205.1 162.6,206.7 161.5,208.6 159.5,209.4 152.7,207.5 148.9,204.8 148.4,199.5 146.1,195.7 147.4,192 
		145.4,191.4 142.9,186.1 140.2,186 137.3,187.1 132.3,187.8 128.9,187.8 127.4,186.3 125.2,181.1 125,176.2 126.1,173.9 126,171.4 
		122.5,169.3 121,166.6 120.2,164.6 120.2,162.8 117.7,161.3 113.2,151.6 110.3,151.8 107.7,150.7 107,147.9 105.9,146.7 
		106.2,144.8 104.6,143.7 102.8,143.1 102.7,140.8 101.9,139.6 101.8,137.5 100.2,135.2 99.4,133.3 98.3,133.9 97.8,135.2 
		97.7,136.3 96.7,136.7 92.3,136.9 89.7,139 88.7,141.5 87.7,143.2 88.3,145.3 87.2,146.8 86.6,146.7 85,144.9 84.4,145.2 
		82.6,146.5 81.2,145.7 81.1,144.3 79.8,143.8 77.3,143.5 75.9,144.4 74.4,146.6 73.3,146.7 72.6,145.7 72.6,142.9 70.8,142.8 
		69.4,144.1 69,148.1 68.9,150.4 67.8,151.4 64.2,152.1 61.7,153.5 59.7,155.3 52.2,158 48.6,158.4 43.4,159.1 42.2,159.2 
		41.4,158.5 40.7,159.2 38.8,159.2 36.3,157.7 33.6,158 31.4,160.6 29.5,164.7 28.5,167.7 26.5,168.8 25.1,168.1 23.9,168 22,170.1 
		20.8,172.8 	"/>
	<g>
		<text transform="matrix(1 0 0 1 83.4749 72.2859)" class="st1 st2">Zajira</text>
	</g>
	<g>
		<text transform="matrix(1 0 0 1 69.0586 211.8484)" class="st1 st2">Shariatpur</text>
	</g>
	<g id="dist-gopalganj-1_5_">
		<g>
			<circle class="st3" cx="129.7" cy="95.1" r="13.4"/>
			<text transform="matrix(1 0 0 1 123.7045 102.3258)" class="st1 st4">1</text>
		</g>
	</g>
</g>
<g id="shariatpur-2">
	<polygon class="st5" points="191.9,26.9 195.9,26.9 204.8,27.3 209.8,29.1 215.2,30.3 221.4,31.7 227.2,32.7 230.8,34.2 235,35.7 
		238.7,37.4 244,39.2 248.6,39.2 249.9,38.6 251.9,38.9 255.5,40.1 256.7,40.2 256.7,41.3 258.7,42.6 260.9,46.4 262.3,48.1 
		259.6,50.1 257.5,51.8 254.6,54.2 251.7,55.4 250,57.3 250,60.7 248.3,62.5 246.9,68.9 245.1,71.5 242.4,72.7 241.5,75.2 
		241.3,78.7 241.5,85.3 242.3,88.4 241.6,90.9 241.8,94.9 241.5,96.8 242.1,97.7 244.8,98.3 244.6,101.8 247,102.9 251.3,103 
		254.9,100 257,99.5 258.4,99.8 260.5,98.9 262.4,100 262.3,101.5 261.5,102.7 260.4,103.3 258.4,103.5 258.5,107.8 258.7,112.4 
		258.7,113.8 258,114 256.5,114.2 256.3,115.6 257.2,115.9 257.2,118 254.7,119.8 254.9,121.6 257.7,124.5 257.7,126.7 256.3,132.3 
		255.8,135.1 255.9,149.2 256.4,150 256.1,152.8 254.8,154.6 254.1,156.1 253.9,158.3 253.6,158.6 252.8,157.9 252.2,156.2 
		251.2,155.1 250.4,153.5 249.3,153.3 243.7,153 242.2,155.2 240.4,155.9 239.4,157.8 239.6,161 240.1,166.2 240.3,167.4 
		240.3,180.3 242.6,184.3 242.2,185.2 240.1,187.3 240.2,188.6 243.2,191.5 242.8,192.4 239,191.9 235.9,189.3 233.2,189.5 
		232.8,192.3 231.5,194.6 226.5,197.3 223.1,198.8 221.4,198.8 220.6,199.5 220.6,200.3 219.3,200.7 217.3,205.4 212.9,207.5 
		211.7,209.9 210.5,210.2 210.3,212.5 210.9,215.3 210.1,218.9 208.4,219.3 200.5,218.6 197.6,218.4 196.1,216.3 195.6,217.2 
		195.5,219.4 194.9,221.5 193.4,222.9 192.6,222.8 192.1,224.2 190.3,224.1 190.3,225.1 187.5,226.5 186.2,226.3 186.1,225.2 
		184.4,225 182.9,222.4 181,222.2 181.1,219.8 179.6,218.7 175.2,218.8 174.2,218.1 171.3,217.7 168.9,219.3 167.2,220.9 
		164.2,222.1 164.4,220.3 164.4,216 168.5,215.6 168.8,209.8 167.9,206.8 166.5,205.1 164,205.1 162.7,206.7 161.4,208.7 
		159.5,209.4 152.7,207.5 148.9,204.8 148.4,199.6 146.1,195.7 147.4,192 145.4,191.4 143,186.1 140.2,186 137.3,187.2 132.3,187.8 
		128.9,187.8 127.4,186.4 125.2,181.1 125,176.2 126.1,173.9 126,171.4 122.5,169.3 121,166.6 120.2,164.6 120.3,162.9 117.7,161.3 
		113.1,151.6 110.3,151.8 107.7,150.7 107,148 105.8,146.7 106.2,144.8 104.6,143.7 102.8,143.1 102.7,140.9 101.9,139.6 
		101.8,137.5 100.1,135.2 99.4,133.2 99.3,130.5 99.9,129.1 101.5,128.6 103.9,129 109.4,127 113.9,124.3 115.3,124.2 118.1,125.1 
		122,125.6 127.9,122.7 130.3,123.8 132.6,126.3 133.5,130.4 134.4,131.9 140.5,131.6 144,131.9 144.9,132.4 146,132.2 148,129.9 
		150.1,129.8 151.7,128.1 152.7,127.9 153.2,127.1 152.6,126.2 153.3,124.5 156.7,123.5 158.8,116.1 160.1,113.9 161.9,113.8 
		170.6,117.3 172.2,117.4 173.7,116.2 174.7,116.2 175.5,117.7 177.2,120.4 179.7,121.8 180.7,120.9 181.1,120.2 183.6,117.2 
		186.4,112.8 190.8,107.4 194.2,102.3 196.2,98.6 197.6,97.2 199.3,94 200.9,92.2 200.6,91 198.4,89.7 190.3,85.4 176.5,81.7 
		174.9,81.6 173.2,80.6 173.1,79.6 176.4,68.3 178,61.7 179.6,57.5 179.9,55.3 178.8,53.8 176.3,51.9 174.1,50 174.1,48.7 
		175.8,46.7 178.4,45.2 180.9,43 183.4,42.5 184.4,41.5 184.6,37.2 186.5,36.1 187.6,36.2 188.6,37.6 190.1,37.3 191.1,36.1 
		193.4,34.8 193.3,33 191.6,30.2 191.7,27.6 	"/>
	<g>
		<text transform="matrix(1 0 0 1 155.4751 161.1193)" class="st1 st2">Naria</text>
	</g>
	<g id="dist-gopalganj-1_1_">
		<g>
			<circle class="st3" cx="212" cy="136.6" r="13.4"/>
			<text transform="matrix(1 0 0 1 206.0378 143.8258)" class="st1 st4">2</text>
		</g>
	</g>
</g>
<g id="shariatpur-3">
	<path class="st6" d="M119.6,311.3l-0.9,3.1l-0.1,1.5l1.5,1.1l0.7,0.1l0.2,3.9l-1.3,2.6l0.5,3.6l1.7,1.1l1.6,0.5l3.2-2.1l1.6-0.1
		l4.3,1.3l5.7-2.2l2.9,0.5l0.2,1.4l-1.2,1.3l0.2,2.7l1.7,1l12.6-3.4l0.9,0.1l1.4,0.8l1.3-0.7l0.4-1v-2.2l1.5-0.7l2.9,1l1,0.9
		l2.2,0.8h3.5l2.8,1l1.2-0.6l1,0.1l1.3,0.9l0.9,1.3l1.8,0.4l2.2-1.7l2-0.7l3.3-0.1l5.4-1.1l0.3-1.2l2.4-1.8l1.2,0.1l3.9,2.9h2.7
		l1.1-0.5l2.3,0.3l0.5,2.5l1.4,1.3l-0.1,1.1l0.9,1.2l1.5,0.7h3.5l1.3-0.7l0.6-4.1l1.5-1.6l0.8,0.4l2.8-2.3l1.8-1.8v-1.3l1-0.3
		l0.3-0.7l1.2-0.1l0.2,1.4l1.3-0.1l3.6-3.9l1.1-2l2.1-1.9l1.2-0.2l3.6-3.9l4.7-3l1.4-0.4l3,0.2l1.4-0.8v-4.1l2.4-3.2l2.3-2.3
		l1.8-2.1l-1-4.6l-0.2-2.1l-3.4-2.9l-3.4-1.8l-1.6-3l-1.8-1.9l0.1-1.3l-0.8-0.4l-2.9-2.8l-4-1.8l-3.6,0.1l-2.5-2l-2-0.7l-0.3-1.4
		l-1.8-0.5l-0.9-2.5l-4.3-0.8l-2.2,1.9l-0.9,0.6l-1.1-0.5l-0.9-1.8l0.2-2.5l-1.2-1.2l-0.1-2.6l-1.2-1.5l-2.2-0.5l-1.6-2.2l-2-0.3
		l-2-0.8l-1.4-2.2l-3.1,0.4l-1.1,1.6l-0.1,4.4l0.3,3.7l-0.2,0.5l-1.7,0.9l-0.4,1.4l-0.5,0.7l0.5,1.8l-0.7,2.1l-1.7,1.1l-4.8-0.3
		l-2.8-0.3L186,269l-1.9,2l0.4,1.2l-0.6,0.1l-2.9-1.9l-1.1,0.7l-1.1,0.9l-1.5-0.1l-1.4-1.5l-0.2-1.5l-3.5-4.3l-0.1-1.3L171,262h-1.1
		l-0.7-1.3l0.2-1.8l-0.9-0.6L167,258l-2-1.6l-4.2-0.5l-1.8-1.8v-0.9l-1.2-0.8l-0.9,0.1l-2.5-1.2l-1.3-0.3v0.9l-0.6,0.3v2.6l-0.2,1.8
		l-0.2,1.4h-3.3l-3.6,2l-0.6,1.9l0.6,1.3l-0.6,1.8v1.5l0.8,0.3l0.4,1.2l-2,1.3l-3.1-0.6l-1.2,1.1l-1.5,0.6l-0.4,2.8l-0.4,1.3
		l0.7,1.2l1.4-0.1l3.1-1.6l1.5,0.7l0.4,1l-1.6,4l-4.5,4.9l-2.8,2.5l-1.9,1.4v3.3l-1,1.8l-1.7,1.7l0.3,0.8l-0.4,1.4l-1.3,0.3
		l-2.9,0.1l-0.7,0.8l-0.5,1.3l-2.5,1.9l-1.3,2.1l0.1,1.1l0.2,1.4l-1.4,3.9L119.6,311.3z"/>
	<g>
		<path class="st6" d="M347.4,220l0.4-0.9l-1.4-2.8l0.4-1.4l-1.1-5.6l-1.5-4.6l-0.4-2.9l-2.4-13.7l-0.9-6.2l-1.8-7.6l-2.1-8.5
			l-3.9-13.4l-2-6.2l-4.6-9l-0.9-2.7l-2.2-4.7l-1.2-1.7l-1-3l-2.2-4l-1.6-1.9l-2.1-4l-3-5.3l-0.9-4.6l-1.3-2l-4.6-8l-2.9-7L296.4,69
			l-5.8-0.2l-4.4-6.2l-5.2-3.5l-1.7-0.3l-7.2-5.1l-2-0.1l-4.5-2.3l-3.2-3.1l-4.7,3.6l-3,2.6l-2.9,1.1l-1.7,1.9v3.3l-1.6,1.8
			l-1.4,6.3l-1.8,2.6l-2.7,1.3l-0.9,2.5l-0.2,3.5l0.1,6.6l0.8,3.1l-0.7,2.4l0.1,4.1l-0.3,1.9l0.6,0.9l2.7,0.6l-0.2,3.5l2.3,1
			l4.4,0.2l3.6-3.1l2-0.4l1.3,0.3l2.3-0.9l1.9,1.1l-0.2,1.4l-0.8,1.3l-1,0.6l-2,0.2l0.3,10.3L258,114l-1.5,0.1l-0.1,1.4l0.8,0.3v2.1
			l-2.5,1.8l0.2,1.8l2.8,2.8l-0.1,2.2l-1.3,5.6l-0.5,3l0.1,14.1l0.5,0.7l-0.3,2.8l-1.4,1.7l-0.6,1.5l-0.2,2.3l-0.3,0.2l-0.8-0.7
			l-0.6-1.8l-1.1-1.1l-0.8-1.6l-1.1-0.2l-5.6-0.3l-1.4,2.2l-1.8,0.6l-0.9,1.9l0.1,3.3l0.5,5.1l0.3,1.2l-0.1,12.9l2.4,4.1l-0.4,0.9
			l-2,2.1v1.2l3,2.9l-0.4,0.9l-3.8-0.6l-3.1-2.6l-2.7,0.2l-0.3,2.8l-1.4,2.3l-5,2.7l-3.3,1.5h-1.8l-0.7,0.6l-0.1,0.8l-1.2,0.4
			l-2,4.7l-4.3,2.1l-1.2,2.4l-1.3,0.3l-0.2,2.4l0.6,2.7l-0.8,3.7l-1.8,0.4l-10.8-0.9l-1.5-2l-0.5,0.8v2.2L195,221l-1.4,1.4h-0.7
			l-0.6,1.4l-1.7-0.2v1.1l-2.8,1.4l-1.4-0.3v-1.1l-1.7-0.2l-1.6-2.6l-1.9-0.3v-2.3l-1.4-1.1l-4.4,0.1l-1-0.7l-2.9-0.3l-2.4,1.5
			l-1.7,1.7l-3,1.1l-1-0.3l-13.3,17.5l1,4.9l-0.9,3.3l1.5,1.3l0.1,1.8l1.1,0.5l1.6,0.4l2.3,1.2l0.9-0.1l1.2,0.9v0.8l1.9,1.8l4.2,0.5
			l2,1.7l1.4,0.3l0.9,0.6l-0.2,1.7l0.7,1.3h1.1l1.1,1.4l0.1,1.2l3.5,4.3l0.2,1.5l1.4,1.5l1.5,0.2l1.1-0.9l1.1-0.7l2.8,1.9l0.6-0.1
			l-0.4-1.2l1.9-2l1.5,0.5l2.5,0.3l5.1,0.3l1.7-1.1l0.7-2l-0.5-1.8l0.5-0.7l0.4-1.4l1.7-0.9l0.2-0.5l-0.3-3.8l0.1-4.4l1.1-1.6
			l3.1-0.4l1.4,2.1l2.1,0.8l2,0.2l1.6,2.2l2.2,0.5l1.2,1.4l0.1,2.6l1.2,1.2l-0.2,2.4l0.9,1.7l1.1,0.5l1-0.6l2.2-1.9l4.2,0.8l0.9,2.5
			l1.9,0.5l0.3,1.4l2,0.7l2.5,2l3.6-0.1l4,1.8l2.9,2.9l0.7,0.4l-0.1,1.3l1.8,2l1.6,3l3.4,1.8l3.3,2.9l0.2,2.1l1,4.6l-1.9,2.1
			l-2.2,2.2l-2.3,3.1v4.1l-1.4,0.8l-3-0.2l-1.4,0.4l-4.7,3l-3.6,3.8l-1.1,0.2l-2.1,2l-1.1,2l-3.5,3.9l-1.3,0.1l-0.2-1.5l-1.2,0.2
			l-0.3,0.7l-1,0.4l0.1,1.2l-2.2,2.1l-2.4,2.1l-0.9-0.4l-1.5,1.6l-0.6,4.1l-1.3,0.8h-3.4l-1.5-0.7l-1-1.3l0.1-1.1l-1.4-1.3l-0.5-2.5
			l-2.3-0.3l-1.1,0.5h-2.7l-3.9-2.9l-1.3-0.1l-2.4,1.9l-0.2,1.1l-5.4,1.1l-3.3,0.1l-1.9,0.7l-2.2,1.7l-1.8-0.4l-0.9-1.3l-1.2-0.9
			l-1-0.1l-1.2,0.6l-2.9-1l-3.5-0.1l-2.1-0.7l-1-0.9l-2.9-0.9l-1.5,0.7l-0.1,2.2l-0.4,1l-1.3,0.7l-1.4-0.8l-0.9-0.1l-12.7,3.4
			l-1.6-1l-0.2-2.8l1.2-1.3l-0.2-1.4l-2.9-0.5l-5.6,2.1l-4.4-1.3L127,326l-3.2,2.1l0.7,3.8l-0.5,2.5l-0.5,4.2l2,1.1l-0.1,4.5
			l-0.9,1.7l0.2,1.7l-0.5,3.3l-1.8,1.4l-1.5,3.7l-0.3,1.5l-2.8,4.5l0.1,3.3l-0.4,2.8l-3.2,3.6l-1.8,1.3l-1.5,3l2,2.7l3.6,0.7
			l-0.2,2.1l0.9,1.9l4.1,2.2l2.1,2.2l-0.1,0.8l-1.6-0.1l-0.3,0.5l2.6,1.2l1.8,0.1l3-0.7l5.3-1.4l3.5-0.2l2.8-2.2l1.6,0.5l0.8,1.9
			l2.7,2l3.6,0.1l2.4-1.4l1.7,0.7l-0.2,1.7l0.6,1.4l2.8,0.3l2.3-0.6l2.8,1.3c0,0,0.7,1,0.6,1.1s1.1,1,1.1,1l5.5,0.5l2.6,1l4.5,3.2
			l1.1,0.4l2.5-1.1l2.6,0.2l3.5,0.9l-0.8,2.3c0,0-1,2-1.1,2.1s-1.8,0.2-1.8,0.2l-2.2,1.4l-0.8,2.6l-2.2,2.2l0.1,2.7l3.9,5.2l2.3,1.3
			l3.5,0.1l4-3.1l0.5-1.1l0.8-0.1l4-3.2l3.6-0.7l10.5-0.2l5.7,1.3l6-0.4l-4.5-6.6l-4.5-8.4l-2.6-7.3l-2.2-6.8l-0.2-3.1l1.5-1.6
			l2.4-0.1l2.9,0.9l6.7,1.6c0,0,7.3-0.5,7.4-0.5c0.1,0,4.3-1.8,4.3-1.8l0.3-2.9l2.2-0.1l2.7-1.1l5.4-0.8l3.2-1.3l1.7-1.1l2.7-1.5
			h2.4l0.8,0.6l2.8-0.2l12.2-3.7l4.5-0.5l7.4,0.6l4.3-4.7c0,0,2.6,0.8,2.8,0.8s2,2.1,2,2.1l1.9,0.6l-0.8-5l-1.1,0.1
			c0,0-3.2-1.4-3.3-1.3s2.2-1.7,2.2-1.7l0.8-1.7l-5.5-16.7l-1.6-11.1l1.9-6.1l3.9-4.5l6.3-5.9l4.9-5.2l1.3-1.9l0.4-3.4l1.5-3.7
			l0.9-5.3l1.7-4.9l2.8-5.3l2.5-0.3l4.3,0.4l1.6-1.9l4.9-2.7l3.2-2l2.5-3l1.5-4.4l3.6-7.7l2.4-6.3l2-5.7l3-3.5l5.3-5.2l0.9-2.2
			l3-8.3L347.4,220z M249.6,368.4l-3.8,3.2l-6.6,1.9v-1.1l0.8-4.2l0.9-3.3l6.9-3.6l2.6,0.1L249.6,368.4z"/>
		<g>
			<text transform="matrix(1 0 0 1 244.8503 215.7234)" class="st1 st2">Bhedarganj</text>
		</g>
		<g>
			<text transform="matrix(1 0 0 1 159.8503 298.0776)" class="st1 st2">Damudya</text>
		</g>
		<g>
			<text transform="matrix(1 0 0 1 172.1838 356.2443)" class="st1 st2">Gosairhat</text>
		</g>
	</g>
	<g id="dist-gopalganj-1_2_">
		<g>
			<circle class="st3" cx="280.2" cy="242.6" r="13.4"/>
			<text transform="matrix(1 0 0 1 275.2045 249.8258)" class="st1 st4">3</text>
		</g>
	</g>
</g>
</svg>
