<?xml version="1.0" encoding="utf-8"?>
<!-- Generator: Adobe Illustrator 25.2.1, SVG Export Plug-In . SVG Version: 6.00 Build 0)  -->
<svg version="1.1" id="Layer_1" xmlns="http://www.w3.org/2000/svg" xmlns:xlink="http://www.w3.org/1999/xlink" x="0px" y="0px"
	 viewBox="0 0 375.5 364.7" style="enable-background:new 0 0 375.5 364.7;" xml:space="preserve">
<style type="text/css">
	.st0{fill:#C5CFED;stroke:#FFFFFF;stroke-width:1.033;}
	.st1{fill:#B1BFE0;stroke:#FFFFFF;stroke-width:1.033;}
	.st2{font-family:'TimesNewRomanPSMT';}
	.st3{font-size:16px;}
	.st4{fill:#FFFFFF;}
	.st5{font-size:24.672px;}
	.st6{fill:#ABBEED;stroke:#FFFFFF;stroke-width:0.5;stroke-miterlimit:10;}
	.st7{fill:#6899E0;stroke:#FFFFFF;stroke-width:0.5;stroke-miterlimit:10;}
	.st8{fill:#7CA7E5;stroke:#FFFFFF;stroke-width:0.5;stroke-miterlimit:10;}
	.st9{fill:#9BB6EA;stroke:#FFFFFF;stroke-width:0.5;stroke-miterlimit:10;}
</style>
<g id="gazipur-2">
	<g>
		<path class="st0" d="M211.8,333.7l-0.8-2.8l0.1-3.2l1.1-0.5l-3.2-2l-7.3,0.1l-2.8-1.3l-1.8,0.9l0.1,1.3l-6.6,4.5l-3.6,2.8
			l-2.8,0.1l-3.8,3l-3.3,0.7l-4-0.1l-5.5,1.4l-1.4-3.8l-0.1-2.3l-2.8-2.6l-3.1,0.8l-0.7-1.2l2.3-1.7l-1.6-1.8l-1.5,0.5l-2.7,0.1
			l-2.5,1.7l-9,1.6l-2.3,1.4l-1.1,1.7l-2.2,0.3l-0.9,0.9l1.5,1.5l0.2,1.4l-1,0.9l-0.6-0.5l0.3-1l-0.6-1l-0.7,0.9l-1.5-3.8l-0.5-2.7
			l0.4-2.6l-3.1-6.8v-3.6l1.5-0.6l0.7-2.3l-0.3-3.2l1-2.3l1.1,0.1l-0.2-2.3l0.7-4.3l-1.9-7.3l-1-7.5l-1.9-2.8v-1.9l-1.4-1.2
			l-1.6,0.4l-1.4,1.5l0.7,0.9l2.1-0.2l0.1,1.8l-1.1,1.1l-3.5-0.5l-1.2-1.4l-0.4-2.6l-4.1-0.5l-3.1-2l-2.1,0.1l0.1,2l0.6,2.9
			l-1.5,0.8l-10.2,0.3l-0.8-2.4l-0.6-5.3l-4.3-0.9l-1.8-0.9l-2-0.3L92,275l-0.3-1.9l-1.3,0.1l-1,1.2l-1.7,0.2l-3.1,2.1l-2.3-1.3
			l0.6-2l-2.8-1.8l-2,0.5l-1.7-2.1l0.9-2l-3.1-2.9l0.9-1.3l-2.3-0.4c0,0-2.3-2.5-2.2-2.7c0-0.2-0.5-2.3-0.5-2.3l3.8-2.2l0.5-3.3
			l-2-1.3V250l3.1-4l0.9-1.4l-1.1-2.5l0.8-0.9l0.8-0.9h2l1.6-0.8L84,240l2.5,1.9l2-0.9l3,2.9l5-0.6l1.6-3.1l2.6-0.1l0.1,2.6l1.4,0.5
			l1.8,3.1l1.9-0.9l0.1-1.8l2-2.5l3.8-1.5l0.1-4.5l0.6-4.2l-1.7-2.5l-3.7-1.7l0.5-2.3l-2.3-3.6l0.5-1.8l2.3,0.4l1.9-0.8l11.3,8.5
			l1.4-0.6l-0.6-2l1.3-1.9l1.7,0.4l3.2-1.3l1.4-2l-2.1-4.8v-3.5l-0.8-1.4l0.7-2.3l4.4,0.1l0.9-1.8l-4-3.4l-0.6-5.5l2.1,0.1l0.7-1.7
			l-3.3-2.1l0.1-1.4l2.6-4.1l-0.3-1.5l-4-2.5l-0.3-2.6l3.5-4.6l0.3-6.9l2.4-4.8l3.8-3.7l-1.4-2l2.7-3.8l-1.7-2l0.4-1.5l2.1,0.4
			l0.6-1.9l-0.8-2.2l0.4-1.3l1.9-2.4l-0.9-2.1l2.1-1.4l-0.6-5.6l1-0.6l-0.1-1.7l1.4-0.5l5.8,2.1l0.9-1h2.1l2.4,2.3l3.5-0.2l1-1.9
			l4-0.2l2.4,2l0.1,2.6l1,1.4l3.1,0.5l1.8-3.2l2.3-0.5l1.5-3l4.4-7.2l-0.2-1.3l4-4.1l7.8-0.5l1.8,3.2l2.8,2.7l4-0.2l2.6-1.6l7.9,6.9
			l-0.6,1.9l2.9,3.4l-0.7,2.5l0.5,2.3l-1.5,3.9l-2.1,1l0.1,1.8l4.8,3.7l0.4,1.3l-6.6,3.7l-0.2,4.7l-1.7,2.7l0.1,1.6l4.5,4.7l0.8,5
			l-2.2-0.1l-2.4-0.4l-0.8,1.2l-2.6,0.3l-1.3-1l-0.7,0.8l2,6.2l-1.5,3.3l-5.2,2.5h-1.7l-3.5-2.5l-3.2-0.1l-2.1-2.8l-1.1,0.4l-0.4,4
			l1.9,3.5l-0.8,1.5l0.6,6.2l-0.6,2.6l0.2,1.4l3.3,0.4l0.8,1.7l4.9,0.3l0.9,1.6l6.2,0.6l-0.4,2.9l1.4,5l-0.2,5.5l-1,3.6l2.4,1.9
			l-0.5,1.9l3.2,1.1l4.6,6.5l2.5,0.8l2.6-1.8l1.3,0.8l-0.1,1.6l2.9,2l5.2,1.7l1.3-1.5l3.5,1.1l1.3-2.2l-0.5-3.2l1.1-2.1l-0.1-2.7
			l0.7-0.9l0.1,0.4l0.3,8.9l2.6,3.7l0.6,8.5l2.8,2.5l3.5,4.3l2.8,5.7h1.7l3.2,3.3l-0.5,1.6l0.8,1.5l-2.9,2.9L247,276l-4.6,3.3
			l0.5,1.2l3-0.3l1.5,2.3l-0.8,0.8l0.1,1.7l-1.2,2l0.7,6.1l-0.7,2.6l-0.4,2.4l-1.4,0.9l-3.9-3.1l-3.1-1.2l-0.9,0.4l-0.8,1.1
			l-1.7-0.2l-0.2,1.3l-1.9,0.6l-0.3,5.3l-0.7,1.1l1.5,2.4l-2.8,6l-0.8,1.8l-2.8,2.5l-0.7,2.1l0.8,4.3l-6.1,2.3l0.1,2.9l-3,4
			l-3.3,2.3l-1.2-0.1"/>
		<g>
			<path class="st1" d="M202.3,216.8l-6.7-0.3l-1.8,3.4l-3.4-0.8l-1.5,1.1l-3.1-2.2l-1.6,1.9l-6.2-0.3l-5.3,0.8l-0.9,1.8l1.9,5.1
				l2.7,2.6l2.6,4.8l0.6,2c0,0-0.3,1.2-0.3,1.3s0.3,2.2,0.3,2.2l-3.8,1l-3.4,1.4l-2.2,0.3l-0.2,2.7l-0.5,2.9l-2.2,1.9l0.3,1.4
				l1.9,0.9l-1.2,2.3l-0.8,4.9l-0.6,5.3l7.5,0.1l2.4,0.1l1.6,2.5l-3.9,1.3l-1.4,1.4l0.6,2.5l1.3-0.1v2.8l3.7,6.8l-1.1,1.5v3.4
				l1.3,0.7l-0.2,1.2l-4.6,1.6l-0.1,1.7l8.4-0.1l0.1-2h1l2.2,2.1l1.7-0.1l0.7-5.6l5.2-2.3l3.2,0.4l0.6-1.3l-2.3-1.7l7.2-4.9l3.9-0.5
				l2-1.6l4.8-0.2l1.9-3.4l-2.5-2.1l0.2-3.1L207,266l-1.8-2.9l-0.6-7.8l0.8-2.5l-0.5-1.4l-2.2-2.2l-0.1-3l-2.9-1.4l-3.2-5.5
				l-1.3-6.1l1.5-1.9l2.4-1.2l1-1.8l2.8-0.1l0.4-1.6l-2.4-1.9l1-3.6L202.3,216.8z"/>
			<g>
				<text transform="matrix(1 0 0 1 170.4847 262.2718)" class="st2 st3">Gazipur</text>
			</g>
		</g>
	</g>
	<g>
		<circle class="st4" cx="160.7" cy="186.8" r="13.4"/>
		<text transform="matrix(1 0 0 1 154.7044 194.0759)" class="st2 st5">2</text>
	</g>
</g>
<g id="gazipur-1">
	<polygon class="st6" points="102,69.8 103,68.8 104.1,71.2 108.2,75.6 110.7,78.1 113.3,82.3 113.4,85.7 114.9,88.4 115,92.1 
		118.1,94.3 118.2,100.3 121.3,103.7 120.4,105.7 121.5,106.5 123.5,105.4 125.3,108.9 123,111.2 124,114.5 126,114.6 126.5,118.9 
		127.9,121.6 128.1,124.9 131.4,125 131.5,126.6 135.7,130.8 136.3,134.2 139.1,133.8 140.8,135.6 141.4,141.1 139.3,142.5 
		140.3,144.7 138.3,147.1 137.8,148.3 138.7,150.6 138.1,152.4 136,152.2 135.6,153.6 137.3,155.6 134.7,159.3 136,161.4 
		132.2,165.1 129.8,169.9 129.5,176.9 126,181.4 126.3,184 130.3,186.5 130.5,188 128,192.1 127.9,193.5 131.2,195.5 130.5,197.2 
		128.4,197.1 129,202.6 133,206 132.1,207.8 127.6,207.7 126.9,210 127.7,211.4 127.7,214.9 129.8,219.7 128.4,221.6 125.3,222.9 
		123.5,222.6 122.2,224.5 122.8,226.5 121.4,227 111.9,219.9 110,218.5 108.2,219.3 105.8,218.9 105.4,220.8 107.6,224.4 
		107.1,226.7 110.9,228.4 112.6,230.9 111.9,235.1 111.8,239.7 108,241.2 106,243.6 105.9,245.5 104.1,246.4 102.2,243.2 
		100.8,242.8 100.7,240.1 98,240.2 96.5,243.3 91.5,243.9 88.5,241 86.5,241.8 84,240 80.5,239.5 78.8,240.3 76.7,240.4 75.9,241.3 
		72.8,240.6 70.8,237 72.4,234.1 69.2,231.8 67.4,229.4 65.1,229.2 62.6,230.6 64.6,232.8 65,235.5 64,236.8 65.7,242.3 64.8,243.7 
		61.1,243.1 56,243.7 53,242.6 50.6,245.2 49.1,245.5 46.7,244 45.5,242.1 43.3,242.1 43.3,245.3 42.3,246 41,244.7 41,242.3 
		39.2,241.7 37.3,242.4 36.6,244 34.6,243.9 34.4,239.7 30.8,239.8 28.4,241.1 29.1,243.9 27,245.9 27.7,247.9 25.9,249.7 23.9,249 
		19.9,249 17.6,244.8 15.8,241 13.3,239.1 12.6,235.6 11,233.7 9.2,233.2 8.9,232.2 7,232.1 6.5,230.8 4.1,230.4 3.8,225.7 3.1,221 
		3.2,218.1 5.1,218.1 4.6,213.5 5.7,212.3 8.9,211 10.8,212 12.6,210.7 12.4,207.4 9.5,203.4 11.7,202.1 13,202.2 15.7,200.8 
		15.9,198.4 17.5,198.5 19.5,197.3 20.3,195 23.5,195.8 23.5,193.6 25,191.1 24.9,184.6 22,182.2 20.6,179 20.6,172 21.8,171.6 
		25.9,175.1 27.8,179.3 29.6,180.5 32.2,178.8 36.1,178.7 37.4,180.2 37.7,182.7 41.2,182.5 44.5,181.8 45.8,179.6 48,177.8 
		52.8,176.5 58.9,174.9 59.6,171.4 57.6,167 54.2,164.9 53.3,161.9 51.2,160.8 49,157 50.8,153.7 50.9,147.8 55.7,142 55.4,133.4 
		57,131.4 59,130.2 63,123.8 65.7,121.8 65.6,120.1 67.3,117.6 70.5,116.2 70.6,113.3 69.6,111.3 70.3,108.9 72.2,107 74.2,107.2 
		77.1,104.5 76.2,102.1 77.3,101 79.9,101.6 80.6,100.3 79.8,96.5 81.9,94.8 83.9,94.8 89.4,92.4 91.6,92.3 96.3,88.6 94.8,80.9 
		95.2,75.1 99.6,71.8 101.1,69.9 	"/>
	<g>
		<text transform="matrix(1 0 0 1 53.4847 201.9385)" class="st2 st3">Kaliakair</text>
	</g>
	<g>
		<circle class="st4" cx="103.2" cy="136.8" r="13.4"/>
		<text transform="matrix(1 0 0 1 97.2044 144.0759)" class="st2 st5">1</text>
	</g>
</g>
<g id="gazipur-3">
	<path class="st7" d="M102.9,69l-1.1-0.2l0.1-1.5l2-0.3v-1.2l-1.7-1.6l0.9-2.4l-1.5-1.4l2.4-4.9l-3.3-0.9l0.1-3.4l-3.3-0.3l-0.1-1.6
		l5.2-2.7l0.8-1.3l4.9-3.1l2.9-3.3l3.1-1l2.1-0.7l1.1-2.8l4.4-0.4l4.9,2.2l1.3,1.8l7.5,0.2l0.5-1.6l0.3-1.9l2.2-1.4l4.9,0.1l0.1,1.2
		l-0.9,1.1L143,39l-1.6,2.8l3.2,1.7l-0.2,4.2l10.3-3.1l0.9-1.4l-0.3-2.2l0.9-0.6l1.5,1.5l3.6,0.1l3,4.9c0,0,6.4-0.1,6.4-0.2
		c0-0.1,2.1-3.3,2.1-3.3l2.5-3.4l-0.3-2.5l6.9-8.1l1.9-2.2l1.1,1l-0.3,1.9l2.4-0.3l-0.2-2l0.9-2.4l-0.2-3.5l-0.9-1.4l-0.3-8.4
		l0.6-1.3l1.5,1l1.9-1.7l2.8-4.9l2.9-1.1l3.7-0.3l0.8,1.6h2.5l2.3-1.4h2.8l3.4,4.9l4,2.6l4,2.7l0.4,2l1.9,0.2l0.8,1.8l3.1,0.5
		l3.1,4.2l3.8-0.3l13.2,2.9l5.7,5.4l3.4,0.3l0.2,1.5l-5.1,6.5l0.2,2.9l3.3,1.4l2.9,0.3l4.9,4.1l5.8,2.8l0.3,2l-1.2,2.4l-1.9-0.1
		l-6.3,5.1l-1.1,3.3l-2.1,2.1l-2,5.8l0.6,4.4l2.5,2.1h8l2.5,3.4l-0.5,4l4,6.9l-0.1,1.5l-2.4,1.2l-2.6,2.9l-1.1,4.9l-0.6,3.7l1.4,8.3
		l-1.2,2.9l0.3,3l3.8,2.3l3.9,3.9l1.3,5.4l-1.6,5.7l-5.3,5l-1.9,3.8l1.8,1.7l-0.3,0.8l-1.2-0.5l-0.2,3.4l-2.6,1.3l-0.3,0.9l-6,0.9
		l-6.5,0.3l-1.6,1.5l1.7,5.3c0,0,2.5,4.3,2.4,4.3s0.1,4.2,0.1,4.2l-0.9,1.3v2.7l-3.6,1l0.9,3.8l1.8,4.2l1.8,0.4l-3,3.4l-2.6-0.5
		l-5.1,1.8l-2.3,3.1l0.8,1.7l-1.3,1.4l-1.5-0.5l-1.5,4.3l1.2,4.3l1.5,1.2l-0.3,1.4l-1.4,1.9l0.2,9.3l1.1,2.8l0.4,4.1L237,226
		l-2.8,1.2l-1.9,3l0.1,2.7l-1.1,2.1l0.5,3.2l-1.2,2.2l-3.5-1.1l-1.4,1.5l-5.2-1.7l-2.9-2l0.1-1.7l-1.3-0.8l-2.6,1.9l-2.5-0.7
		l-4.6-6.5l-3.2-1.1l0.5-1.9l-2.5-1.9l1.1-3.6l0.1-5.5l-1.4-5l0.5-2.9l-6.3-0.5l-0.9-1.7l-4.9-0.3l-0.8-1.7l-3.3-0.3l-0.2-1.5
		l0.6-2.6l-0.6-6.2l0.8-1.5l-1.9-3.4l0.4-4l1.2-0.4l2.1,2.8h3.2l3.5,2.5l1.8-0.1l5.1-2.5l1.5-3.2l-2-6.3l0.8-0.8l1.4,1l2.5-0.3
		l0.9-1.2l2.9,0.4l1.7,0.1l-0.8-5.1l-4.5-4.7c0,0-0.2-1.6-0.1-1.6s1.7-2.6,1.7-2.6l0.2-4.7l3.9-2.2l2.8-1.5l-0.4-1.3l-4.8-3.7
		l-0.2-1.8l2.1-1l1.6-3.9l-0.5-2.3l0.7-2.5l-2.9-3.4l0.6-1.9l-7.9-6.9l-2.6,1.6l-4,0.2l-2.8-2.7l-1.8-3.2l-7.8,0.5l-4,4.1l0.2,1.4
		l-4.4,7.2l-1.6,3l-2.3,0.5l-1.7,3.2l-3.1-0.5l-1-1.5l-0.2-2.5c0,0-2.3-2-2.4-2s-4,0.2-4,0.2l-1,1.9l-3.5,0.2l-2.3-2.3h-2.2l-0.9,1
		l-5.8-2.1l-1.4,0.5l0.1,1.7l-1,0.6l-1.7-1.8l-2.8,0.4l-0.5-3.4l-4.2-4.2L132,125l-3.2-0.1l-0.2-3.3l-1.4-2.7l-0.5-4.3l-2-0.1
		l-1-3.3l2.3-2.3l-1.8-3.5l-2,1l-1.2-0.7l0.9-2l-3.1-3.4l-0.2-6.1l-3.1-2.1l-0.1-3.7l-1.5-2.8l-0.1-3.4l-2.5-4.1l-6.5-6.9l-1.1-2.1
		L102.9,69z"/>
	<g>
		<text transform="matrix(1 0 0 1 175.4014 108.9385)" class="st2 st3">Sreepur</text>
	</g>
	<g>
		<circle class="st4" cx="200.7" cy="71.8" r="13.4"/>
		<text transform="matrix(1 0 0 1 194.7044 79.0759)" class="st2 st5">3</text>
	</g>
</g>
<g id="gazipur-4">
	<path class="st8" d="M265.8,54.9l1.4,0.9v1.7l4.6,4.4l4.5,0.7l7,7.6l1.5,0.6l5.6-0.4l3.4-3l2.4-3.8l5.9-2.6l4.1-3.7l4.5-1.7
		l3.7,0.2l2.8-1.7l3.7,0.3l7.8,5.1l3.8,0.3l5.2,3l2.3,3.4l2.6,1.1l1.6,1.6l2.4,1c0,0,3.8,0.2,3.9,0.2s3,2.2,3,2.2l1.2,0.6l4.3-0.1
		l2.1,1.4l-1.9,0.3l0.3,1.8l-0.5,2.9c0,0-2.6,4.4-2.7,4.4s-3.9,1-3.9,1l-1.6,2.2l-0.5,3.7c0,0,0.3,7.9,0.3,7.8s0.2,3.2,0.2,3.2
		l1.4,2.2l2.3,1.5l2.6,2.8l2.4,0.1l2.4,3.6l-0.6,1.5l0.6,3.3l1.5,1.2l-0.4,2.1l-2.1,1.8l-1.8,4.9l-0.2,1.5l1,1l-0.6,2.7l1,2.8
		l-0.9,5.4l0.6,3.4l1.3,0.9l4.9,1.8l0.5,1.6l-1.8,5.3l-2.6,1.7l-2.7,0.7l-2.6,3.9l0.8,1.3l-2.1,2.5l-1.6,4.2l1.1,1h4.8l1.6,1.1
		l4.5-4.1l1.8,0.4l3.9,2.9l-0.6,4.1l1.4,1.1v1.5l-2,1.7l-4.7,1.6l-5.9,0.1l-3.8-1.3l-3,0.7h-4.3l-4.3,3.5l-2.7,0.8l-3.9-0.4
		l-4.2-3.5l-1.5-5.3l-0.4-1.5l-1.4,0.3l-0.5,4.6l-0.1,4.7l1,3.1l0.1,5.2l-0.6,3.3l-2.8,3.9v3.5l4.2,9.3l5.1,9l1.9,4l-0.2,1.5
		l-1.1,0.3l-2.2-2.1l-3.3-4.4l-2.9-0.2l-6.2,1.2l-6.7-0.8l-2.5-0.3l-1.2-1.3L311,217l-3.3,2.8l-0.5,1.8l-3.9,1.6l-7-2.5l-1.9-0.5
		l-1.8,1.3l-1.8,2.6l-0.1,1l-2.4,1.4l-2.2-1.6l-1.5,0.9l0.3,1.4l-2.1,2.6l-1-0.7l0.4-1.3l-1.1-1l-1.3,1l-1.4-1.8l0.3-0.7l-2-1.8
		l-0.5-2.1l-3-2.7l-3.3-0.1l-3.2,0.1l-0.4,0.8v3.5l-0.8,0.6l-2.2-1.5l-1.5-2.5l-1.8,1.8l-1.4,0.3l-1.2,1.9l-2.2,1l-3.8,0.3l0.2-1.9
		l0.7-5.1l-2-1.4l-1.1,1.6l-1.7-0.3l-1.5,0.5l-0.3,3l-0.5,1.7l-1.3-0.4l0.2-2.6l-2.7-1.5l-1.7,1.9l-1.2,1.8h-1.3l-0.3-3l-1.1-2.7
		l-0.2-9.3l1.4-1.9l0.2-1.4l-1.5-1.2l-1.3-4.3l1.5-4.3l1.5,0.4l1.4-1.4l-0.8-1.7l2.4-3.1l5.1-1.8l2.6,0.5l3.1-3.4l-1.7-0.4l-1.8-4.3
		l-0.8-3.7l3.5-1.1l0.1-2.7l0.9-1.3l-0.1-4.3l-2.4-4.2l-1.6-5.2l1.6-1.5l6.5-0.3l6-0.9l0.3-0.9l2.5-1.3l0.3-3.3l1.1,0.4l0.3-0.7
		l-1.7-1.6l1.8-3.9l5.3-4.9l1.5-5.8l-1.3-5.4l-4-3.9l-3.7-2.3l-0.4-3l1.2-2.9l-1.4-8.4l0.7-3.8l1.1-4.8l2.6-2.9l2.4-1.2l0.1-1.6
		l-4-6.9l0.5-4l-2.6-3.4l-7.9,0.1l-2.6-2.1l-0.6-4.4l2.1-5.9l2-2.1l1.2-3.3l6.3-5.1L265.8,54.9z"/>
	<g>
		<text transform="matrix(1 0 0 1 273.318 166.0218)" class="st2 st3">Kapasia</text>
	</g>
	<g>
		<circle class="st4" cx="300.2" cy="123.3" r="13.4"/>
		<text transform="matrix(1 0 0 1 294.2044 130.5759)" class="st2 st5">4</text>
	</g>
</g>
<g id="gazipur-5">
	<path class="st9" d="M338,224.3l3.2,6.2l1.1,2.9l0.6,3.8l-0.3,1.8l-3.3,2.8l-5.7,1.7l-4,3.5l-1.7,6.6l-2.3,8l-2.8,4.1l-5,3.3
		l-2.5,2.8l-0.1,5.8l0.2,10.6l-0.2,4.3l-0.7,1.4l-0.3,2.8l-2.6,4v1l-5.1,1.7l-5.6,3.1l-4.6,1.5h-2.2v1.1l-4.1-0.5l-3.9,0.2l-5.7,1.7
		l-3.1,1.6l-0.4,2l2.7,3.6l6,5.7l-0.5,1l-3.2,0.7l-2.9-0.4l-0.5,1.1l0.8,0.7l-0.5,0.6l-1.8-0.3l-1.3-0.6l-1.7,1.7l-0.5,0.5l0.3,1.8
		l-1.5,1.1l-2.1-0.4l-3.1-0.3l-0.5-1l-0.5,1.2l-1.8,0.3l-1.9-1.6l-2.2,1.4l-2.4-0.8l-2.5-6.6l-0.9,0.3c0,0,0.9,3.9,0.9,4
		s-0.7,0.9-0.7,0.9l-2.5-1.3l-1.7,0.5l-1.5,2.7l1,1.9l1.4,0.6l1.1,5.1l-0.6,1l-1-1.3l-0.8,1.3l-2.3-0.2l-1.8,1l-2.9,0.1l-1.2-1l-1,1
		l0.1,4l-0.2,2.3l-1.3,1.8v3.7l-2.1,0.5L234,355l-2.7,2.4l-1.3-0.5l-0.4,1.9l-2.8,1.7l-4-0.2l-2.1-1.3l-2.6,0.7l-3.6,3.6l-1-0.9
		v-3.5l1.3-4.1l3.5-3.5l-0.3-2.6l2-3.2l-3.8-3.8l-1.9-0.6l-0.5-1.4l-3.1-0.7l1.2-2.3l0.2-2.2l-0.3-1.1l6.6-5.8l1.5-0.7l0.4-1.8
		l0.6-2.2l4.5-2.8v-3.3l2.8-2.4l0.8-1.8l3.1-2l0.9-2.5v-2l-2.2-2.7l0.5-5.5l2-0.7v-1.3l1.9,0.2l0.5-1.2l1.1-0.4l0.3-1.3h0.9l1.2,0.8
		l4.2,2.3l2.2-0.7l0.7-2.6l-0.7-6.2l1.2-1.9l-0.1-1.7l0.9-0.9l-1.5-2.3l-3.1,0.3c0,0-0.5-1.1-0.5-1.2s4.7-3.2,4.7-3.2l0.5-3.4
		l2.9-2.9l-0.8-1.4l0.5-1.7l-3.2-3.3h-1.8l-1-2.3l-1.8-3.5l-3.5-4.2l-2.8-2.6l-0.5-8.3l-2.6-3.7l-0.4-9.3l1.2-1.9l2.8-1.2l0.3-2.3
		v-1.1h1.2l1.2-1.6l1.8-2l2.6,1.5l-0.1,2.6l1.1,0.4l0.6-1.8l0.3-2.9l1.5-0.6l1.7,0.3l1.1-1.6l2,1.3l-0.7,5.3l-0.2,1.8l3.8-0.3
		l2.2-0.9l1.2-1.9l1.4-0.4l1.7-1.8l1.6,2.4l2.2,1.5l0.8-0.6l0.1-3.5l0.4-0.7l3.3-0.3l3.2,0.2l3.1,2.6l0.5,2.1l2,1.9l-0.2,0.6
		l1.3,1.8l1.3-0.9l1.2,1l-0.3,1.3l0.9,0.7l2.1-2.5l-0.3-1.4l1.5-0.9l2.1,1.6l2.4-1.4l0.2-1l1.8-2.6l1.7-1.3l1.9,0.5l7.1,2.5l4-1.7
		l0.5-1.8l3.3-2.8l1.5-0.6l1.2,1.2l9.3,1.1l6.2-1.2l2.9,0.2l3.3,4.4l2.2,2.1L338,224.3z"/>
	<g>
		<text transform="matrix(1 0 0 1 257.4846 272.0218)" class="st2 st3">Kaliganj</text>
	</g>
	<g>
		<circle class="st4" cx="303.2" cy="241.3" r="13.4"/>
		<text transform="matrix(1 0 0 1 297.2044 248.5759)" class="st2 st5">5</text>
	</g>
</g>
</svg>
