<?xml version="1.0" encoding="utf-8"?>
<!-- Generator: Adobe Illustrator 25.2.1, SVG Export Plug-In . SVG Version: 6.00 Build 0)  -->
<svg version="1.1" id="Layer_1" xmlns="http://www.w3.org/2000/svg" xmlns:xlink="http://www.w3.org/1999/xlink" x="0px" y="0px"
	 viewBox="0 0 393 500" style="enable-background:new 0 0 393 500;" xml:space="preserve">
<style type="text/css">
	.st0{fill:#9BB6EA;stroke:#FFFFFF;stroke-width:0.5;stroke-miterlimit:10;}
	.st1{font-family:'TimesNewRomanPSMT';}
	.st2{font-size:16px;}
	.st3{fill:#FFFFFF;}
	.st4{font-size:24.672px;}
	.st5{fill:#ABBEED;stroke:#FFFFFF;stroke-width:0.5;stroke-miterlimit:10;}
	.st6{fill:#C5CFED;stroke:#FFFFFF;stroke-width:1.033;}
	.st7{fill:#7CA7E5;stroke:#FFFFFF;stroke-width:0.5;stroke-miterlimit:10;}
	.st8{fill:#8BAFE8;stroke:#FFFFFF;stroke-width:0.5;stroke-miterlimit:10;}
</style>
<g id="narsingdi-5">
	<path class="st0" d="M252.1,205.8l-2.6,1.4l-0.6,2.5l-1.9-0.5l1.4,4.4l-3.4,1.3l-2.9,2.5l1.2,4.8l1.6,8.3l2,3.6l0.3,2.1l-1.6,1.1
		l1,7.1l-0.5,1.7l0.7,1.3l-1.2,1.6l-1.6-0.4l-1.4,2.3l3.5,3.5l-2.6,4.3l-0.4,3.7l-6.9,6.5l-6,6.5l-7.6,3.3l-4.7-1.4l-3.8,0.9
		c0,0-8.8,5.1-8.8,5s-0.2-4.5-0.2-4.5h-0.9l-1.1,1.6l-1.7-0.3l-0.9-1.4l-0.7,0.8l0.7,3.2l-1.5,5.1c0,0-2.6,4-2.5,4s0.4,2.2,0.4,2.2
		l-6,5.5l-2.3,0.4l-1.4,4l1.1,8.4l0.8,1.4l2.6,1.5l-1.1,1.9l-1.8,0.5l-0.5,3.4l-5.3-0.6l-3.7,1.6l-2.7,6.7l0.5,6.5l-0.9,3.3l-9,7.3
		L167,350l2.8,14.2l4.5,8.2l9.1,4l7.9,0.9l7-2.2l3.1-3.7l1.8-9.1l5.3-8.6l7.5-6.5l5.9-1.5l5.9,1.6h2.2l5.6,2l-1.9,9.5l3.4,9.1
		l1.6,4.4l7.4,10.2c0,0,2.7,3,2.8,3s3.2,1.2,3.2,1.2l-1.1,1.1l-8,2.4l-1.3,1.9v4.3l7.6,0.3l6.4-1.7l9.7-6.9l8-6.1l2.8-0.1l10.2,2.9
		l10.9,6.3l5.6,3l6.8,1.6l4.9-0.8l6.2-4l7.6-8.1l5-10.2l3.3-12.6l6.8-14.9l4.5-5.5l6.9-3.9l3.3-2.3l1.7-4l1.3-15.3l-1.5-5.2l2.5-6.1
		l3.7-5l10.4-5.5l2.6-2.2l0.8-6.5l-1.7-14l-1.7-6.9v-10.9l5.6-12.7l9.6-14.8l-4.2-2.4l-1.5,0.2l-4.2,1.4l-6.3,0.3l-5.5-0.9
		c0,0-2.7-1.8-2.8-1.8s-1.4-3.6-1.4-3.6l0.4-6.3l3.1-7.1l0.8-2.4l-2.4-0.7l-2.5-3.1l-3.4-1.1l-3.6,0.8l-5.4,4.2l-3.7-0.2l-6.3-5.4
		L340,196l-1.2,1.4l0.2,6.9l-2,1.2l-2.3-0.5l-4.5,3.5l-0.8,5.9l-1.6-0.3l0.3-3.4l-1.4,0.6l0.5,3.1l-0.6,1.2l-1.3-0.1l0.3-2.8
		l-1.9-0.9l3-2.9l-0.7-1.8l-3.2-0.3l-1.5,1.7l-1.1-1l-0.1-3.8l-1.8-0.8l-1.7,3.2l-4.6,4.5l-5.8,1.9l-2.3,2.1l-0.8,5.2l-1.9,2.4
		l-10.4,4.5l-3.4,2.1l-1.5-1.4l-1.1-3.1l0.4-6.3l-4.6-4.1l-0.4,0.6l0.2,3l-2.4,1.8l-8-4.1l-4.8-1l-1.9-1.7l-2.7-4.4l-6.2-0.1
		l-2.3-1.8L252.1,205.8z"/>
	<text transform="matrix(1 0 0 1 267.157 276.0415)" class="st1 st2">Raipura</text>
	<g id="dist-gopalganj-1_1_">
		<g>
			<circle class="st3" cx="284.4" cy="306.1" r="13.4"/>
			<text transform="matrix(1 0 0 1 278.3711 313.4091)" class="st1 st4">5</text>
		</g>
	</g>
</g>
<g id="narsingdi-4">
	<path class="st5" d="M71.8,187l2.1-5.3l1.1-5.9l-1.6-11.5l1.2-10.4l1.8-1.2l1.2,0.5l1.2,4.4l1.9,5.5l2.7,2.7l4.5,1.7l4.1-0.2
		l5.7-3.4l6.6-2.1l8.6-0.7l9.3,0.7l4.2-0.3l4.7-2.5l2.2-3.7l-0.6-4.2l-4.9-4.7l-2.8-0.7l-3.1,1.7l-3.5,2.9l-7.2-0.7l-2.6-1.4
		l-0.7-2.7l1.3-3.2l3-3.1l3.1-7.3l3.4-2.7l4.6-2.3l2.3-4.4l-1-3.2l-4.3-1.9l-3.1-4.6v-8.7l-2.3-6.5l-0.2-2.4l1.4-3.5l1.4-9.5
		l1.8-1.6l1.5-2.3l-0.3-3l-1.4-1.1l-0.3-3.7l-3.4-4.5c0,0-4.1-2.2-4.1-2.3s-4.1-3.9-4.1-3.9l-2.6-1.7l-1.1-3.7l-0.3-4.9l-0.1-4.8
		l0.9-3.2l-0.2-5.3l1.7-2.6l7-3.5l3.2-4.8l-1.4-5l-0.9-1.7l0.7-1.2L117,18l6.2,0.2l6.8,2.5l4.4,3.3l3.9-0.2l3.1-3.8l4.7-0.8
		l14.7-1.1l2.7-0.7l2.2-3l5.6-6.7l6.5-2.3l6.3,1.3l6.6,0.1l2.8,2.6l7.1,3.9l2.6,3.3v4.9l-2.7,4.1l0.6,4.7l2.9,2.8l5.7,0.3l2.8,3.4
		l0.1,4.1l-3.6,3.3l0.2,2.8l1.8,3l-0.6,2.7l-3.8,3.1l-0.5,3l2,3.8l4.8,4.6l10.8,3.4l0.7,2l2.4,1.9l-0.7,5.1l-2.8,2.3l-0.6,2.7
		l-3.4,2l-0.4,2.4l4.6,1.2l-0.1,1.2l-4.4,0.5l-1.2,1.9l-3.9-0.3l-2.2,1.8l-4-0.6l-2.4-4l-1,1.9l2.3,2.2l0.2,5.5l-2.1-0.8l-1.8,2
		l-2-0.4l-2-1l-2.4-0.1l-1.5,1.4l-1.8,0.1l-1,3.3l-3.4,5.3l0.7,0.8l1.5-0.6l2.4,0.7l1.6,2.6l3.5,1.9l0.3,4l-1.2,1.9l1.8,1.7l1.4,3.3
		l-1.5,1.1l0.6,1.5l1.3,0.2l3.5,9.6l-1.8,4.9l2.5,1.8l1.1,2.1l3.8-2.2l2.5,1.9l-0.2,2.3l3.5,0.6L216,152l-2.7,3.6l-1.3-0.3l0.1,0.9
		l1.4,0.9l-0.2,3.7l-1.5-0.1l-1.7,1.8l-2.3,0.5l-7.7,7.9l-4.2,1.5l-0.5,2.9l-3.7,1.5l-3.7-0.1l-2.7-2.8l0.1-6.5l-2.1-1.2l-8-0.5
		l-3-2.5l-1.9-3.3l-0.1-2.5l-1.7-1.3l-0.7-3.5l-2.1-1.3l-4.2-0.7l-0.7,1.1l2.6,5.4l4.3,1.5L167,162l-2,2.8l0.1,5.3l4.5,0.1v2.5
		l2,0.9l2.5,0.5l0.6,2.4l-1.9,1.1L172,179l-9.8-1.2l-1.5-4.3l-2.5-1.1l-2.8,1.4l-0.3,1.8l1.5,3.6l0.8,10.9l-2.7,6.1l-1.6-0.3
		l-3.4-2.7l-3.1,1.2l-13.9-7.8l-1.4-2.3l-4.1-0.1l-4.2,2.2l-1.1-0.1l-2-4.1l-2.4,1.9l-5.6,0.4l-3.5-1.5l-2.3,0.5l-3,5.1l-1.3-0.6
		l-3.2-3.4h-2.3l-2.5,1.8l-7.3-0.1l-5,2.9l-3.4,0.9l-4.5-1.4L71.8,187z"/>
	<path class="st5" d="M223,70.5l2.5-2.5l1.9,2.8l3.2,8l3.3,2.3l2.4,0.4l2.1,2.8l0.9,3.3l-0.1,4.7l1.2,3.2l2.1,3.9l2.9,3.8l7.5,4.1
		l4.7,4.4l4.5,4.6c0,0.1,4.8,0.8,4.8,0.8l8.5-0.8l2.3-1.3h4.3l3.6,3.3l0.8,3.8l-0.9,5.3l-5.3,7.1l-9,2.7l-6.5,2.7l-2.4,3.5v4.3
		l3.3,3.7l5.8,3.3l10.5,1l11.1,3.2l10,4.6l6.9,5.6l8.2,7.8l3.9,3.5l7.9,2l6.9-1.6l7.9-5.7l2.9-1.1l5.5-0.1l5.2,6.1l0.9,2.5l0.1,5.5
		l2.3,3.3l7.4,2.3l2.9,2.6l0.8,3.6l-0.8,3.5l-1,1.6l-1.2-0.8l1-2.4l-2.4-0.7c0,0-2.4-3-2.5-3.1l-3.3-1.1l-3.6,0.8l-5.4,4.2l-3.7-0.2
		l-6.4-5.4l-2.6-0.2l-1.2,1.4l0.2,6.9l-2,1.2l-2.3-0.5c0,0-4.4,3.4-4.5,3.4s-0.6,4-0.6,4l-0.3,2l-1.7-0.4l0.3-3.4l-1.5,0.6l0.5,3.1
		l-0.6,1.2l-1.3-0.1l0.3-2.8l-1.9-0.9l3.1-2.9l-0.7-1.7l-3.2-0.3l-1.5,1.7l-1.1-1l-0.1-3.7l-1.8-0.8l-1.7,3.2l-4.6,4.5l-5.9,1.9
		l-2.2,2.1l-0.8,5.3l-1.9,2.3l-5.7,2.5l-4.6,2l-3.5,2.1l-1.5-1.4l-1.1-3.1l0.4-6.3l-4.6-4.2l-0.4,0.6l0.2,3.1l-2.4,1.8l-7.9-4.1
		l-4.9-1.1l-1.9-1.7l-2.7-4.5h-2.3l-4-0.1l-2.2-1.9v-2.1l-3.5-0.1l-4-4.1l-3.9-3.3l-1.7-5.3l-0.9-1.2l1.2-2.7l-2.8-6.3l0.1-1.5
		l-1.8-5.2l-0.7-3.7l1-0.6l1.1,1.8l1.2-0.7l-0.2-2.1l0.6-4.6l-3.9-1.5l-2.2,0.7l-0.6,2.1h-2.2l-2.1-1.3l-2.9,1.1l-2.9,0.5l-5-1.7
		l-2.4-2.2l-0.3-1.1l0.3-3.6l-1.4-0.9v-0.9l1.3,0.2l2.7-3.6l0.1-1.9l-3.5-0.6l0.2-2.3l-2.5-1.9l-3.8,2.2l-1.1-2.1l-2.5-1.8l1.9-4.9
		l-3.6-9.6l-1.3-0.2l-0.6-1.5l1.5-1.1l-1.4-3.3l-1.8-1.6l1.2-1.9l-0.3-4l-3.5-1.9l-1.6-2.6l-2.4-0.7l-1.5,0.7l-0.7-0.8l3.3-5.3
		l1-3.3l1.7-0.1l1.6-1.3l2.4,0.1l2,1l2,0.4l1.8-2l2.2,0.8l-0.2-5.5l-2.3-2.2l1-1.8l2.3,3.9l4.1,0.6l2.2-1.9l3.9,0.3l1.1-1.8l4.4-0.5
		l0.1-1.2l-4.5-1.2l0.4-2.3l3.4-2l0.6-2.7l2.7-2.3l0.8-5.1l-2.4-1.9l-0.7-2L223,70.5z"/>
	<text transform="matrix(1 0 0 1 126.5737 93.709)" class="st1 st2">Monohardi</text>
	<text transform="matrix(1 0 0 1 216.4913 131.543)" class="st1 st2">Belabo</text>
	<g id="dist-gopalganj-1_3_">
		<g>
			<circle class="st3" cx="163" cy="56.5" r="13.4"/>
			<text transform="matrix(1 0 0 1 157.0378 63.7425)" class="st1 st4">4</text>
		</g>
	</g>
</g>
<g id="narsingdi-3">
	<path class="st6" d="M71.8,187l-1.8,4.8l1.2,4.8l3.9,9.5l1.8,2.9l1.4-0.9l1.6,0.6l7.1,7.9l4.7,6.4l2.1,4.8l4.5,2.3l2.3,4.7
		l-0.5,10.9l1.6,4.3l2.5,2.3l3.8-0.4l3.3-6.1l3.3-3.7l6.1,0.4l4.1,2l1.9,0.5l2,2.2l-1.4,3.5l-0.9,5l-2.9,1.2l-6.5,2.3l-4.7,7.3
		l-3.4,2.7l-0.1,2.1l3,5.3l-0.7,4l3,2.1l6-2.3l2.7,1.6l2.2-0.6l4.7-0.3l2.7-3.6l-1.6-5.1l-0.3-4.4l2.5-6.5l6.9-4.5l4.3,0.4l3.1,2.5
		l0.1,2.8l-1.4,0.7l-3.9-0.2l-1.9,1l0.7,6.9l-1.1,3.8l0.9,5.6l-0.1,10.4l-5.1,8.6v2.8l1.3,1.1l-0.3,4.1l-2.8,3.9l-1,2.4l-3.8,1.6
		l-3.4,3.4l0.7,1.7l3.2,0.5l2.3,1.3l2.8-0.6l1.3-1.4l4.3,0.1l1.2,1.1l2.2-0.1l5.5-2.3l6.6,0.1l2.1-2.5l2.7-7.9l0.9-1.4l0.7-2.9
		l-0.5-1.7l1.6-3.6l2.9,0.4l2.6,3.7l0.4,2.2l-3,7.5l-0.8,6l0.3,3.1h1l2.2-2.8l6.8-2.4l7-4l5.2-1.4l-1-8.4l1.4-3.9l2.3-0.5l6-5.4
		L196,291l2.5-4l1.4-5l-0.6-3.2l0.7-0.7l0.9,1.4l1.6,0.3l1.1-1.6h0.9l0.3,4.5l8.7-5l3.9-0.9l4.7,1.4l7.6-3.3l6.3-6.8l6.6-6.3
		l0.4-3.7l2.6-4.3l-3.6-3.6l1.4-2.3l1.6,0.3l1.2-1.6l-0.6-1.3c0,0,0.5-1.6,0.5-1.7s-1-7-1-7l1.6-1.2l-0.2-2.1l-2-3.6l-2.8-13.1
		l3-2.5l3.3-1.3l-1.3-4.4l1.9,0.4l0.7-2.4l2.6-1.4v-2l-3.5-0.1l-4-4.1l-3.9-3.3l-1.7-5.3L238,189l1.2-2.7l-2.9-6.3l0.2-1.5l-1.9-5.3
		l-0.7-3.6l1-0.6l1,1.7l1.2-0.7l-0.2-2.1l0.6-4.6l-3.9-1.5l-2.3,0.7l-0.6,2.1l-2.2,0.1l-2.2-1.3l-2.9,1.2l-2.8,0.5l-5.1-1.8
		l-2.4-2.1l-0.3-0.9h-1.4l-1.8,1.7l-2.3,0.5l-7.7,7.9l-4.1,1.4l-0.6,2.9l-3.6,1.6l-3.6-0.2l-2.7-2.9l0.1-6.5l-2.1-1.2l-8-0.5l-3-2.5
		l-1.9-3.3l-0.1-2.5l-1.7-1.2l-0.6-3.4l-2.1-1.3l-4.2-0.8l-0.7,1.1l2.6,5.4l4.3,1.5l-0.6,4l-2,2.8l0.2,5.3l4.5,0.1v2.5l2,0.9
		l2.5,0.4l0.6,2.5l-2,1.1L172,179l-9.8-1.2l-1.5-4.3l-2.5-1.1l-2.8,1.4l-0.3,1.8l1.5,3.6l0.8,10.9l-2.7,6.1l-1.5-0.3l-3.4-2.7
		l-3,1.3l-14-7.9l-1.5-2.3l-4-0.1l-4.1,2.2l-1-0.1L120,182l-2.3,1.9l-5.7,0.4l-3.4-1.5l-2.3,0.5l-2.9,5.1l-1.3-0.6l-3.2-3.4
		l-2.4,0.1l-2.5,1.7l-7.3-0.1l-5,2.9l-3.4,0.9l-4.5-1.4L71.8,187z"/>
	<text transform="matrix(1 0 0 1 151.1568 221.042)" class="st1 st2">Shibpur</text>
	<g id="dist-gopalganj-1_2_">
		<g>
			<circle class="st3" cx="175" cy="246.5" r="13.4"/>
			<text transform="matrix(1 0 0 1 169.0378 253.7425)" class="st1 st4">3</text>
		</g>
	</g>
</g>
<g id="narsingdi-1">
	<path class="st7" d="M241.7,396l-11.9-0.7l-32,0.4l-7.4,1.4c0,0-1.9,1.7-2,1.8c-0.1,0.1-5,8.5-5,8.5s0.6,9.9,0.8,9.9
		s2.9,7.1,2.9,7.1l4.4,12.7l-0.4,16.2l-1.7,3l-1.2,5.8l-5,7.8l-6.1,6.5l-1.3,1.9l-2.3,0.8l-3.2,4.4l-1.9,6.2l-6.5,7.6l-2.2-3.7
		l-1-5.5l2-4.7l8.1-11.3l-2-0.8l-5.2-0.7l0.3-3.4l-2.8-0.2l-0.2-1.7l-2.5-0.1l-2.4-4.9l-3.1,0.6l-6.4-1.4l-0.7-2.3l1.6-3.6l-6.4-7.4
		l-4-0.7l-3.7-2.7l-2.8-4.6l-3.4-1.7l-3.9,1.2l-2.8-0.7l-3.9-3.8l-2.8,0.6l-0.8,3l2.4,2.6l2.2,3.6l1.7,0.6l-0.1,3.1l2.4,4.1
		l-0.3,10.2l-3.1,0.7l-0.5,3.1l-2.5,0.5l-2-2.4l-6.5,0.6l-1.9-1.8l-3.6,0.4l-3.1-4.7l-3.9,2.7l-1.5-0.1l-0.8,2.1l-2.2,0.4l-1.5-2.2
		l-3.4-1.2l-3.9-12.4l-3.7-2.5l-1-2.9l-0.2-3.4l-2.4-3.7l3.3-4.5l2.6-5.9l3.3-3.9l10-1.9l3.3,3.7l1.7-1.8l-0.4-2.5l1.7-1.1l0.5-2.3
		l-2.5-1.8l-4.3,2.4l-4.5-4.5h-2.1l-2.3-2.2l-0.4-2.5l1.7-1.7l4.1-0.5l3.5-4l-3.2-1.2l0.2-5.7l-5-0.9l-0.4-8.1l-1.6,0.6l-1.8,3
		l-4.2,1.7l-3.5-2L66,391l-4.4,2.8l-1.2,1.7l-1.8,9.1l-3.3,1.5l-0.1,1.5l2,1.8v4l1.6,2.5l-0.3,1.7l-3.4,4.1l-3.5,0.1l-3.2,4.4
		l-3.1,0.7l-2.6-2.1l1.5-2.7l-3.1-3.9L37,416l-1-1.4l1-2.2l-3-2.9l-1.4-4.4l2.4-2.6l0.5-2.4l2.6-0.5l5.5,1.8l1.5-2l-0.2-5.7l2-4.9
		l-1.4-2.7l0.9-1.5l2,2.1l0.7-1.2l-2.2-4.3l2.4-5.3l-0.8-2.3l2.1-0.8l1.9-3.1l-2.1-2.7l-1.2-2.6l0.2-3.1L54,360l0.4-1.3l-1.5-2.7
		l0.5-3.6l9.9-2.8l-0.4-4.3l1.1-3.5l8.1-1.1l4.3-0.6l4.8,0.1v-5.3l1.4,0.1l3.4,0.9l3-0.2l0.9,2.4l2,1.8l1.2-0.3l1.6-4.6l2-1l1.4-3.1
		l2.6,2.1l1.4,1.1c0,0,1.9-2.4,1.9-2.5s0.8-2.2,0.8-2.2l1.8,0.1l0.9,5.5l1.7-0.2l2.6-3.6l4.1-1.3l2.8-6.7l4.4-2.9l3,0.4l3.3,0.6
		l2.2,1.3l2.8-0.6l1.2-1.4l4.3,0.1l1.3,1.1l2.2-0.1l5.4-2.4l6.5,0.1l2.2-2.6l2.7-7.8l0.9-1.4l0.8-2.9l-0.5-1.6l1.6-3.6l3,0.3
		l2.6,3.7l0.4,2.3l-3,7.5l-0.8,5.9l0.3,3h1.1l2.1-2.8l6.8-2.4l7.1-4l5.2-1.3l0.9,1.5l2.6,1.5l-1.1,1.9l-1.8,0.5l-0.6,3.4l-5.3-0.6
		l-3.7,1.6l-2.7,6.7l0.5,6.5l-1,3.3l-8.9,7.3l0.3,4.7l2.8,14.1l4.6,8.2l9.1,4l7.9,0.9l7-2.2l3.1-3.7l1.7-9.1l5.3-8.6l7.5-6.5
		l5.9-1.5l5.9,1.6h2.3l5.5,2.1l-1.9,9.5l5,13.4l7.4,10.3l2.8,2.9l3.3,1.2l-1.1,1.1l-8,2.4l-1.3,1.9L241.7,396z"/>
	<text transform="matrix(1 0 0 1 97.491 359.959)" class="st1 st2">Narsingdi</text>
	<g id="dist-gopalganj-1_4_">
		<g>
			<circle class="st3" cx="126.4" cy="387.8" r="13.4"/>
			<text transform="matrix(1 0 0 1 120.3711 395.0758)" class="st1 st4">1</text>
		</g>
	</g>
</g>
<g id="narsingdi-2">
	<polygon class="st8" points="48.8,373.7 48.4,372.2 46.9,374.5 45.4,374.2 44.2,372.5 43.4,373.6 41.8,373 41.5,367.4 39.5,368.2 
		38.8,374.8 37.5,376.8 36.1,375.2 34.1,376 33.5,374.4 35,372.3 34.3,369.7 30.9,367.5 27.8,367.5 25.4,366.3 23.2,367.4 
		16.7,366.7 12.7,364.2 4.9,354.8 3.3,351.5 3.8,349 7.8,346.8 15.5,344.3 24.2,344.5 27.8,344.1 33.4,342.5 40,339.6 44.9,336.9 
		48.7,335.5 49.9,334 51.8,332.8 53.8,327.9 55.5,317.1 55.3,313.7 55.1,300.6 54.9,293.9 57,291.2 62.2,287.3 65.7,284.7 
		69.1,277.6 72.9,266.7 74.3,259.2 75.7,256.1 79.4,255.1 85.9,252.2 89.9,250.6 92.6,247.4 92.1,242.5 88,232.7 85.1,227.9 
		85.3,226.6 86.7,225.7 82.7,216.1 78,208.8 77.7,208.5 78.3,208.1 80,208.7 87,216.7 91.7,223.1 93.7,227.9 98.3,230.2 
		100.5,234.9 100,245.8 101.6,250.1 104.1,252.5 107.9,252 111.3,245.9 114.5,242.2 120.6,242.6 124.6,244.6 126.7,245.1 
		128.6,247.4 127.2,250.9 126.4,255.9 117,259.4 112.2,266.7 108.9,269.3 108.8,271.5 111.8,276.8 111.1,280.8 114.1,282.9 
		120.2,280.6 122.9,282.2 125,281.7 129.9,281.4 132.6,277.8 131,272.7 130.7,268.3 133.2,261.8 140.2,257.4 144.4,257.8 
		147.5,260.3 147.7,263.1 146.3,263.8 142.4,263.6 140.5,264.6 141.2,271.5 140.2,275.3 141.1,280.9 141,291.3 135.9,299.9 
		135.9,302.6 137.2,303.8 136.9,307.9 134.1,311.9 133.1,314.3 129.3,315.9 126,319.2 126.6,320.8 123.5,320.4 119.1,323.3 
		116.3,330 112.2,331.3 109.5,335 107.9,335.1 107,329.6 105.3,329.6 104.4,331.8 102.6,334.3 98.5,331.1 97.1,334.2 95,335.2 
		93.5,339.8 92.3,340.1 90.3,338.3 89.4,335.9 86.4,336.1 83.1,335.2 81.6,335.1 81.6,340.4 76.8,340.3 64.4,342 63.4,345.5 
		63.8,349.7 53.9,352.5 53.4,356 54.8,358.8 54.4,360.1 49.8,361.5 49.5,364.5 50.8,367.2 52.8,369.8 50.9,373 49,373.8 	"/>
	<text transform="matrix(1 0 0 1 65.9903 289.9585)" class="st1 st2">Palash</text>
	<g id="dist-gopalganj-1_5_">
		<g>
			<circle class="st3" cx="82.2" cy="311.6" r="13.4"/>
			<text transform="matrix(1 0 0 1 76.2045 318.8258)" class="st1 st4">2</text>
		</g>
	</g>
</g>
</svg>
