<?xml version="1.0" encoding="utf-8"?>
<!-- Generator: Adobe Illustrator 25.2.1, SVG Export Plug-In . SVG Version: 6.00 Build 0)  -->
<svg version="1.1" id="Layer_1" xmlns="http://www.w3.org/2000/svg" xmlns:xlink="http://www.w3.org/1999/xlink" x="0px" y="0px"
	 viewBox="0 0 308 488" style="enable-background:new 0 0 308 488;" xml:space="preserve">
<style type="text/css">
	.st0{fill:#ABBEED;stroke:#FFFFFF;stroke-width:0.5;stroke-miterlimit:10;}
	.st1{font-family:'TimesNewRomanPSMT';}
	.st2{font-size:16px;}
	.st3{fill:#FFFFFF;}
	.st4{font-size:24.672px;}
	.st5{fill:#9BB6EA;stroke:#FFFFFF;stroke-width:0.5;stroke-miterlimit:10;}
	.st6{fill:#C5CFED;stroke:#FFFFFF;stroke-width:1.033;}
	.st7{fill:#8BAFE8;stroke:#FFFFFF;stroke-width:0.5;stroke-miterlimit:10;}
	.st8{fill:#6899E0;stroke:#FFFFFF;stroke-width:0.5;stroke-miterlimit:10;}
	.st9{fill:#548ED3;stroke:#FFFFFF;stroke-width:0.5;stroke-miterlimit:10;}
	.st10{fill:#5586CE;stroke:#FFFFFF;stroke-width:0.5;stroke-miterlimit:10;}
	.st11{fill:#7CA7E5;stroke:#FFFFFF;stroke-width:0.5;stroke-miterlimit:10;}
</style>
<g id="tangail-1">
	<path class="st0" d="M72.5,92.6l-2.2-1.7V87l3.2-0.9l2.9-2.6l-2.1-3.3l0.4-4.1L79,69l1.7-2.2l2,2.1l3.3,1.2l4.4-1.9L90,65.3
		l2.1-0.4l-3.3-9l-3.4-4.1L81,49.4l-0.7-5.8l0.6-3.9l-1.3-3.9l1-4.6l2-1.1l-1.1-1.6l2.1-1l3.3,3l2.8,1.6l1.6-0.3l1.3,2l1.2-0.8
		L91,29.8l0.6-0.9H93l1.5,2l0.3,1.4l1.4,0.7l2-0.7L98,29l2.6-2.3l2.5,0.5l2.7,1.6l0.4-1.6l-1.6-1.1L105,25l1.8,0.3l-0.3-1.7h-1.8
		l-1,0.7l-1.7-1.8l-0.1-1.5l1-0.3l2.5,1.3l2.2-0.4l2.6-0.7l4.5,4.9l0.3,2l2.1,1l2-1h1.8l3.3,3.4v2.9l-2.1,1l0.6,1.4l2.4,0.1l1.3,2.5
		l3.9,2l3.1-1.2h2.3l0.3-1.8h1.1l0.8,1.2l2.6-1.7l0.5,7.5l-0.2,3.4l1.1,6l1.7,3.4l3.4,0.4l1.8,2.7l0.6,2.6l1.8,0.7l-0.1,1.1
		l-2.8,0.8l-2.2,1.8l-1.5,0.5l-1.1-0.4l-0.3-1.4l-1.3,0.4l-0.9,0.5l-1.3-0.7l-2.8,1.4l-2.3,0.8l2,2.8l2.7-0.6l0.9,1.3l-2.6,1.1
		l0.5,1l2.6-0.7l1.3,1l1.4-0.3l0.3-3.2l1.2-0.4l1,1.1l-0.4,3.2l0.9,1l-0.2,2.1l-1.4,0.3l-1.2-1.5l-2-0.3l-2.7,1.7l1.4,1.8l-1.1,0.9
		l-1.9-1.8l-1.7,1.3l0.5,1.7l-1.6,1.8c0,0-1.3-0.8-1.4-0.9l-0.5,0.7l0.9,1.6l-2.7,1.7l1.3,3.6l4.2,0.5l-0.1,1.3l-3.1,1.5l1,0.9
		l3.1-0.5l1.8,1.6l-0.6,2.3l-5.4,0.1l-0.9-1.8h-0.8l-1.1,1.2l-1.5-0.2l-2.4-3.5h-1.2l-1.1,1.3l-0.7,3l-1,0.6l-1.9-1.4l-1,0.1l-0.5,2
		l-1.6-0.5l0.5-3.2l-0.9-1.7l-2.8-0.1l-1-1.1l3.4-2.5l0.3-2.6l-2.6-1.6l-4.3,0.1l-2.6,1.1l-1.1-0.6l-0.5-0.8l-1.2,0.5l-1.4-1.4
		l-2.4-1.1l-2.2,0.1v-3.1l-0.3-0.9h-1.6L95.5,83l-2.1,1.4L93.3,86l-1.5,2.4l0.1,0.9l1.6,0.1l1.6,2.3l0.4,2.5l-1.7,2.2l-1.1-0.7
		L91,94.8l-2.5,1.6l-1.8-0.7l-2.3-2.2h-1.7l-1.8,2.2l-1.7-1.6l-1.6-1.2l1-2.1l-0.8-1.2L75,92l-1.2-0.3L72.5,92.6z"/>
	<path class="st0" d="M140.6,38l0.2-4.9l3.8-3.8l2.2-1l3.2-0.5l0.3-2.4l0.7-0.8l1.2,0.9l0.9-0.8l-0.2-1.3l1.2-0.5l0.9,0.8l2.8-4.3
		V16l-0.5-0.7l0.8-2.2l-0.4-1.6l2.1,0.3l2.1-1.8l0.8,0.2l0.2-1.4l0.8,0.1l0.3,1.7l3.7-0.1l2.8,1.1l3.6-2l5.4-2.1l2.5,0.6l0.8-2.3
		l0.7-1.8l1.7-0.3l1.4,0.9l3.2,4.6l1.4,0.7l0.4,2.4l2.4,3l0.3,5.3l2.2,0.6l0.1,0.9h-1.5l1.4,1.5l-3.3,0.2l-0.6,1.3l0.2,1.2l-0.5,5.1
		l0.6,1.7l3.7,0.6l15.8-1.2l3.3,2.4l-0.8,1.6l-0.8,4.4l-1.5,3.8l2.1,4.9l-0.7,2l2.5,3.3l-1.5,5.3l0.6,1.2l2.8,3.3l1.8,4.3l-0.7,1.8
		l1.5,1.4l-0.2,5.7l-0.7,1l0.6,2.6l1.4,1l1.8,1.2l0.5,2.5l-1,1.7v2.4l1.2,3l-2,5.1l0.2,1l-1.1,0.8l-1.5-0.8l-1.2,1.2v1.7l-1.2,1.7
		l-1.7-1.7l-1.6,0.9l-0.2,3.6l0.5,3.7l-1.5,3.9l-1.7,1l0.6,2l2.5,1.3l1.8,3.1l1.6,4.8l2.1,1.3l4.1-0.4l1.5,1l-0.1,1.2l-3.3,1.9
		l0.3,1.8l2.1,3.5l2.7,6.4l-1.4,0.9l-1.1-0.7l-8,6.2l-4.4,2.6l-2.5,0.4l-2.4,2.9l-2.8,2.4l-0.5,2l-1.6,1l-0.5-0.8l1.1-1l0.5-1.8
		l-0.6-1.7l0.1-2.7l-0.5-2.6l0.6-3.6l-4.3-4.7v-2.2l-1-2.1l-1.1,0.3l-0.9,1l-3-0.4l-1.5,1l-3.1-0.3l-0.5,3.3l-1.2,1.2l-3.1-1.8
		l-1.4,0.6l0.9,1.3l-0.2,3.4H181l-3.6-1.4l-3.5-3l-0.9,0.2l0.1,1.6l-2.7-0.1l-1.6-3.3h-1.9l-0.6,3l-1.5-0.2l-1-0.7l-2.7,1.2
		l-1.9,0.6l-2.3,2.1l-1.8,0.4l-6.6-4.3l-0.1-2.5l3.1-4.9l1.9-0.1l-0.2-1.4l-2.3-0.1l-2.3-0.3l-2.5,0.6l0.2,2.7l-1.4,0.5l-6.9-6.3
		l0.4-1l-2.3-1.2l4.3-6.7l0.8-1.8l-0.7-0.8l-1.3,0.8h-2.3l-1.5-0.8v-5l-2.6,0.2h-2l-1-0.6l-1.6,0.2l-1.1-0.6l-1.3-3.1l-2.9,0.9
		l-2.3,2.5l-2.8,0.2l-1.2,0.6l-2.4-0.6L113,113l-1-3l0.4-2.1l1.2,0.1l0.7,0.9l-0.5,1.5c0,0,0.4,0.7,0.5,0.7l1.3-0.6l-0.3-2.8l-1.3-2
		l1.4-5.2l2-1.1l1.5,0.5l0.5-2l1-0.1l1.9,1.4l1-0.6l0.6-2.9l1.1-1.3h1.2l2.3,3.5l1.5,0.2l1.2-1.2h0.8l0.8,1.8l5.5-0.1l0.6-2.3
		l-1.8-1.6l-3,0.5l-1.1-0.9l3.1-1.5l0.1-1.3L132,91l-1.3-3.5l2.6-1.6l-0.9-1.6l0.5-0.7l1.3,0.8l1.7-1.8l-0.5-1.7l1.6-1.3l1.9,1.8
		l1-0.8l-1.3-1.9l2.6-1.7l2,0.3l1.2,1.5l1.4-0.4l0.2-2.1l-0.9-0.9l0.4-3.2l-1-1l-1.2,0.4l-0.3,3.2l-1.3,0.3l-1.3-1l-2.6,0.7l-0.5-1
		l2.6-1.1l-0.9-1.3l-2.7,0.6l-2-2.8l2.4-0.8l2.7-1.4l1.3,0.7l1-0.5l1.2-0.4l0.3,1.3l1.1,0.4l1.5-0.5l2.2-1.8l2.9-0.8l0.1-1.1
		l-1.8-0.6l-0.6-2.5l-1.8-2.7l-3.4-0.4l-1.7-3.4l-1.1-6l0.2-3.4L140.6,38L140.6,38z"/>
	<g>
		<text transform="matrix(1 0 0 1 95.3296 64.3135)" class="st1 st2">Dhanbari</text>
	</g>
	<g>
		<text transform="matrix(1 0 0 1 146.9756 94.188)" class="st1 st2">Madhupur</text>
	</g>
	<g id="dist-gopalganj-1_2_">
		<g>
			<circle class="st3" cx="177.7" cy="61.1" r="13.4"/>
			<text transform="matrix(1 0 0 1 171.7045 68.3258)" class="st1 st4">1</text>
		</g>
	</g>
</g>
<g id="tangail-2">
	<path class="st5" d="M72.4,92.5L72,93.4l-5.8-2.9L63.7,91L63,92.3l-2.7,0.2l-0.1,1.3l2.1,3l3.5,3.1l-0.1,1.5l-1.3,0.4l-4.1-3.5
		l-0.5,2l-1.1,1.6l1.8,1.4l-1,1.1l-2.8-0.2l-0.4,1.2l1.2,1.6l-0.6,1l-2.9-1.5l-1.7,0.7l0.1,1.2l4,2.5l-1,0.7h-2.2l-0.3,1.4l-2.3,2
		l-0.1,2.1l3,2.5l-0.9,1.1l-3-0.5l-2.6,3.9l-1.2-0.4l0.1-0.9l-2-1.3l-0.2,1.4l1.2,1.4l-0.8,1.1l4.1,1.5l3.6,1.2l3.2,1.7l-0.2,1.9
		l-2.1,3l0.2,3.6l-1.5,4.2l0.7,0.9l1.5-0.8l0.9,2.9l0.2,6.4l2.3,2.6l4.8,2l5.8,0.8l-1.4-7l1.8-0.7l1.4,5.8l1-0.3v-2.8l1.4-0.2
		l-0.6-2.2l1.1-0.5l2.9,3.5l1.4-2.1l4.9,0.8l1.2-3.1l-1.1-0.8v-1.8l3.3,0.3L87,148l-1.5,3l-1.3,0.3l-0.3,2.7l1.3,0.9l-0.3,2.4
		l-0.9,1.3l-2.1,0.2l-1.2-1.1h-1.4l-0.4,2.6l0.9,2.3h2.6c0,0.1,1.7,4.5,1.7,4.5l2.2,0.4l0.3-2.2l1.7,0.4l-0.2,2.4l-1.5,3.2l1.1,1.8
		l-0.8,1.5l-2.7-0.4v3.8l-1.6,2l-2.3-0.4l-0.2,1.8l0.8,1.1l-0.5,0.9l0.6,0.7l9-5.2l1.5,0.7l2.5-1.2l1.2,1.5l1.2,0.4l4-2.6l1.6,0.6
		l2-0.9l3.2,1.2l1.9-0.2l0.1-1.6l4.2-3.3l-0.3-3.3l1.9-4.4l2.1,0.6l1.6-1.2V164l-2.1-1.4l0.6-0.9l2.6,1.5l0.8-0.8l-2.5-3l1.1-1.2
		l1,0.6l1.2-1.2l-1.5-1.3l3.2-2.3l-0.4-3.8l0.5-2.8l3.9-2.7l1.4,0.3l0.4,1.2l2.3-1.8v-2.9l1.6-0.7l1.7-1l-0.3-1l-0.9-0.1l-1.5-0.9
		l0.1-0.9l1.1-0.3l1.2,0.6l1.1-0.4l0.4-3.2l2.4-1.7l0.3-1.1l-2.2-1.1l4.2-6.7l0.8-1.8l-0.7-0.8l-1.3,0.8L137,121l-1.5-0.8v-4.9
		l-2.6,0.2l-2-0.1l-1-0.7l-1.6,0.2l-1.1-0.6l-1.3-3.1l-2.9,0.9l-2.2,2.5l-2.8,0.3l-1.1,0.6l-2.5-0.7l-1.2-1.9l-1-3l0.4-2l1.2,0.1
		l0.7,0.9l-0.5,1.5l0.5,0.7l1.3-0.6l-0.3-2.9l-1.3-1.9l1.4-5.2l2-1.1l0.2-1.5l0.3-1.7l-0.9-1.7l-2.8-0.1l-1-1.1l3.3-2.5l0.3-2.6
		l-2.6-1.6l-4.3,0.1l-2.6,1l-1.1-0.6l-0.5-0.8l-1.2,0.5l-1.4-1.4l-2.4-1.2l-2.2,0.1v-3.1l-0.3-0.9h-1.6l-1.2,2.2l-2.1,1.4l-0.1,1.6
		L92,87.9l0.1,0.8l1.6,0.1l1.6,2.3l0.4,2.5L94,95.8l-2.8-1.6l-2.5,1.6l-1.8-0.7l-2.3-2.2h-1.7l-1.8,2.2l-1.7-1.6l-1.6-1.2l1-2.1
		l-0.9-1.1l-2.7,2.4L74,91.2l-1.2,1L72.4,92.5z"/>
	<path class="st5" d="M48.2,127.2l-1,0.9l-1.4-0.6l-1,0.5l-1.4,2.6l1.5,2.2l-0.9,0.7l-1.5-1l-2.7,0.7l-6.1-0.8l-2.4-3.3l-1.5,1.7
		l-4.6,1.9l-3.2,2.1l-1.1,3.9l0.4,4l0.5,5.2l-0.8,0.4l-2-0.2l-1.3,1.3l-7.2-0.2l0.1,2.4l-2.1,0.1l0.1,1.6l2.6,0.7l-0.1,4.8l-0.9,1.1
		l-4.4-1.7l-3.6,2l1.1,1.9l5.7,3.1l2-0.1l1.1,1.2l0.4,2.3l1.5-0.2l1.7,4.1l-5.1,7.5l-0.4,1.7l1,1.6l3.7-2.7l0.9,0.2v0.9l-4.2,5
		l-0.1,0.9L8.8,188l-1,1.2l0.6,1.8l-0.6,2l-0.2,3.6l0.4,1.3l1.9,1.9l2.6,5.1c0,0,1.9,5,1.9,4.9l-1.5,9.6l2.8,9.9l1.9,4.2l4-0.3
		l4.3,1.1l3.1-1.7l4-0.5l2.7,5.3l6-0.1l0.2-2.2l2.8-0.1l2.1,1.5l1.6-1.1l0.2-3.6l2.6-0.5l-2.6-3.7l2.5-0.5l0.9,1.8l0.9-0.5l-0.4-1.5
		l3.7-0.7l1.5,0.8l2.2,2.9l3.5,1.3l2.4-1.3l1.1,0.6l0.1,2.8l6.3-2.3l-0.6-3l1-0.4l1.7,1.5h2.2l0.9-0.6l1.3,0.6l0.2,2.3l1.9,1.4
		l1.9-0.3l-0.1-2.1l-4.8-6.9l2.8-1.9l0.6-2l-1.7-5.4l1.2-1h1.4l-0.1-0.3l0.2-1.7l4.6-1.5v-3l-3.7-3.5l-0.2-3l-1.1-1.2l-0.1-5l-2-0.4
		l-1.3-2.2l-0.1-2.1l1.5-1.3l-3.2-3.9l0.2-4.8l2.5,0.3l2.2,0.3l1.6-2l0.1-3.8l2.7,0.4l0.8-1.6l-1.1-1.8l1.5-3.2l0.2-2.4l-1.6-0.3
		l-0.4,2.1l-2.1-0.4l-1.8-4.6H80l-1-2.3l0.4-2.6h1.5l1.3,1.1l2.1-0.2l0.9-1.3l0.4-2.4l-1.3-0.9l0.3-2.7l1.2-0.3l1.5-3l-2.4-1.5
		l-3.2-0.2l-0.1,1.8l1.1,0.8l-1.2,3.1l-4.9-0.8l-1.4,2.1l-2.9-3.5l-1.1,0.5l0.6,2.1l-1.3,0.3l-0.1,2.7l-1,0.3l-1.5-5.8l-1.8,0.7
		l1.4,6.9l-5.8-0.8l-4.8-1.9l-2.3-2.7l-0.2-6.4l-0.9-2.8l-1.5,0.8l-0.7-0.9l1.5-4.2l-0.2-3.5l2.1-3l0.2-1.9l-3.3-1.8l-3.2-1
		L48.2,127.2z"/>
	<g>
		<text transform="matrix(1 0 0 1 63.8096 131.1543)" class="st1 st2">Gopalpur</text>
	</g>
	<g>
		<text transform="matrix(1 0 0 1 19.4199 201.2925)" class="st1 st2">Bhuapur</text>
	</g>
	<g id="dist-gopalganj-1_1_">
		<g>
			<circle class="st3" cx="46.4" cy="165.7" r="13.4"/>
			<text transform="matrix(1 0 0 1 40.3711 172.9925)" class="st1 st4">2</text>
		</g>
	</g>
</g>
<g id="tangail-3">
	<path class="st6" d="M227.6,143.1l3.2,7.8l2.2-0.2l1.3-0.5l1,0.4l-0.5,1.6l2,5.5l0.4,4.3l1.4,0.9l0.8-2.4l3.8-1.5l1.6,1.2l1.9,4.5
		l1.7-0.1l0.6-0.6l3,2.2l1.4,0.1l1.5,0.6l1.6,1.6l-3.6,3.1l0.5,1.5l1.6,1.7l2.1-1.5l1.5-0.4l2.1,3l1.9-0.1l2.8,6.9l2.1-0.4l2.2-0.2
		l-0.2-1.6l0.8-0.2l1.7,1.6l0.9-0.4l1.3,1.7l-0.1,1l-1.5,1l-0.2,1.4l-3,0.5l-1.8,3.1l-3,1.2l-1.3,4.5l-4.6-0.3l-2.3,0.2l0.5,1.9
		l0.7,4.5h3.5l0.6,0.8l0.5,7.7l2.6,1.5l2,3.8l1,3.2l-0.4,1l-4.1-0.5l-1.1-1.8l-2.1,0.1l-2.7-1l-0.9-1.5l-1.2,0.1l-1-3.3l-1.3,0.6
		l-3.3,1.3l-3.3-1.4l-3,0.7l-2.1,0.4l-1.6-0.4l-1.3,0.5l-0.6,3.5l-1.1,0.1l-1.1,1.1H233l-4.1-0.8l-4.3-2l-5.2,0.5l-4.3,0.4l-3.7,2.3
		l-1.9-0.7l-3.3-2.6l-1.6-0.2L203,217l-3-0.2l-1.3,1.4l-6,0.2l0.1,1.5l-2.2,2l-0.6-0.6l0.8-1.2l-0.9-0.4l-1,1.2l-1.1-0.1l-1.9-0.5
		l-0.4,3.9l1.5,1.4l-0.1,1.7l-1.9,2.3l-1.4,2.6l-2.2,0.6l-1.3-0.4l-1.7-2.2l-1.2,1.1l-2-3.6l-1.6-0.6l-3.5,0.4l-1.7,1.1l-1.1-0.9
		l-0.6-3.2l-2.5,0.1l-2.1,1.1l-0.3,1.6l1.7,3l-0.5,1.9l-0.4,0.9h-1l-1.7-1.3h-1.2l-1.3,1.2h-1.5l-1.9,1.8v0.8l-0.8,0.4l-1.4-0.2
		l-0.6-3.4l-0.2-2.5l-2.5-0.3l-1.3,1.5l0.5,2.8l-2.8,0.4l-0.1-1.5l-3.4-1.6l0.3,2.7l-0.7,0.7l-1-1.6l-0.8,0.8l-0.9-0.7l-0.7,0.5
		l-0.9-0.1l0.2,2.1l-0.9,1l-2.6,0.3v0.8l-0.7,0.1l-3.2-3.7l-0.9,0.2l-0.4,2l-1.5-0.1l-2.4-3.4l-5.1,2l-1.2-0.4l0.7-1.4l-1.3-1.9
		l0.6-2l-1-1.4l-1,0.3l-0.3-1l-1.8-2.2h-0.7l-0.9,0.9v0.8l-3,1.7l-1.6,0.5h-1.2l-0.1-1l-1.4-0.4l-0.4,0.8h-1.2l0.3-4.3l-1.6-2.8
		l0.3-2.5l-0.7-0.5l-4,2.5l0.2,1.7l-1.2,0.7l-8.1-2.5l0.1-2.1l-0.8-0.5l-1.7,1l-3.4-6.1l0.2-1.8l4.6-1.5v-3l-3.7-3.5l-0.2-2.9
		l-1.1-1.2l-0.1-5l-2-0.4l-1.3-2.2l-0.1-2.1l1.5-1.3l-3.2-3.9l0.1-4.7l2.5,0.2l-0.2,1.8l0.8,1.1l-0.5,0.9l0.6,0.7l9-5.2l1.5,0.7
		l2.6-1.3l1.2,1.6l1.2,0.3l4-2.6l1.6,0.6l2.1-0.9l3.1,1.2l1.9-0.2l0.1-1.6l4.2-3.3l-0.3-3.3l1.9-4.5l2.2,0.6l1.6-1.2v-1.3l-2-1.4
		l0.6-0.9l2.6,1.5l0.8-0.8l-2.5-3l1.1-1.3l1,0.6l1.2-1.2l-1.5-1.3l3.2-2.3l-0.4-3.8l0.5-2.7l3.9-2.7l1.4,0.3l0.4,1.3l2.3-1.8v-2.9
		l1.5-0.7l1.7-1l-0.3-1l-0.9-0.1l-1.5-0.9l0.1-1l1.1-0.3l1.2,0.6l1.1-0.4l0.3-3.2l2.4-1.7l6.8,6.3l1.4-0.5l-0.2-2.7l2.6-0.6l2.2,0.3
		l2.4,0.1l0.2,1.4l-1.8,0.1l-3.1,4.9l0.1,2.5l6.6,4.3l1.9-0.4l2.3-2.1l2-0.6l2.7-1.2l1,0.7l1.5,0.2l0.6-3h1.9l1.6,3.3l2.7,0.1v-1.6
		l0.9-0.3l3.5,3l3.6,1.4l2.2-0.1l0.2-3.4l-0.9-1.2l1.4-0.7l3.1,1.7l1.3-1.2l0.5-3.3l3.1,0.3l1.6-1l2.9,0.4l1-0.9l1.1-0.3l1,2.1
		l-0.1,2.2l4.4,4.7l-0.6,3.6l0.5,2.6l-0.1,2.6l0.7,1.7l-0.5,1.8l-1.1,1l0.5,0.8l1.6-1l0.5-2l2.8-2.4l2.4-2.9l2.6-0.4l4.6-2.8l7.8-6
		l1.1,0.7L227.6,143.1z"/>
	<g>
		<text transform="matrix(1 0 0 1 166.8874 180.1873)" class="st1 st2">Ghatail</text>
	</g>
	<g id="dist-gopalganj-1_3_">
		<g>
			<circle class="st3" cx="147.4" cy="180.1" r="13.4"/>
			<text transform="matrix(1 0 0 1 141.3711 187.3258)" class="st1 st4">3</text>
		</g>
	</g>
</g>
<g id="tangail-4">
	<path class="st7" d="M17.4,233.4l4.1-0.4l4.3,1.1l3-1.7l4-0.5l1.4,2.6l1.3,2.7l6-0.1l0.2-2.2l2.8-0.1l2.2,1.4l1.5-1.1l0.2-3.6
		l2.7-0.4l-2.8-3.8l2.5-0.5l0.9,1.8l0.8-0.5l-0.5-1.5l3.7-0.6l1.5,0.8l2.2,2.9l3.5,1.3l2.4-1.3l1,0.6l0.1,2.8l6.3-2.3l-0.5-3l1-0.4
		l1.7,1.5h2.2l0.9-0.6l1.3,0.6l0.3,2.4l1.9,1.3l1.9-0.3l-0.1-2l-4.8-7l2.8-1.9l0.6-2l-1.7-5.4l1.2-1h1.4l3.2,5.8l1.7-1l0.8,0.5
		l-0.1,2.1l8.1,2.5l1.2-0.7l-0.2-1.7l4-2.5l0.7,0.5l-0.3,2.5l1.6,2.8l-0.3,4.2h1.1l0.4-0.8l1.4,0.4l0.1,1l1.2,0.1l1.6-0.5l3-1.7
		v-0.8l0.9-0.9l0.7,0.1l1.8,2.2l0.3,1l0.9-0.6l1,1.4L117,231l1.2,1.9l-0.6,1.4l1.1,0.5l5.1-2l2.4,3.4l1.5,0.1l0.5-1.9l0.9-0.2
		l3.1,3.7l0.7-0.1V237l2.6-0.4l0.9-1l-0.2-2l0.8,0.1l0.7-0.4l0.9,0.7l0.8-0.8l1.1,1.5l0.7-0.7l-0.3-2.6l3.4,1.5l0.1,1.5l2.8-0.4
		l-0.5-2.8l1.3-1.5l2.5,0.3l0.3,2.5l0.6,3.4l1.4,0.3l0.8-0.4l-0.1-0.8l1.9-1.8h1.5l1.3-1.2h1.2l1.7,1.3h1l0.4-1l0.5-2l-1.7-3
		l0.3-1.6l2.1-1.1h2.5l0.6,3.2l1.1,0.9l1.7-1l3.5-0.4l1.6,0.7l2,3.6l1.2-1.1l1.7,2.2l1.3,0.4l2.2-0.6l1.3-2.6l1.9-2.4l0.1-1.7
		l-1.5-1.4l0.4-3.9l1.9,0.5h1.1l1-1.2l0.9,0.3l-0.7,1.2l0.6,0.6l2.2-2l-0.1-1.5l6-0.2l1.4-1.4l3,0.2l1.6,5.6l3.6,1v1.2l-0.8,0.4
		l-4.7-1l-0.2,2.3l-2.8,0.6l0.8,4.4l-1.2,1.8l0.2,2.1l-2.2-0.5l-1.4,0.6l-3.1,4.1l-2.2,0.9l-3.2,0.4l-1.1,0.8v1.1l3.4,3.5l1.5-1.4
		l2.1-0.4l2.9,0.8l1.4,3.2l-0.6,1.8l2.3,3l-0.2,1.2l-1.6-0.6l-2.3,1.6l-4.5,0.2l-4.5-0.8l-2.6-1l-0.9,0.9l1.5,2.4l-1.9,3l-1.8-0.5
		l-0.7,1.6l-1.6,1.6l1.2,1.5l2.4,0.9v0.8l-2.4,0.1l-2.6-1.4l-1.5,0.5l0.4,3.3l-0.8,1.1l1.5,1.2l2.9-0.4l2,1.6l0.2,1.7l3.5,1.8
		l-0.2,2.1l-0.9,0.4l0.7,2l-1.3,1.5l-2.2-0.1l0.6,4.8l-3.4,1.3l-0.4,2l-2.4-0.3l0.2-2c0,0,0-1.4-0.1-1.6c-0.2-0.2-2.3-1.8-2.3-1.8
		l-2,1.7l-2.1,0.8l-0.9,4.2l-3.2,4l-0.7,0.8l-1.7-1.2l-2-1.6l-4.4-2.2l-1.7-1.8l-2.4,0.2l-1.5-1l-1.7,0.5L148,290l0.4,2.4l-4.3,3.2
		l-1.4,1.3l-3.7,0.4l-1.1-2l-3.2-0.3l-1.3-2.1l-1.3,0.8l-4.1,1l-0.7-3.2l-2.3-0.2l-2.6-1.5l-1.6,0.3l1.4,5.9l-0.9,1l-3.5-1.2
		l-1.5,0.8c0,0-1.5-1-1.4-1.1c0.1,0,0.1-1.7,0.1-1.7l-7.2-3.9l-0.9-2.8l-1.5-3.1l-3-0.1l-1.5,1.1l-1.6-2.5l0.6-3.4l-0.7-2.4
		l-1.8-0.4l-0.2-1.9l-4.3-1.8l-2.8,1.4l-3.4-0.1l-0.8-3l3.7-4.7l0.4-1.5l-2.6-4.2l-3.7,1.5l-0.3,3l-2.2,1.7l-0.9-1.6l-2.8,1.2
		l-2.7-1.7l-1.4,0.9l0.9,2.5l-1,0.5l-6-1.6l-2.1-2.2l-1.7,0.2l-5.3,3.3l-1.3-0.6l-0.4-4.1l-2.3-2.8l-4,0.9l-1.6-0.9l-0.3-4.2
		l-2.1-2.2l-5.4-2l-1.9,0.2l-2.2,1.9l1.6,3.6l-0.5,5.3l-1.3,1.9h-2.2l-1.8,1.4l-4-0.2l-6.5-2.1l-4.5,0.6l-4.3-2.5l-1.8-4.3l1-5.2
		l3.2-3.6l3.4-4l1.3-3.4l-1.5-4.4l-1.1-2.8L17.4,233.4z"/>
	<g>
		<text transform="matrix(1 0 0 1 77.5218 255.681)" class="st1 st2">Kalihati</text>
	</g>
	<g id="dist-gopalganj-1_4_">
		<g>
			<circle class="st3" cx="145.8" cy="259.8" r="13.4"/>
			<text transform="matrix(1 0 0 1 139.7878 267.0758)" class="st1 st4">4</text>
		</g>
	</g>
</g>
<g id="tangail-5">
	<path class="st8" d="M17.5,264.9l4.7,4.2l1.3,5.3l-0.7,8l0.9,4.7l2,2.4l3.8,2.6l1.9,5.2l0.4,7.2l-0.9,7.5l-2.4,4.8l0.6,6.1l2,14.2
		l4.6,16.3l1.9,6.5l0.1,1.8l-1.2,1.8l1.2,1l4.5-0.2l0.2,2.3h1l0.2-1.4l4.4-0.1l1.7,2.4l3.2,2l5.8,1.4l5.5,1.3l1.2-1.3l1.2,0.2
		L68,372l2.1-0.9l0.4-2.9l-2.3-1l0.5-1.6l4.5-1.5l4.8,0.8l4.7,1.4l3,1.7h2.1l1-1l-1-3.5l-3.1-5l0.5-3.5l1.4-1.8l0.4-8.6l2.1-1.1
		l0.9-5.3l3.5-1.7l1.9,0.9l2.9-1.9l3.7,3.4l2.5-0.5l3.6,2.7l1.6-1.4l-5-6.3l1.6-2.2l2.1,0.8l1.7-2.2l2.4-0.8l3,0.9l-0.7,2.5l1.3,2.3
		l2.1,0.1l1.4,1.8l-1.6,0.6l-0.1,5.4l-2.5,3.1l0.3,1l1.8,1l7.6-4.7l2,0.3l1.5,1.2l1.4-1.2l-1.4-2.5l2-1.9l0.3-1.8l1-0.3l2.8,1.1l1-1
		l-0.9-2.1l1.3-2.3l-0.2-1.5l-0.9-1l0.3-2.3l-1.6-1.1l0.2-3.4c0-0.1,1.3-2.4,1.3-2.4l0.7-3.5l-0.6-1.8l-1,0.7l-1.1-0.6l-0.3-1.8
		l-1.1-1.5l1.1-3.7l-3-3.6l0.1-1.3l-1-0.8h-1.4l-3.3-3.8c0,0,1.1-1,1.2-1s4,4,4,4l1.6-0.3l0.2-2l-1.5-0.9l-2,0.2l0.5-2.2l-1-2.5
		l-0.7-3.1l-2.3-0.2l-2.7-1.5l-1.5,0.3l1.4,5.9l-0.9,1l-3.5-1.3l-1.5,0.8l-1.4-1l0.1-1.7l-7.3-3.9l-0.8-2.8l-1.5-3.2l-2.9-0.1
		l-1.5,1.1l-1.6-2.5l0.6-3.4l-0.7-2.4l-1.8-0.4l-0.3-1.9l-4.3-1.8l-2.7,1.4l-3.4-0.1l-0.8-3l3.6-4.7l0.4-1.6l-2.6-4.2l-3.7,1.5
		l-0.3,3l-2.2,1.6l-0.9-1.6l-2.7,1.3l-2.7-1.8l-1.3,0.9l0.9,2.5l-1,0.5l-6-1.5l-2.1-2.3l-1.7,0.2l-5.2,3.3l-1.3-0.5l-0.4-4.1
		l-2.3-2.8l-4,1l-1.6-0.9l-0.3-4.2l-2.1-2.2l-5.4-2l-1.9,0.2l-2.2,1.9l1.5,3.6l-0.4,5.3l-1.4,1.9h-2.2l-1.8,1.4l-4-0.2l-6.5-2.2
		l-4.2,0.6L17.5,264.9z"/>
	<g>
		<text transform="matrix(1 0 0 1 49.9758 323.3382)" class="st1 st2">Tangail</text>
	</g>
	<g id="dist-gopalganj-1_7_">
		<g>
			<circle class="st3" cx="64.6" cy="290.5" r="13.4"/>
			<text transform="matrix(1 0 0 1 58.6211 297.7425)" class="st1 st4">5</text>
		</g>
	</g>
</g>
<g id="tangail-6">
	<path class="st9" d="M37.7,362l-3.8,0.8l-4.5,0.2l-2.8,1.7l-0.1,2.8l1.9,2l2.4,1l3.2-0.3l4.1-1.5l1.2,0.6l1.4,4.4l2.5,4.5l2.1,0.2
		l2.6,1.6l-2.1,5.5l0.2,13l0.2,3.2l1.2,3.1l2.4,4l0.7,4.7l-1.3,6.9l-2.3,4.4l-2.9,3.5l-7,5.7l-1.2,2.6l-2.6,2.1l-5,0.6l0.6,4.1
		l1.4,2.8l-1,7.8l-0.4,3.9l-2.6,4.3l-3,6.8l1.3,1.3l-0.7,1.7l-4.2,2.8l-2.2,1.3l-0.2,1.2L18,478l3.4,0.6l1.1,2.1l1.8-0.7l0.4-1.8
		l3.5-2l0.9-3.8l1.7-0.9l3.2,0.7l-0.7,4.2H35l3.1-0.3l1.7,1.3l0.4,2.8l3.8,0.5l-0.2-3.4l2.3-0.5l0.3-2.1l1.6-0.4l3.7,1.3l0.2,1.4
		l4.6,0.9l2.5,2.7l0.2,2.3l0.9,0.8h1.1v-2.4l2.5-0.1l2.5,4.2l3.7-0.6l4.3-3.3l-0.2-1l-1.8-1.4v-1.3l2.1-0.9v-3.2l-1.7-1.1l-0.4-3.2
		l2.1,0.2l1.5-0.6l0.5-1.3l2.2,0.1v4.9l1.5,0.8l-0.8,1.4l0.4,3.9l1.2,0.9l0.3,2l4.3,0.5l1.3-0.2l0.6-1l-0.6-1.1l-1.8-1.3l0.2-2.1
		l2.8-1.9l-0.1-2l3.6-0.2l2.2-1l-0.2-2.8l0.9-2.9l1.3-0.8l0.5,0.8l-1.1,2l1.2,0.4L98,468l2.2-1.8l0.8-1.9c0,0,1.6,0.5,1.6,0.4
		s1.2-2.2,1.2-2.2l4.4-1.7l3-0.7l0.6,0.7l-3.1,3.1l-1.2,1.9l-0.1,1.1l1.6,0.2l1.9-2.5l1.3-3l1.1-0.1l2.1,0.7l1.3-0.1l0.3-1.1
		l-2.8-1.3l-0.4-1.3l-1.2-0.4v-1.8l1.1-0.6l0.2-1.9l2.5,0.8l0.8-0.5l-0.4-1.7l0.1-4l1.1-0.9l0.9,1.2v2.4l2.3,1l0.3,1.6l1.5,1.6
		l1,0.9h3.3l0.8-3.8l-0.3-5.4l1.2-0.8l2.2,0.6l0.7-1.5l-2.2-1l0.7-1.2l2.3,1.1l2,1.1l-0.1,3.8l2.8,2.4l0.4,2.8h-4.6l-0.8,0.9
		l0.1,1.5l1.3,1.6l4.6,0.6l2.8,3.3l-1,1.6l1.3,0.9l1.7-1.5l3.6,0.6l3.1-0.4l0.7-1.4l-1.8-3l0.9-1.7l-0.2-1.4l-1.3-0.4l-0.2-1.3
		l2.3-0.4l1.9,0.7l1.7-1.2l1-2.5l-0.1-1.1l1.2-0.3l-1.4-1.9l0.1-1.2l-1.1-0.7l-2.1,0.1l-0.6-1.6l0.1-1.6l1.4-1.6l-0.1-0.8l-1.1,0.1
		l-1.3,1.6l-1.5-0.2l-0.1-2.3l-1.5-2.6l-1-3.5l-1.6-2.3l-2.1,0.2l-1.4,3.7l-5.8-2.7l-0.1-2.9l-1.9-2.2l0.7-4.5l-0.9-0.5l-2.7,3.7
		l-2.2,3.6l-1.7,1.8l-0.5-0.1l-0.3-0.7l1.6-1.8l0.7-1.2l0.4-5.8l-0.6-1l-1.7,0.1l-0.7,1l-2.8-0.5l-1.7,2.3l-1.3-0.6l-3.5,2.3
		l-1.5-0.4l-2.5,4.2l0.2,2.8l-0.4,0.8l-1.3-0.4l-1.2-1.1v-3.4l-1.5-0.4l-2.4,1l-1,0.4l-0.7-0.8v-3.3l-1.3-1.1l-1.8,0.1l-2-1.2V417
		l1.3-2.2v-1.4l-2.8-0.2l0.6-9.4l-2,0.3l-3.4-1l-4.1-0.3l-1.3-1.8l-1.3-5l-2.4-1.5l-1.1-1.4l-1.8,2.2l-2.4-0.1l-3.2,1.6l-1.6-3.7
		l-2.6-0.1l-0.2-1.3l2.9-1.4l1.1-3l-1.2-1.9l-4.3-0.7l-4.2-0.3l-2.8-0.8l0.1-1l1-0.8l2.5,0.2l0.6-0.9l-1.6-2.6l0.9-2.8l1.7-4.6
		l-1.3-0.1l-1.2,1.4L53,369.6l-3.2-2l-1.7-2.4l-4.4,0.1l-0.2,1.4l-1,0.1l-0.2-2.3l-4.4,0.2l-1.2-0.9L37.7,362z"/>
	<path class="st9" d="M130.5,343.5l1.5,2.7l0.3,3l0.7,0.7l1.9-1.4l0.5,0.7v1.3l-3,0.8l-1,3.1l0.6,4.8v1l1.7,0.5l1.1-1.3l2-0.3
		l2.5-3.6l2.3,0.2l2.4,3.2l0.8-0.1l1,1l1.1-0.3v-0.9l0.6-0.1l1.3,1.4l2.5-0.5l-1.1-2l1.7-0.9l4.7,4.7l-0.2,1.5l1,0.7l2.9,0.4
		l0.5,2.3l-1.5,3.2l-3.7,4.1l-1-0.4l-1.5,1l-2.7-2l-3,1.5l1.5,2.1l-2.5,1.3l-0.1,3.2l1.6,1.1v1.3l-0.9,1l0.3,4.4l-1.4,1.3l-2.6-0.2
		l-2.9,3.9l-2-1.7l-1.5,2.1l-4.1-1.7l-2.4,0.8l0.8,3.3l-0.6,3.5l-4.6,4.4l1.1,2.5l4.6-0.1l2.4,1.7l0.2,2l-1.6,2.3l0.7,2.3l-1.1,1.3
		l0.6,0.8l3.1-0.9l1.1,0.8l-0.1,2.6l-3.6,1.6l-0.5,1.8l-2.7,3.7l-2.2,3.6l-1.7,1.8l-0.5-0.1l-0.3-0.7l1.6-1.8l0.7-1.2l0.4-5.8
		l-0.6-1l-1.7,0.2l-0.7,1l-2.8-0.5l-1.7,2.3l-1.3-0.6l-3.5,2.3l-1.5-0.4l-2.5,4.2l0.2,2.8l-0.4,0.8l-1.4-0.4l-1.2-1.1v-3.5l-1.5-0.4
		l-3.3,1.4l-0.7-0.8v-3.3l-1.3-1.1l-1.8,0.1l-2-1.2v-5.3l1.2-2.2v-1.4l-2.8-0.2l0.6-9.4l-2,0.3l-3.4-1l-4.1-0.3l-1.3-1.8l-1.3-5
		l-2.4-1.5l-1.1-1.4l-1.8,2.2l-2.4-0.1l-3.3,1.6l-1.5-3.7l-2.6-0.1l-0.2-1.3l2.9-1.4l1.1-3l-1.2-1.9l-4.3-0.7l-4.1-0.3l-2.8-0.8
		l0.1-1l1-0.8l2.5,0.2l0.6-0.9l-1.6-2.6l2.6-7.3l1.4,0.8l2.1-0.9l0.4-2.9l-2.3-1L69,366l4.5-1.6l4.8,0.8l4.8,1.5l3,1.7h2.1l1-1
		l-0.9-3.5l-3.1-5l0.5-3.5l1.4-1.8l0.4-8.6l2.1-1.2l0.9-5.2l3.5-1.7l1.9,0.9l2.9-1.9l3.7,3.4l2.5-0.5l3.6,2.7l1.6-1.4l-5-6.3
		l1.6-2.2l2.1,0.8l1.8-2.2l2.3-0.8l3,0.9l-0.7,2.5l1.3,2.2l2.1,0.2l1.4,1.8l-1.6,0.6l-0.1,5.4l-2.5,3.2l0.3,1l1.8,1l7.6-4.7l2,0.3
		l1.5,1.2l1.2-1L130.5,343.5z"/>
	<g>
		<text transform="matrix(1 0 0 1 84.6782 384.6016)" class="st1 st2">Delduar</text>
	</g>
	<g>
		<text transform="matrix(1 0 0 1 48.8291 445.5039)" class="st1 st2">Nagarpur</text>
	</g>
	<g id="dist-gopalganj-1_8_">
		<g>
			<circle class="st3" cx="102.4" cy="413.1" r="13.4"/>
			<text transform="matrix(1 0 0 1 96.4544 420.4091)" class="st1 st4">6</text>
		</g>
	</g>
</g>
<g id="tangail-7">
	<path class="st10" d="M273.8,357.2l-0.2,2.2l-2.5,2.7l-1.4,3.3l-3.4,3.7v7l-3.7,4.8l-0.6,4.5l-0.8,2.4l0.8,3.7l6.7,7.1l0.4,2.1
		l-1.1,2.7l-1.7,1l-6.7,0.6l-2.6,2.2v2l-1.9-0.6l-3.5,0.6l-0.7-2.6l-2.3-1.3l-3.3,1.7l-2.1-0.4l-1.2-3.3v-1.2l-3.9-1l-0.5,1.9
		l0.2,5.3l1.2,1.2l2,2.1v5l-1.9,1.7l1.4,2.3l-1,0.5l-1.9-1.6l-0.7,2.5l-2,0.7H234l-0.4,2.1l-2.8,1.7l-1.2-0.2l-0.3,0.9l1.1,0.8
		l0.1,3l1.5,1l-1.1,1.8L229,433l-3.5,1.1c0,0,0.2,4.5,0.1,4.5c-0.1,0-2.2,1.9-2.2,1.9l1.1,3.9l-1,1.2l-1.9-0.9l-2.9-0.4l-1.3,1.2
		l-2.3-0.3l-1.7,0.1l-3.2,2.8l-1.4-0.4l0.2,1.9l-1.1,0.5l-1-0.9l-4-0.1l0.2,5.6l-1.2,0.3l-1.3-1.2h-1.7l-4.9-5.7v-1.2l-2-2.7l-3-0.4
		l-0.1-2.8l-5.2-0.4l0.8,3.7l-2.3,1.7l-2.2-3.4l-1.2,0.7l0.3,3.3l-1.1,1l-2.6-0.4l-4.5,0.7l-3.7,0.3l-1.1,1.1l-1.5,0.1l-3.5,2.5
		l-3,1.1l-0.8-0.7L157,451l-1.4-0.6l-0.1-2.4l1.9,0.6l2.6-1.6l-0.3-2.3h-4.5l-0.9-4.1l0.8-1.2l-1-0.8l-0.9,1.2l-2.3,0.3l-1.3,1.6
		l-1.5-0.2l-0.1-2.3l-1.5-2.6l-1-3.5l-1.5-2.4l-2.1,0.2l-1.4,3.7l-5.8-2.7l-0.1-2.9l-1.9-2.2l0.7-4.5l-0.9-0.5l0.5-1.8l3.6-1.6
		l0.1-2.6l-1.1-0.8l-3.1,0.9l-0.6-0.7l1.1-1.4l-0.7-2.3l1.6-2.3l-0.2-2l-2.4-1.7l-4.6,0.1l-1.1-2.5l4.6-4.3l0.5-3.5l-0.8-3.3
		l2.4-0.8l4.1,1.7l1.5-2.1l2,1.7l2.9-3.9l2.6,0.2l1.4-1.2l-0.3-4.5l0.9-1v-1.3l-1.6-1.1l0.1-3.2l2.5-1.3l-1.6-2.1l3-1.5l2.7,2l1.5-1
		l1,0.4l3.7-4.1l1.5-3.2l-0.5-2.3l-3-0.4l1.2-2.8l1.2-1.2c0,0,1.4,0.3,1.5,0.4l-0.1,2.1l3.4-0.6l4.1-1.9l0.2-0.9l-1.3-0.9l-0.1-4.3
		l2.5-1.3l2.9-0.3l1.3,2l0.6,3.8l-0.5,1.6l0.6,6.2l1.7,1.3l1.1-0.7l-1.1-1.2l0.3-4.7l9.8-0.6l1.2,0.9l1.2,3.9l2.1,1.7l1.3,2.3
		l3.2-0.2l2.3-1.3l0.4-2.3l-1.2-1.3l0.7-0.9l3.9,2.9l2.1-0.1l3.9-3.2l-0.9-1.3l3.2-2.1l-0.7-1.1l-3,1.9l-0.8-1.3l2.2-1.3l3.6-1.7
		l1.4-4l2.6-2.5l1.9,0.6l3.9-1.3l4.6,0.7l8.4-6.2l7.9,0.3l4.2-2l5.5,0.1l0.5-0.8l-0.7-1.6l2-2.2l1,0.6l-0.2,1l1.9,0.6l1.3-1.5
		l4.8-0.1l0.4,1.2l-1.2,2.1l-1.4-0.5l-0.8,0.8l1.3,1.5l-0.6,2.8l0.6,1.1l2.9-0.4l3.2,2.3l2.9-1.6l1.5,0.6l0.2,5.1l0.8,3.9l1,1.8
		L273.8,357.2z"/>
	<g>
		<text transform="matrix(1 0 0 1 167.541 419.1748)" class="st1 st2">Mirzapur</text>
	</g>
	<g id="dist-gopalganj-1_6_">
		<g>
			<circle class="st3" cx="197.4" cy="388.8" r="13.4"/>
			<text transform="matrix(1 0 0 1 191.4544 396.0758)" class="st1 st4">7</text>
		</g>
	</g>
</g>
<g id="tangail-8">
	<path class="st11" d="M267.9,219.4l2.6,0.2l2.5,1.9l0.7,1.9l1.4-0.1l2.7-2l0.9,1l-1,1.9l-4.8,18.9l-5.6,18.3l2.8,6.4v2l3.3,0.8l3-1
		l0.8,0.9L277,273l2.2,5.1l1.1,1.5l0.2,1.9l2.1,3.2l0.6,2.2l-1.1,4.4l2.4,3.4l2.2,1.9l1.9,0.1l1.9,1.1l2.5,0.1l1.2-0.7l1.4,1.9
		l1.5,0.1l0.8,1.6l-0.3,1.8l1.4,1.1l1.7-0.4l0.8,0.9l1.5,0.1l-0.3,1.8l1.5,0.7l0.2,3.6l-0.9,0.3l-0.8-0.4l-0.2,1.8l1,0.6l1,3.6
		l-1.1,0.7l-1.7,3l-2.4,1.7l-1.2,2.3l0.9,8l-0.8,2l-2.3,1l-1.6,1.8l-4,0.4l-4.1,2.4l0.4,0.9l-0.6,2.2l-1.7,1.1l-1.8,0.1l-0.6,2.9
		l-1.7,1.7l-3.4,0.4l-0.8,2.2l1,1.8l0.2,3.1l-2.5,1.1h-1.9l-1-1.8l-0.8-3.9l-0.3-5.1l-1.4-0.6l-2.9,1.6l-3.2-2.3l-2.9,0.5l-0.6-1.2
		l0.6-2.8L259,340l0.8-0.8l1.4,0.5l1.1-2.1l-0.4-1.2h-4.8l-1.3,1.5l-1.9-0.6l0.2-1l-0.9-0.6l-2,2.2l0.7,1.6l-0.5,0.8l-5.5-0.2
		l-4.2,2l-7.9-0.3l-8.4,6.1l-4.7-0.7l-3.9,1.3l-2-0.5l-2.6,2.4l-1.4,4l-3.7,1.8l-1.3-2l1.8-1.1l-1.5-0.8l-1.9-2.7l-1.9,0.8v-1.1
		l1.4-1.6l-0.2-2.4v-2.4l-1.4-1.7h-2l0.1-1.2l-1.5-0.7l-0.8-1.9l-1.5-0.4l-1.9,1.1l-0.6-1.1l1.4-1.1l-1.6-1.2l1.5-4.2l-1.4-1.2
		l2.6-2.1l1.5,0.6l0.8-1.8l-1.9-2.3l0.8-1.1l2,1.1l1.6-0.6l0.1-1.3l-2.9-1.3l2.9,0.3l0.2-1.5l-3-0.6l-0.3-2.8l0.9-1.9l-1.2-0.9
		l-1.8,2.6l-2.5-1.4l-2.6,2.6c0,0-0.9-0.9-1-1c0-0.1,1.8-2.7,1.8-2.7l-0.6-1.2l-2,1.2l-1.6-0.6v-1.3l-1.8-0.8l0.7-1.3l2.1,0.3
		l2.8-1.4l1.5-1l-0.2-1h-1.3l-1.7,1l-0.2-3.4l1.3-1.1l0.9-2.6l-0.8-0.4l-1.3,1.4l-0.8-0.5l1.4-1.9l-0.2-1.5l-1.6-0.8l-1.4,0.3
		l-0.3,2.5l-2.3-0.1l-1,1.7l-0.7-0.5l-0.4-4.3l2-0.7l1.9-3.6h-3.4l1,2l-0.7,0.8h-1.9l-3.9-0.4l-0.9-1.7l2.3-2.2l-0.2-0.9h-1.4l0.4-2
		l3.4-1.3l-0.6-4.8l2.3,0.1l1.4-1.5l-0.8-2l1-0.4l0.2-2.1l-3.5-1.8l0.1-1.4l-2-1.6l-3,0.4l-1.5-1.2l0.8-1.1l-0.4-3.3l1.6-0.5
		l2.6,1.4l2.4-0.1l0.1-0.8l-2.4-0.9l-1.2-1.5l1.6-1.6l0.8-1.7l1.8,0.5l1.9-3l-1.5-2.4l0.9-0.9l2.6,0.9l4.5,0.8l4.5-0.1l2.4-1.6
		l1.6,0.6l0.2-1.2l-2.3-3l0.7-1.8l-1.4-3.2l-2.9-0.7l-2.1,0.4l-1.4,1.5l-3.4-3.5v-1.1l1.1-0.8l3.2-0.3l2.1-0.9l3.1-4.1l1.4-0.6
		l2.2,0.5l-0.2-2.2l1.2-1.8l-0.8-4.5l2.8-0.6l0.2-2.3l4.7,1l0.8-0.4v-1.2l-3.6-1l-1.6-5.7l1.8-1.1l1.6,0.2l3.2,2.6l1.9,0.7l3.7-2.3
		l9.5-0.9l4.3,2l4.1,0.8h2.6l1.1-1.1l1-0.1l0.6-3.5l1.3-0.5l1.6,0.4l5.1-1.1l3.3,1.4l3.3-1.2l1.3-0.6l1,3.2h1.2l0.9,1.4l2.7,1l2-0.1
		l1.1,1.8l4.1,0.5L267.9,219.4z"/>
	<g>
		<text transform="matrix(1 0 0 1 203.3965 292.2646)" class="st1 st2">Shakhipur</text>
	</g>
	<path class="st11" d="M128.2,294.6l5-1.8l1.1,2l3,0.1l1.8,2.5l4.6-1.3l4.7-3.8l-0.7-4.2l3-1.2l2,1.7l1.5-0.4l6.9,4.5
		c0,0,2.9,2.3,3,2.3s3.6-4.6,3.6-4.6l1.3-4.7l2.1-0.4l0.4-1.5l1.7-0.7l2,2.8l-0.2,2.6l0.9,0.9l3.2,0.1l-0.3,1.5l-2,1.2l0.7,2.1
		l6.9-0.1l-1.5,1.8l0.2,4.5l2.1-1.8l1.8,0.2l0.3-2.5l2.2-0.1l1.1,1.3l0.1,1.1l-1.6,1.8l1,0.4l1.5-1.4l0.3,1.1l-1.2,2.7l-0.8,0.6
		l-0.2,2.9l3.2-1l0.3,1.8l-6.8,2.4l1.5,1.3v1.1l1.3,0.5l2.2-1.1l0.7,1.6l-2,2.1l0.7,1h1l1.3-1.8l1.3-0.1l1.8,1l2.2-2.6l1.2,0.9
		l-0.8,1.8l0.2,3l3.2,0.9l-0.9,0.7l-1.6-0.2l-0.1,0.5l2.3,1.3l-0.7,1.8l-3.3-1.1l-0.6,1.2l1.7,1.6l-0.2,1.9l-1.9,0.1l-1.2,1.5
		l-1.3,0.1l1.4,2.1l-1.9,3.9l1.6,0.9l-1.4,1.5l0.9,1.1l2.3-1.8l4,4.4l1.7,0.4l1.1,1.6l-0.1,3.1l0.4,1.5l-2,1.4l0.5,0.9l1.8-0.8
		l1.4,2.4l2,1.3l-1.5,1l0.6,2.2l-1.6,1.5l0.6,1.1l3.5-2l0.2,0.8L207,360l0.8,1.3l-2,2l-2.9,1.1l-1.9-0.5l-2.2-2.2l-1.2,0.2
		c0,0,0.4,1.6,0.5,1.7s0,2.2,0,2.2l-3.4,1.6c0,0-2.1,0-2.1-0.1c-0.1,0-4-4.5-4-4.5l-0.9-3.8l-5.9,0.1l-1.5-0.6l-3.1,0.6l-0.5,3.1
		v1.7l1,1.1l-1.4,0.7l-1.8-1.9l-0.1-6.8l0.5-1.4l-2.1-4.8l-2.7,0.3l-3.1,1.4l0.3,4.2l1.3,1.1l-0.3,1.2l-2.9,1.5L161,361l-0.1-1.7
		l-1.2-0.4l-1.5,1.5l-0.8,2.2l-1.1-0.2l0.4-1.7l-5.2-4.5l-1-0.1l-0.4,0.7l0.9,1.1l0.2,1l-0.6,0.2L148,359l-1.5,0.3l-2-0.9l-2.8-3.1
		l-2.3,0.1l-2.1,3.2l-2.4,0.4l-1.6,1.4l-1.5-0.6l-0.2-6.4l0.9-2.2l1.8-0.4l0.9-0.5l-0.2-1.9l-2,1.5l-0.6-0.8l-0.5-3.2l-1.9-2.8
		l-0.8-2.1l2-2l0.1-1.3l1.2-0.6l2.9,1l0.6-0.7l-0.5-2.6l1.2-1.8l-1.1-5.6l-1.6-0.6l0.7-4l2-5.4l-0.8-1.7l-1.8,1.1l-1.4-4.3l0.9-4
		l-3.1-3.1l-0.6-2.2h-1.4l-3.2-3.1l-0.3-1.3l0.8-0.8l3.5,4.2l1.4,0.5l1.3-1.5l-0.1-1.7l-3.6-0.2l0.7-2.9L128.2,294.6z"/>
	<g>
		<text transform="matrix(1 0 0 1 146.3096 328.833)" class="st1 st2">Basail</text>
	</g>
	<g id="dist-gopalganj-1_5_">
		<g>
			<circle class="st3" cx="232.4" cy="260.5" r="13.4"/>
			<text transform="matrix(1 0 0 1 226.4544 267.7425)" class="st1 st4">8</text>
		</g>
	</g>
</g>
</svg>
