<?xml version="1.0" encoding="utf-8"?>
<!-- Generator: Adobe Illustrator 25.2.1, SVG Export Plug-In . SVG Version: 6.00 Build 0)  -->
<svg version="1.1" id="Layer_1" xmlns="http://www.w3.org/2000/svg" xmlns:xlink="http://www.w3.org/1999/xlink" x="0px" y="0px"
	 viewBox="0 0 400 260" style="enable-background:new 0 0 400 260;" xml:space="preserve">
<style type="text/css">
	.st0{fill:#9BB6EA;stroke:#FFFFFF;stroke-width:0.5;stroke-miterlimit:10;}
	.st1{font-family:'TimesNewRomanPSMT';}
	.st2{font-size:16px;}
	.st3{fill:#FFFFFF;}
	.st4{font-size:24.672px;}
	.st5{fill:#ABBEED;stroke:#FFFFFF;stroke-width:0.5;stroke-miterlimit:10;}
</style>
<g id="rajbari-1">
	<path class="st0" d="M166,74.6h-3.7l-2,8.9l7.5,2.4l-0.7,2.2l-1.5,0.8l-4.6-0.6l-2.6,1.3l1.7,1.4l-0.5,1.2l-1.6-0.4l-0.2,1.5
		l-1.8,0.1l0.3,2.6l2.3-0.2l-0.1,2.5l0.5,1.5l-0.8,2.5l3,1.7l0.9,1.8l-1.6,1.7l3,1.4l4.5-0.3l3.3,1.4l1.9,2.8l1.2,0.6l1.3,1.8
		l1.2,0.1l1.8,3l2.3,1.9l0.1,2.1l3.5,1.5l2.7-1.2l2.3,0.9l0.1,2.6l0.8,0.5l3.1-3.2l3.2,0.1l-0.7,3.2l-1.6,2l3.6,2.9l2.9-0.1l1.9-0.9
		l1.2,0.7l1.4,0.8l-1.1,1.4l0.3,1.4l1.4,0.5l0.8-0.8c0,0,1.5,2.3,1.5,2.4l0.4,2.7l-0.7,2.1l0.6,2.5l-0.4,7l2.2,2l0.5,1.7l2.1,3.5
		l-0.5,2.1l-1.9,1.1l0.4,2.9l2.1,1.9l1.3,6.2l2.4,3.3l2.3-1.8l1.6,1.7l1.8,0.2l-0.2,3.7l1.4,3.8l-1,1.2l-1.6-0.5l-2,0.8
		c0,0,1.1,4.6,1.1,4.7s1,1.9,1,1.9l4.6,2.5l6.6,2.1l2-1.9l1.5-0.1l3.4,6.2h2.8l2.8-2.1l2.2,0.1l0.1,5.6l3.4,0.7l1.2,1.8l-0.5,2.3
		l1.2,4.8l3.2,2.2l3.1,0.9l-0.9,2.5l0.6,4.7l0.8,0.2l0.2,1.4l-0.3,1.1l2.6,5l0.3,2.7l1.3,1.4l-1,2.9l0.2,2.2l-1,0.6l0.4,2.5l2.2,0.1
		l0.3,1.8l3.6-0.6l2.6-1.4l2.3,1.3l1.2-0.9l0.3-1.6l2.3-1.4l5.3,0.1l0.9,1.4l2.3-0.3l1.1-1.8h1.5l0.2,1.8l1.9-0.1l0.2-2l-0.8-3.6
		l0.7-0.8l3.9,1l-0.1,3.9l1.2,3.5l2.7,1.3l1.1-0.1l-0.1,1.3l3.3,1.6l8.8-2.1l-0.7-2.2l0.8-0.7l-1.5-0.3v-1.7l2.4,0.7l2.1-1.2l2.1,1
		l1.2-0.9l1.3-2.5l0.2-2.4l-1.8-1.8V232l-1.4-1.8l-1.6-0.2l-2-3.6l-3-0.3l-1.6-1.5l-0.3-1.1l-2.3-0.8l-1.4-2L301,219l-0.1-4.1
		l-0.3-3.6l-1.6-0.5l2.1-3.2l2.2-2.8l-0.9-6.4l-0.9-7.6l-1.5-4.7l-0.2-3.1l-4.4-2.1l-0.8-2.1l2.8,0.9l2.4-1.4l1.2-3.1h1.9l2.1,5.6
		l1.5,2.8l1.6,0.5l2.5-0.9l4.9,0.1l2.6,0.7l1-1.2l-0.5-6.3l-2.8-0.8l-0.9-3.7l-1.5-1l-0.4-2.4l-2.5-5.5l-2.6-1.1l-5-4.9l-3.2-0.1
		l-3-1.1H293l-0.1-1.5l1.8-1.6l-0.4-2l-1.5-2l1-1l2.2,2l1.8-0.8l-2.7-5.1l-1.6-1.5l-1.2,1.5l-0.9-1.1v-2.4l1.1-1.5l-2.1-6.3l0.5-6.1
		l1.8-7.1l3.3-7.9l1.8-4.8l-2.6-1.7l-1.8,0.3l-4.7-2.2l-2.9-3.2l0.3-1.5l2.2,1.7l2.9-2.8l-0.5-1.3l-1.7-0.5l-2.4-2.2l0.7-2.1
		l-4.4-3.6l-1-2.3l-2,0.5l-2.1-1.6l-2.5,0.5l-6.7-3.4l-1.1-1.8l-0.2-3.2L260,78l-5.5,0.3l-6.3-1.8l-1.6-0.9l-2.2,0.1l-5.6,2.4
		l-3.9,0.5l-8.9-1.1l-7.1-0.2l-8.6-0.3l-8.7-1.6l-3.7,3.7l-1.5,1.5l-5.8-0.2l-4.6-1.1l-7.5-3.1l-6.8-1.1L166,74.6z"/>
	<polygon class="st0" points="318.4,176.5 321.4,175.4 322.5,174.1 325.4,173.9 329.9,175.1 334.7,173.4 335.6,172.4 338.3,173.7 
		341,172.6 340.4,170.3 343.4,170 343.9,169 341.9,167.7 342.6,161.3 342.8,154.6 341.3,151.3 342.3,150.6 343.3,151.3 349,147.6 
		355.1,144.1 356.6,142.7 357.8,143.7 359.1,147.9 362.4,149.6 369.3,151.9 372.8,152.8 375.1,152.3 376.6,153.3 376.1,154.8 
		379.6,159 381.1,157.6 379.4,155.8 379.7,153.3 377.6,151.7 377.8,149.8 382.4,149 391.9,145.1 385.4,137.3 383.1,134.3 
		375.3,129.2 372.7,127.1 371.3,121.6 368.4,118.9 361.9,115.9 355.7,107.4 354.6,104.2 347.6,98.2 340.2,91.8 333.6,86.3 
		330.8,80.8 329.5,77 328.4,71.5 327.1,63.1 326.5,60.8 323.5,60.8 309.9,61.3 304.6,60.6 301.3,59.4 296.3,62.6 294.9,64 
		287.5,66.9 285.2,69.1 278.3,74.4 273.3,75.9 270.8,75.6 267,76.4 267.2,79.5 268.3,81.2 274.9,84.6 277.6,84.2 279.5,85.8 
		281.6,85.2 282.5,87.5 286.9,91.1 286.3,93.2 288.6,95.4 290.3,95.9 290.9,97.2 288,100 285.7,98.4 285.4,99.8 288.2,103.1 
		293,105.3 294.8,105 297.4,106.7 292.3,119.5 290.6,126.3 290.1,132.5 292.1,138.8 291.1,140.3 291.1,142.7 291.9,143.7 
		293.2,142.3 294.8,143.7 297.4,148.9 295.6,149.7 293.5,147.8 292.6,148.8 294.1,150.8 294.4,152.8 292.6,154.4 292.7,155.9 
		296.5,156 299.4,157.1 302.7,157.2 307.7,162.1 310.2,163.1 312.8,168.7 313.3,171.1 314.7,172.1 315.6,175.7 	"/>
	<g>
		<text transform="matrix(1 0 0 1 227.5481 122.1523)" class="st1 st2">Rajbari</text>
	</g>
	<g>
		<text transform="matrix(1 0 0 1 299.5481 130.1523)" class="st1 st2">Goalanda</text>
	</g>
	<g id="dist-gopalganj-1_1_">
		<g>
			<circle class="st3" cx="269.2" cy="144.4" r="13.4"/>
			<text transform="matrix(1 0 0 1 263.2045 151.6591)" class="st1 st4">1</text>
		</g>
	</g>
</g>
<g id="rajbari-2">
	<polygon class="st5" points="138.5,65.3 121.4,57.3 116.4,52.2 106.8,42.9 97,35.8 87,29.6 80.9,24.6 76.4,18.9 67.6,9.9 64.2,8.4 
		52.5,6.8 51.9,10.1 51.7,19.5 49.4,19.8 48.8,18.8 47.4,18.5 47.6,16.8 46.4,16.9 46.4,24.1 50,25.9 50.6,27.7 50.3,29.5 48.1,32 
		49,32.9 51.1,33.1 51.3,35.3 52.6,35.7 52,36.9 48.3,36.3 47.6,38.9 43.9,42.3 43.8,48.6 43,50 43.6,56.5 39.3,58.5 38.1,61.1 
		36.8,61.2 36.5,65.2 33.5,66.3 32.7,69.3 34.2,70.4 33,76.4 31.7,78.4 31.7,80.5 28.2,84.3 28,92.3 26,93.3 26.1,95.5 28.3,95.8 
		28.3,100.1 26.4,100.5 28,102.1 27.7,104.8 26.4,105.7 21.3,105.6 20.5,106.7 17.5,105.8 15.9,106.1 16.8,108.3 15.1,110.8 
		18,112.5 21.2,111.3 23.1,111.8 22.2,113.5 21.3,118.3 18.6,122 20.4,125.7 14.9,129 12.8,129.2 9.5,131.6 7.3,136 8.3,137 
		11.7,136.3 16.7,136.9 18.6,141.2 17.7,146.7 19.1,152 22.3,153.6 25.9,157.4 29.3,165.4 33.6,170.7 39,172.2 44.4,176.6 
		45.4,179.7 45.6,183.3 48,184.3 51.6,184.1 58.2,186.5 62.7,186.6 67.3,182.5 54.6,177.6 53.1,176 53.4,171.3 52.5,169.2 
		54.5,166.5 56.4,166.2 54.5,161.6 57.9,160.9 61.8,160.4 62,156.8 65,156.8 66,155.6 70.6,157.8 75.5,159.2 76.8,156.6 79.2,155.1 
		80.2,152.6 82.4,153.8 83.5,158.5 82,159.3 83.4,162.4 84.9,162.4 85.3,160.5 88.5,161 90.5,159.6 94,159.5 94.5,158.2 96,158.2 
		96.1,160.5 97.5,160.5 98.9,158.8 98.3,155.7 95.5,154.1 94.4,151.6 96.3,151 98.2,151.8 99.8,148.5 100.2,147 103,145.1 
		105.6,145 106.6,146.4 109.7,145 110.8,140.4 108,139.2 107.6,133.1 109.4,132.1 108,130.6 108.1,128 109.7,126.1 107.7,124.5 
		105,122.8 104.1,125 100.6,124 99.7,121.7 98.8,120 95,121.5 93.7,120 91.7,120.2 92.3,113.6 95.7,111.8 97.8,110.8 97.7,108 
		99.7,106 101.7,106.8 102.9,104.8 101.9,101.9 103.7,99 101.3,93.8 99.6,89.2 97.4,88.2 96.2,90.7 95.4,93.3 91.9,95 87.8,93.7 
		85.6,90.6 85.9,88.1 90.1,87.3 93.7,84.1 101.7,81.7 108.2,81.7 112.4,79.5 120.6,82.6 123.1,82.2 124.9,84.5 131,88.6 132.5,87.4 
		133.4,81.8 129.2,81.9 128.2,80.7 131.4,77.8 134.7,77.5 137,74.4 138,68.8 	"/>
	<path class="st5" d="M138.5,65.3l6.2,3.1l8.4,4.1l5.4,1.4l3.8,0.8l-2,9l4.7,1.5c0,0,2.7,0.7,2.7,0.8s-0.6,2.2-0.6,2.2l-1.4,0.7
		l-4.6-0.6l-2.7,1.4l1.8,1.4l-0.5,1.3l-1.6-0.4l-0.2,1.6l-2,0.1l0.4,2.6l2.4-0.2l-0.2,2.6l0.6,1.4l-0.8,2.4l2.9,1.7l1,1.8l-1.7,1.7
		l2.9,1.5l4.6-0.2l3.4,1.4l2,2.8l1.3,0.6l1.3,1.7l1.1,0.1l2,3.1l2.2,1.7l0.1,2.2l3.5,1.5l2.6-1.2l2.3,1l0.1,2.5l0.8,0.5l3-3.1h3.5
		l-0.9,3.3l-1.6,2l3.7,2.9h2.7l2-1l1.2,0.7l-2.4,2.8l-3.1,3.4l-2.7,0.2l-3.7-2.9l-2,1.5l-1.2,1.4l-2.7-0.5l-0.5-1.7l-2.1,1.1
		l-1.5-1.3l-2.4,0.4l-3.2-1.9l-1.1,0.3l0.4,1.5l-1.9-0.1l-2-5l-1.4-1.6l-1.2,0.5l-1.1,3.3l-2.4,0.7l-3.1-0.5l-2.6,1.1l-1.6-1.1
		l-3-0.1l-0.8,1.7l3.9,6.5l0.2,3.7l-1.1,0.5l-3.7,0.2l-0.5,3.2h-2.9l-3.6,1.3l0.6,1.7l-0.4,2.6l1.4,0.3l-0.5,6.6l-1.8,0.2l-1,2.9
		l-3.3,1.5l-1.5,2l-3.8,0.5v2.2l1.8,2.8l-0.9,0.5l-2.3-2.7l-2.3,0.4l-0.9,3.6l-2.3,1.4l-1.1-1.1l-1.6,0.2l-0.1,1.7l-2.3,0.3l-2,1.3
		l-2.4-0.1l-1.9-1.9l-1.2,0.3l0.1,3.3h-2l-1.2,3.9l-1.6,2.9l-6.1,4.8l-2.8-2.1l-7.1-2.2l-3-2.3l-3.2-3.9l-2.2-5.4l-3.5-2.9l-2.3-0.3
		l-6.2,0.9l-5,5l-4.1,4l-0.6-0.4l-12-4.5l-1.4-1.6l0.3-4.7l-0.9-2.1l2-2.8l1.8-0.2l-1.8-4.6L62,161l0.2-3.5h2.9l1-1.1l4.6,2.2
		l4.8,1.3l1.4-2.6l2.4-1.5l1-2.5l2.2,1.2l1.1,4.7l-1.5,0.9l1.4,3.1H85l0.4-1.9l3.2,0.5l2-1.4l3.5-0.1l0.4-1.3l1.5-0.1l0.2,2.3h1.3
		l1.4-1.7l-0.6-3.1l-2.8-1.5l-1-2.5l1.8-0.6l1.9,0.8l1.6-3.3l0.3-1.5l2.9-1.9l2.5-0.1l0.9,1.3l3.1-1.3l1.1-4.7l-2.8-1.2l-0.4-6.1
		l1.7-1l-1.3-1.5l0.1-2.6l1.6-2l-4.6-3.2L104,125l-3.4-1.1l-0.9-2.2l-0.9-1.7l-3.7,1.3l-1.3-1.5l-2.2,0.2l0.7-6.5l5.5-2.9l-0.1-2.8
		l2-1.9l1.9,0.7l1.3-2l-1-2.9l1.7-2.9l-2.3-4.9L99.5,89l-2.2-0.9l-1.2,2.5l-0.8,2.6L91.9,95l-4.1-1.3l-2.1-3.1l0.2-2.4l4.2-0.9
		l3.5-3.2l8-2.4l6.7-0.1l4.1-2.1l8.2,3l2.4-0.4l1.8,2.3l6.2,4.2l1.5-1.2l0.9-5.6l-4.1,0.2l-1-1.2l3.2-2.9l3.4-0.4l2.3-3.1l1.4-8.2
		L138.5,65.3z"/>
	<polyline class="st5" points="244.6,238.1 246.5,229.7 249.8,224.8 257,225.8 258.9,224.1 258.3,219.2 259,216.7 255.9,215.8 
		252.9,213.7 251.5,208.9 252.2,206.4 250.9,204.8 247.7,204.1 247.5,198.5 245.4,198.5 242.6,200.6 239.8,200.6 236.3,194.3 
		234.7,194.5 232.9,196.3 226.2,194.2 221.6,191.8 220.7,189.9 219.6,185.2 221.5,184.4 223.1,184.8 224,183.6 222.7,179.9 
		222.8,176.3 221.1,176 219.5,174.4 217.3,176.2 214.8,172.8 213.6,166.6 211.4,164.7 211,161.8 213,160.7 213.4,158.6 211.3,155.1 
		210.8,153.4 208.6,151.5 209,144.6 208.4,142 209.1,140 208.7,137.2 207.1,134.9 206.3,135.6 204.8,135.1 204.6,133.7 205.6,132.3 
		204.3,131.5 198.7,137.7 196.1,137.9 192.3,135 190.3,136.5 189.1,137.9 186.4,137.3 185.9,135.7 183.8,136.8 182.2,135.5 
		179.9,135.9 176.6,134 175.6,134.3 175.9,135.7 174,135.8 172.1,130.7 170.7,129.2 169.5,129.6 168.3,132.9 165.9,133.6 
		162.8,133.1 160.3,134.2 158.7,133 155.7,132.9 154.9,134.6 158.9,141.2 159,144.9 158,145.4 154.4,145.6 153.7,148.7 150.9,148.8 
		147.3,150.2 147.9,151.8 147.6,154.4 148.9,154.7 148.4,161.3 146.7,161.5 145.7,164.4 142.3,165.8 140.9,167.9 137.1,168.3 
		137,170.4 138.8,173.2 137.9,173.7 135.5,171 133.3,171.4 132.4,175 130.1,176.4 129,175.3 127.4,175.5 127.3,177.1 125.1,177.5 
		123.1,178.8 120.6,178.7 118.6,176.7 117.5,177 117.5,180.3 115.5,180.3 114.4,184.2 112.7,187.1 106.6,191.8 107.1,192.4 
		105.8,195.3 104.1,198.1 104.2,201.1 106.3,204.9 108,205.6 113.8,205.4 121.5,207 126.2,207.8 131.5,209.7 135.7,213.2 138,216.9 
		137.7,220.7 136.2,225.7 133.3,228.7 128.5,232.3 127.5,234.2 128.3,236.5 132,237.7 134.9,237.3 138,239.7 140.7,243.1 145.1,248 
		146.6,246.8 149.5,243.9 149.2,242.2 151.1,239.5 154.8,241.5 158.8,241.5 159.4,242.2 158.7,243.8 160.3,246.5 161.7,246.5 
		162.7,249 164.4,250.9 166,254.2 168.9,254.5 169.8,252.6 172.2,254.8 174.4,254.4 173.8,252 175.3,250.8 174.3,248.2 176.3,246.4 
		178.5,244.8 177.7,238.8 179.4,237.8 184.6,237.1 187,238 189.3,234.6 187.9,230.7 189,228.9 194.7,228.6 197.4,231.8 200.9,233.7 
		204.6,236 209.3,235.3 212.4,232.3 212.1,230.2 208.9,228.9 208.5,226.5 212.1,225.4 214.6,228.3 217.2,234.2 220.4,237.3 
		224.5,238.2 225,239.2 229.5,239.9 228,237.3 229.5,236.8 233.2,241 234.6,240 233.9,238.6 237.2,238.9 241.1,239 244,238.9 
		244.6,238.1 	"/>
	<g>
		<text transform="matrix(1 0 0 1 47.4648 76.4857)" class="st1 st2">Pangsa</text>
	</g>
	<g>
		<text transform="matrix(1 0 0 1 110.9646 125.319)" class="st1 st2">Kalukhali</text>
	</g>
	<g>
		<text transform="matrix(1 0 0 1 136.0481 192.7357)" class="st1 st2">Baliakandi</text>
	</g>
	<g id="dist-gopalganj-1_5_">
		<g>
			<circle class="st3" cx="72" cy="121.1" r="13.4"/>
			<text transform="matrix(1 0 0 1 66.0378 128.3258)" class="st1 st4">2</text>
		</g>
	</g>
</g>
</svg>
