<?xml version="1.0" encoding="utf-8"?>
<!-- Generator: Adobe Illustrator 25.2.1, SVG Export Plug-In . SVG Version: 6.00 Build 0)  -->
<svg version="1.1" id="Layer_1" xmlns="http://www.w3.org/2000/svg" xmlns:xlink="http://www.w3.org/1999/xlink" x="0px" y="0px"
	 viewBox="0 0 691 406" style="enable-background:new 0 0 691 406;" xml:space="preserve">
<style type="text/css">
	.st0{fill:#9BB6EA;stroke:#FFFFFF;stroke-width:0.5;stroke-miterlimit:10;}
	.st1{font-family:'TimesNewRomanPSMT';}
	.st2{font-size:16px;}
	.st3{fill:#ABBEED;stroke:#FFFFFF;stroke-width:0.5;stroke-miterlimit:10;}
	.st4{fill:#FFFFFF;}
	.st5{font-size:24.672px;}
	.st6{fill:#C5CFED;stroke:#FFFFFF;stroke-width:1.033;}
	.st7{fill:#8BAFE8;stroke:#FFFFFF;stroke-width:0.5;stroke-miterlimit:10;}
	.st8{font-size:14.9713px;}
	.st9{fill:#639CE0;stroke:#FFFFFF;stroke-width:0.5;stroke-miterlimit:10;}
	.st10{fill:#6EADEA;stroke:#FFFFFF;stroke-width:0.5;stroke-miterlimit:10;}
	.st11{fill:#6899E0;stroke:#FFFFFF;stroke-width:0.5;stroke-miterlimit:10;}
	.st12{fill:#5586CE;stroke:#FFFFFF;stroke-width:0.5;stroke-miterlimit:10;}
	.st13{fill:#548ED3;stroke:#FFFFFF;stroke-width:0.5;stroke-miterlimit:10;}
	.st14{fill:#8AAADD;stroke:#FFFFFF;stroke-width:0.5;stroke-miterlimit:10;}
	.st15{fill:#7CA7E5;stroke:#FFFFFF;stroke-width:0.5;stroke-miterlimit:10;}
	.st16{fill:#83C7FF;stroke:#FFFFFF;stroke-width:0.5;stroke-miterlimit:10;}
	.st17{fill:#00796A;}
</style>
<g id="dhaka">
	<path class="st0" d="M363.4,255l-2.1-2.5l-3.3-1.9l-2.3-1.6l-0.7-1.6l-1-1.4l-0.5-0.6l0.2-1.1l0.5-2.2v-1.2l-1-1l-1.3-0.9l-2.1-0.8
		l-1.7-1.3l-0.2-1.5l0.8-1.9l0.3-1.4l0.4-1.3l-0.1-1l-1.1-0.3l-2.7-1l-1.6-1.2l-0.3-1.6l0.7-1.6l1.3-1.3l0,0v-1.4L344,220l-1.7-1.2
		l-0.7-1.6l-0.1-2.9l0.2-2.8l0.5-1.6l-0.2-1.4l-1.1-2l-1.2-1.5l-1.7-1.1l-2.7-1.3l-1.4-1.8l-0.2-1.3l0.2-1.1l1.6-1.2l2.4-1.8
		l1.8-1.8l1-1.6l0.6-5.1l0.3-1.1l-0.5-1.1l0.3-0.8l0.7-0.2l0.8-0.3l0.7-2.3l-0.6-1.3l0.3-1.5l0,0l-0.2-1.6l0.5-0.7l2.7-1.1l0,0
		l0.6-0.8l-0.3-0.7h-0.1c-1.1-0.5-1.5-0.6-1.6-0.6c-0.1-0.1-0.6-0.6-1.1-1.1l0.2-1.6l1.2-1.7l0.4-1.7l-1.2-0.8l-1-0.1l-0.5-1l-0.7-2
		l-1.4-0.6l-1.6-1.9l-2-2.4l-1.6-1.2l-0.7-1.6l-0.5-1.5l-0.1-3l-0.3-0.8h-1.7l-1.2,1.2l-1.5,1.4l-0.7-0.3h-0.3l-0.1-0.9l0.2-3.6
		l0.6-2.2l1.3-1.6l2.6-1.8l0,0l0.7-1.5l-0.3-2v-1.2l0.9-1.2v-0.6l-2.1-2.1l-0.7-1.3l-2.3-2.3l-0.2-0.6l-0.9-1.1l-1.3-0.3l-1.2-1.2
		l-0.2-1l0.3-2.1l1.4-1l-0.5-1.1l-1.4-0.6l-0.5-0.4l0.1-0.7l1-1.6l-0.3-2.6l0.5-1.3l-0.5-1l-2.2-1.6l-3.1,0.1l-1.3,0.8l-0.8,0.1
		l-3-1l-1.7-1.4l-1.6,0.1l-0.5-0.3l-0.1-0.9l-0.3-0.6h-3.3l-0.2,0.6l0.4,0.7l-0.2,0.8L306,112l-4.2,3.5l-3.9,3.7l-3.6,1.1l-2.5,1.9
		l-1.8,1l-3.1,0.2l-2.9-0.1l0,0l-2.4,0.7l-0.1-0.3l-0.1,0.4l-1.7,0.2l-1.5-2l0.1-3.2l-0.4-1l-1.4-2.1l-1.6-2.1l-2.3,0.1h-1l-0.7-0.3
		v-0.4l0.9-0.3l1.2-0.7l0.3-0.7l-0.5-1.1l-0.5-1l-0.6-0.2l-0.8,0.6l-1.9,0.7l-2.2,0.6l-2.2,1.3l-2.7,0.2l-5.6,1.4l-2.9,1h-0.1
		l-0.6,1l-2,1.5l-1.8,0.7l-0.5,1.4l0.9,0.8v1.3l-1.3,1.8l0.2,2l0.2,1.1l1.3,0.6l0.7,0.9l1.2,2.2l-0.4,0.6l-1.7,1.4v1.4l0.6,1
		l-0.9,3.4l-0.6,0.7l0,0l-0.7,0.8l-0.5,1.7l-0.4,1.3l-0.9,2.3l-0.9,0.3l-1.5-0.6l-2.6,1l-1,1.2l-0.3,0.3l-0.3,0.2l-1.2,0.6l-0.7,1.6
		l0.4,0.9l0,0l0,0l0,0l0.4,0.5l2.2,2.8l0.2,1.4l-1.4,1.5l-0.7,1.2l-0.1,0.1l0,0l0,0l0,0v0.1l0.2,2.4l-0.4,1l-0.3,0.8l0.1,0.6v0.7
		l0.9,0.8l0.7,0.7l1.9,1.4l-0.3,0.8l-2.7,2.6l-0.2,0.2l0,0l0,0v0.1l0.2,1.4l1.4,0.9l1.1,0.6l-0.5,1.7v0.1l-0.8,4.1l0.3,1.5l1.8,2.5
		l0.1,0.1l0.9,2.2v1.7l-2.3,1.9v1l0,0v0.3l0,0l0,0l-0.2,4.4l-1.2,3.3l-0.4,0.1l-0.6,0.1l-0.2,0.5l0,0l0,0l0,0l0.5,2.4l0.9,1.6
		l0.1,0.8l0,0l-1,1.1l0,0l0,0l-0.5,1l1.3,0.5l1.9,1.1l0.5,0.2l1.5,0.6v0.2l0.5,0.3l0.6,1l0.2,1l-0.4,0.6l-1.2,1l-1.4,1.4l-2.3,2.8
		l-1.1,2.7l-1.4,1.5l-1.3,1.4l-0.9,1.3v1.4l1,0.9l0,0l1.1,0.3l0.8-0.8l0.4-0.1l0.4,0.3l1.2,1.7l2.5,1.8l1.7,0.8l1.7-0.2h1.4l0.5,0.9
		l0.7,3.2l0.7,2.3l1.1,1.7l0.5,1.8l0.7,1.9l0.7,0.8l1.1-0.6l0.7-0.1l0.5,0.2l0.4,1.8l0.6,4.4l0,0l0.2,1.5l0,0l0.3,2.5l1.5,2.8
		l1.5,2.1l2.7,0.9h4.9l3.7-0.2l1.5-0.1l0.6-0.2l2.5-0.8l2.8-0.6l2.2-1.3l1.2,0.1l2.7,0.1l5.7,3.4l2.5,2.5l0,0l2.5,2.6l3.7,3.9
		l1.9,1.8l0,0l0,0h0.1h0.1l0.5,0.9l2.2,2.2l9.1,7.6l2.3,3l3.6,4.9l1,0.8l0.9-1.3l1.4-1.3l0.4-1.8l0.4-1l0.1-1.2v-1l0.4-0.3h1.2
		l1.1-0.8l0.4-1l0.2-1.7l0.6-1.5l1.4-0.9h1.5l0.8,0.8v1.2l0.5,0.5l0.1-0.1c0.3-0.3,0.7-0.7,0.7-0.8c0,0,0.1-0.1,0.3-1v-0.8h0.3
		l0.3,1.2l0.9,0.4l0.6-0.8v-1.6l0.4-0.9l0.9-0.2l1-0.8l1.1-2l1.4-1.1l3.5-0.7l3.2-1.3l2.6-2.4l0.8-2.1l1-0.3l2.7,0.1l2-0.2l0,0
		l0.8-0.7l0.6-2.2l0.6-0.9l3.1-0.1l2.4-0.3l2.6-0.9L363.4,255z"/>
	<g>
		<text transform="matrix(1 0 0 1 269.0575 197.6799)" class="st1 st2">Dhaka</text>
	</g>
</g>
<g id="dhaka-20">
	<path class="st3" d="M175.7,158.4l-2.7,4.8l-5-0.6l-2-1.7l-3.4-0.1l-3.8-3l-3.7-0.2l-4,1.5L149,161l-1-0.6l-0.3-1.3l-2.9,0.5
		l-2,1.3l-5.2,0.4l-6.9,1.5l-5.5,3.2l-2.9,1.3l-2.1-0.6l-2.1-3.4l-4.9,0.4l-0.4,1.6l-0.3,2.2l-1.6,0.1l-1.5-1.3l0.4-3.8l0.2-3.2
		l-2.6-4.6l-2.3-2l-3.2-5.6l-2.8-2.6l-2.3-4l-1.3-0.7l-1.6-0.6l-0.7-1.5l0.1-2.4l-3.3-1.5l-3.3-3.4l-2.2-5.1l-0.6-2.3l-3-4.3
		l-0.1-0.8l0.9-1.4l-0.1-0.6l-1.2-0.1l-2.3-0.5l-0.5-0.8l-0.7-1.6l-0.6-0.3l-1.7,0.6l-1.7-1.5l-1.8-0.1l-0.8-0.4v-0.7l0.2-1.9
		l-0.5-0.2h-0.8l-3.8-4.3l-1.6-0.8l-2.4,0.6l-0.7,0.6l0.1,1.6l-0.7,1.6l-1,1h-2.9l-2.6-0.5l-3.3-4l-0.4-1.3l0.2-2.2l1.8-1.9l2.8-1.3
		l2.9-1.4l0.6-1.1L58,93.4l-1.3-1.8l-0.9,0.2l-2,1.4l-1.1,0.3l-1-0.3l-2.6-3L48.8,89l1.8-1l1.5-0.7l0.1-0.8l-0.4-1.7l0.7-2.8
		l0.1-2.2L52,77.5L50.8,76l-1.1-0.7L49,74.6l-0.3-0.8L49,73l1.1-0.1l2.1-0.2l2.7-1.2l1.7-1.6l0.6-1.7v-1.5l-0.5-1.2l-0.9-0.1
		L55,66.2L53.8,68L52,68.6l-2.5,0.1l-1.9-1.1l-2-0.8l-2,0.2l-2.4,0.9L39,67.8L37.2,67l-0.4-1v-3.2v-1.2l-1-0.6h-1.5l-2.2-0.3
		l-1.6-0.8l-0.4-1.1l0.4-1.3l1.1-0.3l1.6,0.8l1.8,0.4l1.5-0.1l0.8-0.8l0.1-0.9l-0.8-0.3l-1.1,0.4L34,56.1l-1.1-2v-2.4l1.2-1.8
		l2.4-2.1l1.9-0.9l2.3-0.7l1.2-0.6l-0.2-1l0.5-2l1.2-1.5l1.6-0.9l0.5-1.7l-0.7-1.2L43.2,37l-1.7,0.5L40.8,39l-0.6,1.4l-1.4,0.4
		l-1.5-0.4H36l-0.8-1.3l0.6-1.5l0.8-0.6l-0.1-1.6l-1.2-0.8l-1.1-0.4l-1.4,0.2l-2.6-0.8l-2-0.4l-1.4-0.1l-0.1,0.7
		c0,0,0.3,1.1,0.3,1.2l-0.8,0.9l-2-0.1l-1.9-1.6l-0.5-1.3v-1.8l0.1-2.1l-0.2-1.1l-0.6-1l-0.8-0.1l-0.2,0.5l0.2,0.5l0.2,1.3l-0.3,1.2
		l-0.7,0.8h-0.8l-0.3-0.5l-0.6-1.2l-1.6-0.8l-1.6-0.2l-0.2,0.8l0.1,1.1l0.5,0.9l0.3,0.9l-0.2,0.8L14.3,33l-2.2-1.9
		c0,0-0.2-1.2-0.2-1.3s-0.4-1.7-0.4-1.7l-1.3-0.9l-0.5-1l0.7-1l1.4-0.6l2.1,1.1l1.2-0.2l1.1-0.9l1.4-1.9l1.2-1.2l0.1-1.4v-2l-0.8-2
		c0,0,0-1.1,0-1.2s-0.7-0.7-0.7-0.7L16,14.3l-0.9,0.5l-2-1.5c0,0-0.5-1-0.5-1.1s0.1-1.4,0.1-1.4l1-2.2l0.1-2l0.5-0.8l0.8,0.1l1,0.7
		l0.4-0.4l0.1-0.8l0.5-0.6h1l0.6,1L18.3,7l0.5,1.1l0.4,1.2l0.5,1.7l0.3,1.1l1.2,0.1l1.8-0.6l1.5,0.3l0.9,1.1l-0.1,1.3l-0.4,0.8
		l-2,1.1l-1.3,0.4l-1.1-0.4c0,0-0.6,0.4-0.7,0.4l0.2,1l0.5,1.5L21,20l1,0.3l-0.1,1.2l0.6,1.2l2-0.6l3.3-2l5.5-2.9l1.5-0.7l1.3-0.3
		c0,0,2.1,0.1,2.1,0l2.7-0.7l1.3-0.7l4,0.1h2.9l1.6-0.4l0.4-0.9l-0.3-1.8l0.1-1.8l0.6-0.8l0.8-0.1l1.1,0.9l0.4,1.3L54,13l0.6,0.2
		l1-0.6l1.8-1.3l0.4-1.2l-0.2-1.6l-0.2-1.1l0.4-0.9l1.8-0.1l1.7,0.2l1,0.9l0.9,1.3l0.9,1.2l1.8,0.7l1.5,0.2l1.5,0.6l0.3,1.2l0.3,1.1
		l0.9,1.7l0.7,1.6l1.2,0.5l1.1,2.2l2.4,2.3l1.8,1.1l1.3,0.2l1.4,0.4l0.9,0.5l0.9-0.1l0.3-0.6l0.1-2.7l0.2-1.8v-1.4l0.3-0.4l1.3,0.2
		l2.8,0.5l1.6,0.5h0.8L90,18l0.1-1.6l0.4-0.8l1.3,0.3l0.4-0.5l0.2-1.3l0.5-0.3l1.3-1.4l0.6-0.5l1.7,0.2l2.3,0.5l1.5-0.4l2-0.6
		l2.8,0.4l2.5,0.4l1,0.5l0.6,0.8l-0.4,2.7l0.3,1.1l0.9,0.7l1.2,0.7l0.8-0.3l1.2,1.1l1.6,0.9l0.6,0.9l1.6,0.7l1.1,1.1l0.2,1.9
		l0.4,1.4l0.8,1.1l1.4,0.7l0.9,0.8l1,1.7l0.2,1.6l1,2.6l1.2,1.9l1,0.8l1.5,0.1h2.6l1.7-0.1l1.2-0.7l0.3-1.3l0.9,0.2l0.2,1.4
		l-0.4,2.2l-0.8,0.9v1.6l0.3,1.8l1,2.4l1,1.2l1.2,0.5l1.1,0.8l0.1,1.3l-0.7,3.6l0.2,1.3l0.4,0.9l0.8,0.3l1.2-0.4l2.3-0.5l1.6,1
		l1.3,2.1v0.9l-1.1,1.5L144,62l0.4,0.6l3.5,0.3l1.2,0.2l0.4,1.5l-0.1,1.6l0.2,1.6l1,1.2l1.4,0.1l1.2,0.3l2.2,1.6l2.5,2.8l1.6,0.6
		l1.3,1l0.8,0.7l1.4,0.1l1.6,1.1l1.8,2.3v2l0.1,1l0.7,1.3l0.1,1.1l-0.4,1.4l-1,0.5l-1.1,0.4V88l0.6,1.4l-0.2,1.1l-2.2,1.1l-0.5,1.1
		l0.7,6.1l2.5,6.1l0.1,2.7l-1.1,4.4l0.1,1.5l0.5,1.1l1,1.7l0.1,1.5l-0.9,3.1l0.1,1.5l0.4,1.1l1.4,0.9l1.5,0.7l0.7,0.7v1.1l-0.6,2.3
		l-1.3,1.8l-0.5,1.4l0.3,2.1l0.5,1.9l2,2.9l1.8,2.7l0.6,3.4l0.2,4.8l0.4,2.3L175.7,158.4z"/>
	<g>
		<text transform="matrix(1 0 0 1 67.0167 69.9064)" class="st1 st2">Dhamrai</text>
	</g>
	<g>
		<circle class="st4" cx="127.7" cy="98.5" r="13.4"/>
		<text transform="matrix(1 0 0 1 115.7296 105.7906)" class="st1 st5">20</text>
	</g>
</g>
<g id="dhaka-19">
	<g id="dhaka-2_">
		<path class="st6" d="M206.5,221.4l0.2,1.1l-0.3,0.9l-0.6,1l-1.3,0.1l-0.9-0.5l-0.9-1.1l-0.6-0.5l-0.6,0.4l-1.4,1.8l-1.4,1.3
			l-1.1,0.2l-2.3,0.6l-2.5,0.4l-2.3,0.2h-1.7l-1.1-0.7l-2.3-2l-2.9-3l-0.8-1.3v-1.1l1-0.9l0.3-0.9l-0.4-1.5l-1.2-1.9l0.2-1.1l-0.1-1
			l-1.5-1.2l-1.8-2.7l-3-2.3l-2.3-1.5l-0.8-0.4l1-2.4l0.4-2.2l0.4-3.3l0.4-2.1l0.8-4.3l0.7-3.4v-2.9l0.9-1.1l0.9-2.3v-1.2l-1.6-1.9
			l-0.2-1.6l0.3-3.3l-0.2-2l0.5-5.3l0.3-4.8l-0.9-1.6l-1.2-1.9l-2.1-3.8l-0.4-2.4l-0.2-4.7l-0.6-3.4l-1.6-2.5l-2.2-3.1l-0.5-1.9
			l-0.3-2.1l0.5-1.4l1.3-1.8l0.6-2.3v-1.2l-0.7-0.7l-1.5-0.7l-1.4-0.9l-0.4-1.1l-0.1-1.5l0.5-1.7l0.4-1.4l-0.1-1.5l-1-1.7l-0.5-1.1
			l-0.1-1.5l0.5-1.9l0.6-2.5l-0.1-2.7L164,102l-1.3-3.4l-0.4-3.5l-0.3-2.6l0.5-1.1l1.1-0.5l1.1-0.5l0.2-1.1l-0.6-1.4v-0.7l1.1-0.4
			l1-0.4l0.4-1.4l-0.1-1.1l-0.7-1.3l-0.1-1.1v-1.9l-1.8-2.3l-1.6-1.1l-1.4-0.1l-0.8-0.7l-1.3-1l-1.6-0.6l-2.5-2.8l-2.2-1.6l-1.2-0.3
			l-1.3-0.1l-1-1.2l-0.2-1.6l0.2-1.6l-0.4-1.5l-1.2-0.2l-1.5-0.1l-2-0.2l-0.4-0.6l0.1-1.2l1.1-1.5v-0.9l-1.3-2.1l-1.6-1l-2.4,0.5
			l-1.1,0.4l-0.8-0.3l-0.4-0.8l-0.2-1.3l0.3-1.6l0.4-2v-1.3l-1.1-0.8l-1.1-0.5l-1.1-1.2l-1-2.4l-0.3-1.7v-1.6l0.8-0.9l0.4-2.2
			l-0.2-1.4l-1.4-0.3l-0.9-1l0.4-0.9l1.9-1.1l0.7-1.3l-0.2-0.9l-0.7-1l0.1-0.6l1.9-0.8l1.9-0.7l1.3-0.5l1.1,0.6l-0.1,0.7l0.1,2
			l0.2,1.2c0,0,1.4,0.4,1.5,0.4l0.9-0.2l0.2-0.7l0.5-0.8l0.8-0.5h1.2l1.3,0.1l0.3,0.7l-0.2,2.1l0.4,0.7l1.3,0.4l0.7-0.5l0.5-1.8
			l-0.1-1.2l1.6-0.7l1.3,0.5l0.9,2.2l1.5,1.2h2.2l0.9-0.7l0.8-2l1.2-0.6l1.2,0.4l1.9,0.7l1.3-0.2l1.7-0.3h2.4l2.5,0.7l1.4-0.7
			l0.4-1.2l-0.8-1.7l-0.3-1.3l-0.3-0.7c0,0,0-1.6,0-1.7s0.9-1.7,0.9-1.7l-0.8-1.1l0.1-1.6l-1-0.6l-1-0.6l0.2-1.2l1.5-1l2-0.5l2.2,1
			l1.3,1.4l1.8,1.5l1.2,1.1l0.2,0.8l-1,1.2l-0.8,1.3l0.6,1.5l1,1l0.2,1.2l0.4,0.4l1.1-0.4l1.4-0.1l1.1,0.9l0.2,2.4v1l-1.3,1.8
			l-1.6,2.2l-1.6,2v0.5l0.8,0.1l1.4,0.8l0.3,1.5l-0.1,1.5l-1,1.4l-2.5,1.1l-0.7,0.7l0.1,1l1.3,1.4l0.5,1.6l0.6,0.6h1.2l0.5,0.5
			l-0.3,1.1l0.4,1.2l1.9,0.7l0.4,1.5l-0.3,1l0.2,1.9l0.9,0.5l1.2,0.4l1.7-0.2L190,60l0.7,0.8l-0.5,1.4l0.2,1.3l0.9,0.6l1.4,0.1
			l1-0.8l0.5-1.1l1-0.3h1.5l1-0.5l1.9-0.9l0.6,0.6l0.1,1.3l0.9,0.5l1.3,0.3l1.2,0.7l1.4-0.4l1.1,0.8l1.5,0.5l2.7,0.4l0.9,1l0.1,1.6
			l0.3,2.3l0.5,3.2l0.5,0.8l1.3,0.1l1.8-0.1l6-0.3l3-0.3l0.5-0.6l-0.3-1.3l-0.8-1.9l-0.1-1.3l0.4-0.6l0.9-0.1l2.3,0.9l1.7,0.8
			l2.1,0.3l1.5-0.1l1.3,1l0.1,1.7l0.1,1.1l1.2,1l2.4,0.3l1.8-0.3l0.7-1l-0.1-0.9l-0.8-0.4h-1.8l-0.6-0.6l0.3-1l1-0.5l2.2-0.6l1,0.1
			l0.5,1.1l-0.1,1.2l1.3,1.9l1.2,2.3l0.5,2.6l-0.2,3.2l0.2,2.8l0.9,2.2l0.4,4l-0.2,3.7l-0.4,2.4l-0.4,2.1l-0.4,1.2l0.2,2.1l-0.4,1.9
			l-0.8,1.3l-1,1l-0.3,1.8l0.5,2.3l0.9,1.7l0.6,1.9l1.2,2v2.3l-0.3,1.8l0.9,3.6l0.8,2.2l1-0.9l0.8,0.4v0.9l-1,1.1l0.7,1l1.5,0.8
			l1.3,1.3l0.4,1.1l-0.1,1.4l-0.6,1.1l-1.3,0.8l-0.7,1.2l0.5,1.1l0.6,0.6l-0.3,2.6l0.1,1.7l-1,0.5l-1,0.4l-0.3,1l-0.3,2.4l-0.6,1.5
			l-0.6,0.7L245,149l-0.8-0.8h-1.1l-1.2,1.4l-1.2,0.6l-1.4,0.2l-0.8,1.2l-0.2,1.4v0.5l0.9,0.6l1.3,0.8l0.8,1l0.1,0.9l-0.9,0.9
			l-1.7,1.2l-0.4,1.2l0.5,1.3l0.1,2.2l0.4,1.1l1.7,1.6l1.4,1.1l-0.4,0.9l-1.2,0.5l-1.9,0.7l-0.7,1.1l0.1,1l0.4,0.9l1.3,0.9l0.1,0.8
			l-0.6,2.4v1.5l0.8,3.7l0.8,3.6l1,0.9l0.4,1.2l-0.9,0.9l-1.5,1.3l-0.9,1.3l-0.1,2.4l0.1,2.7c0,0-1.3,2.4-1.3,2.5
			c-0.1,0.1-0.5,2-0.5,2l0.1,2.7l-0.7,1.4l0.5,1.3l1.7,0.8l3,1.3l1.5,1v1.3l-1.1,1.3l-1.9,1.7l-0.6,1.3l-1.1,1.5l-2.1,2.9l-2.9,3.5
			l-0.9,1.5l0.4,1.2l1.7,0.8l1.9-0.1l2.5-0.8l1.3,0.1l1.2,1.1l-2,0.1l-1.1,1.4l-1.5,1.4l-1,0.2l-1.2-0.6l-0.6-0.6h-0.8l-1.3,1.1
			l-1,0.5l-1.2-0.2l-3.7-3.2l-1.6-2l-0.8-1.6l-1-1l-0.6-0.9l-0.4-1.4l-0.8-1.7l0.1-3.3l0.9-1.8l0.1-1.6l-0.9-1.3l-1.9-0.7l-3.4,0.4
			l-1.8,1.1l-2.6,0.4l-2.6,0.7l-1.9,0.3l-0.9,0.5l-0.1,0.8v2.4l-0.5,2.3v1.4L206.5,221.4z"/>
		<g>
			<text transform="matrix(1 0 0 1 185.0245 148.5206)" class="st1 st2">Savar</text>
		</g>
	</g>
	<g>
		<circle class="st4" cx="214.7" cy="118.5" r="13.4"/>
		<text transform="matrix(1 0 0 1 201.7296 126.7906)" class="st1 st5">19</text>
	</g>
</g>
<g id="dhaka-1">
	<polygon class="st7" points="121.6,402.4 122.6,402.2 124.9,397.3 128.4,394.3 129.9,392.8 130.2,390 131.2,388.1 130.5,385.8 
		131,384.7 132.6,383.4 132.6,380.1 132.2,377.8 132.1,376.1 129.5,374.4 129.3,371.6 130.4,370.8 132.1,371.1 133.9,368.5 
		134.9,366.2 135.8,365.3 136.6,365.4 138.1,367.4 140.3,367.8 142.8,366 145.8,364.8 148.8,363.3 149.6,361.3 146.9,360.8 
		144.1,355.5 142.6,354.6 139.7,354.3 138.2,352.7 135,352.6 132.5,352.8 131.7,351.7 132.8,349.2 133.2,346.4 130.9,342.9 
		129.3,339.9 130,338.6 131.2,336.7 129,333.3 127,333 125.1,331.9 124.4,329.4 123.1,327.5 122.9,326.7 123.7,324.7 123.4,323.1 
		121.9,322.7 121.1,323.3 120.4,322.7 119.8,321.2 118.5,320 118.9,318.8 120.1,317.3 119.5,315.9 117.4,315.8 114.6,316.4 
		110.7,315.1 107.7,312.9 106.8,310.6 103.9,309.4 102.1,309.1 101.5,309.8 101.3,311.1 100.4,311.3 99.9,310.7 100.7,308.2 
		99.4,307.8 96.9,308.3 93.9,308.9 92.6,310.1 91.5,310.7 90.7,310.1 90.8,308.8 92.1,307.3 92.2,306.3 92.5,304.3 91.7,303.2 
		88.7,303.7 85.1,304 81.3,303.9 78.9,304.1 76.8,302.9 75,302.5 73.5,301.4 71,302 66.8,302.6 65.3,302.6 65.2,302.1 66.2,301 
		66.3,299.7 64.7,299.4 63.5,298.5 61.4,298.1 59.4,298.8 57.9,298.5 57.2,297.1 55.9,297 54.4,296.9 53.5,295.8 53.5,294.2 
		53.6,292.5 53.1,291.5 52.3,291.8 51.9,294.1 51.3,295 47.6,295.8 46.2,296 43.6,296.8 42.8,296.1 42.9,294.4 41.6,293.4 
		38.3,293.4 37.1,295 36.8,296.9 37.2,298.8 36.5,299.9 34.7,299.9 34.3,297.5 34.3,294.8 33.3,294.4 32.1,294.9 30.6,294.3 
		29.3,294 28.7,290.9 27.4,288 26.2,287.8 25.8,289.2 24.8,289.6 23.6,288.6 22.9,287.5 23.2,286.6 22.5,286.3 20.5,288.8 21,293.1 
		20.5,297 17.9,300.5 15.6,302.2 11.9,304.3 10.9,305.3 11.1,308.1 12.2,310.5 12.9,313.2 12.5,316.3 12.6,318.3 15,320.3 
		16.3,320.9 17.7,320.9 20.3,322.5 21.7,321.9 23.3,318.9 26.4,317.8 28.8,321.2 33.2,324.2 38.6,327.5 43,328.5 47.5,329.8 
		49.9,329.8 51.2,330.7 52.3,334.3 53.6,335.5 57.1,336.4 57.3,337.6 55.7,342.3 56.1,344.3 57.6,346.9 58.9,347.2 62.1,347.5 
		64.2,348.5 65.6,350.2 66.8,350.8 68.6,349.9 69.7,350.2 70.7,352 74.1,354.2 76.1,355.8 78.1,356.1 81.6,355.4 83.1,356.3 
		83.6,358.2 82.2,360.3 82.2,361.4 83.8,362.7 83.4,365.1 82.3,366.5 80.3,366.5 77.9,364.4 76.2,363.2 75.3,364 75.9,366.1 
		75.6,367.8 74.4,369.6 73.3,370.5 73.5,371.6 77.1,375.7 78.9,377.6 80.7,377.7 81.8,376.9 85.2,373.8 86.8,373.5 89.1,376.9 
		90.4,378 91.4,380.3 93.3,381.7 94.9,382.2 96.6,385.4 98.2,386.3 99.6,386.8 105.1,392.9 106.2,393 110.2,396.3 113.2,400 
		114.8,400.6 116.1,400.2 117,398.8 118.2,399 	"/>
	<polygon class="st7" points="99.9,310.7 100.7,308.2 99.4,307.8 97.5,308.2 93.9,308.9 92.6,310.1 91.5,310.7 90.7,310.1 
		90.8,308.8 92.1,307.3 92.5,304.3 91.7,303.2 88.7,303.7 85.1,304 81.3,303.9 78.9,304.1 76.8,302.9 75,302.5 73.5,301.4 71,302 
		66.8,302.6 65.3,302.6 65.2,302.1 66.2,301 66.3,299.7 64.7,299.4 63.5,298.5 61.4,298.1 59.4,298.9 57.9,298.5 57.2,297.1 
		55.8,297 54.4,296.9 53.5,295.8 53.5,294.2 53.6,292.5 53.1,291.5 52.3,291.8 51.9,294.1 51.3,295 46.3,296 43.6,296.8 42.8,296.1 
		42.9,294.4 41.6,293.4 38.3,293.4 37.1,295 36.8,296.9 37.2,298.8 36.5,300 34.7,299.9 34.3,297.5 34.3,294.8 33.3,294.4 
		32.1,294.9 30.6,294.3 29.3,293.9 28.7,290.9 27.4,288 26.2,287.8 25.8,289.2 24.8,289.6 23.6,288.6 23,287.5 23.2,286.6 
		22.5,286.3 20.5,288.8 19.8,288.2 19.4,286.4 19.5,284.7 20.2,283.5 21.7,282.7 22.2,281.6 23,281.2 24.5,281.9 26,282.3 
		27.3,281.8 27.8,280.4 27.8,278.9 27.7,277.4 28.5,276.4 29.9,276.5 31.8,276.6 33.2,275.7 33.4,274.4 32.8,273.6 31.5,273 
		31.4,272.2 31.9,271.6 33.4,270.7 34.2,270.1 34.1,269.7 33.4,269.7 33.3,269.1 33.5,268.5 32.3,267.2 32.6,266.3 33,266.1 
		35.1,266.5 36.4,266.7 36.8,266.3 36.6,265.5 35.3,265.2 34.3,264.4 32.7,263.6 32.7,262.2 33.2,262 34.7,263.1 35.2,263.2 
		35.4,262.7 35.3,260.9 35.1,259.3 35.6,258.7 36.9,258.4 37.3,257.8 37.6,256.4 36.8,254.8 35.5,253.3 35.9,252.6 37.2,252.7 
		38.8,253.3 41,253.8 41.9,253.3 42.7,251.9 43,250 42.7,246.9 42.5,246.5 42,245.5 42.5,244.6 43.3,244 44.9,244.1 46.7,244.9 
		48.6,245.3 51.2,245.2 52.9,244.2 54.4,243.9 55,244.3 54.9,245.3 55,246 56.2,246.6 58.1,246.6 58.7,247.3 58.9,248.6 59.9,249.1 
		61.6,249.3 61.9,250.6 62.3,251.1 62.8,251.1 63.1,250.2 63.1,248.8 63.1,246.9 63.8,244.1 65.6,242.6 67.4,242.5 70,242.7 
		73.1,242.1 75.3,241.5 77.3,241.9 79.6,242.7 81.2,242.3 81.5,242.9 80.9,243.6 79.2,244.8 79.1,248.5 79.7,250.2 81.9,250.8 
		83.7,250.9 85.2,251.8 86.4,251.4 87.3,250.2 87.9,248.8 87.2,246.5 87.4,245.7 89.6,245.2 90.1,244.8 90.4,243.4 91,242.3 
		91.6,241 91.9,238.4 92.7,237.8 94.6,238.3 96.1,238.1 96.5,237.1 96.6,235.1 97,234.7 98.5,233.9 99.4,233 100.3,230.9 101.4,229 
		102.4,228.7 103.6,229.2 104.5,229.4 105.5,228.7 106.5,227.7 108.1,227.9 108.9,229.3 109.7,229.3 110.9,228.1 112.8,227.9 
		114.7,229.9 114.8,231.7 115.1,233.5 116,234.7 116.1,236.1 114.9,237.9 114.2,239.2 114.9,241.3 115.6,243.6 118.4,244.8 
		121.2,244.4 123,243.6 126.5,243.8 129,244.4 132.6,247.6 134.6,247.7 136,249.1 135.8,251.6 136.3,251.9 136.7,251.7 137.2,249.9 
		137.3,248.3 137.8,247.4 139.4,247.6 141.1,247.6 142.3,247 144,247.3 146.7,248.1 147.4,247.6 147.4,246.8 147.2,245.8 
		148.1,245.4 150.6,246.2 152.4,246.8 153.8,249 154.8,252.1 156.2,254.4 159,256.3 160.5,256 161.5,256.2 162.2,256.9 163.7,256.8 
		165.6,255.5 167.6,254.7 168.8,254.2 169.2,252.9 170.3,252.1 173.4,252.6 178.1,253 183.1,252 184.8,252.2 190.2,259.3 
		196.3,266.6 198.5,270.7 200.8,276.3 205.2,282.4 204.2,282.5 202.5,284.2 201.3,286.5 199.3,288.4 198.6,288.5 198,287.7 
		197.4,287.7 196,289.1 193.6,291.3 193.3,291.8 193.8,292.3 194.7,292.2 194.6,293.7 194.1,295.8 193.9,297.2 193.3,297.8 
		192.2,297.6 190.2,296.1 189.2,296.2 188.7,296 188.6,295.3 186.5,294.3 183.7,294.8 182.7,296.5 181.8,296.7 180.3,295.5 
		178.5,295.1 177.8,296.1 177.6,299 177.5,300.2 178.5,301.6 178.5,305 179.4,307.1 179.1,308.7 179.2,311.4 178,312.5 178,314.1 
		177.6,315.2 176.6,315.4 175.9,314.7 175.5,312.7 174.3,311.3 172.8,311.5 172.1,312.6 172.1,315.1 170.9,316.9 170.1,317.8 
		170.1,320.8 168.6,322.9 165.7,323.8 163.2,325.4 162.6,326.9 163.4,329 163.2,332.7 161.6,334.4 161.5,335.3 162.5,335.5 
		162.7,336 161.8,337 160,340.1 158,340.8 156.5,340.3 154.7,342.2 153.2,344.8 152.7,344.4 151.8,344.4 151,346.6 149.8,353.7 
		149.5,361.3 146.9,360.8 144.1,355.5 142.6,354.6 139.7,354.3 138.2,352.7 135,352.6 132.5,352.8 131.7,351.7 132.8,349.2 
		133.2,346.4 130.9,342.9 129.3,339.9 130,338.6 131.2,336.7 129,333.3 127,333 125.1,331.9 124.4,329.4 123.1,327.5 122.9,326.7 
		123.7,324.7 123.4,323.1 121.9,322.7 121.1,323.3 120.4,322.7 119.8,321.2 118.5,320 118.9,318.8 120.1,317.3 119.5,315.9 
		117.4,315.8 114.6,316.4 110.7,315.1 107.7,312.9 106.8,310.6 103.9,309.4 102.1,309.1 101.5,309.8 101.3,311.1 100.4,311.3 	"/>
	<g>
		<text transform="matrix(1 0 0 1 54.8458 272.1202)" class="st1 st2">Nawabganj</text>
	</g>
	<g>
		<text transform="matrix(1 0 0 1 72.5704 336.0822)" class="st1 st2">Dohar</text>
	</g>
	<g>
		<circle class="st4" cx="144.7" cy="292.5" r="13.4"/>
		<text transform="matrix(1 0 0 1 138.7296 299.7906)" class="st1 st5">1</text>
	</g>
</g>
<g id="dhaka-2">
	<g id="divi-dhaka">
		<polygon class="st0" points="205.1,282.3 211.3,286.3 220.9,293 228.4,298.8 235.2,305.1 238.8,307.1 241.3,307.3 245.9,308.9 
			250.1,308.2 255.9,303.4 257.4,300.6 258,299.4 259.8,297.4 262.4,297.3 264.5,298.3 269.6,298.4 275.4,299 277.8,300.1 
			279.4,303.3 281.4,306.1 284.4,308.6 292,315.7 298.2,321.7 302.5,327.5 303.5,328.5 304.3,328.4 307.6,323.5 310.1,319.9 
			313.2,317.2 315.6,316.2 317.8,316.6 319.5,317 321.3,316.1 322.9,314.8 326.4,314.2 328.3,313.3 331.1,313.2 332.4,312.8 
			333.4,311.4 333.3,309.3 333.7,307.9 331.1,303.2 328.2,300.2 325.3,296.3 322.1,291.9 319.7,288.1 318.6,286.6 317.5,285.7 
			313.6,280.8 309.3,276.6 307.8,276.2 305.4,274.4 300.9,270 300.7,268.1 298.1,266.4 295.6,262.6 290.7,258.7 288.8,258 
			284.7,254.9 280.9,253.6 277.4,254.2 275.9,254.9 271.8,255.8 268.1,256.2 265.1,256.7 261.3,256.7 258.6,255.8 256.2,252.7 
			255.2,247.2 254.8,242.6 253.3,240 248,231.3 243.8,226.3 242.3,226.2 240.3,226.3 239.1,227.7 237.7,229.2 236.6,229.4 
			235.5,228.8 234.9,228.2 234,228.2 232.7,229.2 231.7,229.8 230.5,229.5 226.9,226.3 225.2,224.2 224.5,222.6 223.4,221.6 
			222.8,220.7 222.5,219.3 221.6,217.6 221.7,214.3 222.7,212.5 222.8,210.9 221.9,209.5 220,208.9 216.6,209.3 214.8,210.4 
			212.2,210.7 209.6,211.5 207.7,211.8 206.8,212.3 206.7,213.2 206.8,215.6 206.2,217.9 206.3,219.3 206.5,221.5 206.8,222.5 
			206.5,223.5 205.9,224.5 204.6,224.6 203.7,224.1 202.9,223 202.3,222.5 201.7,222.9 200.3,224.7 198.9,226 197.7,226.2 
			195.5,226.9 192.9,227.3 190.6,227.5 189,227.5 187.8,226.8 185.5,224.8 183.8,223.1 182.6,221.7 181.8,220.4 181.8,219.3 
			182.8,218.4 183.1,217.5 182.6,216 181.5,214.1 181.6,213 181.5,212 180.1,210.9 178.2,208.1 175.1,205.7 172.7,204.1 
			171.3,203.4 170.7,202.2 170.1,202 166,208.6 162.4,214.2 161.6,216 161.2,218.6 159.2,221.9 157.4,223.8 156.9,226.4 157.6,229 
			159.2,232.1 161.9,233.3 166.7,234.1 170,235.4 173.7,239.3 176.9,241.7 179.5,243.1 180.7,243.8 182.9,248 183.5,250.5 
			184.8,252.2 196.3,266.6 198.5,270.7 200.7,276.3 		"/>
		<g>
			<text transform="matrix(1 0 0 1 197.5238 269.9048)" class="st1 st2">Keraniganj</text>
		</g>
	</g>
	<g>
		<circle class="st4" cx="215.3" cy="243.3" r="13.4"/>
		<text transform="matrix(1 0 0 1 209.3593 250.5906)" class="st1 st5">2</text>
	</g>
</g>
<g id="dhaka-3">
	<polygon class="st0" points="274.8,262.1 284.3,263.6 281.5,266.9 268.9,274.1 275.3,279.3 275.1,287 253.3,287 252.1,291.4 
		259.5,297.9 260,297.4 262.7,297.3 264.8,298.3 269.9,298.4 275.8,299 278.3,300.1 279.9,303.4 281.9,306.2 284.8,308.6 
		292.4,315.7 298.6,321.8 303,327.6 303.9,328.5 304.4,328.4 307.7,323.6 310.2,320 313.4,317.2 315.8,316.2 318.1,316.6 319.7,317 
		321.5,316.1 323.1,314.8 326.6,314.2 328.6,313.3 331.3,313.2 332.5,312.8 333.4,311.6 333.3,309.5 333.7,308.2 331.2,303.6 
		328.3,300.6 325.4,296.7 322.2,292.3 319.8,288.5 318.7,287 317.6,286.1 313.7,281.2 309.4,277.1 307.9,276.6 305.5,274.8 
		300.9,270.3 300.7,268.5 298.2,266.8 295.7,263 290.8,259.2 288.9,258.4 284.8,255.4 281.1,254.1 278.8,254.5 273.9,256.6 	"/>
	<g>
		<circle class="st4" cx="295.2" cy="289.4" r="13.4"/>
		<text transform="matrix(1 0 0 1 289.204 296.7142)" class="st1 st5">3</text>
	</g>
</g>
<g id="dhaka-18">
	<path class="st6" d="M620,140.3l-2.3-1.5l-2-0.2l-1-2.1l-1.4-3.9l-2.8-1.2l-3.2-3.8l-4-4.8l-3.2-2.4l0,0l-1.4-3.2l-1-3l-0.2-5.9
		l-0.5-1.5h-3.2l-2.3,2.3l-3,2.8l-1.4-0.6h-0.7l-0.2-1.9l0.4-7.2l1.2-4.4l2.6-3.2l5.1-3.5l1.3-2.9l-0.6-3.9l0-2.4l1.8-2.4v-1.1
		l-4.1-4.1l-1.4-2.6l-4.6-4.6l-0.4-1.2l-1.7-2.1l-2.6-0.6l-2.4-2.4l-0.4-2l0,0l0.6-4.2l2.7-1.9l-0.9-2l-2.8-1.2l-1.1-0.8l0.2-1.5
		l2-3.1l-0.6-5.1l1-2.5l-0.9-1.9l-4.3-3.1l-6,0.2l-2.6,1.6l-1.6,0.2l-6-2l-3.3-2.7l-3.2,0.2l-1.1-0.7l-0.2-1.8l-0.5-1.1h-6.3l-0.3,1
		l0.8,1.4l-0.4,1.7l-3.6,2.8l-8.3,6.9l-7.8,7.4l-7.1,2.2l-4.9,3.7l-3.6,2l-6.1,0.4l-5.7-0.2l-4.9,1.4l-0.1-0.2l-0.1,0.4l-3.6,0.4
		l-3.1-4.1l0.2-6.4l-0.8-1.9l-2.8-4.1l-3.1-4.1l-4.5,0.2l-2,0l-1.5-0.6v-1l1.9-0.6l2.3-1.3l0.5-1.3l-1-2.1l-1-1.9l-1.1-0.4l-1.6,1.2
		l-3.8,1.4l-4.3,1.2l-4.4,2.6l-5.3,0.4l-11.1,2.8l-5.8,2h-0.1l-1.2,1.9l-4,3l-3.5,1.4l-0.9,2.6l1.8,1.6v2.7l0,0l-2.5,3.5l0.4,3.9
		l0.4,2.1l2.6,1.2l1.4,1.8l2.4,4.5l-0.9,1.3l-3.3,2.7v2.7l1.2,2l0,0.1l-1.8,6.8l-1.2,1.4l-1.4,1.6l-1,3.3l-0.8,2.6l-1.8,4.6
		l-1.9,0.6l-3-1.2l-5.1,1.9l-2,2.3l-0.6,0.6l-0.6,0.4l-2.3,1.2l-1.3,3.1l0.8,1.7l0.8,1l4.4,5.6l0,0l0.4,2.8l-2.8,3l-1.4,2.4
		l-0.2,0.2v0.1l0.4,4.8l-0.8,2l-0.6,1.5l0.2,1.1l0,1.3l1.7,1.5l1.4,1.4l3,2.2h3v3.3h2.9v-3.2h3.9v3.3h7.5v3.2h-4.3v3.8h3.4h0.2h3.6
		V139H430v-3.9h4.1v-20.6l-3.4-3.8h3.4v-3.6h10.1v7h4.1v3.7l3.2,3.4H448v3.6h3.6v3.8h7.3v3.4h3.1v3.4h3.6v10.6h6.6v-17.3h-3.6v-7.4
		h4.2v-7h13.8v-6.9l-6.8-6.4l-3.7-7.8h3.9l6.4-7h4.1l9.9,10.8h3.4v3.4l3.9,3.6l3.4,6.9h3.4v3.7l7.2,6.7l-3.2,4h-4V160h3.1v3.2h-2.9
		v3.8h3.4v3.2l3.1-3.7h3.5V163h0.3v3.6h7.4l2.5-3.1h4.1v-6.6c0-0.1,0-0.2,0.1-0.3c0.7-0.6,5.4-0.1,6.5,0.1v-4.5h3.8v-6.5h3.6v-6.9
		l7.2-0.3l4-3.8v4.3l13.3-0.6l3.3,3.6h7.3l0,0.1c1.4,1.7,3.1,3.6,3.3,3.7c0,0,0,0,0,0c0.4,0,20.7,0.5,25.8,0.7l2-2.8L620,140.3z"/>
	<g>
		<circle class="st4" cx="556" cy="98.2" r="9.6"/>
		<text transform="matrix(1 0 0 1 548.1935 102.6339)" class="st1 st8">18</text>
	</g>
</g>
<g id="dhaka-16">
	<polygon class="st9" points="465.3,135.6 461.7,135.6 461.7,132.2 458.6,132.2 458.6,128.8 451.3,128.8 451.3,125.1 447.7,125.1 
		447.7,120.9 450.8,120.9 448,117.9 448,114.4 443.9,114.4 443.9,107.4 434.4,107.4 434.4,111 431.4,111 434.4,114.4 434.4,135.4 
		430.3,135.4 430.3,138.7 434.2,138.7 434.2,149.9 430.3,149.9 430.3,156 437.3,156 437.3,159.9 444.4,159.9 444.4,155.8 
		448.3,155.8 448.3,159.7 451.6,159.7 451.6,166.6 455.2,166.6 458.7,170.1 461.6,170.1 461.6,167 468.7,160 472.2,160 472.2,146.2 
		465.3,146.2 	"/>
	<g>
		<circle class="st4" cx="449.5" cy="144.5" r="9.6"/>
		<text transform="matrix(1 0 0 1 441.6798 148.8942)" class="st1 st8">16</text>
	</g>
</g>
<g id="dhaka-14">
	<path class="st0" d="M423.1,219v-3.5h4v-3.3h3.9v3.9h6.1v-3.9h7.1l4.1-3.5v-3h-4.8V202h-2.8v-10.6h3.9v-6.9h-3.9v-3.4h-3.3v-4l0,0
		c0-0.1,5-5.2,10.2-6.9l0,0h3.6V160H448v-3.9h-3.3v4.1H437v-3.9h-7v-6.5h-3.6v-4.4h4.3v-2.6h-7.5v-3.3h-3.3v3.2h-3.5v-3.3h-2.3
		l0.5,0.3l-0.7,1.7l-5.7,5.5v0.1l0.4,2.7l2.7,1.7l2.3,1.2l-1,3.5v0.2l-1.6,8.1l0.6,2.9l3.5,4.9l0.2,0.2l1.8,4.4v3.4l-4.6,3.8v2.5
		l-0.4,8.8l-2.4,6.6l-0.9,0.2l-1.1,0.2l-0.3,0.9l1,4.7l1.8,3.2l0.2,1.7l-2,2.2l-0.9,1.8l2.4,0.9l3.8,2.2l2.3,0.9V219H423.1z"/>
	<g>
		<circle class="st4" cx="427.2" cy="193.6" r="9.6"/>
		<text transform="matrix(1 0 0 1 419.4054 198.0563)" class="st1 st8">14</text>
	</g>
</g>
<g id="dhaka-15">
	<path class="st10" d="M461.9,167.2v3.2h-3.3l-3.5-3.5h-3.5v3.5h-3.9c-4.9,1.7-9.6,6.3-10,6.8v3.6h3.3v3.4h3.9v7.5H441v10h2.8v3.7
		h4.8v6.5h6.3v-3.4h6.6v-3.1h4.3l3,3.4v10.4h3.9V230h6.5v-7.5h3.5v-7.1h3.5v-9.6h-2.8v3.6h-4.4v-42.1h-3.2v-3.6h-3.7v-3.2h-3.4
		L461.9,167.2z"/>
	<g>
		<circle class="st4" cx="464.5" cy="189.9" r="9.6"/>
		<text transform="matrix(1 0 0 1 456.671 194.34)" class="st1 st8">15</text>
	</g>
</g>
<g id="dhaka-13">
	<polygon class="st11" points="430.2,261.5 430.2,257.7 434.3,257.7 434.3,261.5 437.7,261.5 441.3,257.7 444.4,257.7 444.5,257.8 
		448.1,261.9 448.1,265.2 454.8,265.2 454.8,261.3 458,261.2 455.1,258.2 455.1,254.9 450.8,254.9 450.8,250.6 454.4,247.6 
		458.6,247.2 458.6,243.8 461.5,243.8 461.5,240.4 457.8,240.4 457.8,237.1 454.8,234.1 454.8,226.5 451.3,226.5 451.3,219.3 
		454.6,219.3 458,215.9 465.5,215.9 468.6,212.8 468.6,209 465.8,205.8 461.9,205.8 461.9,208.9 455.3,208.9 455.3,212.3 
		448.4,212.3 448.4,209.1 444.4,212.6 437.5,212.6 437.5,216.4 430.8,216.4 430.8,212.6 427.4,212.6 427.4,215.9 423.4,215.9 
		423.4,219.4 416.4,219.4 416.4,221.1 417.8,221.7 417.8,222.1 418.8,222.7 420,224.7 420.4,226.8 419.5,228.1 417.2,230 
		414.4,232.8 409.9,238.3 407.7,243.7 402.3,249.4 400.6,251.9 400.6,254.6 402.5,256.3 404.5,256.9 406.1,255.3 407,255.1 
		407.9,255.8 410.2,259.1 415.2,262.7 418.5,264.2 421.8,263.8 423.1,263.8 423.1,261.5 	"/>
	<g>
		<circle class="st4" cx="436.8" cy="239.2" r="9.6"/>
		<text transform="matrix(1 0 0 1 429.0441 243.6759)" class="st1 st8">13</text>
	</g>
</g>
<g id="dhaka-11">
	<path class="st12" d="M514.7,244v-3.4h-3.4V230h3.3v-3.3h3.4V223h-14.3l-3.3-3.3h-6.9v-7.1H490l-3.4,3v0.1h-3.5v7.1h-3.5v7.5h-7.2
		v-10.8h-3.9v-6.3l-2.9,3h-7.5l-3.4,3.3h-3.1v6.6h3.5v7.8l3,3v3.1h7.7v3.4h3.3V240h3.6v10.5l3.5,3.3h6.9v4.1l3.3,0v-0.2l4.4,3.4h2.4
		v-3.3h7.7l0,0c0.1,0.1,0.1,0.1,0,3.5h3.1v-3.9h6.9V254h3.2v-3.1h3.5V244H514.7z"/>
	<g>
		<circle class="st4" cx="491.5" cy="240.2" r="9.6"/>
		<text transform="matrix(1 0 0 1 483.6564 244.6535)" class="st1 st8">11</text>
	</g>
</g>
<g id="dhaka-12">
	<polygon class="st13" points="461.5,297 461.5,296.1 450.3,296.1 450.3,293.5 440.1,293.5 441.4,303.1 442,308.1 444.9,313.6 
		447.8,317.7 448.6,317.9 455.7,307.2 	"/>
	<polygon class="st13" points="482.7,272.5 482.7,268.2 486.4,268.2 486.4,258.3 482.8,258.3 482.8,254.2 476,254.2 476,254.1 
		472.3,250.6 472.3,240.3 469.3,240.3 469.3,243.8 465.4,243.8 465.4,240.4 461.8,240.4 461.8,244.1 458.9,244.1 458.9,247.5 
		454.6,247.9 451.1,250.8 451.1,254.6 455.4,254.6 455.4,258.1 458.7,261.5 455.1,261.6 455.1,265.5 447.8,265.5 447.8,262.1 
		444.3,258 441.5,258 437.8,261.8 434,261.8 434,258 430.5,258 430.5,261.8 423.4,261.8 423.4,263.8 424.7,263.8 425.7,265.7 
		427.1,272 428.5,276.6 430.7,280 431.7,283.5 433,287.2 434.3,288.7 436.4,287.6 437.9,287.4 439,287.8 439.8,291.4 440,293.2 
		450.6,293.2 450.6,295.8 461.5,295.8 461.5,293 466.1,293 466.1,282.3 472,282.3 472.6,279.3 479.3,278.9 479.3,275.7 	"/>
	<g>
		<circle class="st4" cx="452.9" cy="275.4" r="9.6"/>
		<text transform="matrix(1 0 0 1 445.1066 279.8224)" class="st1 st8">12</text>
	</g>
</g>
<g id="dhaka-8">
	<path class="st0" d="M514.4,251.2v3.1h-3.2v3.5h-6.9v3.9h-3.7l0-0.2c0-1.1,0-2.9,0-3.4h-7.2v3.3h-2.8l0,0l-3.9-3v10H483v4.1
		l-3.4,3.2V286l3.5,3.3l-2.8,3.4h6l3.8,3.2v-2.9h10.6v-0.3h10.3l3.5,3.6h20.9v-3.3h-3.6v-34.7l-6.9-0.6l0,0l-3.3-3H518v-3.5h-0.4
		H514.4z"/>
	<g>
		<circle class="st4" cx="509.2" cy="277.2" r="9.6"/>
		<text transform="matrix(1 0 0 1 505.6818 281.6896)" class="st1 st8">8</text>
	</g>
</g>
<g id="dhaka-9">
	<polygon class="st0" points="613.3,225.7 612.9,223 610.7,219.1 608.4,216.2 605,214 599.6,211.4 596.8,207.8 596.5,205.5 
		581.6,205.5 581.6,209.2 581.6,209.2 577.7,212 577.7,215.7 581.3,215.7 581.3,219.4 577.9,219.4 574.1,223.1 574.1,226.8 
		570.2,226.8 570.2,230.3 567,230.3 567,236.6 570.8,236.6 570.8,240.6 556.7,240.6 556.7,234.1 553.1,233.9 553.1,230 549.7,230.3 
		549.3,233.2 542.4,233.4 542.4,237.2 539.6,237.2 539.6,240.4 536,240.4 535.4,244.1 532.2,244.2 531.9,248.1 531.9,248.1 
		528.3,251.2 518.3,251.2 518.3,254.4 521.5,254.4 524.9,257.5 532,258.1 532,292.8 535.7,292.8 535.7,296.6 535.7,296.7 
		535.7,299.6 536,299.6 535.7,300 542.8,300 545.1,296.6 542,296.6 542,292.9 560,292.9 560,286.4 560,286.4 563.6,282.2 
		566.5,282.2 570.7,278.8 580.6,278.8 584.4,275 584.6,271.9 581.9,268.7 577.1,268.7 577.1,261.4 580.4,257.9 577.7,253.5 
		580.7,253.5 584.6,247.5 595.2,247.5 595.2,240 597.5,236.9 612,236.9 611.9,234.5 612.3,228.9 	"/>
	<g>
		<circle class="st4" cx="561.2" cy="260.5" r="9.6"/>
		<text transform="matrix(1 0 0 1 557.6505 264.8996)" class="st1 st8">9</text>
	</g>
</g>
<g id="dhaka-7">
	<polygon class="st14" points="503.9,303.5 503.9,296.6 500.7,296.6 500.7,293.4 490.4,293.4 490.4,296.6 486.2,293 479.6,293 
		482.7,289.4 479.3,286.1 479.3,279.3 472.9,279.6 472.2,282.6 466.4,282.6 466.4,293.3 461.8,293.3 461.8,295.8 462.3,295.8 
		462.3,300.7 469.2,306.9 473.4,306.9 473.4,310.6 482.9,310.6 482.9,316.1 484.7,315.7 489.1,313.1 491.5,313.3 496.9,313.5 
		504.2,317.8 504.2,314 510.7,314 510.7,303.5 	"/>
	<polygon class="st14" points="473.1,310.9 473.1,307.2 469.1,307.2 469.1,307.2 462,300.8 462,296.1 461.8,296.1 461.8,297.1 
		461.7,297.1 456,307.4 448.9,318 453.1,319.4 462.8,319.4 470.1,319 473,318.8 474.2,318.4 479.2,316.9 482.6,316.1 482.6,310.9 	
		"/>
	<g>
		<circle class="st4" cx="478.2" cy="302.3" r="9.6"/>
		<text transform="matrix(1 0 0 1 474.6271 306.7462)" class="st1 st8">7</text>
	</g>
</g>
<g id="dhaka-6">
	<polygon class="st11" points="532.3,331.1 532.3,327.6 538.4,327.6 534.8,324.1 534.8,321.2 531.7,321.2 531.7,300 535.3,300 
		535.3,296.7 514.3,296.7 510.8,293.1 501,293.1 501.6,293.1 501.6,293.4 501,293.4 501,296.3 504.2,296.3 504.2,303.2 511,303.2 
		511,314.3 504.5,314.3 504.5,318 508.2,320.2 513.2,325.2 518.1,330.4 525.4,338.1 525.5,338.1 525.5,331.1 	"/>
	<g>
		<circle class="st4" cx="522.5" cy="315.2" r="9.6"/>
		<text transform="matrix(1 0 0 1 518.9591 319.5968)" class="st1 st8">6</text>
	</g>
</g>
<g id="dhaka-4">
	<polygon class="st15" points="580.8,349 580.8,345.7 560.2,345.7 560.1,345.7 556.4,345.7 556.4,345.4 560.1,345.4 560.1,341.6 
		556.3,341.6 556.3,338.1 552.4,338.1 552.4,327.8 546.1,327.8 546.1,324.7 542.5,324.7 542.5,320.7 539.1,320.7 539.1,317.5 
		535.5,317.5 535.5,313.9 532,313.9 532,320.9 535.1,320.9 535.1,324 539.2,327.9 532.6,327.9 532.6,331.4 525.8,331.4 525.8,338.4 
		529.2,341.6 529.6,341.6 530.6,343.4 534.9,347.8 552.9,362.8 557.5,368.8 564.6,378.5 566.5,379.9 568.2,377.5 570.9,374.9 
		571.7,371.4 572.5,369.4 572.7,367.1 572.7,365 573.6,364.4 576,364.4 578.1,362.8 578.8,360.9 579.2,357.5 580.4,354.5 
		583.3,352.7 584.3,352.7 584.3,349 	"/>
	<g>
		<circle class="st4" cx="549.3" cy="346" r="9.6"/>
		<text transform="matrix(1 0 0 1 545.7306 350.4377)" class="st1 st8">4</text>
	</g>
</g>
<g id="dhaka-5">
	<path class="st7" d="M655.2,315.1l-4.1-4.9l-6.5-3.7l-4.6-3.2l-1.4-3.2l-2-2.7l-1-1.2l0.4-2.2l1-4.4l0-2.3l-1.9-1.9l-2.6-1.8
		l-4.2-1.6l-3.4-2.6l-0.4-3.1l1.6-3.8l0.6-2.7l0.8-2.6l-0.2-1.8l-2.1-0.6l-5.4-2l-3.2-2.4l0-0.1L616,257l0,0l1.4-3.2l2.5-2.5v-2.6
		l-3.1-2.7l-3.4-2.4l0,0l-1.4-3.2l-0.1-3h-14.3l-2.2,2.9v7.7h-10.8l-3.9,6h-2.6l2.5,4.2l-3.4,3.6v6.9h4.6l2.9,3.4l-0.2,3.3l-3.9,3.9
		h-10l-4.2,3.4h-2.9l-3.5,4v6.7h-18v3h3.3l-2.7,4.1h-7.4l-0.2,0.5l-0.2-0.5H532v13.3h3.8v3.6h3.5v3.2h3.4v3.9h3.6v3.1h6.3v10.3h3.9
		v3.5h3.8v4.1h20.7v3.3h3.5v4h1.8l1.7,1.7v2.4l0.8,0.8l0.1-0.1c0.5-0.5,1.3-1.3,1.3-1.5v-0.1l0,0c0,0,0.2-0.3,0.6-1.9l0-1.7h0.9
		l0.6,2.4l1.6,0.7l1.1-1.4l0-3.2l0.8-1.9l1.8-0.4l1.9-1.5l2.2-4l2.8-2.2l6.9-1.4l6.3-2.6l5.1-4.7l1.6-4.2l2.1-0.6l0,0l5.3,0.2
		l3.9-0.4l1.5-1.3l1.2-4.4l1.2-1.8l6.2-0.2l4.7-0.6l5-1.7L655.2,315.1z"/>
	<g>
		<circle class="st4" cx="595.5" cy="310" r="9.6"/>
		<text transform="matrix(1 0 0 1 591.9913 314.4025)" class="st1 st8">5</text>
	</g>
</g>
<g id="dhaka-10">
	<path class="st3" d="M587.9,142.3h-7.3l-3.3-3.6l-13.5,0.6v-3.9l-3.6,3.4l-7.1,0.3v6.9h-3.6v6.5h-3.8v4.5l-0.2,0
		c-2.2-0.3-6-0.6-6.5-0.2l0,6.9H535l-2.5,3.1h-7.5v3.4l3.4,3.1v11.3l4.2,3.1v14.1h-8.4v13.9h-2.7v6.9h-3.1v0.1h0.1v0.3h-0.1v4.1
		h-3.4v3.3h-3.3v10h3.4v3.4h2.9v7.2h0.4h9.8l3.5-3l0.3-4.1l3.2-0.1l0.6-3.7h3.5v-3.2h2.9v-3.8l6.9-0.3l0.4-2.8l4-0.3v3.9l3.6,0.1
		v6.5h13.5v-3.4h-3.9V230h3.2v-3.5h3.9V223l3.9-3.9h3.2V216h-3.6v-4.2l0.1,0l3.9-2.8v-3.8h15.1l0-0.1l0.4-2.3l3.2-2.4l4.8-3.6
		l3.5-3.5l1.9-3.1l1.2-10.1l0.6-2.1l-1-2.2l0.6-1.7l1.5-0.4l1.5-0.6l1.3-4.4l-1.2-2.6l0.6-3L615,160l1-1.5l0,0l5.3-2.2l1.1-1.5
		l-0.5-1.2l-0.2,0c-2.5-1.1-3.1-1.2-3.1-1.2h-0.1l-2.3-2.3l0.4-3.3l0.2-0.2c-5.3-0.1-25.3-0.7-25.6-0.7
		C591,146,589.3,144,587.9,142.3z"/>
	<g>
		<circle class="st4" cx="570.8" cy="185.5" r="9.6"/>
		<text transform="matrix(1 0 0 1 563.0421 189.8966)" class="st1 st8">10</text>
	</g>
</g>
<g id="dhaka-17">
	<polygon class="st16" points="493.9,212.3 493.9,219.4 500.6,219.4 503.8,222.7 518,222.7 518,222.3 521.1,222.3 521.1,215.4 
		523.9,215.4 523.9,201.5 532.3,201.5 532.3,187.9 528.1,184.8 528.1,173.5 524.6,170.4 524.6,166.8 521.3,166.8 517.8,171.1 
		517.8,167.3 514.4,167.3 514.4,162.9 517.3,162.9 517.3,160.3 514.1,160.3 514.1,124.9 518.3,124.9 521.2,121.2 514.1,114.6 
		514.1,111.1 510.8,111.1 507.4,104 503.4,100.4 503.4,97.2 500.2,97.2 490.2,86.4 486.5,86.4 480,93.4 476.5,93.4 479.9,100.7 
		486.8,107.1 486.8,114.5 473.1,114.5 473.1,121.5 468.9,121.5 468.9,128.3 472.5,128.3 472.5,163.3 476.2,163.3 476.2,166.9 
		479.4,166.9 479.4,209 483.2,209 483.2,205.4 486.6,205.4 486.6,215.2 489.9,212.3 	"/>
	<g>
		<circle class="st4" cx="501.1" cy="185.5" r="9.6"/>
		<text transform="matrix(1 0 0 1 493.297 189.921)" class="st1 st8">17</text>
	</g>
</g>
<path class="st17" d="M377,15.3v177.6h-50.2v-33.8h-70.5v70.5h70.5v-33.8H377v194.2h298V15.3H377z M324.9,227.6h-66.5v-66.5h66.5
	v31.8v2.8V227.6z M673,387.9H379V195.7v-2.8V17.3h294V387.9z"/>
</svg>
