<?xml version="1.0" encoding="utf-8"?>
<!-- Generator: Adobe Illustrator 25.2.1, SVG Export Plug-In . SVG Version: 6.00 Build 0)  -->
<svg version="1.1" id="Layer_1" xmlns="http://www.w3.org/2000/svg" xmlns:xlink="http://www.w3.org/1999/xlink" x="0px" y="0px"
	 viewBox="0 0 378 266.8" style="enable-background:new 0 0 378 266.8;" xml:space="preserve">
<style type="text/css">
	.st0{fill:#ABBEED;stroke:#FFFFFF;stroke-width:0.5;stroke-miterlimit:10;}
	.st1{font-family:'TimesNewRomanPSMT';}
	.st2{font-size:16px;}
	.st3{fill:#FFFFFF;}
	.st4{font-size:24.672px;}
	.st5{fill:#C5CFED;stroke:#FFFFFF;stroke-width:1.033;}
	.st6{fill:#9BB6EA;stroke:#FFFFFF;stroke-width:0.5;stroke-miterlimit:10;}
</style>
<g id="munshiganj-1">
	<path class="st0" d="M189.2,101l-6.4-6.1l-0.4-5.1l8-10.9l-0.2-9.5l-2.9-8.4l-12.4-14l-7.4-10.3l-10.9-11.8l-2.4-5.3L138,18
		l-4.7,7.5l-4.6,5.8l-11.6-1.6L85,1.5l-3.3,1l-1,4.2l-6,3.2v7.6l-2.3,1.7L68,15.7L64.1,16l-1.9,2.4L58,16.9l-0.7,7.6l1.8,2.7v9.9
		l-2.3,3.5l0.6,5.5l1.7,1.5l-0.1,8l4.9,1l2.9-6.3l4,0.4L70,58.4l2.1,4.2l2.6-3.5l3.8,3.7l1.5-4.4l5.5,0.5l1.4,2.8l5-6.6l8.1,5.6
		l2.9,7l3.3,1l0.7,9.9l5.2-0.1l3-8l4.4-2.9l3.2,7.3l2.4,6.6l-1.6,2.2l-3.1-2.4l-4.5,3.2l1.2,2.4l-3.9,2.8l2.6,5.4l-5.6,1.2l7.9,10.5
		l3.3-0.7l2.2,4.1l12.5,0.4l3,4.3l-0.3,5.8l-3.6-0.1l-0.7,7.3l2.8,3.5l5.3,5.8l-1.1,3.4l-5.4-1.2l-2.7,12.8l7.6-1.7l1,4l5.9-1.6
		l2.4,2.7l4-2.6l-0.8-7.8l3.2-9.4l-1.2-5.5l9.1-4.6v12.6c0,0,2.8-0.1,2.8-0.4c0-0.2,1.6-9.3,1.6-9.3l6.7-0.2l1.3-5.2l6-8.1l1.3-4.8
		l3.9-2.4L189.2,101z"/>
	<path class="st0" d="M56.8,40.5l-2.1-6.3l-2.1,1.5l-0.7,6.1l-1.5,1.4l-0.6,5l-7.2,3l-0.1,4.5l1.7,0.4l-0.3,4.3l-2.2,2.4l0.7,4.7
		L39,70.7l-3.5,0.2l-4.1,5.7L31,85.2l-0.3,8.6l-9,7.1l-6-2.7l-2.1,5.6L9,105.4l0.3,3.5l3,2.5l-0.4,8.9l-1.7,2.6l0.8,3.4L9,132
		l-2.6-0.2l-1-2.5l-4.2,3.8l9,9.9l5.1,9.7l5.6,1.2l1.6,7.7l3.2,2.2l-2.5,8L26,180l7.6-0.4l1.2,4.3h8.7l0.3,2.8h2.8l-0.3,3.3l3,4.3
		l1.4-1.4l-0.7-2.8l3.2-0.8l1-3l-15.5-13.1l6.5-12.2l5.6-6l5.8,1l5.3,3.9l5.6-0.2l6.7-3.2l6.1,5.8l6.9-6.5l3.1,3.6l3.2-2.5l3.7,0.1
		l1.3,3.4l6.8-0.5l-0.5-4.6l7.7-2.1v5.4l3.3-0.1l1.7,2.8l7.2-0.7l0.7-4.5l-3.1-3.2l4.9-5.4l0.4-9.9l1.2-7.1l4.2,2.3l3.8-2.1
		l-2.4-2.9l0.7-7.1h3.4l0.4-5.8l-3.1-4.4l-12.3-0.4l-2.2-4.1l-3.3,0.8l-7.6-10.4l5.1-1.3l-2.4-5.3l3.8-2.9l-0.9-2.3l4.3-3.2l3.1,2.2
		l1.7-2.2l-2.4-6.9l-3.1-6.8l-4.4,2.9l-3.1,7.9l-5.2,0.1l-0.7-9.8l-3.2-1.1l-2.8-6.9L92,55.3l-5,6.2l-1.4-2.6L80,58.4l-1.4,4.3
		l-3.7-3.4L72,62.6l-2-4.2l0.7-7.7l-3.8-0.5l-3.1,6.3l-4.7-1c0,0,0-7.8-0.1-7.8s-1.4-1.5-1.4-1.5L56.8,40.5z"/>
	<g>
		<text transform="matrix(1 0 0 1 54.0068 134.1107)" class="st1 st2">Sreenagar</text>
	</g>
	<g>
		<text transform="matrix(1 0 0 1 101.2568 59.2357)" class="st1 st2">Sirajdikhan</text>
	</g>
	<g id="dist-gopalganj-1_1_">
		<g>
			<circle class="st3" cx="79.2" cy="96.5" r="13.4"/>
			<text transform="matrix(1 0 0 1 73.2044 103.7425)" class="st1 st4">1</text>
		</g>
	</g>
</g>
<g id="munshiganj-2">
	<polygon class="st5" points="229.5,239.1 225.9,241.9 218,240.9 218.2,235.3 212.5,238.2 209.1,236.1 208.9,233.8 203.7,234.3 
		200.8,232 198.5,235.6 193.6,235.1 192.9,230.4 185.7,231.3 185.4,237.5 182.2,237 173.8,231.3 169.6,236.6 166.2,235.3 
		162.8,238.4 159.3,232.8 167.8,232.1 167.1,228.1 168.8,227.3 172.8,229.7 175.9,227.3 173.4,220.5 169.5,218.1 171.2,210.9 
		174.9,205.4 179,205.1 182.3,208.6 185.1,205.8 178.7,198.6 181.2,192.1 184.2,191.9 184.1,185.6 165.1,178.7 163.3,182.1 
		160.9,181.9 158,186.6 155.5,185 156,180.5 160.6,174.5 166,163.7 166.4,159.6 173.3,154.1 169.5,148.3 171.8,143.3 172,132.5 
		174.6,132.1 176.9,123.1 182.8,115.1 184,110.2 188.1,107.9 189.1,100.8 196.7,102.8 209.4,96.8 212.3,99.9 205.7,104.1 
		207.5,107.1 217.1,103.1 215.9,111.7 213.6,120.2 210.5,123.4 212.2,127.9 210.3,131.2 210.5,138.5 214.6,138.4 214.4,144.2 
		211.5,145.3 213.7,149.8 219.3,151.7 224,149.3 225.9,151.5 226.3,157.1 231.9,156.8 232.6,167 234.6,169.7 234.1,183.2 
		226.4,200.6 222.4,217.8 222.7,225.7 221,229.6 	"/>
	<path class="st5" d="M159.7,233.6l-3.6,3.7l-4.7-1.1l-8.1-8l1.2-3l2.8-3.6l-3.2-1.5v-5.2c-0.1,0-6.3,0-6.3,0l-0.5,3l-3,0.3
		l-1.4,1.6l-2.1-2.9l-4,2.1l-3.1-1.8l-1.8,1.2l-5.9-0.3l-3.7-5.1l-3.3,0.1l3.1,4l-2.9,0.6l-5.5-5.3l-4.1-1.3l-2.5-5.3l-4.7,0.3
		l-5,5.9l-3.5-0.3l-1.4-2.6l-13.9-14.4l-12.5-7.3l-2.4-1.3l-15-13.1l6.8-12.4l5.5-5.7l5.8,1.1l5.2,3.9l5.6-0.2l6.7-3.2l6.1,5.7
		l7-6.3l3.1,3.4l3.2-2.4l3.7,0.1l1.4,3.1l6.6-0.3l-0.4-4.3l7.7-2.4l0.1,5.3l3.1,0.1l1.7,2.8l7.2-0.8l0.6-4.5l-2.9-3.2l4.8-5.4
		l0.3-10l1.1-6.6c0,0,4.2,2.3,4.2,2.2s3.7-2.1,3.7-2.1l5.9,6.4l-1.2,3.3l-5.4-0.9l-2.7,12.4l7.6-1.4l1.1,3.8l5.8-1.4l2.3,2.7
		l4.2-2.8l-0.9-7.7l3.3-9.6l-1.4-5.2l9.2-4.5v12.4l2.7-0.4l1.7-9.2l6.7-0.1l-1,3.5l-2.7,0.7l-0.1,10.7l-2.3,4.9l3.7,5.9l-6.8,5.6
		l-0.4,4.1l-5.4,10.8l-4.5,5.8l-0.6,4.4l2.4,1.7l3.1-4.6l2.2,0.1l2-3.2l18.8,6.9l0.1,6.1l-3,0.3l-2.4,6.4l6.2,7.3l-2.7,2.7l-3.2-3.5
		l-4.3,0.3l-3.7,5.4l-1.6,7.3l4,2.4l2.4,6.8l-3.1,2.4l-4-2.5l-1.7,0.7l0.7,4l-8,0.8v0.7H159.7z"/>
	<g>
		<text transform="matrix(1 0 0 1 155.3401 165.6107)" class="st1 st2">Tongibari</text>
	</g>
	<g>
		<text transform="matrix(1 0 0 1 79.0068 183.444)" class="st1 st2">Louhajanj</text>
	</g>
	<g id="dist-gopalganj-1_3_">
		<g>
			<circle class="st3" cx="188" cy="188.5" r="13.4"/>
			<text transform="matrix(1 0 0 1 182.0378 195.7425)" class="st1 st4">2</text>
		</g>
	</g>
</g>
<g id="munshiganj-3">
	<polygon class="st6" points="283.8,156.5 282,136.5 274.4,127.1 273.9,116.7 283.3,116.3 285.5,112.5 283.4,99.1 277.2,92.1 
		272.3,76.4 274.8,64.2 290.1,59.1 303.4,58.6 313.8,52.8 317.3,44.6 323.2,47.8 330.6,47.5 334.1,44.1 338.6,50.7 338.8,57.5 
		345.4,69.9 345.9,75.6 338.5,73.9 334.4,72.2 329.8,75.7 330.3,85.5 333.7,89.1 343.5,88.9 347.7,90.8 359.8,103.2 360.4,113.7 
		367.9,132.6 374.7,138.1 375.1,146.7 372.5,153.1 367.1,158 362.7,158.5 357.9,163.3 351.2,163 337.6,156 330.5,149.4 323.4,149.6 
		315.4,160.1 304.1,161.4 300,155.2 294.8,155.5 292.2,157.8 289.6,156.1 	"/>
	<polygon class="st6" points="274.2,116.7 265.8,98.7 254.5,87.2 246.2,83 234.1,82.6 221,88.2 209.2,97 212.4,100.1 205.7,104 
		207.6,107.2 217,102.9 215.8,111.8 213.6,120.3 210.4,123.5 212.2,127.8 210.3,131.1 210.6,138.6 214.5,138.5 214.4,144.2 
		211.3,145.3 213.7,149.8 219.4,151.7 224.1,149.3 225.9,151.5 226.3,157.1 231.8,156.7 232.5,166.9 234.6,169.7 234.1,183.3 
		226.3,200.7 222.4,217.8 222.7,225.7 220.9,229.7 230.1,239.5 234.7,244.3 237,259.6 242.6,259.3 250.8,265.3 258.6,265.2 
		259.1,245.2 266.7,228.6 271.9,221.5 284.1,198.9 283.8,181.3 287.2,178.9 288.9,171 286.5,166.6 283.2,166.3 283.9,156.2 
		282,136.6 274.3,126.8 	"/>
	<g>
		<text transform="matrix(1 0 0 1 287.7983 100.4857)" class="st1 st2">Gajaria</text>
	</g>
	<g>
		<text transform="matrix(1 0 0 1 224.9651 138.4857)" class="st1 st2">Munshiganj</text>
	</g>
	<g id="dist-gopalganj-1_2_">
		<g>
			<circle class="st3" cx="319.7" cy="121.1" r="13.4"/>
			<text transform="matrix(1 0 0 1 312.7044 128.4091)" class="st1 st4">3</text>
		</g>
	</g>
</g>
</svg>
