<?xml version="1.0" encoding="utf-8"?>
<!-- Generator: Adobe Illustrator 25.2.1, SVG Export Plug-In . SVG Version: 6.00 Build 0)  -->
<svg version="1.1" id="Layer_1" xmlns="http://www.w3.org/2000/svg" xmlns:xlink="http://www.w3.org/1999/xlink" x="0px" y="0px"
	 viewBox="0 0 392 409.5" style="enable-background:new 0 0 392 409.5;" xml:space="preserve">
<style type="text/css">
	.st0{fill:#6EADEA;stroke:#FFFFFF;stroke-width:0.5;stroke-miterlimit:10;}
	.st1{font-family:'TimesNewRomanPSMT';}
	.st2{font-size:16px;}
	.st3{fill:#FFFFFF;}
	.st4{font-size:24.672px;}
	.st5{fill:#83C7FF;stroke:#FFFFFF;stroke-width:0.5;stroke-miterlimit:10;}
	.st6{fill:#8BAFE8;stroke:#FFFFFF;stroke-width:0.5;stroke-miterlimit:10;}
	.st7{fill:#7CA7E5;stroke:#FFFFFF;stroke-width:0.5;stroke-miterlimit:10;}
	.st8{fill:#9BB6EA;stroke:#FFFFFF;stroke-width:0.5;stroke-miterlimit:10;}
	.st9{fill:#ABBEED;stroke:#FFFFFF;stroke-width:0.5;stroke-miterlimit:10;}
</style>
<g id="kishoreganj-6">
	<path class="st0" d="M141.8,323.5L141.8,323.5l1.1,4l2,3.9l5.7,3.9l4.7,4.5l1.8,2h4.3l6.6-1.1l2.1,0.3l2,2.6l-0.8,5.7l-2.2,2.8
		l-3.3,1.8l-6.3,1.6l-3,3l0.1,2.8l3.7,3.3l4.6,2l5.9,0.7l9.9,3.6l3.9,2.5l1.9-0.8l7.8-0.3l9.3,0.9l-0.2-7.3l1.8-4.2l1.6-0.9v5.2
		l2.3,0.7l2.6,0.1l1.2-3.2l-1.4-5.7l-3.2-8l-2.7-1.4l0.7-2.6l0.9-6.8l4-4.3l3.9-3l6.4-0.2l3.4,1.1l0.3-1l-1.3-1.3l-2.6-1.9l-0.3-3.6
		l-1.4-0.7l-0.7-4.3l-1.9-1.6l-2.6-0.5l1.3-1.6l-1.2-1.3l-2.7,2.5l-3,1.6l0.5,2.5l-0.7,0.9l-1.3-1.7l-3-0.4c0,0-1.6,0.9-1.5,0.9
		l-1.8-1.1l-0.1-3.4l-1.1-2.4l1.3-3l-0.9-0.7l-1.9,2.1l-3-5.3l-2,0.8l-1.1-1.7l-5.4-0.3l-1,2.9l-1.8,2.3l-3.1,0.6l-1.5-0.5l-0.1-2.6
		l-1.2-4.9l-2.2-0.1l-2.1,2.6l-2.9,1.3h-4.2l-1.4-1.1l-1.4,0.6l-1,1.7l-1.7-1.7l-1.2-3.6l-4.7-5.2l-1.9-1.4l-0.3,1l1.3,4.4l-1.6,3.8
		c0,0-3.4,2.3-3.4,2.4l-1.7,3.5l-3,2.3l-2.9,8.8L141.8,323.5z"/>
	<polygon class="st0" points="237.7,331.5 238.2,333.2 243,339.2 244.8,341.8 253.9,347.1 261.7,350.2 267.8,353.6 274.5,360.1 
		276.6,364.6 278.3,369.8 278.2,374.4 272.5,383.6 267.4,387.9 262.8,390 260.1,392.8 253.7,395.3 243,403.1 238.7,406.8 235.3,406 
		233.1,407.3 225.2,407.6 223,404.9 222.9,398.6 226.5,394.7 226.4,389.9 223.8,388.1 219,386.2 218.9,381.7 215.3,376.7 211.9,376 
		206.8,379.2 201.8,381.4 196.7,381.3 192.4,379 186.5,372.4 194.4,372.1 203.6,372.9 203.4,365.7 205.3,361.5 206.8,360.7 
		206.9,365.8 209.2,366.5 211.8,366.6 212.9,363.3 211.5,357.7 208.4,349.7 205.7,348.3 206.4,345.7 207.3,338.9 211.2,334.6 
		215.1,331.7 221.4,331.5 224.9,332.6 225.2,331.6 224.1,330.4 226.6,327.7 228.7,326 226.9,324.1 226.5,322.2 228.4,321.4 
		229.2,324.7 230.8,328.3 233.9,330.3 236.9,331.5 	"/>
	<g>
		<text transform="matrix(1 0 0 1 146.979 332.7827)" class="st1 st2">Kuliarchar</text>
	</g>
	<g>
		<text transform="matrix(1 0 0 1 220.5206 376.3975)" class="st1 st2">Bhairab</text>
	</g>
	<g id="dist-gopalganj-1_5_">
		<g>
			<circle class="st3" cx="214.9" cy="350.1" r="13.4"/>
			<text transform="matrix(1 0 0 1 207.8711 357.4092)" class="st1 st4">6</text>
		</g>
	</g>
</g>
<g id="kishoreganj-2">
	<path class="st5" d="M41.4,187.3l-0.6,2.1l0.9,3.9l-1,2.2l-0.7,3.1l-2,0.7L37.1,210l-3.9,3.2l-2,8.8l4.5,6.7l6,10.6l1.5,7.5
		l-0.4,9.7l1.5,7.3l-0.1,4.8l2.1,1.2l2.3,0.5l2.1,4.2l20.4,7.3l2.9-0.5l5.2,1.2l2,2.4l2.5-0.1l2-2.3l2.1-0.8l0.1-2.7l1.9-2.9
		c0,0,1.5,0.5,1.5,0.4s0.4-0.9,0.4-0.9l-0.8-1.2l2.2-1.1l-2.5-3.9v-2.5l-1.9-1.5l0.8-3.1l1.8,1.9l1.8-1.3l2.8-2.6l-1.1-1.5l2.7-3.2
		l1.4-0.3l2.6,3.1l1.4-0.6l2.9-2.4l2.6-0.6l1.5-2.9l0.4-2.8l-1.8-1.9c0,0,1.3-2.1,1.3-2.2c0-0.1,1.5-5.9,1.5-5.9s-0.1-4.1-0.2-4.1
		s-1.1-1.1-1.1-1.1l0.5-5.8l-0.2-5.7l0.4-3.5l-5.9-0.3L103,214l-2.1-1.2l0.1-3.3l-1.2-3.8l0.7-1.9l0.2-3l-1.9-4.7l-2.7-1.8l-2.4,0.1
		l-1.7,1.2l-2.6,0.3l-1.7,2l-1.8,0.1l-0.9,1.4l-1.3-0.2v-3.9l-1.1,0.2l-0.4-4.8l-5.8,0.1l-3.2-2.4l-3.3-1.6l-1.3,1l-3-0.9l-2,1.5
		l-1.8-1.3l-5.5,3.7l-1-2.9l-1.8-0.7l-6.9,3.5l-1.6-1.6l-1.2-0.1l-2.2-1.7L41.4,187.3z"/>
	<path class="st5" d="M86.5,282.4l0.3,1.6l9.9-0.5l2.8-1.6l1.2-2.9l2.3-2.5l5.8-1.2l3.7,1.1h3l1.5,2l3.1,1.4l2.3,2.4v2.4l-1.9,3.5
		l0.2,2.6l2.7,2.4h2.8l1.8,2.5l-0.3,2l-2.2,2.1l0.3,2.4l1.3,2.1l-3.4,3.3l0.4,2.6l2.9,3.5l6.4,3.1l1.5-0.3l-0.4-1.7l1.6-0.7l2,5.2
		l1.5,2.1l4.1,2.3l1.4-4.3l1.5-4.7l3-2.3l1.6-3.3l3.3-2.3l1.5-3.6l-1.3-4.2l0.3-1.1l-1.4-1.7l-1.7-0.3l-2,2.1l-3.3-1.3
		c0,0-1.9-2-1.9-2.1s2-3.5,2-3.5l-0.1-2.3l-2-4.9l3.6-1.6l0.5-1.1l0.1-3.1l0.3-1.6l1.4-1.3h2.4l1.1-1l1.1,1.1l0.9-0.6l-0.3-0.9
		l1.6-1.5l1.4,0.5l1.1,1.6l3.9,0.2l0.8,1.8h4.4l0.2-1l-0.9-0.8v-1.8l4.7-0.1l0.5-1.3l-4.2-5.9l0.3-1.3l1.5,2.1l0.8-0.7l-1.8-3.2
		l0.9-1.1l2.8-0.1l1.3-1.4l1.6,1.1l0.8-0.4l0.9-1.9l0.3-4.8l1.3-1l3.5,1.1l0.2,2.3l0.9,1.2l1-0.4l0.3-4.8l-0.8-1.7l-0.1-3l-0.3-1.7
		v-3.2l-3-0.2l-0.7-0.9l0.3-1.1h4.3l1.7-0.6l2.4,0.5l4.5-5.7l2.3-0.2l2.5-1.8l-0.1-6.1l-0.7-1.6l0.3-2.2l2-4l-3-3.6l-3-3l-0.3-3
		l-1.7-1.1l-0.4-1.8l-4.2,0.6l-0.2-0.8l2.1-3.3l-1.3-1.6l0.5-2.4l-3.2-0.5l-2.4,0.9l-1.3-0.2l-1.5,1.3l-2.9,0.2l-0.2,2.2l-1.4,1
		l-3.8-0.2l-7,4.2l-4-1l-1.8-1.4l-1.4,0.5v2.6l-3.5,1.2l-0.6,1.8l-1.7,0.1l-1.1,1.7v2.3l-1,0.2l-1-1.7l-2.2-0.5l-0.7-1.8l-3.7-4.5
		l-2.1,0.4c0,0-2.2-0.9-2.3-0.9s-3,3.2-3,3.2l-1,0.1L133,208l-1.6-0.3l-1.2,1.8l-3.3-0.5l-0.2-3.6l-2.5-3.7l-2.3,1.1l-0.5,2.8
		l-1.4,2.7l-3.7,4.7l1.7,1.8l-1.1,0.8l-4.6,0.1l-1.5,3.4l-0.2,0.1l-0.4,3.5l0.2,5.7l-0.5,5.8l1.2,1.1l0.2,4.1l-1.5,5.9l-1.3,2.2
		l1.7,2l-0.4,2.8l-1.5,2.9l-2.6,0.6l-2.9,2.4l-1.4,0.6l-2.7-3.1l-1.4,0.3l-2.7,3.2l1.1,1.4l-2.7,2.5l-1.9,1.3l-1.7-1.9l-0.8,3.1
		l1.9,1.6v2.5l2.5,3.9l-2.1,1.2l0.8,1.1l-0.4,0.9l-1.4-0.4l-1.9,2.9l-0.1,2.6L86.5,282.4z"/>
	<g>
		<text transform="matrix(1 0 0 1 115.3748 265.5845)" class="st1 st2">Katiadi</text>
	</g>
	<g>
		<text transform="matrix(1 0 0 1 40.1873 227.814)" class="st1 st2">Pakundia</text>
	</g>
	<g id="dist-gopalganj-1_3_">
		<g>
			<circle class="st3" cx="154.4" cy="236.8" r="13.4"/>
			<text transform="matrix(1 0 0 1 148.3711 244.0758)" class="st1 st4">2</text>
		</g>
	</g>
</g>
<g id="kishoreganj-5">
	<path class="st6" d="M176.6,260.2l-0.2,0.8c0,0,1.1,1.1,1.1,1s1-1.7,1-1.7l4.3,0.9l1.6,2.1l0.2,5l4.6,1l-3.8,3.4l1.1,1l3.8-2.7
		l1.4-0.3l2.9-4.4c0,0,5.7-4.8,5.7-4.9s1.2-2.5,1.2-2.5l1.3,0.2l0.8,1.6l-3.1,5.5l0.3,1.7l3.5-1.2l3.9,2l6.5,0.5l3.2-1.5
		c0,0,1.5,1.9,1.6,1.8l1.6-0.5l2.9,2.7l2.4-1.8l2.5,1.1l4.3-2.6l1.4-2.8l4,0.3l5.8-0.3l2.1-0.9l1.8-2.2l-0.2-3.3l-1.7-0.1l-0.1-1.6
		l-3.9-0.2l-0.5-2.3l3.3-2.3l0.8-1.4l3.2-1.3l0.9,1.7h2.3l0.1-3.6H252l-0.2-1l2.3-1.1l0.8-2l-0.1-3.4l-5.3-0.3l-0.2-2.6l1.7-4.6
		l3.3-1.7l1-1.8l-3.1-4.6l-1,0.2l-1.8-2.4l-0.1-2.1l-2.6-2.8l-1,1.2l-1.6,0.1l-2-1.3l-3.3,0.3l-0.4-1.7l2.9-4.9l4.3-5.5l1.8-0.5
		l3.6,1.3v1l1.7,1l3.1,0.4l4.6,1.9l2.1-2.9l-0.6-5.1l1.7-1.6l3,1.1l1.2-0.9l-0.3-1.7l-4-4.4l2.3-0.5l0.4-1.1l-1.8-2l-1.4,1.4
		l-1.7-1.3l-1.5,1.5l-2.2-0.6l3.3-4.3l1.8-4.1l0.2-3.6l-1.4-0.3l-4.6-3.8l0.7-1.8l0.9-1.7l-1-1.5l-1.2,1.1l0.6,1l-0.8,0.6l-2.3-1.7
		l-2.8-0.2l-3.4,1.2l-3.4-1.6l-1.7-2.7l2.5-4.3l-2.1-4.7l0.3-4l-10.1-4.3l-1.2,1.7l1.8,3.4l0.7,4.8l-1,0.6l-4.8-0.4l-1.6,0.9
		l0.6,1.7l1.8,1.4l0.8,2.8l-2.2,1.3l-1.9-0.3l-1.4-2.9l-1.4,1.2l1.7,3.2l-0.4,3.4l1.9,1.2l-1,1.7l-2.1-0.2l-0.7,1.1v1.6l-1,0.5
		l-2.3-1.7l-3.1,0.1l-2.4,1.6l1.4,1.7l2.8-0.1l1.1,2.1l-1,3.7l-2.1-0.8l-1.2-0.9l-1.6,0.7l-4.3-4l-2.4,0.7l-2.7-0.8l-4.7,4l-4.5,1.5
		l-4,2.5l-0.3,2.8l-2.6,1.5l-4.8,0.6l-2.3,0.4l-2.3,1.3l-2.7-0.3l-2.3-0.9l-3.4,0.3l-1.6,1.1l0.3,1.1l1,0.7l2.1-1.2l3.3-0.1l2.4,0.9
		l3-0.2l1.5-1.3l1.3,0.2l2.4-0.9l3.2,0.5l-0.5,2.3l1.3,1.7l-2.1,3.3l0.2,0.8l4.2-0.6l0.4,1.8l1.7,1.1l0.4,3l3,3.1l2.9,3.7l-2,4
		l-0.3,2.2l0.7,1.6l0.1,6.2l-2.5,1.8l-2.2,0.2l-4.5,5.6l-2.4-0.4l-1.7,0.6h-4.3l-0.4,1.1l0.7,0.9l3,0.3l0.1,3.1l0.3,1.8l0.1,3
		l0.8,1.8l-0.3,4.8l-1,0.4l-1-1.3l-0.2-2.3l-3.5-1.1l-1.2,1l-0.3,4.8l-0.8,1.9L176.6,260.2z"/>
	<path class="st6" d="M237.1,330.9l1.2-2.7l9.9-7.3l5.9-5.3l9-10.1l3.9-7.9l1.2-1.2l0.1-0.7l-2.9-1.7l0.2-1.7l1.9-0.1l-0.2-2.1
		l1.5-2.1l4.1-7.3l1.2-5.1l-0.5-3.1l-0.7-3.4l-4.2-3.5l-1.6-3.6v-2.9l-0.4-1.8l0.8-2.8L266,254l0.4-4l-0.3-1.2l-2.4-1.1l-2.3-0.4
		l-1.9,1.1l-1.3-0.2l-0.4,2.8l-1.2,0.6v-3.4l-1-0.8l-3.2,0.8l-0.1,3.5h-2.2l-0.9-1.7l-3.2,1.2l-0.8,1.4L242,255l0.5,2.2l3.9,0.2
		l0.2,1.6l1.7,0.1l0.2,3.3l-1.8,2.2l-2,0.9l-5.8,0.3l-3.9-0.3l-1.4,2.8l-4.3,2.6l-2.6-1.1l-2.4,1.8l-2.9-2.7l-1.6,0.5l-1.6-1.8
		l-3.2,1.5l-6.5-0.5l-3.9-2l-3.5,1.1l-0.3-1.7l3.1-5.5l-0.8-1.6l-1.3-0.2l-1.2,2.6l-5.6,4.8l-3,4.5l-1.5,0.4l-3.7,2.7l-1.1-1
		l3.7-3.5l-4.6-1l-0.2-5l-1.6-2.1l-4.3-0.8l-1.1,1.7l-1-1l0.2-0.8l-1.6-1.1l-1.3,1.5h-2.8l-0.8,1.1l1.7,3.2l-0.7,0.7l-1.5-1.9
		l-0.4,1.2l4.2,5.9L173,272l-4.7,0.1v1.8l0.9,0.8l-0.2,1.1h-4.3l-0.8-1.8l-3.8-0.1l-1.1-1.7l-1.4-0.4l-1.5,1.5l0.3,0.9l-0.9,0.6
		l-1.1-1.1l-1.1,1l-2.5,0.1l-1.4,1.3l-0.2,1.6l-0.1,3.1l-0.5,1.1l-3.5,1.6l2,4.8v2.3l-2,3.4l2,2.2l3.2,1.3l2-2.1l1.6,0.3l1.5,1.7
		l1.9,1.4l4.6,5.1l1.1,3.5l1.6,1.6l1-1.7l1.4-0.6l1.3,1h4.1l2.7-1.3l2-2.5l2.2,0.1l1.1,4.9l0.1,2.5l1.5,0.5l3-0.6l1.7-2.3l1-2.8
		l5.2,0.3l1,1.7l2-0.8l2.9,5.3l1.9-2.1l0.8,0.7l-1.3,2.9l1.1,2.3l0.1,3.3l1.7,1l1.5-0.9l3,0.4l1.2,1.6l0.7-0.8l-0.4-2.5l2.9-1.6
		l2.7-2.4l1.2,1.2l-1.3,1.6l2.6,0.5l1.9,1.5l0.7,4.2l1.4,0.7l0.3,3.5l2.6,2l2.5-2.7l2.1-1.6l-1.9-1.9l-0.4-1.9l1.9-0.8l0.8,3.2
		l1.6,3.6l3,1.9l2.9,1.2L237.1,330.9z"/>
	<g>
		<text transform="matrix(1 0 0 1 204.8748 210.3345)" class="st1 st2">Nikli</text>
	</g>
	<g>
		<text transform="matrix(1 0 0 1 202.9581 299.043)" class="st1 st2">Bajitpur</text>
	</g>
	<g id="dist-gopalganj-1_4_">
		<g>
			<circle class="st3" cx="218.1" cy="265.4" r="13.4"/>
			<text transform="matrix(1 0 0 1 212.1211 272.6592)" class="st1 st4">5</text>
		</g>
	</g>
</g>
<g id="kishoreganj-1">
	<path class="st7" d="M132.8,104.3l-0.9,0.3l-1.8,3.2l-0.5,3.8l-2.2,0.4l-0.4,1.2l1.5,2.6l-0.1,2.5l-1.3,1.2l-3.7-1.6l-3.1-0.3
		l-2.7,1.7H115l-1.2-1.1l-4.5-0.2l-1.3-1.3l-1,0.3v2l-1.1,1.4l1,2.1l-1.3,0.6l-5.8-4.8l-1,0.6l0.2,6.7l-2.2,5.3l-1.4,0.1l-0.5,2.8
		l-2.9,3.9l0.2,1.8l-2.3,1.7l-2.2-1.5l-0.4,1.2l0.1,2.1l-1.2,2l2.5,1.7l2.8,2.3l0.2,1.9l-1.3,1.8l-0.2,2.9l-1.4,0.6l-2-2.2l-0.8,2.3
		l1.4,1.6l-0.5,1.1l1.3,1.1l-0.2,2l0.9,1.2l-0.3,1.2l0.7,0.4l1.3-0.2l-0.3,1.9l1.3,0.5l2.3,0.3l-0.6,1.9l-3.4,1.4l-1.2,2.5l-3.3,1.2
		l-0.3,2.4l-1.9,1.4l-0.2,1.7l1.1,0.6l2.1,6.7l0.6,2.5l-1.4,2.7l-1.4,1.3l-0.3,1.7v4l1.3,0.1l0.9-1.5l1.8-0.1l1.7-2.1l2.7-0.3
		l1.7-1.2l2.4-0.1l2.7,1.9l0.8,1.9l1.1,2.8l-0.2,3l-0.7,1.8l1.2,3.8l-0.1,3.3l2.1,1.2l1.5,4.7l6.1,0.3l1.5-3.4l4.6-0.1l1.2-0.8
		l-1.7-1.8l3.7-4.8l1.4-2.6l0.4-2.8l2.4-1.1l2.5,3.6l0.2,3.7l3.3,0.4l1.2-1.7l1.5,0.2l0.7,1.2l1-0.1l3-3.2l2.2,0.9l2.1-0.4l3.7,4.5
		l0.7,1.7l2.2,0.6l1,1.7l1-0.1l-0.1-2.4l1.1-1.6l1.7-0.2l0.7-1.8l3.5-1.2l0.1-2.7l1.4-0.4l1.9,1.4l4,1l6-3.6l1-0.6l3.8,0.2l1.4-1
		l0.3-2.2l-2.5-0.9l-3.3,0.1l-2.1,1.2l-1.1-0.7l-0.2-1.1l-1.7-0.8l-3.5-6.1l-2.7,1.4l-0.7-1.2l0.5-1.2l2-1.1l0.2-2.9l-2.3-0.3
		l1.2-3.7l-0.1-3.6l3,0.6l0.4-1.7l-0.7-2.4l1.9-1.6l0.3-4l-2.3-2l-0.5-1.4l-1.3-0.2l-2.7-1.6l-0.9-3.1l-1.7,1.3l-7.6,2.6l-2.4-0.8
		l-2.6-0.3l-2-2l0.8-0.8l2.9-0.1l0.5-5.4l-3.7-1.7l-2.6-3l-2,0.2l-2.6-6.8l-1.4-2.9l1.9-5.5l-0.5-1.2l-1.2,0.1l-0.9,1.4l-0.2-1.9h-1
		l-0.8,1.1l-1-0.7l3.1-7.3l2.8-2.6l1.3,0.4l2.4-3.1l2.9-1.8l-2.2-2.5V114l-0.8-1.9l-0.2-2.6l-2-1.1l-2.6-0.1L132.8,104.3z"/>
	<path class="st7" d="M86.7,144.4l-1.4-1.7l2-1.6l-0.7-2l-2.4-2l-0.2-2.7l-0.2-5.5l-2-1.6l-1.6-0.6l-0.6-3.5l-3-0.1l0.7-5.6
		l-0.5-1.4l0.8-2l-1.7-1.4l-3,2l0.1,2l-1.5,0.1l-1.2,1l-2.5-0.4l-1.2,1.7l0.3,1.3l-0.9,1.2l-2-0.5v1.3l1.9,0.4l-1.8,3.3l1.4,0.7
		l-1.4,1.2l2.3,0.7l-0.5,3.7l-1.4,1.9L62,133l-0.8,1.1l2.3,1.8l0.7,3.6l-1.6,3.7l-4.7-1.4l-3.2,1l-1.7-0.3l-0.9-2l-1.5-0.4l-0.3-2.3
		L49,137l-1.9,1.5l-1.2-0.9v-1l-2.2-0.9l-2,1.8L38,137l2.1-3l-1.7-0.7l-1.7,2l-1.9-0.8l-4.3-5.5l-2.6-1l-0.8-3.1l-3.6-1l-4-1.5
		l-4,1.7l-0.8-1.4l-3,1l-0.7,2l-2.5,0.2l0.5,1.9L8.7,130l-3,1.1l-2.4,0.2c0,0,0.2,2.9,0.2,2.8s1.4,5.5,1.4,5.5L4,143.3l0.8,2.3
		l1.5,1.6l-0.6,2l1.4,1.1h1.1l1.2,1.4l0.8,3.2l1.7,1.6l2.9,0.3l1,1.9l1.4,0.4l0.5-2.1l4.3,2.6h4.4l3,2.6l8.1,1.2l1.6,2.9L41,167
		l0.5,1.8l-1.5,1.4l4.6,4l-0.5,2.8l-0.2,1.8L45,181l-2.5,2.4l-1,4l2.3,1.8l1.3,0.1l1.6,1.6l6.9-3.5l1.8,0.7l1,3l5.6-3.8l1.7,1.3
		l2-1.5l3,0.9l1.3-1l3.3,1.6l3.1,2.4l5.9-0.1l0.3,4.8l1.1-0.2l0.2-1.9l1.4-1.2l1.4-2.8l-0.6-2.7l-2.1-6.6l-1-0.6l0.3-1.7l1.9-1.5
		l0.3-2.2l3.2-1.3l1.3-2.6l3.3-1.4l0.6-1.9l-2.2-0.3l-1.3-0.5l0.2-1.9l-1.3,0.1l-0.7-0.3l0.3-1.2l-0.9-1.2l0.2-2l-1.3-1.1l0.5-1.1
		L86,156l0.8-2.2l2,2l1.4-0.5l0.2-2.9l1.3-1.7l-0.3-1.9l-3.1-2.5l-2.1-1.4L86.7,144.4z"/>
	<g>
		<text transform="matrix(1 0 0 1 76 186.543)" class="st1 st2">Kishoreganj</text>
	</g>
	<g>
		<text transform="matrix(1 0 0 1 38.8749 157.751)" class="st1 st2">Hossainpur</text>
	</g>
	<g id="dist-gopalganj-1">
		<g>
			<circle class="st3" cx="127.4" cy="162.1" r="13.4"/>
			<text transform="matrix(1 0 0 1 121.3711 169.4092)" class="st1 st4">1</text>
		</g>
	</g>
</g>
<g id="kishoreganj-3">
	<path class="st8" d="M139.8,77.1l1.9-2.1l-0.7-2l1.9-1.3l-1.4-4.9l0.9-0.7l2.9,1.3l1.9,3l3.3-0.1l2.6,1.5l1.1-2.8l1.5-0.4l3.3-4.4
		l-0.7-1.9l1.2-1.3l1.4,0.5l1.8-2.3l4,0.3l-0.1,3.2l6.3-0.1l2.1,1l0.8-0.6c0,0,0.7-2.7,0.7-2.8s2.1-1.4,2.1-1.4l4.5,0.5l1.3,1
		l4.9-1.1c0,0,1.2,3,1.3,3s1.5,0,1.5,0l0.4-2.6h2.7l1.6-3l-1.2-5.9l2.1-0.8l3.9-0.5l1,1.8l2.6,1.1l1,5.3l1.1,0.7l2.5-1.6l2.2-0.4
		l-0.4,4.2l1.4,0.6l0.5,3.7l-3.3,5.2l2.7,2.8l3.4-0.5l0.8,6.9l-2,2.8l0.9,1.6l3.2,0.6c0,0-0.1,1.9,0,1.9s2.7,2.1,2.7,2.1l1.9-0.4
		l2.9,0.7l1.6,3.3l1.5,1.4l-0.9,3.7l3.5-0.2l-0.4,1.4l-2.5,1.9l-0.2,1.9l-2.6,0.5l-2.1-2.7l-2.7,0.1l-3.4,6.3l-1.1,0.7l-2.9,0.1
		l-2.4,1.7l2.2,2.2l0.9,3.8l1.3,2.1l0.3,2.6l-2.4,4.4l-5.6,1.8l-2,1.6l-2.1-1.1l-1.8,0.6l-0.7,1.9l-4.4-0.6l-1.9,1.5l-3.5-1.3
		l-2.2,0.6l-0.8-1.1v-2.1l2.1-0.5l0.1-2.2l-1.1-0.6l-2.7,1.1L182,123l-2.2-0.9l-0.2-1.2l0.6-1.8l-2.1-2l0.1-3l1.4-2.8l-2.3-3.4
		l-1.8-0.2l-1.4-2.9l0.2-1.5l-2.4-2.6l-1.4-0.3l-3.1,3l-6.1,1.3l-2-1.2l-4,2.9l-2,0.7l-0.6,2.4L151,110l-3.1,7.3l0.3,3.2l-0.7,0.5
		l-2.2-0.4l-1,1.5l-1.7-0.6l-2.1-2.4v-3.9l-0.8-1.9l-0.2-2.7l-2-1.1l-2.7-0.1l-2-4.4l0.4-1.8l-2.5-3.7v-1.8l2-3.7l1.3,1.1l0.5,2.9
		h1.2l0.1-3.6l1-1.6l-1.6-1.3l4-5.6l-0.3-1.1l-3-2.6l1.9-4.1L139.8,77.1z"/>
	<path class="st8" d="M242.9,156.9l-10.2-4.4l-1.2,1.8l1.8,3.4l0.7,4.8l-1,0.5l-4.8-0.4l-1.6,0.8l0.6,1.8l1.8,1.4l0.8,2.8l-2.2,1.3
		l-2-0.3l-1.4-2.9l-1.5,1.2l1.7,3.1l-0.4,3.4l1.9,1.2l-1,1.7l-2.1-0.2l-0.7,1.1v1.6l-1,0.5l-2.3-1.6l-3.2,0.1l-2.4,1.6l1.5,1.7
		l2.8-0.1l1.1,2.1l-1,3.8l-2-0.7l-1.3-0.9l-1.6,0.6l-4.2-3.9l-2.5,0.7l-2.6-0.8l-4.7,4l-4.4,1.5l-4.1,2.4l-0.3,2.8l-2.5,1.4
		l-4.9,0.7l-2.2,0.4l-2.3,1.3l-2.7-0.2l-2.3-0.9l-3.4,0.3l-1.8,1.2l-1.5-1l-2.6-4.7l-0.9-1.4l-2.7,1.4l-0.7-1.2l0.5-1.2l2-1l0.2-2.8
		l-2.4-0.2l1.3-3.7l-0.1-3.7l3,0.6l0.4-1.7l-0.7-2.4l2-1.6l0.2-4l-2.3-2l-0.5-1.3l-1.3-0.2L159,165l-0.8-3.2l-1.8,1.3l-7.7,2.6
		l-2.4-0.8l-2.7-0.3l-1.9-2l0.7-0.8l2.9-0.2l0.5-5.3l-3.7-1.7l-2.6-3l-2,0.2l-2.5-6.7c0,0-1.5-2.9-1.4-3s1.9-5.5,1.9-5.5l-0.5-1.2
		h-1.2l-1,1.6l-0.2-2h-1l-0.8,1.1l-1-0.7l3.2-7.2l2.8-2.7l1.4,0.5l2.3-3.2l3-1.8l1.4,0.5l1-1.5l2.2,0.4l0.8-0.5l-0.3-3.1l3.1-7.4
		l1.7-0.4l0.6-2.4l2-0.8l4-2.9l2,1.2l6.1-1.3l3.1-3l1.5,0.3l2.4,2.6l-0.2,1.5l1.4,2.9l1.8,0.2l2.3,3.4l-1.4,2.9l-0.1,2.8l2.1,2
		l-0.6,1.8l0.2,1.2l2.2,0.9l5.8,0.2l2.7-1.1l1,0.6v2.2l-2,0.6v2l0.8,1.1l2.2-0.5l3.6,1.3l1.9-1.5l4.3,0.6l0.7-1.8l1.8-0.7l2.1,1.1
		l1.9-1.6l5.6-1.8l0.6-0.8l1.2,0.6l-0.1,1.9l1.3,0.2l0.3-2.1l2.8,1.2l-1.4,2.5l0.6,0.5l-0.7,1l1.4,0.4l1.8-1.3l4.2-0.5l2.2,1.3
		l3,4.1l3.8,10.6l5.1,1.2l5.7-3.4l3,2.5l0.4,0.8l-4.8,1l-3.1,2.4l-0.2,5.2l1.7,3.4L242.9,156.9z"/>
	<g>
		<text transform="matrix(1 0 0 1 169.4584 92.9175)" class="st1 st2">Tarail</text>
	</g>
	<g>
		<text transform="matrix(1 0 0 1 156 156.876)" class="st1 st2">Karimgonj</text>
	</g>
	<g id="dist-gopalganj-1_1_">
		<g>
			<circle class="st3" cx="172.4" cy="123" r="13.4"/>
			<text transform="matrix(1 0 0 1 166.3711 130.2425)" class="st1 st4">3</text>
		</g>
	</g>
</g>
<g id="kishoreganj-4">
	<path class="st9" d="M213.3,54.5l-0.4,4.3l1.4,1.3l0.5,3.5l-1.3,1l-1.8,4l-0.5,1.4l2.9,1.9l2.5-1l0.9,1.3l0.4,6.2l-1.7,3.2l0.4,1.5
		l2.6,0.8v1.8l2.7,2.1l1.9-0.4l3,0.7l1.6,3.3l1.4,1.4l-0.9,3.7l3.5-0.2l-0.4,1.3l-2.5,2l-0.3,1.8l-2.6,0.5l-2.1-2.8l-2.7,0.1
		l-3.4,6.3l-1.1,0.8l-2.9,0.1l-2.3,1.7l2.1,2.2l0.9,3.7l1.2,2.1l0.3,2.6l-2,3.6l1.3,0.5l-0.1,1.9c0,0,1.4,0.3,1.4,0.2
		c0-0.1,0.3-2.1,0.3-2.1l2.8,1.2l-1.4,2.6l0.6,0.5l-0.7,0.9l1.5,0.4l1.7-1.3l4.3-0.5l2.2,1.3c0,0,3.1,4.2,3,4.2s3.8,10.6,3.8,10.6
		l5.1,1.2l5.7-3.5l3,2.5l1.1,2.4l3-0.8l2.2-1.9l-0.6-1.8l2.1-1l0.2-1.2l2.1-1.2l3.4,4.3l-1.9,7.2l1.6,1.1h1.3l3.4-5.8l1.8-3.7
		l1.6-0.2l4.4,4.3l1.5-0.1l1.3-3.8l2.1-2.6l-7-3.8l-0.7-2.9l2.3-7l1.8,0.2l2.2,1.1l1.3-1.1l0.1-2.2l1.1-0.2l3.6,1.5l0.9-0.8l2.8,1.4
		l5.6,0.1l1.2-1.5l1.5,0.1l0.8,2.8l9,1.1l0.6,1.1h2.3l1.3-2.1l1.1,0.1l0.2,2.3l3.5,3.9l7.2,3.4h3.7l1.4-0.9l1.9-4.5l6.1-8.1l2.2-0.3
		l3.1-3.5l2.9,2.3v3l2.1,0.4l13.8-14.5l3.8-5l3.4-9.5l3.7-12.4l3.2-9.2l-1.2-3l-3-1.4l-1.4,1.4l-5.1-2.8l-2,1.5l-2.7-1.8l-0.3-2.4
		l1-2l-1.2-1.2L355,63l-1.7-2.1l0.9-1.5l4.2-1.4l-3.6-5.8l0.9-3.7l-5.4-2.6l-7.7-2.4l-0.1-2.3l1.7-1.9l-1.1-2.2l1.3-1.1l3.7,1.6
		l4,2.5l1.1-0.4l0.7-2.3l-1.2-4.4v-2.2l-1.1-0.2l-3,2.2l-1.3-0.3l-5.2-4.5l-1.3,0.9l-1.6,1.6l-2,3.6l-1.2,0.7l-3.6-1.6l-3.2-2.5
		l-1.4,0.3l-0.8,1.5l-1.2-1l-2.2,1.8l-1.9-0.1l-1.1-1.2v-1.4l-1.5-0.4l-1.6-1.8l-0.9,0.6l0.6,2l-7.8,0.3l-3.2-0.2l-1.6-1.5l-0.5-4.1
		l-0.6-1.7l-1.7-0.2l-0.4-5.8l-0.6-4.7l1.2-2l0.9-1.6l-2.4-0.8L296.6,7l-2.7-0.5l-1.1-1.1l-1.7,0.4h-2.4l-4.5-2.3l-1.5-0.9l-1.2,0.6
		l-2.3,6l1.5,3.6l-0.6,0.8l-4.7-0.9l-3.3,6.2l-2.4,2.6l-1.2,0.9l-1.1,3.4l-1.8,4.2l0.4,2l1.2,0.9l1.8-0.1v1l-1.8,1.6v1.5l3.6,1.1
		l0.5,1.8l-2.9,0.5l-2.9-0.3l-4-2.4l-1.7,0.4l-1.8,4.6l-2.1,2.6l0.5,1.9l0.8,1.6l-1.3,6l-3.2,0.1l-3.3-1.9l-2.3,2.7l-2.4,0.7
		l-1.8-0.8l-2.6,0.8l-5.1-2.1l-1.6,0.4l-1.6,3.8l-1.4-0.2l-2.3-3.2l-3-1l-1.1-3.9l-1.6-0.5l-1.4,2.9l-2.2,0.6l-1,2.9l-1.9-0.1
		l-1.7-1.5L213.3,54.5z"/>
	<path class="st9" d="M327.7,133.9l1.5-0.6l3.8-0.7l2.4-4l6.3-0.9l4.7,1.6l4.5-0.2l4.5,1.5l-0.2,1.6L352,132l-2,0.8l-1.1,3.5
		l2.7,1.2l0.2,2.6l5.3-1l0.2-3.5l0.8-2.1l1.9-1.2l0.3-2.4h1.4l0.7,1.1h1.9l2.6,3.2l2.1-0.9l-0.4-2l-2.7-2.8l0.6-1.4h2l2.2-0.8
		l2.3,1.8l-0.1,2.3l3.2,1.7l0.2,4.4l2.2,2.3l0.2,5.2l1.2,1v3.1l-1.2,1l1.4,5l-0.4,1.9l2.9,4.5l-2.1,2l-4.3-3.6l-3.3,0.1l-0.3-1.3
		l-1.8-0.2l-0.9,1.7c0,0-2.1,0.1-2.2,0.1s-6.6,0.5-6.6,0.5l-2.2,1.8l-2.1,0.6l-0.8,2.3l-2.8,0.5l-3,1.7l-1.4,1.7l-1,4.2l-3,3.5
		l-2.8,2.6l-2,2.3l-5.2,5.7l-2.4,4l-1.2,4.2l-1.4,0.3l-0.6-1.8c0,0-0.9,2.2-0.9,2.1s-1.1-0.5-1.1-0.5l-0.2-1.5l-2.2-0.5l-1.3-0.8
		l-1.9,2.3l-0.9-1.1l-1.2-0.4l-1.7,0.9l0.1,1.3l-0.8,0.3l-3.7-0.3l-0.6,0.3l1,3.2l-0.5,2.2v2.8l-3.1,0.8l-0.1,0.8l-2.1-0.7l-1.8,0.3
		l-1-1.5l-3.2,0.5h-2l-2.8-4.1l-0.4-4.1l-1.7-0.2l-0.4,1.8l-2,0.2l-1.4,1.7l-0.6,4.2l-1.1,0.9l-0.6,2.8l-2.1-0.1l-1.3,1.6l-3.4-1.4
		l-3.8-5.1l-4.6-4l-0.4-1.6L271,194l-3.6,6.4l-4.2-4.7l2.3-0.4l0.4-1.1l-1.8-2.1l-1.4,1.4l-1.7-1.3l-1.5,1.6l-2.3-0.6l3.4-4.3
		l1.8-4.1l0.2-3.6l-1.3-0.2l-4.6-3.8l0.7-1.8l0.9-1.6l-1-1.5l-1.2,1.1l0.6,1l-0.8,0.6l-2.3-1.7l-2.8-0.2l-3.4,1.1l-3.3-1.6l-1.7-2.7
		l2.5-4.4l-2.1-4.7l0.5-5l-1.7-3.4l0.2-5.2l3.1-2.4l4.8-0.9l0.7,1.6l3-0.8l2.2-1.9L255,141l2.1-1l0.2-1.2l2.1-1.1l3.4,4.3l-1.8,7.2
		l1.5,1.1l1.3,0.1l3.4-5.8l1.8-3.6l1.6-0.2l4.4,4.2l1.5-0.1l1.3-3.8l2.1-2.6l-7-3.7l-0.7-2.9l2.3-7l1.8,0.1l2.2,1.1l1.4-1.2l0.1-2.2
		l1.1-0.2l3.6,1.5l0.9-0.7l2.8,1.3l5.6,0.1l1.2-1.5l1.6,0.1l0.8,2.7l9,1.1l0.6,1h2.3l1.3-2.1c0,0,1.2,0.2,1.1,0.2s0.2,2.2,0.2,2.2
		l3.6,3.9l7.1,3.4h3.7l1.4-0.9L327.7,133.9z"/>
	<path class="st9" d="M267.4,200.3l0.2,1.7l-1.2,0.9l-3.1-1l-1.6,1.6l0.6,5.1l-2.1,2.9l-4.6-1.9l-3-0.4l-1.8-1v-1l-3.6-1.3l-1.7,0.5
		l-4.4,5.6l-2.8,4.8l0.4,1.7l3.4-0.2l2,1.3l1.7-0.1l1-1.3l2.6,2.9l0.1,2.1l1.8,2.4l1-0.2l3,4.6l-1,1.7l-3.3,1.7l-1.7,4.5l0.1,2.6
		l5.3,0.4v3.4l-0.8,2l-2.3,1.1l0.3,1.1l3.7-0.9l0.9,0.8l0.1,3.4l1.3-0.6l0.5-2.9l1.3,0.2l1.9-1.1l2.3,0.4l2.4,1.1l0.2,1.1l-0.4,4.1
		l1.5,0.5l-0.8,2.8l0.5,1.8l0.1,2.9l1.6,3.6l4.1,3.5l0.8,3.6l0.5,2.8l-0.5,2.4l-0.7,2.7l-4.1,7.3l-1.5,2.1l0.2,2.1l-2,0.1
		c0,0-0.1,1.6-0.1,1.7s2.9,1.7,2.9,1.7l-0.2,1.6l4.8-1.5l7.8-0.5l8.8,0.6l7.3,2.2l1.3-1.5l-0.5-2.9l-2.6-2.4l-4.1-2.5l-0.4-2.1
		l1.9-5.9l4.7-2l10.7-0.1l9.6-1.1l8-0.9l10.4-6.3l10.4-5.7l7.2-6.7l3.9-5.9l0.6-4.2l-1.3-1.2l-5,0.7l-7,3.2l-7.8,2.6l-0.6,1.4
		l-1.5-1l0.3-1.9l0.7-6.7l3.9-5.5l1-6.9l2.3-2.8l8.1-1.9l9.6,2.4l10.6,2.2l5.5,1.5l2.4-1.5l1.1-4.1l-3.8-9.3l-3.4-6.9l-5.9-6.1v-0.9
		l-1.8-0.7c0,0,0.4-1.7,0.4-1.8s2.2-1.9,2.2-1.9l3.7-0.7l1.7,0.3l1.8,1.4l1.6-0.5l0.2-2.1l1.6-0.6l1.1-1.6l1,0.1l0.9-1.6l-0.1-2.3
		l1.2-0.3l2.2,0.6l3.1,1.4l0.9-1.5l1-1.1l-3.5-4.8l-2.3-2.1l-1.6-1.5l0.2-3.7l-1.1-2l-1.5-0.5l-0.2-1.9l-3.5-1.3l-2.2,2.1l-4.4-2.8
		l-1.8,1.5l2.3,2.9l-0.6,1.1l-2.5-0.2l-1.1-1.3l0.8-2.1l-0.4-1.6l3-5.4l-1-4.4v-2.7l-0.8-2.6l-6.4,0.5l-2.2,1.9l-2.1,0.6l-0.8,2.3
		l-2.7,0.5l-3,1.6l-1.5,1.8l-1,4.2l-3,3.5l-2.9,2.7l-2.9,3.4l-3.2,3.5l-1,1l-2.4,3.9l-1.2,4.2l-1.3,0.3l-0.6-1.6l-0.9,2l-1.1-0.5
		l-0.2-1.5l-2.2-0.5L324,192l-1.9,2.2l-0.9-1.1l-1.2-0.3l-1.7,0.9l0.1,1.3l-0.8,0.4l-3.7-0.3l-0.5,0.3l0.9,3.2l-0.5,2.2l-0.1,2.8
		l-3.1,0.8l-0.1,0.8l-2.1-0.7l-1.8,0.3l-1.1-1.5l-3.3,0.5h-1.9l-2.8-4.1l-0.5-4.1l-1.7-0.2l-0.4,1.8l-2,0.3l-1.3,1.7l-0.6,4.2
		l-1.1,0.9l-0.6,2.7l-2.1-0.1l-1.3,1.7l-3.4-1.5l-3.8-5.1l-4.6-4l-0.4-1.6L271,194L267.4,200.3z"/>
	<g>
		<text transform="matrix(1 0 0 1 293.9166 73.501)" class="st1 st2">Itna</text>
	</g>
	<g>
		<text transform="matrix(1 0 0 1 280.9166 164.751)" class="st1 st2">Mithamoin</text>
	</g>
	<g>
		<text transform="matrix(1 0 0 1 262.2081 229.168)" class="st1 st2">Ausagram</text>
	</g>
	<g id="dist-gopalganj-1_2_">
		<g>
			<circle class="st3" cx="281.4" cy="95.1" r="13.4"/>
			<text transform="matrix(1 0 0 1 275.3711 102.4092)" class="st1 st4">4</text>
		</g>
	</g>
</g>
</svg>
