<?xml version="1.0" encoding="utf-8"?>
<!-- Generator: Adobe Illustrator 25.2.1, SVG Export Plug-In . SVG Version: 6.00 Build 0)  -->
<svg version="1.1" id="Layer_1" xmlns="http://www.w3.org/2000/svg" xmlns:xlink="http://www.w3.org/1999/xlink" x="0px" y="0px"
	 viewBox="0 0 362 436" style="enable-background:new 0 0 362 436;" xml:space="preserve">
<style type="text/css">
	.st0{fill:#ABBEED;stroke:#FFFFFF;stroke-width:0.5;stroke-miterlimit:10;}
	.st1{font-family:'TimesNewRomanPSMT';}
	.st2{font-size:16px;}
	.st3{fill:#FFFFFF;}
	.st4{font-size:24.672px;}
	.st5{fill:#9BB6EA;stroke:#FFFFFF;stroke-width:0.5;stroke-miterlimit:10;}
	.st6{fill:#8BAFE8;stroke:#FFFFFF;stroke-width:0.5;stroke-miterlimit:10;}
	.st7{fill:#6899E0;stroke:#FFFFFF;stroke-width:0.5;stroke-miterlimit:10;}
	.st8{fill:#C5CFED;stroke:#FFFFFF;stroke-width:1.033;}
</style>
<g id="narayanganj-1">
	<path class="st0" d="M204.6,78.5l-1.9-2.6l1.1-2.8l-7.7-6.7l-1.7-1.8l0.9-2.4l-0.5-1.3l-3.3-3.4l-1-3.3l0.5-1.7l2.4-3.2v-2.2
		l1.3-0.7h3l3.8,1.7l1.9-0.7l0.9-2.9l-0.3-6l2.5-6.7l-1.1-2l0.1-2.6l3.2,2.6l1-1.2l-3-3.5L207,21l1.8-4.3l-2.1-6.5l-1.8,0.1
		l-2.7,3.3l-2.2-2.1l-0.2-4.9L197,4.8l-2.2,0.9l-1.4,3.9l-0.3,5.3l-0.8,0.9l-2.2-1.3l-1.8,0.3l0.1-7.2l-3.6-2.5l-4.4-1.3l-5,1.5
		L171.8,5l-6.1-3.5L164.9,2l0.7,1l-3.2,1.6L156.6,5l-4.4-0.2l-5.8,6l1.2,1.6l-0.3,2.7l-2.2,1.3l-2.1-1.2l-2.2,1.4l-0.8-2.3l-3.6,0.2
		l-1.4-1.4l-1.5,1.9l-5.2-2l-1.3,0.3l-1.9,2l-4.3-1.4l-2.3-5.4l-2.1-4.8l-1.3,0.1l0.8,2.8l0.4,3.7l-0.7,1L112,9.1l-3.7,1.7l-0.9,2.5
		l0.1,4.1l3.3,3.3l0.7,3.4l-1.6,4l-2.6,1.3l-3.5-0.4l-3.4,1l-5.8,0.3l-0.2,5.4l-1.3,2.6l0.3,3.9l-2.6,1.9l1,4.1l-0.4,1.3l-2.1,1.6
		l-3,0.9l-9.2,6.8l-1.8,0.4l-0.6,1.9l-2.2,2.2l-4.8,0.9L61.1,62l-1.8,0.3l0.1,6.1l1.8,2.7l-1,2.2l2.2,2.9l2.2,4.9l6-0.4l1-0.8l2,0.7
		l1.1,2l-0.1,2l-2.1,1.6l1.4,4l-1.4,3.3l1.9,2.9v3.4l-2.2,5.6l-2.6,2.9l0.4,7l1.6,1.5l-2.2,4.3l-0.2,9.2l-4.1,4.2l-7.3,5.1l0.4,3.1
		l2.5,3.5l3.6,0.7l3.8,3.7l3.1,5.3l-0.4,10.3l0.6,5.1l4.8,3.2l0.7,1.2v3.4l-2.4,1.9l-0.2,3.1l5,3.6l3.8,0.9l-0.3,4.2l-2.2,4.5
		l0.3,3.8l6.8,3.6l2.6,3.8l-0.7,3.2L88,215l3.8,5.2l3.4,2.9l3.3,0.7l4,2.9l2.9,3.7l3.3-3.2l0.1-2.4l1.9-1.8l4.5-0.2l2-7.6l2.6-6.2
		l3.5,0.3l0.9-1.5l-2.8-6.4l2.2-1.1l1.8-1.8l2.2-0.3l1.5-2.3l10.6-0.3l4.1-1.2l4.1-3.3l11.9-1.5l-0.4-2.7l-4.1-2.8l5.3-7.6l-0.7-1.7
		l-0.4-3l1.2-3l2.9-0.9l0.3-1.8l7-2.8l1.6,0.1l0.2-1.4l1.6-0.2l1.4-1.5l1.5-2.5l5.6-5.4l0.6-2.8l6.7-4.6l1.1-2.8l-3.2-0.7l-0.7-1.4
		l-1.9-0.4l-1.1-1.6l0.7-4.5l0.7-1.7l-1.8-2.9l4.2-5.2l0.9-2.9l-1.7-4.2l-3.9-4.2l0.3-1.3l1.9-0.9l5.1-0.4l-0.9-2.4l1.7-2.2
		l-0.2-1.6h-1.7l-0.5-1l1.5-1.7l-2.4-2.3l0.5-1l1.9-0.3l-0.7-1.9l-3.5-2.6l-0.9-1.6l0.9-2l2.5-2.4l4-4.9l5.3-3.9l4.4,0.3L204.6,78.5
		z"/>
	<g>
		<text transform="matrix(1 0 0 1 104.8331 135.9162)" class="st1 st2">Rupganj</text>
	</g>
	<g id="dist-gopalganj-1_2_">
		<g>
			<circle class="st3" cx="135.5" cy="90" r="13.4"/>
			<text transform="matrix(1 0 0 1 129.5378 97.2425)" class="st1 st4">1</text>
		</g>
	</g>
</g>
<g id="narayanganj-2">
	<path class="st5" d="M204.3,78.3l1.7-0.9l2.9,1.8l3.6-3.6l2.7-3.3l3,0.4l3.7-4.3l0.8-4l-1.6-5.9l-2.6-3.6l0.1-2.2l4.2-1.2l0.1-4.4
		l1.6-3.3l0.9-3.9l2.9-2.9l4.9-3.6l5.2-4.7l3.8,2.7l1.9-1.2l2.8,0.2l3.1-4l1.2,0.3l0.3,8.3l2.7,0.7l3.5-0.1l0.8,1.3V44l3.1,0.6
		l0.5,1.2l-5.1,4.3l-6.5,0.4l-0.3,2.9l1.7,2.9l6.2,2.9l1.7,2.6l2.2-0.4v2.1l5.7-3.4l2.9,2.6l-1.3,2.5l-1.8,0.9l0.2,3l-1.9,2.7
		l-3.5-3.5l-2.5-0.1l-4.5,1.5l-5.9,0.8l-3.4,4.2l-2,6.3l-4.2,6.8l0.4,2.7l1.8,2.4l-0.1,5.6l3.7,4.2l2.9,1.6l2.6,9.6l2.5,5.4l2.7,0.6
		l4,2.9l1-0.3l0.8-3.3h3.5l2.6-2.6h1.5l2.9,3.6l-0.6,2.5l1.6,0.1l2.1-1.1l1.2,0.6l1.5,1.5l4.6-0.5l3.9-0.4l2.8,3.1l2.3-0.1l0.7-1.7
		l0.3-1.8l4.3-0.7l0.7-2.4l-1.6-7.6l1.8-4.3l-1-1.5l-2.6-3l1-3.6l-2.7-1.1l-0.7-1.4l-2.3-1.1v-1.2l0.6-1.2l-2.5-1l-0.6-2.2l1.2-0.9
		l0.5-2.2l3.1-0.5l4.2,3.9l3.3,1.9l2.3-0.1l0.8-1.7l1.8-0.5l2.7,1.8L312,96l3.1,4.2l5.7,1.6l4.4,3.5l3.6,3.1l1.2,3.4l-1.6,4l-1,2
		l1.8,1.2l3.4,0.3l5.1,1.5l2.8-1.9l1.5,1.2l1.7,5.3l2.3-0.3l0.7,2l4.3,1.1l-0.2,4.1l3.1,0.8l2.8-0.3l1.3,1.4l-5.5,9.9l-5.5,10.8
		l0.2,5.2l2.4,3.3l1.2,0.5l0.1,2.7l-6,8.4l-6.8,9.6l-1.8,7.4l-1,9.2l1.6,7.4l2.1,6.2l2,4.1l7.2,8.1l2,4l1.9,0.6l2.8,3.3l2.4,6.3
		l1.6,8.8l-0.3,6.5l-2,9.7l-3,6.8l-2.7,5.5l-2.2,6.2l-4.6,2.9l-5.9,3.3l-8.7-0.5l-7.1-1l-2.8-1.7l-5.9-0.7l-6.1-2.4l-7.9-7.2
		l-7.2-5.4l-2.6-3l-3.4-1.6l-6.3,0.6l-3.1,1.6l-0.8-1.4l1.6-1l-2.6-5l0.3-4.2l5.6-8.8l3.2-3.7l1.2-2.3l-1.5-5l-5.4-1.1l-1.6,0.4
		l-5.7-5l-0.7-8.8l1-0.6l-0.9-2l-0.2-2.4l-5-2.4h-3.2l-1.4,0.8l-0.5-1.1l5.4-4.5l-2-1.6l-1.7-0.1l0.1-2l-1.9,0.7l-3.1,2.5l-2-1.3
		l-0.8-2.1l1.3-4l-1.6-1l-4.6,2.2l-2.2-0.3l-1.3-1.9l1.2-6.7l-0.7-3.3l-2.3-2l-2.5-0.4l-5.5,2.1l-3.4-0.8l-2.9-2.1l-1.1,0.3
		l-3.9-5.3l-3.1-1.9l-4.9-0.1l-4.3-2.6l-3.8-5.7l-3.2-4.8l-2.4,0.1l-0.5-1.9l0.1-1.8l-1.2-1.9l-1.8-0.6l-2.7,0.2l-1.5-2.4l-3.1-0.1
		l-2.4,1.2l-0.5,1.9l-2.1,0.6l-1.8-0.9l-2.6,0.8l-3.1,2.6l-3.2-0.5l-2.5-4.5l1.4-1.4l1.5-2.5l5.7-5.3l0.7-2.9l6.6-4.6l1-2.8
		l-3.2-0.7l-0.8-1.5l-2-0.3l-1-1.6l0.6-4.5l0.7-1.8l-1.7-2.9l4.2-5.2l0.9-2.9l-1.7-4.1l-3.9-4.3l0.4-1.2l1.9-0.9l5-0.4l-0.9-2.3
		l1.6-2.2l-0.2-1.6h-1.7l-0.4-1l1.5-1.6l-2.3-2.4l0.5-1.1l1.7-0.3l-0.8-1.9l-3.5-2.5l-0.8-1.6l0.9-2.1l2.7-2.4l3.9-4.8l5.2-3.9
		l4.6,0.4L204.3,78.3z"/>
	<g>
		<text transform="matrix(1 0 0 1 256.6247 193.6872)" class="st1 st2">Araihazar</text>
	</g>
	<g id="dist-gopalganj-1_1_">
		<g>
			<circle class="st3" cx="280.4" cy="155" r="13.4"/>
			<text transform="matrix(1 0 0 1 274.3711 162.2425)" class="st1 st4">2</text>
		</g>
	</g>
</g>
<g id="narayanganj-3">
	<polygon class="st6" points="115.9,259.2 117.3,258.9 119.5,256.2 123.1,256.6 125.4,255.3 125.6,248.5 129.3,243.5 131.3,242.1 
		133.2,243.3 136.2,241.3 138.2,242.3 140.3,237.7 142.8,235.8 145.3,236.4 147.4,238.2 150.4,237.6 151.9,239.3 150.8,244.6 
		146.7,245 146.2,246.6 150.5,247.5 150.3,251.3 153,253.1 156.7,253.3 158,254.9 163.3,255 164.2,253.2 166.5,253.2 166.2,258.1 
		168,260.4 168.5,262 170,262.7 171.5,260 173.2,261.6 169.8,268.6 167,279.8 159.2,299.1 157.3,299.1 157,305.6 156,308.8 
		157.3,314.3 155.8,321.1 150,330.7 145,338.5 144.9,348.4 137.5,356.5 134.7,363.7 133,375.9 135.6,381.5 140.7,385.4 138.7,389.6 
		137.1,390.6 132,398.4 135.1,401.5 141,407.4 148.9,419.6 156.3,432.9 162.9,433.9 171.8,433.1 173.9,430.1 174.3,422.6 
		170.1,408.3 168,406.2 162.2,402.7 160,395.8 152.9,380.9 152.4,372.5 155.9,364.8 161.4,360.9 170.4,357.9 180.6,356.1 
		198.5,355.5 211,353.1 220.8,346.8 226.5,341.6 230.1,335.4 230.4,333.6 238.2,320.9 245.6,290.6 246.9,284.1 246.9,275.5 
		249.2,270.1 254.7,268.7 262.9,269.7 269.1,270 276.1,268.1 277.5,267.1 275,262 275.3,257.8 280.9,249 284,245.4 285.3,242.9 
		283.7,238 278.3,236.9 276.7,237.3 271.1,232.4 270.4,223.6 271.4,223 270.5,220.9 270.3,218.7 265.4,216.2 262.2,216.2 
		260.7,217.1 260.3,215.9 265.6,211.4 263.7,209.8 262.1,209.7 262.1,207.8 260.3,208.3 257.2,210.9 255.3,209.6 254.4,207.5 
		255.6,203.5 254,202.5 249.6,204.7 247.2,204.5 245.9,202.5 247.1,195.7 246.4,192.5 244,190.5 241.5,190.1 236.1,192.1 
		232.7,191.3 229.7,189.2 228.7,189.5 224.8,184.2 221.8,182.3 216.9,182.1 212.6,179.6 205.6,169.1 203.3,169.2 202.6,167.3 
		202.7,165.5 201.5,163.5 199.6,163 197,163.2 195.4,160.7 192.3,160.6 190,161.9 189.5,163.7 187.5,164.3 185.7,163.4 183.2,164.2 
		180,166.8 176.8,166.2 174.3,161.8 172.6,162.1 172.3,163.4 170.7,163.3 163.7,166.1 163.5,167.9 160.6,168.7 159.4,171.7 
		159.8,174.7 160.6,176.4 155.3,184 159.3,186.8 159.7,189.4 147.8,191 143.7,194.3 139.6,195.5 129,195.7 127.5,198 125.4,198.4 
		123.5,200.2 121.3,201.2 124.1,207.5 123.3,209.1 119.8,208.8 117.3,214.9 115.3,222.6 110.8,222.8 108.9,224.6 108.8,227 
		105.5,230.2 103.6,227.9 100.6,230.1 102.7,233.3 105.4,237.3 108.2,239.5 111.5,246.3 114.3,253.4 115.6,258 	"/>
	<g>
		<text transform="matrix(1 0 0 1 177.9997 262.6872)" class="st1 st2">Sonargaon</text>
	</g>
	<g id="dist-gopalganj-1_3_">
		<g>
			<circle class="st3" cx="214.7" cy="226.3" r="13.4"/>
			<text transform="matrix(1 0 0 1 208.7044 233.5758)" class="st1 st4">3</text>
		</g>
	</g>
</g>
<g id="narayanganj-4">
	<path class="st7" d="M101.1,230.9l4.4,6.3l2.6,2.3l3.3,6.7l2.8,7.2l1.6,5.5l3.4,6.7l1.4,2.9l1.4,5.3l-0.9,4.1l-3.3,4.7l-5.1,4.2
		l-3.6,7.6l-0.9,4.1v17.7l-3.5,10.1l-3.3,6.5l-5.7,5.9l-2.3,6.1l0.4,24.4l1.8,5.6l4.5,6l7.6,6.4l4.8,2.7l3.1,0.5l19-0.1l2.2-0.2
		l-5,7.8l1.1,1.2l-1,1.5l-5.4-4l-10-4.1l-8-2l-16-0.8l-8.5,1.9l-5.5,1.2l-9.7,3.8l-5.6,3.1l-5.7,2.4l-6.7,5.9l-1.6,0.9l-1.4-1.3
		l-5.9,3.9l-6.3,2.8l-6.1,2.3l-5.4,0.3l-5.1-0.7l-5.6-3.1l-3.5-3.2l-4.3-6.8l-0.8-2.4l0.8-1.6l4.1-4.3l3.7-3.6l2.6-3.5l1.3-4.3
		l0.4-6.9l-0.7-6l-0.7-3.9l-2.8-5.3l-1.4-3.6L8.4,355l-4.5-2.8L2,350.8l0-0.9l1.9-0.2l1.7-1.3l1.1-2.7l4.1-6.1l3.9-3.5l7.4-4.1
		l6.9-1.5l3.8,0.8l3.2-1.9l9.3-2.7h2.2l2.9-1.8l2.9-5.2l-1-4.9l-4.5-6.6l-7.6-7.3l-5.6-7.2l-3.4-5.4l-3.2-4.6l0.9-1.3l1-3.6l0.5-0.7
		l0.7-2.5l2.1-0.3l-0.4-5.4l4.3-0.1l1.4-2v-3.6l2.8-2.7l1.8-2.8l1.6,0.1l0.4,6.4l1.3-0.8l0.5-2.9l1.5,0.7l0.8,1.6l1.3-0.7l1.6-6H55
		l5.5-5.7l3-1.7l3.2-0.1l2-1.8l1.7-0.2l4.8-5.7l4.3-1l4,0.1l1.3-2.2l0.2-2.6l4.4-1.9l3,1.7l1.5-1.9l3.7-0.6l2.5-2.1L101.1,230.9z"/>
	<g>
		<text transform="matrix(1 0 0 1 24.9165 292.0412)" class="st1 st2">Narayanganj</text>
	</g>
	<g id="dist-gopalganj-1_5_">
		<g>
			<circle class="st3" cx="77.4" cy="322.3" r="13.4"/>
			<text transform="matrix(1 0 0 1 71.3711 329.5758)" class="st1 st4">4</text>
		</g>
	</g>
</g>
<g id="narayanganj-5">
	<polygon class="st8" points="114.7,390.7 125.7,390.9 134.4,390.8 137.1,390.5 138.7,389.6 140.7,385.4 135.6,381.5 133,375.9 
		134.7,363.7 137.5,356.4 144.9,348.3 145.1,338.4 152.9,325.9 155.8,321.1 157.3,314.1 156,308.8 157,305.6 157.4,299.1 
		159.2,299.1 166.5,281.4 167.1,279.5 169.9,268.4 173.2,261.5 171.5,260 170,262.6 168.4,262 168,260.4 166.2,258 166.5,253.2 
		164.2,253.2 163.3,255 158,254.8 156.7,253.2 152.9,253.1 150.2,251.2 150.4,247.4 146.1,246.6 146.7,245.1 150.7,244.6 
		151.9,239.2 150.3,237.6 147.4,238.1 145.2,236.4 142.7,235.9 140.3,237.7 138.2,242.2 136.1,241.3 133.1,243.3 131.3,242.1 
		129.3,243.5 125.6,248.5 125.3,255.3 123.1,256.6 119.5,256.2 117.3,258.9 115.9,259.2 116.2,259.9 120.7,268.4 122,273.8 
		121.2,278.1 118,282.8 112.9,287 109.2,294.8 108.2,298.8 108.4,309.7 108.3,316.5 104.9,326.5 101.6,333.1 95.8,339.2 93.4,345.2 
		93.3,352.8 93.9,369.5 95.7,375.2 100.2,381.2 107.8,387.6 112.9,390.4 	"/>
	<g>
		<text transform="matrix(1 0 0 1 109.9997 341.2707)" class="st1 st2">Bandar</text>
	</g>
	<g id="dist-gopalganj-1_4_">
		<g>
			<circle class="st3" cx="144.7" cy="278" r="13.4"/>
			<text transform="matrix(1 0 0 1 138.7044 285.2425)" class="st1 st4">5</text>
		</g>
	</g>
</g>
</svg>
