<?xml version="1.0" encoding="utf-8"?>
<!-- Generator: Adobe Illustrator 25.2.1, SVG Export Plug-In . SVG Version: 6.00 Build 0)  -->
<svg version="1.1" id="dist-faridpur" xmlns="http://www.w3.org/2000/svg" xmlns:xlink="http://www.w3.org/1999/xlink" x="0px"
	 y="0px" viewBox="0 0 380 310.5" style="enable-background:new 0 0 380 310.5;" xml:space="preserve">
<style type="text/css">
	.st0{fill:#ABBEED;stroke:#FFFFFF;stroke-width:0.5;stroke-miterlimit:10;}
	.st1{font-family:'TimesNewRomanPSMT';}
	.st2{font-size:16px;}
	.st3{fill:#FFFFFF;}
	.st4{font-size:24.672px;}
	.st5{fill:#8BAFE8;stroke:#FFFFFF;stroke-width:0.5;stroke-miterlimit:10;}
	.st6{fill:#C5CFED;stroke:#FFFFFF;stroke-width:1.033;}
	.st7{fill:#9BB6EA;stroke:#FFFFFF;stroke-width:0.5;stroke-miterlimit:10;}
</style>
<g id="faridpur-1">
	<path class="st0" d="M161,246.7l1.6,2l0.6-1.5l-1.6-1.6l0.8-1.6l1.9-0.2l1.3-1l1.5,0.8l2.1-1.9l-1.4-5.3v-1.3l-0.9-1l0.2-3.7
		l-1.3-2.5l-0.1-2.3l-2.3-1.1l0.6-2.1l-3.6-6.3l-1.2-2l-0.3-1.3l0.4-1.1l2.3-1.3l0.7-0.8l-0.8-1h-2.3l-3,0.8l-1.2-0.3l-4-3.4
		l-0.5-1.5l0.2-1.1l1.5-0.4l0.3-1.1l-1.5-0.3l-0.2-1.7l-0.4-0.8l0.3-1.2l-2-1l-1.4,0.4l-1.8-1.1l0.3-1.4l-4.9-4.2l0.2-1.8l-0.6-0.4
		l-0.9,0.5l-3.1-1.3l-1-1.3l-0.1-1.7l1.6-0.9l-0.7-1.3l-1.9-2.1l-1.2-0.1l-0.1-1.1l1.9-1.2l0.7-1l1.1-0.2l3.5-2.9l-1-1.9L139,170
		l-1.7-0.9l-1.4,0.3l-1-1.1l0.7-0.4l-0.4-1l0.6-0.5l0.8,0.7l1.3-0.3l-0.5-2.8l0.3-1.1l-0.3-1l1.2-0.7l-2-0.9l1-0.8l-0.4-1.4
		l-1.3-0.4l1.5-1.5l-1.5-3.5l0.5-1.4l-0.7-0.7l-4.3,1.5l-0.3-0.6l1.1-1.2l2.2-1h2l0.2-1.2l-0.3-0.8l0.8-2.2l0.8-0.8l-0.2-3l0.8-0.8
		l1.7,1.6l0.2,1.9l1.1-0.1l2.6-3l3.5-4.8l1.5-0.8l0.2-2.2l-2.8-1.7l-0.6-3.3l0.8-2.1l0.3-2.2l-1.1-0.2l-0.8-1.3l-2.2,1.3l-1.8,0.9
		l-2,0.3l-2.6,2.1l-1.4,2.8l-1.7,1.7l-1.1-0.1l-0.7-0.8l-1.1,0.1l-1.7,3.8l-1.8,0.2l-3.1-2l-1.4,0.2l-3,2.7l-0.4-0.4l0.1-1.1H118
		l-1.7,1.6l-0.5-0.5l-0.3-1.2l-1.4-0.4l-1.2,0.6l-4.3-3.1l-3.6,0.3l-1.7,1.5l0.1,1.8l-0.4,2.7l0.5,1.5l2.5,3.2l-0.6,0.8l-2,0.7
		c0,0-2.6-2.8-2.7-2.8s-1.1-0.4-1.1-0.4l-1.9-2l-5.1-0.3l-2,0.5l-0.8-0.9h-1.3l-0.7,1.9l-0.6,0.7l1.1,0.9l-0.9,1l-2.2-0.2l0.3-1.8
		l-2.3-1.1l-2.7-2l-1.7,0.9l-2.1,3.7l-0.5,1.9l-0.9,1.4l0.3,2.4l2,3.1l-0.1,2.3l-1,1l-0.6,1.9l0.2,1l-3.3-0.8l-0.9,0.9l-1.1-0.5
		l0.1,1.5l-1.4,0.5l-2-0.6l-0.5,3.9v7.3l0.4,6.8l0.9,3.5l2.1,2.7v1.9l2.8,5.1l-1.8,1.7L72,194l0.9,5.3l-0.7,5.7l3.4,3.5l1.8,2.5
		l3.9,2.5l0.4-2.2l1.2,0.3l0.2,2l1.2,0.5v1.7L85,216l1.1-1.2l2.5,0.8l-0.1,2.2l1.7,0.5l0.1,1.3l0.6,0.3l2.3-1.9l2.1,1l0.3,1.7
		l1.4,0.1l0.6,1.8l4.3-1.4l3.1,0.2l-0.3,4.7l1,1.5l3-1.3l0.6,0.9l2.3-0.6l0.8,1.2l-0.9,3.3l1.3,1.2h1.6c0,0,7.7,6.8,7.6,6.8
		s3.9,2.2,3.9,2.2l0.9,1.6l-0.8,1.9l-0.1,1.2l-2.2,0.7l-3.1-1.9l-2.9,1.5l-0.9,1.9l0.4,1.9l2.8,1.6l2.2,0.9l3.8,3.1l2.6-1.8l0.3-2.5
		l1.8-0.7l3,1.1l3.3,3.7l0.5-1.2l-0.8-1.9l1.3-1.2l-1.9-1.6l-1.7-0.1l-0.6-0.9l0.6-0.4l3.3,1.1l2,1.4l1.9,1l-0.8,0.9l0.3,2.5
		l1.5,0.5l1.2-1l1.1,0.2l0.1-1.6l-1.7-0.8v-1.1l1.8-1.5c0,0,1.5-0.3,1.5-0.2s0.5,1.4,0.5,1.4l1.1,0.1l-0.3,1.9l1.9,1.7l1,0.4
		l-0.7,1.2l0.9,1l2.8-0.7l-1.4-3.2l0.6-0.4l1.3,0.9l-0.3-1.2l1.5,0.6l-0.2-1.9l-0.5-0.7l0.9-1l0.3-1.1l1.4,0.5l1.3,0.2l1.6,1.9
		l0.9-0.2l0.4-2.5l-1.3-1l0.2-0.6L161,246.7z"/>
	<path class="st0" d="M98.2,286l3.3-1.2l2.2,1l2.8,3.9l4.5,5.2l1.5,2.5l-1.1,4.2l-1.3,1.7l0.1,1l2.2,0.2l2.1-1.5l3.5-1.7l2-2.7
		l-0.4-1.1l1.1-2l1.2-0.3l1.7-2.2l1.9-0.7l1.1,0.1l1.3-1.1l0.5-1.8l-1.5-3.7l1-1.6l1.5-0.4l3.6-0.3l4-4.1l-2-2.7l2.5-2.6l3.6-0.3
		l1.3-1.9l-0.8-1.5l0.1-1.5l1-0.1l2.4-1.9l-0.1-1.1l0.9-1l-0.3-1.2l0.3-1.1l-0.6-0.5h-1.2l-1-1.8l0.5-1.2l-1.8-1.1l-2.3,0.1
		l-2.2-1.7l-0.2-0.8l-3.4-3.6l-3-1l-1.8,0.7l-0.3,2.5l-2.6,1.8l-3.8-3.1l-2.1-0.9l-2.9-1.7l-0.3-2l0.9-1.9l2.9-1.5l3.1,1.8l2.2-0.7
		l0.1-1.2l0.8-2l-0.9-1.6l-3.9-2.2l-7.6-6.8H113l-1.3-1.2l0.9-3.3l-0.8-1.2l-2.3,0.6l-0.6-0.9l-3,1.3l-1-1.5l0.3-4.7l-3.1-0.2
		l-4.3,1.5l-0.6-1.8l-1.4-0.1l-0.3-1.7l-2.1-1l-2.3,1.9l-0.6-0.3l-0.1-1.3l-1.7-0.5l0.1-2.2l-2.5-0.7l-1.1,1.2l-0.7-0.2v-1.7
		l-1.2-0.5l-0.2-1.9l-1.2-0.3l-0.5,2.2l-3.9-2.4l-1.8-2.5l-3.4-3.6l-1.9-1.1l-1.3-0.3l-2,0.8l-2.6,1.8l-0.9,2L62,210l0.6,3.3
		l0.4,2.5l0.9,2.4l-0.7,0.9l-2,0.4l0.5,2.3l-0.2,1.4l3.5,1.4l3.8,0.9l2.5,2.6l-0.1,0.6L69,230l-0.8,2.5l-0.1,3.9l1.3,2l2.4,3.4
		l0.4,1.2l-0.1,4.6l0.7,1.5l1.5,1.3l4.3,5.4l2.1,2l1.9,0.2l3.9-0.8l3.8,0.3l4,0.9l5.5,2.5l2,2.5l0.2,1.3c0,0-0.9,0.6-0.9,0.5
		s-3-0.3-3-0.3l-5.2,0.7l-4.4,2.5l-4,3l-1,2.1l-1.5,2.1l-1.1,3.3l0.2,2.1v3.7l0.5,3.3l2.4,2.6l1,0.3l3.1-0.9l5.1-2.2l2.9-1L98.2,286
		z"/>
	<path class="st0" d="M13,129.3l1.7-0.6l5.2-2.9l4.8-0.6l4.5,1.2L34,129l2.7,0.7l4.9,1.9l10.4,5.3l4.3,3.1l5.8,4l3.4,2.9l1.7,2.8
		l1,2.7l-0.4,4.9l1.9,0.5l1.4-0.5v-1.5l1.1,0.5l0.8-0.9l3.3,0.8l-0.2-1l0.6-1.9l0.9-1l0.1-2.3l-2-3l-0.3-2.4l0.9-1.4l0.5-1.9
		l2.1-3.7l1.7-0.8l2.7,2l2.3,1.1l-0.3,1.8l2.3,0.3l0.9-1.1l-1.1-0.9l0.6-0.7l0.7-1.9h1.2l0.8,0.9l2.1-0.6l5.1,0.3l1.9,2l1.1,0.4
		l2.7,2.8l2-0.7l0.6-0.8l-2.5-3.2l-0.5-1.6l0.4-2.6l-0.1-1.8l1.7-1.5l3.6-0.3l4.3,3.2l1.2-0.7l1.4,0.4l0.3,1.2l0.5,0.5l1.7-1.6h1.2
		l-0.1,1.1l0.4,0.4l2.9-2.7l1.4-0.2l3.1,2l1.8-0.2l1.7-3.7l1.1-0.1l0.7,0.8l1.1,0.1l1.7-1.7l1.4-2.8l2.6-2.1l2-0.2l1.8-0.9l-0.7-2
		l-3.7-2.7l-1.7-0.4l-3.9-3.8l0.8-2l-1.6-1.1l-0.8,1.8l-1.3,0.5l-3.3-4.1l-1.7-2.1l-1.8-1.5l-1.4-0.2l-1.6,0.9l-3.4-0.2l-1.6-0.2
		l-1.7-1.7l0.1-2.9l3.5-4.2l1.7-2.8l0.5-2.5l3.3-0.8l1.1-3.8l-0.5-2.1l-1.8-2.7l-1.7-1l-2.6-0.5l-2.5,1.9l-1.2,0.9L111,84l-1.8,0.6
		l-1.6-0.9l-1.7,1l-1.2-1.3l-0.7-1.9l0.5-0.4c0,0,0.7,0.9,0.8,0.8l0.3-0.5l-0.5-1.6l1-2.8l-1.6-2.6l-0.1-1.9l-1.5-2l-1.9-0.3l-3.9-1
		l-2,0.9L93.6,72l-0.2,1.5l-1.3,2.7l0.2,1.6L91.5,79l-1.3,1l-2.4,0.1l-2.2-0.3l-2.1,0.4l-1.6-0.6L81.5,80l0.4,1.7L81.3,82l-1-0.8
		l-1.4-2L77,78.8l-0.4,0.8l0.9,1.2L77,81.3l-4.5-2.5l-2.7-1.4l-2.3-4.1l-2.4-3l-1-0.9l-1.7-0.2L61,70.7l0.2,1l2.1,0.5l1.5,1.4
		l-0.4,1l-2.1,2L60,77.4l-4.7-0.5l-1.9-1.6l-2.3-2.7l-1.3-0.7h-5.3L44,73l0.2,2.9L44,77.8l-1.4,1.5l-2.5-0.6L37.9,79l-1.8,0.5
		L35.7,81l0.7,1.8l-0.2,1.1l-1.4,1.5l-1.3,0.8L33,88.3l-1,2.3l-1.2,1.3l-1.6-1l-1.6,0.7H26l-1.3-1.2L23.4,87l-2.5-2l-0.1-1.9
		l-1.3-1.2l-1.7-0.3l-2.3-1.2l-1,0.4l-1.7,2.5L11,85.6l-1.3,0.7l-0.5,0.6l1.8,2.9l0.7,2.2v3.6l-0.3,4.4l0.7,3.2l1,1.7l2,2.3l3,1.5
		l3.1,1l3,0.7l2.7,0.5l2.5,1.5l0.2,1.8l-1.3,1.4l-1.7,0.9l-6.6,0.1l-4.5,1.2l-3.3,1.8l-3.8,2.5l-2.1,2.1L5,126.8l0.1,4.5L4.4,134
		l-0.3,2.7l0.4,4.3l1.6,4.5l1.2,1.8l1.9,1l5.5,0.3l1.6-1l1.5-2.5l-0.5-2.6l-2.9-3.4l-2.6-5.7l0.3-2.2L13,129.3z"/>
	<g>
		<text transform="matrix(1 0 0 1 71.8188 176.111)" class="st1 st2">Boalmari</text>
	</g>
	<g>
		<text transform="matrix(1 0 0 1 34.2356 118.0277)" class="st1 st2">Madhukhali</text>
	</g>
	<g>
		<text transform="matrix(1 0 0 1 48.2356 245.111)" class="st1 st2">Alfadanga</text>
	</g>
	<g>
		<circle class="st3" cx="105.2" cy="143.3" r="13.4"/>
		<text transform="matrix(1 0 0 1 99.2044 150.5759)" class="st1 st4">1</text>
	</g>
</g>
<g id="faridpur-4">
	<polygon class="st5" points="247.5,160.2 252.3,163.9 254.4,167.9 256.6,169.8 256.6,173.2 255.5,174.8 253.1,175 249.8,172.3 
		246.3,172.6 242.4,176.2 241.5,181.1 243.7,185.9 248.1,187.5 250.5,189.9 251,193.3 250.9,195.7 252.4,197.3 252.7,201.7 
		252.1,202.5 248.8,202 247.5,202.8 246.1,200.4 246.7,198.8 245.3,198.2 242.9,195.8 242.1,196.4 239.1,193.7 238,194.6 237.4,199 
		234.2,201.6 233.9,203.6 234.8,204.9 235.1,208.1 236.6,210 236.1,215.8 238.6,222.7 239.7,223.6 240.5,223.3 240.6,221.7 
		241.6,221.5 243.3,222.7 244.9,221.5 251.2,221.9 253.7,221.4 253.1,219.4 254.9,217.2 256.1,217.4 258.5,220.2 259.9,220.4 
		261,221.8 265.7,222.1 267.8,224.3 268.2,225.9 270.1,229.3 269.5,232.3 271.1,233.1 272.9,233.3 274.8,235.7 277.2,236.7 
		280.2,236.6 284.3,238.7 286.3,238.7 288,237.7 290.6,236.4 291.5,238.1 291.5,240.1 289.2,244.1 286.8,246.6 283.2,248.5 
		282.6,250 284,251.4 287.1,253 288.9,254.9 290.2,258.2 291.4,259.8 292.6,259.6 293.5,257 294.6,254.5 293.5,251 293.6,249.2 
		296.3,245.9 298.6,240.7 298.4,234.1 297.9,231.7 298.4,227.8 300.9,227.5 302.8,228.9 308,235.2 309.2,235.3 313.8,241.2 
		315.8,245.5 316.7,248.3 318.2,248.6 321.1,246.5 321.8,246.8 320.9,248.9 321.7,249.6 323.4,247.5 325.2,248.1 327.5,247.4 
		330.1,244.6 330.7,242 330.4,237.5 329.6,235.5 330.2,235 332,235.1 332.8,234.1 332.7,232.9 333.5,232.5 334.2,233 335.7,231.3 
		334.3,229.5 334.3,225.7 331.7,225.5 331,224.3 330.9,222.5 329.8,221.6 328.5,223 326.7,221 326.5,219.2 327.6,218.4 329.3,216 
		329.5,212.1 328.4,211 329,208.7 330.2,205.6 329.1,204.9 326.9,205.3 326.2,203.8 322.2,203.6 321,203.1 318.6,202.7 317.2,201.3 
		311.2,200.9 310.7,200.1 310.1,197.5 313.9,194.2 314.8,193.1 317.1,192.8 319.9,191.8 323.1,188.2 323,184.2 321.7,179.6 
		320.3,177.6 319.6,174.1 320.3,172.3 320.2,171.3 320.6,169.5 319,168.7 315.9,169 313.5,168 311.5,165.5 308.9,165.7 305.7,167.9 
		304.8,167.8 303.2,165.7 303.8,165.1 305.5,165 306.7,164 305.4,161.8 304.9,159.4 303.7,158.5 301.9,159.2 299,161.8 297.4,162.4 
		295.9,165.3 294.2,167.3 290.5,167.4 286.7,163.9 282.6,159.7 282.2,155.7 283.1,153.5 282.4,152.7 281.1,153.7 278.7,153.6 
		272.5,148.3 271.7,149.7 271.8,150.9 271.1,151.4 269.2,150.6 264,153.3 261.7,153.1 259.5,155.9 255.7,155.6 252.3,154.9 
		250.3,155.4 249.2,156.6 248,155.6 245.8,157.2 246.9,159.6 	"/>
	<polygon class="st0" points="244.7,52.2 244.6,44.2 244.5,41.5 245.4,41.9 247.5,44.2 251.5,44.8 262.1,47.8 268.3,49.2 
		272.2,49.7 275.1,50.8 289,56.8 295.3,57.9 300.7,58 303.1,57.6 308.5,60.6 311.2,61.9 317.2,63.5 320.8,65.6 323.5,69.4 329,75.9 
		336.1,86.2 340.4,93 343.8,96.9 342.4,97.3 340.9,96.7 339.9,97.4 338.6,96.2 335.6,95.4 334.4,96 333.3,95 330.4,95.5 329,97.3 
		327.8,96.8 324.7,99.1 324.8,100.1 322.8,101.1 326,103.7 325.1,104.7 319.1,104.4 313,103.7 307.9,104 305.9,103.5 305.3,103.9 
		298.1,102.9 292.1,102.2 289.5,103.9 287.8,103.2 286.8,104 287,105.3 286.4,106.1 285.3,105.3 283.9,105.2 281.3,107.6 
		274.9,102.3 273.1,103.4 272.3,103.2 271,104.8 265.8,102.2 260.9,105.1 261.5,107.2 258.2,110.9 253.5,112.7 253.1,114.3 
		252.3,115.2 250.9,114.1 248.7,117 244.5,112.3 243.5,113.2 243.5,112.5 242.2,107.8 240.5,104 238.7,101.9 238.3,101.8 238.8,101 
		236.8,96.9 236,96 234.5,95.7 234.4,95 235,94.3 234.2,92.8 234.6,92.1 233.1,89.6 231.7,89.5 230,86.2 230,84.9 230.4,83.5 
		229.5,82.5 227.6,82 227.1,80.6 227.2,79.5 226.3,78.7 226.2,77.2 224.4,76.6 223.2,74.7 224.1,72.9 224.6,68.6 224.8,65.9 
		227,64.1 229,63.4 230.1,62.3 230,60.9 232.2,58.6 232.1,56.6 233.1,56.7 234.2,58.1 237,58.3 240.4,57.2 243.5,53.9 	"/>
	<g>
		<text transform="matrix(1 0 0 1 243.7776 68.5902)" class="st1 st2">Charbhadrasan</text>
	</g>
	<g>
		<text transform="matrix(1 0 0 1 256.1523 197.5902)" class="st1 st2">Bhanga</text>
	</g>
	<g>
		<circle class="st3" cx="293.6" cy="87.1" r="13.4"/>
		<text transform="matrix(1 0 0 1 287.6211 94.4092)" class="st1 st4">4</text>
	</g>
</g>
<g id="faridpur-3">
	<path class="st6" d="M197,11.1l8.3-1.7l2.7-2l3.6,5.4l4.6,7.3l4.3,7.1l5.2,7.2l4.9,1.1l1.7,0.1l6.6,2.5l5.7,6.1l0.1,8.1l-1.3,1.8
		l-3,3.2l-3.5,1.1l-2.8-0.2l-1.1-1.5l-0.9-0.1l0.1,2l-2.2,2.3v1.4l-1.1,1.1l-1.9,0.7l-2.1,1.8l-0.8,7.1l-0.9,1.7l1.2,2l1.8,0.5
		l0.1,1.5l0.9,0.9l-0.2,1.1l0.5,1.4l1.9,0.5l0.8,1.1l-0.4,1.3l0.1,1.3l1.7,3.3l1.4,0.1l1.5,2.6l-0.4,0.7l0.8,1.5l-0.6,0.7l0.1,0.7
		L236,96l0.9,0.8l1.9,4.1l-0.3,0.9l-1.1,0.1l-1-1.6l-2.7-0.2l-3.7,0.5l-1.5,0.2l-4.4,3.9l-4.5,5.5l-0.1,1.4l-2.2,2.8l-1.4,0.7
		l-2.1,1.5l-2.4,0.6l-1.9,1.2l-1.6,2.8l0.8,2.1l1.7,1.9l0.1,1.2l1.3,1.3l-1.1,1l-2.7-0.8l-1.3-1.2l-1.1,2l-3,0.5l-2.4-0.5l-2,0.1
		l-0.6,1.3l0.4,1.8l-0.9,1.4v3.2l-1.5,1.7l-1.3-1.1l-2.7-1l-0.4,0.3l0.1,0.9l-0.6,0.3l-0.9-0.8l-1.4,1.4l-1.7,0.8l-1.5-0.5l-0.9-2.3
		l-3-0.4l-0.7-1.9l-1.6-0.6l-1.6-0.5l-1.1,1l-1.5,0.1l-0.3,3.4l-1,1.2l-2.2-0.6l-0.6,1.1l0.9,1.2l-1.2,2.1l-2.1,1l-1.3-1l-0.6,0.8
		v1.1l-1.4,1.2l-0.8-0.5l0.4-0.8l-4.9-1.8l-3.5-0.3l-0.7-1.7l1.5-3l-0.7-0.7l-1.3-0.1l-3.6-2.9l-2,1.9l-0.7-0.2l0.2-2.3l-2.8-1.8
		l-0.3-2l-0.3-1.3l0.8-2.1l0.3-2.2l-1.1-0.2l-0.8-1.3l-2.2,1.3l-0.7-2l-3.7-2.7l-1.7-0.4l-4-3.8l0.8-2c0,0-1.6-1.2-1.6-1.1
		s-0.8,1.9-0.8,1.9l-1.3,0.5l-1.8-2.3l-3.2-3.9l-1.8-1.5l-1.4-0.2l-1.6,0.8l-3.5-0.2l-1.6-0.2l-1.8-1.7l0.1-2.9l3.5-4.2l1.7-2.8
		l0.5-2.4l1-0.3l2.3-0.5l1.2-3.8l-0.5-2l-1.9-2.8l0.5-0.7l1-0.1l1.1-1l2,1.4l0.5-4l0.6-0.9l1,0.3l0.5,0.6l0.9,0.2l-0.2,3.5l1.8,2.7
		l1.1,0.2L132,86l2.9,2h2.1l2.1-0.7l0.9,0.3l1.3-0.9l0.3-1.9l-1.3-1.4l0.4-0.8l1.6,0.8l2.5-1.1l1.8,0.8l1.8-1.6v-3.8l-1.3-2.9
		l-4.3-3.5l-4.3-3.1l-3.4-3.1l-0.5-1.3l0.1-3.1l-1.1-1.6c0,0,0.4-1.5,0.4-1.6s2.6-3,2.6-3l0.2-5.1l-1-1.8v-4.8l-1.8-4.3l-0.6-2.4
		l-1.8-0.6l-0.9-1.7l0.7-0.6l2.2,0.4l1.3-2l1.8-1l1.3,1.1l0.6,2.7l1.3,2.2l2.1,1.3l3.7-1l1.5,0.2l2.2,1.2l0.9-0.6l-0.7-5.4l0.6-1.7
		l1.7-0.2l0.7-0.8l2.4-0.4l2.9,0.4l1.7,0.7l1.7-0.5l1.9-1.7h1l1.4,1.7l0.9-1l1.6,0.2l-0.4-2.1l2,0.1l-0.1-1.2l-0.8-0.6l-0.3-2.9
		l1-2.3l-0.2-7.3l-0.8-1.5l0.8-0.5l1.4,1.3l1.6-1.7c0,0,1.2-0.2,1.3-0.2s4.7-3.6,4.7-3.6l2.1-1.2l1.1,1.4v2.1l2.2,1.9l2,0.6l4,1.8
		l1.8,0.3l2.9,0.4l0.6,1.7l1.6,2.3l1.5,1l0.6-0.4l-1.4-2.1l0.1-2l-1.1-1.6L197,11.1z"/>
	<g>
		<text transform="matrix(1 0 0 1 156.9023 73.8402)" class="st1 st2">Faridpur</text>
	</g>
	<g>
		<circle class="st3" cx="183.2" cy="96.6" r="13.4"/>
		<text transform="matrix(1 0 0 1 177.2044 103.9092)" class="st1 st4">3</text>
	</g>
</g>
<g id="faridpur-2">
	<g>
		<path class="st7" d="M242,114.7l0.3,1.9l-1.4,2.5v1.5l-0.7,2l0.8,2.3l-0.2,4.8l0.5,1.7l-1.8,2.7l-2.2,0.5l-0.6,4.3l3.6,9.1
			l0.7,3.3l3.2,3.4l1.5,2.5l1.1,2.4l5.5,4.2l2.1,4l2.1,1.9v3.4l-1.1,1.5L253,175l-3.3-2.6l-3.5,0.3l-3.9,3.6l-1,4.8l2.2,4.8l4.4,1.6
			l2.4,2.4l0.5,3.4v2.3l1.5,1.6l0.3,4.5l-0.6,0.8l-3.4-0.5l-1.3,0.8l-1.4-2.4l0.6-1.7l-1.4-0.5l-2.5-2.4l-0.8,0.6l-3-2.7l-1.1,0.9
			l-0.6,4.4l-3.2,2.6l-0.2,2l0.9,1.3l0.3,3.2l1.5,1.9l-0.5,5.8l2.5,6.9l1.1,0.9l0.7-0.3l0.1-1.6l1-0.3l1.7,1.2l1.6-1.2l6.3,0.4
			l2.5-0.5v0.8l-1.1,2.5l-0.4,1.1l0.1,2.4l1.5,1.4l1.7-0.3l0.2-1.2l-0.4-1.3l1.1-0.9l1.1,1.7l3.4,2.1l-0.2,3.4l-1.8,2.6l-1.6,0.5
			l-2.1,1.1l-0.8,2.7l-1.2,0.2l-2.7-1.4l-1.9-0.3l-4.1,0.8l-2.3,0.2l-1.8,2.7l0.1,1.5l0.3,1.6l-1.7,1.3l-3.6,0.3l-4.7-1.5l-1.5-1.4
			v-1.1l1.4-2.1l1-3l0.5-2.2l2.9-1.4l0.1-1.9l-1.6-1.9l-3.9-0.8l-1.8-3.1L226,226l-4.3,1.9l-4,3l-2.4-3.3l-1.4-2.8l-0.7-0.6
			l-0.8-3.3l-1.7-1l-2.9-0.5l-1.3,0.6l-0.5-0.9l1.5-0.7l-1.3-0.4l-2.8-1.7l-3.5-0.9l-2.6,0.5l-2.2,0.2l-1.1-1v-3.7l0.9-1.9l1.9,0.9
			l0.7-0.8l-0.2-1.7l0.4-1.1l-0.2-1.9l2.4-4l1.6-1.2v-3.6l-1.8-3l-1.2-0.2l-0.6-1.4l0.9-0.4l2.3,2.1l2,2.1l0.3,0.9l1.9-0.4l-0.1-1.4
			l1.4-1.5l0.6-2.7l-0.2-2.3l0.5-2.4l-0.9-1.5l-1.9-0.4l-2.6,0.3l-2.2-0.5c0,0-1.1-1.2-1.1-1.3l-0.4-4l-2.1-3.6l0.3-1.8l1.9-3.8
			l1.9-2.4l-1.9-0.7l-1.5-0.7l0.4-0.5c0,0,1,0.1,1,0s-0.6-1.2-0.6-1.2l1.7-3l-0.2-1.6l0.9-1.4l-1.3-0.6l-2.1,1.2l-2.2-1.5l-3.3-0.1
			l-1.2-0.9l-1.6,0.6l-0.4-0.8l0.5-2l1-0.6l3.5-3.8l0.4-1l3.8-3.5l0.7,0.1l1.7-2.4l-1.7-1.6l-0.5-2.5l-1.1-0.1l0.2,1.7l-1.5,0.1
			l0.1-1.9l1.9-2.2v-3.3l0.8-1.4l-0.3-1.8l0.6-1.2l2-0.1l2.4,0.5l3-0.5l1.1-2.1l1.3,1.2l2.7,0.8l1.1-1l-1.3-1.3l-0.1-1.2l-1.7-1.9
			l-0.8-2l1.6-2.8l1.9-1.2l2.5-0.6l2.1-1.5l1.3-0.7l2.2-2.8l0.1-1.4l4.5-5.5l4.4-3.9l1.7-0.2l3.4-0.5l2.7,0.2l1,1.6l1.4-0.1l1.8,2.2
			l1.7,3.8l0.9,3.3l0.5,1.3l-0.1,0.8L242,114.7"/>
		<path class="st7" d="M217.8,231.1l-4.4,3.2l-1.1,3.3l-1.2,1.6l-2.7-2.8l-1.6-2.6l0.7-3.8l-0.8-1.6l-2.1-0.5l-1.8,0.3l-3.3-0.2
			l-1.8,1l-0.7,3.3l-0.8,1l-1.8-0.2l-4.3-2.7l-1.1-2.6V226l-0.8-1.9l-2.6,0.1l-1.5,2.5l-2.5,5.4l-1.3,1l-3.2,1.7l-1.6,2.8l-2.7,4.4
			l-2.4,2.3l-2.9,0.8l-0.8-1.3l2.7-2.3l-1.4-5.3l-0.1-1.2l-0.9-1l0.2-3.7l-1.3-2.5l-0.1-2.2l-2.3-1.1l0.6-2.1l-4.8-8.4l-0.3-1.3
			l0.4-1.1l2.3-1.3l0.8-0.8l-0.7-1h-2.4l-3,0.8l-1.3-0.3l-4-3.4l-0.5-1.5l0.2-1.1l1.5-0.4l0.3-1.1l-1.5-0.4l-0.2-1.7
			c0,0-0.4-0.8-0.4-0.9l0.2-1.2l-2-1l-1.4,0.3l-1.8-1l0.3-1.4l-4.9-4.2l0.2-1.8l-0.6-0.5l-0.9,0.5l-3-1.3l-1.1-1.3v-1.7l1.6-0.9
			l-0.7-1.3l-1.9-2l-1.2-0.2l-0.1-1.1l1.9-1.2l0.7-1.1l1-0.2l3.5-2.9l-1-1.9l-0.3-1.6l-1.7-1l-1.5,0.3l-1-1.1l0.7-0.4l-0.5-1.1
			l0.7-0.5l0.8,0.7l1.3-0.3l-0.5-2.8l0.2-1.1l-0.3-1l1.2-0.7l-2.1-0.9c0,0,0.9-0.6,1-0.8c0.1-0.1-0.3-1.4-0.3-1.4l-1.3-0.4l1.6-1.5
			l-1.5-3.5l0.5-1.4l-0.7-0.7l-4.3,1.6l-0.3-0.7l1.1-1.2l2.1-1.1h2l0.2-1.2l-0.4-0.8l0.8-2.2l0.8-0.8l-0.2-3.1l0.8-0.8l1.6,1.7
			l0.3,1.9l1.1-0.1l2.5-2.9l2.5-3.2l1.2-1.7l1.4-0.7l0.7,0.2l2.1-1.9l3.6,2.9l1.3,0.1l0.7,0.7l-1.5,3l0.7,1.7l3.5,0.3l4.9,1.8
			l-0.4,0.8l0.8,0.5l1.4-1.2v-1.1l0.6-0.7l1.3,1l2.1-1l1.2-2.1L171,139l0.6-1.1l2.1,0.6l1-1.2l0.3-3.4l1.5-0.1l1.1-1l3.1,1.1
			l0.6,1.9l3,0.4l0.9,2.3l1.5,0.5l1.7-0.8l1.3-1.4l0.9,0.8l0.6-0.3l-0.1-0.9l0.5-0.3l2.7,1l1.3,1.1l-0.4,0.5l-0.1,1.9l1.6-0.1
			l-0.1-1.7l1,0.1l0.5,2.5l1.7,1.6l-1.7,2.4l-0.7-0.1l-3.8,3.5l-0.4,1l-3.4,3.8l-1,0.6l-0.5,1.9l0.4,0.8l1.6-0.6l1.2,0.9l3.3,0.1
			l2.2,1.5l2.1-1.2l1.3,0.5l-0.9,1.5l0.2,1.6l-1.7,3l0.6,1.1h-1l-0.4,0.5l1.5,0.7l1.9,0.6l-1.9,2.4l-1.8,3.8l-0.4,1.9l2.2,3.6l0.4,4
			l1,1.3l2.4,0.5l2.5-0.3l1.9,0.3l0.9,1.6l-0.5,2.4l0.1,2.3l-0.6,2.6l-1.4,1.5l0.1,1.4l-1.9,0.4l-0.3-0.9l-4.4-4.2l-0.8,0.5l0.6,1.4
			l1.1,0.2l1.8,3v3.6l-1.7,1.2l-2.4,4l0.2,1.9l-0.4,1.1l0.2,1.6l-0.7,0.8l-1.9-0.9l-1,1.9v3.6l1.1,1.1l2.4-0.3l2.4-0.4l3.5,0.8
			l2.8,1.7l1.3,0.4l-1.5,0.7l0.5,0.9l1.3-0.6l2.9,0.5l1.7,1l0.8,3.3l0.7,0.7l1.4,2.8l2.1,2.9L217.8,231.1z"/>
		<g>
			<text transform="matrix(1 0 0 1 150.2356 176.4235)" class="st1 st2">Saltha</text>
		</g>
		<g>
			<text transform="matrix(1 0 0 1 202.9023 172.5069)" class="st1 st2">Nagarkanda</text>
		</g>
	</g>
	<g>
		<path class="st7" d="M241.9,114.7l2.6-2.4l4.2,4.7l2.2-2.9l1.4,1.1l0.8-0.8l0.5-1.6l4.7-1.9l3.3-3.6l-0.7-2.1l4.9-2.9l5.2,2.6
			l1.3-1.6l0.7,0.3l1.9-1.1l6.4,5.3l2.7-2.4h1.3l1.1,0.8l0.6-0.8l-0.2-1.3l1-0.7l1.7,0.6l2.6-1.6l7.8,0.8l5.4,0.8l0.7-0.3l2,0.4
			l5.2-0.3l6.1,0.7l5.9,0.4l0.9-1l-3.3-2.6l2.1-1l-0.2-1.1l3.2-2.2l1.2,0.5l1.4-1.9c0,0,2.8-0.4,2.9-0.4s1.1,1.1,1.1,1.1l1.3-0.8
			l2.9,0.8l1.3,1.3l1.1-0.8l1.5,0.6l1.6-0.4h4.3l0.4-0.8h0.6l0.6,0.9l2.5,2.2l0.3,3.9l1.1,1.9l3.1,4.3l2.7,2.3l2.1,5.1l2.6,4.5
			l3.6,5.5l6.2,5.6l2.7,2.1l-1.3,1.4l-2.1,2.5l-1.3,0.9l-1.7,0.1l-1.5-0.5l-1.2,1.1l-1.6,6.7l-0.4,2.2l-1.6,1.2l-0.5,2.1l-1,0.6
			l-4.1-2.4l-1-1.9l-0.9-0.2l-1.5-1.3l-0.9,1.2l-1.9,3.8l-3.4,2l-3.8,2.1l-3.3,0.5l-2.8-0.2L337,161l-1.2,1l1,2.3l-1,1.8l2.1,2.3
			l-0.8,0.7l1.1,1.3l-0.3,1.4L333,177l-4.3,3.6l0.2,0.9l1.5,0.3l1.6-0.5l1.3,0.8l1.4-0.6l0.9,0.7h2.8l-0.2,0.9l-4.7,3.6l-2.6,2.9
			l1,1.6l-1.4,2.3l0.8,2.4l-1,1.3v1.9l2.6,0.4l0.2,1.1l-2.7,1.9l-1.6,2.5l-2.1,0.4L326,204l-4-0.2l-1.2-0.5l-2.5-0.4l-1.4-1.4
			l-6-0.4l-0.5-0.8l-0.6-2.6l3.8-3.3l0.8-1l2.2-0.3c0,0,2.8-0.9,2.9-0.9c0-0.1,3.2-3.7,3.2-3.7l-0.1-3.9l-1.3-4.6l-1.4-2l-0.7-3.6
			l0.7-1.7l-0.1-1l0.4-1.8l-1.6-0.8l-3.1,0.3l-2.4-1l-2-2.5l-2.6,0.1l-3.1,2.2l-0.9-0.1l-1.6-2.1l0.6-0.6c0,0,1.5-0.1,1.7-0.1
			c0.1,0,1.3-0.9,1.3-0.9l-1.3-2.2l-0.5-2.4l-1.2-1l-1.8,0.7l-3,2.6l-1.6,0.6l-1.5,2.9l-1.6,2.1l-3.7,0.1l-3.7-3.4l-4.2-4.3
			l-0.4-3.9l0.9-2.2l-0.7-0.9l-1.3,1l-2.5-0.1l-6.2-5.2l-0.7,1.3v1.2l-0.6,0.5L269,151l-5.2,2.8l-2.3-0.2l-2.2,2.8l-3.8-0.3
			l-3.3-0.7l-2,0.5L249,157l-1.1-1l-2.3,1.7l-1.5-2.5l-3.2-3.4l-0.7-3.2l-3.6-9.1l0.6-4.3l2.2-0.5l1.8-2.7l-0.5-1.8l0.2-4.8
			l-0.8-2.4l0.6-2v-1.5l1.4-2.5L241.9,114.7z"/>
		<g>
			<text transform="matrix(1 0 0 1 296.4233 134.7985)" class="st1 st2">Sadarpur</text>
		</g>
	</g>
	<g>
		<circle class="st3" cx="274.4" cy="127.9" r="13.4"/>
		<text transform="matrix(1 0 0 1 268.4544 135.1592)" class="st1 st4">2</text>
	</g>
</g>
</svg>
