<?xml version="1.0" encoding="utf-8"?>
<!-- Generator: Adobe Illustrator 25.2.1, SVG Export Plug-In . SVG Version: 6.00 Build 0)  -->
<svg version="1.1" id="Layer_1" xmlns="http://www.w3.org/2000/svg" xmlns:xlink="http://www.w3.org/1999/xlink" x="0px" y="0px"
	 viewBox="0 0 400 536" style="enable-background:new 0 0 400 536;" xml:space="preserve">
<style type="text/css">
	.st0{fill:#ABBEED;stroke:#FFFFFF;stroke-width:0.5;stroke-miterlimit:10;}
	.st1{fill:#FFFFFF;}
	.st2{font-family:'TimesNewRomanPSMT';}
	.st3{font-size:24.672px;}
	.st4{font-size:16px;}
	.st5{fill:#8BAFE8;stroke:#FFFFFF;stroke-width:0.5;stroke-miterlimit:10;}
</style>
<g id="chuadanga-1">
	<polyline class="st0" points="157.1,142 155,142.4 154.7,140.7 156.2,138.8 153.7,136.6 151.6,136.7 152.2,131.6 151.2,127.1 
		153.1,121.2 153,118.9 156.5,118.7 158.1,115.8 159.8,115.4 159.7,110.2 158.3,102.6 160.8,94.6 161.9,89.5 162,86.4 163.5,85.7 
		163.8,84.1 164.6,84.1 165.4,81.3 168.3,81.3 169.7,84.2 171.7,86 174.3,85.4 178.5,83 189.3,80.8 189.6,83.4 192,83.4 194.4,80.7 
		196,66.3 199.2,58.1 205.7,44.9 207.9,41.8 207.9,35.3 211.7,31.9 218.8,30 221.9,26.4 222.6,19.1 226.9,15.7 235.6,15.6 
		239.4,18.5 245,17.1 249.5,14.2 256.8,14.7 262.8,16.6 269.8,20.7 272.4,21.4 275.8,21 277.8,18.5 283.7,9.8 285,9.9 287.3,13.4 
		289.1,21.4 291.4,22.7 293.9,22.8 297.4,25.2 300.2,29.8 301,35.3 295.8,40.7 295.8,50.3 292.7,57.1 289.4,63.9 288.6,67.3 
		290.1,70.1 293.2,70.5 299.3,69.2 305.3,65 309.7,56.8 312.3,55.3 318.7,58.1 319.5,57.5 317.3,51.9 317.3,49.2 318.9,48.6 
		325.9,52.9 327.5,51.5 329.1,45.9 333.9,41.6 339.6,41.4 345.9,43.6 352.4,50.9 354.1,56.8 354.2,61.6 356.1,63.6 358.9,65.1 
		363,65.3 364.9,69 367.5,67.9 371,69.2 373.1,68.9 379.5,72.5 380.6,69.3 381.5,65.1 383.9,63.5 386.6,65.1 387.1,73 382.1,82 
		378.4,91.3 374.3,98.8 371,102.8 370.6,106.3 371.6,107.6 376.4,107.2 379.3,104.7 383.3,106.3 388.2,115.8 389.3,121.4 
		387.5,132.1 386.7,136.7 388.1,140.7 396.7,155.1 393.6,155.4 390.9,156.2 391,160.2 388.7,160.8 388.7,164.8 387.7,168.8 
		386.5,173 387.7,177.1 386.5,184.6 387.5,186.2 387.5,192.3 385.3,194.8 385.3,199.1 388.4,207.9 391.1,213.2 390.9,216.4 
		387.5,223.5 387.1,226.3 387.2,229.7 384.3,229.3 383.7,230.6 387.8,238.1 388.2,244.4 389,246.9 387.6,248.7 384.4,247.2 
		377.6,244.3 376,245 372.8,249 365.1,255.6 363.8,255.7 363.3,254.6 361.2,255.2 357.8,253.9 357.9,252.8 360.2,252.3 360,249.5 
		356.3,248.2 349.9,250 345.8,249.7 343,248.4 337.6,247.4 330.3,247.4 329.7,248.9 325.2,248 324.1,249.2 321.9,249.1 320.3,247.9 
		318,250.7 316.9,250.4 316.6,248.1 311.7,244.1 309.1,245.6 309.7,247.7 306.9,249.9 305.1,249.5 303.5,245 301,244.1 300.7,240.9 
		297.1,239.3 296.4,240.3 294.7,239.5 295.5,237.5 293.3,234.2 291.9,234.5 292,232.6 290.7,232.8 288.9,230.8 289.6,227.6 
		287.7,226.5 290.6,219.6 290.4,217.2 289.1,216 288.6,214 285.2,209.5 285.9,206.5 284.4,205.8 284.8,204.2 284.4,201.4 
		281.9,200.5 281.2,198 278.2,195.7 277.4,191.7 278,190 280,190.2 278.7,186.9 281.3,184.4 281.3,183.1 282.4,181.2 281.8,180.2 
		277.5,178.1 276.4,176.1 278.3,174.9 275.6,173.4 272.6,175.2 269.3,173 268.2,173.8 268.3,175.2 265.6,177.4 264.6,176.8 
		263.8,178.2 262.1,176.8 259.9,177.1 256.1,172.3 250.4,178.3 248.6,178.3 247,178.3 243.4,181.9 241.2,182.4 237.1,182.1 
		233.7,183 229.1,183.2 227.8,184.8 229,187.3 228.8,189.2 227.1,190.4 224.7,189 222,184.9 221.4,176.2 220.5,172.6 217.1,170 
		212.4,170.8 209.4,173.2 209.6,177.1 210.3,178.7 208.6,180 204.7,177.9 201.3,176.3 193.1,175.7 189.6,175.8 187,180 183.5,178.3 
		183.1,180.4 181.1,180.3 180.2,179.7 179,174.8 175.7,168.5 168.6,161.2 165.4,160.5 162.5,161.9 156.1,162.8 149.6,163.4 
		145.8,162.8 148.5,155.1 151,155.1 153.9,151.7 151.9,150.7 152.1,149.7 154.3,149.7 154.1,146 157.2,143.4 157.2,142 	"/>
	<path class="st0" d="M170.1,221.7l8.7-16.8l3.1-11.3l-0.8-13.5l2.1,0.2l0.4-2l3.4,1.6l2.7-4.2l3.4-0.1l8.2,0.5l7.4,3.8l1.7-1.3
		l-0.6-1.5l-0.3-3.9l2.9-2.5l4.8-0.7l3.4,2.6l0.8,3.7l0.7,8.6l2.7,4.2l2.4,1.4l1.7-1.2l0.2-1.9l-1.2-2.4l1.4-1.5l4.6-0.3l3.4-0.9
		l4.1,0.3l2.2-0.5l3.6-3.6l3.4-0.1l5.7-5.8l3.9,4.6l2.1-0.4l1.7,1.4l0.8-1.3l1.1,0.6l2.7-2.3l-0.2-1.5l1-0.6l3.4,2.2l3-1.9l2.5,1.5
		l-1.7,1.1l0.9,2l4.4,2.1l0.5,1.1l-0.9,1.8l-0.1,1.4l-2.7,2.4l1.2,3.2h-1.8l-0.7,1.7l0.9,4l2.9,2.3l0.8,2.4l2.5,0.9l0.3,3l-0.4,1.4
		l1.5,0.7l-0.7,3l3.3,4.5l0.4,2.1l1.4,1l0.3,2.5l-2.9,6.9l1.7,1.1l-0.5,3.1l1.7,2l1.2-0.2l-0.1,1.7l1.4-0.2l2.1,3.3l-0.7,2l1.4,0.8
		l0.9-0.9l3.7,1.5l0.2,3.4l2.6,0.8l1.4,4.5l1.9,0.4l2.8-2.4l-0.5-2l2.5-1.5l4.9,3.9l0.2,2.3l1.1,0.4l2.4-2.7l1.7,1.1l2.3,0.1
		l1.1-1.2l4.5,0.9l0.6-1.5h7.6l5.3,1l2.8,1.3l4.2,0.4l6.4-1.8l3.7,1.4l0.1,2.7l-2.2,0.5l-0.1,1.1l3.4,1.4l1.9-0.7l0.7,1.1l1.1-0.1
		l7.8-6.6l3.1-4l1.6-0.7l10,4.3l-2.5,3.2l-1.3,11.3l-0.7,6.2l-2.8,2.1l-0.7,3l-11.2,10.6l-6.2,6.9l-1.2,5.9l1.1,4.8l4.2,0.3
		l-0.4,2.8l-4.5,0.9l-2.8,1.9l-2.2,9.1l-2.6,0.3l-2.8,2.8l1.8,5.6l-1.1,2.1l2.1,1.4l-0.5,3l-2.7,0.5l-5.7-4.7l-8.5-1.4l-1.5-1.8
		l-4,1.8l-2.7-1.8l-5.2,0.1l-1.8,3.7l-2.9,1.5l0.7,4.3l-1.7,2.8l3.2,3.5l5.5-6.5l4.2,3.1l5.2,4.5l3.9,0.7l0.1,1.1l-2.8,1.7l3,4.2
		l-1.2,4.3l-2.1,0.2c0,0-2.6,4.8-2.8,4.8c-0.2,0-3.9-0.2-3.9-0.2l-3.1,4.7l-2.8,0.2l0.2,4.7l1.1,0.7l-2.7,5l0.2,2.5l-1.5,3.1
		l0.2,3.9l-2.7,0.2l-0.7-4.6l-2.7-2.3l-0.5-2.8l-3.2-4.6l-1.9,0.4l1.1,3.1l-0.9,3.9l2,2.6l0.7,8l-2.5,2.5l-5.6,0.2l-2.7-3.4
		l-6.2-3.5l-4.2-0.3l-1.8-3.4l0.7-6.5l-3.1-6.9l-1.8,0.8l-0.2,5.4l-1.1,4.7l-4.1-1.3l-11.6,8.4l-4.2,0.3l-21-1.8l-20.8-4.5l-0.4-4.5
		l-1.1-0.8l-2.1-6.1l-4.5,0.2l-3.7,2.3l-8.9,2.6l-6.7,3.6l0.5,2.6l5.6,4.3l2.7,5.8l-0.2,3.9l-5.1,4.7l-2.7,0.7l-2.8-3.1l-0.9-4.3
		l-3-1.1l-3.4,4.5l-3,1.7l-2,1.6l-2.7-0.4L175,391l-0.2-5.7l-2.6-2.3l3.7-6.9l-0.6-7.2l-3-3.4l2.3-1.6l2.6-0.2l3.9-4.4l1.7-6.5
		l1.7-0.1l1.7,1.4l0.2-5.1l2.1-0.7l1.7,3.9l2.7-1.4l-1.7-2.8l2.2-0.7l2.1,2l0.8-2.1l-2.3-2.4l0.9-1.7l-2.5-0.9l4.9-5.1l2.7,0.7
		l0.6-1.9l-3.9-1.8l-4.2,0.6l-3.6-4.3l0.4-2l-2.7-1.3l1.1-5.7l3.6-3.9l0.5-10.1l-3.4-4.2l1.3-5l1.7-4.3l4.7-3.9l-1.2-7.7l-2.8-2.7
		l-2.3-7.3l-4.3-1.1l0.1-4.6l4.2-3.1L189,259l3.7-2.3l-0.5-3.2l-2.3-1.4l1.6-2.5l-1.4-1.8l2.2-2.8l-6.9-4.2l-2.4,2l-2.7-0.7l-3.2-2
		l-1.4,1.2l1.4,5l-1.8,1.1l-5.1-2.4l-0.1-5.8l-3.4-2.3h-3.8l-1.9,3.4l-2.5-1.7l1.2-4.6l9.1-9.6L170.1,221.7z"/>
	<g>
		<g>
			<g>
				<circle class="st1" cx="249.9" cy="123.7" r="13.4"/>
				<text transform="matrix(1 0 0 1 243.9285 131.0006)" class="st2 st3">1</text>
			</g>
			<g>
				<text transform="matrix(1 0 0 1 270.5597 128.5905)" class="st2 st4">Alamdanga</text>
			</g>
		</g>
		<g>
			<text transform="matrix(1 0 0 1 231.643 284.3822)" class="st2 st4">Chuadanga</text>
		</g>
	</g>
</g>
<g id="chuadanga-2">
	<path class="st5" d="M163.5,411.2l4-7.9l3-0.4l3.4-1.8l0.8-2.8l-6.3-0.5l2.4-5.4l2-1.1l-1-3.7l1-3.8l1.8,1.7l0.2,5.8l2.8,5.5
		l2.6,0.4l2-1.5l3.1-1.7l3.4-4.6l2.9,1l0.9,4.5l2.8,3.1l2.7-0.7l5.1-4.7l0.3-3.8l-2.8-6.1l-5.5-4.2l-0.6-2.6l6.7-3.6l9-2.6l3.4-2.3
		l4.5-0.2l2.2,6l1.1,0.8l0.4,4.4l20.8,4.5l21,1.9l4.2-0.3l11.6-8.5l4,1.4l1.1-4.7l0.2-5.4l1.8-0.8l3.1,6.9l-0.7,6.4l1.6,3.4l4.2,0.4
		l6.4,3.6l2.8,3.4l5.6-0.2l2.5-2.6l-0.7-8.1l-1.9-2.4l0.8-3.9l-1.1-3.1l1.8-0.4l3.3,4.5l0.5,2.8l2.7,2.3l0.7,4.6l2.7-0.1l1.4,1.1
		l-0.8,5.2l0.4,1l-0.4,5.2l1.5,4c0,0-2,7.1-2,7.2s-5.2,6.9-5.2,6.9l-5,3c0,0,2.4,1.8,2.4,1.9s-0.5,3.4-0.5,3.4l1.1,2.1l-0.7,2.3
		l-2.1-0.2l-4.6-0.6l-1.2,1.8l0.2,3.7l2,2.2l-1.2,4.4l1.1,2.4l-1.5,1.7l-2.7-0.3l-8.2,5.1l-0.8,2.1l0.8,1.6l1.6-0.2l9-5.5l5.5-1
		l7,1.3l3.4,3.1l0.9,3.9l-0.1,4.6l-4.3,3.6l-3.6-1.9l-2.3-1.6l-2,2l1.4,3.2l-0.8,3.2l-1.8,2.5l3.1,5.4l-0.4,1.9l-3.4,1.4l-7.3-2.5
		l-1.2,1.5l-1.8-0.6l-2.8-3l-7.4-1.7l-3,1.2l0.1,1.5l2.8,1.5l4.7-1.6l1.9,2l0.9,5.6l-0.5,2.5l-3.6,2.6l-7.9-0.8l-3.9-0.2l-2.6-4.9
		l-7.1-0.4l-0.3,3.6l-1.2,0.4l-1.7-1.1l-2.8,2l0.4,1.1l-1.9,0.9l-4.2-0.8l-3.1-2.5l-1.9,1.2l0.7,1.5l-2.5,1.4l1.1,3.3l-2.4,2.7
		l0.9,2.6l-2,0.6l-0.8,4.7l1.5,1.3l-0.5,1.4l-2.6,0.1l0.7,2.7l-1.2,0.7l-2.9-0.6l-1,1.4l2.2,1.7l-1.1,1.3l-3.6-2.1l-4.3,3.4L234,514
		l0.7,1.7l1.1-0.7l-0.3-1l1.4-0.1l-0.5,2.9l-1.2,1.5l-4.7-1.2l-1.1,1.4l-1.9-0.1l1.7-2l-1.1-1.2l1.4-1.2l-0.1-1.5l1.3-0.8l-1.5-1.9
		l-1.4,0.8c0,0-1.8,6.8-1.7,6.8s-1.6,1-1.6,1l-2-2l-2.1-2.8l-2.8-1.4l-3.7,0.1l-1.4-2.4l0.1-1.5l-3-0.3l-0.5-3.4l-1.5-0.3l-0.1-1.5
		l-1.6,0.7l-0.5,3.1l-3.4,4l-0.4,4.3l-1.1,1.2l-5.8-5.8l-3.6-2.1l-2.7-4.2l-2.8,2.9h-4.8l-1.4,4.5l-5.2,4.3l-0.9,3.1l-3.4,1.2
		l-2.8-0.3l-1.8,0.5l-1.5-1l0.3-3.5l-4-3.1l-5,0.5l-4.3,5.2l0.1,2.6l-5.9,8.8l-1.2-0.9l5.5-8.8l-2.1-3.3l-8.3,7.1l-2.6-0.4l-2.9-3.1
		l-2.1,0.8v-1.8l1.8-0.7l-1.8-0.8l0.4-3.6l2.1-1l0.4-2.7l1.1-0.5l-0.7-2.1l1.1-0.8l-1.1-1.1l-3,3.4l-2.6-2.2l-0.1-2.3l-3.3-0.4
		l-0.7-3.5l1.5-0.9l0.6-2.1l-1.8-1.9l-2.5,0.3l-1.4-2.1l0.7-2.7l3.3-1.9l5.4-2.4l3.3-3.7l0.4-2.8l-0.7-0.8l-2.3,0.7l-0.7-1.1v-2.1
		l-3.3-0.8l0.8-4.2l1.6-6.1l1.7-2l1.5,1.7l1.2-1.7l-1.8-4.3l0.8-1.4l2.6-1.3l-1.6-2l1.4-1.6l-0.6-3.6l1.7-3.4l-0.4-2.6l0.7-1l-0.8-2
		l0.9-1.8l3,0.3l1.6-0.8l0.8,3.1l1.2-0.2V440l1.3-0.9l1.6,0.7l-1.5,1.7l2.8,2.9l4.2,0.4l-0.1,2l2.6,0.4l-3.6,3.3l0.5,0.9l3.8,0.8
		l0.2-1.4l-1.2-1.5l0.8-1.1l2.5,2.6c0,0,0.3-1.7,0.3-1.8c0-0.1-0.8-2-0.8-2l-1.1-1.4l2.8-1.4l1.6,1l2.1-1.2l0.7,1.4l-2.4,1.1
		l0.9,1.2l2.5-1.1l-0.3-2.8l1.4-0.2l0.7,2.7c0,0,3.7-0.4,3.7-0.5s-0.5-1.5-0.5-1.5l-2-0.2l0.2-3.8l-1.4-1.6l-0.9,1.7l-1.3-0.5
		l-0.4-2.1l1.4-0.3l-0.1-4.5l1.5-0.5l-2.4-2.5v-2.7l2.4-1v-1l-2.2-0.4l0.1-1.9l1.2-0.3l-3.3-2.3l-1.2-2.7l0.2-1.8l3.3-2L163.5,411.2
		z"/>
	<path class="st5" d="M142,164l4-1.2l3.6,0.7l12.9-1.5l2.8-1.6l3.4,0.9l7.1,7.2l3.3,6.3l1.1,4.9l0.8,0.7l0.9,13.4l-3.2,11.2
		l-10,19.6l-9.1,9.6l-1.2,4.5l2.6,1.8l1.9-3.3h3.7l3.6,2.4l0.1,5.6l5.1,2.4l1.8-1.1l-1.4-4.9l1.4-1.2l3.1,2l2.8,0.7l2.4-2l6.8,4.2
		l-2.1,2.8l1.4,1.8l-1.6,2.5l2.3,1.4l0.5,3.1l-3.7,2.3l1.2,4.6L186,267l0.1,4.4l4.2,1.1l2.3,7.2l2.9,2.8l1.2,7.6l-4.8,3.9l-1.7,4.2
		l-1.3,5.1l3.4,4.3l-0.4,10l-3.6,3.9l-1.1,5.7l2.7,1.3l-0.4,2l3.6,4.4l4.2-0.7l3.9,1.8l-0.5,1.9l-2.8-0.6l-4.8,5l2.4,0.9l-0.8,1.8
		l2.3,2.4l-0.8,2.2l-2.1-2l-2.1,0.7l1.5,2.8l-2.6,1.4l-1.8-3.9l-2.1,0.6l-0.2,4.9L185,353h-1.7l-1.6,6.5l-3.9,4.5l-2.5,0.2l-2.3,1.6
		l2.9,3.4l0.6,7.2l-3.9,6.9l-5-4.4l-2.9,1.1l-3.7,4.9l-2.7-0.7l-0.8-2.3l2.8-4.1l-0.9-0.6l-5.1,3.7l-2.3,0.7l-4.1,0.9l-2.3,2.3
		l-2.3,4.8l-0.3,4.3l3.7,3.3l2.6,4l0.3,1.4l-1.8,1.4l-4,0.3l-5.1-3.6l-2.1-6.4l-2.9-2.4l-2.5,0.8l-1.6,3.4c0-0.1,5.5,6.4,5.5,6.4
		l-1,2.5l-7.3-0.1l-7.4-5.4l-3,4.5l-3.2-0.5l3.4-4l-1.7-3.4l-0.5-1.9l-10.1-8.8l-0.8,1.5l-2-1.5l2.3-3.5l-1.2-5.8l-4.6-8.5l-2.9-0.7
		l-3.4,0.4l-4.8,4.2l-6.4-7.5l-3.6-2.4l-5.1,1.8l-2.2-0.3l-2-3.4l1.8-6.1l-1.6-1.5l-3,2.5l-1.1-1l0.5-6.6l-2.5-1.3l-4.2,4.2
		l-2.3-0.8c0.1,0,3.6-5.5,3.6-5.5l-0.2-3.9c0,0-7.4-10.3-7.5-10.3s-4.7-3.7-4.7-3.7l-6.6,3.3l-2.9-0.6l-4.5-3.4l-0.1-3.8l-5.9-4.1
		l-1.2-3l2.1-2.4l-1.4-6.2l-4.2-12.9L21,291l2.9-4.2l-3.6-2.4l-5-5.9l-2.8,1.8c0,0-1.7-0.9-1.7-1.1c0-0.1,1.4-3.3,1.4-3.3l-1.2-4.5
		l3.2-3l1.4-6.6l3.4-1.1l-2.3-2.4l-2.5,1.5l-2.8-2.3L9,258.6l-4.3-6.8l2.7-2.1l1.9,2l0.9-3.1l2.7,0.5l5.6-2.3l-0.9-2l0.8-0.7
		l2.1,1.2l0.9-1.5l-3.3-1.5l-4.3,0.2l0.6-7.1l3,1.5l0.5-1.2l-1.8-1.7l3.4-1.7l1.1-3.7l-1.4-2.4l-2.6,0.8l-0.4-1.2l1.6-1.8l-1.2-1.7
		l0.2-0.8l3.1-0.3l2.3-0.3l2-4.6l-0.2-2.7l5.7,0.4l6.9,4l3.4,1.4l3.4-4.9l1.4,0.2l0.7,2.4L49,216l3.9,1.1l3.3-5.7l0.2-5.1l2.2-2.3
		l4.2,4.6c0,0,2.1,0.8,2.2,0.8s2-1,2-1l-2.6-2.8l0.9-1.3l3.3,2l1.1-1.1l-2.6-1.6l2.4-1.8l-1.1-1.9l2.4-3.1l4.7-0.2l4,0.2l5.2-4.5
		l5.1-1.7l6.4-3.4c0,0,4.9-2.6,5-2.6c0.1-0.1,5.5-5.3,5.5-5.3l4.8,0.8l2.6-5.9l4.2-4.4l0.3-2.4l4-2.4l4.7,0.9l4.7-1.2l5.2,0.5
		L142,164z"/>
	<g>
		<g>
			<circle class="st1" cx="105.5" cy="260.3" r="13.4"/>
			<text transform="matrix(1 0 0 1 99.4286 267.5007)" class="st2 st3">2</text>
		</g>
		<g>
			<text transform="matrix(1 0 0 1 66.7263 292.3823)" class="st2 st4">Damurhuda</text>
		</g>
	</g>
	<g>
		<text transform="matrix(1 0 0 1 207.768 431.8406)" class="st2 st4">Jibannagar</text>
	</g>
</g>
</svg>
