<?xml version="1.0" encoding="utf-8"?>
<!-- Generator: Adobe Illustrator 25.2.1, SVG Export Plug-In . SVG Version: 6.00 Build 0)  -->
<svg version="1.1" id="Layer_1" xmlns="http://www.w3.org/2000/svg" xmlns:xlink="http://www.w3.org/1999/xlink" x="0px" y="0px"
	 viewBox="0 0 244.7 598" style="enable-background:new 0 0 244.7 598;" xml:space="preserve">
<style type="text/css">
	.st0{fill:#8BAFE8;stroke:#FFFFFF;stroke-width:0.5;stroke-miterlimit:10;}
	.st1{font-family:'TimesNewRomanPSMT';}
	.st2{font-size:16px;}
	.st3{fill:#FFFFFF;}
	.st4{font-size:24.672px;}
	.st5{fill:#9BB6EA;stroke:#FFFFFF;stroke-width:0.5;stroke-miterlimit:10;}
	.st6{fill:#7CA7E5;stroke:#FFFFFF;stroke-width:0.5;stroke-miterlimit:10;}
	.st7{fill:#ABBEED;stroke:#FFFFFF;stroke-width:0.5;stroke-miterlimit:10;}
	.st8{fill:#C5CFED;stroke:#FFFFFF;stroke-width:1.033;}
</style>
<g id="khulna-1">
	<polygon class="st0" points="77.2,167.1 82.1,167.9 86.4,165.7 87.6,167.1 87.9,173.3 91,174.2 91.8,173 90.3,167.7 91.8,164.3 
		101.9,151.1 104,152.2 105.5,151.3 105.6,146.6 103.4,137.1 106.1,134.1 105.9,131.2 108.1,128.2 107.6,123.4 108.8,122.1 
		110.5,117.3 112.7,115.6 111.2,112.5 111.2,111.5 112.6,111.2 113.4,108.7 113.5,105.1 117.3,106.2 120.8,105.9 121.5,103.8 
		122.8,104.6 121.9,107.3 123.5,108 125.2,105.8 128.1,105.9 129.6,104.9 132.4,106.1 132.9,107.6 134.6,107.3 133.9,102.9 
		135.2,101.5 137.5,103.3 137,104.3 135.4,104.5 135.4,106.6 137.3,110.8 140.4,110.4 142.8,112.3 144.4,111.8 144.3,109.6 
		146,109.5 148.3,114.4 148.9,119.7 151.9,122.7 154.7,125 155.9,125 158.3,127.3 165.3,128.3 166.5,130.3 165.5,132.9 160.9,138.2 
		162.3,140.6 162.4,144.4 160,147 158.6,144.2 155.4,147.2 157.6,151.5 163.1,150.3 164,154.4 163.1,155.8 159,155.5 156.2,158.1 
		149.5,158.6 149,160 153.3,164.7 154.3,169.4 153.2,170.4 145.1,164.9 143.5,165.7 142.3,169.7 140,172.5 142.8,181.8 141.9,184.1 
		136.9,187.7 134.6,191.8 133.6,196.8 130.1,195.1 129.2,189.5 120.6,183.9 116.1,179.8 111.2,177.8 109,180.6 103.4,179.6 
		102,180.6 100.7,184.2 96.7,181.6 91,179.3 82.5,180.7 79.9,180.9 78.3,179.6 77.7,173.4 77,170.7 76.8,167.2 	"/>
	<path class="st0" d="M156.9,258.1v-8.4l-7.3-28.2L145,214l-3.2-3.5l-3.6-5.4L134,199l-0.4-2.5l-3.3-1.6l-1-5.6l-8.6-5.5l-4.5-4.2
		l-4.9-1.9l-2.2,2.8l-5.6-1.1l-1.4,1.1l-1.4,3.5l2.3,4.1l-1.8,2.2l-4,2.7l-3.5,6l-2.8,1.1l-3.3,3l-2,0.3l-3.2,4.4l-4.6,2.5L78,213
		l3.5,4.6l5.4,5l0.1,2.8l-3.9,4.6l-2.9,4.7l0.2,3.3l3.1,4.7l-0.2,0.9l1.5,2.9l0.9,3.4l-0.1,7.9l0.4,0.3l0.4,5.8h1.9l0.7,0.8l0.2,3.9
		l1.5,7.8v8.1l-0.1,2.9l5,4.1l1.2-0.4l0.3-2.9l1.1-0.9l2.6,3.2l2.1,0.9l1.7-1l-0.8-3.3l-2.7-1.8l-2-4.6l2.8,0.1l1.2-1.4
		c0-0.1,0.1-2.5,0.1-2.5l-3.4-1.7l1.6-6.2l4.8-4.6l-0.9-1l-0.1-1.5l-2.5-1.9l0.1-0.8l3.9-2.2l3.8,0.2l2.3-1.5l-0.1-2.1l-0.9-2.5
		l-0.2-5.1l0.5-0.1l2.4,2l0.1,2.9l2.4,1.5l2.1,0.4l1.9,2.2l1.4,4.6l1.7,1l1.2-1.3l-0.5-4.4l6.3-0.9l2.5-1.2l1.6,0.5l-1,2.6l1.4,2
		l1.8,1.8l-2.7,1.2l0.3,1.4l2,1.2l0.7,4.7l2.8,3.8l-0.1,1.8l3.7,0.8l4.3-1.5l1.1,2.2l1.7,0.2l2-4.8h1.5l-0.6,5l1.3,1.2l1.1-0.7
		l0.3-2.3l1,2.1l1.1,0.7l2.6-1.8l-3.4-11.9L156.9,258.1z"/>
	<g>
		<text transform="matrix(1 0 0 1 110.9886 150.1543)" class="st1 st2">Botiaghata</text>
	</g>
	<g>
		<text transform="matrix(1 0 0 1 88.9998 217.4494)" class="st1 st2">Dakop</text>
	</g>
	<g>
		<circle class="st3" cx="135.1" cy="234.6" r="13.4"/>
		<text transform="matrix(1 0 0 1 129.1085 241.8329)" class="st1 st4">1</text>
	</g>
</g>
<g id="khulna-5">
	<path class="st5" d="M45.4,146.9l5.5,0.9l2.9,3.6l3.5,1.6l0.5,3.2l8.8,4.7l1.2,4.1l3.7,1.3l5.5,0.8l5.1,0.8l4.3-2.3l1.2,1.4
		l0.4,6.2l3.1,0.9l0.8-1.2l-1.6-5.3l1.6-3.4l10-13.2l2.1,1.1l1.5-0.9v-4.8l-2.2-9.5l2.7-2.9l-0.2-2.9l2.3-3l-0.5-4.9l1.2-1.2
		l1.7-4.9l2.2-1.7l-1.5-3v-1l1.4-0.3l0.8-2.6l0.1-3.5l3.7,1.1l3.5-0.3l0.7-2.1l1.3,0.8l-0.8,2.7l1.5,0.7l1.7-2.2l2.9,0.2l1.5-1
		l2.8,1.1l0.5,1.5l1.6-0.3l-0.6-4.4l1.3-1.5l-1.9-1.6l0.6-2.5l-3.4-0.8l-0.7-2.2l-2.7,0.1l-0.7-1l0.8-1.5l-0.7-0.8l-1,0.4l-0.2-4.8
		l-3.6-5.2l-1.2-0.1l-5.3-3.8l0.2-5.6l-2.9-2.6l-0.4-1.6l-3.2-4.6l0.2-3.6l-5.7-3.1L103,54l1.5-1.7l-2-1.1l-4,1.6l-4.9-0.5l-4,1.9
		h-6.1l-3.8-1.9l-2-3.3l-2.2,0.5l-2.7,3.1l-1.5,0.1l0.5-4.1l-1.1-1L68,46.7L63.3,47L62,48.5v2.6l-6.8,1l-2,0.3L52.1,54l0.3,3l-1,0.7
		l0.3,1l2.9-0.2l1.7,3.2v2l0.9,1.3L56,66.7l0.4,0.8h1.2l1.2,1.6l0.1,2.6l-1.5,2.6L55,74l-1.2,1.7l0.1,1.9l4.4,0.9l0.3,3.8l-1.9,0.4
		l-0.9,1.7l1.1,1.9l-0.6,3.3l0.4,2.2l-2.4,2.3l-4.2,0.3l-2.7,1.2L45.2,96l-0.3-0.8l2.1-1.7l1.2-2.8l-1.5-1l-3.6-0.2l-5.3-0.9
		l-4.6-0.4v-1.3l3.7-0.3l1.9-1.4l0.2-1.7l-2.4-0.7h-3l-3.3-3.6l-1.4,0.5L28.1,85l-2.7-0.1l-0.9-1.1L23.1,85l-2.4-0.8l-0.3,2.7
		l1.3,1.2l-1.5,1.5l-2-1.5H17l-1.5-2.3l-1.6,1.4l-0.4,1.6l-1.5,1l-0.2,2.4l1-0.3l1.4-1l2,2.7L14.9,95l-0.4,3L13,99.7l-1.5,0.4v1.6
		l1.9,2h2.5l0.4-1.4l2.7-0.6l1.4,1.1l-0.4,1.9l1.1,1.3l-1.2,3.6l2,3.1l1.9-0.6l4.6,0.2l1.5-1.7l2.2,3.1l1.7-0.1l-1.2,1.5l0.5,1.3
		l1,0.3l0.1,2.6l-0.8,1.8l1.6,2.7l2.4,0.5l1.3,1.5l-0.2,6.4l4.6,3.6l0.8,1.7l1.6,0.5l0.1,2.8l2,0.4l-1.9,4.9L45.4,146.9z"/>
	<polygon class="st5" points="78,39.3 76.9,43.1 75.3,42.9 73.4,45.1 74.8,46.6 74.8,47.2 70.5,47.6 71.7,48.7 71.2,52.8 72.8,52.6 
		75.5,49.5 77.6,49 79.9,52.4 83.8,54.3 89.9,54.3 93.9,52.4 98.7,52.9 102.7,51.2 104.6,52.4 103.3,54 103.5,56.5 109.2,59.7 
		110.5,59 114.8,60.2 117.6,61.8 118.4,59.3 118.6,58 121.6,57.6 124.1,59.7 128.1,59.5 127.6,56.8 126,51.9 125.6,50.1 119.1,45.3 
		114,40.5 112.5,37.8 112.4,31.8 110.7,27.1 106,20.6 104.2,18.3 103.2,13.4 101.6,12 99.6,12.1 95.3,13.4 93.3,13.4 92.6,15.7 
		89.6,18.4 89.4,25.1 89.3,28.5 88.6,30.3 88.8,33.2 87.1,34.5 80.8,35.2 78.6,37 	"/>
	<g>
		<text transform="matrix(1 0 0 1 59.7998 99.6)" class="st1 st2">Dumuria</text>
	</g>
	<g>
		<text transform="matrix(1 0 0 1 55.3983 43.978)" class="st1 st2">Fultola</text>
	</g>
	<g>
		<circle class="st3" cx="73.2" cy="123.7" r="13.4"/>
		<text transform="matrix(1 0 0 1 67.2085 130.9829)" class="st1 st4">5</text>
	</g>
</g>
<g id="khulna-6">
	<path class="st6" d="M47.6,147.2l-4.7,1.1l-2.7-0.3l-1.9-1.4l-2.3,2.2l1,2.3l-1.3,1.9l1.7,1.9l-0.5,4.7l-1.8,2.2l-2.6-0.2l-4.7-6.7
		l-4.8,0.5l-2.8-2.1l-1.3-3.8l0.3-3.3l-1.1-1.3l-1.2,0.1l-0.1,7l-0.1,6.4l1.7,3.7l-0.5,6.4l1.6,1.5l9.4,3.6l1.4,0.6l3.9,4.4
		l-3.8,2.2l-4.5,3l-2,1.5l-0.2,1.9l1.6,1l3.8,1.1l-0.5,1.2h-2.3l-6.5-3.4l-1.7-2.7l0.9-5.7l-1.5-4.7l-2.2-1.3l-1.8,1l-0.4,5.6
		l-3.7,3l-0.3,1.5l3.8,2.8l3.6,2.7l0.5,2.1l-0.6,0.4l-5.7-0.2l-1.4,1.3L9.2,196l1.2,0.6h2.9l4.9,2.1l0.4,1.5l-0.4,8.2l-1.7,5.1
		l-2.2,1.1l-4.2,0.2L9,216.5l-3,6.4l0.3,1.9l5.5,6.9l0.4,1.3l-0.3,7.5l0.7,5.6l2,2.9l6-2.5l4-1.6l2.6,0.9l4.3-0.9l0.7-2.2l3.1-2.2
		l2.8,0.1l6.4-3.8l2.3,2.3l-2.2,3.9l0.3,1.6l0.9,0.3l1.5-0.6l4.8,5.2l2.1-1.1l1.3,0.5l0.5,1.8l-4.3,4.6l-1.4,3.5l1.6,1.9
		c0-0.1,3.6-3.4,3.6-3.4l4.4,1.9l3.9,1.7l1.1-1l1,0.4l-0.1,1.7l1.2-0.6l3.3,1.9l2.4-0.5l0.7-4.1l1.7,0.3l2.5-2.2l2.8,1.6l4.7-0.2
		l0.1-8l-0.9-3.4l-1.5-2.8l0.2-1l-3.2-4.7l-0.1-3.3l3-4.8l3.9-4.5l-0.1-2.8l-5.5-5l-3.5-4.5l-0.2-2.7l4.6-2.6l3.2-4.4l2-0.3l3.3-3
		l2.8-1l3.5-6l4-2.7l1.8-2.2l-2.3-4.2l-3.9-2.4l-5.7-2.3l-8.5,1.5l-2.6,0.2L78,180l-0.6-6.2l-0.7-2.7l-0.2-3.6l-5.3-0.8l-3.7-1.3
		l-1.2-4.1l-8.8-4.7l-0.4-3.2l-3.5-1.5l-3-3.6L47.6,147.2z"/>
	<path class="st6" d="M33.3,377.5l0.8,2.7l7.6,3.4l5.6,2l0.4-3.2l-2.1-3.6l3.3-0.4l2.3-0.7l1.4-2.2l-0.1-6.3l1.2-2.1l2.8-1.8
		l0.6-2.5l-1.2-1.8l-3.4-0.4l-2.5-0.8l0.1-0.8l2.6-0.9l2.2-1.8v-1.5l-1.4,0.2l-5.7-3.4l-3.2-1.4l3.2-4.8c0,0-1.2-1.5-1.2-1.6
		l-7.3-3.5l-1.5-1.1l0.5-1l6.2,0.6l5.7-3.5l4.9-1.7l0.2-2.1l-1.9-3.1l-2.3-4l-3.1-1.9l-2.8-0.5l-0.3-0.8l2.3-3.3l-1.2-2.1l0.7-7.9
		l2.4-2.7l2.6,0.6l2.2,0.8l2-1.7l0.2-6.3l-0.7-3.8l0.7-1l2.6,1.1l1.8,1.7l1.1-0.8l-1.7-6.1l-0.4-2.7l0.5-1.3l-1.3-0.7h-1.3v-1l2-2.4
		v-1.8l2-2.3v-2.2l-0.9-1l1.8-7.2l2.4,0.8l1.8-0.2l1.3,2.9l1.4,0.4l1.2-1.4l1.3,0.6l-0.2,2.3l2.2-0.3l2,0.6l1.1-1.7l4.4-2l1.3-2.2
		l1.4-0.1l0.4,1.3l4.7-1l-0.1-2.5l-0.8-0.8h-1.9l-0.3-5.8l-0.6-0.3l-4.6,0.2l-2.8-1.6l-2.5,2.2l-1.7-0.2l-0.7,4l-2.4,0.5l-3.4-1.9
		l-1.1,0.6v-1.7l-0.9-0.4l-1.1,1l-8.4-3.6l-3.5,3.3l-1.6-1.8l1.4-3.5l4.3-4.6l-0.5-1.7l-1.3-0.4l-2,1.1l-4.9-5.2l-1.5,0.6l-1-0.3
		l-0.2-1.6l2.2-3.9l-2.4-2.2l-6.4,3.8l-2.8-0.2l-3.1,2.2l-0.6,2.2l-4.4,1l-2.5-0.9l-9.9,4l2.4,3.1l4.3,2.1l5,2.6l0.6,1l-0.7,1.4
		l-6.8,1.9l-4.4,1.5l-0.9,2.2l1.8,2.9l-0.6,1.8l-1.7,0.7l-3.2,0.2l-1.3,3.4L8,276.6l0.4,3.6L10,285l2.6,3l1.8,2.9l-0.1,3.9l-2,2.7
		l-2.5,2.6L6.9,302l-0.5,2.7l2.3,1.7l3.4-0.6l5.2-3.5l1.5,0.9l1.4,7.8l1.7,4.7l-0.5,3.2l-1.5,0.3l-5.7-2.1l-1.6,0.4l-0.8,2.2
		l2.3,4.5l4.9,6.3l4.4,4.3v7.2l0.9,2.4l2.3,1.1l5.5-0.9l4.8,0.2l2,1.3l-0.2,2.9l-6.1,6.2l-3.8,2.2L29,361l4.9,5.1l3.8,4l-0.9,2.4
		L33.3,377.5z"/>
	<g>
		<text transform="matrix(1 0 0 1 29.3218 194.205)" class="st1 st2">Paikgasa</text>
	</g>
	<g>
		<text transform="matrix(1 0 0 1 15.7562 280.5156)" class="st1 st2">Koyra</text>
	</g>
	<g>
		<circle class="st3" cx="45.4" cy="216.5" r="13.4"/>
		<text transform="matrix(1 0 0 1 39.3752 223.7329)" class="st1 st4">6</text>
	</g>
</g>
<g id="khulna-4">
	<path class="st7" d="M167.9,37.6l0.5-4.6l2,0.2l0.7-1.1l0.6-2.3l0.9,0.1l0.4,4.7h1.9l0.9-1.8l2,0.8l2.5-2.4l1.1,0.8l2.2-1.9
		l0.8-2.2l-1.2-1l1.5-2.2h3l1.9,2.1l1.3-1.1l1.4,0.6l0.9,2.7l1.3,0.1v1.8l3.3-1.1v-1l-0.9-1.3l0.2-0.6l2.5-0.1l0.6-0.9h1.4l1,1.1h3
		l1.6,1.6l4.6,0.3l1.9-1.4l3.1,1.7l3.1-2.2l0.8,0.8l-0.3,1.1l2.2,1.1l-0.1,1.2l1.5,1.1l0.9-0.8l1.3,0.1v1.7l1.9,2.8v3.7l-5.2,4.9
		l-0.2,1.9l-6.4,4.9v3.1l1.2,0.4l1.4-2c0,0,1.3-0.7,1.3-0.8s0.6-1.1,0.6-1.1l1-0.5l1.4,1.1l0.1,1.3l-5.5,4.5l-4,2.7l0.1,1.3l2.1,0.6
		l2.7,0.6l-0.2,2l-1.8,0.6l-4.6,0.3l-2.8,1.3l0.2,1.2h3.2l1.2,1.3l-0.3,1.5l-1.8,0.2l-0.8,1.2l-2.1-2.2l-1.5,1.1l0.1,2.3l-3-0.1
		l-3.1-2.3v-1.9l-1.1-1l-1.3,1l-0.1,1.6l0.8,1.3l-4.5-0.2l-3.4,1.6l-4,0.6l-0.7,2.8l1.1,2.8l0.5,4l-2.8,1.2l-0.6,1.6l-1.2-0.3
		l0.2-1.6l-2.9-0.4l-2.7,3l-2.4,3.4l-1.5,3.9l-2.6-2.3l-1.9,1.5l-4.3,1l-1.4-1.8l0.3-3.3l2.4-0.6l0.1-1.2l-1.8-0.8l-3,1.3l-3.1-2.5
		l-2.5,0.4l-4.7-2.3l-3.5,1.6l-2-0.4l3.2-8.2l-1.7-3.7l0.4-2.1l1.3-1.9l-0.4-3.2l-1.8-2.8l0.1-4.9l2.2-3.9l2.6,0.1l2.7-1.4l4.2,0.3
		L161,50l5.7-0.5l0.6-2.4l1-8.8L167.9,37.6z"/>
	<polygon class="st7" points="165.1,128.3 165.3,127 166.8,125.9 167.1,124.4 166.2,123.4 166.3,121.4 170.1,120.6 173,123.2 
		174.3,123.4 174.7,125.7 175.8,125.8 175.9,124.3 177.8,124.1 179.1,122.3 180.6,121.6 181.9,123.9 181,124.6 182.6,126.3 
		181.1,128.9 183.6,131 186.6,129 185.8,121.6 188.3,120 188.2,118.6 191.3,110 190.6,108.4 192,107.9 194.8,112 195.9,111.5 
		196.9,104.3 196,103.3 197.9,101.3 203.7,101.5 205.1,100.4 207.4,100.5 210.2,97.9 212.3,91.5 213,86.3 211.1,84 210.2,81.8 
		207.4,81.4 204.1,76.9 203.5,74.9 204.4,73.2 201.5,71.1 201.5,69.2 200.4,68.2 199.1,69.1 199,70.7 199.8,72 195.4,71.8 192,73.4 
		187.9,74 187.2,76.8 188.4,79.6 188.8,83.6 186,84.9 185.4,86.3 184.2,86 184.3,84.5 181.5,84.1 178.9,87 176.4,90.4 175,94.3 
		172.4,92 170.5,93.5 166.3,94.5 164.9,92.7 165.2,89.4 167.6,88.8 167.7,87.5 165.9,86.8 162.9,88.1 159.8,85.6 157.3,86 
		152.5,83.6 149,85.3 147,84.8 143,85.2 143.6,87.7 142.6,89.7 142.4,92 144.1,96.5 146.2,99.1 148.2,99.6 152.3,101.9 155,105.8 
		155.4,117.1 154.4,120.2 152,122.7 154.7,125 155.9,125 158.3,127.3 	"/>
	<g>
		<text transform="matrix(1 0 0 1 167.1885 63.2582)" class="st1 st2">Terokhada</text>
	</g>
	<g>
		<text transform="matrix(1 0 0 1 183.9736 99.6)" class="st1 st2">Rupsha</text>
	</g>
	<g>
		<circle class="st3" cx="166.7" cy="87.5" r="13.4"/>
		<text transform="matrix(1 0 0 1 160.6669 94.7746)" class="st1 st4">4</text>
	</g>
</g>
<g id="khulna-3">
	<polygon class="st8" points="135.2,40.4 131,41.6 128.8,44.4 127.5,48.6 125.6,50.1 126.1,52 127.6,56.9 128.1,59.5 124.1,59.7 
		121.5,57.6 118.6,58 118.4,59.4 117.6,61.7 114.8,60.2 110.5,59 109.2,59.6 109,63.2 112.1,67.9 112.6,69.4 115.5,72 115.2,77.6 
		120.5,81.4 121.7,81.5 125.3,86.8 125.4,91.5 126.4,91.1 127.1,91.9 126.3,93.5 127.1,94.5 129.7,94.3 130.5,96.5 133.8,97.3 
		133.3,99.8 135.3,101.6 137.5,103.3 137,104.3 135.4,104.5 135.4,106.6 137.3,110.8 140.4,110.4 142.8,112.3 144.4,111.8 
		144.3,109.6 146,109.5 148.4,114.4 148.9,119.8 151.9,122.7 154.4,120.2 155.3,117 155.2,111.8 155,105.8 152.3,101.9 148.1,99.6 
		146.2,99.1 144.1,96.5 142.5,92 142.6,89.7 143.6,87.7 142.9,85.2 147.1,84.8 150.2,76.6 148.5,72.9 148.9,70.8 150.2,68.9 
		149.9,65.7 148.1,62.8 148.2,57.9 150.4,54 153,54.1 155.6,52.7 159.8,53 161.2,49.6 166.9,49.2 167.5,46.8 168.5,38 165.6,35.8 
		162.6,31.1 157.5,26.7 158,22.6 151.8,20.3 149.4,18.9 146.8,22.9 146.9,27.5 146.7,30.4 142,35.9 136.8,40.2 	"/>
	<g>
		<text transform="matrix(1 0 0 1 121.3643 40.9072)" class="st1 st2">Digholia</text>
	</g>
	<g>
		<circle class="st3" cx="132.2" cy="72.2" r="13.4"/>
		<text transform="matrix(1 0 0 1 126.2085 79.4829)" class="st1 st4">3</text>
	</g>
</g>
<g id="khulna">
	<g id="dist-Sundarban">
		<path class="st6" d="M157,258.1l1.3,5.3l3.4,11.9l-2.6,1.8l-1.1-0.7l-1-2.1l-0.3,2.3l-1.1,0.7l-1.3-1.2l0.6-5h-1.5l-2,4.8
			l-1.7-0.2l-1.1-2.2l-4.3,1.5l-3.7-0.8l0.1-1.8l-2.8-3.8l-0.7-4.7l-2-1.2l-0.3-1.4l2.7-1.2l-1.8-1.8l-1.4-2l1-2.6l-1.6-0.5
			l-2.5,1.2l-6.3,0.9l0.5,4.4l-1.2,1.3l-1.7-1l-1.4-4.6l-1.9-2.2l-2.1-0.4l-2.4-1.5l-0.1-2.9l-2.4-2l-0.5,0.1l0.2,5.1l0.9,2.5
			l0.1,2.1l-2.3,1.5l-3.8-0.2l-3.9,2.2l-0.1,0.8l2.5,1.9l0.1,1.5l0.9,1l-4.8,4.6l-1.6,6.2l3.4,1.7l-0.1,2.5c0,0.1-1.2,1.4-1.2,1.4
			l-2.8-0.1l2,4.6l2.7,1.8l0.8,3.3l-1.7,1L101,291l-2.6-3.2l-0.7,0.5l1.2,0.6l0.4,6.5c0,0,0.1,9.7-0.1,10c-0.1,0.3-5.9,7.2-5.9,7.2
			l0.4,3.6l7,7l11,12.9l6.9,9.7l1.5,10l-7.7,11.7l10,33l5.9,11.9l3,12.5l5.3,5.4l2.3,10.3l-2.7,10.1l-8.5,12.6l7.5,9.4l3.4,0.7
			l0.8-1.8l3.3-6.2l0.9-4.5l2.9-12.4l7.4-13.7l7-15.6v-4.8l-8.7-13.6l-10.6-10.7L140,385l1.5-3.8l5.4-6.4l10-10.4l3.2,1l2.1-2.1
			l-1.9-2.7l-1-4.9l-0.2-7.1l4.4-5.9l9-7.9l7-12.5l0.7-5.7l-3.8-4.2l-0.4-6l-1.1-10.4l-11.8-17.4l-2.7-10.1l-2.1-24l-6.8-20.5
			l-1.9-2l7.2,27.8v8.3H157z"/>
		<path class="st6" d="M83.9,267.1l-1.4,0.1l-1.3,2.2l-4.4,2l-1.1,1.7l-2-0.6l-2.2,0.3l0.2-2.3l-1.3-0.6l-1.2,1.4l-1.4-0.4l-1.3-2.9
			l-1.8,0.2l-2.4-0.8l-1.8,7.2l0.9,1v2.2l-2,2.3v1.8l-2,2.4v1h1.3L60,286l-0.5,1.3l0.4,2.7l1.7,6.1l-1.1,0.8l-1.8-1.7l-2.6-1.1
			l-0.7,1l0.7,3.8l-0.2,6.3l-2,1.7l-2.2-0.8l-2.6-0.6l-2.4,2.7l-0.7,7.9l1.2,2.1l-2.3,3.3l0.3,0.8l2.8,0.5l3.1,1.9l2.3,4l1.9,3.1
			l-0.2,2.1l-4.9,1.7l-5.7,3.5l-6.2-0.6l-0.5,1l1.5,1.1c0,0,7.3,3.4,7.3,3.5l1.2,1.6l-3.2,4.8l3.2,1.4l5.7,3.4L55,355v1.5l-2.2,1.8
			l-2.6,0.9l-0.1,0.8l2.5,0.8l3.4,0.4l1.2,1.8l-0.6,2.5l-2.8,1.8l-1.2,2.1l0.1,6.3l-1.4,2.2l-2.3,0.7l-3.3,0.4l2.1,3.6l-0.4,3.2
			l-5.6-2l-0.5-0.2l1.3,2.2l-3.8,9L26,403.4l-2,8l-2.1,4.6l-2,5.8l-5,7.6l2.8,1.1l4.2-3.4h8.2l4.4,4.6l0.4,6l8.1,7l-1,1.7l-9.4-7.6
			l-6,2.4l-1,2.3l2.5,4.6l10.4,19.1l9.3,13.5l6,2.7l1.3-4.7l-2.9-10.1l-2.6-8.6l2.1-6.8l7.7-6.8l3.4-6.6l6.5-7.1l-0.6-2.4l-8.4-2.3
			l-3.7-6l-4.5-2l0.6-6l-1.5-2.4l1.8-1.1l2.5,3.2l-1.4,4.7l3.8,2l3.9,5.1l9,1.9l1.7,6.6l-4.2,4.2l-4.9,9.3l-7.4,7.6v8l3.8,13.5
			l-1.1,9.1l2.8,7.4l6.9,13.1l0.7,16.3L61,535.6v8l-8.2,8.4l0.1,4.9l2.6,1.3l1.3,10.7l0.5,11.3l7.3,7.4l11,6.4l6.8-1.3l7.6-5.2
			l-0.6-4.6l0.8-1.5l4-0.5l7.5-7.2l7.7-10.3l0.5-9.7l-4.2-4.6l-4.1-9.2L102,525l3.2-7.3l4.8-3.8l-9.4-0.6l-2.9-2.7l-0.4-4.2l4.6-6.2
			l-1.3-1.9l-8.4-2.6l-7.3-10.5l0.7-4.2l3.5-3.6l4.4-4l-3-12.1l1.1-1.1l3.4,10.1l1.8,5.6l-8.1,4.9l-0.8,3l5.9,9.8l6.5-0.3l4.8,4
			l0.9,5.5l-3.9,5.6l1.5,2.2l7.9,0.2l13.6,1.2l3.3-5.4L128,490l-8.5-11.5l-0.6-10.2l-8.4-11.4l-1.7-6.8l3.7-0.9l1.1,3.2l7.2,5.7
			l9.8-12.1l2-5.7l-2.2-2.7l-5.3-8.5l-1.9-13.6l-9.3-7.4l-2.1-7.1l-8.4-19.4l0.7-21.1l9.6-9.3l-7.5-9.9l-2.4-8l-13.6-12.6l-3.4-5.8
			l2-4.8l5.8-8.5l-4.1-4.9l-2-7.2L86,271.9l-0.4-3.8l-1.3,0.3L83.9,267.1z"/>
		<path class="st6" d="M55.1,544.5c0.2-0.8,2-7.4,2-7.8c0-0.4,1.3-6.5,1.3-6.5L62,525l-0.4-4.8l-5.8,1.5l-5.3,1.5l-8.6,4.6l-3.3,5.3
			l-2.7,3.3l-0.3,4.2l3.2,8.6l4.4,7.4l1.1,6.8l3.1,1.6l2.1-1.4L48,557l1.9-7C49.9,549.9,54.8,545.3,55.1,544.5z"/>
	</g>
	<g>
		<text transform="matrix(1 0 0 1 102.9997 318)" class="st1 st2">Sundarban</text>
	</g>
</g>
</svg>
