<?xml version="1.0" encoding="utf-8"?>
<!-- Generator: Adobe Illustrator 25.2.1, SVG Export Plug-In . SVG Version: 6.00 Build 0)  -->
<svg version="1.1" id="Layer_1" xmlns="http://www.w3.org/2000/svg" xmlns:xlink="http://www.w3.org/1999/xlink" x="0px" y="0px"
	 viewBox="0 0 211 589" style="enable-background:new 0 0 211 589;" xml:space="preserve">
<style type="text/css">
	.st0{fill:#C5CFED;stroke:#FFFFFF;stroke-width:0.5;}
	.st1{font-family:'TimesNewRomanPSMT';}
	.st2{font-size:16px;}
	.st3{fill:#FFFFFF;}
	.st4{font-size:24.672px;}
	.st5{fill:#ABBEED;stroke:#FFFFFF;stroke-width:0.5;stroke-miterlimit:10;}
	.st6{fill:#9BB6EA;stroke:#FFFFFF;stroke-width:0.5;stroke-miterlimit:10;}
	.st7{fill:#8BAFE8;stroke:#FFFFFF;stroke-width:0.5;stroke-miterlimit:10;}
</style>
<g id="bagerhat-1">
	<path class="st0" d="M88,78l2.7-6.8l0.8-5L89,63.4l-0.1-1.9l-3-0.3L82,55l-0.1-1.4l1.3-1.3l2.4,0.4l0.2-2.3l1.3-0.9l2.1,2.1l3-2.1
		l-0.9-2.6l-3.1,1l-0.6-1.8l2.1-1.4l6.2-0.4l0.2-3.4L92.5,41l-0.1-2.5l3-1.1l3.4-3.2l2.7-2.7l-0.5-1.9l-2-0.2l-3.2,4.5L94,32.6
		l0.6-2.2l6.6-6.1l-0.2-1.8l4.6-4.3l0.6-3.4l-3.1-4.5l2.9-1.7l3.7,3l1.4-1.7l-0.2-2.8l6.3-5l4.4,2.4L119.2,8l-0.5,2.7l2,0.7l6.2-4
		l1.8-0.1l1.6,6.3l0.7,4.3l-1,1.9l-3.2-0.5l-1.5,3.1l8.8,3.5l7.9,4.4l1.7,4.9l5.6,0.2l4.6,2.9l-0.5,2.1l-2.1,1.3l-7.9,1.6l-0.1,2.1
		l5.5,1l-0.6,2.1l-4.2,1.2l-1.9-3.3l-1.7,2.3l-5.5,2.1l1.3,1.6l-0.7,1l-4.7-2.2l-0.9,3.9l3.7,2.1l0.5,2.6l3.7,3.4l1.2-0.5l4.4,5
		l2.1-0.1v1.2l-1.4,0.6l-0.2,3.4l-0.9,1.4l-2.5-0.2l-3.1,2.1l-1.1-0.2l-2,2.7l-1.3-0.1l-3.3-1.8l-3.3,0.3l-2-1.1l-3.1,1.4l-2.8-2
		l-0.9,2.3l-3,0.7l-1.9-0.8l-2.2,3l0.3,1.3l-1.7,1l0.5,2.5l-0.8,0.4l-2.1-1.6l-0.7,0.5l0.3,2.3l-2.8,2.3l-1.4-1.2l-1.8-0.4l-1.1-0.8
		L95.9,87l-3.1-2.1l-0.2-1.2l-1.3-0.2L89.4,81l0.8-1.9l-0.6-0.8L88,78z"/>
	<path class="st0" d="M148.5,47l5.8,1.7h3l1.2,3.5l2.9,0.7l7.6-4.8l2.7,0.1l2.2,1.6l1.5,3.3l5.4,5.3l1.5,5.4l3.4,2.2l0.9,0.9l0.8-1
		l0.5,1.8l1.3,5.2l-0.6,2.2l-1.3,1.3h-2.6l-1.3,0.6l-4.5,7l-3.1,2.6l-2.2,1.5l0.1,1.5l1.7,0.5l8.2-1.5l0.6,1.6l-0.1,3.3l1.3,1
		l-0.4,0.9l-1.2-0.1l-1.5,0.7l-2.4-1.2l-2.6,0.5l-2.2,3.3l-2.5,0.1l-1.3-0.9l-2.5,1.6l-0.2,1.9l4.3,2.2l1.6,1.8l-0.2,1.3l-1.6,2.7
		l0.5,1.3l2.7,0.4l5.9-1.9l1.7,0.5l0.2,1.8l-2.7,5.3l0.3,5.3l-0.5,1.1l-2.2-0.5l-4.9-1.5l0.8-1.7l-2.2-1.5v-1.2l-1.3-0.1l-0.4-1.9
		l2-1.4l-0.3-0.7l-2.8,0.5c0,0,1.1-1.3,1-1.3l-0.8-0.6h-4l-1.1,1.1l-1.6-1.8l-5.6,0.2l-2.3,3.7l-1.6,0.7l-5.6-1.5l-1.7-0.3l-2.1,0.4
		l-3-1.2l0.8-2.9l-2-1.4l-1.5,0.1l-1.2,1.9l-2-0.1L131,108l-0.4-1.7l-1.8-0.7l-1.9,1.2l-5.6-8.1l0.3-1.6l-0.8-1.1l-1.5,0.7l-3.4-1.5
		l1.6-1.8l-2.1-2.9l2.3-2.1l-1.4-4.2l-3.5-0.6l-0.6-1.3v-1.9l-1.8,1.3l-0.3-1.2l2.2-2.9l1.9,0.8l3-0.7l0.9-2.3l2.9,2l3.1-1.4l2,1.1
		l3.3-0.3l3.3,1.8l1.4,0.1l2-2.7l1.1,0.2l3.2-2.1l2.5,0.2l0.8-1.4l0.2-3.4l1.4-0.6v-1.2l-2,0.1l-4.4-4.9l-1.2,0.5l-3.6-3.3l-0.5-2.6
		l-3.7-2.1l0.9-3.9l4.7,2.1l0.8-1L135,51l5.4-2.1l1.8-2.3l1.9,3.2l4.2-1.1l0.4-1.3L148.5,47z"/>
	<path class="st0" d="M30.6,148.3l-1.5,2.3l1.5,4l2,3.5l5.4-0.5l2.6,0.9l5.8-2.6l2.8-2.6l0.4-5.4l0.5-3.6l0.7-1.1l3.1,1.2l1.1,0.3
		l3.4-1.6l-0.6-1.3l1.9-2.6l-0.1-2l-0.9-1.2l0.1-1.1l-1-1.2l1.1-4.4l-0.8-0.9l1.3-1l0.7,0.5l1.4-1.2l-0.3-1.2l2.8-1.8l4.2-0.7
		l2.7-0.1l2.4,1.4l0.7-1.6l2.2,0.9l0.4,1.4l0.9-0.2l-0.2-1.1l0.6-0.4l1.4,1.2l1.3-0.2l2.1,1.1l2.9-0.5l3.3-4.2l3.1,0.8l4-1l3.1-3.1
		l0.1-3.9l2.1-0.1l2.1-1.9l-1.3-1.4l0.4-1l-2.2-2.5l-1.4-3.1l0.2-1.1l1,0.2l0.7-2.3l0.9-1.4l0.4-4.1l4.7-3.7l0.2-1.3l3.3,0.5
		l1.6,1.1l-0.2,1.4l1.2,1l0.4,1.9l1.9,0.3l0.8-0.7l1.5-1.8l-2-2.9l2.2-2.2l-1.4-4.2l-3.5-0.6l-0.5-1.2l-0.1-2l-1.7,1.2l-0.1,0.3
		l-1.6,1l0.4,2.4l-0.7,0.4l-2.1-1.6l-0.6,0.5l0.3,2.2l-2.8,2.4l-1.4-1.2l-1.8-0.4L99,86.8L95.9,87l-3.1-2.1l-0.2-1.2l-1.3-0.2
		L89.4,81l0.8-1.9l-0.6-0.9h-0.9l-1.3,1.4L86,80.2l-0.8-0.7L84,79.8L83.1,81l-1.8-0.9l-1.8,0.8l-1.7-0.6l-1.9,1.1l-0.6,1.4l1.2,0.4
		l-1,2.1l-0.8,5h-0.6L72,87.4l-1.4-0.7l-0.7,0.6l0.5,1.3l-1.7,2.7l-1.1,4L67,96.2l-0.2,2.1L64,99.7l0.5,7.5l-2.1,1.5l-1.8,0.1
		l-1.3-2.2l1.8-2.7l-1-0.9l-0.8,0.4l0.8-3.1l-0.5-1.2H59l-2.4,2.7l-2.8-0.1l0.6,1.5l-0.6,0.4l-1.8-3l-3.9-2.7l-1.5,0.5l-1.5-0.3
		l-0.4,2.4l0.9,1.5l-2.3,2.6l1.2,1.3v3.3l-3.3,5.1l-2.4,2v1.5l1.6,0.6l0.4,2.7l-1.4,3.7l-1.2,0.5l-1.5-1.9l-3.2,2.4l1.7,3.9l1.4,0.4
		l3.4-1.4l1,0.4l0.7,4.4l-1.2,1l-2.5-0.8l-4.4,3.1l-5.8-0.1l-0.7,1.2l4.1,6.1l1.4,4.2l-0.9,1L30.6,148.3z"/>
	<g>
		<text transform="matrix(1 0 0 1 104.1296 42.9906)" class="st1 st2">Mollahat</text>
	</g>
	<g>
		<text transform="matrix(1 0 0 1 128.9005 97.2197)" class="st1 st2">Chitalmari</text>
	</g>
	<g>
		<text transform="matrix(1 0 0 1 39.2338 108.5531)" class="st1 st2">Fakirhat</text>
	</g>
	<g>
		<circle class="st3" cx="136.7" cy="66.1" r="13.4"/>
		<text transform="matrix(1 0 0 1 130.7275 73.4116)" class="st1 st4">1</text>
	</g>
</g>
<g id="bagerhat-2">
	<polygon class="st5" points="142.3,126.6 142.5,122.4 141.1,117.2 141.8,115.7 141,113.6 141.4,112.6 144.3,113.8 146.4,113.4 
		153.7,115.2 155.4,114.5 157.7,110.8 163.3,110.6 164.8,112.4 166,111.2 170,111.3 170.8,111.9 169.8,113.1 172.5,112.7 
		172.8,113.4 170.8,114.8 171.1,116.7 172.3,116.8 172.4,118 174.5,119.5 173.9,121.1 170.1,120.9 164.1,123.8 156.3,128.8 
		153.1,130.2 150.3,132.5 150.4,135.2 151.7,137.1 153.6,137.1 157.6,135.6 160.9,135.5 166.7,134.5 174.2,135.9 179.7,139.2 
		183,141.8 183.2,143.3 180.1,145.9 177.2,147 171.9,152.7 170.3,153.6 169.5,153.4 168.6,148.6 165.5,143.7 164.6,143.8 
		161.8,147.6 161.6,150.4 162.8,153 169,156.2 173.7,157.3 178.5,158.7 177.4,162.9 177.1,169.1 175.9,173.4 174.4,174.7 
		173.9,172.3 170.8,171.6 164.9,173.6 163.3,176.2 161.3,181.5 161.9,183.4 165,188.5 164.2,189.7 157.6,191 154.5,192.8 
		150.9,195.9 147.9,196.3 143.4,194 140,189.3 139.3,184.9 140.6,182.1 140.6,181.2 137.7,181.7 137.2,179.2 134.4,176 135.1,171.8 
		136.5,170.2 136.5,168.8 138,166.9 138.9,162.9 139.2,157.8 140.9,156.5 142.4,157.1 143.6,156.8 145.1,157.7 148.2,156.3 
		146.8,154.4 146.3,151.5 147.9,151.2 147.8,150.6 145.8,150.5 145.9,149.7 148.4,149.7 149.9,148.1 149.9,146.3 148.4,144.6 
		149.2,141.7 151.5,141.1 151,140.1 146.7,140.3 146.3,139.5 147.3,138.5 145.6,138 145.3,137 146.3,135.3 145.7,134 143.8,134.8 
		142.8,134.2 142.7,133 143.8,131.8 143,129.5 144.4,128.1 	"/>
	<polygon class="st5" points="58.4,143.3 57.8,141.9 59.7,139.3 59.6,137.2 58.7,136.1 58.8,135 57.8,133.8 58.9,129.4 58.1,128.4 
		59.4,127.4 60.1,127.9 61.4,126.7 61.1,125.4 63.9,123.6 68.1,122.9 70.8,122.8 73.3,124.2 73.9,122.6 76.1,123.4 76.6,124.9 
		77.5,124.6 77.3,123.4 77.9,123.1 79.3,124.3 80.6,124.1 82.6,125.2 85.5,124.7 88.8,120.5 91.9,121.3 95.9,120.3 99,117.2 
		99.1,113.3 101.2,113.2 103.3,111.3 102,109.9 102.5,108.9 100.3,106.4 98.8,103.4 99,102.2 100.1,102.4 100.7,100.1 101.6,98.7 
		102,94.6 106.7,90.9 106.9,89.5 110.2,90 111.8,91.2 111.6,92.6 112.9,93.7 113.1,95.6 115.1,95.9 115.8,95.1 119.2,96.6 
		120.7,95.9 121.5,97 121.2,98.6 126.9,106.7 128.8,105.5 130.5,106.2 131,107.9 135.4,110.3 137.4,110.4 138.6,108.4 140.1,108.3 
		142.2,109.7 141.4,112.7 141,113.6 141.9,115.7 141.1,117.3 142.5,122.4 142.3,126.6 144.4,128.1 143,129.5 143.8,131.8 142.6,133 
		142.8,134.2 143.8,134.8 145.7,134.1 146.2,135.3 145.3,136.9 145.5,138 147.2,138.5 146.3,139.5 146.7,140.3 151,140.1 
		151.4,141.1 149.1,141.7 148.4,144.6 149.9,146.3 149.9,148.1 148.4,149.6 146,149.7 145.8,150.5 147.8,150.6 147.9,151.1 
		146.4,151.5 146.7,154.4 148.2,156.3 145.2,157.7 143.6,156.8 142.4,157.1 140.8,156.5 139.3,157.8 138.9,163 138,166.9 
		136.5,168.8 136.5,170.2 135.2,171.8 134.4,175.9 137.2,179.2 137.7,181.6 134.3,183.5 132.8,184.1 132.5,186.1 130.1,187.8 
		128.7,187.8 126.4,189.4 123.7,188.6 121.5,187 121.5,182.9 121.7,180 121,177.3 121,174.9 125.1,172.4 127.3,168.6 125.8,167.2 
		123.7,168.2 121.8,168 121.7,168.4 122.2,169.7 121.4,170.3 120.3,169.3 118.4,168.7 118.3,170.6 117.8,171.4 116.9,171 
		117.2,168.6 116.1,168.7 113.6,170.6 108,169.1 107.8,167.4 107.6,165.9 105.3,164.2 101.3,164.9 100,163.9 98,164.7 93,161.9 
		89.7,160.8 88.4,160.9 87.7,162.2 85.9,162.4 79.3,159.8 76.5,156.1 75.9,154.4 70.4,154.7 68.1,156.2 66.8,158.1 65.7,157.7 
		66.6,154.4 67.1,152.8 66.8,149 65.4,147.6 64.7,144.6 66.1,142.4 63.7,141 	"/>
	<g>
		<text transform="matrix(1 0 0 1 98.0671 133.3864)" class="st1 st2">Bagerhat</text>
	</g>
	<g>
		<text transform="matrix(1 0 0 1 147.3171 163.0114)" class="st1 st2">Kachua</text>
	</g>
	<g>
		<circle class="st3" cx="128.1" cy="151.8" r="13.4"/>
		<text transform="matrix(1 0 0 1 122.0609 159.0783)" class="st1 st4">2</text>
	</g>
</g>
<g id="bagerhat-3">
	<polygon class="st6" points="37.1,563.2 35.3,554.1 38.2,551.7 41.8,550.2 44.3,546.1 43,538.5 21.5,521.7 18.4,515.8 13.9,515.3 
		9.6,525.3 9.7,529.3 16.2,539.6 18,542.2 16.9,544.3 12.6,544.3 11.8,551.6 14.6,561.7 19.3,570.1 20.2,574.9 24.2,578.4 
		34.7,580.6 45.5,575.6 45,570.6 	"/>
	<g>
		<polygon class="st6" points="18.4,149.9 21.4,146.5 21.6,143.2 23.3,142.4 28.5,146.4 30.7,148.4 29.1,150.6 30.6,154.5 
			32.6,158.1 37.9,157.6 40.5,158.5 46.3,155.9 49.2,153.3 50.1,144.4 50.8,143.3 53.9,144.5 55,144.8 58.4,143.2 58.8,143.2 
			63.7,141.1 66.1,142.4 64.7,144.6 65.4,147.6 66.7,149 67,152.8 65.7,157.8 66.8,158.1 68.1,156.2 70.4,154.7 75.9,154.4 
			76.6,156.1 79.3,159.8 85.9,162.4 87.7,162.1 88.4,160.9 89.7,160.8 93,161.9 98,164.7 100,163.9 101.3,165 105.3,164.2 
			107.6,165.8 108,169.1 113.6,170.6 116.1,168.7 117.2,168.6 117,171 117.8,171.4 118.3,170.6 118.4,168.7 120.3,169.3 
			121.4,170.3 122.3,169.7 121.7,168.4 121.9,168 123.7,168.2 125.8,167.2 127.3,168.6 125.1,172.4 121,174.8 121,177.3 121.7,180 
			121.5,183 121.5,187 123.7,188.7 123.9,189.6 120,192.1 115.8,198.6 114.4,202.6 114.9,207.4 114.7,208.8 113,210.1 110.2,209.7 
			108.1,211.6 106.4,212.3 103.1,216 98.3,217.8 97.7,219.8 95.6,220.4 95.1,223.4 89.4,224.3 88.9,223.8 87.1,225.6 86.3,225 
			86.4,222.6 81.5,223 79.4,220.8 79.1,218.9 79.7,218.6 81.4,219.8 81.9,218.2 76.6,215.5 75.7,213.1 73.7,212.6 71.3,214.5 
			68.9,213 67.8,210.7 64.8,218.1 62.3,217.8 60.6,215.4 61.3,212.4 60.3,209.7 54.9,208 54.5,209 55.7,211 54.6,211.6 53.1,209.5 
			51,207.8 44.7,207.4 42.2,203.7 39.9,203.8 39.8,202.7 40.9,201.2 38.5,197.4 36.6,197 35.7,194.3 34.6,194.3 33,196.6 31.9,197 
			28.9,195.8 29.2,191.9 27.8,191.3 27.6,189.8 26.2,189.5 22.1,191.9 16.7,183.4 12.1,178.4 12.2,170.3 13.6,166.9 20.8,162 
			19.2,153.8 18.2,150.7 		"/>
		<path class="st6" d="M135.5,378.9l-15.8-7L105,351.3l0.9-0.3l0.3-4.6l2.4-4.1L105,338l3.3-2.6l-0.2-1.1l-2.9,0.8l-1.4-0.7
			l-0.3-2.1l1.2-1l1.6,0.3l0.4-0.9l-1.4-2l-1.2-4.2l0.4-2.8l4-2.5l-0.3-4.1l-1.6-2.5v-1.5l2.7-0.7L109,306l1-8.9l-2.1-3.3l-0.4-3.5
			l1.4-1.8l5.4-1.2l1.2-2.1l-0.6-2.8l-4.4-5.7l-0.7-4l-1.6-2.2l-1.3-0.8l-1.5,0.5l-3.6,6l-1.2-0.6l-1.3-3.8l-1.8-2.4l-4.3-2.7
			l-4.9-2.3l-0.3-0.8l2-0.9h4.2l0.9-0.9l-0.7-1.7l-4.5-3.4l-4.1-4.8l-3.4-3.4l0.9-1.5l3.1-0.5l2.3-1.3l0.4-1.5l-1.2-1.4l0.6-5
			L88,236l-2.7-0.3l-3.4-1.8l0.4-1.2l1-0.6l2.5,2.3l1.9,0.8l4.3,0.3l0.7-1.4l-1.6-1.1l-0.8-1.6l0.6-3.1l-2-2.3l0.8-1.6l-0.6-0.4
			l-1.7,1.8l-0.8-0.6l0.1-2.3l-4.9,0.4l-2.1-2.3l-0.2-1.8l0.5-0.3l1.8,1.2l0.4-1.6l-5.3-2.7l-0.9-2.4l-2-0.4l-2.4,1.8l-2.5-1.5
			L68,211l-3,7.3l-2.4-0.3l-1.7-2.4l0.8-3l-1.1-2.7l-5.3-1.7l-0.4,1l1.1,2l-1,0.6l-1.6-2.1l-2-1.7l-6.3-0.4l-2.6-3.8l-2.2,0.1
			l-0.1-1.1l1.1-1.5l-2.4-3.9L37,197l-0.9-2.7l-1.1,0.1l-1.7,2.2l-1.1,0.4l-3-1.1l0.3-3.9l-1.5-0.6l-0.1-1.5l-1.5-0.3l-3.6,2.2
			l4.6,7.1l3.2,10.5l3.9,12l0.4,6.7l0.4,6.1l2.4,5.6l-0.1,4.3l0.9,1.5l0.6,10.4l2.3,5l4,4.9l2.8,6l0.8,5.2l-0.2,6.9l1.9,5.7
			l-0.1,6.5l-4.5,7.5l-2.4,4.8l-1.2,4.5l-3.5,4.6l-2.4,1.6l-4,6l0.1,5.5l1.4,5.5l2.1,5.8l-0.9,1.6l-2.2,0.8l0.3,0.9l2.7,0.9
			l-5.9,2.8l0.7,2.6l-9.4,1.5l-1.2,2.8l2.3,6.8l16.8,21.5l3.4,8.6l-2,13.9l-10.5,17.2l-3.6,7.9l-2,10.9L19.8,453l-2.9,13l-3.1,4
			l1.3,8.6l-0.2,21.8l1.1,2.9l3.2,4.4l1.4,8.1l15.6,12.4l12.3,10.5l0.7,8.8l-3.5,5.9l1.2,3.5l7,0.2l4,4.4l11.3,0.8l9-4.5l8.6-6.9
			l0.5-5.2l-1.2-4.6l-12.2-7.4l-8.7-10.3l-9.4-10l-3.7-4.9l1.9-10l5.7-6.2l2.4-2.7l-0.9-2.2l-8.4-9.4l-1.7-5l0.9-1.4l3.9,4.4
			l6.8,9.2l3.6,6.8l4.4-0.8l3.9-5l4.6-12.8l1.4-4l-1.3-7.3l-4.1-4.1l0.3-5.8l4.6-7.1l5.1-9.9l-0.8-1.9l-6.5-1.9l-4.5-4.4l0.8-5.2
			l5.1-3.7l7.2-0.5l1.4-2.6l1.5-4.5l1.2-0.2l-0.3,4.2l-0.8,3.8l-3.2,2l-4.8,0.8l-4.1,1.7l-0.6,3.3l4.3,2.8l6.8,2.4l1.2,3.7l-2.3,7.3
			l-3.7,5.9l-2.3,4.3l0.7,4.7l2.3,6.4l0.8,5.4l-1.9,7.2l-3.7,8.3l-1.7,6.6l-4.3,4.8l-5,3.5l1.3,3l3,4l-0.6,7.6l-1.2,3.2l3.5,5
			l3.5-0.2l2.1-3.7h5.9l2.2,6.2l7,1.4l4.5-0.2l7.5-3.5l-0.3-6.8l-1.9-6.3l-3.5-5.3l-1.7-5.2l-4.9-2l-3.5-3l1.1-5.4l6.2-4.3l0.3-3.4
			l-4.1-5.2l-2.6-5.5l1.2-6.6l5.2-1.2l4.1,0.1l-0.8,1.3L98,464l-3,2.4l-0.6,3.1l2.8,4.6l4.4,4.4l0.6,5l-2.8,3.9l-2.6,2l-0.9,3.2
			l4.3,2.8l2.4,3.8l2.9,5.9l3.7,4.8l0.8,4.6l10.6,0.7l-0.7,3.2l-2.9,4l1,2.5l4.4,0.4l4.5-4.5l8.4-2.4l11.6-1.7c0,0,2.1-3,2.1-3.3
			s0.3-5.9,0.3-5.9l-0.9-4.8l1.8-4.6l-2.3-2.6l-5.6-3.8l1-1.5l6.6,3.8l2.7,4l-1,4.6l1.1,4.1l5.5-1l4-4.6l3.2-7.3l-2.4-15.9l-3.5-11
			l-0.7-23.6l-1.6-10.4l-7.4-6.4l-8.3-1.7l-6.9-4.4l-3.7-5.5l1.7-4.4l9.5-8.9l5.7-7.5l-2.2-2.2l-8.5-3.2l-2.9-4.7l1.8-3.7l0.7-1.4"
			/>
		<g>
			<text transform="matrix(1 0 0 1 25.4838 180.5114)" class="st1 st2">Rampal</text>
		</g>
		<g>
			<text transform="matrix(1 0 0 1 52.3796 309.1781)" class="st1 st2">Mongla</text>
		</g>
		<g>
			<text transform="matrix(1 0 0 1 56.5463 392.9489)" class="st1 st2">Sundarban</text>
		</g>
	</g>
	<g>
		<circle class="st3" cx="93.1" cy="186.9" r="13.4"/>
		<text transform="matrix(1 0 0 1 87.1442 194.1616)" class="st1 st4">3</text>
	</g>
</g>
<g id="bagerhat-4">
	<polygon class="st7" points="89.5,224.3 88.6,225.9 90.7,228.2 90.1,231.3 90.9,232.9 92.5,234 91.8,235.4 87.4,235.1 85.5,234.3 
		83,232 82,232.7 81.6,233.9 85,235.7 87.7,236 88.2,237.3 87.6,242.3 88.9,243.8 88.5,245.2 86.2,246.5 83.1,247 82.3,248.4 
		85.8,251.9 87.4,253.8 89.9,256.7 94.4,260 95.1,261.7 94.3,262.6 90,262.6 88,263.5 88.4,264.3 93.3,266.7 97.6,269.4 99.4,271.8 
		100.7,275.5 101.9,276.2 102.8,274.7 105.5,270.1 106.9,269.6 108.3,270.4 109.8,272.6 110.6,276.6 114.9,282.3 118.2,281.6 
		120.9,281 122.8,281.7 123.9,280.8 123.7,279.1 122,277.8 124,276.2 127.1,275 129.7,275.2 130.3,274.4 129.2,272.3 130.5,272 
		131.8,273.8 131.2,275.1 132.7,276.7 131.3,279.2 133.1,280.4 136,281.6 137.8,280.3 141.3,280.7 142.1,279.7 144.2,279.7 
		143.7,281.8 144.3,283.5 143.7,284.4 141.7,284.6 141.9,285.4 144.2,285.8 150,284.6 150.9,286.3 153.1,287.1 155,283.5 
		156.9,283.8 158.8,289.2 159.6,294.6 163.4,298.3 166.8,291.9 168.8,280.4 159.5,271.2 155.6,265.6 156.1,260.7 158.6,258.3 
		161.7,257.6 165.1,253.8 171.1,250.3 178.7,250.6 183,249.1 186.9,244.7 186.7,238.8 183.2,235.4 177.7,235.8 173,237.1 
		167.1,236.5 163.1,234.5 160.3,228.9 160.3,224.4 164.6,222.1 174.9,222.7 181.7,226.9 189.2,228.3 195.5,227.8 197.2,224.3 
		195.8,220.9 187.7,220.7 178.7,220.8 178.3,218.3 184.9,209.9 189.7,203.4 194.2,190 194.9,183.6 194.4,181.1 190.8,178.9 
		178,177.2 174.4,174.9 173.9,172.3 170.9,171.6 164.8,173.6 163.3,176.2 161.3,181.5 162,183.4 165,188.4 164.2,189.7 157.5,191 
		154.5,192.8 150.9,195.9 147.9,196.3 143.4,194 140.1,189.3 139.3,184.8 140.6,182.1 140.6,181.2 137.7,181.7 134.3,183.5 
		132.8,184.1 132.6,186.1 130.2,187.8 128.7,187.8 126.3,189.5 123.7,188.7 123.8,189.6 119.9,192.2 115.8,198.7 114.4,202.6 
		114.9,207.5 114.7,208.8 113,210.1 110.2,209.7 108.1,211.6 106.4,212.3 103.1,216 98.3,217.9 97.7,219.8 95.6,220.4 95.1,223.4 	
		"/>
	<polygon class="st7" points="169.7,371.4 165.5,361.9 158.4,352.9 154,351.1 153.8,351.1 150.9,341.3 150.2,332.1 154.6,315.8 
		155.9,311.3 162.4,300.5 164.2,298.2 160.6,294.5 159.7,289.1 157.9,283.8 156,283.5 154.1,287.1 151.9,286.3 151,284.7 
		145.2,285.8 142.9,285.4 142.7,284.6 144.7,284.4 145.3,283.4 144.7,281.8 145.2,279.7 143.1,279.7 142.3,280.7 138.9,280.3 
		137,281.6 134.1,280.4 132.3,279.2 133.7,276.7 132.2,275 132.8,273.7 131.5,271.9 130.2,272.3 131.3,274.4 130.7,275.2 128,275 
		125,276.2 123.1,277.8 124.7,279 124.9,280.7 123.8,281.7 121.9,281 116,282.3 116.5,285 116.5,285.1 116.5,285.1 116.5,285.1 
		116,286.1 115.3,287.2 115.3,287.2 115.3,287.2 113.6,287.6 109.9,288.4 108.5,290.2 108.9,293.7 111,297 110.3,303.4 110,306 
		110.1,307.5 110.3,310.4 110.3,310.4 110.3,310.4 109,310.7 107.6,311.1 107.5,312.6 109.1,315.2 109.1,315.2 109.1,315.2 
		109.4,319.2 105.8,321.4 105.4,321.7 105.1,323.3 105,324.4 106.2,328.7 106.7,329.5 107.6,330.7 107.6,330.7 107.6,330.7 
		107.3,331.6 107.3,331.6 107.3,331.6 105.7,331.4 104.5,332.3 104.8,334.4 106.2,335.1 109.1,334.4 109.3,335.5 109.3,335.5 
		109.3,335.5 108.6,336 106,338 108.6,341.2 109.6,342.4 107.8,345.5 107.3,346.5 107.2,347.1 106.9,351.1 106.9,351.1 106.9,351.2 
		121.3,371.3 136.7,377.7 138.8,378.4 138.6,379.5 138.6,379.6 139.3,380.3 138.1,383.5 140,386.9 145.5,388.5 151.4,391.5 
		152,395.3 147,404.3 138.5,412.4 138.4,418.1 141.9,419.4 150.8,420 156.8,417.6 162.5,408.3 167.3,403.4 169.6,394.7 170,384.5 	
		"/>
	<g>
		<text transform="matrix(1 0 0 1 96.963 253.3031)" class="st1 st2">Morrelganj</text>
	</g>
	<g>
		<text transform="matrix(1 0 0 1 116.6713 314.7614)" class="st1 st2">Sarankhola</text>
	</g>
	<g>
		<circle class="st3" cx="135.6" cy="222.6" r="13.4"/>
		<text transform="matrix(1 0 0 1 129.6442 229.9116)" class="st1 st4">4</text>
	</g>
</g>
</svg>
