<?xml version="1.0" encoding="utf-8"?>
<!-- Generator: Adobe Illustrator 25.2.1, SVG Export Plug-In . SVG Version: 6.00 Build 0)  -->
<svg version="1.1" id="Layer_1" xmlns="http://www.w3.org/2000/svg" xmlns:xlink="http://www.w3.org/1999/xlink" x="0px" y="0px"
	 viewBox="0 0 400 478.7" style="enable-background:new 0 0 400 478.7;" xml:space="preserve">
<style type="text/css">
	.st0{fill:#9BB6EA;stroke:#FFFFFF;stroke-width:0.5;stroke-miterlimit:10;}
	.st1{font-family:'TimesNewRomanPSMT';}
	.st2{font-size:16px;}
	.st3{fill:#FFFFFF;}
	.st4{font-size:24.672px;}
	.st5{fill:#ABBEED;stroke:#FFFFFF;stroke-width:0.5;stroke-miterlimit:10;}
</style>
<g id="magura-1">
	<path class="st0" d="M99,134.9l1-5.4l2.2-0.8l1.9-4.5l2-1.4l-0.5-4.8l1.7-3.2l-1-1.6l-3.1,0.4l-1.5-1.5l3.1-6l-0.1-4.3l2.5-1
		l1.5-17.5l3.5,0.2l0.4-1.7l2.1-0.5l-0.5-6.5l3.9-15l-3.2-0.6l0.8-3.4l2.8,0.4l0.8-1.8l1.3-0.5l1.8-4.9l2.5-1.7l1.9,1.3l1.3-0.8
		l0.7-4l2.3-3.7l1.8-0.5l2.4-6l4.1-3l0.1-1.5l-3.3-0.5l-5.6,1.5l-2.6-0.2l-0.4-2.4l2.3-1.5l2.7,0.8l3.6-0.8l4.8-4.2l1.1-4l11.3-5.3
		l6.8-1.8l2.6,0.1l3.9-2.1l4.5-1.5l4.5,0.9l5.9,11.1l6.1,4.2l11.7,7.3l2.8,2.6l-0.1,4l-3.9,6l0.2,5.7l6.4,7.4l5.1,1.1h8.3l16.9,5.7
		l7.2,5.6l3.1,4.7l0.2,5.3l-5.7,12.4l-5.3,11.5l1.1,2.8l11,2.1l3.4,3.2l2.1,3.6l7.7,6.8l3.5,8l-1.3,7.8l-0.9,2.5l1.1,6l5.2,6.1
		l8.1,2.2l10.2,0.5l5.9,5.6l3,2.4l5.7,8l-0.9,4.7l-2.9,4.4l-4.1,0.5l-5-2.7l-8.7,0.7l-6.7,3.5l-1.5-0.1c0,0,1.1-3.9,1.1-4.1
		s-0.3-2.3-0.3-2.3l-4.5-3.5l-6.9-1.6l-3.6,2.9l-6.2,7.5l-6.6,2.2l-2.8-0.5l-4.4-4.7l-3.9-2l-3.3,1.7l-1.4,5.5l-3.7,6.6l-4.9,4.2
		l-2.7,0.3l-1.4-2.4l1.9-4.7l8.5-8v-1.9l-8.8-9.4l-2.4-4.9l-2.6,0.7l-2.7,4.9l-5.5,0.6l-12-2.1l-6.2-0.7l-6.1,0.4l-3.8-1.2l-1.1-3.1
		l0.4-7.7l-2.3-4.2l-9.3-5l-10.3-0.1l-2,2.6l-3.1-0.5l-0.6-4.5l-3-1.4l-2,0.3l0.1,4.5l-1.7,0.6l-3.4-1.9l-7.3-1.6l-8.1-4.3l-2.8-0.5
		l-0.6,3.2l-1.6,1.5l-2.2-0.1l-2.1-1.5l-8.3-0.6l-3-0.9l-1.9-2.9L99,134.9z"/>
	<path class="st0" d="M74.7,155.8l1-6.4l2.5,2l2.2-2.6l0.8-4.1l4.9-8.9l2.6,1.7l4.9-4l1.6-1.1l2.2,1.8L99,134v1l0.3,2.1l1.9,2.9
		l3,0.9l8.3,0.6l2.1,1.6l2.3,0.1l1.7-1.6l0.5-3.2l2.7,0.5l8.2,4.4l7.1,1.6l3.5,2l1.8-0.7v-4.5l2-0.4l3.1,1.4l0.6,4.5l3.1,0.6l2-2.6
		l10.3,0.1l9.3,5.1l2.4,4.2l-0.5,7.6l1.1,3.2l3.7,1.2l6.1-0.4L204,169l5.4-0.7l2.7-4.9l2.6-0.6l2.3,4.8l8.8,9.4l0.1,1.9l-8.6,8
		l-1.8,4.7l1.4,2.4l2.6-0.2l5-4.3l3.5-6.7l1.4-5.5l3.2-1.6l4.1,2.1l4.2,4.5l2.8,0.6l6.6-2.2l6.2-7.5l3.6-2.8l6.9,1.7l4.6,3.5
		l0.2,2.4l-1.1,3.9l0.7,0.2l-10.7,8.3l-7.6,9l-5,10.6l0.8,7.8l2.9,9.2l5.2,7.4l4.6,1.7l4.6-0.9l-0.2,9.2l-1.9-0.6l0.7,2l-1.8,0.3
		l-0.7,2.3l-3.1,0.9l1,3.4l-4.5,4.9l-6.4,11.4l0.1,2.1l3.3,0.5l4.9-0.9l1.9,2l-0.5,1.6l-4.5,1.2l-6.1-0.6l-1.5,1.9l5.8,7.7l1.7,4.5
		l-0.8,4.6l-1,3.4l2.4,2.6l4.3-0.3l5.2,0.4l1.9,2.6l-0.6,2.6l-3.6,3.5l-1.1,4.2l3.4,2.9l2.3,3.3l-1.5,7.6l0.8,1.8l1.5,1.2l6.3-2.6
		l2.7,1.1l4.5,8l1.3,0.4l3,3.5l1.7,4.4l-6.9,7l-2.9,6.9l-1.3,3.6l-2.2,2l4.2,6.5l0.6,2.3l-1.6,12.9l-1.9,1.9l-3.3-0.9l-6.1-5.7
		l-3.4-0.2l-3.9,4.1l-2.5,5.6v5.4l3.9,7.1l-6.9,5l-3.8-2.1l-1.7,0.5l-0.4-4.6l-3.6,2.3l-5-2.8l-2.1,0.6l-5,5.1l-2.5,3.4l-0.4,1.4
		l-2.4,2.6l-1.5-0.1l-2,2.5l-2.4-2.4l-4.2,0.3l-4,0.1l-2.3-0.4l-0.4-3.1l0.8-4.1l-0.7-2.2l1.5-5.8l-1.6-0.1l0.2-1.9l3.9-0.2l1-4.8
		l-1.5-5.5l-1.4-0.1l-1.9,2.3l-2.1-0.2l1-2.5l-1.1-0.7l-1.1,2.7l-1.4-0.7l-1,1.8l-2.8-0.2l-0.7-2.3l-2.3-0.4l-6.2-7.6l-3.8-2.9
		l-0.9-1.8l-4.5-0.9l-2.2-2.8l3.6-11.3l-0.6-1.6l-4.9-0.2l-0.8,2.3l-2.8,1.3l-7.3-5.2l-5.2-0.3l-2.6-4.1l-0.2-4.8l-4.1-1.9l0.2-3
		l3.2-2.2l-0.4-3.9l2-2.4v-8.6l-4.2-1.9h-4l-0.9,1.9l-0.2,6.5l-2.8,2.2l-0.7,2.4l-3,0.3l-6.7-1.5l-2.3,1v3l-4.6,3l-3.7-2.8l-2.7,0.8
		l-0.7-4.7l1.3-1l-1.7-3.6l2.1-3.6l-2-2.7l-5.4-2.4l-0.6-3L115,317l-0.1-8.3c0,0-3.2-3.6-3.1-3.6s-7.3-0.8-7.3-0.8l-9-1.6l-5.1-1.8
		l-2-2l-2.7,0.3l-1-6.5l1.6-2.7l-0.1-3.7l-2.8-3.5l-10,0.1l-9.5-7.2l-0.2-1.5l-1.9-1.7l-1.2,0.8l0.3,1.4l-2.3,1.3l-2.2,0.1l-2.2,2.9
		l-1.7-0.5l2.4-4.6l-1.7-3.3l-4.8-1.1l3.1-2.4l3.5,0.2l2.4-1.5l-2.4-1.4l3.6-1.2l0.5-1.8l2,1.2L62,262l-2.7-2.3l1.5-1.8l1.5,1.8l1-1
		l1.4,1.2l-0.1-11.5l-1.2-2.2l0.9-1.7l3.4-1.3l0.4-3.6l-0.5-3.8l1.2-3.9l-1.3-8.9l0.5-1.6l-2.7-3.1l0.3-3.2l-3,0.2l-2.6-3.7l1-2.6
		l-0.3-2.2l3.5-0.9l3,2.3l1.7-1.3l1.1-5.1l-4.9-2.3l-0.5-3.7l2.7-5l-0.1-2.9l-2.8-2.6l-0.4-5.8l4-9.3v-1.1l-2-1.7l2-2.4l3.6,0.5
		l1.3-2.4l0.6-2.4l3.1-2.2L74.7,155.8z"/>
	<g>
		<g>
			<text transform="matrix(1 0 0 1 142.6904 225.0156)" class="st1 st2">Magura</text>
		</g>
	</g>
	<g>
		<g>
			<text transform="matrix(1 0 0 1 160.0327 97.6582)" class="st1 st2">Sreepur</text>
		</g>
	</g>
	<g>
		<circle class="st3" cx="182.9" cy="251" r="13.4"/>
		<text transform="matrix(1 0 0 1 176.8752 258.3163)" class="st1 st4">1</text>
	</g>
</g>
<g id="magura-2">
	<path class="st5" d="M266.1,235.2l-0.2-11.1l1.9-12.3l7.8-14.9l3.7-2.1l8.2,0.7l19.6,5.4l18.4,6l17.7,9.9l12.5,8.6l10.4,9.4
		l4.3,5.4l1,8.9l-1.9,1.8l0.5,3.7l-2.1,6.4l0.1,15.7l-0.6,5.1l2,10.2l5.2,8l0.4,3.5l11.3,19.8l8.9,11.4l2.7,2.8l-0.4,1.4l-7.9-1.1
		l-3.4-1.3l-6.7,7.2l-2.1-0.3l-2.6-2.2l-5.6-1.6l-6.7,3l-4.7,7.8l-0.7,4.5l2.2,6.5l2.3,3.6l3.7,0.8l4-1.3l10.2,3.1l3.8,3.9l0.1,4.2
		l-3.6,3.6l-8.9,5.8l-2.1,3l0.3,2.1l3.3-0.7l3.6,7.6l4,13.1l0.5,2.7l-3.6,2.7l-1.5-0.3c0,0-0.6,1.5-0.5,1.6s4.4,5.2,4.4,5.2
		l-1.2,0.8l-10.6-6.8l1.6-8.5l-1.7-1.4l-8.6,1.4l-1.4,1.3L355,408l-2.8-2.2l-3.1,0.4l-2.6-0.9l-3.2-0.3l-3.8-1l0.5,2.7l-11.6,2.8
		l-5.2-2l-2.1,1.6l0.7,3l-1.1,5.8l-4.9,3.3l-9.1,0.2l-0.5,3.1l-4.8-0.6l-1.5,2.3h-3.3l-2.2,6.4l-1.5,2.1l-4.3,1.8l-0.8,3.3l0.5,4.7
		l-1.3,1.6l-1.7,4.5l-4.9,0.2l-2.6-1.8l-0.7-4.7l-2.2-1.7l-2.2-0.2l-1.4-2.6l-3.8-0.1l-4.7,0.5l-0.8-1.4l-2.3-0.4l1.2-2.6l-2.8-2.4
		l0.7-1.6l-1.3-1.2l-4.5,2.1l-3.5-2.8l-2.7,1.9l-3.6-2.5l-3.6-1.6l0.7-5.2l0.8-5.7l4.8-5.1l7.1-4.2l6.8-4.9l-3.8-7.1l0.1-5.5
		l2.5-5.5l3.9-4.2l3.4,0.2l6,5.7l3.4,0.9l1.9-1.9l1.6-12.9l-0.7-2.3l-4.1-6.4l2.1-2l4.3-10.5l6.9-6.9l-1.7-4.4l-3.1-3.6l-1.2-0.3
		l-4.6-8.1l-2.7-1l-6.3,2.6l-1.5-1.2l-0.8-2l1.5-7.5l-2.3-3.3l-3.4-2.8l1.2-4.1l3.6-3.5l0.5-2.7l-1.9-2.5l-5.3-0.5l-4.2,0.3
		l-2.4-2.5l1-3.6l0.8-4.5l-1.7-4.5l-5.8-7.7l1.5-1.9l6.1,0.6l4.4-1.2l0.6-1.7l-2-2l-4.8,0.9l-3.4-0.5v-2.1l6.4-11.3l4.5-5l-1-3.4
		l3.1-1l0.7-2.3l1.7-0.3l-0.5-1.9l1.9,0.4l0.2-8.6L266.1,235.2z"/>
	<path class="st5" d="M222.5,447.9l5.3-3.5l0.7-2.2h4.5l1.3,2.3l5.3,1.4l0.4-2l-3.7-8.9l0.7-4.2l2.4-3.1l1.4-10.8l4.9-5.1l6.8-4.1
		l-3.8-2.1l-1.6,0.5l-0.5-4.5l-3.5,2.3l-5-2.8l-2.1,0.7l-4.9,5.1l-2.5,3.4l-0.3,1.5l-2.4,2.6l-1.5-0.2l-2.1,2.5l-2.3-2.3l-4.4,0.3
		l-3.9,0.1l-2.3-0.5l-0.4-3.2l0.8-4l-0.8-2.2l1.5-5.8l-1.6-0.1l0.2-1.9l3.8-0.2l1.1-4.9l-1.5-5.5l-1.5-0.1l-1.9,2.3l-2-0.2l0.9-2.6
		l-1.1-0.6l-1.1,2.7l-1.4-0.7l-1,1.9l-2.7-0.2l-0.7-2.3l-2.5-0.4l-6-7.5l-3.8-2.9l-0.9-1.8l-4.5-0.9l-2.3-2.8l3.6-11.3l-0.5-1.6
		l-4.9-0.2l-0.8,2.4l-2.9,1.3l-7.2-5.3l-5.1-0.2l-2.6-4l-0.1-4.9l-4-1.9l0.2-3l3.2-2.2l-0.3-3.8l2-2.5v-8.5l-4.3-2h-3.8l-1,1.8
		l-0.2,6.5l-2.8,2.2l-0.6,2.4l-3,0.3l-6.6-1.5l-2.3,1v2.9l-4.5,3l-3.9-2.9l-2.6,0.8l-0.7-4.7l1.3-1l-1.7-3.6l2-3.6l-2-2.7l-5.4-2.4
		l-0.6-3l-2.7-1.1l-0.1-8.2l-3.3-3.7l-7.5-0.8l-8.9-1.6l-5-1.8l-2-2l-2.6,0.3l-1-6.5l1.6-2.6v-3.7l-2.9-3.5l-10,0.1l-9.4-7.2
		l-0.2-1.5l-2.1-1.7l-1.1,0.8L61,275l-2.2,1.3l-2.2,0.1l-2.3,2.9l-1.6-0.5l2.4-4.5l-1.6-3.4l-4.8-1.2l-1.5,1.3l-1.5,3l-3.1,0.2
		l-2.3,2.9l-0.7-0.1l-0.6-2.7l-1.4,0.3l-1.8,4.2l-5.6-1.8l-1.9-1.7l-3-0.2l-1.2-2.2l-1,0.9l-6.3-1.1l-1.1,8.9l4.9-1.3l2.8-0.2
		l1.7,5.2l5.9,0.6l0.7,2.1l-2.1,1.8l0.6,1.7l-1.2,1.2l-2.2-0.8l-3.4,3.4l-1.5,0.3l-4.1,5.2l-1.8,0.6l-0.8,2.4l1.6,1.5l6.4,3.3
		l-0.6,2l-3.5,2.6l-6.9,0.9l-2.2,2.3l0.5,2.3l3,1.7l0.5,2.7l-2.8,2.8l-3.4-0.5l-0.7,2.7l1.9,4.5l1.3,3.6l0.7,1.3l-1.8,2.8l-4.1-0.2
		l-0.2,4l1.6,1.1l5.8-0.8l5.2,5.9l1.5-0.7l1-1.9l4,0.5l2.6,4.2c0,0,3.1,0.2,3.1,0.3c0.1,0.1,2.6,1.9,2.6,1.9l2.4-1.2l0.7,2.3
		l1.5,1.8l-3.8,1.6l-1.3,4.5l0.6,5.1l4.3,0.8l3.6,3.3l2.7,0.3l-0.2,5.8l-0.9,4l1.7-0.2l2.3,1.7l0.5,2l3,2.5l4.4,1.8l1.1,2.7h5.9
		l-0.2,4.1L62,400l1.7-0.9l0.3,1l-1.5,0.8l-0.7,2.1l1.8,1.7l0.8-2l1.8-0.1l0.5,4.3l3,0.6l0.7-4.6l0.6-2.6l3.1-0.7l2.6,0.8l3.7,8.7
		l2.2,2.4l1.5,8l-2.4,1.8l-1.8,4.1l0.2,3.4l3.3,0.7l4.5-0.6l5-4.2l2.1-1.8l1.9,3.1l1.8,4.1l1.9,2.3l1.4,4.9l-0.5,6.5l0.3,3.4
		l3.1,0.1l7.1-5.7l1-3l4.2-2.5l2.7-2.9l0.4-1.3l3.6,0.4l1.9-2l0.1-4.6l4,0.7l2.5,2.7l-0.2,4l1,2.1l0.2,4.9l3.8-1.1l2.7,0.7l-0.4,1.2
		l-2.7,0.5l1.4,1.5l3.6-0.8l3.2,2.9l6.3,2.3l1.7,0.9l1.4,2.4l2.8,0.3l3.5,5.7l4,1.3l3.9,1.4l0.2,4l3,0.7l1.1-2l1.2,0.6l0.7,1.3
		l2.8,1l1.3,1.7l1.6,0.5l2.5,2.8l1.9,3.8l2.2,0.1l5.8,1.1l6.1-3.1l3.5,1.4l2.8-0.3l9.2,1.9l0.7-1.4l-0.6-3.8l2.8-1.4l-0.5-2.9l2-0.6
		l1.2,1.4l1.7-1l-1.5-2.3l-0.2-3.4l0.9-4.8l2.1-4.1L222.5,447.9z"/>
	<g>
		<g>
			<text transform="matrix(1 0 0 1 263.4746 285.021)" class="st1 st2">Mohammadpur</text>
		</g>
	</g>
	<g>
		<g>
			<text transform="matrix(1 0 0 1 95.7119 377.4492)" class="st1 st2">Shalikha</text>
		</g>
	</g>
	<g>
		<circle class="st3" cx="321.6" cy="321.5" r="13.4"/>
		<text transform="matrix(1 0 0 1 315.6252 328.8163)" class="st1 st4">2</text>
	</g>
</g>
</svg>
