<?xml version="1.0" encoding="utf-8"?>
<!-- Generator: Adobe Illustrator 25.2.1, SVG Export Plug-In . SVG Version: 6.00 Build 0)  -->
<svg version="1.1" id="dist-meherpur" xmlns="http://www.w3.org/2000/svg" xmlns:xlink="http://www.w3.org/1999/xlink" x="0px"
	 y="0px" viewBox="0 0 400 497" style="enable-background:new 0 0 400 497;" xml:space="preserve">
<style type="text/css">
	.st0{fill:#ABBEED;stroke:#FFFFFF;stroke-width:0.5;stroke-miterlimit:10;}
	.st1{font-family:'TimesNewRomanPSMT';}
	.st2{font-size:16px;}
	.st3{fill:#FFFFFF;}
	.st4{font-size:24.672px;}
	.st5{fill:#9BB6EA;stroke:#FFFFFF;stroke-width:0.5;stroke-miterlimit:10;}
</style>
<g id="meherpur-2">
	<path class="st0" d="M120.3,183.3l-5.2-0.5l-4.9-3.8l5.1-11.1l0.6-4l-1.8-6.7l-0.7-3.8l-3.9-5.2l-3.7-5.6l7.5-1l6.2,3.6l5.3-2.8
		l4-0.3l2.3-1.4l3.7,1.3l2.6-1.7l-4.1-9.2l0.4-3.3l2.8-3.4l1.6-0.9l10.4-0.2l3.4-2.9l3.7-2l3.7-6.3l3.6-9.3l1.2-1.1l2.5-0.1l4.6,1.7
		l2.9-0.2l2,0.9l1.9-1.1l2.1,0.2l1.1,1l2.5-1l-4.4-3.5l-1.3-2l2.1-3.4l-2.7-2.7l0.4-3l2.4-1.4l2.1,0.1l2.3-3.3l2.4-1.1l4.3,3.6
		l2.7-0.3l2.7-3l6.9-0.1l4.5,3.1l3.9,0.5l2.5,2.2l1.8-0.2l2.3-3.9L218,76l1.9-4.4l-0.7-2.2l2.6-3.9l-2-2.7l1.9-1.3l6.6,2.9l1.6-1.7
		l-3.3-6.8l0.1-4.4l-1.8-5.8l0.4-6.8l2.8-0.9l-1.3-3.1l-2.7-0.2l-5.3-4.6l-0.2-6.9l2.1-3.2l0.2-3.5l2.2-2.9l0.9,2.7l0.2,4.7l3.3,2.6
		l2.3-0.9l2.6-5.1l4.3-2.8l5.3-0.3l2.8-1.2l2.4-2.5l4.5-0.1l1.8,2l1,7.9l3,3.6l0.6,5.2l-0.5,2.9l3.5,4.1l2,0.4l4.9,3.3l1.6,2.4
		L273,42l1.9-2.3l-0.1-11.3l-0.5-6.2l-1.5-1.9l0.1-3.5l5-3.4l6.6-6.7l3.1-1.7l9.5,1.5l3.6-1.1l3,2.3l0.7,2.7l0.1,4.7l1.9,3l3.3,2.1
		l0.1,5.5l-1,1.8L309,32l1.7,3.3l-0.7,4.1l-1.3,2.9l0.5,2.7l2.5,2.9l0.4,5.1l-1,3.3l3.4,3l2.5,3.4l0.9,5.3l3.1,1.1l2.5-1.6l-0.2-7.9
		l2.5-2.2l3.4-1.9l2-3.2l5,0.2l6.1,3.1l3.2,1.2l5.4-0.3l3.3,1.7l2.5,3.8l4.5,3l2.9-0.6l4.7,4l1.5,7.1l3.6,3.3l2.4,0.3l2.7,3.8
		l0.3,3.8l4.7,2.8l2.1,3.2l-1.8,6.6l1.1,4.8l2,1.6l-0.4,4.5l-7.4,6.1l1.4,3.5l-0.5,3l-3.9,3.2l-1.1-0.2l-1.3,1.8l-3.1,0.8l-3.9,3
		l-4.9,0.4l-8.5-2.6l-2.2-1l-5.9-0.1l-1.6,2.3l2.1,6.2l8.7,8.1l1.9,0.1l2.6-1.1l7.5-0.4l3.4-3.7l2.6-6.1l7.8-0.8l4.9-1.7h3.5
		l3.9,2.1l6.1,7.1l-1.1,4.1l-3.9,2.5l-3.3,4.1l-0.8,3.9l-2.8,0.6l-1.1,1.6l-3.8-0.2l-4.3,4.6l-3.6,3.9l-3.1,2.6l0.6,3.9l-0.1,4.1
		l-2.9,4.7l-1.2,8.2l0.5,4.4l-1.4,0.3l-7.7-1.3l-3.7,1.2l-3.5,3.9l-1.6,8l-2.5,4l-6.5,0.1l-1.2,2.4L337,212l-3.4,4.5l0.6,5.7l-1,2
		l-2.3,2.3l-3.2,9.3l-7.1,17l-0.9,2.2l-0.5,10l-0.9,3.5l-3.3,3.1l-3.8-2.7l-6.7,0.9l-8.4,3.2l-2,1.7l-3.8-0.6l-1.6-1.8v-2.2
		l-4.5-0.2l-1.4,3.6l-2.6,3l0.2,5.1l-1.4,4.2v4.6l-2.6,4.8l1.1,6.2l0.8,5.6l-0.6,1.9l-4.9,4.4l-3,0.5l-0.2,2.7l-4,0.1l-1.9-4.2
		l-4.5-0.1l-2.1-0.8l-1.4,1.3l-1.9,0.2l-2.1,2.4l-2.2,0.4l-3.4-3l0.3-4.2l-4.4-4.9l-7,0.5l-6.8-0.7l-3.1-0.3l-2.3-6.2l-0.8-3.3
		l-2.4-1.8l-3.5,0.4l-4.6,4.8l-3.6,0.5l-2.9-1.7l-2.7-4.7l-4.3-1.5l-1.6-1.8l-5-2.3l-2.3,0.9l-3-3.8l-2.2,1.7l-2.3-0.8l-2.3,2.3
		l-2.1,0.1l0.1-2.4l1.9-2.2l1.3-5.7l-3.4-3.7v-2.9l2.4-1.5l0.3-2.8l-4.4-5.1l0.2-3.2l2.4-4l-1.4-1.1l-7.2-2.6l-1.7-3.2l1.1-8.8
		l0.9-6.2l-2.5-5.4l0.6-1.2l3.2,1.3l2.3-0.7l3.9-7.5l1.7-5.8l-3.2-1.3l-0.7-2.2l0.1-3.1l-2.7-2.4l1.6-4.7l-0.8-3.8l-3.8-5.3l0.3-3.2
		l-2.4-2.2l0.6-1.2l3.3-0.2l1.9-1.6l1-5l-5.7-5.3l-0.3-6l-2.6,0.4l-2.4,1.1l-6.5-1.6l-3.7-1.6l-7.2-1l-1.9-1.8l-1.9,3.2l-1.9,1
		l-0.6,1l-2.4,0.3l-0.1,1.5l2.4,1.6l3.6,0.1l1.8,2l-1.3,1.4l-2.2-0.6l-1.1,5.4l2.9,0.9l1,2.7l-1,0.8l-2.6,0.1l-3.2-3.8l-4.6,4.1
		l-1.1,1.8l-2.4,0.3l-0.5,2.7l-1.5-0.3l-0.5-3.4l-2.4-1.5L120.3,183.3z"/>
	<g>
		<text transform="matrix(1 0 0 1 240.5703 162.7754)" class="st1 st2">Gangni</text>
	</g>
	<g>
		<circle class="st3" cx="263.6" cy="185.5" r="13.4"/>
		<text transform="matrix(1 0 0 1 257.5982 192.8191)" class="st1 st4">2</text>
	</g>
</g>
<g id="meherpur-1">
	<path class="st5" d="M75.5,132.4l8.4,0.5l2.4,3.4l-0.1,3.3l-1.7,2.8l0.6,4l3.7,1l5.6-1.1l3.8-2.5l0.2-2.6l4.4-0.8l3.1,2.7l7.3,10.5
		l0.7,3.8l1.8,6.7l-0.6,3.9l-5.1,11.1l4.9,3.8l5.2,0.5l3.7-2.6l2.4,1.6l0.6,3.4l1.4,0.3l0.5-2.6l2.5-0.4l1-1.8l4.7-4.1l3.2,4
		l2.5-0.2l1-0.8l-1.1-2.8l-2.8-1l1.2-5.3l2.1,0.5l1.3-1.4l-1.8-1.9L139,168l-2.3-1.7l0.2-1.4l2.4-0.4l0.7-1l1.9-0.9l1.9-3.2l1.7,1.7
		l7.2,1l3.8,1.6l6.5,1.6l2.4-1.2l2.5-0.3l0.4,6l5.6,5.3l-0.9,5l-2,1.6l-3.3,0.2l-0.5,1.2l2.3,2.2l-0.3,3.2l3.7,5.3l0.8,3.8l-1.6,4.6
		l2.7,2.5l-0.1,3.2l0.7,2.1l3.1,1.4l-1.7,5.9l-3.9,7.5l-2.4,0.6l-3.2-1.2l-0.5,1.2l2.5,5.3l-1.9,15l1.6,3.1l7.3,2.7l1.4,1.1l-2.3,4
		l-0.2,3.1l4.4,5.2l-0.3,2.6L177,269v2.9l3.4,3.7l-1.4,5.7l-1.9,2.2v2.4l2-0.1l2.3-2.3l2.3,0.7l2.2-1.6l3,3.8l2.2-0.9l5,2.4l1.6,1.9
		l4.3,1.5l2.8,4.7l2.9,1.7l3.7-0.5l4.6-4.7l3.5-0.4l2.4,1.9l0.8,3.5l2.3,6l9.9,1l7.1-0.4l4.4,4.9l-0.3,4.2l3.4,3.1l2.3-0.5l2.1-2.4
		l1.9-0.2l1.4-1.3l2.1,0.8l4.5,0.1l2,4.1l4-0.1l-1.1,3.2l0.1,15.5l2.6,0.3l2.6,3.1l-1.1,2l0.5,1l1.6-0.1l-0.2,1.5l-2.8,3.1l-1,3.2
		l0.6,1.3l-2.3,1.4l1.3,1.6l-2.4,3.3l-3.3-0.1l-1.3,2l-0.9,4.8l-2.1,2l-3.7,0.2l-3.8,2.2l-8.6-0.1l-5.6,1.5l-4.3-1.4l-4.6,0.6
		l-3,3.1l-1.9,3.3l-6.3,9.2l-1.8,0.7l-2.7-1.1l-5.5,5.7l-6.7,4.1l-5.6,1.9l-8.7,4.5l-7.4,4.2l-3.8-0.3l1.4-4.3l-2.4-6.8l1.7-3.7
		l3.1-5.1l3.6-5.4v-2.6l-3-2.3l-2.2,0.7l-2.6,4.4l-2-0.1l-7.4-4.5l-0.1-2.4l1.9-3.1l-3.5-4.7l-4.2-2.7l-9.3-1.1l-7.3,1.8l-3.9,2.7
		l-2.7,3.3l-2.1,0.1l-1.1-1l-0.2-2.7l1.3-3.7l0.5-4.5l-3.9-3l-5.5,1.1l-6.3,1.1l-4.9-0.8l-3.9,1.2l-3.3,2.5l-0.2,2.1l6.6,4.4
		l6.6,4.4l9.2,1.5l4.8,1.5l7.1,4.4l-0.3,2.1l-5.1,4.2l-1.4,4.3l-5,2.7l-4.3,1.9l-2.3-1.4l-3-3.9l-2.7,0.3l-1.9,1.7l-0.9,4.5
		l-4.2,8.2l-1.8-0.2l-1-2.6l-5,2.8l-3-0.6l-2.5,3.2l-1.7-0.7l0.9-2.8l-1.8-2l0.4-3.2l1.5-0.7l0.4-3.7l-1-1.7l-0.2-2.9l-1.6-0.3
		l-2.4,0.8l-1.6-1.5l1.2-1.7l-2.6-2l0.3-2.2l2.8,0.9l-2.2-4.5l-1.8-0.8l1.5-1.6l-3.8-2.4l1.1-1.2l5.3,2.6l-0.6-2.6l-1.5-1.8l3-0.9
		l-3.8-4.3l-2.9-6.2l0.8-4l2.5-1.4l1.8-3l-0.8-2.5l0.1-2l-2-4l-0.5-3.5l-2.4-0.5l-0.3,3.9l-3.3,0.5l-3.9-1.1l-1.5,0.8L76,339
		l2.3-2.7l-1.2-1.4l-1.8,2.4l-0.9-1.2l2.5-5.1l-2.3-0.6l-1.4-2.3l-3-0.5l-2.8-1.3l-0.3,3.1l-2.1,0.4h-2.7l0.1-1.3l1.9-2l-0.6-2
		l-1.8-0.2l-3.4-0.8l-2.5-1.9l3.6-1.9l-0.5-2.6l1.7-5.4l-1.6-6l-2.9-2.3l-1,1.3l-1.9-1.1v-2.4l-1.4-1.1l-1.2,0.8l1.1,2.1l-1.3,2.7
		l5,4.3l-0.2,1.1l-2.1,0.1l-1.9,4.5l1.9,0.5l-1.3,1.4v4.7l-0.5,1.1l-1.3-0.4l-0.2-4.4l-1.5-0.8l-0.8,2l0.3,3.3l-1,1.9l2.4,1.7
		l-0.4,1.7l-2.3-1.7l-0.8,1.6l-1.9-2.8l-0.7,1.1l1.3,2.9l-1.4,0.7l-3.4-3.4l1.4-1.9l-1.8-1.1l2.1-2.1l-0.9-2l-1.9,0.7l-1.1,6.9
		l-1.7-1.5l0.4-3.2l-1.5-0.3l-0.1,1.9l-2.7-1.5l-2.4-0.6c0,0-3.5,3.6-3.4,3.6s-0.5,3.7-0.5,3.7l3.4,4.1l-2.2,1.3l-2.1-1.8l-0.6-1.4
		l-1.7,0.8l-3.3-2.4l-2.2-1l0.3-3.9l2.6-2.7l3.1,0.2l1.2-4.8l2.9-1l-0.7-4.8l-2.5-1.9v4.7l-1.1,2l-1.6-0.4L21,310l2-2.4l-0.8-4.1
		l0.1-2.9l1-1.5l-0.7-0.5l-2.1,1.9c0,0-0.9-0.9-0.9-1s3.4-2.7,3.4-2.7l1.5-3.5V291l2.4-1.6l1-3.7l3.1-0.5l1.5-4.2l-1.1-10l-1-2.9
		l1.1-2.5l-1.6-2.8l-9-0.7l-9.6-3.6l-3.8-5.3l1-2L4,251.4l0.1-1.8l2.1-0.9l6.9,2.3l3.4,0.1l3.4,2l3.8-0.9l6.7-5.3l5.6-5.4l-2.7-3.2
		l0.8-2.8l4.4,0.5l3.9-0.3l2.6-1.1l1.8-3.2l-0.3-5.2l4.8-0.7l-1.1-2l-2.7-0.1l-0.7-2.1l-4.8-2.1l-1.2-3.2l-1.5-0.2l-0.4,1.6l-2-1
		l-0.3-2l4.4-1.1l1.8,0.5l0.2,1.4l2.9,2.3l1.4-1.2l1.2,1l-1.1,2.4l1.4,0.9l1.8-3.2l3.5-0.6l1.9-4.3l1.2-3.8l-1.2-6.2l-8.4-4.7
		l-6.5-3.7l-1-5.7l0.9-7.6l1.4-10.5l1-2l3-3.7l-1.5-3.1l-5.6-3.4l-2.8,0.9l-6.2,6.3l-2.4-2.5l0.9-1.6l-0.9-5.5l0.5-2l-1.6-2.4
		l1.8-1.2l3.3-0.1l3.2-2.7l1.4-2.9l1.8-1.7l-0.2-2.9c0,0,3-0.2,3-0.3s0.7-1.4,0.7-1.4l2.4,1.8l3.4-0.3l4.8,1.4l2.6,0.2l4.4,5.4
		l3.2,3l3.5,1l2.4-1.4l0.7-3.7l-2.4-6.8l1-3.4l3.9-2.2L75.5,132.4z"/>
	<path class="st5" d="M17.1,329.1l2.6,0.8l3.2,2.4l1.7-0.8l0.5,1.4l2.2,1.8l2.1-1.4l-3.4-4.2l0.7-3.7l3.3-3.5l2.5,0.6L35,324
		l0.1-1.8l1.5,0.3l-0.4,3.2l1.6,1.5l1.2-6.8l1.9-0.7l0.9,2l-2,2.1l1.7,1.2l-1.3,1.9l3.3,3.3l1.3-0.7l-1.1-2.8l0.6-1.1l1.8,2.7
		l0.9-1.6l2.2,1.6l0.4-1.6l-2.2-1.7l0.9-1.9l-0.3-3.3l0.8-2l1.5,0.8l0.1,4.4l1.3,0.5l0.5-1.1l0.1-4.8l1.2-1.3l-1.9-0.6l1.9-4.4
		l2-0.2l0.2-1.2l-5-4.2l1.2-2.8l-1.1-2.1l1.1-0.7l1.4,1v2.4l1.9,1.1l1.1-1.3l2.9,2.3l1.5,6l-1.8,5.4l0.6,2.5l-3.4,1.9l2.4,1.9
		l3.3,0.8l1.9,0.1l0.4,2l-1.8,2.1v1.1l2.8,0.1l2-0.3l0.3-3.1l2.7,1.2l3,0.5l1.4,2.2l2.2,0.7l-2.4,5.1l0.8,1.2l1.8-2.3l1.2,1.3
		l-2.2,2.7l1.3,0.9l1.4-0.9l3.8,1.1l3.3-0.5l0.3-3.9l2.4,0.5l0.4,3.5l2,4l-0.1,2l0.7,2.5l-1.8,3l-2.5,1.3l-0.7,4l2.9,6.2l3.8,4.3
		l-2.8,0.9l1.4,1.9l0.5,2.4l-5.2-2.5l-1.1,1.1l3.7,2.3l-1.4,1.7l1.7,0.8l2.1,4.4l-2.8-0.8L89,381l2.5,2l-1.1,1.8l1.6,1.5l2.4-0.8
		l1.5,0.3l0.3,2.9l1,1.7l-0.4,3.7l-1.4,0.7l-0.5,3.2l1.7,2.1l-0.8,2.8l1.6,0.6l2.5-3.1l2.9,0.6l5.1-2.8l1,2.5l1.8,0.3l4.1-8.3
		l0.9-4.4l1.9-1.7l2.7-0.2l3,3.9l2.3,1.5l4.4-2l5-2.7l1.5-4.3l5.1-4.1l0.3-2.2l-7.1-4.4l-4.6-1.5l-9.3-1.5l-13.2-8.8l0.2-2.1
		l3.3-2.5l3.9-1.1l4.8,0.8l6.8-1.2l5.1-1l3.9,3l-0.5,4.5l-1.3,3.7l0.2,2.6l1.1,1.1l2.1-0.1l2.7-3.3l4-2.7l7.2-1.8l9.3,1.1l4.2,2.7
		l3.5,4.7l-1.9,3.1l0.1,2.3l7.4,4.5l2,0.1l2.6-4.4l2.2-0.8l3,2.3v2.5l-3.3,4.9l-3.6,5.7l-1.6,3.7l2.3,6.7l-1.3,4.3l-0.9,0.8
		l-4.7,0.9l-2.1,2.1l1.3,3.3l-1,1.7l-1.3-0.2l-0.3,1l1.9,1.4l-2,0.4l-1.8-1.5l-1,2.1l2.2,1.8l-0.1,2.4l-1.8,0.5l-1.9-1l-5.8-6
		l-1,2.5l-1.5,1.3l-0.2,6.3l-2.2,2.1l-1.4,3.7l-5-1.7l-1.3,1.3h-1.6l-1.7,0.2l-1.5-2.9l-2.2,1.7v3.3c0,0-1.3,0.3-1.4,0.3
		c-0.1,0-7.1-2.8-7.1-2.8l-3.4-2.5l-6-1l-3.5-0.4l-0.1,4.7l-1.1,2.2l0.1,1.7l-1.6,1.3l-1.9-0.8l-1.3,1.3l-2.3,0.2l0.2,2.2l-0.9,2.2
		l1.1,0.6l2.1-1.1l1.8,1.2l0.3,3.4l-2.2,2.7l0.4,1l-0.6,0.6l-2-0.4l-1.1,2l1.8,1.2l-1.3,0.7l-2.1,0.2l-1.2,6.1l2.3,1l4.3,0.3
		l0.5,1.8l-2,1.7l0.2,1.4l-4.3,2.4h-3.4l-1.9,1.3l0.4,1.6l-1.2,0.3l-1.7-1.9l-1.7,2.2l-1,1l4.9,6.9l-1.7,1.3l0.2,2.1l-1.8,1.1
		l-3.4-2.9l-2.7,0.9l-1.9-0.6l-1.4,2l-1.7,1.5l-1.6-1.1l-1.8,0.5l-4.3,4.2l-1.7,1.5l-5.8-1.2l-2.8,0.4l-3.6,3.1l-4-0.2l2.2-3.6
		l1.7,0.8l0.9-1.6l-0.7-2h-1.6l-2.4,0.7l-3.2-2l2.6-2.8l1.5-0.5l0.1-1.6l-0.8-0.1l-3.9,1.9l-3.3,2.9l-3,1l-0.6,0.9l-0.2,3.5
		l-1.7,0.2l-2.9-1.6l-3.9,0.2l-7.4-0.2l-3.5,0.1l-0.4-2.8l1.2-1l0.1-3.9l5-5.9l-0.8-2.9l1.5-1l2.5,1.8l3.7,0.1l3.7-2l-0.8-5
		l-0.9-6.9l0.7-1.9h2l0.2-1.8l-1.7-0.8l-0.8-1.9l1.8-0.9l-0.1-3.1l-1.8-1.5l1.3-1.6l-0.8-2.8l0.8-2.2l-2.3-1.9l-7.1,3.3l-5.5-0.4
		l-6.7,0.5l-5.7,3.1l-2.3-1.1L9.6,443l-1.9-1l0.6-3.3L8,432.3l1-0.8l-4.3-4.2l-2.1-0.5l1-3.8l1.4,0.2l1.6-3.2h1.1l1-4l1.5-0.4
		l1.5,0.4l2.5-1.1l3.2-3.5l0.1-3l-1.3-3.2l2.7-2.4l3.8,0.5l0.4-1.3l-3.3-5.6v-2.6l1.6-0.9l1.2-1.2l0.6-2.5l-3.5-9.1l-4.2-1.4
		l-0.9-2.5L15,374l1.4-1.7l-0.4-3l0.5-4v-3.7l-1.6-2.1l0.2-4.3l-1.2-2.5l0.2-3.2l-1.8-3.8v-3.5l2.4-1.5l2.3-0.1v-1.9l-1.5-1.9
		l0.4-1.4l1.4-0.3l0.8-2.5l-0.8-1.8L17.1,329.1z"/>
	<g>
		<text transform="matrix(1 0 0 1 86.4038 251.4214)" class="st1 st2">Meherpur</text>
	</g>
	<g>
		<text transform="matrix(1 0 0 1 32.2275 416.0684)" class="st1 st2">Mujibnagar</text>
	</g>
	<g>
		<circle class="st3" cx="114" cy="276.9" r="13.4"/>
		<text transform="matrix(1 0 0 1 108.0149 284.1525)" class="st1 st4">1</text>
	</g>
</g>
</svg>
