<?xml version="1.0" encoding="utf-8"?>
<!-- Generator: Adobe Illustrator 25.2.1, SVG Export Plug-In . SVG Version: 6.00 Build 0)  -->
<svg version="1.1" id="Layer_1" xmlns="http://www.w3.org/2000/svg" xmlns:xlink="http://www.w3.org/1999/xlink" x="0px" y="0px"
	 viewBox="0 0 269 600" style="enable-background:new 0 0 269 600;" xml:space="preserve">
<style type="text/css">
	.st0{fill:#ABBEED;stroke:#FFFFFF;stroke-width:0.5;stroke-miterlimit:10;}
	.st1{font-family:'TimesNewRomanPSMT';}
	.st2{font-size:16px;}
	.st3{fill:#FFFFFF;}
	.st4{font-size:24.672px;}
	.st5{fill:#8BAFE8;stroke:#FFFFFF;stroke-width:0.5;stroke-miterlimit:10;}
	.st6{fill:#9BB6EA;stroke:#FFFFFF;stroke-width:0.5;stroke-miterlimit:10;}
</style>
<g id="pirojpur-1">
	<path class="st0" d="M158.3,53.6l-3.6,3.6L155,62l-2.4,2.2v1.6l2.2,2.5l-1.1,1.3l-1.1-0.1l-2.4,2.9l1.6,3.7L151,86.4l-2.6,3
		l2.2,4.1l-4.4,3.7l-0.5,5l2.3,2.8l-2.7,4h-2.1l1.1,4.7l-2.7,3.1l-4.1,8.9l-0.6,3.3l-1.9,1.8l-5.6-0.1l-2.2,3.1l1.2,7.9l-2.2,3
		l-5-0.3l-1.3,4.4l-2.6,4.2l4,6.6l7.2,2.3l10.3,12.4l5.7-1.5l10.7,3l2.3,3c0,0,1.7-0.5,1.9-0.5c0.1,0,0.7-3.9,0.7-3.9l4.2-4.5l5-0.9
		l6.1,6.9l2.6-1.8l2.3,1.7l-1.8,4.4l5.4,3.7l3.8-2.6l1.9,1.1l4.4-1.3l2.5-1.7l4.4,0.2l2.1-1.1l3.9-3.7l13.9-6.4l5.7-0.7l0.6-3.2
		l2.7-2.3v-4.7l5.1-5.8l1.3-9.1l3.4-0.7l2-7.3l-1.5-2.5l2.3-3.8l1.7,0.3l2.8-3.5l0.4-3.4l5.1-0.2l4.1-4.2l1.6,0.1l2.3-4.9l3.8-0.2
		l0.9-4.5l-3.8-0.5l-4.4-6.7l-3,0.5l-0.4,4.4l-4.2,0.6l-1.7-4.9l1.4-4.5l-6-0.2l-4.9-3.5l-1.7,1.1l1.4,4.3l-7.5-0.2l-0.9-1.8
		l0.1-7.4l-3.9-0.2l-0.5,2l-3.3-0.5l-1.6-3.6l-1.4,1.4l-4.7-1.3l0.2-2.9l-4.9-3.1H203l0.7,2.1l-1.8,1.3l-6.5-1.1l-0.3-2.5l3-1.6
		l-1.6-2.9l-7.7-0.8l-2.3,1.1l-3-0.8l-2,1.6l-1.7-0.8l-6.5-10.6l-0.5-3.3l-5.8-5.6l-7.1-1.7L158.3,53.6z"/>
	<polygon class="st0" points="74.9,21.7 76,17.9 74.4,11.3 70.6,8.7 72.7,5.2 76.9,8.3 79,8.1 83.7,14 84.9,17.3 88.3,15.6 
		92.7,17.9 94.7,16.6 95.8,11.9 98.6,11.5 105.6,11.9 107.7,9.2 110.8,9.1 109.2,6 111.2,5.2 115.8,7 119.6,4.9 141.2,4 145.3,5.3 
		146.3,10 144.6,17.3 145.4,30.6 143.2,37 143.9,40.8 139.7,45.9 142.1,48.1 147.6,46 152.9,41 159.9,38.7 162.4,39.7 160.3,44.4 
		158.5,45.7 161.6,49.7 158.3,53.4 154.8,57.2 155,62 152.7,64.3 152.6,65.8 154.9,68.4 153.8,69.6 152.7,69.5 150.3,72.4 
		151.9,76.1 151,86.4 148.4,89.4 150.6,93.5 146.2,97.2 145.7,102.2 148,105 145.3,109 143.3,108.9 144.3,113.6 141.6,116.7 
		137.6,125.6 136.9,128.9 134.9,130.7 129.4,130.6 127.1,133.7 128.4,141.7 126.3,144.6 121.3,144.3 119.9,148.7 117.3,152.9 
		121.3,159.5 121.3,161.5 119.6,164.7 115.3,161.8 112.1,162 112.1,167.8 110.3,168.6 110,172.3 107.8,172.3 107.9,169 101.2,168.1 
		98.5,170.4 96.4,170 95,168.6 91.1,169 91.1,167.3 95.7,164.9 98,163.8 99.2,161.3 96.9,157.6 94,154.4 94.2,150.2 85,149.7 
		82.5,152 83.4,156.6 82,159.3 75.4,158.1 70.6,154.9 68.6,157.1 57,149.7 50.5,147.2 41.4,146 31.7,147.6 22.2,148.4 16.7,151 
		13.8,150.9 11,147.6 10.9,142.1 16,137.8 27.7,131 38.2,125 45.4,121.1 48.4,120.3 54.4,123.2 62,124.9 64.3,124.6 64.6,112.3 
		67.4,106.5 68.4,102.5 67.1,99.6 63.4,100.1 58.3,102.3 52,103.4 49.4,101.2 49.8,99.2 52.3,95.4 52,91 46.4,87.9 42,84.6 
		42.6,81.8 46.9,80 53.6,80.1 56.7,75.3 59.3,74.2 63.2,74.3 66.3,76.3 71.6,74.3 69.8,71.4 70.1,65.7 68.3,62.9 64.9,62.9 
		57.6,65.1 53.5,65.4 51.1,63.1 51.3,60.4 59.7,54.2 66.2,43.7 69.6,40.3 75.6,39.7 77.4,37.1 77,25.4 	"/>
	<polygon class="st0" points="142.5,178.2 141.2,199.6 138.1,210 134.2,218.5 132.8,221.4 134.5,224.3 141.1,224.4 145.3,227.3 
		147.2,231.8 146.8,238.6 144.1,244.8 140.3,249 140.4,254.3 139.3,255.6 133.5,255.3 133.2,259 135.6,271.3 134.6,287.1 
		133.1,298.6 133,307.3 132.1,312.5 128.8,314.7 124.2,314.5 117.9,311.9 115.4,308.6 115.5,303.1 114.6,299.9 114.9,295.2 
		110.7,293 107,292.3 104.7,294.1 102.6,293.2 102.9,289.2 101.6,285.6 103,282.7 101.5,280.6 99.6,281.6 97.5,280.8 97.8,277.7 
		92.2,277.7 90.2,275.4 85.2,281.3 82.8,281.2 78.2,276.8 83.2,267.6 87.3,252.8 90.2,240.2 90.1,233.6 85.3,228.6 76.1,227 
		66.8,225.2 57.3,225 55,224.7 54.4,222.7 56.8,219.2 59.4,213.1 60.4,198.7 62.3,193 62.4,190.2 58.4,189 49,187.5 39.9,183.7 
		34.9,180.8 32.5,174.8 33.9,168 37.7,163.5 39.9,163.6 44.7,170.3 46.5,177.9 46.5,181.1 48.7,181.3 56,173.9 62.6,168.1 
		67.7,166.2 71.8,161.9 68.5,157.1 70.6,154.9 75.4,158.1 82,159.3 83.4,156.6 82.6,152 85,149.7 94.2,150.2 94,154.4 96.9,157.6 
		99.2,161.3 98,163.8 91,167.3 91.1,169 94.8,168.6 96.3,170 98.5,170.4 101.2,168 107.9,169 107.9,172.2 109.9,172.2 110.3,168.6 
		112.1,167.7 112.1,162 115.3,161.7 119.5,164.7 121.3,161.5 121.4,159.5 128.6,161.8 138.8,174.2 139.9,174 142.4,177.2 	"/>
	<g>
		<text transform="matrix(1 0 0 1 154.0551 116.9188)" class="st1 st2">Shorupkathi</text>
	</g>
	<g>
		<text transform="matrix(1 0 0 1 74.6996 100.8089)" class="st1 st2">Nazirpur</text>
	</g>
	<g>
		<text transform="matrix(1 0 0 1 75.9955 198.4734)" class="st1 st2">Pirojpur</text>
	</g>
	<g id="dist-gopalganj-1_4_">
		<g>
			<circle class="st3" cx="184.2" cy="136.3" r="13.4"/>
			<text transform="matrix(1 0 0 1 178.2497 143.5097)" class="st1 st4">1</text>
		</g>
	</g>
</g>
<g id="pirojpur-3">
	<polygon class="st5" points="138,399.9 138.6,406 134.8,416.1 135.7,418.9 139.7,420.7 145,421.1 146.3,425.3 148.2,424.9 
		147.7,420.5 148.4,417.9 147,415.3 148.2,414.1 152.1,420.4 154.1,422.8 155.8,423.7 156.7,427 160.7,426.6 164.5,429.8 
		163.5,436.7 161,441.7 161.8,445.3 159.8,448.6 163.8,456.8 162.7,462.9 160.4,464.3 154.8,460.6 152.5,461.5 151.5,472.3 
		149,473.1 145.6,472.3 144.3,474.2 145.3,477.2 140,481.7 140.1,487.8 136.7,494.8 138.1,504.5 143.5,509.9 142.9,511.9 
		139.6,516.1 138.5,517.9 138.7,521.8 136.7,523.2 136.4,525.2 134.6,528 135.7,533.4 128.7,534.1 123.1,535.3 121.1,535.4 
		119.6,534.1 117.7,535.5 118.2,539.7 118.2,543.8 121,548 120,549.3 115.9,549 113.1,553.4 114.1,560.5 111.1,560.8 108.3,558.8 
		107.2,554.3 103.4,559 101,559 95.9,553 94.1,548.1 95.1,542.6 93.7,541.6 91.3,544 91.1,552.3 91.9,559 96.6,566.8 95.8,568.9 
		91.1,573.6 87.7,575 88.6,582.3 89.3,584.6 88.5,586 83.3,584.9 77.1,581.1 74.9,582.2 72.1,589 66.4,594.4 59.7,596.3 52.9,595.4 
		48,598.5 43.9,597.6 37.1,598.7 33,592.8 32.2,580.6 29.1,569.9 27,562.2 22.8,552.2 15,539.7 11.8,529.7 8.9,517.2 9.3,503.3 
		13.4,486.9 17.8,469.6 24.5,458.2 35.9,439.9 39,432.3 42.1,412.6 42.5,409.4 49.2,413.3 52.4,412.9 66.3,424.6 69,422.6 68,415.8 
		70.3,412.7 69.4,408.9 74.2,402.7 80.6,405.8 83,404.1 84.5,405.6 84,410 89.1,419.8 98,417.6 99,413.2 101.2,410.8 98.8,406 
		99.1,403.2 91,396.7 90.7,393.3 93.8,391.9 93,389.9 95.5,387.8 99.5,388.9 99,392.8 105.4,400 111.2,400.4 114.1,398.4 
		119.1,398.4 121.3,396.6 123.2,397.7 129.3,398.2 130.2,399.5 134.7,399.2 137.7,400 	"/>
	<g>
		<text transform="matrix(1 0 0 1 77.0902 465.4847)" class="st1 st2">Mathbaria</text>
	</g>
	<g id="dist-gopalganj-1_3_">
		<g>
			<circle class="st3" cx="83.3" cy="498.3" r="13.4"/>
			<text transform="matrix(1 0 0 1 77.333 505.5387)" class="st1 st4">3</text>
		</g>
	</g>
</g>
<g id="pirojpur-2">
	<polygon class="st6" points="194.5,180.9 196.2,183.4 193.5,189.1 193.9,194.9 197.2,194.6 197.6,201.5 195.9,204.7 197.6,206.8 
		201.8,207.8 202.2,215.8 204.6,218.1 203,220.1 202.2,222.8 196.7,232.2 193.9,233.9 179,237.2 176,236.5 170,231.2 167.7,233 
		166.3,240 163.9,242.1 163.7,244.9 166,248.1 165.9,260.5 170.1,267.1 169.7,278.6 168.6,283.3 166.7,283 165.6,275.2 163.1,273.7 
		163.1,268.3 158.8,268.1 154.8,272.4 151.6,281.4 147.8,281.4 142.9,288.1 141.6,290.1 141.6,293 143.1,295.1 142.4,297.2 
		135.7,297.5 135.6,304.9 133,304.7 133,298.6 134.6,286.8 135.5,271.3 133.2,258.9 133.6,255.5 139.2,255.6 140.4,254.3 140.3,249 
		144.1,244.8 146.8,238.6 147.2,231.9 145.3,227.3 141.1,224.3 134.5,224.3 132.8,221.3 138.1,210 141.2,199.6 142.5,178.2 
		142.3,177.1 140,174 144.6,172.7 155.3,175.7 157.5,178.6 159.5,178.1 160.2,174.2 164.4,169.7 169.3,168.8 175.5,175.7 
		178.1,173.9 180.4,175.6 178.6,179.9 184,183.7 187.8,181.1 189.7,182.3 194,181 	"/>
	<polygon class="st6" points="168.8,283.2 171,286.5 170,290.8 171.5,297 166.2,305.1 167.4,306.5 174.7,300.1 177.4,304.8 
		172.9,310.2 174.5,312.2 176.5,311.1 177.8,313.3 180.2,313 181.1,315 179,316.3 180.2,320.7 185.3,320.1 188.3,316.8 187.6,313.5 
		193.8,311.9 194.7,313.6 196.6,313.2 196.6,310.8 198.2,310.5 205.1,315.4 209,314 206.8,308.9 211.2,306.6 212.7,309 213.8,308.4 
		216.1,310.6 215.4,317.4 221.4,315.4 224.3,320.3 221.1,324.1 221.5,325.9 218.2,328 218.2,333.4 207.3,342.5 205.8,342.4 
		203.6,339.7 202.5,340.5 203.9,343.3 202.2,350.4 199.8,355.1 194.1,354.3 191.8,354.9 190.8,357.2 185.8,357 184.9,359.9 
		181.3,359.4 178.8,354.7 179,349.2 173.6,348.8 172.8,345.2 170.2,344.2 171.3,341.3 169.9,338.1 167.6,341.9 164,341.5 
		164.1,348.7 167.8,350.7 167.7,356.8 163.5,358.6 159.1,356.7 150,356.3 148.1,352.8 140.3,356.7 143.4,360.5 143.2,366.9 
		140.9,371 142.7,374.6 141.7,375.9 143.3,378.6 145.9,378.6 147.1,385.4 149.1,389.7 152,391.6 150.3,394.3 148.5,394 143.8,397.9 
		141,396.5 138.1,400 134.8,399.2 130.2,399.6 129.3,398.2 123.2,397.7 121.3,396.6 119.1,398.4 114.2,398.4 111.2,400.4 105.4,400 
		98.9,392.8 99.5,388.9 95.5,387.8 93,389.9 93.8,391.8 90.6,393.3 90.9,396.7 99.1,403.2 98.8,406.1 101.2,410.9 98.9,413.3 
		98,417.6 89.1,419.8 84,410 84.5,405.6 83,404.1 80.7,405.9 74.2,402.7 69.3,408.9 70.3,412.7 68,415.9 69,422.6 66.4,424.6 
		52.4,412.9 49.1,413.3 42.4,409.5 47.9,404.4 64.1,387.2 75.4,372 89.8,360.4 95.8,356.9 100.2,350.7 99.1,348.2 107.4,327.7 
		106.9,319.7 106.5,314.3 110.4,310.2 115.5,308.5 118,311.8 124.2,314.6 128.9,314.7 132.1,312.5 133,307.3 133,304.6 135.5,304.9 
		135.8,297.4 142.4,297.2 143.1,295 141.6,293 141.6,290.1 147.8,281.4 151.5,281.5 154.8,272.4 158.9,268 163.1,268.2 163.1,273.7 
		165.7,275.2 166.7,282.9 	"/>
	<path class="st6" d="M76.7,279c0,0-18.6,20.8-18.8,20.8s-1.3,3-1.3,3l3.6,1.8l7.6-0.8l6.4-0.7l7.3-0.1l9.3,1.6l1.7,2.5L92,316
		l-5.6,1l-5,1.3l-9.9-1.3l-9.1-3.8l-5.5-2.4l-5.7-4.5h-6.3l-4.6,0.8l-5.9-0.7l-8.3,3l-0.4,6.9l1.8,2.9l0.3,4.8l3.4,2.3l1.6,3.7
		l4.7,1.6l3.7,2l4.8-1l3.7,1.6l5.2-3l2.6-0.4l2.9-1.4l6.1,0.9l5.4,3.5l3.7,6l-0.2,4.1l-1.5,2.2l-0.3,2.4l-3.1,1.2l-0.8,2.2l-1.6,0.9
		l-5.2,0.4l-3.1,3l-11.5,0.1l-8.2,4.3l-4.1,0.1l-2.3,2.2l-0.9,2.9l-3.2,2.3l-1.7,2.9l-6.8,0.8l-4.2,6.9l-0.5,4.4l3.5,8l7.6,8.4
		l8.8,7.8l2.1,1.7l4.2,0.4l4.9-4.7l6.7-7.1L64.3,387l11-15.1l14.5-11.6l6.1-3.5l4.4-6.2l-1-2.4c-0.1,0,8.2-20.6,8.2-20.6l-0.9-13.4
		l4-4.1l5-1.6v-5.6l-0.9-3l0.2-4.7l-4.2-2.2l-3.6-0.6l-2.3,1.8l-2.1-1l0.3-4l-1.3-3.6l1.5-2.8l-1.6-2.1l-1.9,1l-2-0.8l0.2-3.1h-5.6
		l-2.1-2.2l-4.9,5.8l-2.5-0.1l-4.4-4.2L76.7,279z"/>
	<g>
		<text transform="matrix(1 0 0 1 145.7344 216.4468)" class="st1 st2">Kawkhali</text>
	</g>
	<g>
		<text transform="matrix(1 0 0 1 144.6459 334.7855)" class="st1 st2">Bhandaria</text>
	</g>
	<g>
		<text transform="matrix(1 0 0 1 24.6704 360.5078)" class="st1 st2">ZiaNagar</text>
	</g>
	<g>
		<text transform="matrix(1 0 0 1 77.09 327.4268)" class="st1 st2">Indurkani</text>
	</g>
	<g id="dist-gopalganj-1_1_">
		<g>
			<circle class="st3" cx="119.5" cy="359.7" r="13.4"/>
			<text transform="matrix(1 0 0 1 113.4997 366.9264)" class="st1 st4">2</text>
		</g>
	</g>
</g>
</svg>
