<?xml version="1.0" encoding="utf-8"?>
<!-- Generator: Adobe Illustrator 25.2.1, SVG Export Plug-In . SVG Version: 6.00 Build 0)  -->
<svg version="1.1" id="Layer_1" xmlns="http://www.w3.org/2000/svg" xmlns:xlink="http://www.w3.org/1999/xlink" x="0px" y="0px"
	 viewBox="0 0 400 543" style="enable-background:new 0 0 400 543;" xml:space="preserve">
<style type="text/css">
	.st0{fill:#CBD3D0;stroke:#FFFFFF;stroke-width:0.5;stroke-miterlimit:10;}
	.st1{fill:#ABBEED;stroke:#FFFFFF;stroke-width:0.5;stroke-miterlimit:10;}
	.st2{font-family:'TimesNewRomanPSMT';}
	.st3{font-size:16px;}
	.st4{fill:#FFFFFF;}
	.st5{font-size:24.672px;}
	.st6{fill:#C5CFED;stroke:#FFFFFF;stroke-width:0.5;stroke-miterlimit:10;}
</style>
<polygon id="dist-barguna_1_" class="st0" points="32.2,277.9 30.5,278.4 23.3,278.3 20,277.8 21.4,282.8 21.9,288 23.3,298.3 
	23.3,309.2 23.8,319.5 23.5,323.3 19.4,329.4 13,335.6 8.1,342.2 6.3,347 7.7,355.6 8.8,368.1 12.1,371.6 16.6,377 17.7,383.6 
	19.4,392.9 22.7,397.2 26.5,400.4 28,404.9 29.8,409.1 31.5,419.8 32.1,423.7 35.7,428.4 43.1,439.9 48.7,449.3 54.3,460.9 
	58.4,471.7 59,481.6 62.8,492.8 73.9,506.4 74.3,508 83,515.6 91.2,520.7 94.8,522.4 99.9,526.8 112.3,530.5 122.4,533.2 
	137.1,534.4 144.4,535.9 157.5,537.9 166.3,537.8 171.8,537 177.3,533.8 180.6,525.1 182.6,523.2 181.7,519.2 177.8,516 176,512.7 
	180,504.4 187.1,496.8 191.6,492.8 191.9,491.3 184.7,493.7 182.1,492.4 176.5,487 181,475.8 179.8,475 175,485.9 168.9,487 
	163,492.4 155.8,496.7 150.7,498.1 146.1,496.9 144.3,495.2 135.9,493.7 130,494.8 126.8,496.8 125,494.8 126.3,488.6 127.6,478.9 
	130.1,473.3 130.6,462.1 132.9,447.8 142.6,445.8 150.6,442.9 162.5,434.2 168.3,423.9 167.7,413.5 166.1,406.7 172.7,384.9 
	184.7,363.5 173.4,372.8 166.5,390.8 161.4,403 160.8,409.4 162.4,416.2 161.1,424.7 158.8,429.9 153.7,432.4 146.6,429.8 
	140,426.6 133.9,427.9 132.9,425.7 129.2,425.7 129.1,420.3 117.1,422.6 107.7,425.4 107,416.1 101.8,413.2 100.5,406.6 98.2,405.7 
	96.9,399.4 94.6,396.4 91.6,381.3 92.4,372.9 93.4,371.7 88.5,370.7 84.5,379.3 83.4,391.4 85.6,399.2 89.2,403.7 91.3,417.1 
	88.1,437.8 84,451.8 77.3,458.9 70.2,461.9 56.8,454.8 55.7,451.7 56.9,449.3 58.5,442 61.6,437.1 59.6,435.2 62.1,430.1 
	60.6,426.9 59.7,417.6 55.4,408.2 49.7,402.3 42.7,389.5 41,381.3 40.5,375.7 38,366.1 30.6,352.6 29.1,345.8 30.9,339.3 
	32.2,337.8 31.9,334.2 34.8,322.3 35.5,302.7 34.4,287.4 "/>
<g id="barguna-2">
	<polygon class="st1" points="231,198.9 231,198.9 233.9,201.1 238.3,202 249.8,212.2 258.8,214.1 267,218.2 271,221.7 274.2,219 
		280.1,228.6 284.3,235 289.5,243.7 290.8,248.9 289.6,255.1 282.6,266.5 279.1,276.6 277.8,292.3 276.1,303.5 270.9,311.4 
		262.2,314.9 254.2,313.5 243.1,308.1 239.3,307 232,308.6 228.1,315.2 224,327.4 215.9,334.8 206.6,343.6 197.3,353.7 184.4,363.7 
		173.3,372.9 166.6,390.5 161.4,403 160.8,409.4 162.3,416.2 161.1,424.7 158.8,429.9 153.7,432.4 146.4,429.7 140.1,426.6 
		133.9,427.9 133,425.7 129.2,425.7 129.2,420.3 117,422.6 107.7,425.5 107.1,416.1 101.8,413.2 100.5,406.6 98.2,405.7 96.9,399.4 
		94.6,396.4 91.6,381.3 92.4,372.9 96.4,368.5 106,364.6 117,359.7 123.1,353.4 128.1,343.4 129,338.2 125.7,317.2 125.2,305.6 
		128.8,295.6 138.1,287.1 149.3,280.6 161.9,273.4 163.9,270.3 162.1,265.6 153.4,262.8 140.7,261.1 128.7,254.3 124.6,250.3 
		125.2,250 123.4,246.4 124.3,241.3 130.5,236.6 151.7,230.8 160.3,225.8 162.8,224.6 168.1,229.1 171.1,229.7 180.3,225.3 
		185.4,227.3 190,227.5 192.7,224.7 193.1,216.4 195.4,205.1 199.4,203 206.1,205.8 213.4,206.1 216.9,204.1 227.6,205.3 
		229.1,199.9 230.8,199.1 	"/>
	<polygon class="st1" points="282.3,231.9 287.7,225.8 288.8,221 286.7,219 283.5,217.9 283.9,213.9 291.3,211.6 293.8,201.9 
		296.6,198.5 298.2,191.8 300.9,191 306.4,192 316.1,188.9 319.4,190.9 322.8,194.5 324.6,194.5 327.9,191.2 330.9,193.5 329.4,197 
		330.7,199.3 327.6,199.6 329.5,201.9 328.2,204 325.2,202.6 327.9,214.1 331.6,213.6 327.7,209.1 328.7,206.1 334.2,204.3 
		339.3,204.3 343.5,197 360.3,189.2 363.3,189.5 362.8,191.6 358.6,202 360.6,203.7 365.3,203.2 364.6,209.4 366.4,209.7 
		370.9,208.6 373.7,210.3 373.8,213.9 377.9,217.6 379.3,217.1 380.3,214.6 384.2,215.5 384,218.1 382.2,220.5 383.7,226.7 
		386.2,227.5 380.7,237.6 374.4,238.4 379,244.6 385,243.9 388.1,242.7 389.6,240.1 392.5,241.3 394,244.8 387.8,253.5 386.1,254.4 
		381.1,254.5 371.9,262.7 366.3,272.9 367.9,283.8 367.7,294 373.5,299.4 372.1,306.1 371.8,310.4 375.3,314.7 374.2,316.1 
		368.5,314.1 365.4,317.5 365.6,320.2 367.5,323.8 363.9,331.7 363.4,336.8 361.9,337.8 359.8,332.4 352.2,333.6 350.4,335.2 
		352.6,338.6 349.6,342.1 340.1,346.5 335.1,348.6 332.4,352.4 332.3,357.7 330.1,359.1 325.5,361.3 326.7,367.6 323.7,375.2 
		319.3,381 312.8,381.5 310.5,380 306,379.9 302.6,384.2 304.3,385.4 302.3,386.1 302.1,389.5 299,390.8 296.9,387.4 293.5,384.6 
		295.5,380.4 279.1,380.2 276.9,379.3 277.5,377 294.2,370.9 294.3,368.7 280.6,368.9 280.7,367 282,365.3 277.2,360.4 274.7,355.2 
		272.9,354.8 269.6,356 264.3,350.8 264.6,348.7 267.9,349.6 271.8,346.5 271.2,344.8 268,341.1 266.8,339.2 261.9,337.2 
		251.9,342.2 250.2,350.6 256,358 258.4,356.4 259.9,353 262,353.4 260.2,361.9 267,362.5 270.9,364.6 270.1,366.4 265.8,369.8 
		269.7,380.9 268.3,382.5 261.4,379.8 260.1,381.2 264.4,386 263.5,389.1 257.1,388.5 244.9,386.4 244.1,388.4 250.6,396.6 
		249.4,398.4 244.4,402 245.3,406.3 249.8,410.1 255.7,419.8 254.8,421 245.9,422 242.1,424.3 239.3,423.6 235.3,418.1 230.2,418.3 
		213,440.3 212.1,448.3 213.9,454.9 219,463.1 218.4,465 212.8,466.2 201,466.9 196.3,468 192,472.6 191.4,478.7 192.6,488.7 
		191.9,491.5 184.6,493.7 182.1,492.4 176.4,487 181,475.8 179.9,474.9 175,486 168.9,487 163,492.3 155.8,496.7 150.7,498.1 
		146.1,497 144.3,495.2 135.8,493.7 130,494.7 126.8,496.8 125,494.8 126.2,488.7 127.6,478.9 130.1,473.4 130.6,462.2 132.8,447.8 
		142.5,445.8 150.4,442.9 162.4,434.2 168.3,424 167.7,413.5 166.1,406.7 172.7,385 185,363.2 197.2,353.8 206.9,343.4 224,327.4 
		228.1,315.2 232,308.6 239.3,307 243.2,308.1 254.3,313.5 262.2,315 270.9,311.4 276.2,303.4 277.8,292.2 279.1,276.5 282.6,266.4 
		289.6,255.1 290.8,248.8 289.6,243.7 	"/>
	<g>
		<text transform="matrix(1 0 0 1 300.8314 277.3114)" class="st2 st3">Amtali</text>
	</g>
	<g>
		<text transform="matrix(1 0 0 1 175.4554 418.2894)" class="st2 st3">Taltali</text>
	</g>
	<g>
		<text transform="matrix(1 0 0 1 198.971 279.537)" class="st2 st3">Borguna</text>
	</g>
	<g id="dist-gopalganj-1_1_">
		<g>
			<circle class="st4" cx="226.9" cy="245" r="13.4"/>
			<text transform="matrix(1 0 0 1 220.8714 252.2419)" class="st2 st5">1</text>
		</g>
	</g>
</g>
<g id="barguna-1">
	<path class="st6" d="M184.3,132.1l-3.6-6.2l-2.3-7.1l4.1-5.6l9.8-6.9l4.6-4.8l6.9-14.3l9.6-14l7.3-8.4l18-15.1l4.6-4.1l1.2-3.8
		l-1.2-16.5l2.4-7.1l7-8.6l3.5,1.7l7.4-0.7l1.1,2.4l2.7-1.4l7.1,2.7l0.5-2.7l3.2-0.6l7.3-5.6l6.1-0.9l5.3-0.2l0.6,1.6l-1.6,2.3
		l-0.8,5.5l-2.6,1.5l-5.2,6.5l1.2,6l-0.1,1.7l-3.6,4.8l-3.9,0.5l-0.4,3.2l2.3,3.5l-2.1,2.7l-0.2,3.9l-5.9,6.5l-1.2,3.3l0.9,2.7
		l-1.5,0.9l-4.1-1.3l-8.6,2.3l-1.6,2.8l1.5,1.3l-2.5,6.2l-5.9,7l-0.5,11.1L250,95l1.7,4.6l-0.8,2.4l-5.6,2.7l1.7,2.7l0.8,4.6
		l-2.6,11.3L242,125l-4.9-1l-1.9,1.3l4.5,5.6l0.2,4.3l3.6,3.2l-1.6,1.5l-4.9-5.1l-3.7-0.5l-9.9-1.5l-3.6-3.8l-5.1-2.6
		c0,0-0.8,2.7-0.6,2.7s1.2,0.4,1.2,0.4l-0.2,4.4l2.3,1l1.1-1.5l1.2,1.2v1.8l3.5,1.6l-0.6,3.7h1.9l1.3-2.4l2.1-0.1l0.9,3l1.5,1
		l0.3,3.7l1.2,2.4l-0.6,1l-1.6,0.1l-1.4,2.6l-2-0.3l-3.2-3l-2.9,1.7l1.1,2.6l-1.5,1.7l1.3,1.6l-2.3,3.7l1.3,0.7l1,3.8l-2.4,3.6
		l5.6,14l3.8,4.2l-1,3.9l3.2,2.6l0.8,5.2l-2,1l-1.5,5.3L217,204l-3.5,2l-7.3-0.3l-6.8-2.7l-4.1,2.1l-2.1,11.2l-0.5,8.4l-2.7,2.7
		l-4.6-0.2l-5-2l-9.2,4.5l-3-0.6l-5.5-4.6l3.1-3l2.6-7.4l1.5-13.5l0.8-8.5l4.2-7.4L185,174l4.1-9.1l2.2-11.5l-1.7-10.8L184.3,132.1z
		"/>
	<polygon class="st6" points="178.8,119.9 176.8,120.8 173.5,119.3 170.7,115.8 167.3,115.3 165.6,116.8 162.8,122.8 160.9,123.7 
		156.6,122.1 153.4,122.6 150.6,125.7 147.7,127.5 145.5,128.1 145.1,130.1 148.2,135.4 149.3,138.4 148.8,144.7 148.3,145.9 
		145.9,146.8 142.4,145 140.1,143.1 138.5,144.5 137.8,150.6 137.6,153.7 135.7,155.5 132.9,155.1 130.4,155.8 131.4,158.5 
		130.5,160.8 125.8,163.9 126.5,169 124.1,174.9 122.5,177.7 123.8,184.4 125.5,188.4 129,192.2 127.8,196.1 124.9,200.5 124.7,204 
		122,208.6 121.4,210 121.6,216.2 115.6,216.4 109.8,217.8 106.8,217.6 105.7,216.7 104.6,217.9 105,221.1 103.9,224 107,230.6 
		106.5,231.6 103.2,231.4 100.6,233.8 101.7,235.2 101.5,237.1 109.3,232.3 112.4,226.2 114.4,226.4 114.9,224.1 120.2,225.7 
		123.2,221.6 127.8,223.3 124.3,228.3 124.3,233.3 122,236.5 116.9,236.8 117.4,239.7 120,242.6 119.5,244.6 111.7,245.7 
		110.6,247.5 118.5,254.6 121.6,251.2 125.2,250 123.3,246.4 124.3,241.3 130.5,236.6 143.3,233.2 151.7,230.8 159.8,226.1 
		162.7,224.6 165.7,221.7 168.3,214.2 170.6,192.2 174.7,184.8 185,174.2 189.1,165.2 191.4,153.6 189.6,142.8 184.3,132 
		180.7,125.8 	"/>
	<polygon class="st6" points="93.4,371.6 88.5,370.7 84.5,379.2 83.4,391.4 85.6,399.2 89.2,403.7 91.3,417.1 88.1,438 84,451.8 
		77.3,459 70.1,461.9 56.9,455 55.7,451.8 56.9,449.3 58.5,442 61.6,437.1 59.6,435.2 62,430.1 60.6,427 59.6,417.6 55.5,408.2 
		49.8,402.4 42.7,389.5 41.1,381.5 40.5,375.6 38,366.1 30.6,352.6 29.1,345.8 30.8,339.3 32.2,337.8 31.9,334.2 34.8,322.3 
		35.5,302.7 34.4,287.4 32.2,277.9 33.7,276.8 42.2,276.6 48.1,275.5 52.8,273 55.6,269.5 57.7,263.7 58.7,262.4 61,262.3 
		64.7,264.6 68.4,267.2 70.4,267.6 71.5,266.3 70.6,260.3 70.2,257.3 73.5,254.9 77.9,250.9 79.4,248.8 76,241.5 74.4,236.9 
		74.6,228.5 75.9,225.4 77.1,224.8 78.4,225.7 78.2,232.1 81.5,239.5 84.3,240.5 87.2,240.1 89.7,237.4 91.4,237.3 91.5,239.4 
		92.8,241.8 96,243.9 97.6,242.4 97.7,234.2 98.8,232.6 100.6,233.7 101.7,235.2 101.7,237 109.4,232.3 112.4,226.2 114.4,226.4 
		114.9,224.1 120.2,225.7 123.2,221.6 127.8,223.4 124.3,228.3 124.3,233.2 122,236.5 116.9,236.8 117.4,239.5 120,242.6 
		119.5,244.6 111.8,245.7 110.6,247.5 118.5,254.6 121.7,251.2 124.6,250.3 128.7,254.3 140.7,261.1 153.4,262.8 162,265.6 
		163.8,270.2 161.9,273.4 138.2,287.1 128.8,295.6 125.2,305.6 125.7,317.2 129,338.2 128.1,343.4 123,353.4 117,359.8 96.4,368.5 	
		"/>
	<g>
		<text transform="matrix(1 0 0 1 251.3568 50.5712)" class="st2 st3">Betagi</text>
	</g>
	<g>
		<text transform="matrix(1 0 0 1 137.7928 169.3471)" class="st2 st3">Bamna</text>
	</g>
	<g>
		<text transform="matrix(1 0 0 1 44.3816 336.4916)" class="st2 st3">Patharghata</text>
	</g>
	<g id="dist-gopalganj-1_7_">
		<g>
			<circle class="st4" cx="90.7" cy="294.4" r="13.4"/>
			<text transform="matrix(1 0 0 1 84.7047 301.6586)" class="st2 st5">2</text>
		</g>
	</g>
</g>
</svg>
