<?xml version="1.0" encoding="utf-8"?>
<!-- Generator: Adobe Illustrator 25.2.1, SVG Export Plug-In . SVG Version: 6.00 Build 0)  -->
<svg version="1.1" id="Layer_1" xmlns="http://www.w3.org/2000/svg" xmlns:xlink="http://www.w3.org/1999/xlink" x="0px" y="0px"
	 viewBox="0 0 394.5 378" style="enable-background:new 0 0 394.5 378;" xml:space="preserve">
<style type="text/css">
	.st0{fill:#D0D6EC;stroke:#FFFFFF;stroke-width:0.5;stroke-miterlimit:10;}
	.st1{font-family:'TimesNewRomanPSMT';}
	.st2{font-size:16px;}
	.st3{fill:#FFFFFF;}
	.st4{font-size:24.672px;}
	.st5{fill:#ABBEED;stroke:#FFFFFF;stroke-width:0.5;stroke-miterlimit:10;}
	.st6{fill:#9BB6EA;stroke:#FFFFFF;stroke-width:0.5;stroke-miterlimit:10;}
	.st7{fill:#8BAFE8;stroke:#FFFFFF;stroke-width:0.5;stroke-miterlimit:10;}
	.st8{fill:#7CA7E5;stroke:#FFFFFF;stroke-width:0.5;stroke-miterlimit:10;}
	.st9{fill:#6899E0;stroke:#FFFFFF;stroke-width:0.5;stroke-miterlimit:10;}
</style>
<g id="barishal-1">
	<path class="st0" d="M129.5,113.6l3.4-3.5l1.6,1.9l4-0.8l1.3,2.9l1.2-0.6l-0.3-1.6l4.6-0.3l0.6,0.9l4.3,2.7l5.8,1.1l2.6,1.7
		l5.4-10.4l-0.2-6.9l5.2-4.5l3.5-4.9l3.6-1.4l1.1,1.5l2.1-0.6l2.7,2.7l4.7,9.6l1.7,1.2l2.8-3.5l3.2-1.9l-1.4-3.7l-3.4-4.9l0.8-5.4
		l-1.1-2.1l-5.2,0.1l-7.9-1.9l-12.8-2.1l-6.2-4l-2.1-3.8l-0.8-5.4l-2.2-1l-5.2,0.3l-8.1,5.7l-4.6-1.5l-7-0.8l-3.5-5.6L123,51.7
		l1.6-7.2V30.9l2.4-3.6l1.2-5.2l-4.5-4.1l-2.6-1.8l-1.5-5l-1.5-3.1l-2.8-2.4l-1.5,1.4h-2.2l-3,5.9l-3,1.7l-2-0.4l-1.4-2.4l-2.4,0.7
		L97,11.8l-0.9-1V9.6l-1.3-0.3L94,10.2l-2.6-1.6H90l-2-1.9l-1.8,2.1l-2.1-0.4l-1.6,1.8l1.1,2.8l-1,2.1L80.9,17l-2.3,0.1l-3.5-0.8
		l-3.6,1.9v2l3.6,0.4v1.3l4.6,1.6l2.5,0.3l1.1-0.9l5.3,0.2l1.9-2.3l6.8-0.2L97,23.3l2.2,0.4l0.4,2.6L103,26l-1.2,4.4l-2.2,0.4
		l-1.7,1.8l0.4,1.6l2.2-0.2v1.5c0,0-0.9,1.9-0.9,1.8s1.9,1.6,1.9,1.6l-1.5,2.3l-0.5,2.6l0.9,2.4l1.6,1l-1.7,3.2h-3.7L96,51.6l1,4.5
		l3.5,0.3l1.2,2l-1.1,2.1l1.1,1.1l1.3,8.6l0.6,2.5l2.6,2.3l1.3-0.1l4.7,2.6l0.9,0.9l-0.3,1.6l-4.3,4.7l1.9,2.3l-1,1l0.3,3l1.7,1.1
		l1.1,2.7l3.7-0.8l2.3,4.8h1.4l1.2,5.2l1.2,3.6l3,1.5l2.1,1.1l0.9,3L129.5,113.6z"/>
	<polygon class="st0" points="115.4,98.1 115,102.5 113.6,104.3 109.2,103.4 108.7,104.6 110,105.7 108.7,109.3 102.8,105.9 
		101.4,106.3 100.8,108.1 98,106.4 93.6,103.7 95.6,100.9 93.9,99.1 90.4,99.8 80,97.3 78.4,98.9 72.8,98.2 72.3,99.9 65.8,99.5 
		53.1,97 51.3,98.1 46.6,96.6 37.1,95 33.3,95.1 29.4,92.4 27.4,92.1 26.2,90.3 27.5,88.3 27.6,85.7 29.2,83.6 26.5,80.1 26.7,76.6 
		27.9,74 27,71.8 27.4,67.1 29.2,66.2 32.4,67.1 33,68.8 34.2,68.7 36.9,64.6 37.7,59.9 39.2,58.9 42.2,61.1 42.9,60.3 41.9,59.1 
		43.1,55.4 44.2,55.9 45.2,54.1 46.6,49 48,48.1 48.1,45 50.7,43.9 53.5,44.9 58.3,45.1 65.4,46.2 66.6,45.2 66.5,42.2 68,36.8 
		66.8,33.7 68.6,29.3 69.5,29.1 70.5,25.8 75.4,22 79.6,23.5 82.2,23.8 83.3,23 88.6,23.2 90.4,20.8 97.3,20.7 97,23.2 99.2,23.7 
		99.6,26.2 103,26 101.8,30.3 99.6,30.8 97.9,32.5 98.4,34.2 100.5,34 100.6,35.5 99.7,37.2 101.4,38.9 100,41.2 99.5,43.7 
		100.5,46.1 102.1,47.2 100.4,50.4 96.7,50.4 96,51.6 97,56.1 100.4,56.4 101.7,58.3 100.6,60.5 101.6,61.6 102.8,69.6 103.4,72.8 
		106.1,75.1 107.3,75.1 112.1,77.6 113.1,78.5 112.8,80.1 108.6,84.7 110.4,87.1 109.4,88 109.7,91 111.4,92.2 112.4,94.9 116.1,94 
		118.4,98.8 117.1,98.9 116.1,98 	"/>
	<g>
		<text transform="matrix(1 0 0 1 99.4916 93.1527)" class="st1 st2">Gouranadi</text>
	</g>
	<g>
		<text transform="matrix(1 0 0 1 53.075 55.9027)" class="st1 st2">Agailjhara</text>
	</g>
	<g id="dist-gopalganj-1_7_">
		<g>
			<circle class="st3" cx="85" cy="77.4" r="13.4"/>
			<text transform="matrix(1 0 0 1 79.0381 84.6586)" class="st1 st4">1</text>
		</g>
	</g>
</g>
<g id="barishal-2">
	<path class="st5" d="M3,128.9c0-0.1,0.1-3.5,0.1-3.5l-0.3-3.1l1.8-3.5l-0.2-2.4l2.3-2l-0.2-2.9L6,110.4l3-4.9l2.7-7l0.6-8l1-1
		l4.1,1l5.9,0.5l3.1-0.7l1.1,1.8l2,0.3l3.8,2.7L37,95l9.6,1.6l4.6,1.5l1.8-1l13,2.5l6.3,0.3l0.5-1.6l5.6,0.6l1.6-1.5l10.3,2.5
		l3.6-0.7l1.7,1.8l-2,2.8l7.1,4.4l0.6-1.8l1.4-0.4l5.9,3.4l1.4-3.6l-1.3-1.1l0.5-1.2l4.5,0.9l1.3-1.9l0.4-4.4l0.7-0.1l1,1l1.1-0.2
		l1.6,0.1l1.2,5.1l1.2,3.7l2.9,1.4l2.2,1.2l0.9,3l1.2,0.3l3.4-3.4l1.7,1.8l4-0.7l1.3,2.9l1.2-0.6l-0.3-1.6l4.6-0.3l0.6,0.9l4.2,2.7
		l6,1.1l2.6,1.7l-7,13.4l-1,5.4l-5.1,11.9l-8.4,12.2l-0.6,1.1l1.3,3.5l1.7,1.6l-0.3,8.5l-3.1,4l0.1,1.8l-2.9,7.5l2.1,1.7l-0.2,1.5
		l-2.7-0.5l-0.9,4.5l-2.4-0.4l-3.3,1.5l-0.8,1.4l-3-1.2l-1.2,0.8l-2.5-1.9l0.7-1.2l-2.1-0.7l-0.8-2.1l1.1-3.3l-1-1.7l-1.5,1.3
		l-2.6-1.2l1-1.4l-0.9-0.9l-2.6,1.5l-0.8-0.5v-2l-1.5-0.6l-1.8-4.8l3.4,0.2l0.9-1.2l-0.8-1.7l1.2-1.3l2.6,0.1l1.1-5.8l-0.8-1.2
		l2.5-6l2.6-3.4v-4l-4.3-2.7l-6.2-1.2l-1.6,0.7l-0.5,2.5l-2.5-0.7l-0.5-2.5l-9-4.2l-1.4-1.8l-3-0.3l-6.1-2.5l-4.6-4l-4.2-1.4
		l-6.2-0.8l-0.3-2.1l-1.6-0.5l-2,1.2l-3-0.7l-0.5,2.3l1.5,0.1l-0.4,1.5l0.4,2.9l-0.9,3.4h-3.9l-2.1-2.1l-2.8,0.2l-4.5,2.2l0.1,4.9
		l1.5,0.8l-0.1,5.6l-2.8,0.1l1.6-3.2l-0.9-0.8l-0.8,1.2l-0.5-0.9V149l-2.8,0.2l-1.2,0.9l-3-0.7l-1.7,0.7l-0.5,2.5l-1.5,2.1l-1-0.8
		l1.6-3l-1.9-0.3c0,0-0.2-4.3-0.2-4.4s4.4-3.5,4.4-3.5l-0.7-2.6l-2.5-0.3l-0.9-3.9l-2.7-2.5l-6.8-1.7l-8.4-1.9l-4.4,0.1l-4.4-0.7
		l-3.6,0.3L3,128.9z"/>
	<polygon class="st5" points="9.1,159.5 13.7,159.9 18.2,155.9 20,155.4 22.8,153.4 24.7,154.3 22.5,158.7 24.4,161.4 22.2,164.1 
		23.4,165.4 28.1,166.6 32.5,170.5 32.7,173.5 37.3,180.7 39,180.9 40.4,180.1 44.8,180 48.4,180.5 50.6,182.1 48.5,184.6 
		50.2,185.8 54.1,186.6 54.8,184.2 59,184 62.6,186 62.2,188.4 65.6,189.4 66.5,188 68.2,191 69.8,191 70.7,189.7 73.7,189.8 
		73.3,195.3 74.8,197.1 79.5,197 79.6,196 78.4,194.3 79.2,192.9 82.8,195.5 87.3,195.6 87.2,197.3 86.7,198.9 87.7,202.3 91,202.2 
		91.4,199 93.4,198.8 92.3,195.6 93,194.7 94.9,195.5 96.7,193.4 98.2,190.3 95.5,189.4 95.1,186.9 95.2,184.4 97,182.4 96.8,180.3 
		97.8,179.9 98.7,181.5 100.7,180.4 99.7,178.1 101.8,177.3 103.8,179.2 106,178.9 109.3,179 110.2,177.8 109.4,176.2 110.6,174.9 
		113.1,174.9 114.3,169.1 113.5,168 116,161.9 118.5,158.6 118.5,154.6 114.1,151.9 108,150.7 106.4,151.4 105.8,153.9 103.3,153.3 
		102.8,150.8 93.8,146.6 92.3,144.8 89.4,144.5 83.2,142 78.6,138 74.4,136.7 68.2,135.9 67.9,133.8 66.3,133.3 64.3,134.4 
		61.3,133.8 60.9,135.9 62.4,136.2 62,137.7 62.5,140.6 61.5,143.9 57.7,143.9 55.4,141.8 52.7,142 48.2,144.2 48.3,149.2 
		49.9,149.9 49.7,155.6 46.9,155.7 48.5,152.5 47.6,151.6 46.8,152.8 46.2,151.9 46.2,149.1 43.3,149.3 42.3,150.2 39.2,149.5 
		37.6,150.2 37.1,152.6 35.6,154.9 34.7,154 36.3,151.1 34.3,150.7 34.1,146.4 38.5,142.8 37.8,140.3 35.4,140 34.4,136 31.7,133.5 
		22.7,131.3 16.5,129.9 12.6,130 13.2,132.3 12.5,138.1 12.7,149 11.8,150.3 11.3,155.7 9.3,158.3 	"/>
	<g>
		<text transform="matrix(1 0 0 1 83.4868 135.486)" class="st1 st2">Wazirpur</text>
	</g>
	<g>
		<text transform="matrix(1 0 0 1 59.0333 171.361)" class="st1 st2">Banaripara</text>
	</g>
	<g id="dist-gopalganj-1_3_">
		<g>
			<circle class="st3" cx="50.2" cy="121.1" r="13.4"/>
			<text transform="matrix(1 0 0 1 44.2047 128.3252)" class="st1 st4">2</text>
		</g>
	</g>
</g>
<g id="barishal-3">
	<polygon class="st6" points="158.6,118 151.7,131.4 150.6,136.8 145.5,148.6 137.2,161 136.6,162.1 137.9,165.5 139.7,167.1 
		139.3,175.6 136.3,179.6 136.4,181.4 133.5,189 135.6,190.5 135.3,192 132.6,191.5 131.4,197.3 137.6,198.4 140.5,202.8 142.5,205 
		142.6,208.2 145.6,210.2 145.7,208.2 147,207.9 150.2,206.1 151,203.5 152.8,203.8 154.2,202.8 155,203.8 156.1,203 155.8,201.5 
		158.8,199.6 160.5,201.1 162.3,199.5 162.6,197.1 165.2,197.1 165.7,193 170.7,189.4 172.3,191.1 175.1,190.4 175.3,186.4 
		177.2,185.9 180,187.5 184.6,188.3 190.6,188.4 197.6,194.5 198.3,197.4 200.2,197.5 202.5,193.6 205.5,185.2 203.2,180.3 
		198.9,173.2 197.6,168.5 194.8,164 195.2,162.5 196.3,161.9 194.7,159.4 190.1,153.7 189.1,150.3 187.6,145.5 190,143.9 
		190.9,145.5 192.6,144.5 193.1,142.5 194.1,141.5 189.2,134.2 187.2,128.1 187.6,119.4 191.9,115.8 195.5,107.6 196,101.8 
		194.8,98.7 191.2,100.9 188.4,104.4 186.8,103.2 182,93.6 179.4,90.9 177.3,91.5 176.2,90 172.6,91.4 169.1,96.2 163.9,100.7 
		164.1,107.6 160.1,115.3 	"/>
	<path class="st6" d="M221.9,40.9c0-0.3-0.2-6.4-0.2-6.4l5.5-3.7l4.6-5.7l-4.2-3.3l-4.3-0.9l-1.4,1.2l-4.5-3.1h-4.3l-1.2-1.8
		l-4.3-0.1L207,15l-3.5,0.9l-3.5-3.4l-2.5,2l-6.9,1.3l-2.4-1.2L177,13.8l-3.1,1.1l-3.2-0.1l-1.9,4.6l-1.6,6.1l0.6,4.6l2.4,3.5h2.7
		l0.1,4l2.6,1.3l-0.3,3.3l3.3,12.1l-2.7,5.7v2.1l-2.8,2.6l-6.3-3.4l-8.4,1.3l-4.2,2.6l0.9,6l2.1,3.8l6.2,4l12.8,2.1l7.9,1.9l5.2-0.1
		l1,2.1l-0.7,5.4l3.3,4.9l1.4,3.7l0.4-0.3l1.3,3.1l-0.4,5.8l-3.7,8.2l-4.4,3.6l-0.4,8.8l2,6l4.8,7.2l-0.9,1.1l-0.4,2l-1.8,1
		l-0.9-1.6l-2.4,1.6l2.5,8.3l4.6,5.7l1.6,2.6l2.9-0.3l4.5-3.9l5.5,1.9l2.2,5l6.3,5.2l4.1,2.2l0.7-2.6l-5.5-7.6l0.3-1.7l3.2,0.4
		l0.5-1.5l-5.4-13.4l1.4-2.1l-0.9-2.9l-3.2-2.5l-1.6-9.1l0.7-1.2l-0.9-1.6l6.4-8l4.9-8.3l5.1-4.9l1.6-0.9l0.4-0.9l-2-2.5l0.7-1.5
		l-1.3-1.8l1-1.4l-2-2.3l-2.4,0.4l-0.2-0.9l1.6-1l0.1-1.8l1.8-0.7l4.8,0.4l5-5.9l2.2-5.5l2.9-4.1l0.3-3.2l1.1-1.7l0.7-5.4l2.6-3.9
		l0.4-3l-1.5-1.7l-7.4,2.6l-2.3-2.6l0.5-1.1l3.1,0.2l0.9-2.1l-4.9-0.7l-3.5-0.9l-8.7,0.3l-2-2l1.1-1.5l-0.6-3.3l0.8-0.3l-0.4-0.6
		l-1.2,0.2l-0.1-1.1L221.9,40.9z"/>
	<g>
		<text transform="matrix(1 0 0 1 167.5957 46.486)" class="st1 st2">Muladi</text>
	</g>
	<g>
		<text transform="matrix(1 0 0 1 152.1165 150.1001)" class="st1 st2">Babuganj</text>
	</g>
	<g id="dist-gopalganj-1_2_">
		<g>
			<circle class="st3" cx="208" cy="65.2" r="13.4"/>
			<text transform="matrix(1 0 0 1 202.0381 72.4919)" class="st1 st4">3</text>
		</g>
	</g>
</g>
<g id="barishal-4">
	<polygon class="st7" points="255.7,99.1 250,96.6 245.9,96.4 242.9,97.9 242.9,102.6 240.3,103.9 235.1,103.2 231.7,105.4 229,104 
		229.6,103.1 227.6,100.6 228.4,99.1 227,97.3 228,95.9 226,93.6 223.6,94 223.4,93.1 225.1,92.2 225.1,90.4 226.9,89.6 231.8,90.1 
		236.7,84.2 239,78.7 241.8,74.6 242.2,71.3 243.2,69.6 243.9,64.2 246.5,60.3 246.9,57.3 245.5,55.6 238,58.3 235.6,55.6 
		236.2,54.5 239.3,54.7 240.2,52.7 235.4,51.9 231.8,51.1 223,51.3 221,49.3 222.1,47.8 221.4,44.4 225.4,43.9 232.3,41.5 
		237.8,41.2 244.1,37.2 245,34 243.7,26.3 242.6,19 242.9,15.2 245.7,10.5 251.3,8.2 262.9,6.1 266.5,3.9 269.2,4.5 278.7,1.7 
		294.9,2.5 296,7.7 302.2,12 309.8,20.4 320,29.2 322.9,31.2 325,35.5 330.4,41.4 334.2,47.3 338.6,48.9 346.1,50 355.6,60.9 
		358.1,63.1 361.4,70.5 366.8,81.1 369.6,85.6 379.5,94.4 381.2,98.5 387.3,110.8 390,117.1 391.6,125.8 392,131.9 391,133.5 
		386.7,132.9 378.1,131.2 371,128.7 371.9,125.7 371.6,124.4 366.7,122.1 363.9,119.2 361.8,119.6 360.8,118.4 361.9,114.6 
		361.1,108.8 358.5,103.2 357.5,97.7 353.7,91.7 352.2,93.3 352.2,95.2 349.6,98.3 342.7,101.8 339.8,106.4 340.6,113.1 340,116.8 
		337.3,121.7 337.4,123.7 335.7,125.8 330.7,124.7 323.3,122.1 320.7,123.3 321,126.3 319.8,127 316,126.8 311.2,124.3 308.1,119.4 
		303.2,117.1 299,116.2 298.5,111.4 297.3,111.4 294,115 287.7,117.5 287,119.5 287.8,120.8 282.5,123.6 275.8,124.1 274.9,122.8 
		273.5,124 270.3,124 267.4,119.7 273.9,113.3 271.6,110.8 275.1,105.6 273.5,103.2 269.3,102.6 266,100.6 262.5,101 257.9,100.1 	
		"/>
	<path class="st7" d="M371.2,128.6h-2.8l-2.3,3.1l0.6,1.7l-2.4,2.4l-0.3,2.6l-3.4,3.9l-2.2-0.6l-0.5,2.7l-3.4,2.7l-4.6,0.4l-2,4.7
		l-6.9,0.6l-5.9,1.4l-3,4.4l-4.6,4.5l-4.3,1.4l-4.2,0.3l-0.2,2.8l2.1,0.8l-1.6,4.3l-2.7,2.7l-6.3,0.5l-2.5,4.3l-0.9,4.4l0.1,6
		l3.8,8.2l2.5,3l0.9,6.2l-0.2,8.8l-10,18.8l-1.4,1.4l-1.4-0.2l-0.9-1.6l-3-0.4l-1.2,2l-2.3,0.7l-3.9-0.3l-0.1,1.5l-2.3-0.3l-1-1.5
		L283,236l-2.8-1l-1.4,2l-3.2-0.1l-1.4-0.5l-7.2-0.3v-4.5l-5.2-4.6l-3.8-5.1l-2.5-8.2l1.3-1.8l5.2-2.8l-3.4-6.5l-1.1-3.2l0.8-4.7
		l4.7-1l-1.4-6.5l1-5l-4.2-0.2l-0.5,8.4l-2.9,0.3l-9.2-1l-0.8-3.9l-1.1-0.7l1.1-1.7l-2.2-1.1l1.4-4c0,0-5.6,0-5.8,0
		s-8.5-1.4-8.7-1.4s-8.1-4.7-8-4.7s0.8-2.7,0.8-2.7l-5.4-7.6l0.3-1.7l3.2,0.4l0.5-1.4l-4.2-10.5l-1.2-3l1.4-2.1l-0.9-2.8l-3.2-2.6
		l-1.6-9.1l0.7-1.2l-0.9-1.7l6.4-8c0,0,5-8.4,5.1-8.5c0.1,0,5-4.8,5-4.8l1.5-1l2.6,1.4l3.5-2.2l5.2,0.7l2.5-1.3v-4.7l3-1.5l4,0.2
		l8,3.6l4.5,0.9l3.5-0.4l3.3,2l4.2,0.5l1.6,2.4l-3.5,5.3l2.2,2.5l-6.5,6.4l2.9,4.4h3.2l1.4-1.3l0.9,1.3l6.8-0.5l5.2-2.8l-0.7-1.3
		l0.7-2l6.3-2.6l3.3-3.6h1.2l0.5,4.8l4.2,1l4.9,2.3l3.2,4.9l4.7,2.5l3.8,0.2l1.2-0.7l-0.3-3l2.6-1.2l7.4,2.6l5,1.2l1.7-2.1l-0.2-1.9
		l2.8-5.1l0.6-3.6l-0.8-6.7l2.9-4.6l6.9-3.4l2.6-3.1l-0.1-1.9l1.5-1.6l3.8,6l1,5.6l2.7,5.5l0.7,5.7l-1,3.8l1,1.2l2.1-0.4l2.8,2.9
		l4.8,2.2l0.4,1.5l-0.9,2.6L371.2,128.6z"/>
	<g>
		<text transform="matrix(1 0 0 1 269.3458 53.4027)" class="st1 st2">Hizla</text>
	</g>
	<g>
		<text transform="matrix(1 0 0 1 239.9916 146.361)" class="st1 st2">Mehendiganj</text>
	</g>
	<g id="dist-gopalganj-1_1_">
		<g>
			<circle class="st3" cx="307" cy="72.7" r="13.4"/>
			<text transform="matrix(1 0 0 1 301.0381 79.9919)" class="st1 st4">4</text>
		</g>
	</g>
</g>
<g id="barishal-5">
	<polygon class="st8" points="289.7,251.4 289.3,259.7 287.9,265.3 288.6,276.6 287.8,278.6 281.4,277.9 266.6,269.1 264.8,265.5 
		260.7,265.3 260.3,264.4 261.8,257.6 261.2,255.8 257.6,255.7 253.8,257.2 248,259.5 246,259.7 243.8,257.1 245.7,254.7 
		245.4,252.4 243,249.6 238.1,248.6 237.6,249.8 237.6,256.5 237.8,258.9 236.8,261 234.5,260.5 232.2,255.7 225.4,250.2 
		221.3,246.5 219.1,246.4 218,249.1 216.7,255.7 217.1,259.2 219.5,266 217.5,267.6 212.7,265.6 210.3,265.2 210.2,263.5 
		209.1,263.4 204.8,268.3 202.6,270.1 201.1,269.7 202.8,265.1 202.2,260.4 199.1,257.9 192.2,258.8 187.4,257.7 183.6,254 
		180.6,252.6 175.1,252.5 174.7,254.8 176.6,260.5 175.3,262.3 172.5,260.6 169.4,253.6 170.1,251.5 172.1,251.3 172.8,249.5 
		173.5,245 164.1,239.1 160.7,237.4 155.7,240.8 148,236.4 147.6,223.1 145.7,219.9 146.2,218.6 148.1,217.9 149.1,215.8 146.9,208 
		150.2,206.1 151,203.4 152.9,203.7 154.2,202.9 155,203.8 156.2,203 155.8,201.5 158.8,199.6 160.5,201.2 162.3,199.5 162.6,197.1 
		165.2,197.1 165.7,192.9 170.7,189.3 172.3,191.2 175.1,190.3 175.2,186.3 177.2,185.9 180,187.5 184.6,188.2 190.7,188.4 
		194.5,191.8 197.6,194.5 198.3,197.4 200.2,197.5 202.5,193.7 205.5,185.3 203.2,180.4 200.7,176 198.9,173.2 197.6,168.6 
		194.8,163.9 195.2,162.5 196.5,161.9 199.1,161.6 203.6,157.8 209.2,159.6 211.4,164.6 217.6,169.8 221.8,172.1 229.6,176.8 
		238.3,178.3 244.1,178.2 242.8,182.2 244.8,183.4 243.8,185.1 244.9,185.8 245.7,189.6 254.9,190.7 257.7,190.4 258.3,181.9 
		262.5,182.2 261.5,187.2 262.9,193.6 258.2,194.8 257.4,199.5 258.5,202.6 261.8,209.1 256.6,211.9 255.4,213.7 257.9,222 
		261.7,227.1 267,231.7 267,236.1 274.1,236.4 275.5,236.9 278.7,237 280.1,235 286.9,237 287.3,237.7 287.4,240.3 289.3,247 	"/>
	<g>
		<text transform="matrix(1 0 0 1 168.2416 227.986)" class="st1 st2">Barisal</text>
	</g>
	<g id="dist-gopalganj-1_4_">
		<g>
			<circle class="st3" cx="231.8" cy="211.3" r="13.4"/>
			<text transform="matrix(1 0 0 1 225.7881 218.5752)" class="st1 st4">5</text>
		</g>
	</g>
</g>
<g id="barishal-6">
	<path class="st9" d="M294,301c0-0.2,2.3-7.5,2.3-7.5l6.6,0.3l0.9-2.7l-10.7-9.7l-5.4-2.8l-6.3-0.6l-14.8-8.9l-1.8-3.6l-4.1-0.2
		l-0.4-1l1.6-6.8l-0.7-1.8l-3.5-0.1l-9.6,3.8l-2.1,0.2l-2.1-2.6l1.8-2.5l-0.2-2.2l-2.5-2.7l-4.9-1l-0.5,1.2v6.7l0.1,2.4l-1,2.1
		l-2.4-0.4l-2.3-4.9l-10.9-9.2l-2.2-0.1l-1.1,2.8l-1.3,6.6l0.4,3.5l2.5,6.7l-2,1.6l-4.9-2l-2.3-0.3l-0.2-1.8h-1.1l-4.2,4.9l-2.3,1.7
		l-1.1-0.3l-1,2.5h-1.9l-4.7-3.4l-2.3-0.4l-4.8,5.6l0.8,1.3l4-0.3l3.4,1.7l4.1,3.9l2.4,0.4l5.8,4.3l0.5,1l0.9,4l0.5,1.3l-0.3,2.6
		l-2.7,1.1l-5.8-3.3l-3-2l-3.2-4.4l-3.3-2.4l-3.3-0.1l-1.5,2.7l-1.3-0.1L184,287l0.4,1.2l2.4,0.2l4.3,2.9l5.4,8.3l0.6,3.6l-2.9,1.9
		l-3.5,4.8l-1.1,1.4l-0.8-0.3l0.1-4l-0.6-1.8l-3.4,0.3l-4.5-4.2l-2.5-0.3l-4.1,1.6l-1.6,2.1l0.2,1.3l-1.2,0.3l-2.6-2.8L167,305
		l0.1,4.6l-2,3.6v2l-1.9,0.6l-2.6-3.6l-3-1l-4.9,1.3l-3.6,2.6l0.6,2.2l2.4,0.3l-0.5,6.6c0,0-2.1,1.7-2,1.7c0-0.1-1.7-1.7-1.7-1.7
		l-2.2,1.4l-3.1,3.4l-0.9,2.5l-6,5.6l-5.2,0.9l-1.5,0.8l-5.6,6.2l-2.3,0.9l-8.4,2.1l-5.3,5.8l-4.5,7.5l-1.8,2.7l1.7,0.4l4.9-0.4
		l1,1.6l1-0.1l0.9-0.6l2,0.6l1.1,1h2.3l0.1-1.8l1.7,0.5l5.6-4.7l2.9-0.5l4.8-0.4l1.3,0.8l-1.1,1.7l-0.1,2.9l-1.8,1.8l-4.5,4.7
		l0.9,5.9h2.6l6.2-2.3l3-1.9l4,1.1l2.8-1.9l1.9-3.6l3.2-3.1l1.3,0.1l-1.1,2.3l1.7,0.2l0.9-2.6l0.9,0.2l0.2,2.8h6.2l1-3.2l2.1-1.1
		l1.9,1.3l3.1-0.1l0.9-3.4l2.2-1.3l2.1,0.2l3.1,2.5l-1.3,1.1l4.8,5.3l3.2,0.3l3.7-3.1v-2.1l3.9-3.4l0.8-1.9l2.4-1.5l-0.1-2l1.6-0.1
		l1-1.3l0.1-3.8l2.9-2l4,2.7l6.9,5.8l2.1,1.1l9.5,2.2l4,2.5l4.6,5.3l2.3,5.1l1.3-0.2l2.3-2.3l2.8-5.6l3-6.5v-2.6l-2.3-5.8l0.6-3.8
		l3.7-8l4.3-6.1l2.5-3.6l3.4-0.1l2.4,2.4l5.7-0.3l5.7-2.5l2.6-1.6l3.9-4.9l2.2,0.5l1.2,1.9l0.3,5.8l2.1,0.8l3.7-1.1l1.4-3.5l4.1-3.7
		l1.8-1.5l0.3-1.5l-4.2-1.7l-3.7,0.2l-1.1-2.5l2.1-1.8l4.3,0.3l2-0.3l6.6-3.1l1.9-1.3v-4.4l-2.9-2.6L294,301z"/>
	<g>
		<text transform="matrix(1 0 0 1 190.1583 327.111)" class="st1 st2">Bakerganj</text>
	</g>
	<g id="dist-gopalganj-1_5_">
		<g>
			<circle class="st3" cx="239.8" cy="283.1" r="13.4"/>
			<text transform="matrix(1 0 0 1 233.7881 290.3252)" class="st1 st4">6</text>
		</g>
	</g>
</g>
</svg>
