<?xml version="1.0" encoding="utf-8"?>
<!-- Generator: Adobe Illustrator 25.2.1, SVG Export Plug-In . SVG Version: 6.00 Build 0)  -->
<svg version="1.1" id="Layer_1" xmlns="http://www.w3.org/2000/svg" xmlns:xlink="http://www.w3.org/1999/xlink" x="0px" y="0px"
	 viewBox="0 0 400 530" style="enable-background:new 0 0 400 530;" xml:space="preserve">
<style type="text/css">
	.st0{fill:#ABBEED;stroke:#FFFFFF;stroke-width:0.5;stroke-miterlimit:10;}
	.st1{font-family:'TimesNewRomanPSMT';}
	.st2{font-size:16px;}
	.st3{fill:#FFFFFF;}
	.st4{font-size:24.672px;}
	.st5{fill:#8BAFE8;stroke:#FFFFFF;stroke-width:0.5;stroke-miterlimit:10;}
</style>
<g id="jhalokathi-2">
	<path class="st0" d="M87.8,157.3l3.6-2.9l2.3,1.3l5.7-0.6l3.9-2.8l0.2-1.7l6.2-3.7l11-5.2l8.5-2.8h4.6l0.9-2.1l-0.2-2.7l1.6-0.1
		l2.5-2.7l-0.7-1.7l1.1-6l2.2-0.6l0.5-3.3l2-1.2l2.2-3.4l1.6-11.1l5.1-1.9l1.1-6.4l1.3-2l-1.5-4.7l1.6-1.7l1.1-3.3l3.8-0.4l0.4-2.9
		l2-0.4L163,75l8.3-1.8l1.3-2.6l6.1-2.8l0.6-3l3.2-3.4l4.7-0.6l1.7-2.7l0.2-3.1l-1.5-1.1l-4.6-0.4l-3.7-3.2l-1.1-3.5l-2.1-1l0.2-2.3
		l-2.5-3.7l2.3-1.9l2.4,2.5l1.8-1.9l-1.4-1.5l1.6-1.4l1.7,1l2-2.6l1.5-4.1l-2-1.8l-3.9,0.1l1.2-4.8l-2-0.1l1-5.8l3.2-3l-0.5-2.6
		l1.6-2.1l1.7,2.3l2.9-0.7l1.8-1.7L187.9,7l3.6-2.4l2.4,2.8l1.2-0.8l1.5,1.8l3.5-1.1l0.4,2.6l2,1.7l0.2,4l3.8,2.7l-0.3,4.1l1.8,1
		l4.7-2.5l1.7,0.6l-1,3.6l4.1,2.4l3.2-2.5l1.2,0.8l0.9,3.9l-1.9,3.1l0.1,4.4l3,2l1.9-0.1l0.2,1l-1.4,1.3l1.1,1.7l12.7,2l2.1-2.3
		l3.6-0.2l2.1-1.8l4.4,1.8l9.6,1.3l3.1,1.9l3,6.4L271,57l1,3.4l-0.1,3.2l5.1,4.2l1.6,0.5l1.5,3.3l-0.4,4.7l2.1,5.3l-2.1,4.7
		l-3.7,1.4l-0.8,3l4.1,6.7l-5.6,3.6l-3.9-0.7l-5,2.4l-1.4-1.1l-2.8,3.8l-2.9-3.9l-1.8,1.8l1.1,1.3l-1.1,1.5l-10.7,0.1l-5.5,0.5
		l-2.1,8.2l-2.9,2.8l-1.1,6.8v4.7l3.6,0.7l2.9,5.1l-1.9,2l-1.1,8.6l-1.7,3.2l-3.3,1.5l-4.7,6.3l-1.3,7.8l-4.2,2.3l-1.8,8.6l-2.2-0.1
		l-0.1,2.7l-1.4,1.4l0.1,3l1.8,0.7l2.2,5.9l-0.6,2.4l-2.1,3.1l1.3,2.2l-1.3,1.5h-1.7l-1.1,3.7l2.3,4.1l-1.1,3.5l3.4,2.7l0.1,3.6
		l-3,1.8L216,222l-2,3.1l1,9l-2.7,9.3l-4.2,1.2l-3.6,2.9l-1.9,0.2l-0.7-6.3l-1.9-3l-9.1-4.7l-2.1-0.9l-3.4-4.6l-3.6,0.5l1.8,3.9
		l-4.9,1l-1-3.5l-3.6,0.7v2.1l-0.9,0.2l-3.6-2.9l-0.6-2.3l-4.2-3l-3.5,0.1l-1.3-2.4l3.5-7.2l0.4-7.4l-4.9-0.9l-2.5-2.2l-2.5,0.2
		l-1.7,2.6l-4.6-2.5l-2.8,2.4l-5.1-0.6l-1.3,2.6l-4.4-1.1l-1.9-2.8l1.5-7.5l-2.4-5.5l0.2-4.7l-6.2-0.1l-0.6,2.5l-2.5,1.3l-0.1,1.7
		l2.4,2.8l-2.2,6.5l-2,2.6l-4.8,0.4l-3.4-2.9l-3,0.3l-1.2,4.1l1,3.6l-1,1.5l-5.1-2.2l-3.4-5.9l1.3-1.7l-2.5-7.3l-5.2-2.1l-1.1-4.6
		l1.9-3.5l-0.3-7.3l-1.6-1.3l-3.5,0.3l-0.9-8.9l0.7-1.7l3.4-4.8l-1.1-3l-1.9-0.1L87.8,157.3z"/>
	<path class="st0" d="M277.6,98.7l1,7.1c0,0,0.6,16.3,0.4,16.3c-0.1,0,8.6,5.3,8.6,5.3l6,3.8l7.9-6.6l2.9-1.4l5.7,4.9l3.5,0.7
		l11,6.5l4.1,3.9l-1.6,4.2l0.2,4.6l-2,3.9H321l0.4,4.9l3.2,9.5l4.4,6.1l3.2,0.7l1.1-1.6l-1.3-8.8l-1.8-2.7l1.4-7.2l11.4,1.1
		l10.6,6.1l1.4,3.4h3.9l3.9,1.8l10.5-1.4l8.3,1.7l3.5,5l0.6,6l-1.9,4.3l0.4,2.2l-3.6,6.5l-8.3-3.2l-7.9-5.1l-2.3,1.4l-3.6,5.7
		l-3.9,4.1l-0.3,2.5l10.4-0.5l4.2,2.8l4.4,1.5l5.7,6.4l3.4,0.5l6.5,4.4l6.1,4.9l1.9,7.6l1.1,7l-1.8,3.3l-4.4,1l-9.2-4.3l-6.9-5.3
		l-9.6-11.2l-6.4-2.4l-3.2,0.2l-3.9,4.6l-3.1,1.9l0.5,2.8l6.7,1.1l6,4l5.1,7.6l3.7,4.5l4.1,8.9l-1.2,4.3l-3,1.4l-9.6,11.2l-2.1,1.5
		l-0.9-1.9l-0.2-6.2l-0.7-2.6l-2-1.2l-4.1,1.7l-3.3-1.8l-3.6-5.5c0,0-5.8-1.1-5.9-1.1s-5.8,1.3-5.8,1.3l-4.2,3.4l-2.5,4.3l-2.8-0.2
		l-3.9-4.1h-1.5l-0.9,2.9v8.1l-5.5,10.9l-1.5,1l-2.7-0.9l-4.1-5.4l-5.6-1.1l-8.6,2.8l-4.9,3.3l-1,3.4l2,2.1l3.5,0.5l-1.2,8.8
		l-0.9,4.4l-3.1,2.7l-2.7-0.7l-1.7-2l-5,4l-5.8,8.4l-9,9.3l-4.9,4l-4.9,0.1l-5.7,1.7l-6.4,4.9l-5.5,6.8l-5.4,2.5l-6.9,2l-7.4,2.4
		l-4.5,3.1l-2.6,3.6l-2.5,6.5l-1.6-1l1.5-10.6l3.3-11.5l2.1-6.1l-1.3-3l-6.8-1.4l-7.7-0.7l-5.3-1.5l-1.6-5.1l1.3-12.5l4.1-16
		l6.4-15.6l3-12.8l2.6-5.6l1.9-0.1l3.5-2.8l4.2-1.3l2.8-9.4l-0.9-8.9l1.9-3.2l0.5-4.1l3-1.8l-0.2-3.6l-3.5-2.7l1.1-3.5l-2.3-4.1
		l1.1-3.8h1.6l1.5-1.5l-1.3-2.2l2.2-3.1l0.6-2.4l-2.2-5.9l-1.8-0.7l-0.1-3l1.4-1.5l0.2-2.6h2.2l1.8-8.5l4.2-2.3l1.4-7.9l4.7-6.4
		l3.3-1.4l1.8-3.3l1.1-8.5l1.8-2.1l-2.9-5.2l-3.3-0.6l-0.2-4.9l1.1-6.8l2.8-2.7l2.3-8.2l5.7-0.4h10.4l1.1-1.6l-1.1-1.2l1.7-1.7
		l3,3.9l2.7-3.8l1.4,1.1l5-2.5l3.9,0.8l4-2.6L277.6,98.7z"/>
	<g>
		<text transform="matrix(1 0 0 1 157.6411 149.0088)" class="st1 st2">Jhalakathi</text>
	</g>
	<g>
		<text transform="matrix(1 0 0 1 256.1465 221.0557)" class="st1 st2">Nalchity</text>
	</g>
	<g id="dist-gopalganj-1_4_">
		<g>
			<circle class="st3" cx="286.8" cy="186.5" r="13.4"/>
			<text transform="matrix(1 0 0 1 280.7881 193.7419)" class="st1 st4">2</text>
		</g>
	</g>
</g>
<g id="jhalokathi-1">
	<path class="st5" d="M102.9,210l-3.1,3.9l0.3,1l-7.8,13.7l-6.9,4.2l-14.1,3.5l-6.5,0.1l-7.2-6.4l-3.4-2.1c0,0-2.3,2.4-2.2,2.5
		s-1.8,9.8-1.8,9.8l-5.1,5.6l0.1,2.2l4.2,4.4l0.8,7.5l-0.7,6l1.1,4.5l2.9,5.3l2.3,2.8l-0.7,10.9l0.4,6.1l-1.4,4.6l4.1,7l-2.9,1.3
		l0.2,6.1l0.9,3.7l-0.9,2.2l1,2.9l-1.8,4.1l-4.3,6.5v1.5l3.4-1.4l5.6-5.6h2.2l3,5.2l-1.7,3.5l-4,3.3l1.5,2.8l3.5-0.2l1,1.2l-0.4,0.9
		l1.7,1.2l2.1-1l1.3,3.2l-2,0.4l0.8,7.6l2.9-1.7l4.9,0.1l1.4-3.9h2.2l0.5-2.3l-1.8-1.9l2.3-1.9l3.9,1.1l1.4-2l4.5,2.1l2.9-4.1l5,4
		l2.4,0.3l1.7,2.6l2.4-0.2l3.2-2.4l-2.2-5.1l5.7-4.4l2.8,3.2l1.2-0.9l2.8,2.8l-1.3,2.5l0.9,6.7l4.1,0.3l7.1-4.1l0.8-3.6l10.1-11
		l4.7-4.1l3.7-2.1l1.7,2.4l0.4,2.9l3.3,0.8l4.1,5.6l4.1,0.7l0.6-3.3l2.7-0.2l4,3.9l1.9,0.1l1.1,2.7l-1.8,4.8l3.8,1.7l5.4,1.6
		l3.9,6.9l4.8,6.7l2.5,1.2l4.2-5.4l5.2-9.7l1-0.3l1.5-10.4l5.4-17.5l-1.4-3l-6.9-1.4l-7.7-0.6l-5.3-1.5l-1.6-5l1.3-12.5l4.1-16.1
		l6.4-15.6l3-12.7l2.6-5.5l-0.8-6.2l-2-3.1l-11-5.5l-3.4-4.6l-3.4,0.6l1.7,3.8l-4.9,1l-1.1-3.5l-3.5,0.7l-0.1,2l-0.9,0.3l-3.6-2.9
		l-0.7-2.4l-4.2-3l-3.5,0.1l-1.2-2.3l3.4-7.3l0.4-7.4l-4.8-0.9l-2.6-2.2l-2.5,0.2l-1.7,2.6l-4.7-2.5l-2.7,2.4l-5-0.6l-1.3,2.6
		l-4.4-1l-2-2.9l1.6-7.4l-2.5-5.8l0.3-4.6h-6.2l-0.8,2.5l-2.4,1.4l-0.1,1.6l2.4,2.8l-2.1,6.5l-2,2.6l-4.7,0.4l-3.5-2.9l-3,0.4
		l-1.2,4l1,3.6l-1,1.5L102.9,210z"/>
	<path class="st5" d="M188.5,363.6l-8.1,10.7l-3.8,9.7l-0.8,6.4l0.3,8l1.1,10.1l-1.5,6.6l-6.3,5l-19.8,16.5c0,0-13.3,13.5-13.4,13.5
		c-0.1,0-8.5,11-8.5,11l-12.6,21.3l-6.3,12.6l-5.2,4.3l-8.8,6.1l-9,10.6l-1,2.6l-2.7,1l-3.2-1.9l-8.5-6.9l-2.1,0.9L65,518l-3.5,4.3
		l-3.3,0.4l-5.3-2.2l-3.8,1.3l-5.8,5.6l-3-0.1l-0.8-3c0,0,3-8.8,3.1-8.8s2.2-9.6,2.2-9.6l-4.7-4.2l-4,0.8l-3-2l0.1-3l-4.8-4.2
		l-4.9-9.1l-1.3,0.2l0.1,13l-0.9,1.4l-2.3-0.9l-0.3-2.2l-2.4-2.8l-6.8-0.4l-1.4-1.3L5,489.5l-1-4.4l4.7-12.9l0.4-2.6L8,463.2
		l3.2-1.2l-0.6-1.7l2-0.9l0.9,1.6l5.1-0.6l4-3.9l2.5-0.4l2.4-3.1l-4-2.6l-3.1-5.5l0.4-4.3l-1.6-3l-0.2-3.7l-2.6-0.2l-2.4-3.8
		l1.7-1.5l-3-4.9l2.6-4l2-6.7l-1.1-5l-3.4-3.6l10.2-6l1.3,0.8l1.1,3.7l4.4,0.3l5.4,1.8h5.1l3.6,2.3l3.4-0.4l3.1-2.1l0.6-7.8
		l-4.8-4.1l0.6-8.3l2.4-0.9h2.2L54,379l1.2,3.4l1.2,0.9l-0.7,2.1l-1.2,0.4l0.1,2c0,0,4.4,1.4,4.3,1.4c-0.1,0.1-0.3,4.7-0.3,4.7
		l8.1,1l0.1,2.2l-0.6,2.4v4l3,3l0.2,1.8l3.5,1.7l1.7-0.8l0.6-3.4l8.4,0.3L84,403l7.3-0.8l3.6,2l4.4-8.8l1.4-7.2l-1.2-5.4h2.2
		l1.1,3.3l3.7,0.2l5.6-5.3l6.2-4.9l3.2-3.9l0.2-6.3l4.2-3.7l0.8-3.3l2.9-0.7l-0.2-4.4l-3.4-4.4l3.1-1.8l0.8-3.7l10.2-11l4.6-3.9
		l3.8-2.2l1.7,2.4l0.3,2.8l3.4,0.9l4,5.6l4,0.7l0.6-3.2l2.7-0.2l3.9,3.9l1.9,0.1l1.1,2.7l-1.7,4.8l3.8,1.8l5.3,1.6l3.9,6.8l4.5,6.4
		L188.5,363.6z"/>
	<g>
		<text transform="matrix(1 0 0 1 93.3325 306.5918)" class="st1 st2">Rajapur</text>
	</g>
	<g>
		<text transform="matrix(1 0 0 1 88.5171 425.3105)" class="st1 st2">Kanthalia</text>
	</g>
	<g id="dist-gopalganj-1_1_">
		<g>
			<circle class="st3" cx="127.3" cy="269.5" r="13.4"/>
			<text transform="matrix(1 0 0 1 121.2881 276.7419)" class="st1 st4">1</text>
		</g>
	</g>
</g>
</svg>
