<?xml version="1.0" encoding="utf-8"?>
<!-- Generator: Adobe Illustrator 25.2.1, SVG Export Plug-In . SVG Version: 6.00 Build 0)  -->
<svg version="1.1" id="Layer_1" xmlns="http://www.w3.org/2000/svg" xmlns:xlink="http://www.w3.org/1999/xlink" x="0px" y="0px"
	 viewBox="0 0 386 528" style="enable-background:new 0 0 386 528;" xml:space="preserve">
<style type="text/css">
	.st0{fill:#ABBEED;stroke:#FFFFFF;stroke-width:0.5;stroke-miterlimit:10;}
	.st1{font-family:'TimesNewRomanPSMT';}
	.st2{font-size:16px;}
	.st3{fill:#FFFFFF;}
	.st4{font-size:24.672px;}
	.st5{fill:#C5CFED;stroke:#FFFFFF;stroke-width:1.033;}
	.st6{fill:#9BB6EA;stroke:#FFFFFF;stroke-width:0.5;stroke-miterlimit:10;}
	.st7{fill:#7CA7E5;stroke:#FFFFFF;stroke-width:0.5;stroke-miterlimit:10;}
	.st8{fill:#8BAFE8;stroke:#FFFFFF;stroke-width:0.5;stroke-miterlimit:10;}
	.st9{fill:#6B97D6;stroke:#FFFFFF;stroke-width:0.5;stroke-miterlimit:10;}
	.st10{fill:#A0C4EF;stroke:#FFFFFF;stroke-width:0.5;stroke-miterlimit:10;}
	.st11{fill:#8BAAD8;stroke:#FFFFFF;stroke-width:0.5;stroke-miterlimit:10;}
	.st12{fill:#A5BEDB;stroke:#FFFFFF;stroke-width:0.5;stroke-miterlimit:10;}
	.st13{fill:#6899E0;stroke:#FFFFFF;stroke-width:0.5;stroke-miterlimit:10;}
	.st14{fill:#D0D6EC;stroke:#FFFFFF;stroke-width:1.033;}
</style>
<g id="mymensingh-1">
	<polygon class="st0" points="99.8,39.8 102.6,38.7 101.4,34.7 102,33.3 99.6,32.5 98.2,28.6 99,27.4 97.2,26 97.6,20.5 99.2,16.2 
		98.8,9.1 99.4,7.1 103.2,6.5 106.1,8.1 109.9,8.1 121.7,11.8 124.7,9.8 128.8,9.8 131.2,9.1 134.7,10.6 137.5,14.8 142.4,19.1 
		149.7,23.7 153.7,26.4 161.6,26.6 164.7,27.6 169.5,27.2 175.2,32.1 178.2,32.7 181.9,33.9 188,35.5 190.8,35.5 191.4,31.7 
		197.3,30.4 195.9,36.3 190.8,36.7 188.2,40.2 183.9,39.8 182.1,42.4 182.1,44.2 180.3,44.4 178.9,42.6 177.2,44 174.8,43.2 
		173.6,43.6 173.2,45.8 170.3,45.6 168.5,46.9 170.3,49.7 175.8,51.9 182.1,51.7 183.3,52.9 184.2,54.5 187.7,55.1 190,58.1 
		188.5,63 186.9,63.6 184.8,67.3 181.1,69 179.4,72.1 182.4,74.3 182.3,76 183.5,76 186,74.3 187.8,76.4 189.4,76.7 195.9,85.8 
		195,91.2 196.8,92 198.7,91.2 200.6,91.4 201.5,93.6 203.8,92.5 205.5,94 203.4,96.5 205.5,98.8 205.1,100.1 208.9,102.2 
		207.5,105.6 208.9,108.4 207.4,110.7 204.9,108.9 203.3,106.3 201,108.5 196.5,109 193.6,107.6 190.6,105.2 189.7,106.8 
		191.4,108.5 191.7,110.5 190.7,112.3 187.7,110.6 185.1,111.7 183.2,110.8 181.6,112.1 183.9,116.7 181.2,116.9 180,115.7 
		178.2,115.3 176.2,117.2 175.8,118.6 176.1,120.1 175.3,120.6 172.3,117.9 171.1,119.2 171.1,120.8 169.8,121.4 164.7,118.3 
		162.3,114.3 163.5,112.6 163.4,110.3 160.8,109.6 157.2,109.8 155.7,107.5 154.7,108.2 154.7,110.4 153.7,111.3 152.2,110.2 
		150.6,110.6 150.5,112.3 149.2,112.6 147.9,112.3 146,114.6 146.2,116.4 145,117.3 141.2,118.2 137.5,118.1 136.8,117.1 
		139.1,115.6 138,113.3 135.6,115.8 134.3,115.8 133.6,114.8 135.1,113.3 134.4,112 132.6,112.2 130.2,114.4 128.6,113.5 
		127.3,115.3 124.4,114.7 123.3,113.4 123.6,111.4 121.6,110.4 120.8,111.2 117.1,111.2 116.5,109.5 117.8,108.8 116.6,105 
		115.1,106.3 113.9,105.4 112.7,106 113.3,107.7 112.5,108.4 109.2,106.1 109.7,102.6 108.7,101.8 104.9,106.7 105.1,107.2 
		102.8,109.3 99.6,107 92.1,106.6 89.7,108.2 86.3,106.3 86.4,102.7 83.8,101.3 83.7,99.2 85.2,98.4 84.7,93 83.3,90.4 86.2,86.7 
		85.5,85.3 86.7,84.9 88.5,86.2 90.1,85.8 92,82.7 91.2,81.3 92.2,79.8 93.3,80.3 95.6,78.6 96.9,79.7 96.8,81.6 97.6,84.5 99,86.2 
		101.3,84.7 102.9,85 105,82.3 107.3,83.1 108.4,81.7 107.9,80.1 110,77.6 109.9,75.7 108.3,74.1 109.2,71.6 112.1,72.2 113.9,72.3 
		115.2,70.4 119.3,71.6 119.4,67.8 116.7,67.6 115.3,65 113.8,67.2 111.2,69.2 109.7,70.4 108.5,68.7 106.4,63.7 102.8,63.2 
		101.4,62.1 98.1,61.7 97,57 97.4,55.4 98.7,54.3 98.2,51.6 98.6,45.3 	"/>
	<polygon class="st0" points="197.3,30.4 198.4,27.4 199.9,27.5 201.4,26.5 207.6,24.1 213.7,20.4 215.9,19.1 216.5,17.5 
		218.5,17.2 221.4,19 222.1,18.3 221.5,15.8 222.5,15.6 225.9,17.4 230.6,16.1 234.1,16.7 236.5,15.7 242.1,15.8 243.1,17 
		248.9,16.9 250.4,15.9 252.6,16.2 253.1,17.1 255.1,16.9 255.7,15.9 261.7,15.7 263,14.8 265.2,14.8 266,15.7 268.8,15.4 
		271.3,13.3 273.2,15 273.4,24.8 274.2,25.9 272.5,29.2 272.8,30.8 272.5,32.8 269.4,34.3 269,35.4 271.7,38.9 272,42.4 270.6,43.9 
		268.6,43.7 268.4,45.4 269.8,46.5 267.6,48.6 267.6,50.4 267.9,52 266.3,53.4 266.9,54.8 269.1,55.2 268.9,56.3 265.4,60.1 
		266.7,61.8 260.6,67.9 261,69.2 262,69.1 264.2,71.6 264,73.1 262,74.2 261.7,76.3 262,77.9 261.3,80.2 260.6,81 261.2,82 
		262.5,81.8 263,80.1 265.4,78.5 264.3,76.6 267.9,73.5 270.1,74.5 271,77.7 270.9,78.3 269.7,79.3 269,78.4 268.4,78.7 268.9,80.4 
		271.1,80.8 273.2,84.3 272.1,85.8 269.4,85 268.8,86.1 271,87.5 268.6,91 268.4,94.4 269.2,94.9 271.1,95.6 270.4,96.4 268,96.4 
		268.6,97.7 270.9,98 270.4,100.4 267.7,99.6 264.4,99.6 263.6,98.3 263.3,96.5 262,96.2 261.5,98.2 259.8,100 257.1,99.1 
		255.7,97.3 252.1,95.3 249.8,96 245.4,94 246,91.2 245.9,90 242.5,90.2 241.1,94.6 240.3,96.6 238.6,96.6 235.8,94.3 234,95 
		233.3,96.9 233.8,98.9 235.6,100.4 239.5,100.1 241,101.6 240.1,106.4 238.4,107.8 235.5,107.5 231.9,103.6 229.6,98.5 228.7,98.3 
		226.9,101.4 225,101.3 224.4,98.6 223.4,98.6 223,101.9 222.9,104.5 221.6,105.5 220.3,104.4 220.5,98.7 217.4,99 215.1,99.8 
		214.8,101.9 214.2,102.8 208.8,102.2 205.1,100.1 205.4,98.8 203.4,96.5 205.5,94 203.8,92.5 201.6,93.6 200.6,91.3 198.7,91.2 
		196.8,92 195,91.2 195.9,85.8 189.4,76.7 187.8,76.4 186,74.3 183.5,76 182.3,76 182.4,74.2 179.5,72.1 181.1,69 184.8,67.3 
		186.9,63.6 188.5,63 190.1,58.1 187.7,55.1 184.2,54.5 183.3,52.8 182.1,51.6 175.8,51.9 170.3,49.8 168.5,46.9 170.3,45.6 
		173.2,45.8 173.6,43.6 174.8,43.2 177.2,44 179,42.6 180.3,44.4 182.1,44.2 182.1,42.4 183.9,39.9 188.2,40.3 190.8,36.7 
		195.9,36.3 197.2,30.8 	"/>
	<g>
		<text transform="matrix(1 0 0 1 116.3218 95.0342)" class="st1 st2">Haluaghat</text>
	</g>
	<g>
		<text transform="matrix(1 0 0 1 193.5 58.6875)" class="st1 st2">Dhobaura</text>
	</g>
	<g>
		<circle class="st3" cx="150" cy="62.5" r="13.4"/>
		<text transform="matrix(1 0 0 1 144.0414 69.7403)" class="st1 st4">1</text>
	</g>
</g>
<g id="mymensingh-2">
	<path class="st5" d="M214.8,101.8l3.1,1.9l0.8,1.3l-0.4,1.8l-2-0.1l-2.2,3.4l-0.6,1.5l0.4,1.5l0.9-0.2l3.9,0.1l0.2,1l-0.5,1.3
		l1.7,2.3l-0.2,2.3l-1,1.4l1.3,1.7l0.9-0.3l1.3-0.9l0.8,1l0.3,3.6l1.8-0.5l0.9,0.9l2.4-1.6l0.8,1.6l-3.3,2L225,132l0.1,2.5l-1.5,1.5
		v4l1.4,1.1l0.8,0.9v1.9l1.4,0.1l2-2.3l1.9-2.2l1.5,0.4l-0.2,1.7l-0.5,0.7l0.3,2.2l-2.1-0.1l0.1,1.7l4.6-0.1l2.6,1.8l0.9-1l1.5,1.1
		l0.1,2.3l-0.5,0.7l-2.6,0.1l-2.2,3.3l0.9,2.4l-1.2,2.1l0.7,1.5l1.2,0.4l0.2,1.4l1.4,1l0.3,2.5l-1.5,1.4l1,1.9l-2.3,1.5l-0.7,1.5
		l1,2.2l-1.1,0.7l-4.2-2.7l-4.7,0.2l-1,1.3l0.1,1.5l3,2.4l0.4,4l0.8,1.2l2.6,2l-0.1,1.4l-3.4,1.7l-1.1,2.7l1.1,3.3l3,0.3l0.4,2
		l-1.8,2.8l-3.2,2.5l0.7,1.3l2,0.1l1.8,2.1l3.8-0.1l2-0.5l1,1.2l-2.2,2.5l1.5,1.4l1.9-0.9l4.1,4.4l-0.1,1.6l1.7,2l-0.2,1.8l-3.2,3.3
		l-0.5,2.1l1.7,0.5l0.2,3.3l-0.5,3.7l-1.3,3.3l-2.3,0.8l-1.9-1.7l-4.1-1.2l-1.4,0.5l0.4,1.6l-1.4,3.1v1.6l1.3,0.7l1.1,3.5l-0.2,2.4
		l-0.2,4.5l-1.3,1.7h-2.3l-1.3-1.8l-1.4,1.3l-2.1,3.8l-1.4,0.9l-2.2-0.2c0,0-1.8-2.3-1.7-2.3s3.2-4.2,3.2-4.2l-1-1.8l-1.1-2.9
		l0.6-1.9l-4.3-4.7l-2.2,2l-8.8-6.2l-1.7-0.3l-1,0.6l-3.1-3.4l-2.7-0.8h-2.1l-8.3-9.6l-5.4-3.3l-3.9-1.3l-5.5-3.8l-3.5,0.3l-3-2.5
		l-3.2-0.3l-2.2,2.8l-1.6-0.7l-2.9-3.3l2.2-3.6l-0.8-1.2l-1.6,0.3l-3.6-3.7l-2.2-0.2l-2.4,2.6l-5.4-4.5l1.2-2.2l-0.8-1.7l-2,3.8
		l-1-1.4l1-1.4l-1-1.6l1.2-1.6l-0.7-1l-1.4,0.4l-4.2-2.9l-1-2.9l-2.3-2.9l-2.9-0.1l-0.5,3.6l-1.7-0.6l-5.6-4.4l-2-4.4l-4.5-0.9
		l-13.9,0.9l-1.6-0.9l-3-3.6l-6.1,0.8l-1.8-1.9l0.1-2.2l1.9-2.5l0.6-6c0,0,1.7-3.8,1.8-3.8c0.1,0-0.2-2-0.2-2l-2.3-0.3l-0.5-1.6
		l-2.2-0.5l0.2-2.3l-2.2-2.5v-2.1l2.8-2l6.1,2.1l2-0.5l1.6,0.7l1-0.7l-0.9-5.5l-4.1-3l-3.2,0.3l-0.8-0.9l1.6-2.4l-1.7-1.1h-1.5
		l-0.8,2.6l-1.4,0.5l-2.5-1.8l-1.3-3.9l4.3-4.2l-0.9-2.8l1.2-1.4l1.9-1.5l-0.7-2.1l1.1-1.5l0.1-8.4l2.5,1.2l2.4-1.6l7.5,0.4l3.2,2.3
		l2.3-2.1l-0.1-0.5l3.7-4.9l1.1,0.7l-0.6,3.5l3.3,2.3l0.9-0.7l-0.6-1.7l1.1-0.6l1.2,0.9l1.5-1.2l1.1,3.7l-1.3,0.7l0.6,1.7l3.7,0.1
		l0.8-0.9l2,1l-0.3,2l1.1,1.3l2.9,0.6l1.3-1.7l1.5,0.8l2.5-2.2l1.8-0.2l0.7,1.3l-1.5,1.5l0.6,1.1h1.3l2.5-2.6l1,2.3l-2.2,1.6l0.6,1
		l3.7,0.1l3.8-0.9l1.2-0.9l-0.3-1.8l2-2.3l1.2,0.3l1.3-0.3l0.1-1.6l1.7-0.5l1.5,1.1l1.1-1v-2.1l1-0.7l1.5,2.2l3.6-0.2l2.6,0.8
		l0.1,2.2l-1.1,1.7l2.4,4l5,3.1l1.4-0.6V120l1.2-1.3l3,2.7l0.8-0.4l-0.3-1.5l0.5-1.4l1.9-1.9l1.9,0.3l1.2,1.3l2.7-0.3l-2.4-4.6
		l1.7-1.3l1.9,0.9l2.6-1l3,1.6l1-1.8l-0.3-2l-1.6-1.7l0.9-1.5l3,2.4l2.8,1.4l4.5-0.5l2.3-2.2l1.5,2.6l2.6,1.8l1.5-2.3l-1.4-2.8
		l1.4-3.4l5.4,0.6L214.8,101.8z"/>
	<g>
		<text transform="matrix(1 0 0 1 118.9885 144.5347)" class="st1 st2">Phulpur</text>
	</g>
	<g>
		<text transform="matrix(1 0 0 1 153.9885 192.0347)" class="st1 st2">Tarakanda</text>
	</g>
	<g>
		<circle class="st3" cx="185" cy="159" r="13.4"/>
		<text transform="matrix(1 0 0 1 179.0414 166.2403)" class="st1 st4">2</text>
	</g>
</g>
<g id="mymensingh-4">
	<path class="st6" d="M88,172l-2.4,5l-5.5,2.3l-8.4-0.4l-6.2-2.5l-1.2,1.3l1.2,1.2l2.5,0.5v2.9l-2-0.7l-1.7,2.5l-0.5,3.2l-2.2,0.6
		l-2.1-0.9l-0.4,1.3l1.1,0.8l4.1-0.3l2.8-0.8l-0.5,2l2.5,0.8l-0.3,2.8l1.7,1l1.7-0.2l5.6,2.7L79,204l-1.9,1.9L79,208l5.6-3.2
		l-0.7-2.2l2.8-2.2l1.6,4.4l-1.8,1.5L87,214l2.2,2l-3.6,4.6l1.4,0.9l4.5-5.3l1,0.9l-0.5,1.3l2.5,3.4l3.2-0.8l4,0.9l1.2,1.8l1.4-0.1
		l2.4-2.6l3.7-0.2l9.3,1.2l0.6,1l-1.5,1.6l0.8,1.9l2.4,1.8l-0.7,1.5l-2.4,2.9l0.2,1.5l2.9,2.6l4.3,0.1l1.9,2v1.6L125,243l0.2,1.9
		l2.2,2.3l1.6-0.2l2-0.8l1.1,2.3l3.3,0.9l0.5,0.9c0,0-0.6,2.7-0.7,2.7s-2.2,0-2.2,0l-1.9,0.8l-0.3,1.6l1.6,1.8l-0.2,1.4l-2.6,1.2
		l-2.6-0.6l-0.7,1l-0.6,2.7l-2.4-0.1l-0.8,1.2l-0.3,2.9l-4.4-0.2l0.6,5.3l-0.3,2.5l0.8,1.4l3.1,0.4l2.1-1.9l3.5-0.5l1.6,2.5l1.7,0.3
		l2-1.5l1.8,2.1l2.4-0.4l1.6,2.2l-3.6,5.2v1.5l0.7,3.6l4.6,2.2l3.2-2l5.3,0.3l0.5,1.7l8,3.7l5.8-0.4l1.8,1.2l3.3-0.7l3,2.1l3.9,2.8
		l1.5,1.4l6.2,1.8l6.6,0.7l1,2.8l3.4-0.2l1.4,2.1l2.4,1.3l1.1-0.6l-1.6-3.5l1.2-1.8l0.1-7.4l1.2-2.3l-0.8-5l1.9-1.3l-1.4-2l-2.1-0.6
		l-2.3-9l-1.5-1.8l0.2-3.5l5-0.8l9.9-4.6l0.3-2.8l0.2-7l2.4-2.1l3-0.5l3.6,1l0.8-0.2l-0.6-1l3.1-4.2l-1.1-1.8l-1.1-2.8l0.6-1.9
		l-4.3-4.6l-2.2,1.9l-8.8-6.2l-1.7-0.3l-0.9,0.6l-3.1-3.4l-2.7-0.7l-2.1-0.1l-8.3-9.6l-5.4-3.3l-3.9-1.3l-5.5-3.8l-3.4,0.3l-3-2.5
		l-3.2-0.3l-2.2,2.7l-1.6-0.6l-2.9-3.4l2.2-3.7l-0.8-1.2l-1.6,0.3l-3.6-3.7l-2.1-0.2l-2.4,2.6l-5.4-4.5l1.2-2.2l-0.9-1.6l-2,3.6
		l-1-1.4l1-1.4l-0.9-1.6l1.2-1.7l-0.7-0.9l-1.4,0.4l-4.2-3l-1-2.9l-2.2-2.9h-2.9l-0.6,3.5l-1.8-0.6l-5.6-4.5l-2-4.4l-4.6-1L98.6,176
		l-1.7-0.9l-2.9-3.6l-5.6,0.7L88,172z"/>
	<g>
		<text transform="matrix(1 0 0 1 130.7801 237.5771)" class="st1 st2">Mymensingh</text>
	</g>
	<g>
		<circle class="st3" cx="118.1" cy="202.8" r="13.4"/>
		<text transform="matrix(1 0 0 1 112.1247 210.0736)" class="st1 st4">4</text>
	</g>
</g>
<g id="mymensingh-5">
	<path class="st7" d="M66.9,190l-0.3,1.7l-2.7,0.4l-0.6,1.4l-2.7,0.1l-0.1,1.2l1.7,0.5v4l-0.8,1.5l-1.6-0.4l-1.8,1l0.1,1.1l1.1,0.8
		l1,3.5l3,0.8l-0.6,1l-2.3,0.8l-2.9-1.7l-1.3,1.6l-3-0.9l-3.9,4.2l0.7,1.2l-2,2.8l1.4,1.4l-0.3,1.6l-2.1,1.4l0.1,1.3l1.5,2l-0.7,3.1
		l-2.8,0.5l-1.9-0.5l-3.8,2v1.7l-1.2,0.9l0.7,2.2l-2.7,1l-1.7-3.1l-2-0.4l-0.9-2.2l-2.4-0.3l-2.2,2.1l-3.2-0.5l-0.4,1.9l-2.6,0.9
		l-4.8-2.3l-2.4-3l-4.3,0.9l-2,0.8l1.3,2.8l3.3,3.2l0.2,1.7l2.4,2.7l0.2,3.8l1.8,3.2l-0.6,1.3h-2.5l-0.2,1.5l0.5,5.6l0.4,1.9
		l18.6-0.7l2.2,2.3l-1.1,2.1l0.1,2.8l-2.1,2.6l0.1,1.8l0.8,1v1.5l1.2,1v0.8l-0.7,1.4l2.6,3.4l-0.9,2.6l0.1,3.4l1.4,1l3,6.3l-0.8,1.2
		l1,1.6l0.2,5.2l-1,0.5l0.8,3l2.9,1.7v2.6l-0.9,1.6l1.3,4.8l-1.6,3.9L41,319l-2.9,0.2l-2.1,3.6l0.9,1.8l3.7-1.4l2.9,2.4l1.4,0.1
		l3.6,4l1.6-0.3l1.8-1.1l-0.1-1.5l2.4-1.3l-0.4-4.6l2.1-2.9l2.8-1l-0.6-1.5l1.9-1.2l0.6-2.4l-2.1-0.9l0.7-3.8l-1.3-1.7l1.8-1.7
		l1.6,1.2l0.3-3.2l4.3-0.3l1.7,0.7l1.4-1l0.1-3.2l1.3-4.4l-2-0.7l-2.1-5.7l1.2-1.6l6.5,1l6.2-0.4l3.8-3.4l-0.2-2.4l1-0.7l4.4-0.2
		l2.9,3.4l3-0.6l0.9-2.1l3.2-0.1l1.6,1.2l2.8-1.1v-1.1l2.3-0.9l4.7-0.1l1.2-2.4l2.6-8.7l2.1-2l1.6,1.5l4.3,0.1l0.4-2.8l0.7-1.2
		l2.5,0.1l0.5-2.7l0.7-1l2.6,0.6l2.6-1.2l0.2-1.4l-1.7-1.7l0.3-1.6l1.9-0.7l2.2-0.2l0.6-2.7l-0.5-1l-3.1-0.9L131,246l-2,0.8
		l-1.5,0.2l-2.2-2.4l-0.2-1.9l3.2-2.5v-1.6l-2-2H122l-3-2.6l-0.1-1.5l2.4-2.8l0.7-1.5l-2.4-1.8l-0.8-1.9l1.5-1.5l-0.7-1l-9.3-1.2
		l-3.7,0.2l-2.4,2.7l-1.5,0.1l-1.1-1.8l-4.1-1l-3.2,0.9l-2.4-3.4l0.5-1.3l-1-0.9l-4.5,5.3l-1.3-0.9l3.5-4.6l-2.2-2l-0.5-7.7l1.8-1.5
		l-1.6-4.3l-2.8,2.2l0.7,2.1L79,208l-1.9-2.1l1.8-1.9l-1.1-7l-5.6-2.7l-1.7,0.3l-1.7-1.1l0.3-2.9l-2-0.6H66.9z"/>
	<g>
		<text transform="matrix(1 0 0 1 34.2801 267.0767)" class="st1 st2">Muktagacha</text>
	</g>
	<g>
		<circle class="st3" cx="74.8" cy="239.1" r="13.4"/>
		<text transform="matrix(1 0 0 1 68.7914 246.407)" class="st1 st4">5</text>
	</g>
</g>
<g id="mymensingh-3">
	<polygon class="st8" points="313.8,276.3 314.1,273.9 312.9,270 313.8,268.6 316.9,268.8 318.2,262.9 320,260.9 324.5,262.5 
		327.1,260.3 326.2,253.7 323.2,253.4 322.8,249.1 318.8,247 315.5,247 312.8,245.5 314,243 312.7,239.2 313.9,236.8 315.6,236.8 
		317.1,237.3 319.4,237.4 320.2,240.4 324.7,239.3 327.1,235.6 326.2,233.1 321.5,231 317.6,229.7 319.8,226.3 321.6,226.6 
		322.2,223.8 320.9,221.4 317.5,222 315.3,223.2 314.2,221.1 311.9,222.9 308.9,223.1 308.5,221.4 306.6,221.4 305,223.3 302,220.9 
		300.4,221.7 300.2,224.1 297.4,224.7 295.1,226.8 291.7,227.8 289.1,227.2 287.9,226.4 287.2,223.8 283.4,223.8 280.1,225.4 
		278.4,225.1 277.6,222 275.1,220.3 271.9,219.9 271.9,217.9 270.6,215.3 269.1,215.4 266.7,217.6 265.5,217.5 263.8,216.2 
		257.8,216.1 257.7,212.3 256,211.6 254.2,214.3 251,217.1 248.4,216.2 249.1,213.5 256,209.4 257,206.3 259.4,203.1 260.7,204.6 
		261.5,203.2 261.1,199.3 258.9,199 256.2,199.5 255.1,202.2 253.3,202 252.2,200.5 247.8,199.7 246.3,198.7 246.8,197.4 
		250.3,197.3 251.1,196.3 249.6,193.8 250.1,192.5 253,192.9 252.9,191.7 250.6,189.6 250.7,184.5 252.4,183.3 249.8,180.8 
		250.3,176 247.8,175 244.5,177.1 241.4,176.2 237.7,176.8 234.8,174.2 234.5,174.4 230.3,171.7 225.6,171.9 224.6,173.2 
		224.8,174.6 227.8,177.1 228.2,181 229.1,182.3 231.6,184.3 231.5,185.7 228.1,187.3 227,190.1 228,193.4 231.1,193.7 231.5,195.7 
		229.7,198.6 226.5,201 227.2,202.3 229.1,202.4 230.9,204.6 234.8,204.5 236.8,204 237.8,205.2 235.6,207.7 237,209.1 238.9,208.2 
		243.1,212.6 242.9,214.1 244.7,216.2 244.4,218 241.2,221.3 240.7,223.4 242.4,223.9 242.5,227.2 242.1,230.9 240.7,234.2 
		238.4,234.9 236.5,233.2 232.4,232 231,232.5 231.4,234.1 230,237.2 230,238.7 231.3,239.4 232.4,242.9 232,249.8 230.6,251.5 
		228.3,251.4 227,249.7 225.7,250.9 223.6,254.7 222.2,255.6 220,255.4 218.8,254 218.2,254.3 214.5,253.3 211.6,253.8 209.1,255.9 
		209,262.8 208.6,265.7 198.7,270.3 193.7,271 193.6,274.5 195.1,276.3 197.4,285.3 199.5,285.9 200.9,288 199,289.3 199.8,294.2 
		198.5,296.5 198.4,303.8 197.2,305.7 198.8,309.1 197.8,309.8 200.2,311.7 200.6,309.1 201.2,307 203,306.2 205.3,302.1 
		208.1,300.6 211.9,302 223.7,305.1 223.6,302.2 221.2,297 215.3,293 213.2,288.5 213,280 215,275.1 220.7,275.1 222.7,277.7 
		224.6,277.6 227.3,280 230.4,279.5 233,280.3 235.4,286.2 244,287.3 245.5,284.5 248.3,287.1 249.5,286.1 250.4,287 249.5,289.3 
		250.5,290.6 253.8,290 255.5,285.7 258.6,287.4 259.8,285.9 258.3,282.8 255.1,280.3 255.1,275.1 258.3,275.1 261.8,272.9 
		267.7,270.2 273.3,270.3 279,274.4 280.9,273.7 281.3,271.4 282.4,271.4 284.6,266.9 284.8,262.9 287.1,262 288.5,262.9 287.9,265 
		290.3,267.3 289.8,270.3 292.1,271.8 298.9,269.1 303,270.7 302.8,274.1 304.9,276.1 307.9,274.8 309.5,276.5 308.6,278 
		310.9,280.2 	"/>
	<g>
		<text transform="matrix(1 0 0 1 247.2801 241.2432)" class="st1 st2">Gouripur</text>
	</g>
	<g>
		<circle class="st3" cx="248.5" cy="259.8" r="13.4"/>
		<text transform="matrix(1 0 0 1 242.4581 267.0736)" class="st1 st4">3</text>
	</g>
</g>
<g id="mymensingh-8">
	<polygon class="st9" points="346.7,318.3 348,317.6 347.1,313.2 345.1,312.1 339.1,312.1 338.4,310.9 337.5,305.4 336.1,305 
		332.4,305.3 331.7,303.3 330.1,303.1 328.5,305.9 326.5,305 320.7,297 319.9,295.9 318.4,295.5 316.7,290.5 317.9,285.4 319.6,284 
		318.8,282 320.6,281.3 319.6,277.7 317.2,276.5 316,277.2 313.8,276.4 310.9,280.2 308.5,278.1 309.6,276.5 307.9,274.7 
		304.9,276.1 302.8,274.2 302.9,270.7 298.9,269.1 292.2,271.8 289.8,270.3 290.2,267.4 287.8,265 288.6,262.9 287.1,262 
		284.8,262.9 284.6,266.9 282.4,271.4 281.2,271.4 280.9,273.7 279,274.4 273.3,270.4 267.6,270.3 261.7,272.9 258.3,275.1 
		255.1,275.1 255.1,280.4 258.3,282.9 259.8,286 258.6,287.4 255.5,285.7 253.8,290 250.5,290.6 249.5,289.3 250.4,287 249.6,286.1 
		248.3,287.2 245.5,284.4 244,287.3 235.3,286.2 233,280.3 230.4,279.5 227.3,280 224.6,277.6 222.7,277.7 220.7,275.1 215,275.1 
		213,280 213.2,288.5 215.4,293 221.2,297 223.6,302.2 223.7,305.1 219.9,304.1 215.2,302.7 211.8,301.9 208.1,300.6 205.3,302.1 
		203.1,306.2 201.2,307 200.6,309.1 200.3,311.8 206.9,316.4 218.1,318.8 217.4,321.1 220.9,323.4 225,328.9 227.3,335.4 
		227.3,339.7 225.5,343.1 225.8,349 229.5,347.9 228.7,343.5 229.6,341.5 229.2,339.4 230.5,338.2 233.3,341.5 234.2,344.9 
		238.6,344.9 238.4,346.4 242.2,346.6 245.6,345 247.6,346.4 248,350.5 247.3,351.6 247.7,353 252.6,352.9 251.3,350.9 252.1,349.7 
		251.6,348 253.1,347.6 259.1,353.7 260,351.6 262.6,353.1 263.6,352.5 262.7,349.8 260.6,349.2 260,347.4 261.1,346.4 261.1,344.9 
		263.7,344.8 264.8,343.4 269.1,343.4 272.5,344.2 274.7,341.4 277,343.5 278.1,342.3 274.7,337.7 277.1,335 281.4,336.9 
		283.4,335.4 291,335.6 293.2,330.6 297,330.7 298.6,329.5 297.7,327.3 301,322 300.2,320.9 300.8,319.2 303,319.8 303.5,317.1 
		304.8,316.2 305,313.8 308.2,311.3 314,314.8 316.5,314.6 319.5,317.2 318.7,321.5 321.4,322.5 324.1,324.5 327.7,321.7 
		327.5,320.2 330,317.8 332.4,318.3 333.8,317 337.3,316 341.5,316.1 342.8,317.3 345.2,317 	"/>
	<g>
		<text transform="matrix(1 0 0 1 245.9051 304.2017)" class="st1 st2">Iswarganj</text>
	</g>
	<g>
		<circle class="st3" cx="248.1" cy="321.1" r="13.4"/>
		<text transform="matrix(1 0 0 1 242.1247 328.407)" class="st1 st4">8</text>
	</g>
</g>
<g id="mymensingh-9">
	<polyline class="st10" points="254.6,395.2 259.1,393.9 258.8,390.7 260.1,389.7 261.3,389.8 261.9,387.6 267.7,387.8 270.3,386.7 
		274.7,388.6 276.3,388.5 277.2,391.4 283.1,398.3 285.7,396.4 286.8,397.3 285.8,399.2 287.6,400 291.7,397.7 292.8,400.8 
		296.3,400.4 296.7,402.6 298.4,402.7 298.7,404.5 307.4,404.1 308.4,401 305.5,396.3 306.7,395.2 308.5,396.7 310.2,391.6 
		308.3,390.2 308.3,384.7 311.7,381.6 313.9,381.9 317.4,377.9 319.9,377.9 319.3,386.5 322.1,387.5 322.7,389.9 324.8,390.5 
		325.8,398 328.1,402 329.5,401.6 331.8,398.4 334,394.6 335.7,393.7 335,392.1 338.7,388 337.8,381.5 339.1,380.6 344,384.7 
		345.3,383.4 345,381.9 346.3,379.2 352.8,381.4 357.9,380.4 360.8,380.5 363.9,381.9 365.3,381.5 365.5,378.7 363.1,376.1 
		364.2,374.9 366,376.1 367,374.6 366.8,371.7 369.9,369.1 368,365 369.3,361.1 370.5,360.7 370.8,364.5 372.6,364 373.1,359.5 
		371.6,358.5 374.9,354.3 372.7,350.5 377.6,345.6 378.8,341.4 377.2,337.7 375.2,338.4 376.3,341.2 375.1,342.2 371.2,338.2 
		370.2,339.3 372.5,342.3 371,343.1 366.9,342.8 363.8,337.2 365.9,333 364.9,331.5 364.6,328.7 363.3,327.4 361.2,327.7 
		358.2,325.8 357.2,323.3 354.7,321.9 354.4,323.2 355,325.1 354.7,326.6 351,327.2 346,326.3 346.7,318.3 345.1,317.1 342.8,317.3 
		341.5,316.1 337.3,316.1 333.8,317.1 332.4,318.3 330,317.8 327.5,320.2 327.7,321.7 324.2,324.5 321.4,322.5 318.6,321.6 
		319.6,317.3 316.5,314.6 313.9,314.7 308.2,311.3 305,313.8 304.8,316.2 303.5,317.1 303,319.8 300.8,319.2 300.1,320.9 301,322 
		297.8,327.3 298.7,329.5 297,330.6 293.2,330.6 291,335.6 283.5,335.4 281.4,336.9 277.1,335 274.7,337.7 278.1,342.3 277,343.5 
		274.7,341.4 272.5,344.1 269.1,343.5 264.8,343.4 263.7,344.8 261.1,344.9 261.1,346.4 260,347.4 260.6,349.2 262.7,349.8 
		263.7,352.6 262.7,353.1 260,351.6 259.1,353.7 253.1,347.6 251.6,348 252.1,349.7 251.3,350.9 252.7,352.9 247.8,353 247.2,351.6 
		247.9,350.6 247.6,346.4 245.5,345.1 242.2,346.6 238.4,346.3 238.6,344.9 234.2,344.9 233.3,341.4 230.5,338.3 229.3,339.4 
		229.7,341.5 228.7,343.5 229.5,347.9 225.8,349 226,356.8 227.1,360.4 235.1,369.4 240.4,376 239.7,377.3 243.5,379.2 247.3,381.6 
		254.6,394.8 254.6,395.3 	"/>
	<g>
		<text transform="matrix(1 0 0 1 312.6968 359.4097)" class="st1 st2">Nandail</text>
	</g>
	<g>
		<circle class="st3" cx="294.8" cy="356.1" r="13.4"/>
		<text transform="matrix(1 0 0 1 288.7914 363.407)" class="st1 st4">9</text>
	</g>
</g>
<g id="mymensingh-10">
	<polygon class="st11" points="215.6,487.2 219.2,488.6 221.5,487.6 226,489.3 226,490.6 227.7,492.3 232.6,493.1 231.3,496.2 
		228.7,501.7 230.3,503.1 234.1,503 235.9,504.4 236.2,505.7 238.4,507.4 240.5,507.1 242.1,509.5 240.4,511.5 243.1,514.4 
		246.1,517.6 249.8,517.5 254.2,523.6 256.4,524.2 262,522.5 263.1,519.3 266.6,518 273.7,512.7 277.8,512.9 281.6,511.8 
		289.4,514.7 293.9,515.1 293.9,512.9 294.5,512 294.3,510.2 290.8,506.8 289.6,502.7 290.6,496.6 289.7,493.4 289.5,490 
		285.9,484.1 281.9,475.9 280.3,474.4 278.4,474.4 277.6,473.1 280.9,469.1 281,466.4 285,462.2 285.7,454.6 287.4,454 288.5,448.3 
		287.6,444.1 289.8,442.2 290,438.9 291.8,437.8 290.4,434.7 291.2,433.6 290.7,431.4 286.9,428.7 286.7,427.2 288.7,427 
		288.6,425.1 286.5,424.7 284,421.2 277.6,421.4 275.7,419.4 270.7,419.2 268.5,416.6 267,418.5 264.5,416.9 261.5,415.8 
		259.7,411.7 257.2,409.8 255.7,404.7 256.8,402.5 255.8,399.8 254.5,394.7 249.1,385 247.2,381.6 243.5,379.2 239.8,377.3 
		236,376.2 233.2,372.9 228.7,373.2 227.8,373.9 226.2,372.8 224.5,373.2 223.4,376 220.5,376.3 218,372.9 214.8,372.6 212.8,368.4 
		210.1,367.2 209.4,362 210.1,360.7 208.4,359.5 205.1,361.4 203.2,360.2 200.5,363.7 201.7,369 201.3,370.7 202.2,373.6 
		201.3,374.7 199.7,373.6 195.1,372.7 193.1,373.8 192.6,377.5 190.7,380.8 191.4,383 193.9,383.5 194,386.7 192.9,388.4 
		193.3,390.8 195.7,393.4 194.3,394.1 191.7,392.9 189.1,394.6 189.6,398.8 191.5,400.3 190.5,402.8 191.4,404.8 195.8,407.8 
		199.3,408.2 201.9,410.6 201.9,416.7 199.7,422.3 202.8,425.9 202.2,429.9 204,430.6 203.9,434.3 208.8,434.7 208.8,437 
		211.6,438.2 210.9,440.3 207.4,441.1 204.7,444.9 205.8,453 208.4,454.9 211.5,454.5 213.2,461.5 216.5,463.5 216.1,465.7 
		218.2,467.5 217.3,471.8 213.7,476.1 213.2,481.3 216.3,484.3 215.7,487.1 	"/>
	<g>
		<text transform="matrix(1 0 0 1 209.6343 429.7844)" class="st1 st2">Gafargaon</text>
	</g>
	<g>
		<circle class="st3" cx="250.5" cy="455.5" r="13.4"/>
		<text transform="matrix(1 0 0 1 237.458 462.7403)" class="st1 st4">10</text>
	</g>
</g>
<g id="mymensingh-11">
	<path class="st12" d="M77,415.3l1.3,3.8l0.3,3.1l2.4,2.5l2.4,5.6l3.5,2.1l2.2,2.1L91,433l1.7,0.5l-9.8,37.2l3.3,6.7l5.9,0.5
		l0.2,4.8l5,8.3l-0.2,6.5l2.2,3.2l4,2.5l5.6,0.3l2.6,1.9l0.3,2.5l3.3,0.9c0,0,2.2-0.9,2.3-0.9l2.6-3.5l2.6-1l2-3.1l2.9-1l1.5-2.3
		l3-1.1l6,4.1l3.4-0.6l3-2.3l0.1-1.4l1.4-0.6l2.3,2l-1.2,5.3l3.4,4l2.3-0.4l4.8-2.2l0.2-2.3l0.7-0.2l1,1.2l2.2-0.5l3.1,4.3l0.8,0.3
		l4-1.2l3.8-5.7l-0.5-1.2l4.6-6.2l2.3-1l-0.1,2.4l2.2-0.1l0.1-2.6l0.7-0.4l-1.8-7l0.7-4.3l2.5-0.3l1.4-1.7l-0.1-1.9l1.3-1l9.8-0.4
		l5.7,5.5l2.3-0.1l0.8,1.9l-0.5,1.3l2.9,1.8l2-0.1l2.2,3.6l3.8-0.2l0.7-3.1l-3.2-3l0.5-5.2l3.6-4.4l0.9-4.2L216,466l0.4-2.1l-3.3-2
		l-1.7-7l-3.1,0.4l-2.7-1.9l-1.1-8l2.7-3.7l3.5-0.9l0.8-2l-2.8-1.2v-2.4l-4.9-0.4v-3.7l-1.8-0.7l0.6-4l-3.1-3.7l2.2-5.6V411
		l-2.6-2.4l-3.5-0.5l0.8,2.6l-1.8,2.5l-1.8,0.5l-4.3-1l-3.4,1.7l-1.2-0.6v-3.5l-1.5-1.7l-1.1-3.7l-2.4-3l-2.9-1l-2.4-2l-2.7-0.4
		l-4.6,1.4l-3.6,3.6l1.2,2.9l-0.8,3.5h-1.5l-0.8-5.9l-0.8-0.9l-3.3,0.5l-4.3,4v3.3l-1.7,1.3l-4.1-3.9l-2.6-0.4l-3.4,1.6l-3.8-1.2
		l-2.2-3.8l-0.1-1.9l-1.8-0.5l-2.9,2.4l-1.7-1.6h-2.2l-5.8,3.7l-3-0.6l-1.4-3.2l-2.1,0.2l-1.5-1.5l-2,0.2l-3.1-3.3h-4.1l-4.4,4
		l-2.3-0.3l-3,2.6l2.1,2.9l-0.3,4.6l-2.7,6.9l-2.8,1l-3.8-2.1l-3.2,0.3l-4.5-2.9L77,415.3z"/>
	<g>
		<text transform="matrix(1 0 0 1 101.2593 451.9512)" class="st1 st2">Bhaluka</text>
	</g>
	<g>
		<circle class="st3" cx="172.5" cy="448.5" r="13.4"/>
		<text transform="matrix(1 0 0 1 160.458 455.7403)" class="st1 st4">11</text>
	</g>
</g>
<g id="mymensingh-6">
	<polygon class="st13" points="36,322.7 33.7,321.6 33.1,325.6 33.3,329.8 30.7,333.9 35.3,338.7 35.4,341.8 38.6,345.9 43.2,344.8 
		43.8,347.4 40.7,349.4 48.2,367.5 49.9,367.4 51.7,365.9 52.5,366.8 52.6,370.5 54.4,375 54.2,377.6 56,378 56.7,375.2 59.8,374.7 
		62.1,377 61.9,378.2 63.5,379.9 65,379.6 68,381.4 69.8,381.4 71.6,383.2 69.2,386.4 70.5,389.3 73.9,387.9 76.7,390.9 78.4,392 
		80.1,397.1 82,397.5 84.3,397 84.8,395.3 87.3,396.2 88.8,398 83.2,402.1 79.7,404.9 79.2,406 79.1,408.2 78.2,408.8 73.1,408.9 
		72.7,410.1 73.4,414.8 75.1,415.4 78.2,415.2 82.6,418.1 85.9,417.8 89.7,419.9 92.5,418.9 95.2,412 95.5,407.3 93.4,404.5 
		96.4,401.8 98.7,402.1 103.2,398.1 107.2,398.2 110.4,401.4 112.4,401.2 114,402.7 116.4,402.5 118.1,400.3 119.1,396.6 125,395.6 
		127.9,397.3 129.7,396 128.7,394.3 130.5,392.9 129.3,384.8 130.7,382.4 129.8,380.2 136.4,374.7 136.1,372 140.6,368.9 
		138.2,365.3 133.8,365.6 130,363.5 128.9,359.4 131.4,356.7 129.7,351.7 133.5,349 138.7,349.3 140,345.7 135.9,341.9 139.2,337.3 
		141.1,336.8 146.8,329.5 147.6,324.9 146.7,323.3 143.5,323.1 141.8,319.1 141.3,313.6 137.7,312.7 136.5,309.4 134.1,307.7 
		133.6,304.6 134.3,302.2 131.2,299.8 130.3,297 132.9,295.8 136.9,296.5 140.9,293.7 140.5,291.2 135.9,289.1 135.2,285.5 
		135.3,283.9 138.8,278.8 137.2,276.6 134.9,276.9 133,274.9 131.1,276.4 129.3,276.1 127.7,273.6 124.3,274.1 122.2,276.1 
		119.1,275.7 118.3,274.3 118.6,271.8 117.9,266.6 116.4,265.2 114.3,267.1 111.8,275.9 110.6,278.3 105.9,278.4 103.6,279.3 
		103.6,280.4 100.8,281.5 99.2,280.3 96,280.4 95.2,282.4 92.1,283 89.2,279.6 84.9,279.8 83.9,280.5 84.1,282.9 80.3,286.3 
		74.1,286.7 67.7,285.6 66.5,287.3 68.7,292.9 70.6,293.7 69.3,298.1 69.3,301.3 67.8,302.4 66.1,301.6 61.8,301.9 61.5,305 
		59.9,303.9 58.1,305.6 59.4,307.3 58.7,311.1 60.7,312 60.1,314.4 58.2,315.6 58.8,317.1 56,318.2 53.9,321 54.3,325.6 51.9,326.9 
		52,328.3 50.2,329.5 48.6,329.7 45,325.7 43.6,325.6 40.7,323.2 37,324.6 36.2,322.9 	"/>
	<g>
		<text transform="matrix(1 0 0 1 70.9885 320.2012)" class="st1 st2">Fulbaria</text>
	</g>
	<g>
		<circle class="st3" cx="97.1" cy="342.1" r="13.4"/>
		<text transform="matrix(1 0 0 1 91.1247 349.407)" class="st1 st4">6</text>
	</g>
</g>
<g id="mymensingh-7">
	<polygon class="st14" points="116,402.5 117.5,405.7 120.4,406.2 126.3,402.6 128.5,402.6 130.2,404.1 133,401.7 134.8,402.2 
		134.9,404.1 137.1,407.9 140.8,409.1 144.3,407.5 146.9,407.9 150.9,411.8 152.7,410.6 152.6,407.2 157,403.2 160.4,402.7 
		161.1,403.6 161.9,409.5 163.4,409.5 164.1,406 162.9,403 166.6,399.5 171.2,398.1 173.8,398.5 176.3,400.5 179.2,401.5 
		181.6,404.5 182.7,408.2 184.2,410 184.1,413.5 185.3,414.1 188.7,412.4 190.8,412.8 193,413.4 194.8,412.8 196.5,410.4 
		195.8,407.7 191.4,404.9 190.5,402.8 191.5,400.3 189.6,398.9 189.1,394.6 191.7,392.9 194.3,394.1 195.7,393.4 193.3,390.8 
		192.9,388.4 194,386.8 193.9,383.5 191.4,383.1 190.7,380.8 192.6,377.5 193.1,373.8 195.1,372.8 199.7,373.7 201.3,374.7 
		202.2,373.6 201.3,370.7 201.7,369 200.5,363.7 203.2,360.2 205.1,361.4 208.4,359.5 210.1,360.7 209.4,362 210.1,367.2 
		212.8,368.5 214.8,372.6 218.1,372.9 220.5,376.3 223.4,376.1 224.6,373.3 226.2,372.8 227.7,373.9 228.7,373.2 233.3,372.9 
		236,376.2 239.7,377.4 240.4,376 235.2,369.5 232.5,366.5 227,360.4 226,356.8 225.8,349.5 225.5,343.1 227.3,339.7 227.3,335.4 
		225,329 221,323.4 217.3,321.1 218.1,318.8 206.9,316.5 200,311.6 197.7,309.7 195.4,308.5 193.9,306.4 190.6,306.6 189.5,303.8 
		182.9,303.1 176.7,301.3 175.2,299.9 168.3,295 165.1,295.7 163.3,294.5 157.5,294.9 149.5,291.2 149,289.5 143.8,289.3 
		140.6,291.3 140.8,293.7 136.9,296.5 132.9,295.8 130.3,297 131.2,299.8 134.3,302.2 133.6,304.6 134.1,307.7 136.5,309.3 
		137.8,312.7 141.3,313.6 141.8,319.1 143.5,323.1 146.8,323.2 147.6,324.9 146.8,329.6 141.1,336.8 139.2,337.3 136,341.9 
		139.9,345.7 138.7,349.3 133.5,348.9 129.7,351.7 131.4,356.7 128.9,359.4 130,363.5 133.8,365.6 138.2,365.3 140.5,368.8 
		136.1,372 136.4,374.7 129.8,380.2 130.7,382.4 129.3,384.8 130.5,392.8 128.7,394.3 129.7,396 127.9,397.3 125,395.6 119.2,396.6 
		118.1,400.3 116.5,402.4 	"/>
	<g>
		<text transform="matrix(1 0 0 1 155.8634 336.6182)" class="st1 st2">Trishal</text>
	</g>
	<g>
		<circle class="st3" cx="179.7" cy="358" r="13.4"/>
		<text transform="matrix(1 0 0 1 173.708 365.2403)" class="st1 st4">7</text>
	</g>
</g>
</svg>
