<?xml version="1.0" encoding="utf-8"?>
<!-- Generator: Adobe Illustrator 25.2.1, SVG Export Plug-In . SVG Version: 6.00 Build 0)  -->
<svg version="1.1" id="Layer_1" xmlns="http://www.w3.org/2000/svg" xmlns:xlink="http://www.w3.org/1999/xlink" x="0px" y="0px"
	 viewBox="0 0 326.3 477.2" style="enable-background:new 0 0 326.3 477.2;" xml:space="preserve">
<style type="text/css">
	.st0{fill:#C5CFED;stroke:#FFFFFF;stroke-width:0.5;stroke-miterlimit:10;}
	.st1{font-family:'TimesNewRomanPSMT';}
	.st2{font-size:16px;}
	.st3{fill:#FFFFFF;}
	.st4{font-size:24.672px;}
	.st5{fill:#ABBEED;stroke:#FFFFFF;stroke-width:0.5;stroke-miterlimit:10;}
	.st6{fill:#9BB6EA;stroke:#FFFFFF;stroke-width:0.5;stroke-miterlimit:10;}
	.st7{fill:#8BAFE8;stroke:#FFFFFF;stroke-width:0.5;stroke-miterlimit:10;}
</style>
<g id="patuakhali-1">
	<path class="st0" d="M127.6,78.4l2-5.9l1.8-1.7l4.7,2l-0.1,1.5l5,5.8l2.3-0.1l3.8-2.5l-0.1-2.2c0,0,4.5-3.5,4.4-3.6
		c0-0.2-0.1-1.6,0-1.7c0-0.1,2.6-1.6,2.6-1.6l0.3-2.1l1.9-0.3l0.9-5.2l1.6-1.4l2.9,0.8L170,67l3,1.6l6.2,1.2l4.2,1.6l4.7,4.1
		l2.8,3.2l1.8,4.1l2.5,1.6l-2,1.8l0.8,2.9h2l2.7-1.5l7.5-5.3l2.4,2.8l-0.9,2.8l0.5,1l-0.8,3.2l0.2,3.4l2,4l0.7,4.4l-2.1,4.6
		l-5.6,0.3l-1.9,0.5l-1.3-0.6l-0.6-2.7l-2.1-1.2l-5.8-2.1l-1.2,1.4l2.5,6.8l1.7,0.2l0.4-0.6l1.3,0.2l1,4.1l1.8,1l-0.1,2.1l-2.5,4.3
		l1.6,4l3,0.4l-0.2,2.3l-6.2,5.8l-0.2,2.7l2,5.1l0.6,5.3l2.7,2.1l3.7-0.1l7.3,8.8l1.6,2.6l2.4,2l0.4,8.4l-7.8,8.3l-3.7-0.1l-6.2-0.7
		l-2,1.4l-2.2,0.5h-7l-3.9-3.9l-1.9,0.7l-0.1,5.9l-1.3,0.2l-0.5-1.8l-2.5-0.2l-5.9-2l-2.2-1.5l-0.9,0.6l0.9,1.2l-0.3,0.9l-2,1.4
		l-0.1,17.2l-1.4,1.2l-4.9-0.7l-1.7,0.9l-0.3,2.5l-1.4,1.6l-1.6-0.6l-3.1-6.1l-9.9,2.7l-0.4,1.4l-3.4,0.5l-5.1,1.2l-4,2.8l-3.2,4.7
		h-4.3l-2.4,0.4l-1.2,1.1l2.1,3.6l-0.3,1.1l-2.2-0.1l-0.5-3.3l-2.2-3.6l0.5-1.4l2.2,1.2l0.8-1l-2-1.7l0.6-1.2l1.7,1.1l0.5-0.8
		l-0.8-1.3l1.6-2.1l-2.5-2.2l-2.1,2.3c0,0-1.9,1.4-1.9,1.3l-1.2-1.2l0.4-1.1l-3.9-3.4l-2.5,0.5l-3.1,1.7l-3.6-0.5L96,200l-1.4,0.4
		l-1,1l-0.4,3.8l-2.7,2.5l-1.8,5.2l-0.8,1.3l-1.3,0.5l-3,0.6l-1.4,1.7l4.3,3.8l-0.2,2l-4.6,5.4l-1.9-2.9l-0.7-1.4l-2-2.2l-1-9.5
		l0.6-13.2l0.7-10l-1.5-4.8v-2.6l-2.6-4.9l-0.7-9.5l3.9-11.6l3.2-5.1l4-1.2l13.6,1.3l5.2-1.6l2.8-3.3l-1.3-11.8l0.2-5.5l4.3-8.3
		l2.9-11l6.9-10.9l6-7.3l3.2-9.9L127.6,78.4z"/>
	<path class="st0" d="M117.4,99.4l-0.5,5.7l1.7,0.3l2.9-0.8l0.6,2l1.5,1.4l-1.1,1.2l0.5,1.4l1.9,0.1l-0.3,3.4l0.8,0.4l0.6,3.1
		l-1.9,3.7l-1.9,0.2l-0.7,4.8l1-0.1l3.3-5.1l4.3-4.3l1.1-1.6l1.5-7.5l1-1.2l3.8-7.5l2.8-4.8l6.9,0.8l2.5,2.7l1.7-0.2l0.4-2.2
		l2.5-0.8l1.4,2.5l2.2-0.3l0.6-1.9l5.1-0.2l4-1.1l-0.1,9.8c0,0,1.8,3.3,1.8,3.4s-0.1,3.6-0.1,3.6l-2,4l-4.3,3.8l0.2,7.3l2,1.3
		l2.5-1.9l3.8-4.8l2.4-5.8l0.4-6.2l7.2-3.3l5.7,0.1l2.3-1.1l1.2-1.5l5.8,2.1l2.2,1.4l0.6,2.7l1.3,0.5l2-0.5l5.5-0.2l2.1-4.6
		l-0.7-4.3l-2-4l-0.2-3.4l0.8-3.2l-0.5-1l1-2.9L206,82l-7.4,5.4l-2.8,1.5h-2.1l-0.8-2.9l1.9-1.8l-2.5-1.6l-1.7-4.2l-3.2-3.5
		l-4.6-3.9l-5-1.8l-5.2-0.9L170,67l-8.4-6.9l-2.9-0.7l-1.6,1.4l-0.8,5.2l-2,0.5l-0.3,2l-2.7,1.6l0.1,1.6l-4.3,3.7v2.1l-3.7,2.7
		l-2.3,0.1l-5.1-5.8l0.1-1.5l-4.7-2l-1.7,1.6l-0.9,2.7l-1.2,3.4l-0.3,2.6l-3.2,9.9l-6.1,7.3L117.4,99.4z"/>
	<path class="st0" d="M76.8,221.5c0,0-2,1.7-2.1,1.6s-7.5-5.3-7.5-5.3l-5.8-1.3l-3.4-1.8l-5-4.5l-3.4-2.1l-1.9-0.4l-1.6-1.6l0.5-2.4
		l-2.5-2.5l0.3-3l-3-4.3l-2-5.9l-1.3-3.9l1-1.8l-0.7-3.1l0.9-1.7l-0.3-2.9l0.9-2.5l1.9-0.4l3.4,2.3l1-1.9l1-0.6l-0.9-4.6l-1.6-2.5
		l-3.3,1.6l-0.3-2.5l-2.3-1.8l0.2-1.5l-1.9,0.7l-1.6-2l-0.4-3.9l3.7,1.9l2.2,2.2l4.9,1.1l4.8,0.9l3.2,3.1l1-0.5l-2-2.8l-0.6-3.3
		l-2.7-3l0.9-1.3l4.4,0.2l2-1.5l1.5-8.6l-0.9-3l0.8-1.7l3.3-0.9l0.1-1.6l-0.9-4.4l0.5-6.9l0.3-2.6l2.5-3.6l2.4-2.5l1-2l-0.4-3.9
		l3.5-1.7l5.8-0.2l1.9-3.2l1.6-3.8l1.7-1.9l0.7-3.1l1.2-1.2L81.8,92l0.8-1.6l2.5-0.7l1.6-1.4l1.5-2l1.5-0.1l5.9-2l4.6-2.3l3.1,0.8
		l2.7-1.6l1-1.4l0.5-1.6l4-3.9l0.7,0.9l-1.1,1.8l1.9,0.2l0.8-2.8l1.1,1l-0.7,1.9l2.5,0.8l0.2,1.3h1.3l0.2-1.9l2.6,0.3l0.7-1.2
		L122,74l1.6-0.8l2,1.1l3,0.3l-1.2,3.6l-0.3,2.6l-3.2,9.9l-6.2,7.3l-6.8,10.8l-3,11.1l-4.2,8.2l-0.2,5.6l1.2,11.8l-2.8,3.3l-5.3,1.6
		L83,149.1l-4,1.2l-3.2,5.2L71.9,167l0.7,9.5l2.6,4.8l-0.1,2.7l1.6,4.8l-1.4,23.3L76.8,221.5z"/>
	<g>
		<text transform="matrix(1 0 0 1 114.0202 141.2037)" class="st1 st2">Patuakhali</text>
	</g>
	<g>
		<text transform="matrix(1 0 0 1 140.0202 87.6204)" class="st1 st2">Dumki</text>
	</g>
	<g>
		<text transform="matrix(1 0 0 1 34.3389 135.5002)" class="st1 st2">Mirzaganj</text>
	</g>
	<g id="dist-gopalganj-1_1_">
		<g>
			<circle class="st3" cx="147.7" cy="159.2" r="13.4"/>
			<text transform="matrix(1 0 0 1 141.7047 166.4919)" class="st1 st4">1</text>
		</g>
	</g>
</g>
<g id="patuakhali-2">
	<path class="st5" d="M198.8,87.6l-2.8-0.9l-0.9-2.3l1.6-1.4l-1-1l1.9-2.2l3.8-7.1l2.4-5.7l-1.6-5.6l-0.8-4.4l2.2-5.9l5.4-7.6
		l3.4-5.3l1.2,0.5l2-0.5l1.9,1.9l2.8,0.7l3.3-0.3l5.9-3.1l6.2-5.8l2,0.5l1.1,2l0.1,4.8l2,1.3l2.3-0.5l6-6.7l2.1-2.8l0.1-1.4
		l-3.4-1.3l-3.2,0.7l-1.4-0.7l-0.1-2.5l2.4-1.6l4.4,0.5l7-3l2.2-2l0.3-3.9l-5.3-4.3l0.2-2.4l0.8-2.3l1.3-2.5l3.5-0.7h3.6l2.1,3
		l9.3,10.2l1.4,3.5l3.2,4.2l0.6,4l3,8.1l1.4,2.6l2.3,1.8l0.5,3.6l2.5,5.8l3.8,7.8l5.5,15l0.9,1.4l3.2,1.3l5,8.5l2.1,3.1l2.4,1
		l3.4,1.8l2,10.7l2.5,7.7l0.6,1l-0.3,3.8l-2.4,1.4L320,132l-0.3,2.5l1.7,16l-0.1,10l-1.1,4.9l-4.8,0.6l-7.6,2.4l-6.7,1.1l-6.5-0.5
		l0.9-10.9l-4.7-0.3l-2.5,2.7l-2.6,1l-2.8-0.9l-0.3-2.7l-1.2-2l2.1-3.6l-2.6-2.8l-0.4-2.2l-3.3-0.8l-1-2.4l-2.7-0.4l-0.7-8.2
		L271,136l-0.8,3.8l0.2,2.1l-0.9,1.3l1.4,3.8l-4.4,1.1l-1.8-1.1l-1.7,1.3l-1.7-0.5l-3.8-2.8l-2,1l-6.3-3.3l-6,2.8l-2.4-0.3l-3.8-3.1
		h-1.3l-3.3,2.7l-3.5,1.5l-0.1,2.9l-1.3,1.5l-3.2,0.4l-1.8,0.3l-3.9-3.3l-3.4,0.3l-0.1,3.6c0,0-0.5,1.2-0.6,1.3s-3.3-3.4-3.3-3.4
		l-4.4-2.2l-1.2,1.3l-2.6-1.2l-0.4,1.7l-3.7,0.1l-2.7-2.1l-0.5-5.3l-2-5.1l0.2-2.7l6.2-5.8l0.2-2.3l-3-0.4l-1.7-4l2.5-4.2l0.1-2.2
		l-1.8-0.9l-1.1-4.1l-1.3-0.2l-0.4,0.6l-1.6-0.2l-2.5-6.8l1.3-1.5l5.8,2.2l2.2,1.3l0.6,2.6l1.3,0.6l1.9-0.5l5.6-0.3l2-4.6l-0.6-4.3
		l-2-4l-0.2-3.4l0.8-3.1l-0.6-1l1-2.8l-2.5-2.8l-6.3,4.7L198.8,87.6"/>
	<g>
		<text transform="matrix(1 0 0 1 233.1869 89.7454)" class="st1 st2">Bauphal</text>
	</g>
	<g id="dist-gopalganj-1_4_">
		<g>
			<circle class="st3" cx="274.4" cy="116" r="13.4"/>
			<text transform="matrix(1 0 0 1 268.4547 123.2419)" class="st1 st4">2</text>
		</g>
	</g>
</g>
<g id="patuakhali-3">
	<path class="st6" d="M320.1,165.4L317,182l-1.9,6c0,0-3.3,3.1-3.4,3.1s-6.9,3.9-6.9,3.9l-1.9,2l0.2,1.4l3.1,3l4.1,5.2l0.9,2.6
		l0.3,4.2l-1.8,6.8l-6.6,10.2l-5.9,7.3l-2.5,5.7l-0.8,4.7l-2.4,1.8l-4.4,0.4l-6.4,4.5l-4.8,4.7l-3.8,2.4l-0.3,1.4l2.9,2.3l4.2,1.4
		l-0.2,3.2l-0.9,3l-2.2,1.5l-2.5-0.9l-1.6-1.6l-2,1.1l-7.5,0.2l-5.5-0.8l-6.5-1.9l-2-1.5h-2.7l-2.1,1l-6.6-2.4l-4.9-0.9l-2.5-12.1
		l-3.1-12.9l-2.8-11.1l4-2.7l3.3-2.5l-0.3-1.2l-6.7-2.1l-7.6-3.7v-1.2l2.9-2.1l0.8-2.1l-3.9-3.1l0.9-4.7l-0.9-0.9l-1.9-0.6l1.4-4.6
		l1.5-1.4l5.5,0.6l3,0.8l2.7-0.7l1.3,0.3l0.6-1l-1.5-6.3l-5.1-6.1l1-2.7h1.5l5.4,2.8l3.1,4.7h2.1l1.2-0.9l-0.7-4.5l1.8-1.5l-1.7-3.8
		l1-3.4l-1.5-1.1l-4.2,0.8l-1.6-11.7l-1.6-3.2l-3.2-2.9l-0.9-2.3l1.2-2.8l-2.1-2.2l3.4-0.4l1.2-1.5l0.1-2.9l3.6-1.5l3.3-2.7h1.2
		l3.8,3.1l2.4,0.4l6-2.8l6.3,3.3l2-1.1l3.7,2.8l1.7,0.5l1.8-1.3l1.7,1.1l4.5-1.1l-1.4-3.9l0.9-1.3l-0.3-2l0.8-3.8l1.5-0.3l0.7,8.2
		l2.7,0.4l1.1,2.4l3.3,0.8l0.4,2.3l2.6,2.8l-2.1,3.5l1.2,2l0.4,2.6l2.7,1l2.6-1l2.5-2.7c0,0,4.7,0.2,4.7,0.3l-0.9,10.8l6.4,0.6
		l6.9-1l7.6-2.4l4.3-0.5L320.1,165.4z"/>
	<path class="st6" d="M275.8,274.7l-0.6,2.9l-0.9,1.3l0.1,3.2l2.2,4.9l-0.3,6l-0.2,5.1l-0.8,3.3l-2,7.9l-1.4,5.2l-0.2,5.5l1.9,0.4
		l0.4,5.7l0.1,3.5l6.9,9l0.7,10.5l1,2.2l4,3.7l1.2,3.2l4.8,7.1l0.6,1.9l-1,5.7l-0.2,7.9l-1.2,3.2l-1.3,4.1l-4,6.4l-4.2,4.8l-0.7,3.5
		l1.6,14.3l-0.7,1.4l-11,10.2l-7.4,5.7l-3,6.7l-4,12.1l-0.6,2l-1.6,0.4l-14.3,9.9l-24.8,1.4l-17.7-8.5l-11.8-6.6l-9.3-3l-6-3.5
		l-2.8,0.6h-8.9l-10.2,3.1l-8.3,0.7l-7.5-1.2l-5.3-7.2l-7.5-8.5l-4.6-8.5v-3.9l3.7-7.3v-2.8l-3-1.5l0.9-3.9l5.2-5.4l2.8-3.3l0.1-2
		l2.4-1.9l1-3.2v-8.9l0.5-4.8l-1.4-7.2l1.4-2.4l1.5,1.4l1.1-0.5l0.6-9.4l-1.5-1.5l7-15.4l2.7-6l-0.1-2.8l3.7-5.8l5.1-4.8l5.7-1.6
		l6-6.9l6.7-7.1l1.2-4.5l-0.2-7.5l-1.8-0.5L165,292l-4.9-0.2l-2.4-1.8l-1.3,0.4l-1.1,3.8l-0.8,0.5l-1.9-1.8l-0.6-1.7l-3.7-3.3
		l-1.4-3.8l0.1-3l1.5-2.5l-4.1-4.2l-0.1-3.6l0.8-3.2l-2.2-7.4l1.6-4.9l9.2-8.5l2.8-1h2.5l4.2-4.9l0.7-3.8l-1.6-1.4h-1.6l-1,1.6
		l-3.9,2.5l-2.9-0.9l-3.5-4.2v-0.8l1.9-0.8l1.2,0.9l2.7-1.5l0.6-2.1l2.5-1.6l0.1-1.6l-2.5-0.3l-0.2-1.7l1.4-1.6l-1.9-2.5l1.3-2.6
		l-1.7-1.2l-2.4,1.5l-5.3-5.2l-3.4,0.9l-1.1-1.3l0.6-3.7l-1.9-0.3L140,210l-1.5-1.4l2.4-8.4l9.9-2.6l3.1,6.1l1.7,0.5l1.4-1.5
		l0.3-2.5l1.6-0.9l4.9,0.7l1.4-1.2l0.1-17.3l2-1.4l0.3-0.9l-0.9-1.2l1-0.6l2.3,1.5l5.8,2l2.5,0.2l0.5,1.8c0,0,1.3-0.2,1.3-0.3
		s0-5.8,0-5.8l1.9-0.7l3.9,3.9h7.1l2.2-0.5l2-1.4l6.3,0.7h3.5l7.9-8.3l-0.4-8.4l-2.4-2l-1.6-2.6l-5.2-5.9l-2.2-2.9l0.4-1.6l2.6,1
		l1.3-1.3l4.5,2.3l3.2,3.4l0.6-1.2l0.2-3.6l3.3-0.3l3.9,3.4l1.8-0.3l2.1,2.1l-1.2,2.8l0.9,2.3l3.2,2.9l1.6,3.3l1.7,11.6l4.2-0.8
		l1.5,1.1l-1,3.3l1.6,3.9l-1.7,1.6l0.8,4.4l-1.2,1h-2.1l-3.1-4.8L226,183h-1.4l-1.1,2.7l5.2,6.1l1.5,6.2l-0.6,1.1l-1.4-0.2l-2.7,0.7
		l-3-0.9l-5.4-0.6l-1.5,1.4l-1.4,4.5l1.8,0.6l0.9,0.9l-0.9,4.7l3.8,3.1l-0.8,2.1c0,0-2.8,2.1-2.9,2.1v1.2l7.6,3.7l6.7,2.1l0.3,1.2
		l-7.3,5.1l8.4,36l4.9,0.9l6.6,2.4l2.1-1h2.7l2.1,1.5l6.4,1.9l5.7,0.8l7.3-0.3l2-1l1.7,1.6l2.1,0.9L275.8,274.7z"/>
	<g>
		<text transform="matrix(1 0 0 1 234.0203 210.2454)" class="st1 st2">Dashmina</text>
	</g>
	<g>
		<text transform="matrix(1 0 0 1 175.3536 289.8287)" class="st1 st2">Galachipa</text>
	</g>
	<g id="dist-gopalganj-1_2_">
		<g>
			<circle class="st3" cx="232.9" cy="318" r="13.4"/>
			<text transform="matrix(1 0 0 1 226.9547 325.2419)" class="st1 st4">3</text>
		</g>
	</g>
</g>
<g id="patuakhali-4">
	<path class="st7" d="M115,425.1l-2.8,2.4l1.6,4.8l-1.7,3.3l-2.8,1.7l-5.1,0.8l-0.6,1.8l2.7,2.7l-3.3,4.1c0,0-3.2,3.6-3.3,3.6
		c-0.1,0-6.2,2.8-6.2,2.8l-2.5,3.4l-8.1,9l-4.7,3.6l-9.4,3.8l-13.1,1.7l-14.8-0.9l-17.7-5l-9.7-6.2l-5-4.9L3.7,450l0.4-5.7l1.5-0.5
		l3.5-1.5l0.3-1.7l2.2-6.5l1.9-0.9l-1.5-2.5L7.7,428l0.1-2.6l2.7-4.8L15,416l4.9-4.1l0.5-2.7l-2-4.3l0.7-7l3.6-3.4l6.5-1.4l8.6-0.6
		l0.5-1.6l-3.8-4.1l-1.8-7.5l1.8-4.8l4.4-4.7l4.2-5.7l3.4-3.8h3.1l3.5,4.6l1.7-0.1l1.6-1.6l7.6-0.4l0.5-1.6l-5.5-7.8l-2.3-1.6
		l-0.2-2.4l4.1-3.5l-0.3-1.9l-4.7-4.7l0.2-1.6l7,1.1l5.4,1.5l2.3-1.2l-0.3-1.4l-3.5-3l0.4-0.9l6.2,1.6l1-1.5l-3.7-6.1l4-3.8
		l-0.4-1.4l-6.5-1.4L67,319l1.5-2.1l0.3-2l-1.6-0.5l-2,3.6l-1.9-0.2l-3-4.3l-0.5-2.8l0.9-3.8L59,303l1-1.9l4-1.3l3.8-1.8l3.7,2.7
		l-0.3,1.5l2.4,1.8l-0.9,2.6l-1.4,1l-2.8-1.7l-0.6,1.4l1.9,1.5v2.1l1.8,0.9l3.1-1.2l3.1,2.2l0.9,3.6l2.9,0.5l1.6-0.9l3.6,0.8l2,2.2
		l-4.1,3.8l-2.4,2.6l0.5,1.1l4.6-0.2l4.2-0.1l0.4,1.2l-6.7,3.4l-3.5,0.2l-2.8,1.6l0.3,2.1l7.5-0.2l4.8,0.3l0.8,1.4l-0.6,2.4l3.6,3.4
		l1.4-1l-0.7-2.7l2.6,0.3l-1.5-1.9l3.1-2.5l4.6,1.5h4.8l4.6-4.5l0.9-3.6l-1.1-3.9l0.9-1.9l2.7-0.5l1.2-2.1l-4.7-1.3l-2.2-2l1.5-0.8
		l2.4,0.8l1.5-0.6l0.8-2.4l0.4-3.1l5.8-2.4l7.8-4.2l0.1-2l-2-2.4l0.8-1.2l6.2-1.5l1,1.8l0.4,2.9l1.5-0.1l0.3-4.8l1.3-1.2l0.3-8.7
		l1.6-1.6l2.7,0.8l1.2,3.5l3.7,3.3l0.6,1.7l1.9,1.7l0.9-0.6l1.1-3.7l1.3-0.4l2.4,1.7l4.9,0.2l1.4,1l1.8,0.4l0.3,7.5l-1.2,4.5
		l-12.8,14l-5.6,1.5l-5.1,4.8l-3.7,5.8v2.8l-9.6,21.3l1.6,1.5l-0.6,9.4l-1.1,0.4l-1.6-1.4l-1.4,2.4l1.4,7.2l-0.5,4.9l0.1,8.7
		l-0.9,3.3l-2.4,1.9l-0.1,2.1l-8,8.7l-0.9,3.9l3,1.6v2.8l-3.7,7.3v3.8L115,425.1z"/>
	<g>
		<text transform="matrix(1 0 0 1 66.4369 375.3704)" class="st1 st2">Kalapara</text>
	</g>
	<polygon class="st7" points="165.4,388.6 160.9,387.7 147.4,396.4 132.4,410.9 129.5,416.2 127.1,420.5 121.1,436.6 116.6,441.5 
		119.9,449.9 125.4,453 135.3,449.3 137.5,443.9 134.3,439.4 134.9,438.2 138.4,442.9 142.9,443.3 145.5,437.8 155.6,433.3 
		165.4,428.1 172.4,416.9 168.5,408 166.7,396.1 	"/>
	<g>
		<text transform="matrix(1 0 0 1 131.7557 430.8558)" class="st1 st2">Rangabali</text>
	</g>
	<g id="dist-gopalganj-1_3_">
		<g>
			<circle class="st3" cx="84.8" cy="399.1" r="13.4"/>
			<text transform="matrix(1 0 0 1 78.788 406.3252)" class="st1 st4">4</text>
		</g>
	</g>
</g>
</svg>
