<?xml version="1.0" encoding="utf-8"?>
<!-- Generator: Adobe Illustrator 25.2.1, SVG Export Plug-In . SVG Version: 6.00 Build 0)  -->
<svg version="1.1" id="Layer_1" xmlns="http://www.w3.org/2000/svg" xmlns:xlink="http://www.w3.org/1999/xlink" x="0px" y="0px"
	 viewBox="0 0 254.3 497" style="enable-background:new 0 0 254.3 497;" xml:space="preserve">
<style type="text/css">
	.st0{fill:#C5CFED;stroke:#FFFFFF;stroke-width:0.5;stroke-miterlimit:10;}
	.st1{font-family:'TimesNewRomanPSMT';}
	.st2{font-size:16px;}
	.st3{fill:#FFFFFF;}
	.st4{font-size:24.672px;}
	.st5{fill:#ABBEED;stroke:#FFFFFF;stroke-width:0.5;stroke-miterlimit:10;}
	.st6{fill:#9BB6EA;stroke:#FFFFFF;stroke-width:0.5;stroke-miterlimit:10;}
	.st7{fill:#7CA7E5;stroke:#FFFFFF;stroke-width:0.5;stroke-miterlimit:10;}
</style>
<g id="bhola-1">
	<path class="st0" d="M70.5,3.8L72,3.5l4.8,3.8L82,3.4l10.1,0.3l0.6,1.9l-0.5,6.9l0.3,11.7l2.4,9.3l-3.4,6.8l0.2,2l2.3-0.2l1.8,1.1
		v1.1l-1.2,1h-2.1l-4,1.9l0.2,1.9l3.1-0.2l0.7,1.6l-0.8,1.7l0.2,2.7l-1,1.3l-1.2,5l-0.3,1.9l-3.2-0.2l0.9,2.6l1,1.9l3.7,0.5l1.2,3.7
		L88,72l-3.7,1.8L84,76.4l-0.7,1.1v4.6l2.3,2.6l1.7,0.1L87,88.1l-1.3,2.3l-0.1,4.4l-1.8,2l0.4,1.4l2.9,2.9v1.9l-2.2-0.1l-2.1,2.3
		l-1.6-0.2l-0.8,0.6l-1.2,6.4l-1.2,0.7l-5.7,1.6l-1.6,1.5l-2.9-0.7l-0.6,1.3l1.5,2.6l-1,5.2l-1.3,1.7l-0.8,5.9v6.4l1.3,4.9l0.9,3.9
		v4.6l2.7,6.1l3.1,4.3l0.7,1.6l-0.8,1.5l-3.2-0.7l-7-3.3l-3.7-2.4l-5.5,0.1l-3.4,3.2l-4.1,0.8l-6-6l-9.3-0.1l-3.8-6.6l-9.6-10.7
		l-0.8-2.5l-4.3-3.1l-4.2-4.3l-3.6-2l0.2-5.2l-1.4-0.4L3.6,116l1.3-1.1l1-4.3l-0.3-8.9l-2.1-3.4l-0.2-4.5l2.3,0.3l0.7-1.3h4.5l2.5-2
		l1.7,0.6l0.9,1l2.2-0.2l4.5-9.5l3.9-7.2V65.3L23.9,60l-2.7-6.8l-0.4-4.7l1.7-5.4l1.6-2.2l5.1-0.1l2-2.1l1.6-4.2h-1.7l0.4-3l3.2-0.1
		l3.1-0.8l3.9-3.6c0,0,0.7-1.7,0.7-1.8s5.2-3.6,5.2-3.6h7.6l1-2.8l0.9-1.4l2.3-0.2l2.2-1l2.2-4.3l2.3,0.3l3.1-3.3l-0.3-1.6l1.6-2.6
		L70.5,3.8z"/>
	<g>
		<text transform="matrix(1 0 0 1 34.6792 84.236)" class="st1 st2">Bhola</text>
	</g>
	<g id="dist-gopalganj-1_7_">
		<g>
			<circle class="st3" cx="49.1" cy="106.9" r="13.4"/>
			<text transform="matrix(1 0 0 1 43.1214 114.1586)" class="st1 st4">1</text>
		</g>
	</g>
</g>
<g id="bhola-2">
	<polygon class="st5" points="94.7,33 95.6,32.9 98.1,35.8 102.7,38.6 108.9,41.1 110.7,42.9 113.8,50.3 114.9,57 115.6,64.2 
		116.4,67.7 115.9,74.2 117.7,83.2 118.5,88 119.5,97.8 120.2,103.9 121.9,106.8 126.5,110.4 133.5,114.5 136.9,116.4 141.9,123.2 
		150.6,133 157.5,139.3 163.4,144.6 165.3,148.7 151.5,148.9 145.1,148.3 143.3,149.1 144.4,150.9 142.5,154.2 142.1,156.3 
		140.3,155.9 139.5,154.2 137.7,153.9 137.5,151.6 136.5,151.8 135.6,153.4 133.2,154.2 131.9,152.5 131,153.1 130.7,155 127.6,157 
		125.1,157 124,159.6 120.9,161.7 120.4,165.4 119.3,165.2 117,163 112.9,164.9 110.4,162.9 109.3,155.9 105.8,154.7 103.8,155.8 
		99.4,155.9 96.6,154.6 91.7,154.8 90.2,158.8 84.5,164.5 78.4,165.1 76.5,165.8 73.4,169.9 71.3,169.8 71.9,167.1 73.5,164.9 
		73.7,165 74.5,163.5 73.7,161.8 70.6,157.5 68,151.4 68,146.9 65.7,138 65.7,131.7 66.5,125.9 67.8,124.1 68.8,118.9 67.2,116.3 
		67.9,115.1 70.8,115.7 72.4,114.2 78,112.7 79.2,112 80.4,105.6 81.3,105 82.8,105.2 84.9,102.9 87.1,102.9 87.1,101 84.2,98.1 
		83.8,96.8 85.6,94.7 85.7,90.3 87,88.1 87.4,84.7 85.6,84.7 83.3,82.1 83.4,77.5 84.1,76.4 84.4,73.8 88,72 92.9,71.7 91.7,68.1 
		88,67.5 87,65.6 86.1,63.1 89.3,63.2 89.8,61 90.9,56.2 91.9,55 91.7,52.3 92.5,50.6 91.9,49 88.7,49.2 88.5,47.3 92.5,45.4 
		94.6,45.4 95.8,44.4 95.8,43.3 94,42.1 91.7,42.4 91.5,40.4 94.9,33.6 	"/>
	<path class="st5" d="M38.3,174.1l7.4,14.4l4.7,11.2l3.7,2l5.5,8.5l2.4,1.5l2.9,0.8l1.3,7.2l3.2,8.7l-0.2,4l1.3-0.1l1.6-2.3l2.1,0.5
		l1.1,1.5l3.2-0.3l1.6-1.9l3.7-0.5l2.5,2.1H88l4.3,2h3.4l1.6-3.6l1.8-4.3l1.5-1.8l1.1,1.1l-0.9,2.6l0.1,5.8v2.1l3,3.4l4.6,1.5l5-0.6
		l2.4-1.9l2-2.2l0.7-0.5l1.8-1.5l2.4,0.1l1-1l0.3-1.6l1.8-2.5l0.3-6.1l0.8-1.2l-1.2-2.9l1.3-2.8l1.8-1.1l2.7,1l2.3,1.2l1.3-1
		l0.1-5.2l-1.5-5l2.9-1.7l-0.2-1.1l-1.5,0.5l-0.6-0.9l0.3-1.2l1.2-0.1l0.5-1.3h1.7l0.2,2.1l1.8,1.3l1.4-1l1.5,1.4l1.1-2.4l-0.2-2.1
		l1.6-0.4h4.1l0.8-1.7v-1.2l-1.6-2.2l2.5-2.7l-1.1-1.8l-2.5,0.3l-2.2-2.3l1.3-1.7l-0.1-2.7l1.7-1.8l1.6-0.9l0.2-1.3l-2.6-1.1
		l-3.7-0.5h-3.7l-1.4,0.7l-0.7,2.8l-2.3,2.6l-2.3,0.3l-1.6-0.4l-0.5,4.9L129,189l-4.8-4.2l0.7-1.3l-1.2-3.3l-0.3-4.4l-2.6-10.1
		l-0.4-4.1l-0.5,3.4l-1.1-0.1L117,163l-4.1,1.9l-2.4-1.9l-1.2-7.1l-3.5-1.2l-1.9,1.1l-4.5,0.2l-2.8-1.4l-4.8,0.2l-1.5,4l-5.7,5.6
		l-6.1,0.7l-1.8,0.7l-3.2,4.1l-2.1-0.1L72,167l1.6-2.1l-3.1-0.7l-6.9-3.3l-3.7-2.4l-5.5,0.1l-3.5,3.3l-4.1,0.8l-6-6l-9.3-0.1
		l0.2,3.4l3,7.5l1.7,2.5l2.1,1.5L38.3,174.1z"/>
	<g>
		<text transform="matrix(1 0 0 1 89.0125 110.0693)" class="st1 st2">Doulatkhan</text>
	</g>
	<g>
		<text transform="matrix(1 0 0 1 35.075 189.9652)" class="st1 st2">Borhanuddin</text>
	</g>
	<g id="dist-gopalganj-1_1_">
		<g>
			<circle class="st3" cx="104.1" cy="131.9" r="13.4"/>
			<text transform="matrix(1 0 0 1 98.1214 139.1586)" class="st1 st4">2</text>
		</g>
	</g>
</g>
<g id="bhola-3">
	<polygon class="st6" points="132.4,183.2 132,188.1 129.6,189.4 124.7,185.2 125.4,183.8 124.2,180.5 123.8,176.1 121.3,166 
		120.9,161.7 124,159.6 125.1,157 127.6,157 130.7,155 131,153.1 131.8,152.5 133.2,154.2 135.6,153.4 136.6,151.8 137.5,151.6 
		137.8,153.9 139.5,154.2 140.4,156 142.1,156.3 142.5,154.2 144.4,150.9 143.4,149.1 145.2,148.3 151.5,148.9 165.2,148.7 
		169.2,148.1 176.9,158.2 189,177.9 194.7,189.4 200.5,199.9 208.1,213.8 213.5,225.5 218.8,235.1 221.6,240.2 214.8,240.8 
		191,243.6 182.8,244.4 180.3,244.4 180.5,246.8 178.6,252 171.9,257.9 171.6,259.3 172,261.3 169.1,263.8 170.1,266 169.1,270.1 
		166.8,272.8 166.3,276.5 166.9,276.9 166.2,281.1 165.2,282.3 163.4,281.6 163.5,278.3 162.6,274.9 159.2,271.8 159.1,269.9 
		161.7,267 161.3,265.4 158.5,266.4 155.5,266.1 153,265.8 148.6,265.9 144.1,264.5 138.3,260.7 135.8,260.3 133.8,257.3 
		130.8,257.2 129.6,255.2 128.3,254.8 126.1,256.3 126.3,257.8 124.9,258.2 123.9,256.1 120.4,254 118.7,248.9 118.7,242.7 
		119.8,238.7 118.8,235.2 120.6,233.7 123.1,233.8 124,232.8 124.3,231.2 126.1,228.7 126.4,222.6 127.3,221.4 126.1,218.5 
		127.3,215.7 129.1,214.5 131.8,215.5 134.2,216.7 135.4,215.7 135.6,210.6 134.1,205.5 137,203.9 136.8,202.8 135.3,203.3 
		134.8,202.4 135.1,201.2 136.4,201.1 136.9,199.9 138.6,199.9 138.8,202 140.6,203.3 142,202.4 143.6,203.8 144.6,201.4 
		144.5,199.3 146,198.9 150.2,198.9 150.9,197.3 150.9,196.1 149.3,193.8 151.8,191.2 150.8,189.4 148.2,189.7 146.1,187.3 
		147.4,185.6 147.3,182.9 149,181.1 150.6,180.2 150.8,178.9 148.3,177.8 144.7,177.3 140.9,177.3 139.5,178 138.8,180.8 
		136.5,183.3 134.2,183.6 	"/>
	<polygon class="st6" points="146.6,344.7 152.3,344.8 152.8,342.7 166.1,342.2 174.2,342.7 177.8,328.5 179.1,322.4 178.1,319.1 
		178.5,308.2 182.2,295.6 185.4,286.7 184,286.3 187.3,277.3 167.1,276.9 166.3,281 165.1,282.3 163.4,281.6 163.5,278.3 
		162.6,274.9 159.2,271.8 159.1,269.9 161.8,266.9 161.3,265.4 158.5,266.3 155.4,266.1 152.9,265.8 148.6,265.9 144.1,264.5 
		138.3,260.7 135.8,260.3 133.8,257.3 130.8,257.2 129.6,255.2 128.3,254.8 126.1,256.3 126.3,257.8 124.9,258.2 123.9,256 
		120.4,254 118.7,248.8 118.7,242.7 119.8,238.6 118.8,235.2 118.1,235.7 116.1,237.9 113.7,239.8 108.7,240.4 104.1,238.8 
		101.2,235.3 101.1,227.5 102,224.9 100.9,223.8 99.4,225.6 96,233.4 92.6,233.4 88.3,231.3 86.6,231.3 84.1,229.3 80.4,229.7 
		78.8,231.6 75.6,231.9 74.5,230.4 72.3,230 70.7,232.4 69.4,232.4 67.3,232.3 65.8,233.3 65.7,240.9 66.5,252.6 66.9,258.6 
		67.6,266.3 67.8,275.5 65.9,286.5 65.1,293.1 63.3,298 58.6,301.9 54.8,304 54.7,305.9 57.1,306.3 69.7,309.9 72.7,309.3 
		73.4,313.2 77.1,311.7 80.5,312.4 82.3,311.6 87.6,314.6 92.1,312.7 92.3,310.9 96,310.9 96.9,309.2 101.2,309 103.4,307.7 
		105.6,307.9 106.3,310.9 109.6,310.9 112.3,309.6 112.5,308.6 116.9,308.9 116.8,305.6 116.1,303.7 117.4,303.2 118.3,304.1 
		118.9,306.1 123.7,306.2 123.5,308.8 122,311.3 123.9,312.9 125.6,312.5 126.8,311.2 128,311.5 129.7,313 133.2,313.4 133.8,314.5 
		132.2,317 132.5,318.4 135,320.1 138,326.2 138.5,328.8 138.1,331.2 136.7,334 138,335.4 144,333.3 145.5,334.6 145.8,340.8 
		146.3,343.6 	"/>
	<g>
		<text transform="matrix(1 0 0 1 150.325 219.3402)" class="st1 st2">Tazumuddin</text>
	</g>
	<g>
		<text transform="matrix(1 0 0 1 81.7834 261.3818)" class="st1 st2">Lalmohan</text>
	</g>
	<g id="dist-gopalganj-1_2_">
		<g>
			<circle class="st3" cx="129.7" cy="283.5" r="13.4"/>
			<text transform="matrix(1 0 0 1 123.7047 290.7419)" class="st1 st4">3</text>
		</g>
	</g>
</g>
<g id="bhola-4">
	<polygon class="st7" points="173,345.5 164.7,385.1 171.7,384.9 171.2,387.7 167.6,392.8 164.5,395.9 162.6,408.2 182.7,409.1 
		225.9,408.6 225.8,400.1 224.4,393.2 221.6,385.8 221.6,381.5 222.7,380.2 225.8,370.8 231.7,361.2 232.7,354.5 236.7,346.7 
		237.4,343.3 235.7,337.4 235.2,330.9 235.9,315.4 235,307.2 236.8,294.7 239.8,280 239.7,276.1 232.5,258.5 227.6,249 221.4,240.2 
		182.7,244.4 180.4,244.5 180.5,246.8 178.6,252 172,257.9 171.6,259.4 172,261.3 169.1,263.8 170.1,266 169.1,270.2 166.8,272.8 
		166.3,276.5 167,276.9 187.2,277.4 184,286.3 185.3,286.7 181.9,296.5 178.5,308.3 178.1,319.1 179.1,322.5 174.2,342.7 
		173.6,344.1 	"/>
	<path class="st7" d="M133.8,376.3l3.8-6.4l5.9-5l3.8-6.8l-1-6.1l-1.5-3.2l0.3-4.5l-0.2-1.5l0.9-0.8l-0.5-7.4l-1.6-1.2l-5.9,2.1
		l-1.3-1.4l1.4-2.9l0.3-2.3l-0.5-2.6l-3-6.1l-2.4-1.7l-0.3-1.4l1.6-2.5l-0.6-1l-3.6-0.5l-1.8-1.6l-1.1-0.3l-1.2,1.4l-1.7,0.4
		l-1.9-1.7l1.5-2.4l0.2-2.6l-4.7-0.1l-0.7-2l-0.9-0.9l-1.2,0.6l0.6,1.8l0.2,3.3l-4.3-0.2l-0.3,1l-2.7,1.3l-3.2-0.1l-0.7-3l-2.1-0.2
		l-2.3,1.3l-4.3,0.2l-0.9,1.7h-3.7l-0.2,1.8l-4.4,1.9l-5.4-3l-1.7,0.8l-3.4-0.7l-3.7,1.5l-0.7-3.9l-3.1,0.7L57,306.2l-2.3-0.4
		l-1.2,1.4l-3.3,7.3l-5.5,11.2L39,336.1l-2,2.5l-2.4,6l-2.3,2.5l-3.4,8l-3.3,4.8l0.2,1.8l2.9,3.2l3.1,0.4l1.2,1.8l-0.1,2.4l-2.1,4.8
		l0.2,2.4l2.1,3.1l-0.4,7.6l-0.5,9.3l-1.7,2.9l-1.1,4.8l0.3,6.4l0.9,7l0.3,5l0.7,3.1l2.5,2.8l2.3,11.4l-0.4,2.5l-3.2,4.8l0.3,1.6
		l1.7,1.3l6.2,2.3l5.4,2.2l1.7,1.6l0.3,2.4l-0.2,8.7l-2.6,6.4l-2.6,4.6l-3.7,3.1l-1,4.5l1.4,10.1l4.7-2.5l8.2-1l8.3,1.1l6.2-0.2
		l14-3.9l13.2-0.9l14-1.4l8.1-1.4l6.7-3.9l2-4.6l-0.4-2.5l-12.5-13.5l-7.5-8.1l-3.9-3.6l-3.2-18.9l-0.8-8.2l10.6-9l7.9-8.5
		c0,0,3.5-5,3.7-5.2s1.1-2.5,1.1-2.5l6.4-8.1l0.1-1.8l-2.6-2.3l1.4-2.7l3-4.1L133.8,376.3z"/>
	<g>
		<text transform="matrix(1 0 0 1 187.7209 308.1943)" class="st1 st2">Monpura</text>
	</g>
	<g>
		<text transform="matrix(1 0 0 1 52.4709 353.361)" class="st1 st2">Charfesson</text>
	</g>
	<g id="dist-gopalganj-1_3_">
		<g>
			<circle class="st3" cx="82.7" cy="392.2" r="13.4"/>
			<text transform="matrix(1 0 0 1 76.7047 399.4919)" class="st1 st4">4</text>
		</g>
	</g>
</g>
</svg>
